<svg xmlns="http://www.w3.org/2000/svg" viewBox="0 0 1934.8 3499.45"><title>Asset 1</title><g id="Layer_2" data-name="Layer 2"><g id="Layer_1-2" data-name="Layer 1"><path d="M1934.55,3452.07c-.25-4.9-.86-9.79-1.44-14.51-.45-3.6-.91-7.32-1.2-10.94-.52-6.45-.54-13.11-.56-19.54,0-9.71-.06-19.76-1.72-29.94-1.42-8.69-1.48-17.52-1.55-26.86-.06-9-.13-18.28-1.5-27.56-1.19-8.1-1.1-16.24-1-24.87.11-9.7.22-19.74-1.62-29.89-1.48-8.11-1.45-16.41-1.43-25.2,0-8.61,0-17.51-1.42-26.46-1.39-8.47-1.33-17.06-1.27-26.15s.12-18.78-1.44-28.4c-1.45-8.89-1.4-17.9-1.34-27.44.06-9.73.12-19.79-1.54-29.89-1.35-8.25-1.26-16.63-1.17-25.49.09-9.47.19-19.27-1.58-29.15-1.42-7.89-1.39-16-1.37-24.48s0-17.07-1.38-25.81-1.37-17.52-1.32-26.85.1-19.24-1.49-29.08c-1.37-8.5-1.3-17.11-1.23-26.23.08-9.69.17-19.7-1.6-29.78-1.41-8-1.34-16.13-1.27-24.74.08-8.78.16-17.85-1.42-27-1.46-8.52-1.42-17.18-1.39-26.35s.08-18.63-1.48-28.15c-1.36-8.31-1.28-16.73-1.2-25.65.08-9.42.17-19.15-1.55-29-1.44-8.24-1.38-16.63-1.32-25.52s.12-18.26-1.46-27.61c-1.37-8.13-1.33-16.41-1.28-25.17,0-9.11.09-18.53-1.56-28-1.41-8.1-1.36-16.33-1.3-25s.12-17.64-1.36-26.69c-1.51-9.27-1.42-18.66-1.32-28.59.1-10.27.2-20.89-1.59-31.54-1.34-7.93-1.29-16-1.25-24.53.06-8.86.11-18-1.49-27.26-1.42-8.26-1.37-16.67-1.32-25.56s.11-18.23-1.44-27.57c-1.45-8.72-1.39-17.57-1.34-26.93s.12-19.19-1.46-29c-1.36-8.36-1.27-16.83-1.17-25.81.1-9.84.21-20-1.71-30.25-1.37-7.29-1.46-14.78-1.54-22.7a173.09,173.09,0,0,0-1-20.42c-1.33-10.36-1.22-20.7-1.11-31.66.13-12.52.27-25.47-2-38.4-1.28-7.45-1.3-15-1.31-23a164.17,164.17,0,0,0-1.13-23c-1.33-9.32-1.42-18.7-1.53-28.63s-.2-19.94-1.6-30c-1-7.37-.89-14.79-.74-22.66.19-10,.38-20.45-2-31-1.22-5.38-.92-11.3-.6-17.56.2-3.94.41-8,.23-12.1-.31-6.67-1-13.36-1.62-19.83-.38-3.69-.76-7.5-1.06-11.23-.42-5.17-.35-10.31-.28-15.75.13-9.24.26-18.8-2.2-28.58-2-8.1-1.17-17.54-.33-26.67l.2-2.18c.6-6.72-.51-13-1.58-19a81.19,81.19,0,0,1-1.58-12.47c-.1-4.19-.11-8.47-.12-12.62,0-11.59-.06-23.57-1.92-35.7-1.43-9.32-1.42-18.74-1.42-28.71,0-10.24,0-20.82-1.66-31.4-1.1-6.94-1-14-.9-21.47.13-9,.27-18.38-1.84-27.85-2-8.8-1.11-18.79-.29-28.44l.17-2c.57-6.85-.53-13.24-1.59-19.43a86.09,86.09,0,0,1-1.6-13.34c0-3.73,0-7.57.1-11.29.22-10.79.45-22-2.33-33.35-2.14-8.78-1.19-18.93-.28-28.73l.15-1.52c.64-6.89-.48-13.29-1.55-19.47a88.33,88.33,0,0,1-1.55-12.06c-.17-4.66-.08-9.46,0-14.11.2-10.77.41-21.91-2.42-33.22-1.91-7.61-1-16.52-.17-25.14l.09-.89c.64-6.41-.47-12.28-1.55-18a74.62,74.62,0,0,1-1.52-10.85c-.24-5.83-.23-11.8-.22-17.58,0-11.79,0-24-2-36.28-1.45-8.81-1.45-17.75-1.45-27.21s0-19-1.49-28.65c-1.31-8.49-1.23-17-1.14-26.11.1-9.73.2-19.8-1.56-29.95-1.42-8.15-1.42-16.47-1.42-25.27,0-8.59,0-17.48-1.41-26.4-1.36-8.62-1.25-17.33-1.13-26.55.12-10,.25-20.45-1.65-30.92-1.43-7.89-1.41-16-1.38-24.53,0-8.37.06-17-1.37-25.75-1.39-8.51-1.32-17.14-1.24-26.27.08-9.67.16-19.67-1.62-29.72-1.31-7.48-1.17-15.13-1-23.22.18-9.35.36-19-1.81-28.78-1.27-5.71-1-11.93-.63-18.51.2-4.1.41-8.34.23-12.56-.29-6.64-.93-13.32-1.55-19.77-.4-4.15-.81-8.45-1.12-12.66-.4-5.41-.32-10.78-.24-16.47.14-9.93.28-20.2-2.29-30.65-1.23-5-.93-10.65-.6-16.6.2-3.78.41-7.68.23-11.58-.29-5.89-.91-11.79-1.51-17.5-.42-4-.85-8.1-1.15-12.13-.53-6.86-.49-13.93-.46-20.77,0-10.7.1-21.76-1.87-33-1.46-8.32-1.47-16.82-1.47-25.83s0-18-1.5-27.23c-1.26-7.76-1.23-15.62-1.2-23.94,0-8.6.06-17.49-1.43-26.47s-1.41-17.91-1.35-27.46c.07-9.72.13-19.77-1.53-29.85-1.38-8.32-1.3-16.76-1.22-25.69.09-9.4.19-19.12-1.53-28.92-1.48-8.42-1.43-17-1.39-26.08,0-8.78.08-17.85-1.34-27-1.35-8.75-1.32-17.6-1.29-27,0-9.91.08-20.15-1.65-30.41-1.17-6.91-1.1-14-1-21.42.09-8.56.17-17.42-1.7-26.39-1.33-6.36-1-13.18-.68-20.41.2-4.4.41-9,.23-13.49-.31-7.7-1-15.45-1.72-22.95-.34-3.63-.68-7.27-1-10.91a160.43,160.43,0,0,1-.22-16.17c.18-9.58.37-19.48-2.28-29.61-1.29-5-1-10.61-.63-16.58a112.82,112.82,0,0,0,.25-11.52c-.27-5.62-.9-11.24-1.5-16.67-.42-3.81-.86-7.74-1.16-11.58-.46-5.92-.37-11.79-.26-18,.18-10.33.36-21-2.26-31.86-2.07-8.58-1.1-18.48-.17-28l.08-.81c.57-5.94-.51-11.36-1.57-16.6-.91-4.52-1.76-8.8-1.43-13,0-.41,0-.83,0-1.24v-.24c1.09-17.65-.79-35.32-2.61-52.41-.35-3.3-.7-6.62-1-9.94a5,5,0,0,0-7.6-3.74c-.69.43-1.28.88-1.79,1.27l-.72.54c-12.58,1.28-25.29,2.86-37.59,4.4l-7.11.88c-13.91,1.72-28.32,1-39.32.09-7.85-.61-15.34.47-22.58,1.51a114.28,114.28,0,0,1-17,1.58c-10.72-.13-21.6-.08-32.12,0-13.66.07-27.78.14-41.62-.2-7.81-.18-15.7,0-23.33.24-17.21.48-33.46.93-49.73-2.77a5,5,0,0,0-1-.12c-15.8-.51-31.81-.35-47.3-.19-25.59.27-52,.54-77.93-2.25-13.61-1.46-27.39-1.16-40.71-.88-15.49.33-31.51.68-47-1.81-13.9-2.22-28.25-1.28-42.12-.36l-2.09.13c-7.83.52-15.49-.46-23.61-1.49-5.82-.74-11.84-1.5-18-1.67-8-.23-16.14-.07-24,.07-15.8.3-32.14.61-48-2.22-10.7-1.91-21.75-1.31-32.43-.73q-3.8.21-7.57.38c-6.27.25-12.45-.63-19-1.56s-13.19-1.87-20.18-1.68l-5.91.18c-13.48.45-26.21.88-39.13-2.05-10.57-2.4-21.66-1.47-32.38-.58l-2.44.21c-6.11.5-12.15-.46-18.52-1.47A117.08,117.08,0,0,0,914,38.16c-5.82-.2-11.68-.1-17.35,0-12.08.21-23.49.41-35-2-8.21-1.73-16.65-1.33-24.82-.95-4.69.22-9.12.43-13.52.26-8.07-.3-16.33-1-24.31-1.68-4-.35-8-.69-12-1-5.28-.39-10.54-.34-15.62-.29-8.88.1-17.26.18-25.67-1.91-9.75-2.43-20-1.49-30-.58l-2.17.19c-5.16.46-10.27-.46-15.66-1.44A88.82,88.82,0,0,0,684.63,27c-4.37-.12-8.77-.16-13-.19-10.71-.09-21.8-.17-32.67-1.8-9.93-1.48-20-1.47-29.78-1.46-10,0-20.31,0-30.22-1.61-7.29-1.2-14.6-1.08-21.66-.95-8.41.14-16.34.28-24.22-1.64-6.46-1.58-13.1-1.22-19.51-.88a102.41,102.41,0,0,1-10.57.22c-5.42-.25-11-.87-16.39-1.47-3.77-.42-7.67-.85-11.54-1.16-5.39-.44-10.75-.37-15.94-.3-8.76.13-17.05.24-25.32-1.95-9.12-2.41-19.22-1.4-28.13-.5l-1.36.13c-5,.5-10-.44-15.2-1.43a85.64,85.64,0,0,0-12.19-1.69c-5-.23-10-.12-14.89,0-10,.23-19.49.44-29-2.07-6.19-1.65-12.58-1.28-18.77-.92a91.66,91.66,0,0,1-10,.23c-4.24-.21-8.43-.72-12.86-1.26S282.25,5.2,277.56,5c-13.94-.65-28.1-1.18-41.79-1.69-10.58-.4-21.52-.8-32.14-1.25a10,10,0,0,1-1.45-.74,17.44,17.44,0,0,0-1.67-.87,5,5,0,0,0-6.87,3.4c-.42,1.73-.92,3.49-1.42,5.2a57.66,57.66,0,0,0-2.59,12.55c-.19,3.58-.28,7.18-.36,10.66-.2,8.66-.39,16.84-2.18,25.06a61,61,0,0,0-1,13.15c0,5.07,0,9.87-1.62,14.37-1.42,4-1.11,8.25-.83,12a39.31,39.31,0,0,1,.15,5.86,49.5,49.5,0,0,1-1.13,6.45,42,42,0,0,0-1.37,11.16c.32,6.68-.62,13.29-1.62,20.3-1.2,8.45-2.45,17.2-1.35,26.27a3.48,3.48,0,0,1,0,.36c-3.2,4.95-3,10.19-2.81,14.48a34.24,34.24,0,0,1,0,5.09c-.26,2.18-.67,4.38-1.1,6.71a63.73,63.73,0,0,0-1.49,13.78c.23,6.47-.69,12.87-1.67,19.65-1.26,8.7-2.56,17.7-1.28,27.05l0,.19c-3.65,5.17-3.2,10.68-2.83,15.19a25.58,25.58,0,0,1,.07,5.71l-.58,3.69c-.85,5.33-1.72,10.84-2.2,16.37-.82,9.39-1.47,18.93-2.09,28.15q-.37,5.58-.76,11.17a.28.28,0,0,0,0,.09c-4.27,6.67-3.42,13.94-2.73,19.86.08.68.16,1.35.23,2,.37,3.43-.49,6.84-1.41,10.45a48.33,48.33,0,0,0-1.76,10c-.44,10.72-1.13,21.63-1.81,32.19q-.45,7-.87,13.92c0,.35,0,.69,0,1-3.65,4.62-3.17,9.75-2.81,13.6a18.82,18.82,0,0,1,.09,4.58c-.23,1.36-.48,2.73-.72,4.09-.77,4.28-1.57,8.7-2.06,13.17a58.36,58.36,0,0,0-.1,8.65c.2,5,.37,9.38-2,13.14a4.93,4.93,0,0,0-.71,3.43c1.1,7.08,0,14.16-1.21,21.65A121.07,121.07,0,0,0,142,521.51c-.28,9-1,18.1-1.72,27-.33,4-.65,8-.93,12-3.64,5.14-3.18,10.65-2.81,15.15a26,26,0,0,1,.08,5.68c-.26,1.77-.56,3.55-.86,5.32a99.56,99.56,0,0,0-1.84,16.53,123.09,123.09,0,0,1-1.68,17.3C131,629,129.73,637.82,131,647c-3.65,4.39-3.13,9.41-2.76,12.86a15.45,15.45,0,0,1,.1,4.08c-.21,1.06-.42,2.11-.64,3.16a122.61,122.61,0,0,0-2.16,12.9c-.3,3.24-.4,6.44-.5,9.53-.18,5.71-.34,11.1-1.73,16.53-1.29,5.05-1.4,10.17-1.52,15.12s-.23,9.71-1.46,14.22S119,744.24,119,748.48s0,8.28-1.25,12.13c-1.56,5-1.69,10.07-1.81,15a55.12,55.12,0,0,1-1.14,12,72.13,72.13,0,0,0-1.54,14.91A67,67,0,0,1,112,815.71a76.84,76.84,0,0,0-1.49,14.73,72.9,72.9,0,0,1-1.31,13.39,71.5,71.5,0,0,0-1.31,13.76c-.14,4.92-.28,9.58-1.55,14s-1.23,8.8-1.19,13,.07,8.29-1.25,12.14c-1.66,4.81-1.71,9.75-1.76,14.52,0,4.33-.09,8.42-1.28,12.23-1.58,5-1.43,10-1.29,14.76s.28,9.06-1.19,13.28c-1.91,5.48-2,11.25-2.15,16.82a67,67,0,0,1-.94,11.81A88.8,88.8,0,0,0,94,996.07c-.14,5.65-.26,11-1.54,16.19a66.49,66.49,0,0,0-1.48,12.2,66,66,0,0,1-1.17,10.45,80.65,80.65,0,0,0-1.45,15,70.82,70.82,0,0,1-1.43,14.37,62.4,62.4,0,0,0-1.27,13.26c-.1,4.63-.2,9-1.45,13.2-1.41,4.77-1.4,9.51-1.39,14.09,0,4.42,0,8.6-1.21,12.6-1.59,5.11-1.77,10.38-1.95,15.49a67.28,67.28,0,0,1-1.05,11.58A92.82,92.82,0,0,0,77,1161a93.92,93.92,0,0,1-1.23,14.51c-2,10.32-2.36,20.91-2.72,31.16-.15,4.21-.31,8.57-.58,12.8a13.26,13.26,0,0,0,.12,2.46s0,.1,0,.14c-4.1,6.93-3.5,14.46-2.66,19.6.41,2.47-.37,4.89-1.28,7.7a31.66,31.66,0,0,0-1.82,8.22c-.54,10.28-1.21,20.75-1.85,30.87q-.45,6.94-.88,13.89a9.2,9.2,0,0,0,0,1.3c-3,4.66-2.88,9.59-2.77,13.62a33.76,33.76,0,0,1-.08,4.55c-.28,2.51-.74,5-1.23,7.66-.55,3-1.12,6.17-1.43,9.39-.34,3.5-.44,7-.54,10.32-.17,5.93-.34,11.53-1.71,17.18-2.2,9-2.53,18.41-2.86,27.48-.13,3.65-.27,7.43-.52,11.07a15.7,15.7,0,0,0,.14,3.08c0,.2.05.46.07.69-4.09,6.49-3.48,13.44-3,19.07.06.61.11,1.2.16,1.8.24,3-.52,6.13-1.33,9.39a51.21,51.21,0,0,0-1.54,8.17c-.9,10.88-1.54,21.92-2.16,32.61-.24,4.09-.47,8.19-.73,12.3a8.82,8.82,0,0,0,0,1.16c-3.32,4.65-3,9.76-2.8,13.59a25.23,25.23,0,0,1,0,4.6c-.26,1.91-.66,3.85-1.08,5.91-.87,4.3-1.78,8.74-1.51,13.39.35,6.17-.62,12.31-1.64,18.81-1.23,7.77-2.5,15.8-1.44,24.2-3.83,6.13-3.2,12.77-2.69,18.2l.18,2c.25,3.07-.52,6.16-1.33,9.43a51.56,51.56,0,0,0-1.55,8.11c-.88,10.21-1.52,20.59-2.15,30.62-.24,3.83-.47,7.66-.72,11.49a8.07,8.07,0,0,0,0,1.21c-3.48,4.92-3.12,10.17-2.83,14.46a26.65,26.65,0,0,1,.05,5.11c-.27,2-.65,4-1.06,6.14-.89,4.68-1.81,9.52-1.54,14.53.33,6.16-.63,12.28-1.65,18.76-1.26,8-2.57,16.33-1.33,25-3.81,4.66-3.24,10-2.85,13.67a17.38,17.38,0,0,1,.14,4.54c-.23,1.23-.46,2.47-.7,3.7a128.28,128.28,0,0,0-2.09,13.74c-.86,10.65-1.52,21.46-2.15,31.93-.24,3.85-.47,7.7-.72,11.56a11.09,11.09,0,0,0,0,1.16c-3.35,4.64-3,9.74-2.79,13.57a23.71,23.71,0,0,1,0,4.61c-.34,2.4-.73,4.8-1.11,7.2-.58,3.67-1.18,7.46-1.64,11.26a49,49,0,0,0-.08,8.38c.22,4.6.41,8.57-1.89,11.88a5,5,0,0,0-.84,3.56c1,6.88-.07,13.8-1.19,21.12-1.09,7.06-2.2,14.36-1.46,22a5,5,0,0,0,1.44,3l23.68,23.69v12.18a5,5,0,0,0,1.86,3.88c1.57,1.27,3.13,2.44,4.64,3.57,4.74,3.55,8.84,6.62,11.74,11.54,3.12,5.3,5.43,10.23,6.25,16H18.27a5,5,0,0,0-4.95,5.66c.41,3.12.68,6.31.95,9.4.59,7,1.2,14.24,3.56,21,5.39,15.37,13.12,32.75,29.59,45,8.09,6,18.34,12.26,33.06,12.67,11.12.31,19.76,2.05,25.41,9.26A58.63,58.63,0,0,0,122,2143.83a5,5,0,0,0,3.13,1.58,71.8,71.8,0,0,0,10.44.14c5.86-.2,11-.39,15.43,2.2l3.53,10.88a5,5,0,0,0,4.75,3.45h9.59a5,5,0,0,0,4.32-2.48l8.1-13.89H190c11.61,5.9,18.8,15,26.4,24.69,1.31,1.67,2.62,3.33,4,5v23.85a5,5,0,0,0,.71,2.57c1.42,2.38,2.89,4.5,4.3,6.55,2.63,3.81,4.9,7.09,5.58,10.24.19.89.37,1.78.56,2.66,1.29,6.18,2.62,12.56,6.11,18.51a5,5,0,0,0,3.1,2.32c2.3.57,4.56.93,6.75,1.27,4.78.75,8.68,1.36,11.66,3.8V2262a5,5,0,0,0,1.65,3.72c16.24,14.57,26,27.57,31.37,41.91-.42,1.36-.78,2.74-1.12,4.08-.7,2.7-1.65,6.39-2.83,7.28-6.7,5-9.5,10.39-9.66,18.55a5,5,0,0,0,2.65,4.5c.7.38,1.45.75,2.22,1.14a51,51,0,0,1,4.89,2.69c1.5,1,3,2.18,4.08,3.09l.56,5.09a5,5,0,0,0,1.77,3.29l14.56,12.11-1.4,2.94h-6.19a5,5,0,0,0-3.53,1.46l-4,4a5,5,0,0,0-1.47,3.45c-.28,17.65-.31,19.09,7.56,29.49a5,5,0,0,0,3,1.89c13.93,2.68,25.75-3.5,42.11-12.06l2.06-1.08c16.19-2.13,30.36,2.28,43.29,7.65,3.7,10.12,2.44,12.87-6.93,18.84-3,1.92-6.42,4.1-7.79,9.48a15,15,0,0,1-1.92,1.93c-.71.64-1.52,1.38-2.26,2.19a5,5,0,0,0-1.3,3.36v9.86a5,5,0,0,0,.73,2.59c6.14,10.09,14.87,15,23.32,19.7l1.81,1c1.45.82,3,1.55,4.43,2.26,3.26,1.57,6.62,3.2,7.82,5.12,4.61,7.42,9.81,12,16.86,15a5,5,0,0,0,4.69-.46l11-7.35,10.27,2.53c.79,6,3.43,11,8.28,15.88l1.43,1.43c5.53,5.54,10.76,10.77,13.61,18,2.29,5.84,6.94,10.57,11,14.74.85.85,1.68,1.7,2.48,2.55,6,6.26,12.09,12.32,18,18.19q3.14,3.09,6.18,6.13c.37,1.24.8,2.43,1.21,3.59.62,1.72,1.65,4.61,1.39,5.43l-.26.84c-1.36,4.34-2.77,8.83-2,14.41a4.93,4.93,0,0,0,1.55,2.94l2.58,2.42c2.43,2.28,5,4.64,7.61,6.9a6.9,6.9,0,0,0,1.81,1.12v15.93a5,5,0,0,0,1.45,3.52l9.72,9.8a5,5,0,0,0,3.55,1.48h10.92a5,5,0,0,0,3.24-1.19,98.21,98.21,0,0,0,27.88-37.79c2.59-.17,3.63,0,4.55,1.09,0,1.46,0,3,.08,4.49a127.64,127.64,0,0,1-.25,14.76c-.5,5.24,1.06,10.37,4.77,15.67,4.77,6.82,10.45,13,15.94,18.9l2.05,2.22a17.58,17.58,0,0,0,5.29,3.69v11.42a5,5,0,0,0,2.3,4.21l6.76,4.31,5.51,23.19a5,5,0,0,0,1.32,2.38l11.71,11.71a52,52,0,0,0,1.82,9.88c1.07,4.21,2.08,8.19,1.28,12a5,5,0,0,0,.86,4,21.08,21.08,0,0,1,2.25,4.88c1.83,4.91,4.81,12.89,15,12.89h.67l.25.16c6.2,3.9,12.06,7.59,14.51,13.79,2.75,7,7.41,11.83,11.61,15.66,4,3.64,8,7.09,12.19,10.74l3.74,3.24c.07,7.36-.1,7.71-2.13,11.81a5,5,0,0,0,.26,4.89c7,11,10.18,14.61,19.58,19.28,1.67.83,3.31,1.75,5,2.73,5.56,3.15,11.87,6.72,19.81,6.92a12,12,0,0,1,6.38,2.72c7.09,5.82,13.93,11.84,20.54,17.65l4.35,3.82c-1.49,4.94-1.36,9.53-1.26,13.68,0,1.84.1,3.62,0,5.29-9.5,4-10.66,13.69-11.32,19.15a5,5,0,0,0,1.46,4.16l4.63,4.55a5,5,0,0,0,3.5,1.44h10.5l24.16,31.2A5,5,0,0,0,816,2956l21.86,3.63.24.24v14.64a5,5,0,0,0,1.46,3.53l4.45,4.45v21.12a5,5,0,0,0,1,3l6.63,8.78a5,5,0,0,0,4,2h4c2.93,0,5.53,0,8.13,0,2.19,0,16.66-4.09,19.41-7,3.62-3.82,8.15-4.53,13.75-4.17l4.84,4.57v20.27a5,5,0,0,0,2.87,4.52l13.41,6.3v20.2a5,5,0,0,0,1.3,3.36l26.5,29.16c.06,1.28.17,2.56.28,3.81.32,3.62.65,7.37-.38,9.79-3,7.19-2.93,13.92-2.52,20.76a57.49,57.49,0,0,0,2.6,12.56c.47,1.66.92,3.22,1.3,4.78a5,5,0,0,0,.69,1.57l11.66,17.7c1.78,9.7-1.77,17.68-5.11,23.6a42.8,42.8,0,0,0-5.53,26.18,5,5,0,0,0,1,2.6l9.89,13c0,2,.07,3.95.12,6a150.8,150.8,0,0,1-.3,18.52c-.55,5.51.54,10.48,1.59,15.28a45.12,45.12,0,0,1,1.5,10.71,30,30,0,0,0-2.34,2.26c-1.49,1.56-2.34,2.4-3.76,2.79A21.67,21.67,0,0,0,945,3302.3a5,5,0,0,0,.18,2.87c4.91,13.32,16.41,19.67,26.55,25.27l.1.06v3.5l-5.34,3.33a5,5,0,0,0-2.35,4.24v13.19a5,5,0,0,0,2.56,4.37l10.5,5.84,3.54,16.59a5,5,0,0,0,2.09,3.09l13.39,9.07,4.28,14.53a5,5,0,0,0,2.65,3.1l8.79,4.16,11,28.12a5,5,0,0,0,4.65,3.17h22.86c1.67,2,3.27,4,4.83,6,4.46,5.59,8.68,10.87,13.24,15.9,7.58,8.35,10.26,15.6,9.24,25a5,5,0,0,0,5,5.53h15q17.4,0,34.8.1c11.43,0,23,.09,34.71.09,14.9,0,29.9-.08,44.76-.34,12.54-.22,25.31-.16,37.67-.1,25.23.13,51.32.25,77.16-2,22.09-1.9,44.9-1.43,66.95-1,9.85.2,20,.41,30.05.41q14.65,0,29.3.09c21.91.09,44.57.18,66.88-.21,9.86-.17,20,0,29.71.21,22,.42,44.81.86,67.35-2.81a52,52,0,0,1,10.37-.22c1.8.08,3.65.16,5.52.16h211.71c1.47,0,3.1.16,4.83.32,4.5.43,9.59.91,13.94-1.36,1.5-.78,2.5-.58,5.19.27a18.41,18.41,0,0,0,7.7,1.13l7.63-.82c14.69-1.62,29.88-3.29,45.47-2.82a4.78,4.78,0,0,0,3.63-1.41,5,5,0,0,0,1.52-3.58v-6.63c0-2.66,0-5.32.06-8C1934.81,3464.68,1934.89,3458.36,1934.55,3452.07Zm-9.8,18.61c0,2.7-.07,5.41-.07,8.11v1.55c-14.46-.09-28.28,1.48-41.72,3l-7.58.82a10,10,0,0,1-3.67-.73c-3-.94-7.51-2.36-12.81.41-1.72.9-5.1.58-8.36.27-1.89-.18-3.84-.37-5.79-.37h-211.7c-1.66,0-3.33-.07-5.09-.15a61,61,0,0,0-12.41.34c-21.64,3.53-44,3.1-65.55,2.68-9.85-.18-20-.38-30.08-.2-22.2.38-44.8.29-66.66.2q-14.67-.06-29.34-.08c-9.92,0-20-.21-29.84-.42-22.32-.46-45.4-.94-68,1-25.39,2.19-51.25,2.06-76.26,2-12.4-.06-25.23-.12-37.88.1-26.4.46-53.27.35-79.26.24q-17.42-.07-34.84-.1H1088c-.27-12.6-6.42-21.11-12-27.28-4.34-4.79-8.46-9.95-12.83-15.41-2-2.56-4.15-5.21-6.39-7.94a5,5,0,0,0-3.86-1.83h-21.84L1020.54,3410a5.08,5.08,0,0,0-2.51-2.69l-8.56-4-4.15-14.1a5,5,0,0,0-2-2.72l-13.22-8.95-3.59-16.84a5,5,0,0,0-2.46-3.32l-9.92-5.52v-7.49l5.35-3.33a5,5,0,0,0,2.35-4.24v-9.21a5,5,0,0,0-2.55-4.36l-2.71-1.5c-9-4.95-17.47-9.65-21.41-18.51a11.89,11.89,0,0,1,8.05-7.06,17.68,17.68,0,0,0,8.34-5.51,11.38,11.38,0,0,1,2.31-2.07,5,5,0,0,0,2.53-3.69c.82-5.87-.34-11.16-1.46-16.26-.93-4.23-1.81-8.22-1.42-12.15a156.3,156.3,0,0,0,.35-19.76c-.06-2.56-.12-5.07-.12-7.47a5,5,0,0,0-1-3l-10-13.09a32.54,32.54,0,0,1,4.38-19c4-7,8.91-18,6-31.49a5.1,5.1,0,0,0-.72-1.7l-11.73-17.8c-.37-1.46-.79-2.91-1.19-4.31a49.66,49.66,0,0,1-2.23-10.41c-.36-6-.46-11.05,1.75-16.27,2-4.71,1.53-9.93,1.13-14.55-.15-1.76-.3-3.43-.3-4.93a5,5,0,0,0-1.3-3.36l-26.44-29.1v-21.44a5,5,0,0,0-2.87-4.52l-13.41-6.3v-19.25a5,5,0,0,0-1.57-3.63l-7.68-7.25a4.88,4.88,0,0,0-2.95-1.34c-7.08-.68-16.07-.52-23.22,6.68a91.84,91.84,0,0,1-12.89,4.29c-2.49,0-5,0-7.79,0h-1.54L854,3002v-21.51a5,5,0,0,0-1.47-3.53l-4.44-4.45v-14.64a5,5,0,0,0-1.47-3.53l-2.83-2.84a5,5,0,0,0-2.71-1.39l-21.51-3.57-24.47-31.59a5,5,0,0,0-3.95-1.94H780.3l-1.39-1.36c1-6.25,2.64-8.36,6.71-9.29a5,5,0,0,0,3.77-3.82,42.83,42.83,0,0,0,.59-10.39c-.12-4.44-.23-8.63,1.69-12.83a5,5,0,0,0-1.26-5.84c-2.25-2-4.55-4-6.91-6.06-6.68-5.88-13.59-11.95-20.81-17.88-2.84-2.33-7.61-4.86-12.46-5-5.45-.13-10.16-2.8-15.14-5.62-1.78-1-3.61-2-5.51-3-6.58-3.27-8.84-5.27-14.11-13.37,2-4.54,2-6.57,1.91-16a5,5,0,0,0-1.7-3.7l-5.47-4.74c-4.17-3.61-8.11-7-12-10.56-3.53-3.22-7.06-6.89-9.06-12-3.64-9.25-11.53-14.21-18.49-18.59l-1.61-1a5,5,0,0,0-3.25-.74c-4.11.48-4.88-.6-7-6.31a40.31,40.31,0,0,0-2.35-5.41c.61-5.27-.62-10.11-1.72-14.43a35.15,35.15,0,0,1-1.54-9.37,5,5,0,0,0-1.46-3.68l-12.14-12.14L634,2676.09a4.92,4.92,0,0,0-2.17-3.06l-6.16-3.93v-11.69a5,5,0,0,0-2.43-4.28c-.86-.52-1.71-.94-2.53-1.36a12.15,12.15,0,0,1-3-1.8l-2.07-2.24c-5.26-5.69-10.7-11.58-15.08-17.84-2.36-3.37-3.29-6.15-3-9a133.54,133.54,0,0,0,.29-15.93c0-2-.09-3.93-.09-5.81a4.91,4.91,0,0,0-.69-2.53c-4.61-7.84-11.45-7.25-16-6.87l-1.67.13a5,5,0,0,0-4.39,3.26c-5,13.56-13.1,25.17-24.78,35.45h-7l-6.81-6.86V2604a5,5,0,0,0-3.7-4.82,15.23,15.23,0,0,0-1.66-.33l-.43-.07c-2.31-2-4.58-4.12-6.78-6.18l-1.22-1.15c0-2.69.76-5.25,1.73-8.35l.27-.86c1.25-4-.16-8-1.52-11.76-.51-1.43-1-2.77-1.32-4.06a5,5,0,0,0-1.31-2.31l-7.15-7.09c-5.87-5.81-12-11.82-17.8-18-.84-.89-1.72-1.78-2.6-2.68-3.6-3.66-7.32-7.44-8.86-11.38-3.61-9.2-9.83-15.43-15.85-21.45l-1.4-1.41c-4-4-5.63-7.73-5.65-12.83a5,5,0,0,0-3.79-4.83l-15.94-3.93a5,5,0,0,0-4,.7l-10.48,7c-3.91-2.12-7-5.21-9.89-9.93-2.72-4.37-7.63-6.74-11.95-8.83-1.39-.68-2.7-1.31-3.88-2l-1.84-1c-7.27-4.07-14.17-7.93-18.93-15v-6.3l.27-.24c1.83-1.65,4.12-3.72,4.88-6.82.37-1.49.82-1.87,3.6-3.64,14-8.91,16.32-16.57,10-32.78a5,5,0,0,0-2.7-2.79c-15-6.39-31.63-11.91-51.42-9a4.87,4.87,0,0,0-1.59.52l-2.84,1.48c-14.23,7.45-23.91,12.51-33.76,11.38-4.35-5.83-4.55-7.1-4.35-19.66l1.08-1.08H311a5,5,0,0,0,4.51-2.85l4.43-9.29a5,5,0,0,0-1.32-6l-16-13.3-.57-5.1a5,5,0,0,0-1.88-3.38c-.21-.16-.49-.4-.83-.69a64.37,64.37,0,0,0-5.57-4.24,49.75,49.75,0,0,0-5-2.83c.56-3.19,2.1-5.26,5.4-7.73,4-3,5.33-8.19,6.51-12.78.45-1.77.89-3.45,1.42-4.89a4.94,4.94,0,0,0,0-3.39c-7.15-20.38-21.14-35.28-33-46.13v-14.76a5,5,0,0,0-1.26-3.32c-5.48-6.15-12.58-7.26-18.83-8.24-1.3-.2-2.56-.4-3.78-.63-2-4.1-2.94-8.75-4-13.63-.19-.91-.38-1.83-.58-2.74-1.1-5.08-4-9.32-7.12-13.81-1.08-1.56-2.19-3.17-3.24-4.85v-24.22a5.05,5.05,0,0,0-1.14-3.18c-1.69-2-3.33-4.13-5-6.21-8.17-10.38-16.62-21.12-30.9-28a5,5,0,0,0-2.17-.5H178.41a5,5,0,0,0-4.32,2.48L166,2152.09h-3.09L160,2143a5,5,0,0,0-1.81-2.5c-7.52-5.49-15.72-5.19-22.94-4.94-2.48.09-4.85.18-7.16.06A49,49,0,0,1,116,2098.46a5,5,0,0,0-.84-3.18c-8.49-12.58-22.14-14.63-34.38-15-9.61-.27-17.54-3.37-27.36-10.69-14.28-10.65-21-25.68-26.14-40.34-1.94-5.53-2.47-11.83-3-18.5-.12-1.39-.24-2.8-.37-4.23H55.18a5,5,0,0,0,5-5c0-11-3.8-19.06-8-26.12-3.91-6.64-9.22-10.62-14.35-14.46-.83-.62-1.67-1.25-2.5-1.89v-11.82a5,5,0,0,0-1.46-3.53l-23.84-23.84c-.31-5.77.58-11.6,1.52-17.73,1.09-7.15,2.22-14.52,1.43-22.2,3.12-5.57,2.84-11.27,2.59-16.36a41.42,41.42,0,0,1,0-6.7c.43-3.61,1-7.31,1.59-10.88.39-2.46.78-4.91,1.13-7.36a32.29,32.29,0,0,0,.06-6.65c-.24-3.8-.29-5.87,1.38-7.66a6.59,6.59,0,0,0,1.45-5.62c0-.11,0-.22,0-.32q.36-5.73.71-11.46c.63-10.41,1.28-21.18,2.13-31.73A119,119,0,0,1,26,1762.58c.25-1.27.49-2.53.72-3.79a25.65,25.65,0,0,0,0-7.39c-.41-3.89-.42-5.38,1.18-6.83,2.39-2.18,1.93-5.21,1.68-6.83l-.05-.29c-1-7.24.1-14.47,1.31-22.13,1-6.71,2.14-13.64,1.75-20.85-.2-3.8.57-7.84,1.38-12.12.42-2.17.84-4.41,1.15-6.67a35.42,35.42,0,0,0,0-7.13c-.29-4.11-.36-6.53,1.5-8.62a6.71,6.71,0,0,0,1.36-5.54,2.91,2.91,0,0,1,0-.31q.38-5.68.72-11.39c.62-10,1.26-20.29,2.13-30.38a43.09,43.09,0,0,1,1.29-6.56c.92-3.72,2-7.94,1.59-12.64-.05-.72-.12-1.45-.19-2.18-.47-5-.87-9.3,1.75-12.73a6.42,6.42,0,0,0,1-5.12c-1-7.21.1-14.42,1.3-22,1.07-6.74,2.16-13.7,1.75-21-.19-3.35.55-7,1.33-10.82.43-2.12.88-4.31,1.18-6.55a32.69,32.69,0,0,0,.07-6.54c-.23-3.84-.26-5.93,1.41-7.76a6.62,6.62,0,0,0,1.42-5.6c0-.11,0-.22,0-.32q.38-6.1.72-12.21c.62-10.62,1.26-21.61,2.14-32.36a42.81,42.81,0,0,1,1.29-6.6c.91-3.7,2-7.9,1.58-12.56-.05-.63-.1-1.26-.16-1.89-.45-5.12-.83-9.55,1.76-13.29,1.63-2.34,1.33-5,1.13-6.72a9.73,9.73,0,0,1-.1-1.26c.27-3.81.41-7.67.54-11.41.32-9,.63-17.43,2.58-25.48,1.62-6.67,1.81-13.07,2-19.25.1-3.33.19-6.48.5-9.65.27-2.8.78-5.59,1.32-8.55.49-2.7,1-5.49,1.33-8.33a42.63,42.63,0,0,0,.13-5.94c-.11-4-.09-6.41,1.59-8.5a6.87,6.87,0,0,0,1.19-5.36l0-.31q.42-6.87.86-13.75c.65-10.15,1.32-20.64,1.86-31a23.89,23.89,0,0,1,1.36-5.68c1.13-3.53,2.42-7.52,1.63-12.37-1-6.07-.48-10.09,1.72-13.41a8.34,8.34,0,0,0,1-5.83,7.13,7.13,0,0,1-.07-.73c.28-4.36.43-8.78.59-13.06.37-10.32.72-20.08,2.55-29.64a101.77,101.77,0,0,0,1.4-16.06,85.31,85.31,0,0,1,1.33-14.71,74.44,74.44,0,0,0,1.28-13.32c.15-4.65.31-9,1.49-12.86,1.7-5.47,1.69-10.85,1.67-15.6,0-4,0-7.85,1-11.22,1.62-5.47,1.74-10.73,1.86-15.81a53.45,53.45,0,0,1,1-11.16,80,80,0,0,0,1.69-16.38,72.37,72.37,0,0,1,1.22-13.16,73.9,73.9,0,0,0,1.39-12,58,58,0,0,1,1.21-10.4c1.53-6.25,1.68-12.39,1.82-18.33a80.91,80.91,0,0,1,1.15-14.12,74.82,74.82,0,0,0,1.13-13.58c.11-5,.21-9.76,1.6-13.75,2.08-6,1.9-11.77,1.75-16.88-.13-4.13-.25-8,.83-11.46,1.63-5.22,1.69-10.48,1.74-15.12,0-4.16.08-8.09,1.21-11.37,1.89-5.48,1.84-10.79,1.8-15.48,0-3.66-.07-7.12.81-10.19,1.61-5.66,1.77-11.16,1.92-16.48A63.69,63.69,0,0,1,119,846a81.85,81.85,0,0,0,1.54-15.22A68,68,0,0,1,121.75,818a77.33,77.33,0,0,0,1.52-15.17,63.09,63.09,0,0,1,1.25-12.85,64.11,64.11,0,0,0,1.42-14.09c.11-4.43.22-8.62,1.36-12.25,1.66-5.29,1.68-10.49,1.7-15.07,0-3.76,0-7.3.91-10.49,1.56-5.69,1.69-11.25,1.81-16.62.11-4.6.21-8.94,1.22-12.9,1.66-6.48,1.85-12.68,2-18.68.1-3.07.19-6,.47-8.9a109.53,109.53,0,0,1,2-11.83c.22-1.08.44-2.15.65-3.23a23.22,23.22,0,0,0,0-7.06c-.39-3.67-.31-4.75.95-5.89,2.47-2.23,2-5.6,1.81-7-1.09-7.87,0-15.71,1.24-24a132.84,132.84,0,0,0,1.78-18.72,89.58,89.58,0,0,1,1.7-14.87c.31-1.84.62-3.69.89-5.52a34.2,34.2,0,0,0,0-8c-.36-4.38-.47-7,1.53-9.21a5.8,5.8,0,0,0,1.31-4.64c.28-3.9.59-7.8.9-11.69.72-9,1.47-18.24,1.75-27.44a112.89,112.89,0,0,1,1.64-14c1.17-7.38,2.38-15,1.45-23,3-5.86,2.79-11.85,2.58-17.19a50.11,50.11,0,0,1,.05-7.17c.45-4.13,1.18-8.19,2-12.5.25-1.38.49-2.77.73-4.15a26.76,26.76,0,0,0,0-7.21c-.37-4-.36-5.52,1.23-7a6.55,6.55,0,0,0,1.66-5.82c0-.11,0-.23,0-.34q.4-6.87.86-13.75c.68-10.61,1.38-21.59,1.82-32.42a40.08,40.08,0,0,1,1.47-7.93c1-4.11,2.21-8.75,1.66-13.95-.08-.71-.16-1.42-.25-2.13-.64-5.48-1.2-10.21,1.74-14.05a5.86,5.86,0,0,0,1.06-4.35c.26-3.63.5-7.26.75-10.89.62-9.17,1.26-18.66,2.07-27.95.45-5.19,1.29-10.52,2.11-15.68.2-1.24.4-2.48.59-3.73a33.86,33.86,0,0,0,0-8.05c-.36-4.36-.46-6.94,1.52-9.21s1.51-4.91,1.28-6.36l-.05-.33c-1.08-8,.06-15.89,1.27-24.28,1-6.92,2-14.07,1.77-21.43a55.26,55.26,0,0,1,1.33-11.62c.45-2.38.9-4.84,1.2-7.35a42.65,42.65,0,0,0,.1-6.66c-.17-4.22-.18-6.92,1.63-9.24,1.69-2.16,1.32-4.68,1.12-6l-.05-.37c-.95-7.76.15-15.48,1.32-23.65,1-7.16,2.08-14.57,1.7-22.2a34.47,34.47,0,0,1,1.16-8.55,58.36,58.36,0,0,0,1.32-7.74,46.81,46.81,0,0,0-.14-7.42c-.23-3-.44-5.89.28-7.91,2.18-6.12,2.19-12,2.2-17.71a52.21,52.21,0,0,1,.76-11c2-9.16,2.2-18.21,2.41-27,.08-3.4.16-6.92.35-10.34a47.88,47.88,0,0,1,2.2-10.27,9.91,9.91,0,0,0,1.26.14c10.78.47,21.73.88,32.33,1.27,13.67.51,27.8,1,41.69,1.69,4.32.2,8.6.72,13.12,1.28s9,1.09,13.57,1.32a101.6,101.6,0,0,0,11.07-.24c5.65-.33,11-.64,15.63.6,10.85,2.88,21.47,2.64,31.75,2.41,4.91-.11,9.54-.22,14.23,0a77.94,77.94,0,0,1,10.77,1.53c5.7,1.09,11.6,2.2,18,1.56l1.37-.14c8.46-.84,17.21-1.72,24.58.23,9.59,2.54,18.95,2.41,28,2.28,5.18-.07,10.07-.14,15,.26,3.73.3,7.55.73,11.25,1.14,5.54.61,11.28,1.25,17,1.52a111.16,111.16,0,0,0,11.58-.23c6-.32,11.58-.62,16.61.61,9.13,2.23,18.09,2.07,26.77,1.92,6.92-.12,13.46-.23,19.85.82,10.73,1.77,21.47,1.75,31.86,1.75,9.84,0,19.1,0,28.3,1.35,11.56,1.73,23,1.82,34.07,1.91,4.2,0,8.55.06,12.8.19a79.6,79.6,0,0,1,11.75,1.54c5.82,1.06,11.83,2.15,18.34,1.57l2.19-.2c9.12-.83,18.55-1.69,26.67.33,9.65,2.4,19.07,2.31,28.18,2.21,5.11,0,9.93-.1,14.78.26,4,.29,7.9.63,11.85,1,8.1.69,16.47,1.41,24.79,1.71,4.82.18,9.67,0,14.36-.26,7.89-.37,15.33-.72,22.29.75,12.67,2.68,25.18,2.46,37.29,2.25,5.54-.1,11.26-.2,16.83,0A108.9,108.9,0,0,1,927,49.71c6.68,1.06,13.59,2.16,20.91,1.56l2.45-.2c10-.84,20.27-1.7,29.34.36,14.18,3.22,28.16,2.75,41.68,2.29l5.85-.18c6.14-.17,12.13.68,18.49,1.59,6.7.95,13.64,1.94,20.82,1.64,2.56-.1,5.13-.24,7.7-.38,10.11-.55,20.57-1.12,30.14.59,16.82,3,33.65,2.69,49.94,2.38,7.73-.15,15.72-.3,23.53-.08,5.61.16,11.13.86,17,1.6,8.23,1,16.74,2.12,25.52,1.55l2.1-.14c13.32-.87,27.09-1.78,39.89.27,16.4,2.62,32.89,2.27,48.82,1.93,13-.28,26.46-.57,39.43.82,26.47,2.85,53.23,2.58,79.1,2.31,15.23-.15,31-.32,46.41.17,17.34,3.86,34.83,3.37,51.74,2.91,7.51-.21,15.27-.42,22.82-.24,14,.33,28.18.26,41.91.19,10.48-.05,21.32-.1,32,0A117.91,117.91,0,0,0,1643,69c7-1,13.62-2,20.37-1.44,11.47.9,26.54,1.69,41.33-.14l7.12-.88c12.2-1.52,24.82-3.09,37.25-4.36.11,1,.21,2,.32,3,1.86,17.45,3.61,33.93,2.58,50.73a8.37,8.37,0,0,0,0,1.12v.19c-.44,5.59.6,10.76,1.6,15.76,1,4.73,1.85,9.2,1.42,13.66l-.08.81c-1,10.4-2.06,21.15.4,31.36,2.32,9.62,2.16,19.2,2,29.35-.1,6.17-.21,12.56.29,19,.32,4,.76,8,1.19,11.9.59,5.28,1.2,10.74,1.45,16a101,101,0,0,1-.25,10.48c-.36,6.48-.75,13.18,1,19.67,2.29,8.8,2.13,17.59,2,26.9-.1,5.58-.21,11.36.25,17.16.3,3.68.64,7.36,1,11,.68,7.37,1.39,15,1.69,22.43.16,4.1,0,8.24-.23,12.63-.35,7.53-.71,15.31.88,22.91,1.66,7.92,1.58,15.85,1.49,24.25-.07,7.57-.15,15.4,1.17,23.18,1.59,9.42,1.55,19.22,1.52,28.71s-.07,19,1.41,28.54c1.29,8.34,1.25,17,1.21,25.4,0,9.12-.09,18.55,1.54,27.85,1.56,8.9,1.47,18.15,1.39,27.1s-.18,18.24,1.34,27.42,1.47,18.86,1.41,28.16c-.07,9.55-.13,19.42,1.48,29.15,1.35,8.16,1.32,16.62,1.29,24.8,0,8.36-.06,17,1.34,25.59,1.36,8.39,1.37,17.15,1.37,25.63,0,9,0,18.37,1.61,27.55,1.82,10.33,1.77,20.46,1.72,31.2,0,7-.06,14.31.49,21.57.31,4.17.75,8.36,1.18,12.42.59,5.56,1.19,11.32,1.46,16.93a105,105,0,0,1-.23,10.55c-.35,6.43-.71,13.07.88,19.54,2.27,9.21,2.14,18.39,2,28.12-.08,5.65-.16,11.5.27,17.35.32,4.31.73,8.66,1.14,12.88.6,6.32,1.23,12.86,1.51,19.24.16,3.76,0,7.59-.23,11.63-.34,7-.7,14.15.86,21.17,1.91,8.61,1.75,17.26,1.57,26.43-.15,8.21-.32,16.71,1.17,25.14,1.61,9.15,1.53,18.69,1.46,27.91s-.15,18.61,1.38,28c1.29,7.9,1.26,16.13,1.23,24.1,0,8.63-.06,17.55,1.54,26.35,1.74,9.52,1.61,19.42,1.49,29-.12,9.23-.24,18.78,1.25,28.23,1.29,8.16,1.29,16.64,1.29,24.85,0,8.84,0,18,1.57,27,1.6,9.25,1.5,18.86,1.41,28.14-.08,9.07-.18,18.44,1.26,27.73,1.38,8.91,1.38,18.17,1.37,27.12,0,9.45,0,19.23,1.58,28.84,1.89,11.49,1.87,23.26,1.85,34.64,0,5.88,0,12,.22,18a84.38,84.38,0,0,0,1.69,12.3c1,5.21,1.92,10.13,1.42,15.11l-.08.88c-.9,9-1.92,19.26.41,28.56,2.51,10,2.33,20,2.13,30.61-.09,4.78-.18,9.72,0,14.65a98.84,98.84,0,0,0,1.69,13.41c1,5.8,2,11.27,1.44,16.84l-.14,1.5c-1,10.63-2,21.63.52,32,2.47,10.13,2.27,20.16,2,30.78-.08,3.8-.16,7.72-.11,11.63a97.37,97.37,0,0,0,1.74,14.89c1,5.83,2,11.33,1.48,16.91l-.16,2c-.88,10.41-1.79,21.17.49,31.46,1.85,8.33,1.74,16.69,1.61,25.54-.11,7.56-.22,15.39,1,23.18,1.56,9.79,1.55,20,1.55,29.83s0,20.14,1.53,30.22c1.74,11.39,1.77,23,1.8,34.22,0,4.19,0,8.53.12,12.82a90.67,90.67,0,0,0,1.74,14c1,5.63,1.95,11,1.46,16.34l-.2,2.16c-.91,10-1.86,20.26.59,30,2.14,8.52,2,17,1.9,26-.07,5.43-.15,11,.31,16.69.32,3.82.7,7.68,1.08,11.41.63,6.34,1.29,12.9,1.58,19.29.16,3.6,0,7.26-.22,11.14-.34,6.66-.69,13.55.83,20.28,2.12,9.33,2,18.68,1.77,28.58-.15,7.9-.3,16.07.83,24.21,1.31,9.46,1.41,19.27,1.51,28.76.1,9.82.2,20,1.62,29.94,1,7.12,1,14.51,1,21.65,0,8.08,0,16.44,1.44,24.72,2.07,12,1.94,24.53,1.82,36.61-.12,10.81-.23,22,1.19,33a167.51,167.51,0,0,1,1,19.26c.09,8,.18,16.28,1.71,24.43,1.75,9.27,1.64,19,1.54,28.3-.1,9-.2,18.32,1.3,27.52,1.45,9,1.39,18.3,1.34,27.33-.06,9.37-.12,19.06,1.47,28.63,1.41,8.49,1.36,17.32,1.31,25.87-.06,8.94-.11,18.18,1.46,27.32,1.45,8.36,1.4,17.08,1.35,25.5-.05,8.59-.1,17.47,1.38,26.25,1.65,9.78,1.55,19.95,1.45,29.78s-.19,20.18,1.46,30.3c1.33,8.22,1.28,16.75,1.22,25-.05,8.77-.11,17.84,1.45,26.82,1.5,8.6,1.45,17.57,1.41,26.24s-.1,17.9,1.42,26.88c1.44,8.49,1.38,17.33,1.32,25.88-.06,8.94-.12,18.18,1.47,27.31,1.56,8.91,1.48,18.18,1.4,27.15s-.16,18.2,1.33,27.36c1.43,8.69,1.39,17.74,1.36,26.49,0,9.2-.08,18.71,1.53,28.07,1.42,8.29,1.35,16.91,1.28,25.24-.08,8.69-.16,17.67,1.41,26.56,1.61,9.18,1.53,18.73,1.46,28s-.15,18.58,1.36,27.92c1.45,9,1.4,18.37,1.35,27.43,0,9.33-.1,19,1.45,28.51,1.3,7.93,1.27,16.19,1.25,24.17,0,8.6-.05,17.5,1.53,26.28,1.61,8.95,1.51,18.27,1.42,27.28s-.18,18.1,1.31,27.21c1.52,9.26,1.46,18.9,1.4,28.21,0,9.53-.11,19.39,1.47,29.1,1.43,8.79,1.37,17.92,1.31,26.74-.06,9.1-.12,18.52,1.41,27.83,1.33,8.13,1.31,16.61,1.29,24.82,0,8.85-.06,18,1.58,27,1.67,9.2,1.57,18.76,1.47,28-.1,8.63-.2,17.56,1.11,26.44,1.27,8.59,1.33,17.52,1.39,26.17.07,9.31.14,19,1.68,28.4s1.56,19,1.59,28.36c0,6.62.05,13.47.59,20.31.31,3.83.79,7.67,1.24,11.37.59,4.76,1.15,9.25,1.39,13.81C1924.9,3458.56,1924.82,3464.72,1924.75,3470.68Z"/></g></g></svg>