<svg xmlns="http://www.w3.org/2000/svg" viewBox="0 0 2463.43 3594.8"><title>Asset 1</title><g id="Layer_2" data-name="Layer 2"><g id="Layer_1-2" data-name="Layer 1"><path d="M2463,1136.92a5.23,5.23,0,0,0-4.77-3.11h-10.32L2432,1122.07a5.23,5.23,0,0,0-3.1-1h-10.56a5.12,5.12,0,0,0-1.6-1.14l-35-16.13a5.26,5.26,0,0,0-3.08-.4l-13.16,2.32c-.95-.26-1.87-.48-2.76-.7a20.75,20.75,0,0,1-5.64-1.86c-.62-.38-1.21-.77-1.8-1.15a32.11,32.11,0,0,0-9.41-4.58c-9.46-2.56-18.75-4.92-28.37-5.54-5.55-.36-13.36-1.76-19.08-6.38-7.47-6-15.37-8.9-24.18-8.72L2255,1057.54a5.21,5.21,0,0,0-4.36-1.49c-2.47.32-6.31.11-11.37-5.37a31,31,0,0,0-18.72-9.77c-.7-.7-1.39-1.41-2.08-2.12-5.22-5.37-11-11.34-19.77-12.62,0-.7,0-1.36,0-2a5.2,5.2,0,0,0-1.53-3.68l-7.51-7.5a5.17,5.17,0,0,0-4.21-1.5c-6.45.65-10.92-.06-14.52-2.29-4.22-2.62-8.4-5.49-12.83-8.54-2.06-1.41-4.18-2.88-6.41-4.38a5.23,5.23,0,0,0-7.41,1.65c-1.78,3-3.85,3.31-10.08,1.57-5.2-1.46-10.41-4.18-15.91-7.05-2.59-1.35-5.26-2.75-8.12-4.11-1.66-.8-3.56-.48-5.56-.22a15.88,15.88,0,0,1-4.09.23c-7.5-4.76-16.21-5.4-26.64-2a55.3,55.3,0,0,1-7.94,1.76c-4.6.79-9.35,1.61-14.24,4.09-9,4.54-18.72,8.26-28.14,11.85-5.21,2-10.6,4.05-15.85,6.24-16.05,6.68-33.39,13.16-56.25,21l-.75.26c-12,4.11-24.35,8.35-35.63,16.22-9.51,6.63-18.4,10.32-26.43,11a79,79,0,0,0-15.77,3.38c-5.33,1.53-10.36,3-15.54,3.07a14.81,14.81,0,0,0-6.69,2.36,5.23,5.23,0,0,0,.86-3.2l-.39-6.6a5.21,5.21,0,0,0-6.18-4.82c-1,.19-2,.35-2.87.51-2,.35-3.86.68-5.75,1.13-2.64.63-5.18,1.4-7.63,2.15a74,74,0,0,1-10.75,2.72c-21.17,3.19-36.75,12.75-47.64,29.24a46.79,46.79,0,0,1-8.79,10c1.18-1.93,2.31-3.81,3.43-5.66a214.3,214.3,0,0,1,12.1-18.67,94.42,94.42,0,0,0,6.25-9.82c.7-1.22,1.41-2.45,2.15-3.66,5.39-8.93,9.14-18.5,12.76-27.77,1.68-4.3,3.43-8.74,5.28-13,5.9-13.47,8.23-27.72,10.48-41.5.53-3.23,1.06-6.46,1.63-9.68a14.36,14.36,0,0,0-1-7.31,13.92,13.92,0,0,1-.65-2.3,60.17,60.17,0,0,0-2.2-9.73c-1.14-4-2.21-7.71-2-11.43a18.91,18.91,0,0,0-1.68-7.92c-.25-.64-.49-1.29-.7-1.92-1.88-6-3.79-11.93-6-18.9l-2.82-8.8a5.26,5.26,0,0,0-1.51-2.31l-6.75-6c-.42-2.28-.75-4.45-1.08-6.56-.86-5.51-1.67-10.72-3.61-15.6-1.22-3-2.18-6.24-3.19-9.62-2.56-8.51-5.21-17.3-12.29-24.76a16.82,16.82,0,0,1-4.33-10.07c0-5-2.14-8.76-3.87-11.79-1.14-2-2.12-3.75-2.17-5.21-.21-7.05-3-12.25-5.68-17.27l-1-1.88a22.59,22.59,0,0,1-2.42-5.91,11.07,11.07,0,0,0,.32-9.87,9.48,9.48,0,0,1-.39-1.21,33.91,33.91,0,0,1-.34-4.26,32,32,0,0,0-1-7.7l-1.17-4.07c-4-14-7.83-27.2-6.51-41.22a53.85,53.85,0,0,0,.1-6.54c0-.76,0-1.49,0-2.19a5.22,5.22,0,0,0-1.53-3.69l-3.93-3.93-4.56-27.74a5.24,5.24,0,0,0-2.78-3.81c-8.41-4.3-10.55-12.53-13-22.07a94,94,0,0,0-3.85-12.39,63.91,63.91,0,0,1-2.44-7.92c-1.19-4.54-2.42-9.24-5-13.53-5.85-9.82-8.27-19.08-7.39-28.31a5.19,5.19,0,0,0-.62-3c-1.23-2.26-2.46-4.46-3.67-6.61-2.78-5-5.41-9.64-7.68-14.43-.9-1.89-3-6.31-2.7-9.13,1-9.44-.29-18.53-1.55-27.32-1.08-7.65-2.12-14.89-1.69-22.18.3-5.27.22-10.57.15-15.69,0-2.32-.07-4.64-.07-7a5.23,5.23,0,0,0-.83-2.83l-13.06-20.3a5.23,5.23,0,0,0-5.31-2.31l-23.68,4.2a5.2,5.2,0,0,0-3.44,2.25l-10.15,15.33h-4.56l-1.75-1.75v-14a5.22,5.22,0,0,0-3.53-4.94c-.65-.22-1.52-.63-2.36-1-3-1.38-6.64-3.11-10-.88-5.81,3.83-10.64,1.85-18-1.71-2-.94-4-1.92-6.09-2.72a38.58,38.58,0,0,0-13.87-2.36,5.26,5.26,0,0,0-3.79,1.53l-4.37,4.37h-9.89a5.19,5.19,0,0,0-3.77,1.61l-3.88,4.06a92.29,92.29,0,0,1-20.93-2.37c-6.11-1.36-12.33-1.1-18.33-.84-3.13.13-6.09.26-9,.17-.29-.13-.85-.46-1.23-.69a16.45,16.45,0,0,0-4-1.86c-2.27-.61-4.16,0-6,.67l-1,.35,1.31-6.6a5.22,5.22,0,0,0-6.43-6.07c-12.88,3.34-19.32,11.81-19.17,25.21l-9.38,6.61h-7.88c-3.85-7.17-5.26-15.1-6.73-23.45-.58-3.34-1.19-6.78-2-10.21a5.21,5.21,0,0,0-1.41-2.54l-21.47-21.35v-13.6a5.21,5.21,0,0,0-2.27-4.3c-1.3-.89-2.68-1.71-4-2.5-2.68-1.57-5.45-3.21-7-5.18-1.06-1.32-1.74-3.52-2.46-5.86a35.38,35.38,0,0,0-2.85-7.26,26.05,26.05,0,0,0-6.36-7l-.18-.15a5.15,5.15,0,0,0-2-1.14l-11.45-3.35v-7.52a5.22,5.22,0,0,0-3.53-4.94l-4-1.37,7-2.08a5.22,5.22,0,0,0,3.7-5.57c-.49-4.5.56-9.05,1.67-13.87,1.71-7.35,3.61-15.6-.95-23.48.13-.41.27-.8.39-1.18a26.32,26.32,0,0,0,1.66-7c.14-2.6,0-5.15-.07-7.61a43.21,43.21,0,0,1,.27-9.48c2.3-12.14,5.78-21.29,15.3-26.47a14.27,14.27,0,0,0,4-3.55c.49-.56,1-1.22,1.76-2a5.22,5.22,0,0,0-2.71-8.74l-6.59-1.34-3.93-30.44a5.28,5.28,0,0,0-.54-1.73l-3-5.83,1.82-6.65a5.21,5.21,0,0,0-1.19-4.89l-7.27-8,5.34-14.56a5.21,5.21,0,0,0-2.68-6.52c-4.15-2-5-5.48-6.24-11.55a45,45,0,0,0-2.51-9.15c.47-1.23,1.13-2.53,1.8-3.87,2.49-5,6.16-12.27,1-20.51l.14-.35a19.8,19.8,0,0,0,1.22-3.9c.46-2.77,1.16-5.55,1.89-8.49,2.37-9.44,5-20.12-.62-31.5a27.39,27.39,0,0,1,1.1-3.22,32.39,32.39,0,0,0,1.32-3.89,5.13,5.13,0,0,0-.16-3L1365.18,46l1.55-2a5.23,5.23,0,0,0,.63-5.21c-4-9.43-4.09-19.3-.11-32a5.23,5.23,0,0,0-5-6.78H5.89A5.22,5.22,0,0,0,.67,5.22V230.64C.67,632.92.66,1048.9.84,1458c0,4.48-.21,9.13-.42,13.63-.6,13.3-1.22,27,3.17,40.72-1.08,18.17.25,36.35,1.54,53.95.59,8,1.2,16.36,1.57,24.51.17,3.81.12,7.57.08,11.56-.11,9.21-.22,18.74,2.5,28.57,1.36,5,1,10.66.67,16.7a110.92,110.92,0,0,0-.26,11.71c.32,6.25,1,12.5,1.67,18.55.42,3.8.85,7.74,1.18,11.58.53,6.2.55,12.33.57,18.81,0,9.56.07,19.44,1.87,29.51,2.44,13.63,2.71,28.09,3,42.08.12,6,.24,12.15.52,18.24.05,1.17,0,2.42,0,3.74a39.42,39.42,0,0,0,.22,7.15,22.5,22.5,0,0,0,2.05,6.17c-.13.41-.26.8-.39,1.19a29.33,29.33,0,0,0-1.71,6.75,58,58,0,0,0,0,13,38.69,38.69,0,0,0,1.51,6.34,24,24,0,0,1,1.2,5.36c.23,6.13.25,12.4.27,18.48,0,13.65.07,27.77,2.59,41.9,1.14,6.41,1,13,.89,20-.16,8.63-.33,17.56,2,26.7,2.17,8.61,1.25,18.64.36,28.34l-.22,2.43c-.63,7,.54,13.43,1.67,19.67a87.67,87.67,0,0,1,1.66,12.41c.19,5.4.16,10.94.14,16.3-.06,11.92-.11,24.24,2.14,36.75,1.52,8.45,1.56,17.11,1.6,26.28,0,8.88.08,18.06,1.56,27.26,1.31,8.12,1.27,16.33,1.22,25-.06,9.33-.11,19,1.62,28.75,1.5,8.47,1.46,17.13,1.43,26.29,0,9.38-.08,19.09,1.63,28.84,1.38,7.83,1.32,15.81,1.25,24.26-.06,9.1-.14,18.51,1.68,28,1.53,8,1.52,16.29,1.52,25,0,8.29,0,16.87,1.37,25.53S49,2353.64,49,2363c0,10.21-.1,20.77,1.86,31.37,1.16,6.29,1.1,12.79,1,19.67-.08,8.23-.17,16.74,1.91,25.41,1.3,5.4,1,11.4.65,17.76a122.81,122.81,0,0,0-.23,12.32c.29,6.13,1,12.26,1.63,18.18.43,3.93.88,8,1.2,11.94.43,5.22.35,10.42.26,15.92-.16,9.68-.32,19.69,2.48,29.92,2.14,7.84,1,17.54.05,26.09-.75,6.63.47,12.61,1.66,18.38a67.33,67.33,0,0,1,1.64,10.88c.18,4.44.23,9,.27,13.37.12,10.42.23,21.19,2,32.14,1.45,9.11,1.52,18.35,1.59,28.13s.14,19.85,1.7,29.92c1.23,7.94,1.21,16,1.19,24.44,0,9,0,18.41,1.55,27.87,1.36,8.07,1.39,16.31,1.41,25,0,9.34.06,19,1.84,28.68,1.09,5.91,1,12,.89,18.5-.14,8.16-.27,16.59,2,25.24,2.09,7.88,1.15,17.22.25,26.24l-.15,1.45c-.67,6.8.51,13,1.65,19.06a78.43,78.43,0,0,1,1.63,11.61c.19,4.86.2,9.84.21,14.66,0,11,0,22.36,2.13,33.91,1.4,7.79,1.46,15.78,1.51,24.24s.12,17.49,1.68,26.41c1.22,7,1.28,14.08,1.33,21.61s.12,15.27,1.4,23.14c1.31,8,1.35,16.22,1.39,24.89,0,9.39.09,19.11,1.88,28.85,1.25,6.8,1.28,13.76,1.32,21.13,0,7.16.08,14.56,1.29,22.09,1.41,8.79,1.42,17.72,1.44,27.17,0,10.1,0,20.55,1.88,31,1.17,6.61,1.2,13.35,1.23,20.5,0,7.39.07,15.05,1.43,22.84,1.43,8.19,1.45,16.56,1.47,25.42,0,9.19,0,18.7,1.75,28.23,1.11,6.21,1,12.62,1,19.4-.09,8.34-.17,17,2,25.75,2,8.14,1.22,17.37.07,27.72-.73,6.63.49,12.59,1.67,18.36a68.35,68.35,0,0,1,1.64,10.9c.18,4.49.21,9.1.24,13.55.07,10.38.14,21.1,2,32,1.26,7.27,1.25,14.76,1.25,22.69,0,9.44,0,19.2,2.24,28.93-.94,13.55.29,27,1.48,40.09,1.23,13.48,2.5,27.42,1.3,41.12a5.3,5.3,0,0,0,1.35,4,5.22,5.22,0,0,0,3.85,1.69H1294.09a5.22,5.22,0,0,0,5.22-5.22V2465.68c0-1.13,0-2.27-.1-3.42a26.79,26.79,0,0,1,.14-6,41.49,41.49,0,0,1,1.53-6.19c5.19-1.79,7.32-5.89,8.78-8.69a11.67,11.67,0,0,1,1.93-3c7.79-7,15.18-14.52,22.33-21.82,2.83-2.87,5.65-5.75,8.49-8.6l60.86-60.86c3.13-3.12,6.22-6.35,9.22-9.46,6.72-7,13.66-14.23,21.06-20.46,5.06-4.25,9.76-8.87,14.31-13.33,5.13-5,10-9.79,15.34-14.13.64-.52,1.29-1,2-1.55,4.33-3.39,9.6-7.51,11.92-14.19,9.73-5.06,16.51-12.94,23.08-20.58,3-3.54,5.93-6.88,9.06-9.93,4.76-4.62,9.67-9.29,14.42-13.8,17.77-16.88,36.14-34.34,51.57-54.37a171.1,171.1,0,0,1,12.21-13.72c3.32-3.46,6.75-7,10-10.85,7.77-9.19,15.3-18.75,22.59-28,5.2-6.61,10.59-13.45,16-20.06,4.14-5.06,8.32-10.07,12.5-15.08,8.83-10.59,18-21.53,26.49-32.76,7-9.28,14.89-18.31,22.48-27.05,3.26-3.76,6.52-7.51,9.74-11.3,1.75-2.06,3.6-4,5.56-6.14,4.48-4.81,9.13-9.78,12.44-15.74a37.37,37.37,0,0,1,5.83-7.27,65.47,65.47,0,0,0,4.68-5.33l1.79-2.36c2.76-3.63,5.61-7.39,8.56-10.88,2.22-2.63,4.64-5.26,7-7.81a142.49,142.49,0,0,0,13.07-15.66c7.55-11,16.37-21.46,24.91-31.56,2.26-2.68,4.53-5.36,6.77-8q7.66-9.2,15.31-18.41c10-12.07,20.41-24.56,30.7-36.76,9.43-11.18,18.87-22.66,28-33.75q7-8.55,14.09-17.1c11.56-14,22.17-26.52,32.43-38.4,5-5.78,10-11.73,14.75-17.47,5.78-6.92,11.76-14.08,17.78-20.94,5.47-6.24,10.89-12.67,16.14-18.88,6.64-7.88,13.52-16,20.49-23.78,6.74-7.49,13.34-15.27,19.72-22.79,5.88-6.92,11.95-14.07,18.07-20.93,7.2-8.06,14.34-16.37,21.24-24.4,5.76-6.7,11.72-13.63,17.65-20.35l6.49-7.34c11.72-13.26,23.84-27,35.44-40.79,7.31-8.72,15.3-17.22,23-25.44,3.45-3.66,6.89-7.32,10.29-11,.27-.29.58-.56.88-.83a15.85,15.85,0,0,0,2.75-3c6-9.07,13.23-16.91,20.92-25.22,3.77-4.07,7.67-8.28,11.36-12.61,7-8.27,14.65-16.4,22-24.25,4.07-4.36,8.28-8.86,12.37-13.36a11.77,11.77,0,0,0,2.23-4l.28-.7a36,36,0,0,0,6.22-8.37c2.77-4.64,4.53-7.31,8.32-8.15a9.79,9.79,0,0,0,7.08-7.34c.31-2,1.69-3.3,4.1-5.47a31,31,0,0,0,4.49-4.68c2.46-3.35,4.79-6.73,7.48-10.64l3.32-4.8c9.78-5.52,21.75-18.72,25.38-27.93.81-.67,1.61-1.27,2.39-1.87,2.58-2,5-3.82,6.21-6.88a11.07,11.07,0,0,1,6.71-6.85c2-.82,5.64-2.71,7.2-6.16,2.42-5.37,6.83-9.52,11.49-13.9,5-4.68,10.09-9.51,13.38-16.25,15.38-15.22,29.44-31.92,43-48.07l4-4.68c4-4.78,8.36-9.16,12.95-13.8,6.08-6.14,12.37-12.48,17.8-19.76a140.47,140.47,0,0,1,12.7-14.13,157.07,157.07,0,0,0,13.52-15c6.47-8.52,13.86-16.34,21.68-24.63,3.44-3.63,7-7.39,10.52-11.27A5.23,5.23,0,0,0,2463,1136.92ZM1474.22,462.37l4.57,3.15c-.2.83-.41,1.66-.62,2.48a67,67,0,0,0-1.88,9.2l-3.56-7.3Zm-9-8.26-2.67,13.45a5.78,5.78,0,0,0,0-.93C1462.11,461,1462.89,457,1465.22,454.11ZM2444,1146.64c-8,8.5-15.61,16.52-22.41,25.49a146.09,146.09,0,0,1-12.66,14,152,152,0,0,0-13.62,15.2c-5,6.7-10.75,12.51-16.85,18.67-4.53,4.58-9.22,9.31-13.51,14.4l-4,4.69c-13.64,16.21-27.75,33-43.05,48a5.06,5.06,0,0,0-1.1,1.58c-2.41,5.34-6.8,9.48-11.45,13.86-5.14,4.84-10.46,9.85-13.75,17a6.08,6.08,0,0,1-1.71,1,21.24,21.24,0,0,0-12.47,12.65,17.47,17.47,0,0,1-2.85,2.45c-1.19.91-2.54,1.94-4,3.23a5.25,5.25,0,0,0-1.52,2.37c-2.09,6.9-14,19.82-21.87,23.85a5.07,5.07,0,0,0-1.92,1.67c-1.46,2.09-2.79,4-4.05,5.85-2.65,3.85-4.94,7.17-7.31,10.4a22.56,22.56,0,0,1-3.05,3.09c-2.73,2.45-6.08,5.46-7.24,10.56-7.83,2.06-11.38,8-14.24,12.81a27.11,27.11,0,0,1-4.5,6.2,10.66,10.66,0,0,0-2.79,4.5c-.1.26-.24.63-.33.82-4,4.39-8.14,8.82-12.14,13.11-7.43,7.94-15.11,16.15-22.31,24.61-3.56,4.16-7.38,8.29-11.08,12.29-7.64,8.25-15.53,16.78-22,26.57a9.62,9.62,0,0,1-1,1c-.48.43-1,.93-1.58,1.52-3.38,3.67-6.8,7.31-10.21,10.94-7.83,8.33-15.92,16.94-23.42,25.88-11.51,13.72-23.59,27.38-35.26,40.58l-6.5,7.35c-6,6.78-12,13.73-17.73,20.45-6.88,8-14,16.27-21.12,24.26-6.2,7-12.32,14.16-18.24,21.13-6.33,7.46-12.88,15.18-19.53,22.56-7.08,7.88-14,16.09-20.7,24-5.22,6.18-10.6,12.57-16,18.73-6.1,7-12.12,14.17-17.94,21.14-4.77,5.71-9.71,11.62-14.64,17.34-10.31,11.93-21,24.55-32.57,38.57q-7.07,8.54-14.11,17.12c-9.1,11.07-18.52,22.51-27.91,33.65-10.31,12.23-20.7,24.73-30.75,36.82q-7.63,9.21-15.3,18.4-3.35,4-6.73,8c-8.7,10.29-17.69,20.94-25.54,32.4a133.77,133.77,0,0,1-12.14,14.49c-2.41,2.63-4.91,5.34-7.27,8.14-3.13,3.7-6.07,7.57-8.91,11.31l-1.77,2.34a57.24,57.24,0,0,1-4,4.48,46.52,46.52,0,0,0-7.36,9.37c-2.69,4.84-6.71,9.14-11,13.69-2,2.1-4,4.26-5.89,6.51-3.19,3.76-6.43,7.49-9.67,11.22-7.69,8.86-15.64,18-22.9,27.57-8.39,11-17.44,21.9-26.2,32.39-4.2,5-8.41,10.08-12.56,15.16-5.46,6.69-10.88,13.56-16.11,20.21-7.23,9.17-14.71,18.66-22.36,27.71-3,3.55-6.33,7-9.53,10.38a185.73,185.73,0,0,0-12.95,14.56c-14.93,19.39-33,36.56-50.49,53.17-4.76,4.53-9.69,9.22-14.5,13.89-3.46,3.37-6.63,7-9.69,10.6-6.62,7.69-12.87,14.95-21.72,19a5.24,5.24,0,0,0-3,3.69c-.94,4.51-4.79,7.52-8.85,10.7-.71.55-1.41,1.1-2.09,1.66-5.75,4.65-11,9.8-16.08,14.79-4.41,4.32-9,8.8-13.72,12.79-7.82,6.59-15,14-21.87,21.22-3,3.08-6,6.26-9.07,9.31L1335,2400.6q-4.3,4.3-8.56,8.68c-7,7.17-14.31,14.6-21.85,21.34a19.82,19.82,0,0,0-4.22,6c-1.42,2.73-2,3.46-3.44,3.79-5,1.1-6.51,7-7.86,13.93a35.93,35.93,0,0,0-.32,8.39c0,1,.09,2,.09,3V3584.36H130c.57-12.69-.57-25.18-1.68-37.31-1.23-13.48-2.39-26.21-1.41-39.17a5.34,5.34,0,0,0-.14-1.64c-2.15-8.77-2.14-17.75-2.13-27.26,0-8,0-16.31-1.4-24.47-1.74-10.07-1.81-19.9-1.88-30.3,0-4.54-.06-9.24-.24-13.91a78.22,78.22,0,0,0-1.85-12.58c-1.07-5.2-2.07-10.12-1.52-15.11,1.26-11.36,2.11-21.56-.31-31.37-1.85-7.51-1.78-15.1-1.69-23.15.07-7,.14-14.16-1.14-21.33-1.54-8.64-1.56-17.68-1.59-26.42,0-8.92,0-18.13-1.63-27.2-1.21-6.92-1.24-13.8-1.27-21.09s-.06-14.78-1.39-22.27c-1.69-9.55-1.71-19.53-1.72-29.18,0-9.44,0-19.21-1.57-28.82-1.08-6.73-1.12-13.72-1.16-20.49,0-7.5-.08-15.25-1.49-23-1.62-8.83-1.67-18.07-1.71-27,0-8.69-.08-17.67-1.53-26.53-1.15-7.07-1.21-14.42-1.26-21.53-.06-7.63-.11-15.51-1.49-23.33-1.41-8.06-1.47-16.51-1.52-24.68,0-8.53-.11-17.35-1.67-26-1.92-10.64-1.94-21.06-2-32.08,0-4.92,0-10-.22-15.05a87.36,87.36,0,0,0-1.8-13.15c-1-5.54-2-10.78-1.52-16.08l.15-1.44c1-9.48,2-20.24-.54-29.94-1.92-7.26-1.8-14.62-1.68-22.41.11-6.7.22-13.63-1-20.56-1.61-8.76-1.64-17.94-1.67-26.83s-.05-17.82-1.55-26.73c-1.45-8.59-1.43-17.5-1.41-26.11s0-17.32-1.31-26.06c-1.44-9.32-1.51-19-1.58-28.41-.07-9.73-.15-19.8-1.72-29.69-1.62-10.19-1.72-20.11-1.84-30.61,0-4.46-.1-9.08-.27-13.66a78.22,78.22,0,0,0-1.85-12.58c-1.07-5.2-2.08-10.12-1.51-15.1,1.08-9.48,2.31-20.24-.36-30-2.41-8.8-2.27-17.64-2.11-27,.09-5.51.18-11.21-.29-16.94-.34-4.11-.79-8.24-1.24-12.24-.64-5.76-1.3-11.72-1.57-17.52-.18-3.64,0-7.35.22-11.29.36-6.82.73-13.87-.92-20.73-1.78-7.42-1.7-14.93-1.62-22.87.07-7.08.14-14.39-1.21-21.68-1.78-9.63-1.73-19.69-1.69-29.42,0-9.35.1-19-1.43-28.57-1.26-7.82-1.25-16-1.24-23.86,0-8.84,0-18-1.71-27-1.62-8.51-1.55-17-1.49-26,.07-8.55.13-17.39-1.4-26.14s-1.52-18.07-1.48-27c0-9.22.07-18.75-1.59-28.15-1.57-8.83-1.51-18-1.46-26.88s.1-17.78-1.35-26.75c-1.35-8.4-1.39-17.17-1.43-25.65,0-9.21-.08-18.74-1.77-28.08-2.08-11.57-2-22.88-2-34.85,0-5.46,0-11.11-.15-16.72a97.49,97.49,0,0,0-1.81-13.9c-1.06-5.81-2-11.3-1.55-16.88l.21-2.41c1-10.57,2-21.5-.63-31.84-2-7.78-1.81-15.64-1.65-24,.13-7.17.27-14.59-1.05-22-2.36-13.22-2.4-26.88-2.43-40.09,0-6.17,0-12.54-.28-18.86a31.78,31.78,0,0,0-1.64-8,31.08,31.08,0,0,1-1.14-4.63,48.2,48.2,0,0,1,0-10.69,21,21,0,0,1,1.2-4.41c.36-1,.74-2.17,1.1-3.4a5.22,5.22,0,0,0-.15-3.4c-.19-.49-.46-1.07-.77-1.72A14.85,14.85,0,0,1,29,1807.5a30.12,30.12,0,0,1-.12-5.27c.05-1.47.1-3,0-4.57-.27-5.94-.38-12-.5-18-.27-14.39-.55-29.27-3.13-43.71-1.65-9.18-1.68-18.18-1.71-27.71,0-6.41,0-13-.61-19.67-.34-4-.78-8-1.2-11.83-.65-5.9-1.32-12-1.62-17.93a100.28,100.28,0,0,1,.25-10.58c.39-6.62.8-13.47-1-20.09-2.32-8.41-2.23-16.79-2.12-25.67,0-4,.09-8-.09-12.15-.37-8.3-1-16.69-1.59-24.81-1.28-17.57-2.62-35.74-1.47-53.52a5.07,5.07,0,0,0-.26-2c-4.12-12.15-3.56-24.66-3-37.9.21-4.61.43-9.38.43-14.11-.18-409.13-.17-825.1-.17-1227.38V10.44H1355.44c-2.5,11-2.11,20.43,1.2,29.59l-1.5,2a5.25,5.25,0,0,0-.74,4.93l5,13.85c-.15.41-.32.84-.49,1.27-1.28,3.32-2.88,7.46-.91,11.24,4.22,8.08,2.29,15.79,0,24.71-.76,3-1.54,6.12-2.07,9.3a14,14,0,0,1-.64,1.8c-.9,2.3-2.26,5.76.08,8.78,2.68,3.47,2,5.59-.84,11.22a37.61,37.61,0,0,0-3.15,7.73,5.27,5.27,0,0,0,.52,3.81c1.25,2.21,1.82,5.12,2.43,8.2,1.07,5.4,2.35,11.89,7.91,16.4l-5,13.58a5.21,5.21,0,0,0,1.05,5.32l7.48,8.18-1.59,5.83a5.19,5.19,0,0,0,.39,3.77l3.52,6.82,4.3,33.23a5.19,5.19,0,0,0,3.81,4.37c-10.25,7.76-13.75,19.27-15.92,30.72a51.56,51.56,0,0,0-.44,11.85c.1,2.31.19,4.5.07,6.6a18.81,18.81,0,0,1-1.13,4.25c-.39,1.16-.81,2.43-1.22,3.88a5.21,5.21,0,0,0,.86,4.59c3.38,4.45,2.5,9.18.65,17.15a65.59,65.59,0,0,0-2.05,12.94l-14,4.18a5.22,5.22,0,0,0-3.73,5v3a5.22,5.22,0,0,0,3.53,4.94l11.18,3.82V367a5.22,5.22,0,0,0,3.76,5l14.17,4.14a15.31,15.31,0,0,1,3.46,3.77,27.7,27.7,0,0,1,2,5.18c.92,3,2,6.45,4.28,9.32,2.78,3.47,6.55,5.69,9.88,7.65l1.15.68v12.89a5.2,5.2,0,0,0,1.54,3.7l21.92,21.8c.58,2.72,1.07,5.52,1.55,8.24,1.75,9.9,3.55,20.13,9.61,29.67a5.23,5.23,0,0,0,4.41,2.41h12.53a5.22,5.22,0,0,0,3-1l13.06-9.21a5.25,5.25,0,0,0,2-2.77l-.2,1a5.14,5.14,0,0,0,.42,3.3l6.43,13.17c-1.85,2.64-4.13,5.89-6.49,9.13-.16.15-.34.29-.52.43a9,9,0,0,0-3.35,4.41q-1,3.18-2,6.36a262.49,262.49,0,0,0-7.12,26c-.73,3.66.36,7.07,1.32,10.08a19.24,19.24,0,0,1,1.12,4.64c.31,12,.22,24.26.14,36.12l-.05,6.74a21.62,21.62,0,0,1-1.19,5.69c-.24.83-.48,1.65-.7,2.47-.49,1.84-1,3.68-1.52,5.54-2.58,9.24-5.51,19.72-5.47,32.76a5.22,5.22,0,0,0,9.55,2.89c1.07-1.6,2-2.85,2.8-4a23.8,23.8,0,0,0,3.64-6.1,57.38,57.38,0,0,0,1.63-5.73c1.12-4.58,1.94-7.49,4.49-9.55a5.23,5.23,0,0,0,1.92-4c0-3.58,1.68-7.42,3.43-11.47,3.25-7.55,7.25-16.86,1-27.23a61.29,61.29,0,0,0-.18-8.5c-.35-5.07-.66-9.45,1.6-13.37,1.92-3.35,2.23-9.2-.38-12.57-1.75-2.26-1.64-4.7-1.29-8.82a35.88,35.88,0,0,0,.14-6.91c-.28-2.87,1.23-5,3.93-8.6,1-1.33,2-2.71,3-4.24,4.45-7.14,8.89-15.92,8.12-26.88-.22-3.19.72-6.88,1.71-10.79.52-2,1-4.15,1.48-6.37,0-.11,0-.22,0-.33,2.76,0,5.53-.09,8.21-.2,5.58-.24,10.85-.46,15.63.6a100.37,100.37,0,0,0,25.63,2.57,5.19,5.19,0,0,0,3.6-1.61l3.84-4h9.82a5.19,5.19,0,0,0,3.69-1.53l4.3-4.29a25.28,25.28,0,0,1,8.16,1.6c1.68.64,3.43,1.48,5.29,2.37,6.93,3.33,16.3,7.84,26.72,2,.42.18.91.41,1.31.6v12.68a5.22,5.22,0,0,0,1.53,3.69l4.81,4.81a5.22,5.22,0,0,0,3.69,1.53h9.52a5.24,5.24,0,0,0,4.36-2.34l10.46-15.8,18.06-3.2,10.35,16.1c0,1.87,0,3.73.07,5.58.08,5.17.15,10.05-.14,14.93-.48,8.34.67,16.44,1.79,24.27,1.22,8.53,2.36,16.59,1.5,24.74-.54,5.06,1.54,10.28,3.65,14.71,2.42,5.11,5.13,9.94,8,15.06q1.42,2.52,2.88,5.15c-.68,10.95,2.25,21.77,9,33,1.8,3,2.8,6.83,3.85,10.84a73.71,73.71,0,0,0,2.89,9.26,84.61,84.61,0,0,1,3.39,11c2.54,9.76,5.4,20.75,16,27.4l4.43,26.94a5.1,5.1,0,0,0,1.46,2.84l3.63,3.63a2.62,2.62,0,0,0,0,.28,46.12,46.12,0,0,1-.07,5.27c-1.5,16,2.76,30.79,6.88,45.09l1.16,4a24.56,24.56,0,0,1,.56,5.25,41.7,41.7,0,0,0,.48,5.64,16.07,16.07,0,0,0,.9,3.07c.15.4.35,1,.37,1a1.63,1.63,0,0,1-.23.45c-2.68,4.34-.24,10.27,2.49,15.49l1,2c2.31,4.32,4.31,8,4.45,12.65.12,4.05,1.93,7.24,3.52,10.05,1.35,2.37,2.51,4.42,2.51,6.64,0,5.79,2.9,12.73,7.2,17.26,5.37,5.66,7.55,12.9,9.86,20.58,1,3.44,2.11,7,3.49,10.48,1.51,3.78,2.2,8.21,3,13.33.43,2.74.87,5.57,1.48,8.68a5.25,5.25,0,0,0,1.65,2.9l7,6.24,2.39,7.44c2.23,7,4.14,12.9,6,18.85.26.83.57,1.66.89,2.49a12.09,12.09,0,0,1,1,3.57c-.33,5.52,1.1,10.53,2.37,15a50.47,50.47,0,0,1,1.87,8,21.15,21.15,0,0,0,1.13,4.44,15.61,15.61,0,0,1,.63,2.13c-.58,3.27-1.12,6.56-1.65,9.84-2.25,13.75-4.37,26.73-9.74,39-1.94,4.44-3.72,9-5.44,13.38-3.63,9.26-7,18-12,26.17-.77,1.27-1.51,2.56-2.25,3.84a84.43,84.43,0,0,1-5.54,8.75,222,222,0,0,0-12.72,19.57c-1.52,2.54-3.09,5.15-4.76,7.84l-1.63.7c-3.2,1.37-7.19,3.09-11.18,4.91-3.66,1.67-7.28,3.43-11.47,5.46-2,1-4.17,2-6.54,3.15a5.22,5.22,0,0,0,1.91,9.92c25.45,1.71,44.52-6.78,56.7-25.21,9.28-14.07,22.15-21.91,40.47-24.66a83.71,83.71,0,0,0,12.25-3.06c2-.61,3.89-1.19,5.79-1.69a59.79,59.79,0,0,0-7.9,7.26,68.51,68.51,0,0,0-7,10.42c-.69,1.19-1.4,2.39-2.14,3.59l-.83.59a12.14,12.14,0,0,1-3.19,1.87,17.12,17.12,0,0,1-4.52.11c-1.07-.06-2.15-.12-3.25-.12a5.22,5.22,0,0,0-4,1.92l-7.9,9.65a5.22,5.22,0,0,0,4.56,8.5,78.3,78.3,0,0,0,12.35-2.5,80.76,80.76,0,0,1,8.07-1.82c8.53-1.32,14.79-8.47,19.79-15.29,3.1-4.22,13.27-12.71,16.25-13.58,6.47-.14,12.34-1.83,18-3.47a70.15,70.15,0,0,1,13.7-3c9.91-.78,20.53-5.09,31.57-12.8,10.08-7,21.23-10.85,33-14.9l.76-.26c23.07-7.91,40.61-14.46,56.87-21.24,5.11-2.13,10.42-4.15,15.56-6.11,9.67-3.69,19.67-7.51,29.14-12.3,3.49-1.77,7.28-2.42,11.3-3.11a64.91,64.91,0,0,0,9.42-2.13c7.47-2.46,13-2.19,17.78.87,3.6,2.29,7.9,1.72,11,1.31l.94-.12c2.25,1.11,4.43,2.25,6.55,3.35,6,3.14,11.68,6.1,17.94,7.85,3.86,1.08,12,3.37,18.31-2l2.49,1.71c4.53,3.11,8.81,6.06,13.24,8.8,6.32,3.92,13.24,4.32,18.56,4l4.28,4.28v4.87a5.22,5.22,0,0,0,5.64,5.2c6.81-.53,10.92,3.31,17.09,9.65,1.17,1.21,2.34,2.42,3.55,3.58a5.25,5.25,0,0,0,3.12,1.43,20.86,20.86,0,0,1,13.94,6.69c5.42,5.86,11.35,8.82,17.68,8.82l19.22,19.22a5.19,5.19,0,0,0,4.13,1.51c7.06-.6,13.16,1.4,19.22,6.3,6.21,5,14.84,8,25,8.68,8.65.56,17.38,2.78,26.31,5.2a21.89,21.89,0,0,1,6.47,3.26c.65.43,1.31.85,2,1.27a28.57,28.57,0,0,0,8.67,3.13c1.14.28,2.31.56,3.43.89a5.14,5.14,0,0,0,2.4.15l12.74-2.24,30.14,13.87a5.65,5.65,0,0,0,.69,1.42,5.23,5.23,0,0,0,4.3,2.25h13.24l15.92,11.74a5.21,5.21,0,0,0,3.1,1h.05ZM1469.39,503c-.41.63-.86,1.26-1.34,1.91l.33-1.07.16-.13C1468.8,503.54,1469.09,503.31,1469.39,503Zm-5.29,39.74a4.45,4.45,0,0,1-.1,1.39,22.16,22.16,0,0,0-1.56,3.28c0-.21,0-.42,0-.63a27,27,0,0,0-1.61-7.55c-.57-1.8-1.23-3.84-1-4.84q.45-2.25,1-4.5C1460.58,533.9,1460.9,538.4,1464.1,542.78ZM1462.52,590l0-6.74c0-2.24,0-4.49,0-6.76,2.89,4.67,2.13,8.75-.11,14.41C1462.51,590.63,1462.52,590.32,1462.52,590Z"/></g></g></svg>