<svg xmlns="http://www.w3.org/2000/svg" viewBox="0 0 3627.33 3463.94"><title>Asset 1</title><g id="Layer_2" data-name="Layer 2"><g id="Layer_1-2" data-name="Layer 1"><path d="M3030.55,2152.53a8.54,8.54,0,0,1-7.79-5.18,7.4,7.4,0,0,1,10.64-9.47l1,.64.54.35a7.4,7.4,0,0,1-1.52,13.16A8.35,8.35,0,0,1,3030.55,2152.53Zm0-14.8a6.4,6.4,0,0,0-2.21.39l2,5.55,5.72-2.77A6.2,6.2,0,0,0,3030.56,2137.73Z"/><path d="M1508.82,3039.93a7.43,7.43,0,0,1-4.93-1.88l-26.17-23.36a7.57,7.57,0,0,1-.74-10.56l29.2-32.85L1430.49,2922l-66.63,73.61a7.4,7.4,0,0,1-12.22-1.89l-51.58-112.86-5.81,34.62a7.42,7.42,0,0,1-9.16,5.94l-58.59-15.21-29.74,40.09a7.36,7.36,0,0,1-7.58,2.81c-43-9.75-63.23-45.25-82.78-79.59-3.72-6.54-7.57-13.3-11.49-19.7a7.69,7.69,0,0,1-.47-.9c-14.09-32.24-.4-59.75,11.68-84,9.35-18.78,18.19-36.54,15.41-55.7l-52.39-85.69a7.39,7.39,0,0,1,1.42-9.41l47.69-42V2536l-29-45.66-27.44,15.42a7.38,7.38,0,0,1-6,.54c-3.79-1.3-7.8-2.71-12-4.18-9.41-3.3-20.06-7-30.57-10.47-31.42-10.24-66.46-24.58-84.61-65.36-3.71-8.33-13.15-15.17-23.14-22.41-5-3.62-10.17-7.36-14.9-11.5a7.5,7.5,0,0,1-2.16-3.31c-16.88-52.48-22.48-111.25-17.1-179.65a7.36,7.36,0,0,1,2.41-4.89l21.9-19.9c-.73-2.33-1.4-4.44-2.07-6.54-.79-2.46-1.85-5-3-7.72-2.75-6.57-5.59-13.37-5.3-20.84,5.33-137.22-1.13-276.66-7.37-411.52-5.85-126.36-11.9-257-8.28-385.88,2.08-73.92,1.53-149.07,1-221.75-.23-31.18-.46-63.36-.49-95-38.78-13.68-58.28-43.51-77.17-72.4-7.88-12.07-15.33-23.46-24.12-33.73-4-4.71-7.09-10.22-10-15.55-3.88-7-7.54-13.59-12.32-16.28-32.49-18.21-57.8-44.3-82.28-69.52-15.3-15.77-31.13-32.08-48.3-45.93-29.71-23.94-62.94-47-113.31-44.51l-22.23,42.33a7.4,7.4,0,0,1-5.34,3.86,7.32,7.32,0,0,1-3.33-.21v16.52a7.4,7.4,0,0,1-7.4,7.4H347.38l-26,41.73a7.39,7.39,0,0,1-6.28,3.49H247.58L119.15,918.6a7.42,7.42,0,0,1-7.19-.24L4.3,853.93a7.42,7.42,0,0,1-3.57-5.7C-2,817.89,1,788.74,40.86,781c113-22.08,184.66-45.3,286.66-117.55C361,639.69,391,610,419.94,581.2c12.15-12.06,24.69-24.49,37.22-36.21V441.59c0-14.1-.23-28.49-.45-42.41-.52-32.17-1-65.43,1.2-98.12,2-29.23,6.95-58.16,12.18-88.78,2.38-13.91,4.83-28.3,7.1-43.2a7.39,7.39,0,0,1,7.31-6.28h149V97.6a7.41,7.41,0,0,1,4.42-6.77c4-1.78,8.16-4,12.14-6.25,9.27-5.13,18.85-10.42,29.23-10.58,77.26-1.21,159.16-1.32,265.57-.34,10.78.1,21.36,2.74,32.57,5.53,5.47,1.36,11.12,2.77,17.18,4a7.41,7.41,0,0,1,5.93,7.26v51.22c17.36,10.41,37.26,17,56.54,23.39,38.74,12.83,78.76,26.09,98.86,70.2,13.07-1.35,17.2-9.81,23.14-22,5.59-11.47,12.56-25.74,30.14-31.55a7.42,7.42,0,0,1,5.59.39l54.89,27,97-58.35a7.39,7.39,0,0,1,8,.22l54.53,37c15.6-6.14,16.31-16.88,16.21-35.91,0-8.23-.09-16.74,2-25a7.35,7.35,0,0,1,3-4.33l63.15-43a7.4,7.4,0,0,1,6.41-.93c67.55,21.5,133.65,10.46,202.07-33.75,4.3-2.78,8.69-5.73,12.94-8.59,31.66-21.28,67.55-45.4,119-33a7.41,7.41,0,0,1,5.35,9.37l-10.58,34.42c8.5,21.58,31.26,27,55.32,32.74,8.87,2.11,18,4.3,26.55,7.35,53.1,19.08,96.72,41.68,137.09,71l144.95,20.92a7.46,7.46,0,0,1,3.67,1.63L2268,223.68l5.94-3.42a7.4,7.4,0,0,1,10.93,4.86l36.66,171.22,48,32.23c21.32,6.85,42.13-5.44,64.13-18.44,8.47-5,17.22-10.18,26.12-14.28,22.36-10.29,41.85-27.07,62.47-44.82,9.13-7.86,18.56-16,28.36-23.58a7.34,7.34,0,0,1,3.8-1.52c26.23-2.63,46.7-18.46,68.37-35.21,19-14.7,38.68-29.89,63.95-37.91a7.43,7.43,0,0,1,2.24-.35h99.25a7.41,7.41,0,0,1,5.23,12.64L2762.52,296c37.36-1.16,70.57-12.83,108.26-26.06,10.48-3.68,21.33-7.49,32.52-11.14a7.39,7.39,0,0,1,7.82,2.11l29.7,33.3a7.39,7.39,0,0,1-.07,9.92l-24.82,27.07,26.34,43.23,12.06-29.15a7.41,7.41,0,0,1,6.84-4.57h36.95a7.4,7.4,0,0,1,7.4,7.4v36.06a7.39,7.39,0,0,1-5.43,7.14l-78.24,21.53v72.33a7.39,7.39,0,0,1-3.7,6.41l-41,23.73V671.13a7.39,7.39,0,0,1-.53,2.75c-7,17.4-17.67,32.54-28,47.17-19.75,28-38.42,54.34-29.61,93.86a7.4,7.4,0,0,1-6.84,9l-33.62,1.71c-58.86,92.06-147,156-269.4,195.45l-69.46,54,13.5,1.07,83.07-59.43a7.39,7.39,0,0,1,6.44-1.06c54.73,16.56,54.74,16.56,87.17,4.14a7.4,7.4,0,0,1,10,6.91v44.26c2.21-1.36,4.15-2.5,6.19-3.59,30.49-16.26,61-32.46,93-49.45l30.91-16.42a7.4,7.4,0,0,1,9.72,2.55l27.38,43c9.05-3,17.88-7.87,27.15-13,21.39-11.85,45.65-25.28,76.31-14.13a7.4,7.4,0,0,1,4.73,5.52l13.84,70.07a7.38,7.38,0,0,1-1,5.33c-3.83,6.18-8,12.83-12.36,19.83-10.78,17.28-23,36.85-34.81,56.54-3.67,6.13-6.59,12.86-9.69,20-7.74,17.86-16.44,37.91-39,47.46,1.81,8.26,6.58,16.53,11.58,25.2,11.14,19.3,24.78,43,5.67,73.33l55,23.38a7.4,7.4,0,0,1-1.54,14.09l-23.49,4.37,28.08,30.35,80.45,18a7.39,7.39,0,0,1,5.78,7.22c0,9-.46,18.43-.9,27.53-1,20.93-2.08,42.56,2.13,62.54,1.44,6.87,3.35,13.85,5.2,20.61,6.35,23.16,12.91,47.11,4.12,74.71a7.44,7.44,0,0,1-3.05,4l-29.1,18.75h55.65a7.39,7.39,0,0,1,6.81,4.5l32.31,75.78a7.4,7.4,0,0,1,.1,5.55l-13.58,35.46,1.05.8,34-23.38a7.41,7.41,0,0,1,7.62-.46l36.15,18.91a7.4,7.4,0,0,1,2,11.61l-36.9,39.41a96.13,96.13,0,0,1-.2,15.93c-1,14.49-1.71,25.21,13.84,33.37,35.1-18,70.36-9,104.48-.23,28.94,7.39,56.27,14.37,83.36,6a7.39,7.39,0,0,1,5.95.69c67.92,40,71.21,41.89,86.23,69,15,4.77,30.08,9.58,46.69,14.88l21.09-21.08a7.38,7.38,0,0,1,5.23-2.17h62.29a7.4,7.4,0,0,1,5.23,2.17l26.76,26.76h59.57a7.4,7.4,0,0,1,7,5.14c8.05,25.22-6.3,37.38-17.84,47.16-5.65,4.78-11,9.3-13.86,15a7.41,7.41,0,0,1-6.58,4.06c-45.17.15-91.14,10.37-152.68,34.06l12.3,43.5a7.4,7.4,0,0,1-7.13,9.41h-61.61l-84.65,132.82a7.39,7.39,0,0,1-12.41.11L3257,2217.76c-13.56,24.71-31.89,45.79-49.69,66.28-22.28,25.63-45.32,52.14-58.86,85.68a7.4,7.4,0,0,1-13.49.52l-16.45-33.13a7.28,7.28,0,0,1-.69-4.38,181.13,181.13,0,0,1,4.61-20c3.44-12.76,7-25.95,3.3-33.4-22.32-44.9-45.81-87.75-85.62-118.63,4,13.31,10.88,25.87,18,38.93,14.24,26,29,52.81,22.67,88.8a7.39,7.39,0,0,1-2.58,4.44c-36.5,30-63.11,70.18-79.11,119.3-1.09,3.32-2.12,6.81-3.21,10.51-7.91,26.69-17.74,59.91-58.72,71.35a7.39,7.39,0,0,1-8.76-4.13l-11.7-26.5h-35.2c-20.56,25.49-102.16,96.76-127.26,101.51-34.54,6.52-66.78,22.14-101.47,49.16-5.21,4-11.65,5.64-17.34,7a53.92,53.92,0,0,0-9.63,3l-9.52,4.45c-62.34,29.09-126.8,59.17-175.74,110.49-2.94,3.09-4.93,8-7.46,14.16-1.43,3.52-3.05,7.5-5.1,11.73a7.41,7.41,0,0,1-4.77,3.92c-20,5.3-38.82,15.91-58.7,27.14-35.44,20-72.07,40.73-120.89,34.7l-50.74,56.87a7.39,7.39,0,0,1-7.27,2.26l-83.21-20.3a7.4,7.4,0,0,1-5.64-7.19v-26.13l-44.93-14.32-3.32,21.94a7.47,7.47,0,0,1-2.08,4.12L1960,2934.56a7.42,7.42,0,0,1-9.29,1l-17.07-11.14-4.66,17a7.39,7.39,0,0,1-7,5.45c-36.94.82-68.62,19.12-102.73,59.33a7.41,7.41,0,0,1-6.07,2.6l-38.38-2.23a7.4,7.4,0,0,1-5.54-11.76l11.91-16.21-44.35-28.53-59.59,61.14a7.44,7.44,0,0,1-5.8,2.21,7.35,7.35,0,0,1-5.45-3l-3.27-4.42c-6.32,2-12.67,4.05-18.85,6.07-18,5.89-36.72,12-55.67,16.16-19.83,4.38-40.08,6.83-57.94,9-7.26.88-14.12,1.71-20.47,2.61A7.15,7.15,0,0,1,1508.82,3039.93ZM1493,3008.45l18.24,16.28c5.49-.75,11.28-1.45,17.35-2.19,17.52-2.13,37.39-4.54,56.53-8.76,18.24-4,36.56-10,54.27-15.78,7.88-2.57,16-5.23,24.1-7.7a7.42,7.42,0,0,1,8.12,2.67l1.21,1.65,57.74-59.23a7.4,7.4,0,0,1,9.3-1.06l56,36.06a7.38,7.38,0,0,1,2,10.6l-8.5,11.58,21.12,1.23c22.32-25.81,56.7-58.17,105.73-61.5l5.92-21.61a7.39,7.39,0,0,1,11.18-4.24l20.54,13.4,80.48-80.64,4.26-28.12a7.41,7.41,0,0,1,9.57-5.94l58.34,18.6a7.4,7.4,0,0,1,5.15,7.05v25.73l73.24,17.87,50.41-56.49a7.38,7.38,0,0,1,6.63-2.39c45.77,6.94,81.17-13.06,115.39-32.4,18.8-10.63,38.21-21.59,58.83-27.63,1.22-2.71,2.28-5.32,3.32-7.86,3-7.34,5.57-13.67,10.45-18.79,50.86-53.34,116.61-84,180.2-113.7l9.5-4.43a65.88,65.88,0,0,1,12.36-3.95c4.66-1.15,9.07-2.23,11.79-4.35,36.61-28.51,70.87-45,107.81-52,19.16-3.62,103.62-74.86,120.29-98.61a7.4,7.4,0,0,1,6.06-3.15h43.68a7.39,7.39,0,0,1,6.77,4.41l10.95,24.78c28-10.64,35.35-35.36,42.45-59.31,1.12-3.8,2.18-7.38,3.32-10.9,16.58-50.86,44-92.68,81.61-124.33,4.24-29.59-8.27-52.4-21.48-76.5-9.74-17.75-19.78-36.06-22.63-57.24a52.6,52.6,0,0,1-10.07-7.28,7.41,7.41,0,0,1-.43-10.87l4.65-4.65a7.4,7.4,0,0,1,10.86.43l10.28,12.05a7.28,7.28,0,0,1,1.43,2.59c48.39,33.17,74.81,80.88,99.7,131,6.2,12.48,1.9,28.43-2.26,43.84-1.53,5.66-3,11-3.89,16.07l8.45,17c14.54-29,35-52.5,54.86-75.36,20.76-23.88,40.36-46.44,53.29-74.37a7.41,7.41,0,0,1,12.89-1l24.26,36.66L3367.29,2109a7.4,7.4,0,0,1,6.24-3.42h55.89L3418,2065a7.41,7.41,0,0,1,4.42-8.9c45.84-18,100.55-36.45,160.07-37.48,4.22-6.33,10-11.2,15.14-15.58,10.59-9,16.56-14.73,14.6-26.21H3555.3a7.4,7.4,0,0,1-5.23-2.17l-26.76-26.76h-56.15L3445.05,1970a7.41,7.41,0,0,1-7.49,1.81l-1-.31-52.81-16.84a7.42,7.42,0,0,1-4.24-3.48c-14.15-25.72-14.34-26.07-79.44-64.38-30,8.19-59.58.63-88.22-6.68-33.91-8.67-65.94-16.85-97,.63a7.38,7.38,0,0,1-6.63.32c-28.3-12.53-26.85-33.86-25.79-49.44.39-5.8.76-11.28-.13-16a7.43,7.43,0,0,1,1.87-6.43l32.67-34.88L3093.29,1762l-34.76,23.9a7.37,7.37,0,0,1-8.68-.22l-9.71-7.42a7.4,7.4,0,0,1-2.42-8.53l14.49-37.83L3023,1663.37h-75.91a7.4,7.4,0,0,1-4-13.62l47.95-30.89c6.31-22.42.8-42.54-5-63.81-1.91-7-3.88-14.17-5.42-21.47-4.6-21.85-3.49-44.45-2.42-66.31.35-7.22.69-14.12.82-20.89l-76.84-17.14a7.46,7.46,0,0,1-3.83-2.2l-38.75-41.9a7.39,7.39,0,0,1,4.08-12.3l12.55-2.34-40.86-17.37a7.39,7.39,0,0,1-2.92-11.39c20.74-26.29,10.51-44-1.34-64.57-6.67-11.58-13.58-23.55-14.26-37.14a7.38,7.38,0,0,1,5.2-7.44c20.54-6.35,27.59-22.58,35.74-41.37a185.36,185.36,0,0,1,10.56-21.7c11.87-19.81,24.14-39.45,35-56.78,3.79-6.06,7.41-11.85,10.79-17.31l-12.44-63c-22.52-6.42-40.85,3.72-60.19,14.43-11.35,6.28-23.08,12.78-35.85,15.88a7.4,7.4,0,0,1-8-3.21l-26.68-41.84L2746,1031c-32,17-62.5,33.19-93,49.44-2.66,1.42-5.34,3.09-9,5.4-2.16,1.35-4.65,2.9-7.67,4.74a7.4,7.4,0,0,1-11.24-6.33v-46.86c-27.46,9.94-34.69,8.17-83.22-6.51l-82.29,58.87a7.36,7.36,0,0,1-4.89,1.36l-35.23-2.78a7.4,7.4,0,0,1-4-13.22l85.57-66.48a7.38,7.38,0,0,1,2.29-1.2c121-38.75,207.57-101.84,264.69-192.89A7.44,7.44,0,0,1,2774,811l29-1.47c-5.94-41.21,14.12-69.57,33.55-97,9.58-13.55,19.48-27.55,25.83-42.83V511a7.42,7.42,0,0,1,3.7-6.41l41-23.72V407.19a7.41,7.41,0,0,1,5.43-7.14l24.05-6.61-36.13-59.3a7.39,7.39,0,0,1,.86-8.85l24.06-26.24-22-24.68c-9.44,3.14-18.67,6.38-27.63,9.53-43,15.1-83.6,29.36-131.23,26.65a7.41,7.41,0,0,1-4.81-12.63l30.69-30.66h-80.2c-22.29,7.33-40.59,21.48-58.31,35.17-21.83,16.88-44.39,34.32-73.78,38-8.93,7-17.67,14.54-26.14,21.84-20.5,17.64-41.69,35.88-65.94,47.05-8.21,3.78-16.63,8.76-24.78,13.57-24.22,14.32-49.26,29.13-77.38,19.4a7.72,7.72,0,0,1-1.7-.85L2310.8,407a7.35,7.35,0,0,1-3.11-4.59l-35.17-164.21-1.59.92a7.43,7.43,0,0,1-8.43-.72l-54-44.81-144.64-20.87a7.35,7.35,0,0,1-3.32-1.36c-39.61-29-82.45-51.32-134.84-70.14-7.72-2.77-16.1-4.77-25-6.88-26.39-6.29-56.3-13.42-66.71-44.61a7.32,7.32,0,0,1,0-4.51l8.9-29c-40.92-6.9-69.47,12.27-99.57,32.5-4.31,2.9-8.76,5.89-13.17,8.74-71.2,46-140.3,58-211.13,36.49l-57.75,39.34c-1,5.8-1,12.11-1,18.74.1,18.62.23,41.8-29.86,51.27a7.41,7.41,0,0,1-6.37-.93l-53.7-36.42-96.47,58a7.39,7.39,0,0,1-7.08.3l-55.61-27.39c-9.71,4.32-14,13-18.79,22.94-6.72,13.77-15.07,30.92-41.36,30.48a7.41,7.41,0,0,1-6.74-4.64c-16.76-41.62-53.24-53.71-91.85-66.5C1031,172,1008.85,164.66,989.15,152a7.4,7.4,0,0,1-3.4-6.23V96.42c-4.13-.94-8-1.91-11.89-2.87-10.78-2.68-20.1-5-29.13-5.09-106.28-1-188.06-.87-265.2.33-6.69.11-14.27,4.3-22.31,8.74-2.89,1.6-5.85,3.24-8.91,4.76V170.2a7.4,7.4,0,0,1-7.4,7.4H490.85c-2,12.78-4.12,25.15-6.17,37.17-5.16,30.25-10,58.82-12,87.31-2.2,32.06-1.67,65-1.16,96.86.22,14,.45,28.43.45,42.65V548.21a7.41,7.41,0,0,1-2.37,5.43c-13.14,12.18-26.4,25.34-39.22,38.06-29.41,29.18-59.82,59.36-94.3,83.78-104.21,73.81-177.3,97.5-292.37,120-23.5,4.59-30.73,16.35-28.53,47.7L116,903.55l126.36-65a7.4,7.4,0,0,1,3.39-.82H311L337,796a7.4,7.4,0,0,1,6.28-3.49H456.86V767.3a7.4,7.4,0,0,1,12.48-5.37l2.43,2.29,19.62-37.37a7.38,7.38,0,0,1,6-3.94c58.07-4.39,95,21.05,127.78,47.5,17.88,14.41,34,31.05,49.63,47.14,23.74,24.47,48.28,49.76,78.9,66.92,8.45,4.74,13.32,13.52,18,22,2.72,4.9,5.28,9.53,8.34,13.11,9.41,11,17.47,23.32,25.27,35.25,19.12,29.23,37.17,56.84,74.32,68a7.4,7.4,0,0,1,5.26,7.09c0,33.33.25,67.36.49,100.27.54,72.8,1.09,148.09-1,222.28-3.61,128.3,2.42,258.69,8.26,384.78,6.26,135.16,12.73,274.92,7.38,412.78-.17,4.19,1.94,9.22,4.17,14.55,1.2,2.88,2.45,5.85,3.43,8.93.77,2.4,1.53,4.8,2.39,7.53l1.12,3.57a7.41,7.41,0,0,1-2.08,7.71l-23.23,21.1c-4.78,64.33.46,119.68,16,169.06,3.84,3.22,8.13,6.32,12.29,9.34,11.14,8.07,22.65,16.41,28,28.37,14.15,31.8,39.45,45.5,75.68,57.31,10.66,3.48,21.41,7.25,30.88,10.58l8.76,3.07,30.65-17.23a7.39,7.39,0,0,1,9.87,2.48l33.94,53.4a7.4,7.4,0,0,1,1.15,4v41.62a7.38,7.38,0,0,1-2.51,5.55l-45.53,40.1,49.91,81.62a7.59,7.59,0,0,1,1,2.6c4.24,24.46-6.32,45.67-16.53,66.17-11.6,23.32-22.57,45.34-11.56,71.05,3.94,6.47,7.76,13.17,11.45,19.65,18,31.59,35,61.51,68.58,71.3l29.74-40.1a7.42,7.42,0,0,1,7.81-2.76l55.6,14.43,8.47-50.45a7.4,7.4,0,0,1,14-1.85l56.94,124.59,63.32-70a7.41,7.41,0,0,1,9.53-1.24l88.18,57.43a7.41,7.41,0,0,1,1.49,11.12ZM2966.12,355.5l-13.92,33.62,38.52-10.59v-23Z"/><path d="M3049.12,351.64h-39a7.4,7.4,0,0,1-6.31-11.27L3033,292.8l-18-33.41a7.37,7.37,0,0,1,.51-7.83L3047,207.92a7.37,7.37,0,0,1,8.32-2.7L3121.13,227a7.4,7.4,0,0,1,4.77,9.15l-19.61,65.71a7.49,7.49,0,0,1-2.18,3.42L3054,349.77A7.45,7.45,0,0,1,3049.12,351.64Zm-25.79-14.8h23l46.39-41.27,17-56.82L3055.78,221l-25.55,35.48,17.84,33.08a7.42,7.42,0,0,1-.21,7.39Z"/><path d="M1488.17,3463.94a7.39,7.39,0,0,1-5.23-2.16l-4.65-4.65a7.41,7.41,0,0,1,.43-10.87l9.84-8.4c6.87-44.87,26.23-79.28,46.69-115.66,7.5-13.33,15.25-27.11,22.55-41.72a7.51,7.51,0,0,1,6.87-4.09,7.42,7.42,0,0,1,6.58,4.55l32.85,78.78a7.38,7.38,0,0,1-.91,7.29l-37,49.18a7.42,7.42,0,0,1-4.58,2.84,42.19,42.19,0,0,1-4.46.44c-5.46.39-15.61,1.11-23.18,5.19-6.82,3.68-12.86,10.35-20.51,18.8-4.06,4.49-8.67,9.57-14.11,15a7.38,7.38,0,0,1-5,2.16l-.61.71a7.39,7.39,0,0,1-5.33,2.6Zm75.53-162.65c-5.17,9.71-10.42,19-15.55,28.16-18.34,32.61-35.76,63.58-43.36,101.59,7.58-8.32,14-14.95,22.21-19.4,10.37-5.6,22.59-6.46,29.15-6.93l.21,0,32.45-43.18Z"/><path d="M3095.71,176.64a7.4,7.4,0,0,1-7-5,51.14,51.14,0,0,0-2.19-5.14c-2.34-5-5-10.74-3.56-16.75,4.28-18,9.52-36,14.59-53.37q2.74-9.42,5.45-18.83a7.39,7.39,0,0,1,6.88-5.37l16.78-.53a7.37,7.37,0,0,1,7.43,5.67c.73,3,1.38,6.06,2,9.1a158,158,0,0,0,5,19.35c1.86,5.28,4.63,10.53,7.84,16.6,1.63,3.08,3.36,6.36,5.15,10a7.41,7.41,0,0,1-2.6,9.5l-51.76,33.65A7.4,7.4,0,0,1,3095.71,176.64Zm20-89.87q-2,6.86-4,13.72c-5,17.22-10.21,35-14.4,52.65-.12.87.79,3.12,1.68,5.12L3137.85,133c-.68-1.29-1.34-2.55-2-3.77-3.48-6.59-6.48-12.28-8.71-18.59a173,173,0,0,1-5.51-21.15L3121,86.6Z"/><path d="M1489.13,3169.18a7.57,7.57,0,0,1-5.85-2.82h0l0,0a7.4,7.4,0,0,1,11.21-9.64h0c.1.1.19.21.28.32h0l.08.1,0,.06h0a7.54,7.54,0,0,1,1.1,7.33,7.4,7.4,0,0,1-5.81,4.59A6.07,6.07,0,0,1,1489.13,3169.18Z"/><path d="M1469.92,3219.38a7.67,7.67,0,0,1-1.34-.12,7.41,7.41,0,0,1-6.06-7.28v-74.33a7.4,7.4,0,0,1,13.19-4.61l19.13,24.08a7.42,7.42,0,0,1,1.12,7.24l-19.12,50.25A7.41,7.41,0,0,1,1469.92,3219.38Zm7.4-60.52v12.87l3.31-8.7Z"/><path d="M1436.1,3140.36a7.42,7.42,0,0,1-6.46-3.78c-14.55-26-15.6-29.52.7-49.76a7.4,7.4,0,0,1,13.16,4.65V3133a7.39,7.39,0,0,1-5.53,7.16A7.5,7.5,0,0,1,1436.1,3140.36Z"/><path d="M1450.38,3235.58a7.41,7.41,0,0,1-7.12-9.43l10.17-35.73a7.4,7.4,0,0,1,14.14-.31c.61,1.83,1.28,3.65,2,5.47,1.91,5.22,3.9,10.62,4.73,16.49.77,5.45-3,8.44-8.59,13-2.56,2-6.07,4.86-10.36,8.68A7.43,7.43,0,0,1,1450.38,3235.58Z"/><path d="M1439.25,3098.15A7.36,7.36,0,0,1,1434,3096l-2.88-2.88a7.41,7.41,0,0,1-.4-10L1441,3071a7.4,7.4,0,0,1,10.86-.43l4.66,4.65a7.4,7.4,0,0,1-.43,10.86l-12,10.28A7.36,7.36,0,0,1,1439.25,3098.15Z"/></g></g></svg>