<svg xmlns="http://www.w3.org/2000/svg" viewBox="0 0 2504.17 3698.48"><title>Asset 1</title><g id="Layer_2" data-name="Layer 2"><g id="Layer_1-2" data-name="Layer 1"><path d="M1339,1474a3.82,3.82,0,0,0,2.68,1.11h.15a3.82,3.82,0,0,0,2.74-1.33,80.44,80.44,0,0,0,9.24-12.4,3.79,3.79,0,0,0-.11-3.91,18.62,18.62,0,0,0-2.47-2.69,3.79,3.79,0,0,0-5.14-.21l-11.18,9.54a3.79,3.79,0,0,0-.22,5.57Z"/><path d="M1326,2270.9c39.14.82,79.6,1.67,119.12-1.85,28.43-2.54,56.5,2.51,83.64,7.39,26.47,4.76,53.85,9.7,81.74,7.67,15.07-1.09,30.44-.8,45.31-.51,5.53.1,11.23.21,16.83.25,2.49,23.22,2.08,45.92,1.68,67.91-.5,27.87-1,54.18,4,81.16a3.8,3.8,0,0,0,1.79,2.58,3.85,3.85,0,0,0,1.94.53,3.64,3.64,0,0,0,1.18-.19l64.64-21.22a3.78,3.78,0,0,0,2.61-3.6V2387.4c6.39-4,12.79-7.83,19-11.59,15.76-9.53,30.64-18.53,45.15-28.69,4.93-3.45,10.25-6.89,15.41-10.22,17.7-11.42,36-23.23,46.18-40.07,6.51-10.77,16.26-18,25.69-24.9,9.87-7.28,20.09-14.81,26.32-26.34a3.8,3.8,0,0,0,.43-2.29c-4.08-31.34-26.74-46.31-46.73-59.52-1.85-1.21-3.41-3.66-5.39-6.75l-.46-.72,48.8-5.11a3.79,3.79,0,0,0,2.33-6.4c-14.35-14.89-29.83-19.7-44.8-24.35l-3.51-1.1a21.74,21.74,0,0,1-2-3.72l-.08-.17,33.77-5a3.8,3.8,0,0,0,3.21-3.31c3.56-30.09-16.61-38.51-32.09-42.23a36.86,36.86,0,0,0-9.73-.55c-7.49.23-11.5.36-12.34-7.29,30.7-27.45,32.1-30.37,19-65.23l18.21-6.23a3.79,3.79,0,0,0,2.57-3.59v-68.54a3.76,3.76,0,0,0-.69-2.17l-21.48-30.75,12.66-2.5a3.79,3.79,0,0,0,2.81-5.07l-10.28-27a3.8,3.8,0,0,0-5.72-1.76l-7.55,5.28a3.76,3.76,0,0,0-1.61,2.83l-1.25,17.1L1848,1876.17l11-11.05a3.8,3.8,0,0,0-1-6.08l-43.86-21.76a3.81,3.81,0,0,0-3.83.26L1793,1849.39l-16.23-18.16,14.64-28.79a3.79,3.79,0,0,0-4.3-5.4l-59.45,14.86-15.43-37.34a3.79,3.79,0,0,0-7.28,1.1l-4.2,45.65-18,6.55a3.81,3.81,0,0,0-2.22,2.14l-20.4,50.22-16.25-31.59,42.59-46.49a3.79,3.79,0,0,0,.6-4.25l-54.65-110.61a3.79,3.79,0,0,0-5.09-1.71l-25.87,12.86-23-23.21a3.78,3.78,0,0,0-2.69-1.13c-18.48,0-37.52,0-56.48,3.82,3.73-14.7,7.5-26.43,11.18-37.65l2.56.1c45.32,1.82,88.11,3.54,120.06-35.16a3.8,3.8,0,0,0,.2-4.57c-24.59-35.66-63.06-43-100.46-49.61l6-60.5a3.79,3.79,0,0,0-5.76-3.6l-79.49,49-77.16-24.11-3.85-66.8a3.8,3.8,0,0,0-3.79-3.58h-19.14l14.22-29.52a3.79,3.79,0,0,0-2.18-5.23l-15.74-5.44a3.8,3.8,0,0,0-3.88.86l-49.4,47.86v-31.19a3.8,3.8,0,0,0-5.12-3.55,136.37,136.37,0,0,0-14.31,6.56c-12.44,6.3-21.82,11-32.42,3.22l25.23-11.63a3.76,3.76,0,0,0,2-2.17,3.8,3.8,0,0,0-.17-2.94l-13.3-27.14a3.79,3.79,0,0,0-6-1.14l-34.68,31.53c-21.09-20.65-42.56-10.75-61.42,1.48l-9.13-9.13,40.94-52.51a3.81,3.81,0,0,0,.21-4.38l-12.11-18.9,8.73-12a3.8,3.8,0,0,0-.41-4.94c-6.6-6.46-15.15-6.07-22.71-5.74-8.33.38-14.76.67-19-6.29,21.51.76,34.53-7.94,42.89-28.3a3.79,3.79,0,0,0-1.61-4.72l-45-26a3.83,3.83,0,0,0-3.5-.16c-9.16,4.19-14.65,6.7-19.08,9.24-.62-.94-1.23-1.93-1.83-2.9-2.94-4.73-5.72-9.19-10.14-9.5-14.49-1-29.32-.86-42.41-.73l-8.14.08,8.11-30.3.19,0a3.84,3.84,0,0,0,2.25-.74c21-15.45,13.16-34.63,6.86-50a3.8,3.8,0,0,0-4.5-2.23l-25.92,7a3.78,3.78,0,0,0-2.36,5.43l15.72,29.82h-5.31c-11.53.05-23.44.11-35.11-.38-.44-.74-1-2-1.41-2.88l17-6.4a3.8,3.8,0,0,0,2.33-4.52l-14-52.7a3.79,3.79,0,0,0-3.66-2.82H943l1.63-14.72a74.18,74.18,0,0,1,11.69,5.22c8.25,4.26,16.78,8.65,25.42,5.72,5.32-1.81,9.86-6.2,13.82-13.37l39.42-5.15a3.79,3.79,0,0,0,3.28-4.11l-.83-9.14a3.81,3.81,0,0,0-4-3.45l-6.87.33,45-33.06a3.8,3.8,0,0,0-2.25-6.85h-46.86a3.8,3.8,0,0,0-3.8,3.8v34.46a3.76,3.76,0,0,0,.58,2l-25.67,1.21a3.79,3.79,0,0,0-3.61,3.92l.09,2.69L957,1067.47l50.78-4.21a3.8,3.8,0,0,0,3.48-3.78v-21.77a3.79,3.79,0,0,0-3.4-3.77l-49.47-5,56.84-12.51,32.3,11.3a3.79,3.79,0,0,0,5-3.58c0-5.76-.15-10.88-.28-15.4-.25-8.92-.45-16,.59-22.63,1.1-7.09,3.56-14.12,6.15-21.55,1.2-3.43,2.43-7,3.58-10.65a3.89,3.89,0,0,0-1.8-4.46c-7.14-4.15-13.12-7.63-18.53-10.68,7.11-6.28,14.33-11.94,19.83-16.26a3.79,3.79,0,0,0,1.46-3V884.11a3.79,3.79,0,0,0-3.8-3.79c-4.43,0-8.56.14-12.56.29-8.48.3-15.8.56-22.79-.69-5.77-1-11.48-4-17-6.82-2.46-1.26-5-2.57-7.48-3.67a3.8,3.8,0,0,0-4.22.78l-8.61,8.61-14.83-15.5a102.86,102.86,0,0,1,8.59-8.43c9.94-9,21.16-19.26,16.88-37,8.93-6.72,17.27-12.79,23.47-17.31a3.8,3.8,0,0,0,1.16-4.77l-18.29-36.55a3.79,3.79,0,0,0-3.39-2.1H984.17c.05-1.46.12-2.93.18-4.37.31-6.49.62-13.21-.73-19.72-1.47-7.1-4.8-13.62-7-17.93l-.43-.83,24.25-24.47a3.79,3.79,0,0,0,1.06-3.26,3.83,3.83,0,0,0-2-2.78l-39.41-20.31a3.79,3.79,0,0,0-4.3.57l-8.11,7.42-42-14.1,34.15-6.25a3.79,3.79,0,0,0,3.11-3.73V631.53a3.8,3.8,0,0,0-1.77-3.21l-42-26.41V524.37a3.79,3.79,0,0,0-4.9-3.62l-49.5,15.06L806.65,525.5c1.74-8,6.47-7.86,15.64-7.61,5.5.15,11.75.33,18.11-1.71a3.87,3.87,0,0,0,1.67-1.08l28.86-32.18a3.79,3.79,0,0,0,1-2.53V420.94a3.78,3.78,0,0,0-3.27-3.75l-30.18-4.26,5.6-48.45a3.8,3.8,0,0,0-3.77-4.23c-13.69,0-27.75,0-39.18,2.95,4.16-7.33,11.23-12.88,20.78-20.38a3.81,3.81,0,0,0,1.22-4.31l-21.44-57.64a3.82,3.82,0,0,0-5.51-1.93c-7.47,4.34-14,8.18-20,12.32a3.77,3.77,0,0,0-1.56-.75c-7.13-5.66-13.91-11-20.4-16.13l29.48-31.88a3.8,3.8,0,0,0-.1-5.26l-61.46-61.46,16.21-28.18a3.78,3.78,0,0,0,.07-3.66L726,120.33l9.21-7.85a3.81,3.81,0,0,0,.22-5.57l-4.32-4.31a3.79,3.79,0,0,0-5.57.22L716,114a3.82,3.82,0,0,0-.9,2.37l-17.31,10.17,9.52-30.87a3.76,3.76,0,0,0-.79-3.64l-8.29-9.33c7.34-3.62,11.65-7.89,13.13-13,2.37-8.19-3.3-15.91-7.86-22.1-1-1.32-1.9-2.59-2.69-3.77L715.39,5.13A3.8,3.8,0,0,0,709.79.6c-5.83,3.73-10.33,6.91-14,9.47-6,4.26-9.65,6.82-13.27,7.69-6.55,1.57-13.42,1.81-22.13,2.13-4,.14-8.6.3-13.54.63a3.79,3.79,0,0,0-3.2,5.36l19,41.47L630.22,85.56a3.79,3.79,0,0,0-1,5.83l31.93,35.87c-21.09,7.88-24.35,24.94-27.26,40.14-2.17,11.35-4.22,22.07-13.27,28.55a3.79,3.79,0,0,0-1.13,4.9l23.7,43.65a3.79,3.79,0,0,0,4.69,1.73l33.29-12.75L669.64,245a3.81,3.81,0,0,0-1,1.64c-13.16,46.25-5.31,79.76,8.8,119.3l-62.28-39.2a3.8,3.8,0,0,0-5.81,3l-2.57,41.56a3.82,3.82,0,0,0,1.51,3.27c11.84,8.88,25.94,12.69,39.58,16.38,22.51,6.09,42,11.34,46.37,37.78a3.8,3.8,0,0,0,5.16,2.89l68.27-27.55L786.47,442H712.4a3.78,3.78,0,0,0-3.5,2.33l-15.17,36.23a3.79,3.79,0,0,0,2.14,5l36.41,14c-6.21,4.76-12.7,9.14-19,13.39-17.23,11.61-32.1,21.64-34.35,35-2,11.92-10.58,16-20.5,20.8-12.32,5.92-26.27,12.63-23.18,36.22a3.78,3.78,0,0,0,2.31,3l21.18,8.76,21.85,77.9a3.8,3.8,0,0,0,6.14,1.85l11.8-10.2,29,44c-1.29,6.36-2.3,12.3-3.28,18.06-2.2,12.86-4.09,24-8.13,34.1-4.14,10.42-10.58,20.09-17.39,30.33-3.11,4.67-6.32,9.5-9.41,14.55a3.76,3.76,0,0,0-.08,3.82l13.45,24.23c-9.18,14.69-15.12,30.86-20.87,46.53-9.55,26-18.56,50.57-41.08,64.69a3.81,3.81,0,0,0-1.53,4.57l25.69,67.13-35.21,17a3.74,3.74,0,0,0-2,2.28,3.79,3.79,0,0,0,.32,3l28.57,50.36-24.1,8.78a3.79,3.79,0,0,0-.42,6.94l76.14,38.68-44.12,15.83a3.74,3.74,0,0,0-2.27,2.26,3.79,3.79,0,0,0,.27,3.2c14.93,26,14,52.63,13.18,78.37-.62,18.62-1.26,37.88,4.12,56.55a3.81,3.81,0,0,0,3.34,2.73l45.06,3.65-54.32,27.34a3.79,3.79,0,0,0-1.5,5.41l16.9,26.78c-1.17,2.85-2.43,5.73-3.66,8.53-3.55,8.08-7.22,16.44-9.34,25.24-2.07,8.56-2.48,17.33-2.87,25.8-.08,1.68-.16,3.3-.25,4.9l-30.4-14.07a3.8,3.8,0,0,0-5.36,3l-.43,3.64c-3.31,28.52-6.21,53.44,6.74,77.45H611.22l-49.14-55.84A3.79,3.79,0,0,0,558,1465l-46.63,16.6L464,1409.41a3.8,3.8,0,0,0-5.81-.65c-4,3.91-7.55,7.69-10.95,11.35-6.78,7.29-12.64,13.59-19.53,17.26-7.07,3.75-15.93,4.88-23.75,5.88-3.37.43-6.55.84-9.46,1.43a3.79,3.79,0,0,0-2.81,2.39l-8.87,23.69-44.67-22.28v-28.83a3.8,3.8,0,0,0-3.14-3.74c-34.6-6.11-58.72-25.27-75.9-60.29a659.5,659.5,0,0,0-34.46-61.29c-2.4-3.79-7.71-3.32-15.07-2.67-2.89.26-5.89.52-8.75.52a3.8,3.8,0,0,0-3.39,5.49l13,26.1-15.59,23.28a3.77,3.77,0,0,0,0,4.24l12.78,18.82-11.79,16a3.81,3.81,0,0,0-.36,3.9l15.49,32.3-18.55,18.55c-2.48-2.59-5-5.15-7.46-7.65-7.51-7.61-15.26-15.49-21.81-23.92-7.92-10.19-14.94-21.48-21.72-32.4-2.13-3.41-4.25-6.83-6.4-10.22-4.52-7.11-8.91-14.41-14.46-23.65-2.85-4.76-6-10-9.71-16.11a3.79,3.79,0,0,0-7,1.24c-8.72,44.73,8.07,74.67,22.89,101.09,4.22,7.52,8.23,14.66,11.64,22l-40.68,43.42-15.6-13.84a3.79,3.79,0,0,0-4.43-.44L18,1515.17a3.79,3.79,0,0,0-.6,6.11c18.48,16.38,16.25,31.87,13.89,48.27-.35,2.43-.7,4.93-1,7.4L3,1582.51a3.8,3.8,0,0,0-2.72,5.24c11,25.08,18.75,50.77,26.25,75.62,9.9,32.83,19.26,63.83,35,90.06a3.75,3.75,0,0,0,1.61,1.47l50.9,24.36c-1.68,6.45-3.39,12.3-5.06,18-3.86,13.15-7.19,24.51-7.74,36.09-.8,17.08-8.09,26.69-24.32,31.89l-42.35-18.18a3.78,3.78,0,0,0-5.22,4.21l11,56.08L29,1926.87a3.8,3.8,0,0,0,.91,4.86c5.26,4.23,10.73,8,16,11.65,10.91,7.52,21.22,14.62,26.7,23.95,7.69,13.08,19,17.48,29.84,21.73,6.91,2.7,14.06,5.49,20.71,10.55a3.8,3.8,0,0,0,5.85-1.7l25.47-68.6,5-1.75c4.51-1.55,8.77-3,12.85-4.86,4.9-2.22,9.69-4.73,16.94-8.52,2.19-1.15,4.61-2.42,7.35-3.84l-34.21,167-15.69,10.07a3.81,3.81,0,0,0-1.58,4.3l18.63,60.85a3.79,3.79,0,0,0,6.56,1.29L198.07,2120l18.36,50.83a3.81,3.81,0,0,0,3.36,2.5l42,2.34,8,22.75a3.79,3.79,0,0,0,5.43,2l26.8-15,21.68,58.87a3.8,3.8,0,0,0,6.07,1.53l24.74,39.89a3.79,3.79,0,0,0,4.32,1.63l51-15.38,45.55,45.55a3.81,3.81,0,0,0,4.16.82l24-10.08a3.78,3.78,0,0,0,2.26-2.84l19.77-112.46,25.92-12.26a3.79,3.79,0,0,0,2.06-4.37c-.74-2.85-1.24-5.25-1.68-7.37-.89-4.26-1.54-7.33-3.21-10.16a30.5,30.5,0,0,0-6.28-7.06c10.31-15.51,10.28-33.48,10.26-50.9,0-23.49-.07-45.7,24.4-61.75l51.28-6.93,23.26,23.22c-47.24,2.61-50.47,4-94.59,25.89a3.78,3.78,0,0,0-1.74,5l55.53,116.95-12.48,32a3.79,3.79,0,0,0,.31,3.37,3.73,3.73,0,0,0,2.88,1.78c42.88,3.94,85,3.8,125.7,3.67,58-.21,112.82-.38,168.52,10.38,36.23,7,73.81,6.59,110.16,6.18,38.34-.43,78-.87,116.75,7.25,38.24,8,79,6,118.37,4.05,17.43-.86,35.44-1.75,52.94-1.75C1291.17,2270.17,1308.85,2270.54,1326,2270.9ZM1026.28,1054.43h31.51l-31.51,23.17Zm4,39.74.17,1.9-32.57,4.26-.15-4.62Zm844.59,780.51,2.09-1.45,7,18.26-10.42,2.06ZM1162,1414.06v-.73l.74.73Zm-7.58-4.15-.13-.1.13,0Zm9.53,11.74-.1.13,0-.13Zm-82.26-260.6c5.91,14.92,8.25,25.44-2.15,35.12l-15.94-30.23Zm138.83,1103.29c-38.92,1.92-79.16,3.91-116.44-3.9-39.58-8.29-79.65-7.85-118.39-7.41-37.63.42-73.17.82-108.64-6-56.43-10.9-111.58-10.72-170-10.52-38.94.13-79.16.27-120-3.19l11.24-28.83a3.84,3.84,0,0,0-.1-3l-54.64-115.05c42.35-21,43.68-21.07,96.79-23.91a3.8,3.8,0,0,0,2.48-6.48l-30.62-30.56a3.82,3.82,0,0,0-3.18-1.07l-54,7.3a3.72,3.72,0,0,0-1.54.56c-28.67,18.32-28.63,43.88-28.6,68.6,0,18,0,35.05-10.75,49.15a3.81,3.81,0,0,0,.33,5c.55.55,1.26,1.17,2.06,1.86a26.32,26.32,0,0,1,5.44,5.82c1,1.75,1.55,4.17,2.31,7.84.3,1.41.62,2.94,1,4.66l-24.9,11.77a3.81,3.81,0,0,0-2.12,2.77L478.6,2302.05l-19.7,8.28L413.54,2265a3.78,3.78,0,0,0-3.77-.95l-50.38,15.2-26.59-42.88a3.85,3.85,0,0,0-3.39-1.79,4.12,4.12,0,0,0-1.16.23l-20.69-56.17a3.78,3.78,0,0,0-5.41-2l-26.75,15-7.34-20.89a3.82,3.82,0,0,0-3.37-2.53l-42-2.34-19.78-54.76a3.8,3.8,0,0,0-6.51-1.11L169,2143.51l-15.7-51.31,14.6-9.37a3.75,3.75,0,0,0,1.68-2.44l36.13-176.31a3.8,3.8,0,0,0-5.46-4.14c-5.85,3-10.52,5.46-14.44,7.52-7.14,3.73-11.85,6.2-16.55,8.33-3.75,1.7-7.66,3-12.19,4.6-2.16.74-4.41,1.52-6.79,2.39A3.81,3.81,0,0,0,148,1925l-24.37,65.66c-6.16-3.91-12.36-6.33-18.4-8.69-10.57-4.12-19.7-7.69-26.06-18.5s-17.31-18.35-28.93-26.36c-4.31-3-8.74-6-13-9.31l10.39-17.91a3.77,3.77,0,0,0,.44-2.63l-9.88-50.43,37,15.9a3.76,3.76,0,0,0,2.58.15c12.71-3.79,29.76-12,31-39.21.5-10.67,3.72-21.62,7.44-34.31,1.85-6.32,4-13.48,5.91-21.28a3.8,3.8,0,0,0-2-4.34l-52.67-25.21c-14.91-25.22-24-55.42-33.66-87.37-7.13-23.65-14.5-48.06-24.71-72.17l25.47-5.18a3.79,3.79,0,0,0,3-3.41c.26-3.17.72-6.38,1.21-9.79,2.27-15.79,4.83-33.56-12.62-51.45l53-30.93,16.31,14.47a3.79,3.79,0,0,0,5.28-.25l44.94-48a3.79,3.79,0,0,0,.7-4.13c-3.76-8.45-8.25-16.44-13-24.9-13.64-24.3-27.7-49.37-23.63-85.74l4.3,7.14c5.58,9.29,10,16.62,14.56,23.82q3.19,5.05,6.35,10.16c6.89,11.08,14,22.54,22.17,33,6.83,8.79,14.75,16.83,22.4,24.6,3.33,3.37,6.77,6.86,10,10.35a3.73,3.73,0,0,0,2.7,1.19,3.77,3.77,0,0,0,2.74-1.11l23.2-23.2a3.8,3.8,0,0,0,.74-4.32l-15.68-32.66,12-16.28a3.79,3.79,0,0,0,.09-4.38l-12.86-18.93,15.4-23a3.82,3.82,0,0,0,.25-3.81l-11.4-22.84c1.18-.09,2.33-.2,3.42-.29,2.93-.26,6.85-.61,8.32-.3a649.54,649.54,0,0,1,33.73,60c17.82,36.32,42.74,56.68,78.26,63.83v28a3.78,3.78,0,0,0,2.1,3.39l50.54,25.21a3.78,3.78,0,0,0,5.24-2.06l9.6-25.63c2.13-.35,4.46-.65,6.88-1,8.47-1.08,18.06-2.31,26.35-6.71,8-4.27,14.28-11,21.52-18.8,2.37-2.55,4.8-5.16,7.41-7.81l46.44,70.77a3.79,3.79,0,0,0,4.44,1.5l47-16.74,48.57,55.2a3.77,3.77,0,0,0,2.84,1.29H650a3.8,3.8,0,0,0,3.17-5.87c-15.16-23.13-12.7-46.88-9.23-76.73l30.65,14.18a3.8,3.8,0,0,0,5.38-3.12c.29-3.47.46-7.11.62-10.62.38-8.12.78-16.52,2.68-24.38,2-8.15,5.49-16.19,8.9-24,1.52-3.45,3.08-7,4.49-10.55a3.82,3.82,0,0,0-.31-3.43l-15.71-24.9,62.65-31.53a3.79,3.79,0,0,0-1.4-7.17l-55.87-4.53c-4.31-16.71-3.75-33.72-3.14-51.68.85-25.53,1.73-51.89-12-78.44l48.21-17.29a3.8,3.8,0,0,0,.44-7l-76.19-38.7,20.11-7.32a3.8,3.8,0,0,0,2-5.44l-28.78-50.73,34.7-16.75a3.8,3.8,0,0,0,1.89-4.78l-25.84-67.53c22.78-15.64,31.91-40.51,41.55-66.79,5.86-16,11.92-32.46,21.34-46.93a3.81,3.81,0,0,0,.14-3.92L697,829.34c2.66-4.26,5.42-8.4,8.09-12.42,7-10.58,13.69-20.57,18.13-31.73,4.33-10.89,6.29-22.35,8.55-35.63,1-6.16,2.14-12.53,3.56-19.35a3.84,3.84,0,0,0-.55-2.86l-32.29-48.88a3.81,3.81,0,0,0-5.65-.78l-10.55,9.12-20.73-73.92a3.8,3.8,0,0,0-2.21-2.48l-20.8-8.61c-1.37-16.36,7.75-20.75,19.17-26.24,10.33-5,22-10.58,24.7-26.38,1.71-10.13,15.33-19.31,31.11-29.94,8.23-5.56,16.75-11.3,24.74-17.93a3.8,3.8,0,0,0-1.06-6.46l-39-15,12.69-30.31h77.65a3.79,3.79,0,0,0,3.4-5.47l-23-46.54a3.8,3.8,0,0,0-4.82-1.84l-67.31,27.16c-6.69-27.29-29.17-33.37-50.93-39.26-12.3-3.32-25-6.75-35.36-13.94l2-33.09,66.25,41.7a3.8,3.8,0,0,0,5.58-4.53c-16.29-44-26-76.44-12.68-124.08l23.44-23.45a3.79,3.79,0,0,0-4-6.22L648.29,238,627.69,200c9.28-8.22,11.51-19.88,13.67-31.2,3.13-16.34,5.83-30.45,27.49-36a3.79,3.79,0,0,0,1.89-6.2L638,89.87l31.41-17.61A3.8,3.8,0,0,0,671,67.37L652.9,27.78c2.71-.13,5.28-.22,7.8-.31,8.77-.32,16.34-.59,23.63-2.33,5-1.21,9.35-4.26,15.88-8.87,1.2-.84,2.49-1.76,3.89-2.73L693,43a3.82,3.82,0,0,0,.28,3.28c1.14,1.91,2.56,3.84,4.07,5.89,3.75,5.11,8,10.9,6.68,15.49-1.06,3.66-5.61,7.09-13.53,10.18a3.78,3.78,0,0,0-1.45,6l10.35,11.64-11.78,38.17a3.79,3.79,0,0,0,5.54,4.39l25.62-15,12,22.64-16.62,28.89a3.78,3.78,0,0,0,.6,4.57L775.64,240l-29.79,32.21a3.85,3.85,0,0,0-1,2.88,3.8,3.8,0,0,0,1.43,2.68c6.74,5.32,13.78,10.86,21.21,16.75l-7.37,6.29a3.79,3.79,0,0,0-.22,5.57l4.32,4.31a3.79,3.79,0,0,0,5.57-.22,83.46,83.46,0,0,0,8.82-11.68,201.88,201.88,0,0,1,17.5-11.08L815,338.56c-10.47,8.26-18.88,15.34-23,26.19A241.21,241.21,0,0,1,767.39,355h0a3.75,3.75,0,0,0-3-.13l-33.67,10.69a3.79,3.79,0,0,0-1.89,5.88l6.58,8.85a3.77,3.77,0,0,0,3.23,1.52c16.76-.81,34.1-1.64,56.89-8.64l.07,0h.06a3.42,3.42,0,0,0,.4-.17c9.93-4.68,24.92-5.08,39.92-5.12l-5.53,47.89a3.8,3.8,0,0,0,3.24,4.2l30.58,4.31v54.7l-27.18,30.3c-4.83,1.34-9.81,1.2-14.63,1.07-10.3-.28-22-.61-23.88,17.57a3.79,3.79,0,0,0,2.78,4.06l42.43,11.48a3.84,3.84,0,0,0,2.1,0l45.64-13.89V604a3.8,3.8,0,0,0,1.78,3.21l42,26.41v10.59l-33.73,6.17a3.77,3.77,0,0,0-2.49,1.65l-3.27,5a3.79,3.79,0,0,0,2,5.67l49.56,16.65a3.8,3.8,0,0,0,3.77-.8l7.81-7.14,32.47,16.73-22.5,22.7a3.8,3.8,0,0,0-.8,4.17c.42,1,1,2.16,1.74,3.55,2,3.95,5.07,9.91,6.33,16,1.16,5.57.88,11.52.59,17.82-.13,2.79-.27,5.67-.27,8.53a3.79,3.79,0,0,0,3.79,3.79h18l15.81,31.59c-5.09,3.71-11.28,8.24-17.91,13.2l-7.44-8.72a3.79,3.79,0,0,0-5.57-.22l-4.31,4.31a3.8,3.8,0,0,0,.21,5.57,88.83,88.83,0,0,0,11,8.44c3.69,13.89-4.73,21.56-14.43,30.38-4.11,3.74-8.36,7.61-11.58,12a3.8,3.8,0,0,0,.32,4.85l19.81,20.7A3.83,3.83,0,0,0,987,888a3.87,3.87,0,0,0,2.73-1.11l9.47-9.47c1.53.74,3.11,1.55,4.74,2.39,6,3.1,12.24,6.3,19.14,7.54,7.78,1.39,15.85,1.11,24.39.8,2.76-.1,5.58-.2,8.5-.25v29.71c-5.73,4.5-13,10.24-20.06,16.59a3.79,3.79,0,0,0-4.53.29l-11.19,9.54a3.85,3.85,0,0,0-1.33,2.74,3.79,3.79,0,0,0,1.11,2.83l4.32,4.32a3.8,3.8,0,0,0,5.57-.23,103.7,103.7,0,0,0,7.25-9.19c5.08,2.85,10.68,6.09,17.33,10-.85,2.56-1.72,5.07-2.58,7.53-2.71,7.77-5.28,15.11-6.49,22.88-1.15,7.35-.94,14.71-.67,24,.08,3,.18,6.28.23,9.82l-28.23-9.88a3.83,3.83,0,0,0-2.07-.12l-62.72,13.8a3.79,3.79,0,0,0-3,3.79l.12,5.89a3.8,3.8,0,0,0,3.41,3.69l51.2,5.22V1056l-56.58,4.69a3.79,3.79,0,0,0-2.1,6.7l44.3,36.7c-3.07,5.75-6.33,9.15-9.91,10.38-5.58,1.89-12.34-1.59-19.5-5.28-5.76-3-11.72-6-18-6.84a3.78,3.78,0,0,0-4.25,3.34L935,1128.8a3.8,3.8,0,0,0,3.78,4.21h88.54l12.34,46.56-17.68,6.66a3.81,3.81,0,0,0-1.94,5.46c.47.81,1,2,1.5,3.08,1.7,3.78,3.31,7.34,6.93,7.5,12.22.55,24.63.49,36.63.44l6,0-9.72,36.28a3.79,3.79,0,0,0,3.67,4.77c4.24,0,8.64,0,13.17-.09,13.52-.14,27.51-.29,41.63.69,1.06.59,3.14,3.94,4.39,6l.59.94-8.93,7.62a3.81,3.81,0,0,0-.22,5.57l4.32,4.31a3.74,3.74,0,0,0,2.83,1.11,3.83,3.83,0,0,0,2.74-1.34,83.82,83.82,0,0,0,8.75-11.56c4.19-2.63,9.34-5,18.68-9.3l40.4,23.33c-6.56,14-15.71,20.3-30.74,20.61l-4.81-24.62a3.79,3.79,0,0,0-4.2-3l-8.85,1.12a3.8,3.8,0,0,0-3.3,4.09c.77,8.95,1.56,18.19,7.92,27.44,5.88,17.44,18.56,16.87,28.78,16.41,5.56-.25,10.52-.47,14.45,1.65l-8.06,11.06a3.8,3.8,0,0,0-.13,4.28l12.06,18.82L1155.86,1401l-10.39,4.12a3.8,3.8,0,0,0-1,6.48l10.58,8.55,4.14,10.43a3.79,3.79,0,0,0,6.48,1l8.81-10.89c22.8-15.1,39.37-20.09,56.34-1.36a3.77,3.77,0,0,0,5.36.26l33.68-30.61,9.37,19.12-27,12.44a3.78,3.78,0,0,0-1.13,6.09c16.3,16.66,31.11,9.16,45.44,1.91,2.74-1.39,5.54-2.81,8.41-4.1v34.46a3.79,3.79,0,0,0,6.43,2.73l54.17-52.47,9.5,3.29-15,31.12a3.79,3.79,0,0,0,3.42,5.44h21.59l3.8,65.85a3.8,3.8,0,0,0,2.66,3.4l81.3,25.41a3.79,3.79,0,0,0,3.13-.39l74.44-45.9-5,50.77-.11.06a4,4,0,0,0-2.17,4c.34,2.5,3.5,5.37,6.49,5.9,35.6,6.32,72.38,12.84,95.67,44.42-29.33,33.52-67.72,32-112,30.2l-5.43-.22a3.76,3.76,0,0,0-3.76,2.61c-4.16,12.7-8.46,25.79-12.72,42.89h-51a3.77,3.77,0,0,0-2.72,1.16,3.84,3.84,0,0,0-1.07,2.77l.23,6.16a3.79,3.79,0,0,0,3.79,3.66c17.74,0,36.08,0,54.37-5.16h0c19.55-4.82,38.81-5,59.14-5l23.86,24a3.79,3.79,0,0,0,4.38.73l24.92-12.4,51.82,104.88-42.62,46.53a3.78,3.78,0,0,0-.57,4.29l21.23,41.29a3.79,3.79,0,0,0,6.89-.3l22.87-56.32,18.73-6.81a3.78,3.78,0,0,0,2.48-3.21l3-32.73,10.81,26.15a3.77,3.77,0,0,0,4.42,2.23l54.55-13.63-12,23.68a3.8,3.8,0,0,0,.55,4.25l20.18,22.57a3.79,3.79,0,0,0,5,.61l18.31-12.47,37.14,18.43-10.44,10.44a3.79,3.79,0,0,0,.44,5.74l27.21,19.93,0,0a2.62,2.62,0,0,0,.3.51l24.13,34.54v64.63l-19.35,6.62a3.78,3.78,0,0,0-2.32,4.93c6.73,17.75,10.11,26.66,8.28,33.7-1.63,6.28-7.52,12.18-20.24,23.63l-7.07-8.3a3.85,3.85,0,0,0-2.74-1.33,3.73,3.73,0,0,0-2.83,1.11l-4.32,4.32a3.78,3.78,0,0,0,.22,5.56,90.07,90.07,0,0,0,10.63,8.19c1.61,14.78,12.7,14.44,20.14,14.2a31.56,31.56,0,0,1,7.72.35c19.88,4.78,27.77,13.87,26.6,31.09l-36.13,5.36a3.78,3.78,0,0,0-2.68,5.72,48.91,48.91,0,0,1,2.33,4.46c1.63,3.39,3.17,6.58,6.38,7.59l3.77,1.18c12.47,3.88,24.36,7.57,35.61,16.84l-46.78,4.9a3.79,3.79,0,0,0-2.66,6c1.47,2,2.66,3.85,3.82,5.65,2.36,3.7,4.4,6.9,7.59,9,19.26,12.73,39.16,25.87,43.22,52.94-5.48,9.45-14.27,15.93-23.55,22.77-10,7.39-20.4,15-27.69,27.09-9.27,15.34-26.82,26.66-43.8,37.62-5.21,3.36-10.6,6.84-15.64,10.37-14.31,10-29.08,18.95-44.72,28.42-6.81,4.12-13.86,8.38-20.88,12.74a3.82,3.82,0,0,0-1.78,3.23v23l-57.86,19c-4-24.78-3.56-49.39-3.1-75.36.43-23.3.86-47.39-2.1-72.28a3.8,3.8,0,0,0-3.77-3.35c-6.61,0-13.46-.13-20.08-.26-6.86-.13-13.83-.26-20.85-.26-8.35,0-16.77.19-25.15.79-26.94,1.95-53.84-2.89-79.85-7.56-27.63-5-56.2-10.11-85.65-7.48-39.11,3.48-79.36,2.63-118.29,1.82-17.14-.36-34.86-.74-52.27-.74C1256.16,2262.58,1238,2263.48,1220.53,2264.34ZM781.62,369.1c-15.43,3.64-28.16,4.4-41.29,5l-2.2-3,27.37-8.69C768,363.64,773.82,366.2,781.62,369.1Zm373.24,921.78h0c-3.71-6-4.74-12.27-5.37-18.76l1.69-.22Z"/><path d="M1269.15,1495.86a3.78,3.78,0,0,0-5.14-.21l-11.19,9.54a3.85,3.85,0,0,0-1.33,2.74,3.79,3.79,0,0,0,1.11,2.83l4.32,4.32a3.78,3.78,0,0,0,2.68,1.11h.15a3.77,3.77,0,0,0,2.73-1.32,79.17,79.17,0,0,0,9.24-12.4,3.78,3.78,0,0,0-.11-3.92A18.44,18.44,0,0,0,1269.15,1495.86Z"/><path d="M970.41,798.21V775.9a3.79,3.79,0,0,0-4.91-3.62c-22.52,7-45.31,12.71-83.07,22.25a3.79,3.79,0,0,0,.93,7.47h83.26A3.79,3.79,0,0,0,970.41,798.21Zm-7.59-3.8H913.75c19.44-5,34.51-9,49.07-13.39Z"/><path d="M790.14,537.85a3.79,3.79,0,0,0-5.14-.21l-11.18,9.54a3.79,3.79,0,0,0-.22,5.57l4.31,4.32a3.82,3.82,0,0,0,2.69,1.11h.15a3.85,3.85,0,0,0,2.73-1.33,79.8,79.8,0,0,0,9.24-12.4,3.79,3.79,0,0,0-.11-3.91A18.08,18.08,0,0,0,790.14,537.85Z"/><path d="M861.25,613.26,839,604.85a3.8,3.8,0,0,0-4.23,1.08L801.44,645a3.81,3.81,0,0,0,.32,5.26l8.85,8.15a3.79,3.79,0,0,0,2.57,1,3.83,3.83,0,0,0,2.43-.87l46.72-38.82a3.79,3.79,0,0,0-1.08-6.46Zm-47.94,37.32-3.72-3.43,29.26-34.26,13.62,5.16Z"/><rect x="2071.38" y="2992.5" width="21.27" height="12.15" rx="3.79"/><path d="M2503.8,3442.42c-1.77-3.71-3.49-7.17-5.14-10.49-3.59-7.24-6.69-13.48-9.19-20-2-5.28-3.45-11-5.61-19.55-1.19-4.7-2.67-10.56-4.58-17.68a3.79,3.79,0,0,0-6.8-1.14l-7.07,10.41c-21.32,31.38-38.28,56.36-55,80.7l-.16,0L2392.44,3423,2446,3283.32a3.78,3.78,0,0,0-1.28-4.4l-7.57-5.61a3.8,3.8,0,0,0-5,.39l-27.88,28.52-28.5,2.29a3.79,3.79,0,0,0-3.11,2.13c-3.15,6.5-6.44,13-9.63,19.36-7.2,14.29-14.65,29.05-20.69,44.11-6.42,16-11.57,32.12-17.53,50.79-2.16,6.73-4.36,13.65-6.75,20.92l-37.53-41.76,31.65-67.53a3.78,3.78,0,0,0,.16-2.84c-4.65-13.62-16.75-13-25.6-12.53-9.32.48-14.22.4-16.13-6.36,12-.51,23.73-.51,37.07-.51a3.79,3.79,0,0,0,3.66-2.78c10.38-37.68,37.64-58.09,66.49-79.69,16.71-12.51,34-25.44,48.33-42.19a3.8,3.8,0,0,0,.39-4.4l-27.24-46a3.72,3.72,0,0,0-3.29-1.86,3.8,3.8,0,0,0-3.27,1.9l-21.58,37.55-45.93-7.24a3.79,3.79,0,0,0-4.26,2.79l-1.47,5.59c-1.92,7.32-3.19,12.17-4.39,16.77-17.74,8.81-29.94,1.39-43.1-14l14.21-15.29a3.77,3.77,0,0,0,.47-4.54l-37.75-62.5c6.22-5.61,12.8-11,19.18-16.24,23.88-19.56,48.56-39.79,57.33-73.9a3.79,3.79,0,0,0-.86-3.49c-50.5-55.85-77.78-65.34-131.55-45.25l-30-9.55a3.78,3.78,0,0,0-4.74,2.38l-6.74,19.56-21.56-74.68a3.8,3.8,0,0,0-5.75-2.11l-55.9,37.17a3.79,3.79,0,0,0,1.25,6.85l49,11.29-14.18,11.47-7.18-8.42a3.82,3.82,0,0,0-2.74-1.33,3.88,3.88,0,0,0-2.83,1.11l-4.31,4.32a3.79,3.79,0,0,0-1.11,2.83,3.74,3.74,0,0,0,1.33,2.73l8.16,7c-12.53,12.35-28.72,15.25-44.4,18.06-9,1.62-17.53,3.14-24.76,6.45a3.82,3.82,0,0,0-1.31,1,218.44,218.44,0,0,0-17.17,21.93,118.5,118.5,0,0,0,2.35-24.59l27.06-35.38a3.79,3.79,0,0,0,.17-4.37l-20.71-32a3.81,3.81,0,0,0-3.17-1.74h0a3.79,3.79,0,0,0-3.16,1.7l-19.85,30-52.48,6.57c-10.12-7.11-18.81-18.68-28-30.91-8.84-11.77-18-23.91-29.3-33.47l88.37-62.87a3.78,3.78,0,0,0,1.34-4.46l-3.75-9.69a3.79,3.79,0,0,0-4.11-2.38l-53.09,8.14-10.91-15.72a3.81,3.81,0,0,0-3.83-1.56l-33.6,6.45,10.16-11.76a3.8,3.8,0,0,0-.11-5.08l-20.24-21.46a3.78,3.78,0,0,0-5.82.36l-94.21,128.58L1739.51,2875c12.67-12.28,11.9-28.74,11.15-44.69-.77-16.47-1.51-32,12.24-42.78,16.84-13.18,25.15-31,33.19-48.29,4.52-9.72,8.79-18.89,14.43-27,7-10.13,11-21.75,14.89-33,6.51-18.93,12.66-36.81,32.45-45.48a3.78,3.78,0,0,0,2.16-2.56,3.82,3.82,0,0,0-.72-3.28l-7.83-9.79,62.72-53.1a3.79,3.79,0,0,0,.4-5.39l-12.8-14.61,15.73-53a3.79,3.79,0,0,0-2.81-4.78c-23.65-5.29-35.53-7.94-41.59-13.34-4.57-4.07-6.38-10.53-8.28-21.89,17.18,12.31,35.18,11.16,52.67,10,10.57-.67,20.54-1.31,30.47.82a3.79,3.79,0,0,0,4.4-2.55l19.9-61.84a3.78,3.78,0,0,0-1.9-4.55L1932,2374.65a3.8,3.8,0,0,0-4.23.55l-32,28.39-6.46-11.5,9.1-7.76a3.79,3.79,0,0,0,.22-5.57l-4.31-4.31a3.79,3.79,0,0,0-5.57.22l-9.54,11.18a4,4,0,0,0-.42.6c-1.27.17-2.56.32-3.88.47-6.27.72-12.74,1.45-18.34,4.44-30.5,16.25-62.9,33.75-94.35,53.43-9.47,5.92-17.1,14.84-22.15,20.73-1.72,2-3.2,3.74-4.33,4.87a3.79,3.79,0,0,0-1,3.38c4.2,22.5-7.15,38.84-18.12,54.64-12.12,17.46-24.64,35.49-13.1,59.84l-51.13,37.68a3.83,3.83,0,0,0-1.34,1.83c-1.29,3.77-2.43,7.66-3.53,11.43-2.39,8.15-4.86,16.58-8.87,23.76-3.45,6.18-8.3,12.2-13,18-7.9,9.82-16.07,20-18.3,31.66-6.27,32.86-19.93,63.13-33.15,92.4-5.45,12.06-11.08,24.53-16.15,37.08-2.06,5.1-4.57,10.26-7.21,15.74-12.21,25.22-26,53.8.8,84.17,1.23,1.39-.13,8.21-1.12,13.19-.18.95-.38,1.93-.57,2.93l-16.25-27.74a3.82,3.82,0,0,0-2.79-1.84,3.76,3.76,0,0,0-3.17,1.08l-48,48a3.79,3.79,0,0,0-1,3.41c2.24,11.47,9.87,21.73,17.24,31.66,12.53,16.85,24.41,32.83,11.38,54.43-15.21-14.81-32.64-12.15-46.84-10-3.15.48-6.12.93-8.92,1.18a3.78,3.78,0,0,0-3.1,2.18l-47,101.45a3.84,3.84,0,0,0-.35,1.6v29.11a3.79,3.79,0,0,0,1.65,3.13l35.66,24.44L1272.49,3367.5a3.8,3.8,0,0,0,.28,5.9c13.23,9.68,15.55,23.68,18,38.5,3,18.38,6.51,39.21,32.34,52.33a3.82,3.82,0,0,0,2.28.37L1458,3444.77a3.81,3.81,0,0,0,3.16-3l4.08-20.17c15.29,15.06,33.38,14.22,50.93,13.4,15.92-.75,31-1.45,44.67,8.89,13.21,10,29.85,9,47.48,8,16.49-.95,33.54-1.92,49.72,5.68,21.64,10.17,48.94,7.71,75.35,5.34,11.3-1,23-2.07,33.87-2.07a3.78,3.78,0,0,0,2.68-1.11l16.82-16.83,67.09-13.12a3.79,3.79,0,0,0,2.86-2.5l6.36-18.72,27.23,15.46-7.4,10.15a3.79,3.79,0,0,0,.65,5.16l16.86,13.92h-31.64a3.8,3.8,0,0,0-3.74,4.42l4,24a3.81,3.81,0,0,0,1.69,2.57,3.85,3.85,0,0,0,2,.6,3.69,3.69,0,0,0,1-.13l35.28-9.51,7.39,13.6a3.8,3.8,0,0,0,5.06,1.57l32.2-16.42,18.82,12.42a3.79,3.79,0,0,0,5-.67l21.58-24.74a3.82,3.82,0,0,0,.33-4.55l-13.46-20.92,12.83-13c5.39,2.13,10.76,4.4,16,6.6,22.65,9.59,44.12,18.68,68.73,17.76-3.84,14-15.08,17-29,20.62s-29.42,7.72-37.44,25a3.7,3.7,0,0,0-.36,1.6V3520l-31.15,43.73h-49.65a3.82,3.82,0,0,0-2.43.88l-42.82,35.71a3.79,3.79,0,0,0-1.13,4.24l22.85,61.21a3.79,3.79,0,0,0,6.34,1.25c28.62-31.06,64.63-29.41,93.56-28.09a3.87,3.87,0,0,0,2.26-.62c9.81-6.45,15.47-16,20.46-24.51,6.84-11.58,12.74-21.59,27.44-22.48a3.79,3.79,0,0,0,3.56-3.79v-31.64l46.53-56.4,42.92,12.87a3.79,3.79,0,0,0,4.26-1.56c10.16-15.56,15.75-34.3,21.16-52.43,9.19-30.78,17.88-59.9,47.19-73.63l33.26,24c-2.8,18.82,1.71,42,12.54,64.3l-52.29,123.28a3.94,3.94,0,0,0-.29,1.76l4.14,55.14a3.79,3.79,0,0,0,5.07,3.28c29.7-10.72,44.43-33.16,58.69-54.86,11.21-17.08,21.84-33.26,39.1-42.37l.24.35a19.64,19.64,0,0,1,2.56,4.24c-1.66,5.27-4.4,10.37-7.3,15.78-1.22,2.28-2.48,4.64-3.71,7.09a3.79,3.79,0,0,0,.59,4.25l10.23,11.25c-19.3,52.3-18.69,54.61,12,94.77a3.81,3.81,0,0,0,3,1.49h.1a3.77,3.77,0,0,0,3-1.66l22.67-33.22,49,14.48a3.77,3.77,0,0,0,4.14-1.4l36.66-50.24a3.81,3.81,0,0,0,.73-2.23c0-5.16-.08-10.53-.16-15.73-.18-12.3-.37-25,.4-37.59.7-11.3,2.42-22.69,4.23-34.75.82-5.44,1.66-11,2.45-16.9l34.71-73.57A3.78,3.78,0,0,0,2503.8,3442.42ZM1997.08,2958.8l-.08,0a.45.45,0,0,0,0-.11Zm-89.93,509-31.33,8.44-2.59-15.42h33.92Zm7.58-2.68V3465l.13.1ZM2462,3516.53a3.62,3.62,0,0,0-.33,1.12c-.81,6-1.67,11.78-2.51,17.36-1.84,12.23-3.58,23.78-4.3,35.42-.79,12.85-.6,25.72-.42,38.17.08,5,.15,9.68.16,14.37l-34.35,47.08-49.08-14.51a3.8,3.8,0,0,0-4.21,1.5l-21.26,31.17c-12.65-16.61-19.08-25.66-20.2-35.49-1.23-10.76,3.62-23.88,13.28-50a3.81,3.81,0,0,0-.75-3.87l-10-11c.81-1.56,1.64-3.09,2.44-4.59,3.11-5.81,6.06-11.3,7.93-17.35,1.18-3.77-1.41-7.42-3.68-10.64a26.89,26.89,0,0,1-1.75-2.64,3.81,3.81,0,0,0-4.94-1.66c-21,9.68-33.29,28.42-45.19,46.54-12.78,19.45-26,39.52-50.24,50l-3.68-49.07,52.6-124a3.77,3.77,0,0,0-.1-3.18c-11-21.94-15.56-45.67-12.24-63.48a3.79,3.79,0,0,0-1.51-3.77l-36.94-26.69a3.78,3.78,0,0,0-3.73-.41c-34.13,14.74-43.92,47.56-53.4,79.3-5,16.66-10.1,33.86-18.74,48.06l-42.56-12.76a3.79,3.79,0,0,0-4,1.22l-49,59.39a3.78,3.78,0,0,0-.86,2.41v29.6c-16.16,2.44-23.16,14.32-30,25.83-4.61,7.8-9.36,15.86-17.11,21.35-27.46-1.26-64.11-2.48-94,26.23l-19.82-53.1,39.71-33.11h50.23a3.78,3.78,0,0,0,3.09-1.59l33-46.32a3.76,3.76,0,0,0,.7-2.2v-26.28c6.61-13.4,19-16.65,32.14-20.09,13.9-3.64,29.5-7.73,34.45-26.29a3.79,3.79,0,0,0,1.71-.83l11.18-9.54a3.79,3.79,0,0,0,.22-5.57l-4.31-4.31a3.82,3.82,0,0,0-2.84-1.11,3.76,3.76,0,0,0-2.73,1.33,89.38,89.38,0,0,0-8.19,10.64c-24.08,1.65-45.54-7.42-68.23-17-6-2.54-12.21-5.17-18.49-7.6a3.81,3.81,0,0,0-4.07.87l-16.72,16.92a3.81,3.81,0,0,0-.49,4.72l13.55,21.08-17.52,20.09L1956,3466.37a3.81,3.81,0,0,0-3.82-.22l-30.88,15.75-5-9.22,7.37-2.93a3.8,3.8,0,0,0,1-6.48l-11.33-9.15-22.24-18.37,7.81-10.69a3.8,3.8,0,0,0-1.2-5.54l-34.91-19.82a3.78,3.78,0,0,0-5.46,2.08l-7.14,21-66.06,12.92a3.83,3.83,0,0,0-2,1l-16.54,16.54c-10.75.09-22,1.11-33,2.09-25.4,2.29-51.66,4.65-71.44-4.65-17.92-8.42-36.77-7.34-53.39-6.38-16.89,1-31.48,1.81-42.47-6.49-15.88-12-33-11.18-49.6-10.41-19.25.89-35.89,1.67-49.77-16.36a3.78,3.78,0,0,0-6.72,1.56l-5.07,25-128.74,19.25c-21.44-11.38-24.25-28.33-27.22-46.26-2.39-14.38-4.85-29.21-17.4-40.45l166.2-147.47a3.8,3.8,0,0,0-.37-6l-38-26.05v-26.27l45.71-98.74c2.34-.27,4.72-.64,7.2-1,14.79-2.26,30.08-4.59,43.3,11a3.8,3.8,0,0,0,6-.23c20.24-28.1,4.77-48.92-8.88-67.28-6.71-9-13.07-17.59-15.44-26.65l43.07-43.08,19.16,32.71a3.79,3.79,0,0,0,7-1.54c.46-4.54,1.34-9,2.13-12.95,1.71-8.65,3.07-15.49-.64-19.69-23.51-26.59-11.39-51.63.33-75.85,2.71-5.59,5.27-10.87,7.42-16.2,5-12.4,10.62-24.81,16-36.8,13.4-29.67,27.26-60.35,33.69-94.1,1.88-9.83,9.11-18.81,16.76-28.32,4.89-6.07,10-12.34,13.71-19.08,4.43-7.92,7-16.77,9.53-25.33,1-3.31,2-6.71,3-10l52.76-38.88a3.8,3.8,0,0,0,1.08-4.86c-11.81-21.76-1.17-37.09,11.16-54.85,11-15.88,23.49-33.82,19.68-58.43,1-1.11,2.12-2.42,3.35-3.85,5-5.88,11.93-13.93,20.41-19.24,31.25-19.54,63.52-37,93.9-53.16,4.33-2.31,9.82-2.94,15.63-3.6,1.89-.22,3.83-.44,5.76-.73l9.94,17.68a3.78,3.78,0,0,0,2.68,1.89,3.85,3.85,0,0,0,3.15-.91l33.54-29.81,33.19,16.73-17.88,55.58c-9.82-1.57-19.64-.95-29.16-.34-19.41,1.23-37.74,2.4-54.84-14.68a3.79,3.79,0,0,0-6.43,3.25c5.94,39,7.93,40.52,53.33,50.69l-15.17,51.07a3.8,3.8,0,0,0,.79,3.58l11.63,13.27-62.59,53a3.81,3.81,0,0,0-.51,5.27l7.18,9c-19.38,10.57-25.88,29.48-32.18,47.81-3.7,10.75-7.53,21.87-14,31.13-6,8.67-10.62,18.57-15.08,28.15-7.66,16.45-15.58,33.46-31,45.51-16.83,13.17-15.93,32.27-15.14,49.11.74,15.69,1.44,30.5-10.7,40.56a3.79,3.79,0,0,0-1,4.65l15.9,30.9a3.82,3.82,0,0,0,3.08,2.05,3.72,3.72,0,0,0,3.35-1.54l95.15-129.86,14.76,15.65-15.06,17.44a3.79,3.79,0,0,0,3.59,6.2l41.89-8,10.86,15.63a3.76,3.76,0,0,0,3.69,1.59l52.42-8,1.58,4.1-90.07,64.08a3.79,3.79,0,0,0-.08,6.13c12.4,9.3,22.27,22.45,31.82,35.16,9.93,13.22,19.31,25.71,31,33.45a3.83,3.83,0,0,0,2.57.6l51.39-6.43c0,1.62.08,3.28.18,5a.81.81,0,0,0-.1.09l-11.19,9.54a3.78,3.78,0,0,0-.22,5.56l4.32,4.32a3.78,3.78,0,0,0,5.56-.22,83.79,83.79,0,0,0,8.78-11.6,57,57,0,0,1,9.19-4.27,3.79,3.79,0,0,0,1-6.47l-8.67-7,15.71-23.72,16.11,24.89-26.21,34.28a3.81,3.81,0,0,0-.78,2.31,116.85,116.85,0,0,1-2.87,27.67,3.8,3.8,0,0,0-3.36,2.74c-3,10.44-4.41,16-2,19.34a5.54,5.54,0,0,0,1.2,1.17c2.43,5.08,6.43,6.17,9.33,5.46,3.13-.76,5.18-3.47,4.78-6.29a53.27,53.27,0,0,0-2.36-9.41,205.31,205.31,0,0,1,22.87-31.15c6.25-2.69,14-4.08,22.21-5.55,17.27-3.09,36.86-6.6,51.46-23.41a3.6,3.6,0,0,0,.68-1.14,4,4,0,0,0,1-.6l23.55-19.06a3.8,3.8,0,0,0-1.54-6.65l-48-11.05,44.25-29.43,23.46,81.24a3.8,3.8,0,0,0,3.55,2.74h.09a3.8,3.8,0,0,0,3.59-2.56l9.44-27.4,27.68,8.83a3.83,3.83,0,0,0,2.5-.07c50.86-19.29,75.31-11.24,123.09,41.25-8.57,30.52-30.78,48.72-54.27,68-7.25,5.95-14.76,12.1-21.8,18.62a3.8,3.8,0,0,0-.67,4.75l37.88,62.71L2264.21,3174a3.8,3.8,0,0,0-.16,5c14.14,17.23,30.72,31.28,56.14,17.63a3.76,3.76,0,0,0,1.87-2.38c1.33-5.11,2.67-10.21,4.82-18.4l.6-2.27,45.12,7.12a3.82,3.82,0,0,0,3.88-1.86l19.64-34.18,22.53,38.09c-13.47,15.14-29.66,27.27-45.34,39-27.93,20.91-56.8,42.53-68.45,81-11.88,0-22.56,0-33.48.47-.09-.13-.19-.26-.29-.38l-9.54-11.18a3.78,3.78,0,0,0-2.73-1.33,3.85,3.85,0,0,0-2.84,1.11l-4.31,4.31a3.79,3.79,0,0,0,.22,5.57,90.2,90.2,0,0,0,10.74,8.26c2.61,16.33,15.24,15.67,24.53,15.19,9.12-.48,14.64-.42,17.5,6l-32,68.35a3.79,3.79,0,0,0,.61,4.14l43.59,48.49a3.79,3.79,0,0,0,6.42-1.34c3.21-9.62,6.06-18.56,8.82-27.21,5.92-18.52,11-34.53,17.35-50.26,5.92-14.76,13.3-29.38,20.42-43.52,2.89-5.72,5.86-11.61,8.74-17.52l27.75-2.23a3.76,3.76,0,0,0,2.41-1.13l26.56-27.17,2.6,1.93-53.08,138.38a3.75,3.75,0,0,0,.05,2.85l19.07,44.64a3.8,3.8,0,0,0,2.52,2.17c.44.12,1,.31,1.5.49,2.42.82,5.42,1.85,7.26-.84,17.23-25,34.55-50.51,56.47-82.79l2.4-3.52c.9,3.51,1.69,6.63,2.42,9.52,2.23,8.86,3.71,14.71,5.88,20.4,2.63,6.89,6,13.6,9.49,20.7,1.38,2.8,2.83,5.7,4.3,8.77Z"/><path d="M1361.79,3171.87A49,49,0,0,1,1355,3169a3.79,3.79,0,0,0-4.61.62l-35.54,36.14a3.79,3.79,0,0,0,2.7,6.45h79.38a3.79,3.79,0,0,0,3.52-5.21C1390.61,3182.59,1372.57,3175.88,1361.79,3171.87Zm-35.19,32.76,27.27-27.72c1.58.69,3.35,1.35,5.28,2.07,9.89,3.68,23.13,8.6,31.89,25.65Z"/><path d="M2196.25,2915.33a3.75,3.75,0,0,0,2.39.86,3.82,3.82,0,0,0,2.35-.82l27-21.34a3.81,3.81,0,0,0,.5-5.48l-18.42-21a3.78,3.78,0,0,0-4.58-.87l-37.15,19.09a3.8,3.8,0,0,0-.66,6.32Zm10.08-40.56,13.83,15.78-21.48,17L2177,2889.86Z"/><path d="M1053.27,1032.5a3.81,3.81,0,0,0,3.58,2.53h36a3.81,3.81,0,0,0,3.08-1.58,3.77,3.77,0,0,0,.52-3.41l-7.58-22.95a3.8,3.8,0,0,0-6-1.76l-28.43,22.95A3.81,3.81,0,0,0,1053.27,1032.5Zm30.13-17.82,4.22,12.76h-20Z"/><path d="M1937.17,2615.08a3.76,3.76,0,0,0,3.39.56l27.86-8.85a3.8,3.8,0,0,0,1.93-5.85L1966,2595a3.78,3.78,0,0,0-3.07-1.57h-23.56a3.79,3.79,0,0,0-3.79,3.79V2612A3.77,3.77,0,0,0,1937.17,2615.08Zm6-14.06H1961l.09.12-17.92,5.7Z"/><path d="M1197,1382.26l1.07,6.51a3.8,3.8,0,0,0,3.75,3.17h22.67a3.79,3.79,0,0,0,3.76-4.26l-1.48-11.82a3.76,3.76,0,0,0-1.6-2.65,3.81,3.81,0,0,0-3-.57l-22.27,5.31A3.78,3.78,0,0,0,1197,1382.26Zm22.77-1.26.42,3.36H1205.7Z"/><path d="M1010,735.19a3.59,3.59,0,0,0,.47,0l11.83-1.48a3.79,3.79,0,0,0,3.21-4.64l-5.31-22.27a3.8,3.8,0,0,0-4.31-2.87l-6.51,1.08a3.79,3.79,0,0,0-3.17,3.74V731.4a3.79,3.79,0,0,0,3.79,3.79Zm3.8-22.58,3.35,14.07-3.35.42Z"/><path d="M1942.92,2570a4.73,4.73,0,0,0,.52,0l6.73-.92a3.79,3.79,0,0,0,3.28-3.76v-22.7a3.81,3.81,0,0,0-1.19-2.77,3.88,3.88,0,0,0-2.84-1l-11.72.75a3.79,3.79,0,0,0-3.46,4.6l5,22.86A3.79,3.79,0,0,0,1942.92,2570Zm2.95-23.37v15.27l-3.28-15.06Z"/><path d="M2145.94,2911.24l.47,0,11.82-1.48a3.8,3.8,0,0,0,3.22-4.65l-5.32-22.27a3.78,3.78,0,0,0-4.29-2.86l-6.51,1.05a3.8,3.8,0,0,0-3.19,3.75v22.7a3.81,3.81,0,0,0,3.8,3.79Zm3.79-22.58,3.36,14.07-3.36.42Z"/><rect x="1428.14" y="1487.05" width="21.27" height="12.15" rx="3.79"/><path d="M1968.58,2295.17a3.8,3.8,0,0,0,2.68,1.11h.15a3.82,3.82,0,0,0,2.74-1.33l9.25-10.85,10.85-9.26a3.78,3.78,0,0,0,.22-5.56l-4.31-4.32a3.82,3.82,0,0,0-2.83-1.11,3.78,3.78,0,0,0-2.74,1.33l-9.26,10.85-10.84,9.26a3.78,3.78,0,0,0-.22,5.56Z"/><rect x="1003.88" y="830.13" width="21.27" height="12.15" rx="3.79"/><rect x="1090.56" y="1208.78" width="12.15" height="21.27" rx="3.79"/><rect x="1925.39" y="2905.82" width="12.15" height="21.27" rx="3.79"/><path d="M2226.91,3451.82a3.74,3.74,0,0,0,1.33-2.73,3.79,3.79,0,0,0-1.11-2.83l-4.32-4.32a3.78,3.78,0,0,0-5.56.22l-4.4,5.15a3.78,3.78,0,0,0-5.85,1.08l-25.8,49.05a3.79,3.79,0,0,0,3.36,5.56,2.59,2.59,0,0,0,.48,0l25.81-3.35a3.8,3.8,0,0,0,3.3-3.77v-33.68a3.71,3.71,0,0,0,1.58-.8Zm-20.35,40.69-15.24,2,15.24-29Z"/></g></g></svg>