<svg xmlns="http://www.w3.org/2000/svg" viewBox="0 0 2367.42 3681.2"><title>Asset 1</title><g id="Layer_2" data-name="Layer 2"><g id="Layer_1-2" data-name="Layer 1"><path d="M2334.74,2863.19a48.62,48.62,0,0,1-.08-10.56,5.08,5.08,0,0,0-3.6-5.62c-2.73-.8-5.29-1.52-7.73-2.22-5-1.41-9.29-2.64-13.6-4-12.14-3.89-24.36-8.32-36.19-12.61-11.39-4.13-23.16-8.4-34.94-12.21l-9.55-3.09c-15.58-5-31.68-10.21-47.16-15.88-13.39-4.91-27-9.78-40.33-14.46-12.46-4.37-25.57-9.13-40.1-14.55-9.77-3.65-19.82-6.81-29.55-9.87-12.24-3.85-24.9-7.83-36.76-12.73-13.58-5.61-27.6-10.35-41.16-14.93-14.58-4.92-29.64-10-44-16.13-11.15-4.77-22.86-8.22-34.18-11.55-14.45-4.26-29.4-8.66-42.84-15.79a6.06,6.06,0,0,0-3.26-.66c-7.67-3-15.55-5.25-23.18-7.42-10.56-3-20.56-5.86-29.53-10.45-7-13.23-15.43-25.07-23.65-36.54-6.58-9.18-12.79-17.85-18.25-27.15-7.41-12.59-15.68-24.74-23.68-36.49-5.81-8.51-11.81-17.32-17.37-26.16-9.45-15-18.94-30-28.3-44.76l-12.2-19.28a5.07,5.07,0,0,0-3.86-2.34c-3.48-.3-6.78-.43-10-.55-7.37-.27-13.74-.51-20.15-2.72-5.63-1.94-11.28-1.65-16.75-1.36s-10.49.54-15.15-1.36c-5.29-2.16-10.64-2.1-15.81-2-5.6.06-10.44.11-14.55-2.57a5.12,5.12,0,0,0-3.45-.77c-9.07,1.21-18-.22-27.39-1.74-7.79-1.25-15.82-2.54-23.93-2.17q-2.38-3.72-4.71-7.31c-4.48-7-8.72-13.51-12.81-20.19-5.38-8.78-10.79-17.75-16-26.42-5.89-9.78-12-19.88-18.07-29.77-6.61-10.73-13.41-21.57-20-32.05-5.8-9.25-11.8-18.81-17.64-28.24-6.47-10.46-13-21.14-19.26-31.47q-7.5-12.33-15-24.62-9.27-15.07-18.6-30.11c-7.63-12.33-15.53-25.09-23.23-37.67-5.48-8.94-11-18.08-16.31-26.92-5.8-9.61-11.78-19.55-17.76-29.28-6.87-11.19-13.94-22.5-20.77-33.45q-7.93-12.71-15.83-25.42-10.44-16.87-20.78-33.8-7.27-11.85-14.56-23.71-21.79-35.4-43.64-70.75-6.86-11.09-13.74-22.15-7.29-11.73-14.57-23.48-4.9-8-9.75-15.92c-5.68-9.32-11.56-19-17.52-28.35-4.69-7.4-9.16-15.17-13.49-22.69-8.75-15.23-17.78-30.94-29.3-44.68l10-18.52,29.55-55q3.51-6.51,7.06-13c5-9.11,10.09-18.54,14.93-28,7.26-14.1,14.2-28.45,21.26-43.14,2.6-5.41,5.15-10.95,7.6-16.3,3.86-8.38,7.84-17,12.1-25.34,2.59-5,5.4-10.1,8.13-15,5-8.94,10.11-18.18,14.26-27.94,2.61-6.13,6.36-12.11,10-17.88,1.68-2.68,3.42-5.45,5-8.23a5,5,0,0,0,.38-4.32c-.55-1.5-1.1-2.9-1.62-4.26-1.06-2.72-2-5.07-2.68-7.45-4.93-16.43-21.21-46.75-31.11-57.94-18.77-21.22-39.77-36.67-64.18-47.21-16.86-7.28-34.2-6-50.17,3.71-13.46,8.18-22.76,16-30.17,25.26-6.3,7.89-13.38,16.75-23.8,21.26-11.65-10.13-25.75-16.58-40.5-22.57V1416.7c1.64-6.35,6.27-9,13.57-12.72a58,58,0,0,0,10.11-6h.25c13.71,0,17.32-12.38,19.1-18.51a5,5,0,0,0-1.56-5.26l-19.11-16.47c8-16.71,20.38-28.47,36.84-35a5.06,5.06,0,0,0,3.21-4.72v-14.32a5.12,5.12,0,0,0-.38-1.94c-.59-1.42-1.06-2.67-1.47-3.8a30.59,30.59,0,0,0-3.1-6.68,32.18,32.18,0,0,0-5.05-5.46c-.86-.8-1.81-1.68-2.85-2.71a5.08,5.08,0,0,0-7.69.62l-10.58,14.63-25.94-3.92a5,5,0,0,0-3.94,1.06c-11.9,9.58-14.07,22-16,33-1,5.94-2,11.58-4.34,16.75-1.34.73-2.69,1.54-4.09,2.37-4.31,2.57-8.77,5.23-13.21,6-8.43,1.45-14.7,5.93-16.79,12-1.46,4.26-4.18,8.07-7.05,12.11-4.34,6.09-8.82,12.39-9.76,21-.23,2.12-.4,3.69-5.38,3.53-8.12-4.88-12.22-14.09-13.34-21.28-2.38-15.19-9.21-27.6-15.82-39.59l-1-1.79a75.44,75.44,0,0,0-7.48-10.58c-.79-1-1.59-2-2.36-3q0-3.3-.11-6.62a173.67,173.67,0,0,1,.31-18.83c.38-4.19,1.1-12,3.84-14.77,5.83-5.91,9.64-12.83,13.32-19.53,1.32-2.39,2.68-4.87,4.13-7.3a5,5,0,0,0,.72-2.6c0-.61,0-1.32,0-2.09,0-1.76-.09-3.75,0-5.69,1.39-19.17-.36-38.31-2-56.83-1.67-18.37-3.4-37.38-1.92-55.82a5.06,5.06,0,0,0-.16-1.69c-3-11.32-12.73-14.88-18-16.8a5.07,5.07,0,0,0-4,.24l-9.47,4.79a4.93,4.93,0,0,0-2,1.88c-5.74,9.39-6.44,17-2.42,26.39a93.32,93.32,0,0,0,11.19,19.88c1.37,10.16-1.76,17.75-10,24.29-7.22-.45-11.71-5-16.86-10.27a66.7,66.7,0,0,0-7.91-7.24,5.09,5.09,0,0,0-3-1h-2.45c-.26,0-.58,0-.9-.07-1.79-.16-5.52-.49-7.23,3s-5,5.68-8.53,8c-3.1,2.07-6.28,4.2-8.62,7.32-.62.13-1.22.24-1.82.35-2.75.5-5.35,1-7.72,2.61-6.18,4.26-13.3,6.58-20.84,9a117.65,117.65,0,0,0-17.26,6.66l13.25-18.61a5.07,5.07,0,0,0-1.23-7.11c-1.15-.8-2.2-1.65-3.22-2.47-2.46-2-4.78-3.85-7.89-4.65-1.1-.28-2.23-.6-3.37-.91-6.1-1.7-13-3.62-19.44-2-2.23.57-4.42,0-7.19-.7-3.48-.89-7.82-2-12.7-.36a64,64,0,0,1-10.91,2.26l-3.34.51-1.48-1.37a5,5,0,0,0-4.61-1.23c-1.77.41-3.49.93-5.14,1.43-3.17,1-6.19,1.87-8.76,1.78-14.26-.51-26.4,4.59-37.43,10.17-5.82,3-11.51,6.25-17,9.44-12,7-23.35,13.55-36.26,17a14,14,0,0,0-3.12-2.37,14.6,14.6,0,0,0-2.35-1l.08-.12c2.32-3.84,4.3-7.13,6.27-10.44,3.83-6.46,7.07-14.38,2-24.16a5.07,5.07,0,0,0-5.59-2.62c-2.18.48-4.33,1.07-6.41,1.64-4.48,1.22-8.71,2.38-12.71,2.38h0c-4.17,0-8.62-1.26-12.55-2.37-1.72-.48-3.34-.94-4.89-1.28a5.08,5.08,0,0,0-4.24,1l-22.23,17.62-2.07-.84c-9.86-4-20-8.17-32.62-5.63a5.14,5.14,0,0,0-2.22,1.06c-1.55,1.28-3.09,2.78-4.57,4.23-3.09,3-6.29,6.13-9.64,7.34-12.64,4.53-16.22,14.61-19.38,23.51l-.18.51a44.68,44.68,0,0,0-2,10.52q-.07.7-.15,1.38c-3.87,2.14-5.41,2.47-6,2.49-.26-.35-.92-1.46-1.69-4.69-1.78-7.51-4.93-12.77-14.51-14-3.19-.4-6.48-1.71-10-3.09l-1.76-.69c.28-4.27,2.07-8.41,3.95-12.73,2.27-5.25,4.78-11,4.69-17.59H495.5a5,5,0,0,0,2.4-.61c5-2.71,7.86-7.28,10.13-11,2-3.25,3.23-5,4.58-5.55l8.76,2.25c9.44,11.45,20.91,11.3,30.2,11.18,2.59,0,5-.06,7.38.13a5.07,5.07,0,0,0,4.14-1.62l24.12-26.13.92-.16c3-.52,7.1-1.24,11.25-1.85,5.37-.8,10.79.33,16.54,1.52a82.94,82.94,0,0,0,12.37,1.92c7.31.4,13.22,3.35,19.75,9.84a5.1,5.1,0,0,0,3.58,1.47H666.3a5.06,5.06,0,0,0,2.65-.75l22.71-13.9c1.18.5,2.4,1.06,3.67,1.64,5.15,2.35,11,5,17.26,5.31,15.87.78,31.39.64,47.81.5,6.35-.06,12.74-.11,19.2-.11a5.09,5.09,0,0,0,4.69-3.14c.74-1.8,1.68-3.61,2.6-5.37,2.27-4.36,4.61-8.87,4.19-13.78-.5-5.85-3-11.32-5.12-16.14-.86-1.92-1.67-3.72-2.33-5.46a5.09,5.09,0,0,0-4.75-3.28H753.46l-17-17a5,5,0,0,0-3.59-1.49,69.74,69.74,0,0,0-7.62.56c-4.27.46-9.12,1-11.31-.37-12.38-7.69-20.58-1.35-26.57,3.28-.78.6-1.56,1.21-2.35,1.79a39.3,39.3,0,0,0-5.84,5.52c-9.64,1.43-17.07-1.36-23.88-8.94a5.06,5.06,0,0,0-3.77-1.68H636.07a5.07,5.07,0,0,0-3.09,1l-17.72,13.56h-11.6l-8.06-10.61a5.07,5.07,0,0,0-6.31-1.46l-17.49,8.75-8.29-10a5.12,5.12,0,0,0-4.15-1.82c-13,.65-27.16,3.61-33.62,20.72-1,2.55-2.87,5.08-4.88,7.77-.35.46-.7.92-1.05,1.4-2-.53-3.83-1-5.63-1.51s-3.67-1.08-5.89-1.76l-2.28-.7c-15.77-16.84-38.18-18.55-56.05-18.12a5,5,0,0,0-2.87,1l-28.61,20.91c-12.63-.65-21.41,7.79-27.56,14.36H373.4l-2.87-8.78c5.33-3.76,11.82-5.45,18.64-7.22,2.81-.73,5.72-1.49,8.56-2.4,6.55-2.12,11.51-6,16.31-9.69s9.12-7.08,15.11-9.17c1.64,0,3.43,0,5.33,0,6,.09,13.39.19,20.71-.23,6.19-.36,13.18-1.07,17.86-5,13.9-11.59,22.81-24.62,26.49-38.71a5.09,5.09,0,0,0-1.35-4.89l-15.72-15.55a5.06,5.06,0,0,0-5.6-1,10.49,10.49,0,0,1-3.54.15c-3.49-.16-8.79-.41-13.92,3.82-4.15,3.43-10.25,4.55-16.6,3.12-9.88-15.06-21.22-13-39.2-3.13-31.72-5.19-58,5.13-76.06,29.9a5.11,5.11,0,0,0-1,3v13.31a5,5,0,0,0,.93,2.92l13,18.4c-4.52,5.61-11.1,6-21.47,6l-3.74,0a5.08,5.08,0,0,0-4.88,4.06l-2.83,13.93h-.38c-3.42-16.88-8.45-34-22.38-46.37a5.06,5.06,0,0,0-2.92-1.27c-13.26-1.19-23.88,4-32.41,16-7.13,10-13.13,18-18.9,25.19-2.43,3-5,5.9-7.81,8.94-4.64,5.08-9.43,10.32-13.19,16.37-6.2,10-13.46,19-21.14,28.5-8.47,10.5-17.23,21.36-24.6,33.77a5,5,0,0,0-.71,2.59v19.07c-1.11.57-2.24,1.13-3.42,1.71-5.19,2.57-10.55,5.23-15.31,9.07s-8.9,8.9-12.44,13.26c-1.47,1.82-2.86,3.53-4.24,5.1a5.07,5.07,0,0,0-1.27,3.36c0,1.1,0,2,0,2.87a42.07,42.07,0,0,0,.07,4.41c.89,10.87-1.81,19.35-8.76,27.5-5.33,6.24-9.27,13.49-13.08,20.49-2.25,4.15-4.58,8.44-7.12,12.34a74.72,74.72,0,0,1-8.19,9.77q-1.48,1.59-3,3.25H71.88a5.05,5.05,0,0,0-5,5.83L72.26,1389a5.06,5.06,0,0,0,1.43,2.83,34.76,34.76,0,0,0,3.09,3c7.6,6.42,15.66,12.4,23.46,18.18,10.89,8.08,22.15,16.43,32,25.94a83,83,0,0,0,12.75,9.49,85.91,85.91,0,0,1,10,7.19c3.66,3.2,7.57,6.15,11.36,9,10.64,8,20.71,15.6,26.5,29a25,25,0,0,0,.2,4.44c1.34,10.82-2.15,19.55-11,27.49A79.29,79.29,0,0,0,172,1537.25c-1.27,1.68-2.48,3.27-3.7,4.77a5,5,0,0,0-1.15,3.21v6.18c-.12,18.4-.47,18.53-18.83,25.28-.82.3-1.68.58-2.56.86-5.24,1.69-13.16,4.23-15.47,13.42a5.08,5.08,0,0,0,.35,3.43l11.13,23.22-1.58,1.19c-3.11,2.35-5.81,4.38-8.59,6.29-15.22,10.44-23,25.78-23.7,46.88a5.08,5.08,0,0,0,4.24,5.17l32.8,5.5v13c0,14.7,0,28.94,0,43.18,0,4.66-.21,8.57-2.64,12.84-3.25,5.73-5,12.18-6.57,17.88-.56,2-1.09,4-1.65,5.76-1.42,2-2.82,4-4.19,6-3.49,4.92-6.78,9.57-10,14.41a161.4,161.4,0,0,0-9.93,16.9c-5.11,10.36-10.4,21.08-18.73,29.33a5.11,5.11,0,0,0-1.5,3.6c0,7.81-5.26,13.42-10.83,19.37L77.83,1866c-8.34,9-14.42,18.8-20.29,28.34-2.29,3.7-4.44,7.2-6.66,10.52a5.07,5.07,0,0,0-.7,4.06c4.28,16.9,12.08,31.81,24.49,46.69-4.85,16.81-10.27,31.38-23.16,40.57a5.08,5.08,0,0,0-2.12,4.13v10.49a5.07,5.07,0,0,0,1.38,3.49c10.07,10.66,22.28,14.64,33,18.15a119,119,0,0,1,13.72,5.09c9.18,26.31-3.13,46.49-17.89,64.4a5.11,5.11,0,0,0-1.14,2.74c-2.05,21.11,3.89,40,18.15,57.8a14.76,14.76,0,0,1,1.83,4,25,25,0,0,0,3.11,6.53c4.69,6.46,3.78,11.89-3.48,20.75a55.58,55.58,0,0,1-7.64,7.09c-1.46,1.21-3,2.45-4.49,3.81a5,5,0,0,0-1.57,4.94l8.65,37.11c-7.25,9.17-16.49,13.43-26.24,17.92-3.74,1.73-7.61,3.51-11.27,5.57a5.07,5.07,0,0,0-2.59,4.42v17.27a5.08,5.08,0,0,0,1.82,3.89l8.49,7.09v25.77c-7.91,14.65-15.4,28.47-28.9,36.86-2.71,1.68-4,4.42-5,6.63a11.63,11.63,0,0,1-1.41,2.57c-6.24,5.88-5.68,12.9-5.28,18,.2,2.63.4,5.12-.21,7.17a5.06,5.06,0,0,0,1,4.67l18.12,21.86-.82,1.74a67.48,67.48,0,0,1-5.11,9.52c-3.5,5.06-7.25,10.13-10.88,15-6,8.12-12.22,16.52-17.65,25.34-4.36,7.1-9.71,17.71-5.74,27.8C4.6,2514,9.84,2523.83,22,2527.47a169.8,169.8,0,0,1,19.53,7.7c2.32,1,4.69,2.07,7.16,3.12v62.49c0,.89-.11,1.95-.23,3.08-.34,3.31-.74,7.07,1.19,10.4,2.29,4,3.18,8.55,4.13,13.39a62.7,62.7,0,0,0,3.36,12.46,109.45,109.45,0,0,0,6.63,12.64,99.92,99.92,0,0,1,6.12,11.66c7.83,18.94,16.71,40.41,15.87,63.33a99.15,99.15,0,0,1-2.55,16.86c-.22,1-.43,2.05-.64,3.08-3.57,17.5-8,32.76-18.21,50.28a5.1,5.1,0,0,0-.69,2.47c0,2.13-.09,4.26-.15,6.4-.39,13.7-.8,27.87,6,42.64a5.06,5.06,0,0,0,1.83,2.14c13.28,8.71,29,12.24,44.19,15.65,3.38.76,6.76,1.52,10.09,2.33,4.5,1.1,9.17,1.77,13.7,2.41s9.06,1.3,13.45,2.36L158,2886a5.08,5.08,0,0,0,4.62,3,13.56,13.56,0,0,0,1.49-.09c4.27,4.29,8.43,8.63,12.81,13.19l4,4.16a5.1,5.1,0,0,0,4.11,1.53c9.31-.84,18.84-.48,28.06-.14,14.55.55,28.34,1.06,41.44-2.68l11.21,11.17c-4.65,15.62-17.23,27.41-30.52,39.85a5.1,5.1,0,0,0-1.6,3.94c.36,7.71.69,15-4.44,21.35s-2.31,14.46-.43,19.82c4,11.45,11.88,19.38,19.5,27,1.56,1.58,3.16,3.19,4.73,4.84v75.51a5.09,5.09,0,0,0,2.88,4.58l4.37,2.1c36,17.31,70,33.66,105.49,48.54,4,1.67,7.8,3.64,11.84,5.72,6.72,3.47,13.66,7,21.58,9.23,5.4,1.49,10.51,4.16,15.92,7a105.13,105.13,0,0,0,16.71,7.51c9.07,2.89,17.57,7.37,26.58,12.11,5.74,3,11.68,6.16,17.78,8.83,8.83,3.87,17.94,7.35,26.74,10.72,6.93,2.64,14.08,5.38,21,8.26,4.15,1.74,8.15,3.77,12.38,5.93,6.08,3.1,12.36,6.3,19.08,8.48,12.38,4,24.68,9.09,36.58,14,10.37,4.27,21.1,8.68,32,12.45,8.13,2.83,16.31,6.17,24.23,9.41,7.65,3.12,15.56,6.35,23.55,9.18,15.78,5.58,29.77,11,42.75,16.51,12.15,5.18,24.68,9.77,36.8,14.21,11,4,22.46,8.23,33.47,12.81,15.76,6.58,32.26,11.83,48.22,16.9,7.16,2.28,14.57,4.64,21.79,7.08,30.91,10.44,57.88,19.79,82.44,28.58,23.51,8.41,47.07,15.79,67,21.9l7.87,2.4c14,4.27,28.54,8.68,42.48,13.81a10,10,0,0,1,1,.57,11.17,11.17,0,0,0,4.89,1.91c9.13.89,19.61,2.44,28,7.21,6.52,3.71,13.23,5.3,19.72,6.83a104.64,104.64,0,0,1,10.58,2.89,551.76,551.76,0,0,0,53,16.14c11.11,2.7,22.29,6,33.1,9.24,9.2,2.74,18.72,5.56,28.22,8,5.84,1.52,11.81,3.39,17.59,5.21,7.75,2.43,15.75,4.94,23.76,6.69,8.86,1.95,17.8,4.46,26.44,6.89,7.74,2.18,15.74,4.43,23.77,6.3,8.25,1.92,16.7,4.38,24.87,6.75,7,2,14.24,4.14,21.39,5.92,6.29,1.57,12.7,3.38,18.89,5.13,15.57,4.39,31.66,8.93,48.38,10.43,7.4,4.46,15.39,6,23.13,7.44a97.69,97.69,0,0,1,13.13,3.12c6.6,2.25,13.48,3.35,20.14,4.43a121.22,121.22,0,0,1,17.39,3.65c8.69,2.75,17.57,4.66,26.17,6.52,4.75,1,9.68,2.09,14.44,3.27,4,1,8.07,2.05,12.11,3.1,13.29,3.47,27,7.06,40.92,8.73a111.5,111.5,0,0,1,16.88,3.87c8.8,2.49,17.89,5.08,27.81,4.47,14.42,5.41,29.45,8,44,10.51,7.18,1.24,14.6,2.52,21.76,4.11a74.32,74.32,0,0,0,9.38,1.27c4.48.41,8.71.79,11.24,2.31,5.22,3.12,10.44,3.41,15.05,3.67,4,.22,7.38.41,10.45,2.28,5.21,3.16,11.35,3.54,17.28,3.9a51.15,51.15,0,0,1,9.85,1.2,75.39,75.39,0,0,0,13.17,1.91c4.58.39,8.91.75,12.39,2.06,10.55,4,21.34,5.49,31.77,7,6.34.91,12.33,1.76,18.31,3.12a480.73,480.73,0,0,0,52.8,8.78c2.18.24,4.42.41,6.6.57,5.73.44,11.66.88,16.22,2.74a47.66,47.66,0,0,0,12.81,2.9c1.22.16,2.45.31,3.7.51,2.48.39,5,1,7.57,1.61a96.15,96.15,0,0,0,9.53,2c4,.54,8,.83,11.94,1.11,7.35.54,14.29,1,20.65,3s12.48,2.67,18.34,3.29l1.63.18a85.73,85.73,0,0,1,9,1.67,95.07,95.07,0,0,0,9.75,1.82c4.59.53,9.25.79,13.76,1,8.64.47,16.8.92,24.35,3.18,4.88,1.46,9.79,1.64,14.11,1.8s8.34.31,11.55,1.66c7.31,3.07,14.1,3.16,20.66,3.24,2.54,0,4.94.07,7.34.27a11.16,11.16,0,0,0,2.13-.06c5.57,3.86,11.64,3.78,16.62,3.73a46.29,46.29,0,0,1,5.48.14c3.08.33,6.15,1,9.4,1.62a102.1,102.1,0,0,0,11.39,1.88c12.79,1.14,25.79,2,38.37,2.85q6.91.47,13.84,1a11.39,11.39,0,0,0,2.17-.08,27.34,27.34,0,0,0,15.44,4.11c2.19,0,4.33-.15,6.39-.29a39.15,39.15,0,0,1,9.78.1,5.08,5.08,0,0,0,5.86-3.62c.6-2.17,1.29-4.22,1.95-6.2,1.47-4.38,2.86-8.52,3.05-13,.2-5,.29-10,.38-14.86.25-13.87.49-27,3.07-40.27,1.53-7.92,1.6-15.91,1.67-23.63s.13-15.43,1.63-23c1.87-9.4,2-19,2.07-28.34.09-9.08.19-18.47,2-27.42,1.65-8.35,1.73-16.81,1.79-25,.07-7.77.14-15.81,1.6-23.55,1.82-9.61,2-19.46,2.18-29,.16-8.87.33-18,1.84-26.85,1.57-9.1,1.56-18.28,1.55-27.17,0-9.42,0-19.17,1.91-28.55,1.85-9,2.07-18.28,2.29-27.24.18-7.67.37-15.6,1.6-23.2,1.53-9.45,1.42-19,1.31-28.24-.13-11.34-.25-22.06,2.37-32.76,1.77-7.2,1.94-14.57,2.12-21.69a113.77,113.77,0,0,1,1.36-17.79c1.64-8.84,1.86-17.87,2.08-26.6.2-8.43.42-17.14,1.93-25.49,1.55-8.6,1.57-17.26,1.58-25.64,0-8.72,0-17.74,1.83-26.43,1.91-9.22,2-18.67,2.07-27.8.07-8.67.15-17.63,1.82-26.18,1.83-9.35,2-18.89,2.22-28.11a196.26,196.26,0,0,1,1.32-22.45c2.77-20.18,3.25-40.87,3.71-60.88.19-8.19.38-16.65.73-24.93a27.33,27.33,0,0,0-.23-4.15,16.78,16.78,0,0,1-.17-2.74C2336,2879.55,2335.32,2870.86,2334.74,2863.19Zm-12.8,20c-1.81,2.94-1.45,6.27-1.16,8.94a19.41,19.41,0,0,1,.18,2.63c-.35,8.38-.55,16.89-.74,25.13-.45,19.72-.92,40.12-3.61,59.73a202.69,202.69,0,0,0-1.42,23.62c-.18,9.2-.36,17.89-2,26.37-1.86,9.48-1.94,18.92-2,28.05s-.14,17.58-1.85,25.82c-2,9.7-2,19.24-2.05,28.47,0,8.3,0,16.15-1.42,23.85-1.65,9.12-1.87,18.24-2.09,27.05s-.41,17-1.9,25a122.35,122.35,0,0,0-1.54,19.39c-.16,6.89-.32,13.39-1.82,19.52-2.93,11.95-2.8,23.82-2.66,35.3.1,9.21.2,17.91-1.18,26.51-1.34,8.28-1.54,16.56-1.74,24.57-.21,8.9-.41,17.31-2.08,25.44-2.13,10.4-2.12,20.67-2.11,30.6,0,8.85,0,17.2-1.41,25.44-1.64,9.56-1.82,19.13-2,28.39-.17,9.52-.34,18.52-2,27.29s-1.7,17.13-1.77,25.34c-.07,8.06-.13,15.68-1.6,23.1-2,9.88-2.06,19.74-2.16,29.28-.1,9.26-.19,18-1.87,26.48s-1.76,16.83-1.83,24.89c-.06,7.6-.13,14.77-1.49,21.78-2.74,14.16-3,28.32-3.24,42-.09,4.81-.18,9.78-.38,14.64-.12,3-1.24,6.33-2.52,10.17-.29.84-.57,1.7-.86,2.57a72.2,72.2,0,0,0-7.82.26c-6.15.42-11.47.79-16.33-2.71a6.77,6.77,0,0,0-4.06-1.22,14.67,14.67,0,0,0-1.69.12l-.51.07q-6.93-.5-13.87-1c-12.52-.84-25.47-1.71-38.15-2.84a90,90,0,0,1-10.26-1.71c-3.34-.68-6.79-1.39-10.33-1.77a56.46,56.46,0,0,0-6.7-.2c-5.17.06-8.45,0-11.36-2.4a7.46,7.46,0,0,0-6-1.3l-.47.07c-2.76-.24-5.45-.27-8.06-.3-5.85-.08-11.37-.15-16.86-2.45-4.92-2.07-10.1-2.26-15.1-2.45-4.08-.15-7.94-.29-11.58-1.38-8.7-2.61-17.86-3.11-26.71-3.6-4.35-.23-8.85-.48-13.14-1a87.24,87.24,0,0,1-8.72-1.64,91.83,91.83,0,0,0-10.16-1.86l-1.64-.18c-5.62-.59-10.93-1.16-16.37-2.87-7.49-2.36-15.36-2.93-23-3.49-3.75-.27-7.63-.55-11.31-1.05A84.41,84.41,0,0,1,1967,3632c-2.69-.65-5.48-1.32-8.36-1.77-1.35-.22-2.69-.39-4-.55a38.39,38.39,0,0,1-10.24-2.24c-6-2.46-12.78-3-19.3-3.45-2.17-.17-4.23-.32-6.23-.54a472.49,472.49,0,0,1-51.67-8.59c-6.38-1.45-12.86-2.38-19.12-3.28-10.36-1.47-20.13-2.87-29.65-6.44-4.8-1.79-10-2.23-15.1-2.66a66.15,66.15,0,0,1-11.42-1.61,59.91,59.91,0,0,0-11.83-1.52c-4.92-.3-9.57-.58-12.63-2.44-5.24-3.19-10.51-3.48-15.16-3.74-3.93-.22-7.33-.41-10.39-2.24-4.52-2.71-10.12-3.22-15.54-3.72a65.27,65.27,0,0,1-8.1-1.06c-7.4-1.65-14.94-2.95-22.23-4.21-14.42-2.49-29.33-5.06-43.13-10.39a5.14,5.14,0,0,0-2.26-.32c-8.54.73-16.72-1.58-25.38-4a120.62,120.62,0,0,0-18.43-4.18c-13.2-1.59-26.61-5.09-39.57-8.47-4.08-1.07-8.15-2.13-12.23-3.14-4.91-1.22-9.91-2.3-14.74-3.34-8.37-1.8-17-3.67-25.25-6.27a130.48,130.48,0,0,0-18.84-4c-6.53-1.05-12.69-2-18.49-4a106.64,106.64,0,0,0-14.5-3.48c-7.5-1.42-14.58-2.76-20.62-6.67a4.93,4.93,0,0,0-2.35-.8c-16.18-1.31-32.19-5.83-47.67-10.2-6.27-1.77-12.76-3.6-19.2-5.2-7-1.74-14.1-3.81-21-5.82-8.31-2.41-16.89-4.91-25.42-6.89-7.79-1.82-15.68-4-23.31-6.18-8.78-2.47-17.86-5-27-7-7.56-1.66-15.35-4.1-22.89-6.46-5.9-1.86-12-3.77-18.09-5.35-9.32-2.41-18.75-5.22-27.86-7.93-10.94-3.25-22.25-6.61-33.6-9.37a538.25,538.25,0,0,1-52.08-15.85,113.3,113.3,0,0,0-11.61-3.19c-6.07-1.43-11.79-2.79-17-5.78-10-5.67-21.63-7.47-31.77-8.46-.22-.11-.57-.33-.82-.48a15.83,15.83,0,0,0-2.81-1.45c-14.21-5.23-28.86-9.69-43-14l-7.85-2.39c-19.84-6.07-43.26-13.41-66.57-21.75-24.62-8.81-51.64-18.18-82.62-28.64-7.29-2.47-14.75-4.84-21.95-7.13-15.76-5-32-10.2-47.4-16.6-11.21-4.67-22.73-8.89-33.88-13-12-4.39-24.4-8.94-36.31-14C705.18,3294,691,3288.54,675,3282.89c-7.77-2.75-15.57-5.93-23.1-9-8-3.29-16.35-6.68-24.74-9.6-10.59-3.68-21.19-8-31.43-12.25-12.07-5-24.56-10.11-37.3-14.25-6-1.94-11.62-4.83-17.61-7.88-4.22-2.15-8.58-4.37-13.08-6.25-7.06-2.94-14.29-5.71-21.28-8.38-8.7-3.32-17.69-6.76-26.3-10.53-5.76-2.53-11.54-5.57-17.12-8.51-9-4.74-18.3-9.64-28.22-12.81a95.06,95.06,0,0,1-15.09-6.83c-5.65-3-11.49-6-17.94-7.78-6.89-1.9-13.07-5.09-19.62-8.46-4-2.09-8.21-4.24-12.57-6.07-35.26-14.77-69.14-31.07-105-48.32l-1.49-.73v-74.34a5.11,5.11,0,0,0-1.36-3.46c-2.11-2.26-4.25-4.42-6.33-6.51-7.13-7.18-13.87-14-17.12-23.25-1.56-4.44-2.73-8.26-1.25-10.09,6.87-8.5,7.09-17.9,6.79-25.85,14-13.11,28-26.84,32.47-46.05a5.07,5.07,0,0,0-1.36-4.74l-15.46-15.39a5.09,5.09,0,0,0-5.22-1.21c-12.21,4.18-26.1,3.66-40.82,3.11a248.71,248.71,0,0,0-26.9,0l-2.32-2.41c-4.87-5.08-9.47-9.87-14.29-14.67a6.14,6.14,0,0,0-4.14-1.74L161,2868a5,5,0,0,0-3.24-2.79,126.86,126.86,0,0,0-17-3.23c-4.48-.64-8.71-1.25-12.73-2.22-3.39-.83-6.83-1.6-10.27-2.38-14.44-3.24-28.11-6.31-39.61-13.45-5.15-12.16-4.81-24.13-4.45-36.79,0-1.74.1-3.48.13-5.21,10.4-18.24,15-34.1,18.72-52.2q.31-1.53.63-3a109.67,109.67,0,0,0,2.76-18.57c.92-25.13-8.41-47.68-16.64-67.57a106,106,0,0,0-6.72-12.89,101.45,101.45,0,0,1-6-11.46,54,54,0,0,1-2.76-10.49c-1.07-5.44-2.17-11.07-5.29-16.48-.28-.65,0-2.93.1-4.3a39.36,39.36,0,0,0,.29-4.14v-65.86a5.07,5.07,0,0,0-3.13-4.68c-3.53-1.46-6.86-2.93-10.09-4.35a175.43,175.43,0,0,0-20.72-8.14c-7.92-2.37-11.45-8.89-14.09-15.58-2.3-5.86,1.72-13.52,4.95-18.76,5.19-8.45,11.28-16.68,17.16-24.63,3.67-5,7.47-10.1,11.06-15.29a74.9,74.9,0,0,0,6-11c.71-1.51,1.42-3,2.16-4.45a5.07,5.07,0,0,0-.61-5.56L32.84,2400a36,36,0,0,0,0-8c-.38-4.94-.46-7.42,2.13-9.85a17.41,17.41,0,0,0,3.67-5.74,14.24,14.24,0,0,1,1.2-2.29c15.77-9.84,23.88-24.85,32.45-40.75l.53-1a5.07,5.07,0,0,0,.61-2.41v-29.42a5,5,0,0,0-1.82-3.89l-8.48-7.1v-11.86c2.53-1.3,5.19-2.53,7.95-3.8,10.6-4.88,22.61-10.42,31.61-23a5.07,5.07,0,0,0,.81-4.1L95,2210.32l1.93-1.6a64,64,0,0,0,9-8.5c4.43-5.41,14.8-18.07,3.83-33.14a17.09,17.09,0,0,1-1.74-4,23.11,23.11,0,0,0-3.48-7c-12.19-15.19-17.46-31.22-16.1-49,15.83-19.49,29.91-43.61,17.86-75.08a5.08,5.08,0,0,0-2.39-2.69,111.12,111.12,0,0,0-17-6.59c-10-3.26-19.43-6.34-27.44-14.08v-5.88c14.64-11.59,20.5-28.87,25.64-47.06a5.11,5.11,0,0,0-1-4.7c-11.82-13.71-19.35-27.27-23.55-42.51,1.87-2.87,3.69-5.82,5.59-8.91,5.62-9.11,11.43-18.53,19.08-26.75l1.07-1.14c5.67-6.06,12.65-13.5,13.49-24.15,8.7-9.16,14.06-20.06,19.26-30.6a154.28,154.28,0,0,1,9.32-15.83c3.07-4.68,6.32-9.26,9.75-14.11,1.53-2.16,3.08-4.36,4.67-6.63a5.1,5.1,0,0,0,.67-1.34c.72-2.24,1.37-4.62,2-6.93,1.47-5.37,3-10.92,5.61-15.54,3.64-6.39,3.95-12.31,4-17.83,0-14.25,0-28.5,0-43.21v-17.24a5.08,5.08,0,0,0-4.24-5l-32.53-5.45c1.43-15.54,7.53-26.55,19-34.44,3-2,5.87-4.23,9-6.55,1.52-1.14,3.13-2.35,4.87-3.64a5.06,5.06,0,0,0,1.55-6.27l-12-25.08c1.19-2.24,3.65-3.26,8.17-4.71,1-.33,2-.65,2.95-1,21.48-7.91,25.32-11.2,25.47-34.75,0-1.22,0-2.44,0-3.87V1547c1-1.2,1.89-2.44,2.8-3.65a72.3,72.3,0,0,1,8.83-10.29c11.37-10.21,16-22.08,14.28-36.28a18.26,18.26,0,0,1-.06-3.15,5.16,5.16,0,0,0,.06-.79,5,5,0,0,0-.43-2c-6.77-16.63-18.7-25.61-30.23-34.3-3.81-2.87-7.41-5.58-10.79-8.54a95.16,95.16,0,0,0-11.2-8.06,75,75,0,0,1-11.24-8.29c-10.35-10-21.87-18.51-33-26.78-7.67-5.68-15.6-11.56-23-17.78-.45-.38-.9-.81-1.27-1.19l-4.28-28.18H88.59a5.08,5.08,0,0,0,3.82-1.73c1.41-1.61,2.89-3.19,4.32-4.72a83.87,83.87,0,0,0,9.28-11.17c2.76-4.24,5.19-8.71,7.54-13,3.72-6.85,7.23-13.32,11.88-18.76,8.72-10.23,12.26-21.32,11.15-34.91-.08-.92-.06-2,0-3.41,0-.36,0-.74,0-1.14,1.1-1.3,2.2-2.65,3.26-4,3.38-4.17,6.88-8.48,10.93-11.76,3.89-3.14,8.75-5.54,13.44-7.87,2.13-1,4.34-2.14,6.43-3.29a5.06,5.06,0,0,0,2.63-4.45v-20.73c6.87-11.31,15.09-21.51,23.06-31.39,7.54-9.35,15.34-19,21.87-29.52,3.26-5.25,7.54-9.93,12.06-14.88,2.76-3,5.61-6.15,8.25-9.45,5.88-7.36,12-15.5,19.22-25.61,6.15-8.6,12.67-12.22,21.58-11.88,11.72,11.27,15.56,27.08,18.73,43.66a5.08,5.08,0,0,0,5,4.12h8.69a5.07,5.07,0,0,0,5-4.06l2.85-14c11.29-.08,24-.34,31.53-13.79a5.07,5.07,0,0,0-.28-5.4l-14-19.92v-10c16.12-21.22,38.6-29.39,66.87-24.28a5.07,5.07,0,0,0,3.39-.57c20.16-11.33,23.06-8.26,28.23.41a5.07,5.07,0,0,0,2.91,2.25c10.22,3.06,20.58,1.36,27.74-4.54,2-1.67,3.78-1.67,7-1.51a28.25,28.25,0,0,0,4.49-.05l11.56,11.44c-3.55,11-11.06,21.3-22.36,30.72-2.5,2.1-8.88,2.46-11.94,2.64-7,.4-13.88.31-20,.22-2.27,0-4.39-.06-6.29-.06a5.18,5.18,0,0,0-1.56.24c-8.07,2.61-13.85,7.1-18.95,11.06-4.49,3.48-8.35,6.48-13.21,8.05-2.56.83-5.2,1.51-8,2.24-8.76,2.28-17.82,4.63-25.4,11.53a5.07,5.07,0,0,0-1.41,5.33l5.1,15.61a5.07,5.07,0,0,0,4.82,3.5h23.42a5.1,5.1,0,0,0,3.73-1.64c7-7.57,13.52-13.76,22.43-12.62a5,5,0,0,0,3.63-.94l28.85-21.08c23.29-.34,37.54,4.44,47.62,15.82a5,5,0,0,0,2.33,1.5l3.59,1.09c2.3.71,4.19,1.28,6.1,1.82s3.88,1.06,6.06,1.62l3.15.83a5.08,5.08,0,0,0,5.51-2.09c.87-1.31,1.82-2.58,2.83-3.92,2.36-3.14,4.79-6.38,6.26-10.28,3.42-9,9.52-13,22.14-14l9.21,11a5.07,5.07,0,0,0,6.16,1.29l17.33-8.67,7,9.26a5.07,5.07,0,0,0,4,2H617a5.08,5.08,0,0,0,3.08-1l17.73-13.56h11.56c9.24,9.37,20.17,12.69,33.35,10.18a5.08,5.08,0,0,0,2.64-1.4c.35-.35.79-.83,1.3-1.4a30.1,30.1,0,0,1,4.38-4.23c.87-.64,1.72-1.3,2.56-2,6.14-4.74,8.87-6.51,15-2.69,5.15,3.2,11.85,2.47,17.76,1.83,1.57-.17,3.08-.33,4.49-.42l16.93,16.93a5.06,5.06,0,0,0,3.58,1.48h24.13c.4.92.82,1.84,1.22,2.74,1.93,4.29,3.92,8.73,4.27,12.86.17,2-1.41,5-3.08,8.23-.52,1-1,2-1.56,3-5.37,0-10.71.07-16,.11-16.27.14-31.65.28-47.22-.48-4.33-.21-9-2.35-13.55-4.41-2.17-1-4.42-2-6.62-2.82a5,5,0,0,0-4.39.43l-23.66,14.48h-11.2c-5.53-5.18-13.26-10.65-24.82-11.29a75.91,75.91,0,0,1-10.87-1.72c-6.36-1.32-12.93-2.69-20.09-1.63-4.28.64-8.45,1.37-11.51,1.9l-2.57.44a5.11,5.11,0,0,0-2.89,1.57l-23.66,25.63c-2-.06-3.92,0-5.83,0-9.22.12-16.51.21-23.06-8.56a5.07,5.07,0,0,0-2.81-1.88l-11.54-3a5,5,0,0,0-1.76-.14c-6.82.67-10.17,6.1-12.86,10.47-1.65,2.66-3.22,5.2-5.35,6.74H453.79a5.08,5.08,0,0,0-4.88,6.46c1.66,5.84-.64,11.12-3.29,17.24S440,1213,441,1221a5.08,5.08,0,0,0,3.4,4.21c1.51.52,3,1.12,4.64,1.75a50.87,50.87,0,0,0,12.42,3.73c3.76.48,4.69,1.07,5.92,6.26,1.11,4.69,2.88,9.74,7.55,11.72,4.82,2,10.18-.15,17.27-4.35a5.09,5.09,0,0,0,2.42-3.59c.22-1.4.37-2.84.52-4.23a37,37,0,0,1,1.47-8.19l.18-.52c2.87-8.07,5.13-14.44,13.25-17.35,5.43-2,9.61-6,13.3-9.63,1-1,2-2,3-2.83,9-1.42,16.69,1.71,25.52,5.31,1.61.65,3.24,1.32,4.91,2a5.08,5.08,0,0,0,5-.75l22.57-17.9,2,.57c4.33,1.22,9.72,2.74,15.29,2.74h0c5.36,0,10.46-1.39,15.39-2.73l1.64-.45c.63,3.45-.62,6.55-3,10.62-2,3.29-3.92,6.56-6.23,10.37l-3.52,5.84a5.08,5.08,0,0,0,2.91,7.48c1.41.42,2.59.73,3.6,1a17.78,17.78,0,0,1,3.15,1,9.81,9.81,0,0,1,1.6,1.47c.44.46.88.91,1.33,1.32a5.07,5.07,0,0,0,4.56,1.22c15.54-3.53,28.89-11.28,41.8-18.76,5.38-3.12,10.94-6.35,16.5-9.16,11.35-5.75,21.19-9.49,32.49-9.09,4.27.15,8.23-1,12.06-2.21l1.94-.58,1.26,1.18a5.1,5.1,0,0,0,4.38,1.28c1.88-.35,3.73-.63,5.55-.9a72.47,72.47,0,0,0,12.66-2.67c1.92-.65,3.89-.21,6.93.57,3.33.86,7.48,1.92,12.23.7,3.79-1,9.08.5,14.21,1.92,1.2.34,2.39.67,3.56,1a13.61,13.61,0,0,1,3.76,2.49l-14.94,21a5.07,5.07,0,0,0,3.27,7.94,34.74,34.74,0,0,1,3.45.86c3.12.89,6.66,1.9,9.92.17,5.13-2.72,10.68-4.53,16.56-6.44,7.89-2.57,16-5.23,23.44-10.32a14.05,14.05,0,0,1,3.8-1c1.29-.24,2.75-.5,4.37-.92a5.08,5.08,0,0,0,3.19-2.48c1.16-2.12,3.72-3.83,6.69-5.81,3.55-2.38,7.5-5,10.39-9.24.22,0,.44,0,.63,0h.71a73.88,73.88,0,0,1,5.42,5.19c5.85,6,13.09,13.34,25.26,13.34h.6a5.08,5.08,0,0,0,2.9-1c12.76-9.33,17.73-21.24,15.18-36.41a5,5,0,0,0-1.05-2.35,80.91,80.91,0,0,1-10.63-18.62c-2.55-5.92-2.33-9.94,1-15.88l6.14-3.1c5,2,8,4.17,9.39,8.31-1.42,19,.32,38.12,2,56.61,1.65,18.11,3.36,36.84,2,55.18-.17,2.42-.12,4.77-.07,6.66,0,.17,0,.34,0,.5-1.26,2.16-2.43,4.29-3.57,6.36-3.5,6.37-6.81,12.39-11.65,17.29s-6,13.07-6.72,21a178.25,178.25,0,0,0-.35,20c.05,2.71.11,5.42.11,8.12a5.1,5.1,0,0,0,1,3c1.17,1.58,2.39,3.1,3.57,4.58a66,66,0,0,1,6.52,9.13l1,1.79c6.46,11.75,12.57,22.84,14.67,36.27,2,12.77,9.29,23.68,19.5,29.18a5.11,5.11,0,0,0,2.05.6c13,.91,16.61-6.29,17.29-12.5.65-6,4.19-11,7.94-16.25,3.16-4.44,6.43-9,8.38-14.68.68-2,3.7-4.38,8.92-5.29,6.29-1.09,11.81-4.37,16.67-7.27,1.8-1.07,3.5-2.08,5-2.86a5.11,5.11,0,0,0,2.24-2.24c3.5-6.9,4.75-14.07,6-21,1.72-9.87,3.23-18.48,10.71-25.43l26.7,4a5.07,5.07,0,0,0,4.87-2l9-12.44a17.32,17.32,0,0,1,2.35,2.59,23.2,23.2,0,0,1,2,4.54c.36,1,.75,2,1.22,3.18v10c-18.31,8.17-32.35,22.78-40.76,42.43a5.09,5.09,0,0,0,1.35,5.84l19.46,16.76c-2.36,6.78-4.77,8.56-9.88,8a5,5,0,0,0-4,1.33c-2.53,2.34-5.92,4.06-9.51,5.89-7.28,3.71-16.34,8.33-19,20a5.17,5.17,0,0,0-.12,1.11v17.5a5.08,5.08,0,0,0,3.18,4.71c16.6,6.63,31.27,13,42.89,24a5.08,5.08,0,0,0,5.11,1.12c14.76-5,23.87-16.42,31.18-25.59,6.64-8.32,15.13-15.39,27.52-22.92,13.22-8,27-9.07,40.87-3.07,23,9.94,42.85,24.54,60.62,44.63,9,10.18,24.45,39,29,54.12.83,2.77,1.85,5.41,2.94,8.21.23.6.47,1.22.71,1.86-1.19,2-2.43,3.95-3.64,5.88-3.84,6.11-7.81,12.43-10.73,19.31-4,9.27-9,18.27-13.8,27-2.76,5-5.62,10.11-8.28,15.29-4.36,8.49-8.4,17.26-12.29,25.75-2.44,5.31-5,10.8-7.53,16.13-7,14.62-13.94,28.91-21.14,42.9-4.79,9.31-9.89,18.68-14.82,27.74q-3.55,6.53-7.08,13.05c-9.8,18.22-19.59,36.44-29.56,55l-11.6,21.6a5.06,5.06,0,0,0,.66,5.75c12,13.59,20.93,29.2,30.43,45.72,4.37,7.61,8.9,15.48,13.71,23.06,5.91,9.32,11.77,18.92,17.43,28.21q4.88,8,9.78,16,7.28,11.76,14.58,23.51,6.87,11.05,13.72,22.13,21.86,35.34,43.64,70.73,7.29,11.84,14.55,23.7,10.38,16.92,20.8,33.82,7.89,12.77,15.85,25.47c6.83,10.92,13.88,22.22,20.73,33.38,6,9.7,11.94,19.61,17.72,29.2,5.33,8.86,10.85,18,16.35,27,7.71,12.6,15.61,25.37,23.26,37.71q9.3,15,18.57,30.09,7.55,12.26,15,24.57c6.3,10.35,12.81,21,19.3,31.53,5.86,9.47,11.87,19.05,17.68,28.31,6.57,10.46,13.37,21.28,20,32,6.07,9.85,12.14,19.93,18,29.68,5.24,8.69,10.66,17.68,16.06,26.49,4.16,6.78,8.42,13.39,12.94,20.39,2.06,3.2,4.16,6.46,6.31,9.82a5,5,0,0,0,4.79,2.31c7.85-.8,15.92.5,24.45,1.87,9.18,1.48,18.66,3,28.57,2,6.2,3.36,12.74,3.29,18.55,3.22,4.35,0,8.46-.1,11.85,1.29,6.76,2.76,13.54,2.41,19.52,2.1,4.71-.24,9.15-.48,12.91.82,7.83,2.7,15.24,3,23.08,3.27,2.28.09,4.62.17,7,.33l10.84,17.13c9.35,14.75,18.84,29.73,28.28,44.73,5.67,9,11.72,17.88,17.57,26.48,7.91,11.61,16.09,23.61,23.32,35.91,5.7,9.7,12.33,19,18.75,27.92,8.3,11.58,16.88,23.56,23.61,36.69a5,5,0,0,0,2.11,2.15c10.29,5.54,21.8,8.82,32.93,12a239.54,239.54,0,0,1,23.13,7.46,6,6,0,0,0,2.46.42c14,7.26,29.06,11.68,43.61,16,11,3.25,22.45,6.62,33,11.15,14.7,6.28,30,11.43,44.72,16.42,13.41,4.52,27.27,9.21,40.53,14.69,12.28,5.07,25.15,9.11,37.6,13,9.6,3,19.53,6.14,29,9.69,14.59,5.45,27.77,10.23,40.29,14.62,13.33,4.67,26.85,9.52,40.2,14.41,15.66,5.75,31.87,11,47.53,16l9.55,3.08c11.6,3.76,23.3,8,34.61,12.1,11.91,4.32,24.22,8.78,36.54,12.73,4.48,1.44,9.07,2.74,13.93,4.12l3.7,1.06c-.06,2.82.15,5.62.36,8.35C2325.14,2870.75,2325.63,2877.17,2321.94,2883.16Z"/><path d="M1771.36,1637.69h18.87a5.08,5.08,0,0,0,2.29-.55c4.3-2.18,8.58-4.07,12.73-5.9,7-3.08,13.58-6,19.9-10,1.83-1.17,4.65-1.88,6.16-1.54a317.65,317.65,0,0,1,34.38,9.23c20.71,7.14,41.74,14.75,62.07,22.11q12.49,4.52,25,9a5.06,5.06,0,0,0,5.84-1.83c.38-.52.95-1.16,1.56-1.83,1.9-2.1,4.27-4.72,4.3-8.3,0-7,2.39-13.65,4.87-20.64a105.62,105.62,0,0,0,4.58-15.35,277.43,277.43,0,0,1,7.47-27.87c1.81-5.93,3.68-12.07,5.28-18.21,4.73-18.23,9.36-35,14.13-51.32,2.7-9.23,5.15-18.66,7.51-27.78,2.45-9.46,5-19.24,7.8-28.74,2.92-9.88,5.31-20,7.62-29.85,2.61-11.13,5.31-22.63,8.78-33.59,4.8-15.17,8.6-30.76,12.28-45.83,2.76-11.32,5.61-23,8.85-34.37,1.55-5.45,2.78-11,4-16.38,2.39-10.84,4.65-21.08,9.42-30.71a69.48,69.48,0,0,0,4.67-14.16,61.8,61.8,0,0,1,3.81-11.93c2.76-5.71,3.6-11.47,4.42-17a66,66,0,0,1,2.11-10.56,100.91,100.91,0,0,0,4.68-25.42c.82-19.83,6.22-35.89,16.49-49.1a30.18,30.18,0,0,0,4.26-8.72c.4-1.14.78-2.21,1.2-3.17a5.09,5.09,0,0,0,.27-3.22c-.42-1.73-.92-3.4-1.4-5a39.61,39.61,0,0,1-2-9.23l-.06-1.6c-.27-7.58-.57-16.17-7.73-22.78a5.1,5.1,0,0,0-3.44-1.34H2061a5.09,5.09,0,0,0-4.64,3,5,5,0,0,0-.4,1.51l-4.17,1.41a5.07,5.07,0,0,0-2.41,7.87c1.95,2.57,3.7,4.9,5.33,7.06,3.33,4.43,6.21,8.26,9.17,12,3.33,4.18,6.74,8.24,10,12.17l2.11,2.52c-9.08,20.92-18.92,33.75-31.39,40.87l-7.06-7.07a5.1,5.1,0,0,0-5.29-1.19c-6.54,2.33-9.84,7.82-12.76,12.66-3.28,5.46-5.55,8.86-10.33,9.73l-27.52,2.86-1.9-1.08.94-1.69c1.79-3.24,3.49-6.31,5.22-7.25a36.3,36.3,0,0,0,8.69-7.18,28.45,28.45,0,0,1,6.13-5.26c5.46-3,9.77-7.65,13.57-11.72,1.48-1.58,2.88-3.08,4.24-4.38a5,5,0,0,0,1.58-3.67v-38.79a5.08,5.08,0,0,0-1.81-3.88l-71.28-59.9a5.1,5.1,0,0,0-3.27-1.19h-27.62a5.06,5.06,0,0,0-4.28,2.36c-.69,1.07-1.55,2.18-2.46,3.36-2.34,3-5,6.43-5.52,10.67a126.54,126.54,0,0,0-.47,19.37c0,1,0,1.86.07,2.69L1892,1095.22c-9.28-1.25-17.32-2.75-23.69-10.39a5.09,5.09,0,0,0-4.63-1.78l-16.87,2.47a70.36,70.36,0,0,1,14.43-8.36c9.49-4.3,15.34-9.24,17.4-14.66.94-2.46,2.93-4.25,5-6.14,2.4-2.15,5.13-4.6,6.33-8.29a4.87,4.87,0,0,0,.25-1.57V964.59a5.07,5.07,0,0,0-1.48-3.59l-4.33-4.33a5,5,0,0,0-3.09-1.46c-25.26-2.51-50.59-.67-75.08,1.11-9,.65-18.21,1.32-27.29,1.77h-.13a7.14,7.14,0,0,0-3.42.38c-9.1,3.51-18.86,6-28.3,8.51-15.43,4-31.38,8.16-45.89,16.76-7.17.51-13.08,3.8-18.33,6.71a50,50,0,0,1-10.14,4.72c-11.1,3.17-21,8.52-30.64,13.69-4.41,2.38-9,4.83-13.5,7a62.24,62.24,0,0,0-21,17.05l-.35.44c-5.23,6.58-13.85,17.41-4.5,29.49a28.81,28.81,0,0,0,2.11,9c1.61,4.55,2.48,7.46.66,11.1-7.53,4.25-16.89,6.9-26.77,9.71-2.65.75-5.31,1.51-8,2.3a66.34,66.34,0,0,0-12.11,4.63c-13.06,6.75-21.38,17.54-29.43,28-3.11,4-6,7.85-9.27,11.46-3.58,4-4.62,9.45-5.54,14.24-.34,1.76-.67,3.43-1.07,4.79a5.08,5.08,0,0,0,.77,4.48c4,5.44,9,9,13.92,12.44,6.56,4.64,12.22,8.64,13.94,16.52a5.07,5.07,0,0,0,6.39,3.78l18.67-5.52a5.09,5.09,0,0,0,3.11-2.6l2.29-4.6c2,1,4,1.92,6,2.81,6.65,3,12.52,5.73,16.75,11.19-4.6,4.83-11.32,7.09-18.4,9.13-8.31,2.39-13.57,6.62-17.58,14.13-1.7,3.19-3.26,6.33-4.77,9.37l-1.8,3.59a5.09,5.09,0,0,0,.69,5.6l8.1,9.37a5.08,5.08,0,0,0,3.84,1.76c4.6,0,9.13,0,13.61-.1,10.16-.1,19.75-.2,29.42.23,9.21.4,18.62,1.35,27.72,2.27,4.36.44,8.71.88,13.06,1.26a10.52,10.52,0,0,0,2.05,0c5.46,4.15,11.47,3.92,16.38,3.73a34.61,34.61,0,0,1,5.71.07c4.36.58,8.84,1.43,13.16,2.25,2.44.46,4.88.92,7.32,1.34,4.8.83,9.61,1.63,14,2.36l2.6.43,2.76,6.43L1691.89,1291h-11.1l-3-4.55a5.1,5.1,0,0,0-4.25-2.3H1560.32a5.07,5.07,0,0,0-5.07,4.77l-.35,5.91-3.06,0c-5.46-.09-10.6-.18-15.8.2a27.4,27.4,0,0,0-21.47,12.44,25.55,25.55,0,0,0-2.21,23,28.27,28.27,0,0,1,1.34,5.77c.19,1.18.39,2.4.67,3.69,4.87,22,18,39,40.05,52.09a5.06,5.06,0,0,0,3.34.64c3.6-.54,6,1.31,9.92,4.62a33.73,33.73,0,0,0,8.82,5.9c3.5,1.41,6.76,4.3,10.22,7.36,1.77,1.56,3.6,3.18,5.54,4.67,19.19,14.69,41.7,26.08,68.83,34.81.69.22,1.48.57,2.31.93a19.06,19.06,0,0,0,7.2,2l2,0c11,.28,22.35.58,33.59-.08,7.3-.43,14.42.7,22,1.9,4.14.65,8.43,1.33,12.77,1.73a195.08,195.08,0,0,0,22.38.37c2.44-.06,5-.11,7.42-.14l15.39,15.33c12.94,12.87,26.31,26.17,39.27,39.42,4.85,5,9.89,9.86,14.77,14.59,12.53,12.18,25.48,24.75,35.83,39.11l-5.14,6.94H1845c-10.44-12.7-24.58-14.79-37.43-14.69-.92-.58-1.84-1.12-2.74-1.65-2.54-1.49-4.94-2.9-6.46-4.61-5.2-5.84-11.62-8.73-17.83-11.52-4.07-1.83-7.91-3.55-11.12-6a5.18,5.18,0,0,0-2.7-1c-18.24-1.39-33.21-10.61-49.06-20.38l-.85-.53c-19.78-12.17-43.32-16.77-65.81-19.93l-7-1c-17.94-2.58-36.49-5.26-55.43-3.76a147.72,147.72,0,0,0-35.38,7.21l-1,.34c-14.58,4.85-29.65,9.86-45.12,7.62a32.85,32.85,0,0,0-6-.15c-.72,0-1.44,0-2.15,0a5,5,0,0,0-3.2,1.14c-10.41,8.45-15.48,20.2-14.67,34,.54,9.21,1.63,18.14,2.78,27.59.49,4,1,8.1,1.44,12.22a5.11,5.11,0,0,0,.72,2.1c12.12,19.8,19.15,23.26,39.58,19.48a5.07,5.07,0,0,0,3.69-7.1l-11.93-26v-40.18c2.26-2.45,4.76-2.36,9.19-2,1.26.11,2.56.22,3.87.22,3.22,1.75,6.38,3.62,9.45,5.43,8.22,4.85,16,9.43,24.77,12.06a130.48,130.48,0,0,1,14.34,5.59,131.77,131.77,0,0,0,16.07,6.16c6.5,1.87,13.08,4.07,19.44,6.19,3.8,1.27,7.6,2.54,11.42,3.75,22.06,7,43.95,13.56,62.46,19l4.83,1.43c17.43,5.17,35.44,10.51,53.85,13.69,3,3.7,7.47,3.83,10,3.91a15.55,15.55,0,0,1,2.17.17,42,42,0,0,1,4.92,6.93c.67,1.08,1.36,2.19,2.11,3.34v21.33A5.07,5.07,0,0,0,1771.36,1637.69Zm-14-47a10.25,10.25,0,0,1-2.53-.24,1.57,1.57,0,0,1-.18-.3,5,5,0,0,0-3.79-2.87c-18.55-3-37-8.48-54.82-13.77l-4.85-1.44c-18.45-5.45-40.28-12-62.25-19-3.78-1.2-7.53-2.46-11.29-3.71-6.46-2.16-13.14-4.39-19.84-6.32a123.93,123.93,0,0,1-14.83-5.71,135.93,135.93,0,0,0-15.48-6c-7.59-2.28-14.85-6.56-22.53-11.09-3.54-2.09-7.19-4.24-11-6.28a5.14,5.14,0,0,0-2.77-.58,26.51,26.51,0,0,1-3.83-.16c-5.29-.45-13.29-1.13-19.28,7.43a5.05,5.05,0,0,0-.92,2.91v43.05a5,5,0,0,0,.47,2.12l9.59,20.88c-10.45,1.15-14-1.86-22-14.85-.42-3.78-.88-7.51-1.33-11.21-1.13-9.29-2.2-18.06-2.73-27-.58-10,2.67-18.16,9.66-24.43l.63,0a25.15,25.15,0,0,1,4.12.06c17.84,2.59,34.08-2.81,49.78-8l1-.33a137.3,137.3,0,0,1,33-6.72c17.81-1.42,35.78,1.18,53.18,3.68,2.33.34,4.66.68,7,1,21.4,3,43.71,7.32,61.9,18.52l.85.53c16.52,10.18,32.16,19.81,52.15,21.73a70.62,70.62,0,0,0,11.89,6.31c5.48,2.46,10.65,4.78,14.41,9,2.58,2.9,5.79,4.79,8.9,6.61,1.27.75,2.46,1.45,3.57,2.19a4.89,4.89,0,0,0,2.91.87c16.25-.22,25.59,3.41,32.23,12.58a5.08,5.08,0,0,0,4.11,2.09h30.9a5.08,5.08,0,0,0,4.08-2l8-10.78a5.89,5.89,0,0,0,.53-.68c1.48-2.25.9-5.69-.52-7.71-11.08-15.86-24.89-29.27-38.26-42.25-4.83-4.69-9.82-9.54-14.58-14.4-13-13.3-26.4-26.63-39.36-39.52q-8.45-8.4-16.87-16.81a5.07,5.07,0,0,0-3.59-1.48c-3.26,0-6.55.07-9.74.14a184,184,0,0,1-21.22-.32c-4-.37-7.94-1-12.11-1.65-7.74-1.23-15.73-2.5-24.15-2-10.8.64-22,.34-32.72.06l-2,0a12,12,0,0,1-3.41-1.15,33.87,33.87,0,0,0-3.25-1.29c-26-8.37-47.52-19.23-65.77-33.21-1.66-1.27-3.28-2.7-5-4.22-3.94-3.48-8-7.08-13.12-9.16a24.59,24.59,0,0,1-6.1-4.25c-4-3.34-8.83-7.41-16-7.08-18.68-11.41-29.78-26-33.9-44.7-.22-1-.39-2-.56-3.11a38.88,38.88,0,0,0-1.87-7.77,15.25,15.25,0,0,1,1.28-14,17.35,17.35,0,0,1,13.65-7.77c4.74-.35,9.67-.27,14.88-.17,2.58,0,5.24.09,8,.09a5.08,5.08,0,0,0,5.06-4.77l.36-6h105.73l3,4.55a5.07,5.07,0,0,0,4.25,2.3h16a5.06,5.06,0,0,0,3.58-1.48l25.17-25.18a5.07,5.07,0,0,0,1.07-5.6l-5.22-12.13a5.12,5.12,0,0,0-3.83-3l-5.34-.88c-4.41-.73-9.2-1.52-14-2.34-2.38-.42-4.76-.87-7.15-1.32-4.46-.85-9.07-1.72-13.72-2.34a43.29,43.29,0,0,0-7.43-.15c-5,.19-7.91.19-10.51-2.22-2.14-2-4.75-1.67-6.16-1.5l-.47.06c-4.31-.38-8.63-.81-12.94-1.25-9.24-.93-18.8-1.89-28.3-2.31-9.94-.43-19.66-.33-30-.23q-5.54.06-11.19.09l-4.37-5,.3-.6c1.48-3,3-6,4.64-9.11,2.7-5.06,5.8-7.54,11.44-9.16,9.69-2.79,19.68-6.3,26.07-15.77a5.08,5.08,0,0,0,.19-5.37c-5.9-10.24-14.7-14.27-23.2-18.16a92.18,92.18,0,0,1-9.73-4.91,5.09,5.09,0,0,0-7.18,2.08l-3.65,7.35-11.79,3.48c-3.52-8.37-10.28-13.15-16.36-17.44-3.74-2.64-7.3-5.16-10.15-8.39.23-1,.43-2.09.63-3.13.71-3.67,1.44-7.46,3.16-9.4,3.45-3.88,6.64-8,9.72-12,7.71-10,15-19.44,26.05-25.15a56.68,56.68,0,0,1,10.37-3.93c2.59-.78,5.21-1.52,7.81-2.26,10.57-3,21.49-6.1,30.36-11.44a5.12,5.12,0,0,0,1.71-1.69c5.21-8.48,2.68-15.62.83-20.83-.93-2.61-1.73-4.86-1.49-6.78a5.08,5.08,0,0,0-1.28-4c-5.19-5.75-2.91-9.91,3.55-18l.35-.45a51.71,51.71,0,0,1,17.45-14.2c4.76-2.27,9.43-4.78,13.94-7.21,9.55-5.15,18.58-10,28.61-12.87a58.36,58.36,0,0,0,12.29-5.61c5-2.78,9.72-5.4,15-5.5a5.09,5.09,0,0,0,2.55-.75c13.53-8.28,28.47-12.16,44.28-16.28,9.47-2.46,19.24-5,28.65-8.57.34,0,.68,0,1,0,9.24-.45,18.6-1.13,27.65-1.79,23.48-1.71,47.73-3.47,71.55-1.31l1.56,1.56v78.78a18.6,18.6,0,0,1-3.21,3.34c-2.65,2.37-5.94,5.32-7.75,10.09-1,2.67-5.54,6-12.11,9-9.59,4.35-19.63,10-28.17,21.75a5.07,5.07,0,0,0,4.84,8l28.74-4.19c9.06,9.28,20.26,10.75,30.22,12l.7.09a5.05,5.05,0,0,0,4.5-1.71l14.5-16.74a5.06,5.06,0,0,0,1.24-3.32c0-1.38-.06-3-.11-4.86a118.25,118.25,0,0,1,.4-17.82c.18-1.46,1.85-3.61,3.46-5.69.46-.58.92-1.18,1.37-1.79h23.13l68.06,57.19v34.3c-1,1.06-2.08,2.16-3.09,3.25-3.45,3.69-7,7.51-11.09,9.79a36.61,36.61,0,0,0-8.48,7.06,27.55,27.55,0,0,1-6.25,5.32c-4.32,2.35-6.71,6.67-9.25,11.24-1,1.87-2.1,3.8-3.32,5.62a5.06,5.06,0,0,0,1.71,7.24l7.86,4.45a5.17,5.17,0,0,0,3,.64l29.3-3,.32,0c9.73-1.64,14-8.78,17.49-14.52,1.63-2.72,3.11-5.17,4.92-6.78l7,6.95a5.07,5.07,0,0,0,5.78,1c17-8.12,29.53-23.72,40.71-50.58a5,5,0,0,0-.78-5.19c-1.33-1.61-2.71-3.25-4.11-4.92-3.26-3.89-6.62-7.9-9.87-12-2.88-3.61-5.72-7.39-9-11.76l-1.12-1.48,3.07-1a5.1,5.1,0,0,0,2.66-2.1h24.74c2.69,3.39,3,7.83,3.22,14.34l.06,1.64a47.76,47.76,0,0,0,2.41,11.71c.31,1,.6,2,.87,3-.27.71-.52,1.42-.77,2.11a22.39,22.39,0,0,1-2.71,5.9c-11.61,14.93-17.7,32.89-18.62,54.91a90.06,90.06,0,0,1-4.22,22.77,75.3,75.3,0,0,0-2.47,12.17c-.74,5-1.43,9.79-3.51,14.09a71,71,0,0,0-4.53,13.88c-1.1,4.39-2.13,8.53-3.91,12.13-5.32,10.73-7.82,22.07-10.24,33-1.15,5.22-2.34,10.62-3.81,15.77-3.29,11.54-6.17,23.34-9,34.76-3.64,14.91-7.4,30.32-12.09,45.17-3.58,11.33-6.33,23-9,34.33-2.27,9.68-4.63,19.68-7.47,29.29s-5.42,19.54-7.89,29.08c-2.34,9-4.77,18.39-7.43,27.47-4.8,16.41-9.45,33.29-14.21,51.62-1.54,5.94-3.38,12-5.17,17.8a285.29,285.29,0,0,0-7.72,28.91,97,97,0,0,1-4.18,13.87c-2.61,7.36-5.31,15-5.45,23.53a17.43,17.43,0,0,1-1.44,1.73q-10.89-3.91-21.72-7.84c-20.37-7.37-41.43-15-62.22-22.17a330.63,330.63,0,0,0-35.47-9.54,13.94,13.94,0,0,0-3-.32,21.24,21.24,0,0,0-10.8,3.22c-5.66,3.62-11.91,6.38-18.53,9.3-3.92,1.73-8,3.52-12.12,5.58h-12.59v-17.79a5.13,5.13,0,0,0-.87-2.84c-1-1.47-1.9-2.92-2.77-4.32a48.22,48.22,0,0,0-6.46-8.85C1763.52,1590.9,1759.84,1590.78,1757.4,1590.7Z"/><path d="M1182.53,941.54a5.08,5.08,0,0,0,1.57,1.84c9.07,6.52,18.69,8.52,28,10.46a102.44,102.44,0,0,1,13.45,3.42V994.1a5,5,0,0,0,1.32,3.4c1.66,1.84,3.4,3.58,5.08,5.26,3.46,3.47,6.73,6.75,9,10.42,8.52,14.06,14,30.52,17.85,53.36.37,2.2-.4,5.24-1.14,8.18-.17.65-.34,1.31-.49,2-.95,4-2.16,8.08-3.32,12-2.43,8.27-4.94,16.83-5.63,25.65-1.08,13.92-.84,28-.61,41.65.1,5.66.2,11.5.2,17.2a5.06,5.06,0,0,0,3.5,4.82c1.74.57,3.35,1.15,4.88,1.71a56.2,56.2,0,0,0,10,3,52.24,52.24,0,0,0,8.38.66c9.58,0,18.7-2.44,27.58-4.82l3-.79c16-4.21,20.27-7.48,31.77-19.63,5.52-5.84,10.51-11.88,15.33-17.73,1.46-1.77,2.89-3.5,4.29-5.17H1364c.34.58.66,1.15,1,1.73,1.82,3.18,3.7,6.48,5.78,9.61,2.29,3.46,4.83,6.75,6.36,8.72.45.59.82,1.07,1.07,1.41a5.12,5.12,0,0,0,2.7,1.86c2.82.8,5.27,1.62,7.63,2.42,4.92,1.67,9.14,3.07,13.7,3,5,0,9.63-1.46,14.59-3,2.17-.66,4.41-1.34,6.79-1.93a5.12,5.12,0,0,0,2.32-1.31l15.48-15.3a5.09,5.09,0,0,0,1.51-3.46c.15-5.28.65-9.17,2.79-13.47,6.44-12.95,13-22.59,20.78-30.35,2.1-2.11,4.31-4.22,6.45-6.27,9.73-9.32,19.79-19,25.42-32.88a5.14,5.14,0,0,0,.37-1.9v-13.41l1.55-1.23,11.4,12.1a5.07,5.07,0,0,0,3.69,1.59h19.35a5.1,5.1,0,0,0,2.33-.56L1554,1044a5.08,5.08,0,0,0,2.44-2.76c1.61-4.41,4.91-7.42,8.4-10.61a44.11,44.11,0,0,0,7.7-8.41,160.54,160.54,0,0,0,8.84-16.24q1.32-2.69,2.68-5.37l6.87-2.66c7.07-2.75,14.24-5.52,21.39-8.32,1.94-.75,3.83-1.58,5.66-2.39a59.64,59.64,0,0,1,11.09-4.05,31.77,31.77,0,0,1,7.71-.21,47.92,47.92,0,0,0,8.45-.1,94.19,94.19,0,0,0,13-2.91c2.38-.64,5-1.35,8.06-2.1a5.08,5.08,0,0,0,2.64-1.63l9.92-11.62a16.71,16.71,0,0,0,3.37-.15c5.27-.91,10.44-2.21,15.44-3.47,9-2.27,17.49-4.41,26.53-4.41h.43c5.88,0,11-3.25,16.53-6.68,2-1.25,4-2.53,6.15-3.68,12.92.89,28.31-1.83,46.94-8.29,8.42-2.91,16.76-3,24.58-2.76.8,0,2.52,1.05,3.77,1.8a33.36,33.36,0,0,0,3,1.67,5.06,5.06,0,0,0,5.74-1l9.87-9.75a5,5,0,0,0,1.5-3.76c-.11-3.84-.09-7.78-.06-11.6.06-11.86.13-24.12-3.72-36.4a105.26,105.26,0,0,1-2.93-13.74c-1.27-7.54-2.57-15.34-6.25-22.27-4.58-8.64-7.92-18.07-11.14-27.19-1.59-4.49-3.23-9.13-5-13.65-1.47-3.75-3-7.51-4.51-11.28-4.16-10.31-8.46-21-12-31.62-5.58-16.86-14.1-34.79-35-40.57-.11-.13-.23-.26-.35-.38a5.11,5.11,0,0,0-3.59-1.49h-25.64a5.12,5.12,0,0,0-2.69.77c-8.38,5.23-12,13.43-15.26,20.67-1.85,4.15-3.62,8.1-6.08,11.2h-20.87v-3l16.34-15.31a5.06,5.06,0,0,0,1.61-3.71V712a5.05,5.05,0,0,0-2.82-4.54l-9.93-4.93a5.09,5.09,0,0,0-4.78.15c-3,1.75-5.85,3.71-8.56,5.61-5.44,3.8-10.08,7-15.51,8.11,12.11-13.7,12.34-16.3,8.38-35.77,0-.23-.06-.47-.1-.88s-.1-.94-.18-1.64a5.07,5.07,0,0,0-1.92-3.4l-19.29-15c-6.09-22.77-12-35.23-40.49-61.77a5.07,5.07,0,0,0-2.93-1.33L1556,591.17l-11.67-11.68a5.14,5.14,0,0,0-2.77-1.42c-3.36-.54-6.64-1.25-9.8-1.94-7.13-1.54-13.86-3-20.77-2.53-15.45,1-30.56-2.63-46.16-11.14-9.37-5.12-17.5-5.43-26.35-1a18.59,18.59,0,0,1-5.27,1.23c-1.1.16-2.24.32-3.38.56a5.08,5.08,0,0,0-4,4.09c-2.16,12.38,3.19,21.11,9.3,28.7,5.94,7.39,6.87,14.2,2.8,20.77-5.54,1.05-7.7,5.7-8.94,8.37a9.63,9.63,0,0,1-1.51,2.64,5.07,5.07,0,0,0-2.1,4.11v21.4a5.1,5.1,0,0,0,1.49,3.6l16.39,16.33-3,7.74c-1.45.54-2.88,1.1-4.28,1.65-8.9,3.5-17.31,6.8-26.82,5.06a5.08,5.08,0,0,0-6,5v9.82c-3.72,3.09-7.37,6.09-11,9-9.37,7.7-18.23,15-26.74,22.82-9.24,8.51-18.17,17.62-26.81,26.42-3.83,3.91-7.67,7.82-11.56,11.71a5,5,0,0,0-1.49,3.59v11a5.1,5.1,0,0,0,1.31,3.41l9.51,10.5c.06,3.24-1.56,4.66-4.22,7-.77.66-1.55,1.35-2.29,2.1a60.74,60.74,0,0,0-9.07,2.26c-7.81,2.38-11.74,3.33-15.9-1.08a5.08,5.08,0,0,0-6-1l-11.37,5.7a5,5,0,0,0-2.62,3.21l-5.26,19.45L1268,846.9a33.81,33.81,0,0,1-5.29.28c-4.84,0-10.87,0-16.37,4.67a91.52,91.52,0,0,1-9.2,6.54,94.34,94.34,0,0,0-10.73,7.75,162.11,162.11,0,0,0-27.23,30.62c-4.73,6.9-10,13.59-15,20.06q-3.36,4.29-6.58,8.49a5.08,5.08,0,0,0-.49,5.35Zm9.59-18.47c5.15-6.6,10.48-13.41,15.38-20.58a151.77,151.77,0,0,1,25.53-28.7,84.29,84.29,0,0,1,9.6-6.9,100.16,100.16,0,0,0,10.23-7.31c2.52-2.14,5.37-2.25,9.81-2.26a34.71,34.71,0,0,0,8.59-.75,5,5,0,0,0,1.69-.78l14.17-10a5.05,5.05,0,0,0,2-2.82l5.15-19,6.25-3.14c7.9,5.94,16.39,3.35,23.36,1.23a42.5,42.5,0,0,1,9-2.09,5.06,5.06,0,0,0,3.62-2,20.6,20.6,0,0,1,2.48-2.4c3.51-3.07,8.81-7.71,7.48-17.44a5.15,5.15,0,0,0-1.26-2.72l-9.35-10.32V778.2q5.1-5.15,10.14-10.29c8.55-8.72,17.4-17.73,26.44-26.07,8.31-7.65,17-14.84,26.31-22.45,4.2-3.45,8.49-7,12.85-10.63a5.07,5.07,0,0,0,1.81-3.89v-6.56c9.72.29,18.17-3,26.37-6.23,2-.8,4.13-1.62,6.19-2.36a5.08,5.08,0,0,0,3-2.94l5-13a5.06,5.06,0,0,0-1.15-5.43l-17.24-17.18V634a21.26,21.26,0,0,0,2.67-4.6c1.27-2.75,1.37-2.75,2.33-2.71a5.13,5.13,0,0,0,4.23-2c8.31-10.9,7.7-23.35-1.73-35.07-4.76-5.92-7.63-10.85-7.55-17.07a24.51,24.51,0,0,0,7.47-2.07c5.88-2.92,10.48-2.7,17,.84,17.35,9.47,34.26,13.52,51.68,12.36,5.51-.36,11.28.88,18,2.33,2.79.6,5.67,1.23,8.69,1.76l11.8,11.8a5.07,5.07,0,0,0,3.06,1.46l51.48,5.37c26.3,24.66,31,35.49,36.8,57.43a5.05,5.05,0,0,0,1.78,2.71l19,14.79c.06.52.12.89.19,1.25,1.77,8.71,2.66,13.08,1.82,16.13s-3.86,6.44-10,13.26a14.7,14.7,0,0,0-2.61,4.75c-.28.71-.6,1.52-1,2.44a5.08,5.08,0,0,0,3.67,7.11c13.49,2.52,22.79-4,31-9.74,1.8-1.26,3.64-2.55,5.51-3.74l4.61,2.29v7.29L1679,737.71a5.09,5.09,0,0,0-1.6,3.71v10.25a5.07,5.07,0,0,0,5.07,5.07h28.22a5.08,5.08,0,0,0,3.62-1.52c4.48-4.57,7-10.23,9.44-15.7,2.7-6,5.25-11.77,10.24-15.42h21.89a6,6,0,0,0,2.41,1.23c17,4.19,24,18.94,29.11,34.24,3.62,11,8,21.78,12.2,32.23,1.51,3.75,3,7.49,4.48,11.21,1.71,4.35,3.33,8.9,4.88,13.31,3.35,9.47,6.81,19.26,11.75,28.56,2.9,5.48,4,12.14,5.2,19.2a113.91,113.91,0,0,0,3.26,15.09c3.38,10.78,3.32,21.72,3.25,33.31,0,3.19,0,6.46,0,9.74l-5.58,5.51A16.47,16.47,0,0,0,1819,925c-8.75-.22-18.13-.15-28.16,3.32-18,6.24-32.45,8.74-44.22,7.65a5.11,5.11,0,0,0-2.77.53c-3,1.51-5.62,3.17-8.18,4.78-4.2,2.64-8.17,5.14-11.13,5.14h-.43c-10.3,0-19.81,2.4-29,4.72-5,1.27-9.79,2.47-14.67,3.31a14.35,14.35,0,0,1-1.64,0c-.65,0-1.41-.05-2.32-.05a5.09,5.09,0,0,0-3.86,1.78l-10.43,12.22c-2.46.62-4.66,1.22-6.67,1.76a89.68,89.68,0,0,1-11.61,2.64,41.27,41.27,0,0,1-6.69,0,39.59,39.59,0,0,0-10.31.42,67,67,0,0,0-13.06,4.69c-1.82.79-3.53,1.55-5.27,2.22-7.14,2.79-14.3,5.57-21.37,8.31l-8.66,3.36a5,5,0,0,0-2.66,2.38c-1.26,2.41-2.46,4.84-3.66,7.25a151,151,0,0,1-8.25,15.22,35.93,35.93,0,0,1-6,6.44c-3.64,3.33-7.72,7.06-10.29,12.7l-14.16,7.3h-15.93l-13.09-13.89a5.08,5.08,0,0,0-6.84-.5l-7.12,5.64a5,5,0,0,0-1.93,4v14.86c-4.88,11.44-13.53,19.71-22.66,28.46-2.18,2.09-4.44,4.25-6.62,6.43-8.52,8.56-15.73,19.05-22.67,33a37.5,37.5,0,0,0-3.77,15.63l-13.09,12.93c-2.08.56-4,1.14-5.88,1.71-4.43,1.34-8.26,2.49-11.77,2.53-2.78,0-6.13-1.09-10.34-2.52-1.94-.65-4.08-1.38-6.48-2.1l-.15-.18c-1.53-2-3.84-5-5.92-8.12-1.9-2.86-3.61-5.86-5.43-9-.82-1.44-1.64-2.89-2.5-4.34a5.06,5.06,0,0,0-4.37-2.51h-12.8a5.11,5.11,0,0,0-3.87,1.79c-1.9,2.25-3.86,4.62-5.89,7.08-4.71,5.71-9.59,11.62-14.87,17.21-10.51,11.1-13.2,13.15-27,16.79l-3,.8c-10.87,2.91-21.14,5.66-31.69,3.94a47.44,47.44,0,0,1-8.22-2.48l-1.72-.63c0-4.6-.11-9.23-.18-13.74-.23-13.4-.46-27.25.58-40.7.6-7.76,2.85-15.44,5.24-23.57,1.2-4.08,2.44-8.3,3.46-12.54.14-.6.29-1.21.45-1.82,1-3.77,2-8,1.32-12.35-4-24.16-10-41.72-19.18-56.94-2.85-4.71-6.72-8.58-10.45-12.32-1.14-1.14-2.31-2.31-3.43-3.49v-4.93c0-10.46,0-21.06,0-31.66a13,13,0,0,0-.14-1.83l0-.43a5.1,5.1,0,0,0-3-4.17c-6-2.62-12.26-3.92-18.32-5.18-8.27-1.73-16.09-3.36-23.15-8.08l-3.47-6.89C1189.05,927,1190.58,925,1192.12,923.07Z"/><path d="M2128.24,430.05a5.07,5.07,0,0,0-3.83-1.75h-37.65l.12-.25a5,5,0,0,0-.69-5.7l-1.05-1.19c2.2-8.17,1.92-16.11,1.67-23.21a87,87,0,0,1,.15-12.78,5.1,5.1,0,0,0-.76-3.3l-8.07-12.68a5.06,5.06,0,0,0-3.39-2.27c-2.76-.5-5.61-1.28-8.36-2-6.6-1.82-13.43-3.7-19.52-1.55-4.79,1.7-9.56,1.85-13.77,2a45.81,45.81,0,0,0-6.6.5,5.28,5.28,0,0,0-1,.3c-1.94.8-3.54,1.41-4.91,1.92a29.83,29.83,0,0,0-6.93,3.25,26.71,26.71,0,0,0-5.15,5.08c-.42.5-.82,1-1.21,1.4a5.06,5.06,0,0,0-1,5.3c4.61,11.81,12.92,19.74,20.25,26.74a117.57,117.57,0,0,1,9.15,9.37V425a27.55,27.55,0,0,0-7.58,2.36c-4.57,2.38-7.26,2.27-11.52-.43-2.36-1.5-4.78-2.76-7.12-4-4.13-2.14-8-4.17-11.16-7.27a84.58,84.58,0,0,0-12-9.29c-1.59-1.08-3.1-2.11-4.48-3.12a5.08,5.08,0,0,0-6.6.5l-15.75,15.82a5.08,5.08,0,0,0-1.41,2.72l-4.24,24.57a5.07,5.07,0,0,0,2.42,5.23c15,8.86,30.28,13.19,45.55,12.94l8.46,6.47-3.54,9.19c-3.46.08-6.94.26-10.32.43-10.25.52-19.94,1-29-1l-3.94-.87c-14.87-3.3-30.23-6.72-46.89-5.89a5.07,5.07,0,0,0-4,2.3,17.91,17.91,0,0,1-2.76,2.89c-3.89,3.59-10.41,9.6-4.85,20.93a5.1,5.1,0,0,0,2.17,2.24c1.4.74,2.89,1.63,4.48,2.57a68.49,68.49,0,0,0,13.64,6.72c1.28.42,2.6.88,3.94,1.34,7.89,2.74,16.85,5.85,24.49,3.27,5.45-1.84,10.74-2,16.34-2.12,2.73-.07,5.54-.14,8.37-.43l9.48,6.18v3.19l-14.4,10c-1.42-.32-2.82-.67-4.2-1a70,70,0,0,0-14.4-2.51c-8.44-.3-17-.22-25.25-.14-19.56.18-39.8.36-59.36-4.47a5.09,5.09,0,0,0-5.08,1.64l-1.77,2.08c-1.16,1.36-2.23,2.61-3.29,3.87a32.65,32.65,0,0,0-7.57,26.15,29.58,29.58,0,0,0,14,20.69,32.77,32.77,0,0,0,9.22,3.43c1.09.28,2.19.56,3.25.9l20.54,6.44,5.34,1.68c5.43,7.33,5.42,14.84,5.41,23.47a93.37,93.37,0,0,0,.58,12.68,5.1,5.1,0,0,0,3.29,4.08l12.46,4.57a5.08,5.08,0,0,0,5.72-1.61L1948,614.58c3.51,1.42,5.66,4.51,8.54,9,2.35,3.65,4.79,7.42,8.68,10.12a5.08,5.08,0,0,0,2.89.91h13.62a5.14,5.14,0,0,0,2.54-.68c17.25-10,24.73-24.44,32-38.41.76-1.46,1.51-2.91,2.28-4.36h16l10.68,8.11c-4.24,9.55-12.11,14.71-21.13,19.9a5.09,5.09,0,0,0-2.54,4.4V636a5.06,5.06,0,0,0,1.48,3.58l16.16,16.16a5,5,0,0,0,3,1.45c20.34,2.21,30.09-10.86,38.32-23.29,6,5.32,9.69,12.58,13.83,20.76l1.66,3.25a5,5,0,0,0,3.81,2.7c9,1.26,19.3,1.7,27.4-4.58,3.21-2.48,5.79-2.55,10.54-1.93l5,12.82a18.2,18.2,0,0,0-1.54,2.26c-7.8,13.53-14.57,17.16-27.84,14.94-7.75-1.3-16.55-2.78-22.39-6.8-12.76-8.79-22.34-2.65-30,2.28l-1.21.77a140.5,140.5,0,0,0-12,8.89c-1,.8-2,1.59-3,2.35l-3.56-.13c-6.09-.2-11.35-.37-16.57-2.68-9.1-4-18.12-1.14-26.08,1.39a77.46,77.46,0,0,1-8.35,2.34c-6.89,1.36-12.38,6.49-17.22,11-1.83,1.7-3.55,3.31-5.15,4.53a5.07,5.07,0,0,0-2,4v22.55a5,5,0,0,0,.95,3c1.34,1.88,2.58,3.78,3.79,5.61,2.78,4.25,5.41,8.26,9,11.67,4.67,4.48,10.15,7.87,15.46,11.15.83.51,1.66,1,2.48,1.54,6.71,4.2,14,6.51,21,8.75a121.59,121.59,0,0,1,13,4.66c4.92,2.2,10,2.2,14.42,2.2,4.75,0,8.86,0,12.36,2.42a6.68,6.68,0,0,0,3.94,1.21c2.48,0,5-1.13,7.38-2.18a24.33,24.33,0,0,1,3.84-1.49,34.6,34.6,0,0,1,6.54-.58A38.24,38.24,0,0,0,2091.6,781c11-3.64,21-8.89,30.7-14l5.71-3a49.54,49.54,0,0,0,22-22.12c8.89-4.55,15.95-4.54,22.11,0a5.06,5.06,0,0,0,6,0c11.22-8.26,15.62-19.39,19.5-31q1.35-4.08,2.72-8.16c4.12-12.29,8.37-25,12.08-37.69,7.45-25.52,9.6-47.53,6.75-69.27a5.09,5.09,0,0,0-5-4.41h-43.6l-2.21-2.21c0-2.09-.05-4.18-.13-6.22-.26-6.5-.5-12.63,3-17.65,5-7.1,5-13.86,3.3-22.45a5,5,0,0,0-3.32-3.82l-25.46-8.8c-.3-1.53.2-5.18.6-7.9l12.52-9.18a5.08,5.08,0,0,0,2.06-3.69c1-12.25-7-19.92-11.82-24.51-.41-.39-.8-.76-1.16-1.12-2-6.17-3.41-12.19-4.75-18C2140.24,452.88,2137.44,440.67,2128.24,430.05Zm22.6,76.41-12.2,8.94a5.06,5.06,0,0,0-2,3.37l-.22,1.54c-1.05,7.13-2.13,14.5,3.4,18.39a5,5,0,0,0,1.26.64l24,8.3c.81,5.51.21,8.51-2.12,11.8-5.55,7.84-5.21,16.38-4.91,23.92a69.62,69.62,0,0,1,0,7.48,5.05,5.05,0,0,0,1.48,3.93l5.26,5.27a5.07,5.07,0,0,0,3.59,1.48h41.17c1.84,18.89-.39,38.32-6.93,60.7-3.65,12.5-7.87,25.11-12,37.31l-2.73,8.18c-3.21,9.63-6.3,17.66-13.23,23.9-9-5-19.47-4.25-31.07,2.17a5.07,5.07,0,0,0-2.14,2.3A39.66,39.66,0,0,1,2123.36,755l-5.76,3c-9.77,5.12-19,10-29.2,13.33a29.18,29.18,0,0,1-8.64,1.08,42.52,42.52,0,0,0-8.49.82,31,31,0,0,0-5.75,2.12c-.8.36-1.88.84-2.64,1.11-5.73-3.43-11.65-3.43-16.91-3.43-3.93,0-7.33,0-10.28-1.32a129.1,129.1,0,0,0-14.06-5.07c-6.73-2.14-13.1-4.17-18.73-7.69l-2.52-1.56c-5.08-3.14-9.88-6.1-13.77-9.84-2.72-2.61-4.93-6-7.5-9.91-1-1.49-2-3-3.07-4.6V714.52c1.33-1.14,2.64-2.37,3.92-3.57,4-3.77,8.21-7.66,12.26-8.46a86.62,86.62,0,0,0,9.47-2.63c6.85-2.19,13.31-4.25,18.9-1.78,7,3.11,13.49,3.32,20.34,3.54,1.69.06,3.42.11,5.21.22a5,5,0,0,0,3.37-1c1.5-1.14,3-2.36,4.61-3.62a132.39,132.39,0,0,1,11.16-8.26l1.24-.79c7.83-5,11.91-7.22,18.81-2.46,7.69,5.3,17.67,7,26.47,8.44,17.62,3,28.35-2.62,38.3-19.88a16.27,16.27,0,0,1,1.57-2.09c.36-.42.7-.83,1-1.23a5,5,0,0,0,.7-4.95l-7.22-18.34a5,5,0,0,0-4-3.16l-1-.15c-6.35-.91-12.93-1.86-20.09,3.69-3.71,2.87-8.93,3.76-17.2,2.88-.13-.27-.27-.54-.41-.81-5.19-10.26-10.56-20.86-21.44-27.76a5.08,5.08,0,0,0-6.95,1.48l-1.56,2.38c-7.65,11.66-14.31,21.79-28.43,21.07l-13.35-13.35v-7.45c10.44-6.21,19.91-13.38,24.45-27.4a5.07,5.07,0,0,0-1.76-5.6L2039.33,582a5.06,5.06,0,0,0-3.06-1h-20.78a5.08,5.08,0,0,0-4.46,2.64c-1.29,2.37-2.53,4.78-3.79,7.2-6.68,12.9-13,25.11-26.88,33.6h-10.44a33.56,33.56,0,0,1-4.83-6.38c-3.65-5.67-8.2-12.72-18.23-14.23a5.08,5.08,0,0,0-4.73,1.87l-15.5,19.56-6-2.21c-.2-2.72-.2-5.46-.19-8.32,0-9.64,0-20.55-8.61-31.07a5.07,5.07,0,0,0-2.4-1.62l-6.86-2.15c-6.35-2-13.43-4.2-20.52-6.44-1.27-.4-2.54-.73-3.77-1a24.67,24.67,0,0,1-6.44-2.26,19.5,19.5,0,0,1-9.26-13.67,22.53,22.53,0,0,1,5.32-18l3-3.54c19.78,4.39,39.61,4.22,58.82,4,8.15-.07,16.58-.15,24.8.14a60.71,60.71,0,0,1,12.31,2.22c2.16.53,4.39,1.08,6.71,1.56a5.1,5.1,0,0,0,3.9-.81l18.4-12.77a5.07,5.07,0,0,0,2.18-4.17v-8.59a5.07,5.07,0,0,0-2.3-4.25l-13.35-8.69a5.09,5.09,0,0,0-3.48-.77,79.73,79.73,0,0,1-9.13.57c-5.82.15-12.42.32-19.32,2.64-4.36,1.47-11.57-1-17.93-3.23-1.4-.49-2.78-1-4.12-1.4a60.57,60.57,0,0,1-11.61-5.81c-1.14-.68-2.24-1.33-3.32-1.94-1.31-3.42,0-4.64,3.23-7.61.86-.79,1.78-1.65,2.66-2.6,14.39-.36,27.78,2.61,41.91,5.74l4,.88c10.4,2.29,21.23,1.74,31.7,1.21,4.4-.22,8.95-.45,13.31-.45a5.06,5.06,0,0,0,4.73-3.25l6.14-15.95a5.07,5.07,0,0,0-1.65-5.85l-12.9-9.88a5.06,5.06,0,0,0-3.3-1c-12.89.55-25.93-2.73-38.8-9.75l3.36-19.48,11.6-11.66,1.21.82a75.61,75.61,0,0,1,10.55,8.13c4.23,4.17,9,6.65,13.61,9,2.25,1.17,4.37,2.27,6.36,3.54,7.25,4.6,13.93,4.87,21.64.86a21.68,21.68,0,0,1,5.47-1.52c1.2-.24,2.45-.49,3.75-.82a5.07,5.07,0,0,0,3.83-4.91V417.38a5.1,5.1,0,0,0-1.07-3.12,111.83,111.83,0,0,0-11.22-11.8c-6.23-5.94-12.64-12.06-16.62-20.36a14.53,14.53,0,0,1,2.54-2.5,23.25,23.25,0,0,1,4.69-2.07c1.32-.5,2.85-1.07,4.67-1.82,1.19-.16,2.79-.21,4.61-.26,4.71-.15,10.56-.32,16.85-2.55,3.08-1.09,8.11.29,13.43,1.76,2.28.63,4.63,1.28,7.05,1.8l6,9.39a112.45,112.45,0,0,0,0,12.45c.26,7.4.53,15.05-2,22.45a5.1,5.1,0,0,0,1,5l.63.72-2.38,4.57a5.06,5.06,0,0,0,4.49,7.42H2122c6.44,8.36,8.71,18.28,11.32,29.64a200.12,200.12,0,0,0,5.4,20.12,5.09,5.09,0,0,0,1.13,1.86c.65.68,1.41,1.41,2.25,2.22C2145.84,495.85,2150.39,500.21,2150.84,506.46Z"/><path d="M1716.09,335a5.22,5.22,0,0,0,2.22.51h19.31a45.22,45.22,0,0,1,2.56,5.63c4.52,13.21,11.08,25.75,28.22,28.07a5,5,0,0,0,5.5-3.44c2-6,6.11-9.85,10.5-13.94,1.6-1.5,3.25-3,4.77-4.67h6.48a26.43,26.43,0,0,1-.07,4.36c-5.5,5.34-7.86,11.85-9.94,17.61a53.57,53.57,0,0,1-3.57,8.4,5.06,5.06,0,0,0-.12,4.86L1787.4,393a5.06,5.06,0,0,0,3.81,2.7l24.37,3.37a4,4,0,0,0,.69.05,5.08,5.08,0,0,0,3-1l18.19-13.47a5,5,0,0,0,1.66-2.11c2.34-5.58,3.57-11.48,4.77-17.18,2.21-10.58,4.15-19.85,12.29-25.73,1.78,1.94,2.27,4.62,2.89,8.75.75,5.05,1.69,11.33,7.55,15.54a5.08,5.08,0,0,0,3,1h14.34a5.07,5.07,0,0,0,3.58-1.49c16.8-16.8,17.44-18.12,18.43-42.54,3.65-13.1,11.3-15.6,22.49-15.34a5.16,5.16,0,0,0,4-1.75c.61-.7,1.2-1.37,1.79-2,3.63-4.06,7.39-8.25,8.84-15.52,1.3-6.53,4.54-13.07,7.66-19.39.8-1.61,1.61-3.25,2.39-4.91,1.59.8,2,2.52,2.61,6.22.49,2.84,1.06,6.05,2.94,8.84,1.48,2.17-.76,6.14-3.61,10.73l-.54.86c-11.66,5.76-20.86,14.53-28.87,27.48a5.08,5.08,0,0,0-.72,3.27,79.51,79.51,0,0,1,.14,12.21c-.44,11.54-.94,24.61,10.91,35.85a5,5,0,0,0,3.82,1.38c2.21-.14,4.56-.09,7,0,8.17.17,17.45.34,26.68-6.12a5.07,5.07,0,0,0,2-2.79c.31-1.09.73-2.3,1.18-3.59,1.21-3.47,2.57-7.4,2.7-11.67.21-6.88,2.06-11.8,6.11-16.1H1996l8.23,9.09a5.09,5.09,0,0,0,4.14,1.65l6.35-.47a5.07,5.07,0,0,0,4.65-4.41l.06-.48c1.17-9,1.89-10,6.93-9.81,4.81.23,10.38-4.55,11.77-8.65a78.16,78.16,0,0,0,4.19-20c.45-7.05.35-13.92.26-21.2,0-2.16-.06-4.33-.08-6.53l3.17-2.3,6.53,8.11a5.08,5.08,0,0,0,3.95,1.89h18.09a5.08,5.08,0,0,0,5.05-4.58c1.34-13.71-6.83-21.82-14-29l-.89-.88,2.82-5.32c17.41-.86,30.91-4.7,42.29-12a5.09,5.09,0,0,0,2.28-3.51c3.88-25.62-2.66-56.39-19.46-91.43a5.1,5.1,0,0,0-3.31-2.72c-9-2.33-16.07,1.33-22.27,4.56a45.56,45.56,0,0,1-8.65,3.79,5.07,5.07,0,0,0-3.72,4.89v14.76l-6,8.36q-5-3.27-9.88-6.44c-11.52-7.49-22.4-14.56-33-22.18-6.4-4.59-13.33-6.77-20-6.28a77,77,0,0,0-23.16,5.93q-4.63,1.89-9.29,3.74c-25.62,10.26-52.11,20.87-71.53,44-10.59,12.59-25.14,18.37-39.32,22.75-12.7,3.92-27.09,8.37-32.47,19.08a4.83,4.83,0,0,0-.23.52L1802.58,242c-4.47,2.69-9.43,2.36-15.11,2a75.68,75.68,0,0,0-7.59-.25c-6.82.23-13.63.18-20.21.12-2.78,0-5.48,0-8.09,0a5.06,5.06,0,0,0-2.63.73c-1.29.78-2.63,1.48-4,2.22-5.31,2.75-11.89,6.15-13.64,14.71a4.85,4.85,0,0,1-.77.58c-8.32-.45-12.71,4.58-16.27,8.65a44.24,44.24,0,0,1-3.49,3.7,5.09,5.09,0,0,0-1.21,5.82l8.13,18.13-9.26,7.78a5.06,5.06,0,0,0-1.8,4.32,39.68,39.68,0,0,1,0,5C1706.35,321.67,1706,330.13,1716.09,335Zm.64-19.15c0-1.16.09-2.34.09-3.55l10.29-8.64a5.07,5.07,0,0,0,1.37-6l-8.28-18.46c.59-.64,1.14-1.27,1.66-1.86,3.42-3.91,5-5.49,8.44-5.17,4.34.36,10.13-4,10.83-8.32.65-3.93,3.19-5.41,8.43-8.12,1.11-.58,2.25-1.16,3.4-1.82l6.62,0c6.69.05,13.6.11,20.64-.13,2.06-.07,4.26.08,6.57.23,7.14.48,15.24,1,23-4.75a5.08,5.08,0,0,0,1.73-2.31l7.34-19.88c3.59-6.71,15.64-10.43,26.32-13.73,14.88-4.59,31.75-11.26,44.06-25.9,17.78-21.15,42-30.83,67.54-41.08q4.68-1.87,9.35-3.77a66.77,66.77,0,0,1,20-5.2c4.28-.31,8.9,1.21,13.35,4.41,10.8,7.75,21.78,14.88,33.4,22.43,4.58,3,9.22,6,13.91,9.09a5.08,5.08,0,0,0,6.93-1.29l9.74-13.65a5.1,5.1,0,0,0,.94-2.95V142.81c2.44-1,4.7-2.16,6.92-3.31,5.15-2.69,8.81-4.44,12.85-4.11,14.58,31.12,20.56,58.3,17.78,80.87-10,5.88-22.23,8.85-38.12,9.31a5.1,5.1,0,0,0-4.33,2.7l-5.93,11.18a5.08,5.08,0,0,0,.83,5.89c1.19,1.25,2.41,2.46,3.62,3.66,5.45,5.41,10,9.9,11,16.21h-10.51l-8-10a5.09,5.09,0,0,0-6.93-.92l-9.18,6.65a5.08,5.08,0,0,0-2.09,4.11c0,3.12,0,6.2.08,9.25.1,7.07.19,13.75-.24,20.42a67.55,67.55,0,0,1-3.63,17.25,5.83,5.83,0,0,1-2.13,1.87c-12.32-.4-15.29,7.72-16.51,14.84L2002,320a5,5,0,0,0-3.76-1.67h-14.86a5.1,5.1,0,0,0-3.44,1.34c-7,6.47-10.42,14.28-10.73,24.59-.08,2.72-1.13,5.73-2.14,8.64-.27.76-.54,1.54-.79,2.31-6.1,3.65-12.5,3.52-19.26,3.39-1.81,0-3.67-.07-5.53,0-7-7.73-6.69-16.53-6.3-26.63a99.48,99.48,0,0,0,0-12c7.1-11,14.88-18.13,25-22.86a5.19,5.19,0,0,0,2.23-2c.37-.64.79-1.31,1.22-2,3.46-5.57,8.69-14,3.4-21.78-.66-1-1-3-1.34-4.89-.89-5.1-2.55-14.6-15.34-15.22a5.1,5.1,0,0,0-4.89,3c-1.17,2.66-2.48,5.32-3.87,8.13-3.41,6.91-6.94,14-8.51,21.89-.91,4.56-3.23,7.15-6.45,10.74l-.34.38c-11,.15-25,3.39-30.28,23.43a5,5,0,0,0-.17,1.09c-.45,11.22-.67,16.85-2.43,21-1.61,3.79-5,7.34-11.57,13.9h-10.3c-1.41-1.66-1.85-4.11-2.41-7.85-.84-5.62-2-13.31-10.27-17.83a5.05,5.05,0,0,0-4.86,0c-14.51,7.94-17.43,21.9-20,34.22a95.18,95.18,0,0,1-3.69,14.08l-15.37,11.37L1795.21,386l-3-5.89a80.37,80.37,0,0,0,3-7.5c1.91-5.28,3.72-10.27,7.72-14,3.18-3,3-7.45,2.89-11.76a41.65,41.65,0,0,1,0-4.33,5.08,5.08,0,0,0-5.06-5.46h-13.88a5,5,0,0,0-3.94,1.89,59.4,59.4,0,0,1-5.43,5.51c-4,3.75-8.47,7.9-11.48,13.95-8.48-2.58-12.5-9.64-16.22-20.51a55.19,55.19,0,0,0-3.18-7.06c-.44-.85-.87-1.7-1.26-2.52a5.06,5.06,0,0,0-4.58-2.91h-21.17C1716.6,323.6,1716.52,321.33,1716.73,315.89Z"/><path d="M2342.38,112.33c-.77-.32-1.54-.6-2.3-.88a24.47,24.47,0,0,1-3.54-1.5c-12-6.79-25.6-8.22-37.63-9.48l-1.09-.11c-7.73-.81-15.3,2.35-22.6,5.42-3,1.24-5.75,2.41-8.49,3.3-4.28,1-9,1-13.92,1-11.22,0-23.94.07-34.71,12.05a5.06,5.06,0,0,0-1.3,3.39v22.92c-8.13,5.93-12.33,14.11-16.41,22-1.59,3.09-3.23,6.29-5.12,9.41a5.07,5.07,0,0,0-.63,3.59l4.08,21a5.08,5.08,0,0,0,3.38,3.84l17.07,5.67,18.33,18.33a5.09,5.09,0,0,0,1.92,1.21c2.57.89,5,1.76,7.32,2.6,5.41,1.95,10.53,3.8,15.72,5.22a26.77,26.77,0,0,0,6.8,1,13,13,0,0,0,7.18-1.85c3.46-2.29,7.2-4.48,10.81-6.59,12.77-7.47,26-15.19,33.49-30.3a80.58,80.58,0,0,0,4-10.26c.53-1.56,1.07-3.15,1.67-4.76a5.06,5.06,0,0,0-.69-4.8l-12.26-16.41c2-1.62,4.14-3.21,6.34-4.87,13.76-10.35,29.36-22.09,25.67-46.2A5.06,5.06,0,0,0,2342.38,112.33Zm-28.66,42c-3.53,2.66-7.19,5.41-10.54,8.37a5.07,5.07,0,0,0-.7,6.84l13.5,18.06c-.28.8-.55,1.6-.82,2.39a74.74,74.74,0,0,1-3.5,9c-6.17,12.4-17.51,19-29.53,26.06-3.73,2.18-7.59,4.44-11.23,6.85-.54.26-2.78.41-5.75-.4-4.82-1.32-9.52-3-15-5-2-.73-4.12-1.49-6.33-2.26L2225.49,206a5.09,5.09,0,0,0-2-1.23l-15.39-5.11L2205,183.46c1.64-2.83,3.06-5.61,4.45-8.31,4.18-8.13,7.79-15.15,15.12-19.67a5.08,5.08,0,0,0,2.42-4.32V127.57c7.46-7.27,16-7.29,25.89-7.32,5.39,0,11,0,16.44-1.35l.36-.1c3.22-1,6.41-2.37,9.5-3.67,6.41-2.69,12.47-5.22,17.62-4.68l1.1.11c11.58,1.22,23.55,2.47,33.67,8.22h0a28.74,28.74,0,0,0,4.26,1.9C2337,136.85,2326.15,145,2313.72,154.36Z"/><path d="M2362.35,0h-39.2a5.07,5.07,0,0,0-5,4.3l-1,6.71h-56.74a5.06,5.06,0,0,0-4.66,7.06l-15,11.92a5.07,5.07,0,0,0-1.29,6.4c7.51,13.74,20.23,16.1,30.7,17.77,3.11,1.88,5.48,5.1,8,8.49,4.27,5.79,9.12,12.36,18.67,13.73a5.09,5.09,0,0,0,3.39-.7,49.7,49.7,0,0,0,4.5-3.26,22.79,22.79,0,0,1,4.36-3c6,.8,8.66-2.78,9.88-5.62l13.73,14.59a5.11,5.11,0,0,0,3.69,1.59h12.82a5.1,5.1,0,0,0,3.44-1.34l13.18-12.13a5.09,5.09,0,0,0,1.63-3.74V5.07A5.07,5.07,0,0,0,2362.35,0Zm-5.07,60.57-10.09,9.29h-8.64L2322.63,53a5.09,5.09,0,0,0-2.51-1.46c-3.49-.83-8.06-.28-10.12,7.1l-.2.72c-4.32-.41-8.06,2.53-11.37,5.12-.68.53-1.34,1-2,1.52-4-1.22-6.58-4.46-10.16-9.32-3.09-4.19-6.59-8.93-12.08-11.83a5.24,5.24,0,0,0-1.58-.52c-9.79-1.55-17-3.14-21.95-9.25L2265.84,23a5.1,5.1,0,0,0,1.43-1.82h54.18a5.07,5.07,0,0,0,5-4.3l1-6.7h29.78Z"/><path d="M1832.52,493.12a5,5,0,0,0,3.16,1.11H1847a5.09,5.09,0,0,0,3.52-1.42c29.43-28.29,55.61-58.52,79.89-87.05a5.08,5.08,0,0,0-1.66-7.86c-13.63-6.56-26.84-6.3-39.62-6-4.24.09-8.24.16-12.2,0a5,5,0,0,0-2.87.75c-2.06,1.26-4.33,2.41-6.53,3.53-5.22,2.65-10.62,5.39-14.24,10.06-8.25,10.64-15.61,21.94-22.72,32.87-2.74,4.19-5.56,8.53-8.34,12.67a5.14,5.14,0,0,0-.86,2.95c.06,2.12,0,4.32,0,6.45C1821.13,471.79,1820.92,483.89,1832.52,493.12Zm-1.06-31.82c0-1.71.06-3.47,0-5.25,2.53-3.79,5.06-7.68,7.53-11.46,7-10.76,14.25-21.88,22.24-32.19,2.22-2.87,6.4-5,10.82-7.24,1.93-1,3.92-2,5.89-3.13,3.78.12,7.6,0,11.31,0,9.92-.2,19.38-.38,28.76,2.57-22.41,26.25-46.46,53.72-73.13,79.51h-7.37C1831.17,478.13,1831.3,470.64,1831.46,461.3Z"/><path d="M2094.57,293.47l-11.18,8.73a5.09,5.09,0,0,0-1.61,5.84c.47,1.21.94,2.42,1.4,3.64,6.68,17.48,14.26,37.3,39.75,43a4.67,4.67,0,0,0,1.11.13,5.09,5.09,0,0,0,4.07-2.05c10.45-14.05,21.26-28.58,17.13-49a5.08,5.08,0,0,0-2.4-3.36l-12.35-7.28a5,5,0,0,0-2.57-.71h-30.23A5.1,5.1,0,0,0,2094.57,293.47Zm32,9.08,9.14,5.39c1.92,13.8-5.06,24.37-13.67,36-17.65-5.31-23.09-19.55-29.34-35.91l-.06-.16,6.84-5.34Z"/><path d="M2168.56,130.05a5,5,0,0,0,3.58,1.49h16.48a5.08,5.08,0,0,0,3.41-1.32l15.36-13.93a5.08,5.08,0,0,0,1.11-6.08c-.92-1.78-1.76-3.64-2.66-5.61-4.88-10.72-11-24-30.38-23.57a5.06,5.06,0,0,0-4.11,2.28l-8.18,12.45a5,5,0,0,0-.84,2.78v23.19a5.08,5.08,0,0,0,1.49,3.59Zm3.92-30,5.81-8.84c10.1.69,13.63,7.28,18.31,17.58l1.16,2.53-11.1,10.06h-12.42l-1.76-1.76Z"/><path d="M2252.11,480.86a5,5,0,0,0,1.8.34,5.08,5.08,0,0,0,4.33-2.43l8.59-14.08a5.06,5.06,0,0,0,.35-4.6l-7.7-18.39a5.09,5.09,0,0,0-6-2.94l-17.18,4.63a5.08,5.08,0,0,0-3.76,4.9v21.63a5.07,5.07,0,0,0,3.27,4.74Zm-9.42-28.68,9.14-2.47,5,11.91-5,8.26-9.09-3.46Z"/></g></g></svg>