<svg xmlns="http://www.w3.org/2000/svg" viewBox="0 0 3780 2441.26"><title>Asset 1</title><g id="Layer_2" data-name="Layer 2"><g id="Layer_1-2" data-name="Layer 1"><path d="M495.13,2441.26a5.32,5.32,0,0,1-2.79-.79c-37-22.74-49.46-52-61.55-83.08L418.07,2369l.51.62a5.34,5.34,0,0,1-1.71,8.12l-72.5,37.17a5.33,5.33,0,0,1-7.69-3.87l-4.39-26.21-45.81-51.61a5.27,5.27,0,0,1-1.27-2.68L266.8,2218.07l-28.6,30.65a5.32,5.32,0,0,1-6.63.94l-9.84-5.88a5.34,5.34,0,0,1-2.5-5.63l10.21-50.58-8.2,15.28a5.35,5.35,0,0,1-2.59,2.38c-5.48,2.35-10.33,2.66-14.45.92-6.69-2.84-9.41-10-11.81-16.31-1.5-4-3.37-8.86-5.45-9.5-.5-.15-2.11-.36-5.67,1.53L206.13,2237A5.34,5.34,0,0,1,205,2243a75.78,75.78,0,0,0-7.48,9.41c-7.93,11.12-17.8,24.95-42.06,13.56a5.33,5.33,0,0,1-1.7-8.39l10.85-12.12L127.28,2222l-9.77,8.7a5.33,5.33,0,0,1-7.32-.21c-.44-.44-1-.9-1.62-1.39-1.86-1.5-4.17-3.36-4.66-6.53-9-58.9-19.19-125.58-13.19-186.5l-27.79-51.63a5.3,5.3,0,0,1-.15-4.75c4.76-10.38,9.53-21,14.13-31.24,36.19-80.54,73.61-163.82,149-221.75,7.83-6,16.73-10.46,25.33-14.76,7.5-3.75,14.59-7.29,21-11.79s12-10.53,19.75-18.88c1.79-1.94,3.68-4,5.72-6.16h-57.1c-6,5-12.33,10.15-19,15.61-17,13.92-36.35,29.69-54.61,46-10.41,9.31-20.52,19.48-30.3,29.31-15.17,15.26-30.86,31-48.27,44.29-8.45,6.43-15.1,15.19-22.15,24.46-13.47,17.72-28.73,37.81-60,43.47a5.34,5.34,0,0,1-5.54-8c24.73-42,58.26-72.12,90.68-101.24,20.22-18.17,39.32-35.32,56.19-55,33-38.48,74.09-60.78,117.59-84.39,20.19-11,41.07-22.28,60.91-35.33a5.37,5.37,0,0,1,4.34-.69,5.29,5.29,0,0,1,3.38,2.8l9.37,19.13c6.34-33.47,25.64-44.95,44.31-56,70.59-42,145.22-78.63,217.41-114.09l2.75-1.35c13.37-6.57,26.51-14.39,39.21-21.95,30.5-18.15,62-36.9,100.27-40.86,12.05-13.88,27.81-21.34,43.08-28.56,9.76-4.61,19-9,27.24-14.88,49.7-35.54,97.54-54.69,150.55-60.27,35.39-3.72,70.89-14.76,105.23-25.44,12.23-3.8,24.87-7.73,37.35-11.28,17.84-5.08,24.51-12.24,44.59-47.92a5.34,5.34,0,0,1,4.65-2.72H1187a5.34,5.34,0,0,1,5.19,4.08,47.93,47.93,0,0,0,1.6,4.86c1.71,4.68,3.65,10,1.9,15-5.25,14.92-11.37,29.56-17.85,45.06-2.07,5-4.18,10-6.32,15.21l10.29,14.41a5.33,5.33,0,0,1-2,7.87l-23.45,11.68,27.36,18.79,5.59-15.88a5.33,5.33,0,0,1,6.64-3.32l44.77,14.15a5.37,5.37,0,0,1,2.89,2.22c4.39,6.89,11.85,13,19.74,19.51,15.9,13.07,35.35,29.07,36.39,58.72,11.16-6.36,15.68-15.48,14.06-28.18l-50.47-40.59a5.33,5.33,0,0,1-1.9-5.12c10.53-57.23,51.71-74.47,93-87.22,16.24-5,33-9.2,49.13-13.23,16-4,32.47-8.11,48.36-13,7.92-2.44,15.52-7.14,25.15-13.09,5.17-3.19,11-6.82,17.83-10.63a5.16,5.16,0,0,1,1.95-.64c19.15-2.43,39.88-1.86,61.84-1.26,32.48.9,66.07,1.82,101.68-6.15a5.3,5.3,0,0,1,4.82,1.31l.88.83,13.07,12.27c5.36-15.27,15.16-26,29.59-32.33-10.14-1.37-20.22-2.79-30.14-4.2-76.3-10.8-155.2-22-236.6-1.07a5.35,5.35,0,0,1-3.79-.43l-44.79-23.21-17.4,12.2a5.33,5.33,0,0,1-4.14.85c-6.25-1.29-12.21-4.26-18-7.14-14.2-7.1-24.46-12.23-36.82,3.78-3,3.84-8.35,3.61-13.1,3.41-1.06,0-2.1-.09-3-.08-9.8.17-19.75.07-29.38,0-42.5-.44-82.63-.87-121.86,19.92a5.34,5.34,0,0,1-6.82-1.59l-21.29-29.38-7.07,7.07a5.33,5.33,0,0,1-5.08,1.4c-42-10.58-42.5-10.69-118.32,6.09-.73,1.44-1.46,3-2.23,4.52a151.41,151.41,0,0,1-10.19,18.51c-4,5.93-8.69,11.23-14.11,17.38-2.59,2.93-5.26,6-8.15,9.38a5.33,5.33,0,0,1-7.34.77l-38.05-29.53-58.35,12.6a5.31,5.31,0,0,1-5.43-2.06c-12.07-16.5-4.22-31.59,2.08-43.71,5-9.69,9.38-18,5.08-26.34a5.33,5.33,0,0,1,1.68-6.82c7.27-5.1,15.19-7.84,22.86-10.48,14-4.81,24.07-8.3,26.69-23.36.66-3.76,4.32-8.34,8.52-8.9,38.94-5.23,66.57-29,95.82-54.16,25.85-22.24,52.58-45.23,87.67-54a13.25,13.25,0,0,0,1.73-2.26c9.46-14.33,21.53-26.62,33.2-38.5,19.2-19.55,37.32-38,43.44-64.05a5.33,5.33,0,0,1,5.19-4.11h33.29a5.32,5.32,0,0,1,5,7.3l-10,25.19c15.14-10.66,16.72-22.14,13.87-37.86a5.29,5.29,0,0,1,1.86-5.07l95.56-78.61a5.35,5.35,0,0,1,3.39-1.21h72.22l34.75-29.95a5.32,5.32,0,0,1,7.38.4l41.39,44.41a5.34,5.34,0,0,1,.18,7.08l1.4.7c6,3,12,6,17.93,9,5.24,2.68,10.76,5.24,16.1,7.71,12.57,5.81,25.57,11.83,36.81,20.29,11.54,8.69,19.21,4.24,29.83-1.92,6.95-4,14.85-8.6,24.09-8.16,23.37,1.15,47,.92,72.1.68,11.06-.11,22.5-.22,34.4-.22a5.33,5.33,0,0,1,4.78,7.69l-20.6,41.63H1812a5.33,5.33,0,0,1,5.23,4.28l1.93,9.6a5.34,5.34,0,0,1-3.27,6l-55.45,21.86,10.8,8.3,128.86-14.27,9.39-10L1901,872.44a5.33,5.33,0,0,1,2.09-8.31c1.47-.61,3.09-1.44,4.66-2.24,4.68-2.39,9.09-4.66,12.72-1.6,15.53,13.08,33.79,12.21,53.13,11.29,2.78-.13,5.56-.27,8.33-.36,31.73-1,61.38,8,90.06,16.67,8.86,2.69,18,5.46,27.14,7.92l20-12.65a5.33,5.33,0,0,1,6.63.76l38,38.3a5.34,5.34,0,0,1,1,6.08l-9.37,19.33,40.51-6.82a5.32,5.32,0,0,1,5.6,2.78l7.9,15,39.06,4.26a5.33,5.33,0,0,1,4.12,7.82l-7.08,13.26h23.14l28-44.05a5.33,5.33,0,0,1,4-2.45c99.39-9.41,175-71.8,248.05-132.15l9.84-8.11A5.3,5.3,0,0,1,2562,796h28.68a5.34,5.34,0,0,1,4.55,8.12c-17.59,28.77-10.74,55.86-3.49,84.54,3.51,13.89,7.13,28.21,7.7,42.67l53.21,19.38a5.33,5.33,0,0,1,.5,9.81l-25.26,12.26c8.69,4.72,16.38,1.1,27.66-5,9.17-5,19.57-10.64,31.53-8.12,16.27,3.42,33.36,2.62,51.45,1.76,6.92-.32,14-.66,21.13-.73l19.77-31.48a5.31,5.31,0,0,1,5.93-2.31c3.4.94,6.77,2,10,3,16.21,5,30.39,9.29,46,2.94-2.23-6.76-4.4-13.53-6.5-20.12-5.91-18.47-11.49-35.92-18.5-53.12l-1.31-3.23c-12.42-30.39-12.68-33.84,1.48-69.65l-23.93-23.94a5.33,5.33,0,0,1-.57-6.88l9.18-12.79-20.83-22a5.32,5.32,0,0,1-1.46-3.67v-26a5.33,5.33,0,0,1,2.09-4.23c17.19-13.2,36.36-18.36,55.45-22l-11.16-1.34a5.34,5.34,0,0,1-4.48-6.79c.84-2.89,1.57-5.86,2.35-9,1.76-7.15,3.57-14.54,6.9-21.46,15.76-32.8,28.28-49.19,60.85-59.58,33.82-10.78,51.09-31.81,68-62.24,2.62-4.72,5.11-9.6,7.74-14.77,13.22-26,28.15-55.31,64.29-66.48-1.75-27.39,10.1-50,22.61-73.84,4.67-8.9,9.49-18.08,13.55-27.56l-9.82-19.41a5.33,5.33,0,0,1,.69-5.86c8.77-10.34,18.28-19.91,27.47-29.17,22.91-23.06,44.54-44.84,54.35-76.75,3.88-12.63,15.53-22.09,26.78-31.25a178.83,178.83,0,0,0,13.72-11.91,5.34,5.34,0,0,1,3.77-1.56h.7c27.39,0,44.53-13.07,52.4-39.92,14.29-48.74,39.85-81.45,80.45-102.94a5.34,5.34,0,0,1,6,.67l34.58,29.68L3415.54.71a5.34,5.34,0,0,1,8,5.19c-.49,4.53-.56,8.86-.62,12.67-.12,8.1-.23,15.09-4.48,19.74-13.46,14.71-28.11,28.62-43.62,43.33-3.56,3.38-7.19,6.82-10.89,10.36l31.17,5.28a5.33,5.33,0,0,1,3.81,7.78L3391,119.7l54-13a5.31,5.31,0,0,1,3.2.22c15.65,6.14,27.4,17.64,30.67,30a23.93,23.93,0,0,1-4.62,22c-9.64,11.93-9.41,24.1-9.17,37,.18,9.14.36,18.59-2.89,28.27a5.41,5.41,0,0,1-1.28,2.08l-23.26,23.25,13.89,47.24a5.29,5.29,0,0,1,.1,2.65c-.12.52-.24,1.45-.38,2.44-.45,3.41-1.15,8.55-3.38,13.21-9.4,19.62-20,39-30.29,57.7C3395.43,413,3372.52,454.8,3361,500.93c-2.27,9.11-11.35,15.09-21.87,22-4.13,2.72-8.38,5.53-12.42,8.65v26.87l65.71-78.3a5.31,5.31,0,0,1,4.08-1.91H3438a5.34,5.34,0,0,1,3.78,9.11L3402,527.13l1,1.18,79.23-51.49a5.32,5.32,0,0,1,6.71.74l59.75,60.95a5.37,5.37,0,0,1,1.51,4,5.31,5.31,0,0,1-1.95,3.83l-45.55,37.26,4.33,8.89,23-12.89a5.33,5.33,0,0,1,7.88,3.88l3.81,25.81,3.08-11.91a5.33,5.33,0,0,1,3.74-3.81l-5.19-20.45a5.31,5.31,0,0,1,1.06-4.71l10.47-12.72c5.91-7.19,10.18-12.38,14.62-17.62s9.13-10.58,14-16.13c2.22-2.53,4.5-5.13,6.85-7.83a5.32,5.32,0,0,1,6.4-1.26l42.59,21.23a5.33,5.33,0,0,1,1.68,8.24l-6.91,8.07h44.5a5.33,5.33,0,0,1,3.67,1.47l28.83,27.39,29.15-14.51a5.33,5.33,0,0,1,5.92.8l22.49,20.08a5.34,5.34,0,0,1,.21,7.75L3734.28,628l29.85-5a5.35,5.35,0,0,1,6.1,4.17l2.33,11.17a5.33,5.33,0,0,1-2.82,5.86l-72.11,36.38c8,14.47,20.68,13.57,36.36,12.46,9-.63,18.23-1.29,26.78,1.38a5.34,5.34,0,0,1,3.16,2.66l15.48,30.14a5.34,5.34,0,0,1-2.37,7.21l-65.18,32.33a5.43,5.43,0,0,1-2.37.56h-25.3l-6.9,20.29a5.35,5.35,0,0,1-5.05,3.62h-89.83l-3.93,12.22c4.42,3,10.67,4.27,17.22,5.65,15.43,3.24,36.55,7.68,33.43,41a5.33,5.33,0,0,1-5.31,4.84h-69.13l-2.46,44.85a5.32,5.32,0,0,1-5.32,5h-63.12c-14.48,24.6-27.18,35.07-64,53.69a5.34,5.34,0,0,1-5.64-.52L3403.5,950l-86.13,28.15-23,28.61a5.34,5.34,0,0,1-4.16,2h-32a5.34,5.34,0,0,1-5.2-4.14l-4.36-18.86-38.34-2.88a5.36,5.36,0,0,1-3.11-1.31l-26.45-23.19-57.49,22.4a5.29,5.29,0,0,1-4.15-.11l-22-10.06-3,13.54,78.13,3.94a5.34,5.34,0,0,1,2.94,9.59l-39.38,29.63L3114,1080a5.33,5.33,0,0,1-10.06-.58l-8-28.11c-29.73-.42-49.9-18.91-69.44-36.83-12.15-11.14-24.68-22.63-39.57-29.89-1.58,1.66-3.16,3.34-4.74,5-5.79,6.16-11.78,12.52-18.25,18.42-6.11,5.55-12.75,10.69-19.79,16.13l-5,3.87,41.17,30.11a5.32,5.32,0,0,1,1.67,6.58c-1,2.23-1.88,4.54-2.69,6.78-1.87,5.2-3.63,10.11-7.88,12.93-2.36,1.56-4.72,3.14-7.07,4.72-24,16.08-48.88,32.71-81,35.69-12.19,1.12-24.35,5.07-39.76,10.06l-5,1.63,15.13,2.39a5.34,5.34,0,0,1,3,9l-4.07,4.16c10.61.5,21.45.1,32-.3,24.24-.9,49.29-1.83,73.4,7.61,7.73-.73,15.68-1.56,23.38-2.36,19.15-2,38.95-4,58.72-5,19-.91,37.87-.7,57.82-.49,8.82.1,17.94.2,27.21.2a5.34,5.34,0,0,1,5.34,5.33v32.71a5.31,5.31,0,0,1-2.63,4.6c-3.09,1.82-6.54,3.42-9.88,5-12.47,5.78-24.26,11.24-24.15,28.73a5.33,5.33,0,0,1-3.66,5.1l-64.91,21.37a5.33,5.33,0,0,1-6.34-7.65l15.26-27.59-16.13-17.8v55.4a5.33,5.33,0,0,1-9.68,3.09l-23.49-33c-30-4.09-53.16,3-77.31,24.19l26.74,4.94a5.33,5.33,0,0,1,4.27,6.24c-.13.71-.24,1.78-.34,2.81-.41,4.07-.87,8.68-5.29,9.87a93.77,93.77,0,0,1-13.08,2.24c-9.17,1.1-17.09,2.06-24.8,9.09-6.31,5.75-17.33,2.89-30.08-.41-3.7-1-7.48-1.94-11.15-2.7l-5.27,15.34a5.33,5.33,0,0,1-8.19,2.58l-14.14-10.36c-30.17,18.84-64.73,16.89-100.24-5.71-9.13-3.47-16-10.42-22.56-17.15-7.59-7.73-14.79-15-25.1-17.22l-1.38,1.27-.46.41c15.66,15.75,31.37,31.46,47.5,47.58l11.75,11.75a5.33,5.33,0,0,1,.68,6.71c-17.38,26.36-42.06,24.31-63.84,22.49-12.09-1-23.57-2-34.18,1.09v29.39a5.33,5.33,0,0,1-5.07,5.33l-46.72,2.32a5.47,5.47,0,0,1-4-1.56l-19.35-19.34,4.4,21.41a5.32,5.32,0,0,1-2.25,5.5L2535.85,1405l10.85,12a5.33,5.33,0,0,1-2.51,8.7c-17.5,5-35.28,4.51-52.47,4.08-24.08-.59-46.81-1.16-66.7,12.85a5.32,5.32,0,0,1-6.66-.41l-10.9-9.94c-24.27,34.25-61.71,42.09-98,49.69l-2.72.57-6.87,19.94a5.34,5.34,0,0,1-4.48,3.57c-23.88,2.54-31.75-12.66-38.68-26.07-.66-1.27-1.32-2.55-2-3.82l-3.57,23.86a5.33,5.33,0,0,1-4.7,4.51l-27.88,3-8,20.81a5.35,5.35,0,0,1-8.41,2.18l-9.63-8.08-4.55,14.19a5.32,5.32,0,0,1-4.14,3.62l-107.2,19.22v40.76a5.35,5.35,0,0,1-6,5.3c-9.51-1.19-18.57-2.76-27.33-4.29-18.41-3.2-35.8-6.22-52-4.37-14.53,1.66-29,8.68-44.31,16.11-7.29,3.53-14.83,7.19-22.78,10.48a5.34,5.34,0,0,1-7.08-3.17l-19.45-55.72-14.2,26.68,17.9,22.67a5.34,5.34,0,0,1-5.63,8.44l-34.43-9.65-37.89,11.16-21.11,32.91a5.32,5.32,0,0,1-5.81,2.28c-6-1.53-11.68-2.74-17.2-3.92-11.86-2.53-23.07-4.92-33.16-9.78-9.8-4.71-18.5-11.73-29.52-20.62-2.65-2.13-5.47-4.4-8.5-6.8l13.31,65.43a5.33,5.33,0,0,1-7.51,5.88c-5.6-2.64-10.14-4.93-14.14-7-7.26-3.67-12.07-6.1-17-7.52-6.32-1.8-13-2.6-20-3.44-3-.36-6.17-.74-9.26-1.2a5.34,5.34,0,0,1-4-2.85,114,114,0,0,1-4.68-11c-5.1-13.19-9-23.15-24.5-21.62l24.53,47.63a5.65,5.65,0,0,1,.29.67c1.19,3.41.42,7.35-.55,12.33-2.19,11.2-5.19,26.53,12.65,40.35a5.33,5.33,0,0,1-1.26,9.16l-50.3,20.38-8.82,24.37a5.33,5.33,0,0,1-10.16-.4l-7.57-27.63-47.46,7.45a5.33,5.33,0,0,1-4.6-1.5l-18-18-19.88,9.67a5.32,5.32,0,0,1-7.6-4l-5.29-33.81-17.78,18.28c-4.22,6.32-9.56,8.12-13.34,8.5-10.68,1.06-24-7-41.82-25.48a5.33,5.33,0,0,1-1.37-4.9l17.34-75.15a5.35,5.35,0,0,1,1.3-2.45l16.63-17.78c-2.5-.79-5.75-1.76-6.74-1.46-20.92,10.55-41.94,22.06-64.2,34.25q-9.42,5.16-19.36,10.58l31,76.88a5.34,5.34,0,0,1-7.3,6.79l-20.39-10-31.61,26.67a5.33,5.33,0,0,1-8.42-2.17L1285.42,1699h-23l-8.24,23.36a5.33,5.33,0,0,1-6.59,3.32l-49-14.93,9.72,36.8a5.34,5.34,0,0,1-2,5.63l-35.7,26.83,13.34,19.19,22.28-12.43a5.35,5.35,0,0,1,6.17.69l6.91,6.21a5.34,5.34,0,0,1,.9,6.89l-7.36,11.28,30.65,6.08a5.33,5.33,0,0,1,4.29,5.39l-.2,7.05a5.33,5.33,0,0,1-5.08,5.17l-62.56,3c10.63,11,18.28,14.29,37.42,18.56a5.33,5.33,0,0,1,3,8.52L1213,1875l18.78,9.18a5.35,5.35,0,0,1,1.51,8.48l-18.12,18.94a5.32,5.32,0,0,1-6.37,1c-13-6.92-24-16-35.58-25.66-15.19-12.59-30.82-25.55-51.49-33.36,2,5.7,3.58,10.2,6.19,12.68,6.34,6,14.12,11,21,15.36,2.83,1.81,5.5,3.51,8,5.22a5.32,5.32,0,0,1,.74,8.16l-86.33,86.33a5.32,5.32,0,0,1-4.39,1.53l-47.55-5.6v13.32l46.46,7.08a5.34,5.34,0,0,1,1.27,10.19l-60.77,25.52-3.25,15.82a5.34,5.34,0,0,1-6.6,4.08l-25.79-6.92,8.87,30.43a5.34,5.34,0,0,1-1.51,5.41c-13.26,12.2-30.64,15.33-47.44,18.35-21,3.78-40.93,7.36-56,26.59l40,10.3a5.33,5.33,0,0,1,3.08,8.16c-1.74,2.56-3.32,5-4.85,7.36a132.46,132.46,0,0,1-9.88,14c-5.48,6.48-11.39,12.72-18.23,20-3.21,3.39-6.67,7-10.47,11.14a5.35,5.35,0,0,1-8.52-.95l-12.18-20.94-4.49,28.5a5.35,5.35,0,0,1-7.13,4.17L818,2199.88l-20.66,48.58a5.35,5.35,0,0,1-4.82,3.25,5.43,5.43,0,0,1-4.93-3.08l-10.16-21.75-3.26,37.79a5.34,5.34,0,0,1-5.31,4.88H716.51l-17.4,35.69A5.34,5.34,0,0,1,689,2302.9v-52.69l-9,19a5.34,5.34,0,0,1-9.17.81l-34.55-48.55,13.37,61a5.34,5.34,0,0,1-1.65,5.11c-18.94,17-35.09,7.59-48.06,0-3.26-1.9-6.41-3.73-9.49-5.14l-30.88,59.11,14.68,28.64a5.33,5.33,0,0,1-6.92,7.3l-58.16-25.94,13.42,36.23a5.33,5.33,0,0,1-4.21,7.13L487,2399.65,500.12,2434a5.32,5.32,0,0,1-5,7.23ZM433,2342.88a5.57,5.57,0,0,1,1.22.14,5.37,5.37,0,0,1,3.75,3.27l1.26,3.24c10.65,27.52,20.06,51.83,44.73,71.95l-9.22-24.22a5.34,5.34,0,0,1,4.19-7.18l31.41-4.69-15.55-42a5.34,5.34,0,0,1,7.18-6.73l55.91,24.94-9-17.62a5.33,5.33,0,0,1,0-4.9l34.38-65.79a5.32,5.32,0,0,1,6.33-2.61c5.54,1.75,10.74,4.77,15.77,7.7,13,7.57,21.86,11.89,33.23,3.18l-13.93-63.54a5.33,5.33,0,0,1,3.5-6.2l7.88-2.66a5.33,5.33,0,0,1,6,2l32.21,45.25,8.44-17.83a5.33,5.33,0,0,1,5.67-3l6.82,1.11a5.34,5.34,0,0,1,4.48,5.26v37.82l8.73-17.92a5.35,5.35,0,0,1,4.8-3H764l4.56-52.76a5.33,5.33,0,0,1,10.14-1.8l13.54,29,18-42.26a5.34,5.34,0,0,1,6.77-2.92l22.57,8.39,5.82-36.88a5.34,5.34,0,0,1,9.88-1.85l16.12,27.7,5.63-6c6.72-7.11,12.53-13.24,17.82-19.5a124,124,0,0,0,9.08-12.86l.81-1.27-40.16-10.35a5.33,5.33,0,0,1-3.19-8c17.91-28.61,44.18-33.33,67.36-37.5,14.84-2.67,28.91-5.2,39.63-13.59l-10.55-36.21a5.34,5.34,0,0,1,6.5-6.65l29.47,7.9,2.68-13a5.31,5.31,0,0,1,3.16-3.85l45.88-19.27-32.25-4.91a5.34,5.34,0,0,1-4.53-5.28v-23.9a5.32,5.32,0,0,1,1.79-4,5.23,5.23,0,0,1,4.16-1.31l50.94,6,79.88-79.88-2.29-1.46c-7.26-4.64-15.5-9.89-22.59-16.63-4.48-4.26-6.54-10.13-8.92-16.93-1.1-3.15-2.24-6.4-3.73-9.83a5.33,5.33,0,0,1,6.28-7.27c28.22,7.58,47.34,23.43,65.83,38.77,10.09,8.36,19.67,16.31,30.28,22.5l10.22-10.69-18.17-8.89a5.32,5.32,0,0,1-1.83-8.1l6.34-8c-19.28-5.06-27.65-11-42.42-28.32a5.33,5.33,0,0,1,3.8-8.8l59-2.79-24.23-4.8a5.34,5.34,0,0,1-3.42-8.15l9.18-14.07-.68-.61-23.18,12.93a5.32,5.32,0,0,1-7-1.62l-19-27.37a5.33,5.33,0,0,1,1.17-7.31l37-27.76-11.25-42.59a5.34,5.34,0,0,1,6.71-6.47l53.27,16.24,7.79-22.1a5.32,5.32,0,0,1,5-3.56h30.49a5.33,5.33,0,0,1,5,3.42l23.51,61.36,28.53-24.08a5.35,5.35,0,0,1,5.79-.71l11,5.39-27.6-68.39a5.34,5.34,0,0,1,2.4-6.68c8.11-4.41,15.92-8.68,23.51-12.84,22.34-12.23,43.43-23.78,64.58-34.44,4.67-2.36,9.93-.68,15.5,1.1a69.24,69.24,0,0,0,6.92,1.94,5.33,5.33,0,0,1,2.82,8.87l-21.61,23.12-16.37,70.91c18.27,18.41,27.26,20.62,31.07,20.21,1.43-.14,3.59-.72,5.73-4.09a5.15,5.15,0,0,1,.68-.86l25.58-26.3a5.33,5.33,0,0,1,9.09,2.89l5.82,37.23,16.81-8.18a5.33,5.33,0,0,1,6.11,1l18.79,18.79,49.5-7.77a5.33,5.33,0,0,1,6,3.86l4.39,16,3.88-10.72a5.54,5.54,0,0,1,3-3.22l44.62-18.07c-15.53-16.45-12-34.6-10-44.86a38.62,38.62,0,0,0,1-6.63l-27.55-53.48a5.34,5.34,0,0,1,3.46-7.62c30.44-7.57,38.15,12.37,43.78,26.92,1,2.63,2,5.15,3.05,7.5,2.06.28,4.14.53,6.17.77,7.12.85,14.49,1.74,21.62,3.77,6,1.7,11.41,4.45,18.95,8.26l4.22,2.13-14-68.9a5.34,5.34,0,0,1,8.44-5.32c7.83,5.89,14.33,11.13,20.07,15.76,10.9,8.78,18.77,15.13,27.46,19.31,8.93,4.3,19,6.46,30.76,9,4.47,1,9.07,1.93,13.87,3.09l20.11-31.36a5.36,5.36,0,0,1,3-2.24l41.28-12.16a5.34,5.34,0,0,1,2.94,0l20.13,5.64-9.9-12.54a5.33,5.33,0,0,1-.53-5.81l21.57-40.51a5.33,5.33,0,0,1,9.74.75l21.59,61.83c5.82-2.57,11.49-5.32,17-8,16.16-7.84,31.42-15.24,47.76-17.11,17.75-2,35.87,1.12,55.06,4.46,6.75,1.18,13.69,2.39,20.83,3.41V1555a5.34,5.34,0,0,1,4.39-5.26l108.44-19.43,6-18.7a5.33,5.33,0,0,1,8.51-2.46l10,8.38,6.48-16.87a5.3,5.3,0,0,1,4.4-3.39l27-2.94,5.06-33.74a5.34,5.34,0,0,1,9.36-2.65c4.49,5.34,7.58,11.32,10.57,17.1,6.1,11.79,10.64,20.57,24.2,20.57h.56l6.7-19.45a5.33,5.33,0,0,1,3.94-3.48l5.69-1.19c37.53-7.86,73-15.29,94.63-50.19a5.33,5.33,0,0,1,8.12-1.13l12.43,11.32c21.85-13.6,46.06-13,69.51-12.41,13.49.33,27.35.68,40.71-1.72l-8.88-9.84a5.33,5.33,0,0,1,1-8l31.62-21.29-7.25-35.33a5.33,5.33,0,0,1,9-4.84l30.25,30.24,39.28-1.94v-28.16a5.34,5.34,0,0,1,3.43-5c13.83-5.28,28.3-4.07,42.3-2.9,20.28,1.69,37.94,3.16,51.54-14.23l-8.56-8.55c-16.15-16.14-31.88-31.87-47.56-47.64-3.6-3.62-4.85-7-3.72-10,.9-2.39,2.62-4,4.61-5.76.87-.8,1.86-1.69,3-2.85a5.35,5.35,0,0,1,4.43-1.52c15.34,1.9,25.16,11.91,33.83,20.74,6.18,6.29,12,12.23,19.14,14.79a6,6,0,0,1,1.08.53c33.06,21.21,64.92,22.64,92.15,4.12a5.32,5.32,0,0,1,6.15.11l11.27,8.25,4.4-12.83A5.35,5.35,0,0,1,2851,1272c5.49.85,11.12,2.3,16.56,3.71,6.35,1.65,18.18,4.71,20.22,2.85,10.24-9.33,21.12-10.64,30.71-11.8,2.76-.33,5.42-.65,8-1.13l-31.37-5.81a5.33,5.33,0,0,1-2.77-9c29.91-29.52,58.7-39.67,96.26-33.93a5.29,5.29,0,0,1,3.53,2.17l15.14,21.24v-52.55a5.33,5.33,0,0,1,9.29-3.58l28,30.87a5.34,5.34,0,0,1,.71,6.17l-10.52,19,48.46-16c1.67-21.32,18.05-28.92,30.19-34.54,2.22-1,4.36-2,6.33-3v-24.23c-7.49,0-14.84-.11-22-.19-19.8-.22-38.5-.42-57.2.47-19.48.93-39.12,3-58.12,4.94-8.16.85-16.59,1.73-24.78,2.49a5.36,5.36,0,0,1-2.5-.37c-22.36-9.09-45.6-8.23-70.21-7.31-14.7.54-29.9,1.11-44.79-.67a5.34,5.34,0,0,1-3.18-9l4.79-4.91-27.74-4.39a5.33,5.33,0,0,1-.62-10.4c10-2.86,19-5.75,26.83-8.3,16-5.2,28.7-9.3,42.07-10.54,29.45-2.72,52.1-17.88,76.07-33.93l7.12-4.75c1.29-.86,2.59-4.46,3.73-7.64.42-1.15.86-2.37,1.35-3.64l-43.44-31.75a5.34,5.34,0,0,1-.17-8.48c3.72-3,7.25-5.7,10.61-8.3,7.16-5.53,13.35-10.31,19.13-15.58,6.17-5.62,12-11.83,17.67-17.84,2.5-2.66,5-5.29,7.46-7.85a5.33,5.33,0,0,1,6-1.19c18,7.81,32.19,20.8,45.88,33.36,19.72,18.08,38.36,35.18,66,34a5.39,5.39,0,0,1,5.36,3.88l4.91,17.29,16.49-39.86a5.4,5.4,0,0,1,1.72-2.23L3157,998l-69.74-3.52a5.34,5.34,0,0,1-4.94-6.48l5.78-26.14a5.34,5.34,0,0,1,7.43-3.7l26,11.86,58.4-22.76a5.31,5.31,0,0,1,5.46,1l27.54,24.14,40.47,3a5.32,5.32,0,0,1,4.8,4.12l4.29,18.55h25.23l22.37-27.85a5.32,5.32,0,0,1,2.5-1.74L3402.86,939a5.31,5.31,0,0,1,4.89.83l10.19,7.77c34.24-17.51,44.35-26.47,58.15-50.63a5.33,5.33,0,0,1,4.63-2.68h61.14l2.45-44.85a5.33,5.33,0,0,1,5.33-5h69.14c.29-19.39-10.6-21.68-25.28-24.76-9-1.9-18.37-3.87-25-10.54a5.34,5.34,0,0,1-1.29-5.39l6.23-19.35a5.33,5.33,0,0,1,5.08-3.7h89.89l6.9-20.3a5.32,5.32,0,0,1,5-3.61h27.87l59.21-29.37-11.94-23.23c-6.17-1.4-13.28-.89-20.77-.36-17.09,1.21-38.38,2.72-49.09-23.51a5.33,5.33,0,0,1,2.53-6.78l73.1-36.88-.45-2.15-41.21,6.89a5.33,5.33,0,0,1-4.66-9l42.39-42.42-15.58-13.92-29.25,14.56a5.32,5.32,0,0,1-6.05-.91l-30-28.49h-53.94a5.33,5.33,0,0,1-4.05-8.8l10-11.68-32.79-16.35c-1.41,1.61-2.79,3.19-4.16,4.74-4.84,5.52-9.42,10.74-13.88,16s-8.64,10.34-14.52,17.49c-2.58,3.15-5.46,6.65-8.76,10.65l8.07,31.78a5.34,5.34,0,0,1-9,5l-.67-.69-7.31,28.26A5.33,5.33,0,0,1,3535,637l-6.52-44.23-21.13,11.86a5.32,5.32,0,0,1-7.4-2.32l-8.66-17.76a5.33,5.33,0,0,1,1.42-6.47l44.3-36.23-52.6-53.67L3405,539.78a5.34,5.34,0,0,1-6.93-1l-7.35-8.43a5.33,5.33,0,0,1,.25-7.28l34.15-34.18H3399l-73.52,87.62a5.33,5.33,0,0,1-9.42-3.43V529a5.34,5.34,0,0,1,1.95-4.13A184.15,184.15,0,0,1,3333.28,514c8.29-5.46,16.12-10.62,17.39-15.69,11.83-47.47,35.08-89.85,57.56-130.83,10.2-18.59,20.74-37.82,30-57.18,1.5-3.14,2-7.12,2.43-10q.14-1,.27-1.86l-14.44-49.08a5.33,5.33,0,0,1,1.35-5.27l24.57-24.58c2.28-7.57,2.13-15.33,2-23.52-.26-13.56-.55-28.94,11.53-43.89a13.46,13.46,0,0,0,2.61-12.51c-2.25-8.5-11.29-17.26-22.73-22.18l-63.89,15.44a5.33,5.33,0,0,1-5.95-7.7l10-18.62-34.3-5.8a5.34,5.34,0,0,1-2.82-9.1c6.4-6.18,12.6-12.06,18.59-17.75,15.38-14.58,29.9-28.36,43.1-42.79,1.51-1.66,1.6-7.28,1.69-12.71,0-1.13,0-2.31.06-3.53l-52.1,29.9a5.33,5.33,0,0,1-6.13-.58L3319.4,14.45c-36.05,20.07-59,50.28-72,94.78-9.11,31.09-29.68,47.09-61.16,47.57-4,3.86-8.55,7.53-12.94,11.09-10,8.15-20.38,16.58-23.31,26.11-10.58,34.42-34.17,58.16-57,81.13-8.24,8.3-16.73,16.85-24.6,25.87l9.32,18.43a5.34,5.34,0,0,1,.17,4.44c-4.43,10.73-9.75,20.88-14.9,30.7-12.41,23.65-24.13,46-21.05,72.19a5.34,5.34,0,0,1-4,5.79c-34.68,8.89-48.48,36-61.82,62.22-2.56,5-5.21,10.22-7.93,15.11-17.68,31.81-37,55.41-74.09,67.23-29,9.25-39.81,23.5-54.47,54-2.85,5.92-4.53,12.77-6.16,19.39l-.84,3.38,39.82,4.79a5.34,5.34,0,0,1,.51,10.51c-7.45,1.64-14.91,2.93-22.12,4.17-22.05,3.79-42.91,7.38-61.31,20.62v21.2l22.4,23.69a5.35,5.35,0,0,1,.45,6.78l-9.1,12.68,23.22,23.21a5.35,5.35,0,0,1,1.18,5.75c-14.48,36.41-14.48,36.41-2.82,64.94l1.32,3.24c7.17,17.58,13.07,36,18.78,53.89,2.56,8,5.21,16.32,8,24.5a5.31,5.31,0,0,1-2.58,6.42c-21.11,11-39.93,5.28-58.13-.29-1.95-.6-3.94-1.21-5.94-1.79l-19.19,30.56a5.33,5.33,0,0,1-4.52,2.5c-7.8,0-15.83.38-23.59.74-18,.84-36.54,1.72-54.15-2-8.11-1.7-15.94,2.55-24.24,7.05-12.78,6.95-28.7,15.59-46.57-1.51a5.34,5.34,0,0,1,1.36-8.66l21.73-10.54-44.8-16.31a5.36,5.36,0,0,1-3.51-5c0-14.41-3.63-28.7-7.45-43.83-6.85-27.09-13.91-55,.3-84.6h-17.78l-8.36,6.89c-73.69,60.85-149.88,123.74-251.23,134.28l-28.2,44.34a5.34,5.34,0,0,1-4.5,2.47h-35a5.33,5.33,0,0,1-4.7-7.85l7.55-14.15-34-3.71a5.34,5.34,0,0,1-4.15-2.82L2193.88,952,2147,959.86a5.33,5.33,0,0,1-5.69-7.58l12.23-25.23-32.34-32.58-18.39,11.61a5.3,5.3,0,0,1-4.2.64c-10.06-2.64-20.08-5.68-29.76-8.62-29.13-8.83-56.69-17.17-86.61-16.21-2.72.08-5.44.21-8.17.34-19.86.95-40.37,1.93-58.64-12.26-.59.27-1.28.61-1.93.94l7.22,8.81a5.33,5.33,0,0,1-.25,7l-13.94,14.83a5.37,5.37,0,0,1-3.3,1.65l-133,14.72a5.28,5.28,0,0,1-3.84-1.07l-20-15.35a5.33,5.33,0,0,1,1.3-9.19l60-23.68-.19-.94H1688.33a5.33,5.33,0,0,1-4.78-7.7l20.59-41.61q-13.2.06-25.69.2c-25.23.25-49.06.48-72.73-.68-6.07-.31-12,3.11-18.22,6.73-10.87,6.3-24.4,14.16-41.6,1.21-10.33-7.77-22.25-13.29-34.87-19.13-5.43-2.52-11-5.12-16.48-7.89-5.92-3-11.88-6-17.84-9-2.7-1.35-5.4-2.69-8.09-4.05a5.33,5.33,0,0,1-1.34-8.58l1.26-1.23-34.34-36.84-32.36,27.89a5.31,5.31,0,0,1-3.48,1.3h-72.29l-91.71,75.44c3.69,25.37-5.82,40.58-33.14,53.61a5.33,5.33,0,0,1-7.26-6.78l12.71-32h-21.31c-7.65,26.79-26.69,46.18-45.14,65-11.31,11.52-23,23.44-31.91,36.91-2,2.95-4.23,5.79-7.67,6.64-32.82,8.1-57.52,29.35-83.67,51.84-28.94,24.9-58.85,50.63-100.47,56.53a3,3,0,0,0-.36.5c-3.76,21.09-19.66,26.56-33.69,31.4-5.64,1.94-11.44,3.94-16.65,6.89,3.49,11.45-2,22.07-7,31.58-6.25,12-10,20.27-4.76,29.65l57.17-12.35a5.33,5.33,0,0,1,4.4,1l36,27.94c1.71-2,3.36-3.84,5-5.67,5.18-5.87,9.65-10.94,13.28-16.3a141,141,0,0,0,9.44-17.22c1.2-2.45,2.33-4.77,3.49-7a5.33,5.33,0,0,1,3.57-2.73c77.45-17.15,80.62-17.85,122.74-7.3l9.35-9.35a5.34,5.34,0,0,1,8.1.64l22.28,30.74c40.36-19.9,82.26-19.46,122.83-19,9.55.1,19.43.2,29.08,0,1.18,0,2.45,0,3.67.09a36.08,36.08,0,0,0,4.77,0c17.53-22,35.22-13.19,49.46-6.08a82.15,82.15,0,0,0,13.21,5.71l18.06-12.67a5.33,5.33,0,0,1,5.52-.36l45.86,23.76c82.75-20.75,162.06-9.52,238.78,1.35,20,2.83,40.71,5.76,61.12,8.07a5.34,5.34,0,0,1-.32,10.63c-31.51,1.61-48.1,13.77-53.81,39.43a5.33,5.33,0,0,1-8.85,2.74l-18.3-17.18c-35.93,7.61-70.73,6.66-101.53,5.81-21.13-.59-41.11-1.14-59.18,1-6.23,3.52-11.69,6.9-16.54,9.9-10.28,6.35-18.39,11.36-27.61,14.21-16.18,5-32.82,9.14-48.93,13.16s-32.6,8.14-48.56,13.07c-38.93,12-74.7,26.93-85,75.86l49.57,39.87a5.32,5.32,0,0,1,1.92,3.26c3.65,21.29-6,37-27.92,45.36a5.33,5.33,0,0,1-7.22-5.42c2.48-29.89-15.21-44.43-32.31-58.5-8-6.56-15.56-12.79-20.85-20.35l-38.06-12c-1.77,5-3.56,10.1-5.39,15.29l-.8,2.29a5.4,5.4,0,0,1-3.38,3.3,5.34,5.34,0,0,1-4.67-.68L1142.86,1312a5.34,5.34,0,0,1,.64-9.18l26-12.92-8.37-11.72a5.35,5.35,0,0,1-.59-5.13c2.53-6.19,5-12.17,7.47-18,6.42-15.35,12.48-29.85,17.63-44.48.48-1.38-.93-5.22-1.86-7.76-.23-.64-.47-1.29-.7-1.94H1163c-18,31.87-26.93,43.82-49.44,50.23-12.35,3.52-24.93,7.43-37.1,11.21-34.83,10.83-70.85,22-107.29,25.86-51.1,5.38-97.32,23.91-145.46,58.34-9,6.46-19.13,11.23-28.88,15.85-15.5,7.33-30.13,14.25-40.83,27.38a5.29,5.29,0,0,1-3.67,1.94c-36.83,3.24-66.52,20.91-97.95,39.62-12.89,7.67-26.22,15.6-40,22.35l-2.76,1.35c-72,35.37-146.44,71.94-216.66,113.69-15.74,9.36-29.65,17.63-36.6,38.44,24.17-13.07,46.87-18.61,68.91-24l8.36-2.05c10.87-2.71,21.44-8.46,32.63-14.56,15.32-8.34,32.68-17.8,55.57-22.35a5.33,5.33,0,0,1,5.15,8.63c-18.3,22.17-41.76,33.29-64.45,44-28.94,13.72-53.94,25.56-61.8,57.84a5.33,5.33,0,0,1-5.18,4.07H355.81a5.35,5.35,0,0,1-4.8-3l-24.11-49.24c-18.66,11.91-37.92,22.37-56.61,32.51-42.61,23.12-82.86,45-114.58,82-17.33,20.21-37.58,38.4-57.16,56-28.75,25.83-58.39,52.46-81.46,87.29,18.86-7.17,29.53-21.22,40.72-35.94,7.17-9.44,14.58-19.19,24.19-26.5,16.82-12.81,32.25-28.32,47.16-43.32,9.89-9.94,20.12-20.22,30.76-29.75,18.43-16.49,37.85-32.34,55-46.34,7.21-5.89,14-11.45,20.41-16.77a5.34,5.34,0,0,1,3.42-1.24h71.53a5.34,5.34,0,0,1,3.8,9.08c-5.53,5.61-10.14,10.59-14.2,15-7.86,8.51-14.07,15.23-21.47,20.39-7.08,4.94-14.85,8.82-22.37,12.58-8.53,4.26-16.59,8.29-23.6,13.68-73.27,56.3-110.13,138.33-145.77,217.66-4.26,9.48-8.66,19.27-13.07,28.9l27.31,50.73a5.39,5.39,0,0,1,.61,3.08c-6.15,59.48,3.37,122.66,12.71,183.82l9-8a5.33,5.33,0,0,1,6.38-.54l46.12,28.92a5.33,5.33,0,0,1,1.14,8.08l-9.88,11c10.89,2.82,15.31-3.38,21.94-12.68,1.9-2.66,3.86-5.4,6.07-8L169.63,2182a5.32,5.32,0,0,1,1.81-6.56c7.47-5.22,13.4-6.91,18.63-5.3,7.07,2.18,9.84,9.47,12.29,15.91,1.64,4.32,3.5,9.21,6,10.27a6.77,6.77,0,0,0,4.42-.27l11.38-21.2a5.33,5.33,0,0,1,6.59-2.47l7.52,2.86a5.33,5.33,0,0,1,3.32,6l-11.15,55.28,2.9,1.73,33.07-35.44a5.33,5.33,0,0,1,9.16,2.78l19.92,121.62,45.8,51.61a5.41,5.41,0,0,1,1.27,2.66l3.43,20.53,60.2-30.86a5.33,5.33,0,0,1,1-6.72l22.21-20.2A5.33,5.33,0,0,1,433,2342.88ZM359.13,1648.1h32.33C401.56,1614,429,1601,458,1587.22c16-7.6,32.49-15.39,46.76-27.21-12.36,4.47-23,10.25-33.35,15.9-11.81,6.43-23,12.51-35.16,15.54l-8.41,2.07c-25.66,6.26-49.91,12.17-76.79,29.09a5.32,5.32,0,0,1-4,.69Z"/></g></g></svg>