<svg xmlns="http://www.w3.org/2000/svg" viewBox="0 0 2969.05 3700.67"><title>Asset 1</title><g id="Layer_2" data-name="Layer 2"><g id="Layer_1-2" data-name="Layer 1"><path d="M1412.26,2144.44a4.87,4.87,0,0,0-7.71-1.09c-.32.32-.87.77-1.41,1.22-2.17,1.77-5.13,4.19-4.3,7.92a30.77,30.77,0,0,0,3.48,8.13c.45.81.91,1.62,1.32,2.44a4.84,4.84,0,0,0,3.58,2.63,4.11,4.11,0,0,0,.78.07,4.87,4.87,0,0,0,3.44-1.43l5-5a4.86,4.86,0,0,0,.82-5.8Z"/><path d="M1622.13,2194.13c4.29-7.83,8.94-15.59,13.46-23.16,16.32-27.27,33.18-55.47,37.71-91.75a4.88,4.88,0,0,0-4.22-5.43c-13.08-1.68-26.06-4.4-32.47-12.87-3.54-4.69-5-11-4.35-19.11H1691c7.31,14.52,12.29,23.22,23.53,23.84,10.36.55,24.1-6,54.3-20.31a4.88,4.88,0,0,0,2.32-6.47c-2.66-5.65-7.54-9.92-12.26-14-9.74-8.51-17.62-15.4-8.95-32.69l35.9,38.27a4.94,4.94,0,0,0,3.78,1.54,4.87,4.87,0,0,0,3.62-1.88q3.4-4.36,6.86-8.75c32.78-41.71,69.94-89,52.32-155.88a4.88,4.88,0,0,0-2-2.78c-4.82-3.29-10.05-6.44-15.1-9.49-11.47-6.91-23.33-14.05-31.92-23.59-9.56-10.63-16.67-24.16-23.55-37.25-2.39-4.55-4.84-9.22-7.41-13.78l47.9-35a4.88,4.88,0,0,0,.59-7.36c-4.1-4.15-8-7.71-11.35-10.84-6.59-6.09-11.8-10.9-15-16.44-2.58-4.46-3.77-10-5-15.83a83.88,83.88,0,0,0-4.17-14.8c-2.32-5.52-10.7-15.66-17.88-14.58-19,2.88-28.64-8.51-38.87-20.56-6.22-7.33-12.65-14.91-21.22-18.58a4.83,4.83,0,0,0-3.73,0c-3.71,1.48-7.58,3.35-11.32,5.15a101.66,101.66,0,0,1-10.51,4.64c-22.93-23.2-43.65-12.69-62-3.41-7,3.54-13.59,6.89-20.22,8.49a4.89,4.89,0,0,0-3.43,3c-14.56,39.14,10.33,63.29,30.34,82.69,14.14,13.71,13.6,16.59-7.23,38.49-6.91,7.27-15.88,26.76-10,34.34,21.17,27.3,11.16,49.07-5.62,74-1-2.13-1.16-6.06-1.09-12.38.1-8.67.21-18.5-7.12-23.28-6.46-4.21-16.23-3-31.68,4.08a4.88,4.88,0,0,0-2.19,6.91l44.8,76.17-29,41.6c-2.66-3.27-5.33-6.62-8.1-10.09-9.46-11.85-19.25-24.12-30.15-35.43-18.89-19.64-36.14-42-34.52-72.77a14.14,14.14,0,0,1,2.25-2.42l13.38,10.86a4.88,4.88,0,0,0,7.84-4.8c-1.23-5.7-2.26-10.87-3.17-15.44-7.81-39.2-9.22-46.27-73.09-98.93a4.87,4.87,0,0,0-6-.14c-25,18.68-23.5,43.48-22.08,67.47.86,14.57,1.74,29.59-3.35,43.41-20.23-12.88-26.1-33.21-32.28-54.66-4.71-16.35-9.56-33.18-21.13-46.78l50.52-8.53a4.87,4.87,0,0,0,.53-9.49l-76.65-21.81a4.86,4.86,0,0,0-5.06,1.55c-15.21,18-25,11.84-38.43,3.25-4.53-2.88-9.17-5.83-14.16-7.79,1.84-2.36,3.66-4.61,5.45-6.81,7.21-8.92,13.44-16.62,16.6-25.85,2.28-6.65-2-14.12-6.21-21.36-.59-1-1.19-2.05-1.77-3.08l1.15-.29c5.82-1.47,10.41-2.63,15.06-4.16,3-1,4.09-3.71,5-5.91.33-.8.67-1.63,1.09-2.42a4.88,4.88,0,0,0-.92-5.76l-68.6-66.81v-57.16a4.85,4.85,0,0,0-1.75-3.74l-67.21-56.22c28.09-54.48,29.2-59,14.31-107.69l50.14,7.68a4.89,4.89,0,0,0,3.61-.87c25.51-18.59,31.5-47.4,37.85-77.9,4.88-23.47,9.93-47.74,24.34-68.8a4.88,4.88,0,0,0-3.59-7.61c-10.74-1-21-1.26-30.85-1.53-21-.58-39.08-1.08-54-7.93-19.07-8.72-36.17-8-52.69-7.2l-2.66.12c-12.27.53-33.78,10.56-37.22,22.79l-1.59,5.65c-14.9,52.85-30.32,107.5.11,161.41,19.54,34.61,21.36,72.22,5.14,105.91-7.36,15.27-2.49,24.67,1.43,32.23a51.51,51.51,0,0,1,3.13,6.81l-40,6.27a4.87,4.87,0,0,0-3.57,7.07c6,11.55,5.17,23.73,4.24,36.62-1.27,17.66-2.58,35.91,14.68,51.85.09,2.62-1.84,9.48-4.1,12.22-25.57,31.06-1.14,53.17,12,65,3.29,3,7.08,7.24,10.75,11.37,9.78,11,16.86,18.94,23.85,16.42,3.45-1.23,6.83,1.48,12,6.1,4.7,4.21,10,9,16.65,7.85,3.4-.59,6.43-2.57,9.31-6.15l1.41,1.81c5.14,6.62,10.46,13.46,17.07,18.95a5.9,5.9,0,0,0,3.11,1.37,4.12,4.12,0,0,0-.67.24,4.87,4.87,0,0,0-2.87,4.44c0,5.79.23,11,.42,15.56.39,8.87.69,15.88-.81,22.1-1.72,7.09-5.37,13.83-9.23,21-1.7,3.15-3.46,6.4-5,9.69a4.86,4.86,0,0,0,1.57,6.09l11,7.75a4.87,4.87,0,0,0,6.26-.53l21.68-21.71c1,2.11,2,4.28,3.14,6.51,5.08,10.36,10.85,22.1,9,31.28-3.71,18.73-21.7,36.69-32.09,45.73-7.62,6.63-18.21,10.27-30.46,14.48-6,2-12.14,4.17-18.5,6.82a4.88,4.88,0,0,0-2.8,5.85c1.51,5.25,3.21,10.52,4.86,15.62,3.83,11.84,7.44,23,9.1,34.61,1.6,11.28,1.24,23.2.85,35.83-.07,2.42-.15,4.87-.21,7.37a31.39,31.39,0,0,0-6.4-5.15c-22.37-12.92-33.6-19.4-36.8-27.43s.69-19.88,8.38-43.63l.13-.41a87.36,87.36,0,0,0,4.72-27.64c-.07-6.23-7.28-13.59-13.13-15.26-30.28-8.6-42.78-15.83-51.42-29.72a4.89,4.89,0,0,0-5.68-2.05l-62.22,20.73a4.87,4.87,0,0,0-1.35,8.55c12.58,9.23,10.05,15.54,5,28.12-1.4,3.49-2.85,7.1-4,11.12-1.63,5.46-2.87,10-4,14-1.89,6.92-3.83,14.07-5.26,14.78s-9.19-2.4-13.8-4.27c-32.34-13.13-66.88-13.38-102.66-.75-10.47,3.69-15.7,3.06-26.95.46-29.13-6.74-53-22-70.84-45.36a4.87,4.87,0,0,0-5.2-1.73c-4.58,1.29-8.79,3-12.87,4.54-6.8,2.67-13.23,5.19-17.1,4-7.27-2.3-10.69-9.54-14.65-17.92-5-10.54-11.1-23.51-27.45-26.39-.38-2.67-.71-7.33-1-11-.41-5.92-.88-12.63-1.77-17.6-3-16.37-8.77-27.18-17.73-33-7.79-5.1-17.88-6.24-30-3.38-9.95,2.36-20.65,3.82-31,5.23-31.22,4.26-63.49,8.66-79.39,38a4.85,4.85,0,0,0-.13,4.39l12.25,26.18a4.88,4.88,0,0,0,5.35,2.72c30.47-5.86,53-10.2,72.14-13,2.07,5.27,2.48,10.15,2.56,16.9C619,1883.5,601.69,1902,585,1920c-6,6.47-12.26,13.17-19.07,18.83a4.88,4.88,0,0,0,.07,7.55c43.65,35,29.36,67.89,9.78,109.06a73.79,73.79,0,0,0-7.41-8c-8.48-8.23-12.73-12.36-1.57-25,18.14-20.6,6.94-38.42-2.06-52.75-4-6.35-7.78-12.36-9.4-18.42a6,6,0,0,0-4.31-4.56c-3.68-.92-6.15,1.73-8.78,4.52-1.47,1.57-4.89,5.25-6.41,4.93-.1,0-2.53-.6-5.64-9-6.53-17.58-22.53-31.15-35.39-42.06-4.72-4-9.19-7.8-12.4-11.15a4.89,4.89,0,0,0-4.35-1.43c-94.33,16.33-171.94,24.22-238.11-33.41,16.89-32.41,46.56-34,80.68-32.64a4.88,4.88,0,0,0,4.76-6.56c-15-40.68-33.41-72-74.24-92.76-12.85-6.53-21.27.32-26.84,4.86-5.95,4.84-7.54,5.83-12.36,1.43-9.94-9.08-21.09-16.92-31.87-24.5-7.29-5.13-14.83-10.44-21.84-16-22-17.56-43.51-35.23-66.26-54q-14.3-11.78-29.05-23.86a4.86,4.86,0,0,0-7.65,2.06c-5.52,14.71-11,28.88-16.32,42.59-13,33.54-25.24,65.21-35.16,97.44-6.73,21.88-4.47,40.37,6.9,56.53,60.46,85.91,127.48,171.11,204.9,260.47,6.62,7.65,13.87,14.74,20.88,21.59,15.6,15.26,30.34,29.67,39.6,50.34,10.7,23.89,33.64,37,61.31,35,20.38-1.44,44.66,3.62,68.36,14.22,6.67,3,11.58,13,16.32,22.6,2.2,4.45,4.46,9.05,7,13.13,2.32,3.76,4.47,7.85,6.56,11.8,4.09,7.76,8.32,15.79,14.27,22.51,12.47,14.11,28.8,21.19,46.09,28.69l.26.11c34.06,14.77,70.05,23.33,104.85,31.6,25.74,6.13,52.36,12.46,77.76,21.23,37.46,12.93,76.62,19.36,118.09,26.17,16.92,2.78,34.37,5.65,52,9-5.67,38.53-5.41,77.78-5.15,115.78.29,43.17.6,87.82-7.66,132.34-10.85,58.53-8.23,120.38-5.7,180.19,1.11,26.21,2.26,53.32,2.26,79.79a4.87,4.87,0,0,0,4.88,4.87h450.77a4.87,4.87,0,0,0,4.87-4.87c0-8.27-.29-16.28-.58-24-.63-16.93-1.22-32.93,1.46-48,1.62-9.12,6.15-17.81,11-27,4.39-8.41,8.93-17.11,11.25-26.46,2.28-9.18,2.4-18.89,2.52-28.27.15-11.54.29-22.44,4.24-31.5,2.46-5.64,6.69-10.48,11.17-15.61,8.44-9.66,18-20.61,17-39.26-.2-3.84,6-10,11-15,7-7,14.23-14.2,13.92-22.41-1-26.05,14.47-33.72,37.87-45.33,3.27-1.63,6.65-3.31,10.11-5.1a4.87,4.87,0,0,0,.22-8.53l-25.9-15.17c5.23-.92,10.39-1.74,15.45-2.55,26.52-4.22,51.56-8.2,72.56-24.46a4.9,4.9,0,0,0,1.89-3.86v-45.68a4.87,4.87,0,0,0-2.61-4.31c-4.46-2.33-8.62-4.79-12.64-7.17-8.69-5.15-16.9-10-26-12.11-4-.93-8.35-3.71-13-6.66-7.82-5-16.69-10.59-26.26-8.2-4.53,1.13-8.65,3.91-12.46,8.44l-4.9-11.95c5.76.11,11.14-.21,16.06-.5,14.39-.84,25.76-1.51,37.83,8.11,5.17,4.12,13.83,5.33,25.73,3.58,17.54-2.58,40.79-11.79,47.44-21.39,1.66-2.39,1.47-5.07,1.25-8.17-.11-1.52-.23-3.25-.23-5.42a4.89,4.89,0,0,0-.94-2.88l-9.66-13.24c2.38-2.11,4-5,5.34-7.48,1.67-3,3.24-5.88,5.25-6.36,1.2-.29,4.11-.17,10.15,3.93,15.83,10.73,48.16,1.27,66.06-8.87,8-4.55,21.39-13.83,20.77-24.92-1.24-22.21,6.93-40.15,15.59-59.15,4.88-10.72,9.94-21.82,13.05-33.62,3-11.24,5.93-27.5-2.52-38.84C1637.37,2199.22,1630.84,2195.61,1622.13,2194.13Zm12.58,47.13c-2.9,11-7.57,21.24-12.5,32.07-8.77,19.24-17.83,39.12-16.45,63.74.18,3.33-4.64,9.54-15.84,15.89-17.91,10.14-45.22,16.45-55.79,9.28-7.17-4.85-12.85-6.55-17.9-5.34-6.19,1.49-9.14,6.84-11.5,11.13-1.71,3.11-3,5.3-4.21,5.3h-.1a4.88,4.88,0,0,0-3.94,7.75l12.31,16.87c0,1.78.15,3.26.24,4.5.06.83.13,1.81.12,2.38-4.59,5.7-23.16,14.3-40.5,16.85-8.61,1.26-15.44.68-18.24-1.56-15-11.95-29.32-11.11-44.48-10.21-7.09.41-14.42.85-22.47.07a4.87,4.87,0,0,0-5,6.7l11.26,27.44a4.87,4.87,0,0,0,8.74.56c3.81-6.7,7.73-10.6,11.67-11.58,5.52-1.38,11.91,2.68,18.68,7,5.12,3.26,10.42,6.62,16,7.92,7.6,1.76,14.83,6.05,23.21,11,3.34,2,6.79,4,10.47,6v40.32c-18.64,13.55-40.76,17.07-66.24,21.13-9.22,1.47-18.74,3-28.57,5.06a4.88,4.88,0,0,0-1.45,9l29.36,17.19-2,1c-23.88,11.85-44.5,22.08-43.28,54.42.15,4-5.81,9.9-11.07,15.15-7,7-14.23,14.21-13.8,22.39.76,14.7-6.72,23.27-14.65,32.34-4.77,5.46-9.7,11.1-12.76,18.12-4.74,10.87-4.9,23.28-5,35.27-.12,8.83-.23,18-2.24,26s-6.12,16-10.43,24.3c-4.93,9.45-10,19.22-11.91,29.81-2.86,16.13-2.25,32.63-1.6,50.1.23,6.12.46,12.4.54,18.8h-441c-.13-25.12-1.21-50.62-2.26-75.33-2.51-59.27-5.11-120.56,5.54-178,8.43-45.43,8.12-90.54,7.83-134.18-.28-40.94-.54-79.6,5.74-118.83a4.88,4.88,0,0,0-3.87-5.55c-19.3-3.8-38.4-6.93-56.86-10-41.05-6.75-79.82-13.11-116.49-25.77-25.86-8.93-52.71-15.32-78.68-21.5-34.4-8.18-70-16.64-103.24-31.06l-.26-.11c-17-7.36-31.62-13.71-42.66-26.2-5.17-5.85-8.95-13-12.95-20.61-2.16-4.09-4.39-8.32-6.88-12.36-2.27-3.68-4.33-7.88-6.52-12.33-5.51-11.19-11.21-22.76-21.09-27.18-25.13-11.25-51.07-16.6-73-15.05-23.42,1.64-42.77-9.31-51.73-29.31-10-22.35-26.11-38.09-41.68-53.32-6.87-6.71-14-13.66-20.33-21-77.2-89.11-144-174.06-204.28-259.7-9.66-13.72-11.43-29-5.56-48,9.81-31.9,22-63.42,34.93-96.79q6.82-17.62,14-36.33,12,9.88,23.78,19.55c22.77,18.74,44.28,36.43,66.37,54,7.24,5.77,14.9,11.16,22.32,16.37,10.53,7.41,21.42,15.07,30.9,23.73,11.21,10.22,19.56,3.42,25.09-1.07,5.79-4.72,9.4-7.22,16.27-3.73,35.74,18.15,53.14,45.42,66.93,80.66-33.43-.74-66.39,3.63-84.15,41.74a4.88,4.88,0,0,0,1.15,5.67c69.43,62.69,149.4,55.36,246.56,38.65,3.25,3.16,7.17,6.49,11.28,10,12,10.17,26.91,22.83,32.55,38,2.17,5.83,5.85,13.74,12.85,15.15,5.91,1.19,10.6-2.8,14-6.27a109.79,109.79,0,0,0,8.6,15.44c10.12,16.11,15.68,26.71,3,41.12-17.3,19.65-6.09,30.53,2.09,38.48,4.27,4.15,8.31,8.07,9.79,13.13a4.87,4.87,0,0,0,9.08.71l2.75-5.79c19.73-41.42,38.4-80.62-6.66-120,5.54-5.07,10.64-10.53,15.59-15.86,17.49-18.77,32.58-35,61.58-31a4.84,4.84,0,0,0,3.86-1.15,4.89,4.89,0,0,0,1.67-3.67c0-8.33,0-14.68-1.71-21.16,4.44.7,7.9.83,11.31,0,7.1-1.7,14.13-3.88,20.93-6,2.75-.85,5.51-1.71,8.27-2.53a4.9,4.9,0,0,0,3.28-6.07L696,1837.21a4.89,4.89,0,0,0-6.36-3.18c-2.64,1-5.3,1.92-8,2.86-6.61,2.33-13.44,4.74-20,7.7-4.28,1.93-7.21,5.45-12.54,11.83-.57.69-1.17,1.41-1.81,2.16-19,2.74-41,6.94-70.68,12.65L567,1850.77c14-23.1,41.67-26.88,70.93-30.87,10.58-1.45,21.53-2.94,31.94-5.4,9.53-2.26,16.86-1.59,22.4,2,6.61,4.32,11,13,13.48,26.63.8,4.44,1.24,10.86,1.64,16.53.93,13.51,1.32,19.1,6.76,19.61,13.11,1.22,17.49,10.49,22.56,21.24,4.31,9.12,9.19,19.47,20.52,23,7.15,2.27,15.14-.86,23.6-4.17,2.88-1.13,5.84-2.29,8.87-3.29,19,23.7,44,39.26,74.29,46.26,12.4,2.86,19.64,3.72,32.39-.77,33.46-11.82,65.67-11.61,95.75.59,9.86,4,16.38,6.65,21.78,4s7-8.76,10.34-21c1.08-4,2.31-8.48,3.91-13.82,1.07-3.59,2.43-7,3.75-10.28,4.38-10.9,8.88-22.12-1.62-33.72l50.69-16.88c10,14.06,24.53,22.09,54.9,30.72,2.21.63,5.81,4.46,6,6a77.72,77.72,0,0,1-4.25,24.52l-.13.42c-16.86,52-15.94,54.35,32.92,82.56,1.86,1.08,3.65,2.89,6.36,5.62,1.64,1.66,3.67,3.72,6.2,6.07a4.87,4.87,0,0,0,8.19-3.56c0-6.42.19-12.59.37-18.55.4-13.06.78-25.4-1-37.5-1.77-12.41-5.68-24.53-9.47-36.24-1.18-3.65-2.38-7.38-3.52-11.11,4.69-1.82,9.34-3.41,13.86-5,12.67-4.35,24.63-8.46,33.68-16.33,11.34-9.86,31-29.62,35.26-51.2,2.46-12.41-4.08-25.72-9.85-37.47a133.9,133.9,0,0,1-5.62-12.44,4.86,4.86,0,0,0-8-1.79l-23.9,23.93-4.18-3c1-1.89,2-3.77,3-5.61,4-7.37,8.11-15,10.13-23.31,1.83-7.56,1.5-15.17,1.08-24.81-.06-1.33-.12-2.71-.17-4.14l16.77,14.78a4.88,4.88,0,0,0,8.08-3.22l3.73-42.45a4.88,4.88,0,0,0-5.79-5.21c-2.31.46-4.23.76-5.87,1a35,35,0,0,0-8.21,2,70.5,70.5,0,0,0-8,4.3c-1.67,1-4,2.34-5.46,3-5.16-4.6-9.54-10.24-14.16-16.19-1.85-2.38-3.76-4.85-5.73-7.23a4.86,4.86,0,0,0-8,.77c-3.32,6.07-5.51,7-6.3,7.17-2,.33-5.44-2.76-8.49-5.49-5.21-4.67-12.3-11-21.18-8.22-2.8-1.08-9.7-8.83-13.88-13.53a164.19,164.19,0,0,0-11.49-12.11c-19.89-18-27.53-31.55-11-51.63,4-4.89,9.42-20,3.85-25-14.52-12.91-13.46-27.59-12.24-44.59.84-11.7,1.7-23.74-2.64-35.74l38.81-6.08a4.87,4.87,0,0,0,4.1-5.22c-.49-5.94-3-10.71-5.14-14.91-3.66-7.06-6.55-12.64-1.3-23.52,17.64-36.65,15.72-77.46-5.43-114.93-28.44-50.38-13.58-103,.78-154l1.59-5.65c1.77-6.3,17.88-15.24,28.27-15.7l2.67-.12c16.08-.72,31.27-1.41,48.2,6.34,16.76,7.67,36.7,8.22,57.82,8.8,7.23.2,14.63.41,22.24.89-12.15,20.8-16.85,43.4-21.41,65.32-5.81,27.93-11.31,54.35-32.47,70.82l-55.8-8.55a4.87,4.87,0,0,0-5.39,6.25c8.36,27.1,12.55,40.7,11,54.05s-9.13,28.09-24.15,57.2a4.86,4.86,0,0,0,1.2,6l68.46,57.26V1562a4.9,4.9,0,0,0,1.48,3.5L1310,1631.4c-.08.2-.17.43-.27.64-3.92,1.23-8,2.27-13.09,3.55l-7.1,1.81a4.89,4.89,0,0,0-3.24,6.67,97.49,97.49,0,0,0,4.89,9.22c2.66,4.59,6.28,10.87,5.44,13.33-2.6,7.59-8.33,14.67-15,22.87-3.24,4-6.59,8.14-10,12.85a4.87,4.87,0,0,0,3.27,7.7c5.91.83,11.69,4.51,17.82,8.4,13.08,8.34,29.26,18.64,49-2.8l52.94,15.06-38.48,6.49a4.88,4.88,0,0,0-2.4,8.48c14.52,12.65,19.62,30.34,25,49.06,6.9,23.94,14,48.69,41.69,63.24a4.88,4.88,0,0,0,6.65-2.17c8.48-17.41,7.41-35.55,6.37-53.1-1.31-22.19-2.45-41.52,15.23-56.71,58.18,48.11,59.24,53.46,66.68,90.8.15.7.29,1.43.44,2.17l-6.15-5a4.87,4.87,0,0,0-6.79.63,24,24,0,0,1-2,2c-2.54,2.33-5.72,5.23-5.94,9.35-1.93,34.58,16.74,59,37.21,80.29,10.58,11,20.23,23.08,29.56,34.76,4,5,8.19,10.26,12.28,15.19a4.87,4.87,0,0,0,7.75-.33l34.42-49.45a4.87,4.87,0,0,0,.21-5.25L1572.86,1847c11.89-4.72,16.05-3.49,17.34-2.65,2.84,1.85,2.76,8.84,2.69,15-.1,9.14-.24,21.67,11.22,24a4.88,4.88,0,0,0,5-2c19.14-27.76,34.17-55.47,8.11-89.22-.9-3.17,3.73-16.07,9.22-21.84,21.6-22.72,27.35-32.43,7-52.2-23-22.33-38.64-40.55-28.82-70,6.8-2,13.37-5.34,19.75-8.57,17.87-9,33.31-16.88,51.76,2.75,3.89,4.13,9.8,1.28,20.53-3.89,2.92-1.4,5.92-2.85,8.77-4.07,5.69,3.09,10.64,8.92,15.85,15.06,10.38,12.23,23.29,27.42,47.38,23.95,1.81.64,6.32,5.09,7.81,8.66a74.34,74.34,0,0,1,3.63,13.09c1.36,6.32,2.77,12.86,6.12,18.65,3.94,6.81,9.62,12.07,16.82,18.72,2.17,2,4.52,4.17,7,6.55l-46.8,34.24a4.87,4.87,0,0,0-1.32,6.39c3.25,5.55,6.36,11.48,9.37,17.21,7.16,13.62,14.56,27.71,24.94,39.24,9.56,10.62,22,18.14,34.13,25.42,4.6,2.78,9,5.41,13.13,8.17,15.29,61.26-18.41,104.13-51,145.61l-3.38,4.3-36.54-39a4.88,4.88,0,0,0-4-1.51,4.83,4.83,0,0,0-3.66,2.27c-17.79,28.53-3.09,41.38,7.64,50.77a71.76,71.76,0,0,1,7.11,6.78c-23.73,11.25-37.21,17.4-44.52,17-6-.33-9-5.7-16.69-21.16a4.87,4.87,0,0,0-4.36-2.69h-66.06a4.86,4.86,0,0,0-4.82,4.15c-1.9,12.75,0,23,5.74,30.58,7.66,10.12,20.61,13.89,34.11,16-5.12,32-20.66,58-35.72,83.2-5.83,9.74-11.86,19.82-17.15,30.05a4.87,4.87,0,0,0,4.17,7.11c9.44.31,16,2.87,19.55,7.6C1638.25,2216.71,1638.55,2226.7,1634.71,2241.26ZM658.85,1860c3-3.59,5-5.67,6.79-6.49,6.19-2.79,12.83-5.13,19.24-7.39l3.22-1.14,2.46,8.25-3.71,1.14c-6.64,2.06-13.52,4.2-20.31,5.83C664.6,1860.62,662.31,1860.53,658.85,1860Zm559.89-117.34c2.85-.54,6.11-2.45,9.83-4.65a65.17,65.17,0,0,1,6.84-3.7,28.33,28.33,0,0,1,5.85-1.3l-2.34,26.53-17.87-15.75A4.87,4.87,0,0,0,1218.74,1742.62Z"/><path d="M1599.41,2192.37,1491,2133a4.82,4.82,0,0,0-4.59,0l-28.19,14.7a4.88,4.88,0,0,0-.63,8.25c6.47,4.74,13,10,19.34,15.12,24.75,19.94,50.1,40.38,82,40.38,12.33,0,25.65-3,40.3-10.35a4.87,4.87,0,0,0,.17-8.63Zm-116.4-29c-4.41-3.56-8.93-7.2-13.48-10.71l19-9.93,97.52,53.44C1543.89,2212.44,1514.26,2188.57,1483,2163.38Z"/><path d="M1361.05,2403.14l-9.08-5a4.88,4.88,0,0,0-5.8.82l-5,5a4.87,4.87,0,0,0,1.27,7.8c.82.41,1.63.86,2.44,1.31a30.6,30.6,0,0,0,8.13,3.49,5.68,5.68,0,0,0,1.27.14c3,0,5.09-2.53,6.65-4.44.44-.54.9-1.09,1.22-1.41a4.87,4.87,0,0,0-1.09-7.71Z"/><path d="M1683.75,1991.91a4.87,4.87,0,0,0,7.67,2.48c3.79-3,5.82-6.42,5-15.42a4.87,4.87,0,0,0-6.36-4.21,23,23,0,0,0-6.95,3.37c-3.49,2.65-1.91,6.86-.4,10.94C1683.14,1990.09,1683.53,1991.15,1683.75,1991.91Z"/><path d="M1086,1931.47c-2.39-5.91-4.85-12-6.68-18a4.87,4.87,0,0,0-8.38-1.71l-26.55,31.39a4.87,4.87,0,0,0,2.7,7.91c4.12.89,7.91,4.82,11.57,8.63,4.82,5,9.8,10.17,16.83,10.17h.23c5-.08,9.84-2.83,14.89-8.42h0C1095.76,1955.74,1091.66,1945.56,1086,1931.47Zm-2.79,23.63c-2.12,2.31-5.11,5-7.65,5-3,0-6.29-3.47-9.88-7.18a53.49,53.49,0,0,0-9.61-8.49l16.76-19.83c1.36,3.63,2.79,7.19,4.13,10.5C1079.72,1942,1083.88,1952.31,1083.2,1955.1Z"/><path d="M1149.62,2036.29c-1.77-2.17-4.2-5.13-7.92-4.3a30.91,30.91,0,0,0-8.13,3.48c-.81.46-1.62.91-2.44,1.32a4.87,4.87,0,0,0-1.27,7.8c.32.32.77.88,1.21,1.41,1.56,1.92,3.64,4.45,6.66,4.45a5.53,5.53,0,0,0,1.26-.14h0a30.47,30.47,0,0,0,8.15-3.5c.81-.45,1.62-.9,2.44-1.31a4.88,4.88,0,0,0,1.26-7.8C1150.52,2037.38,1150.06,2036.83,1149.62,2036.29Z"/><path d="M1326.87,2407.65a70.56,70.56,0,0,0-4.3-14.25c-1.67-3.62-4.87-6-7.69-8.08-1-.76-2-1.48-2.81-2.19a4.87,4.87,0,0,0-6.65.22c-.3.3-.83.71-1.33,1.11-1.9,1.5-4.5,3.55-4.65,6.91,0,1.22-.16,2.53-.27,3.87-.52,6.13-1.11,13.09,2.8,17.5,3.6,4.06,9.33,4.82,14.87,5.55a55.2,55.2,0,0,1,5.51.9,4.78,4.78,0,0,0,1.13.13,4.88,4.88,0,0,0,4.71-6.12C1327.7,2411.37,1327.29,2409.51,1326.87,2407.65Zm-17.61-1.37c-1.14-1.29-.65-7.1-.38-10.23.08-1,.16-2,.22-2.88,2,1.45,4,3,4.62,4.31a56.27,56.27,0,0,1,3.35,11C1313.88,2408.06,1310.33,2407.48,1309.26,2406.28Z"/><path d="M1705,1985.8c6.67,5.55,12.26,9.3,16.87,9.3a7.41,7.41,0,0,0,3.65-.92c5.24-2.88,4.36-9.68,3.51-16.25-.34-2.64-.77-5.92-.47-7.38a4.87,4.87,0,0,0-4.1-5.79c-7.59-1.07-17-2.39-26.33,8.59a4.88,4.88,0,0,0,.42,6.74C1701.18,1982.46,1703.06,1984.15,1705,1985.8Zm13.78-11.91c.12,1.69.35,3.47.58,5.29.2,1.53.48,3.71.56,5.38a55.72,55.72,0,0,1-8.69-6.25c-.74-.62-1.48-1.25-2.25-1.94C1712.23,1974,1715.32,1973.62,1718.82,1973.89Z"/><path d="M1778.76,1487.34c-3-2.67-6.36-5.7-10.66-6.85-4.11-1.09-8,1-11.41,2.91a33.62,33.62,0,0,1-3.2,1.63,4.87,4.87,0,0,0-2.62,6.42l5.21,12.17a4.89,4.89,0,0,0,4.49,3,4.81,4.81,0,0,0,1.87-.38l18.49-7.7a4.88,4.88,0,0,0,1.1-8.37C1781,1489.32,1779.89,1488.36,1778.76,1487.34Zm-15.62,8-1.51-3.54a17.49,17.49,0,0,1,4.09-1.86,12.79,12.79,0,0,1,4.18,2.59Z"/><path d="M2290.59,2079.05c-.82-.41-1.63-.86-2.45-1.32a30.7,30.7,0,0,0-8.12-3.48c-3.73-.83-6.16,2.14-7.93,4.3-.44.54-.89,1.09-1.21,1.41a4.87,4.87,0,0,0,1.09,7.71l9.08,5a4.9,4.9,0,0,0,5.8-.82l5-5a4.87,4.87,0,0,0-1.27-7.8Z"/><path d="M1542.66,1485.86a5.67,5.67,0,0,0-1.92-.75,4.81,4.81,0,0,0-1.75-3,4.86,4.86,0,0,0-6.14,0l-8.19,6.65a4.88,4.88,0,0,0-1.79,3.54,4.93,4.93,0,0,0,.68,2.76l-.32.1c-3,.89-6.3,1.9-9.12,4-3.48,2.64-1.91,6.86-.39,10.94.38,1,.77,2.07,1,2.84a4.9,4.9,0,0,0,4.68,3.5,4.82,4.82,0,0,0,3-1c2.66-2.07,4.9-4.14,9.55-12l.1-.2a4.88,4.88,0,0,0,5.83-1.46c.52-.67,1.07-1.34,1.61-2a46,46,0,0,0,5.08-7.15h0A5.11,5.11,0,0,0,1542.66,1485.86Z"/><path d="M2882.49,2081.78c-.56-5.45-4.75-8.59-8.11-11.11a23.52,23.52,0,0,1-3.28-2.76c-4.16-4.82-8.74-9.29-13.17-13.6-3.83-3.75-7.8-7.62-11.38-11.61a17.45,17.45,0,0,1-2-3.25l-.24-.47h20.74a4.87,4.87,0,0,0,4.73-6c-10.67-43-36.82-66-84.8-74.68-6.24-1.14-16.93-9-21.48-12.82,4.17-8.61,5-15.63,2.64-21.39-3.77-9-14-12-23.09-14.54-4.47-1.27-9.08-2.58-11.2-4.3l-1.41-1.15c-6.06-5-17.36-14.32-30.15-12.89-7.06.78-13.46,4.66-19,11.54-3.91.48-17.33-3.22-24.54-7.89-12.95-8.4-25.48-18.14-37.59-27.55-7-5.41-14.15-11-21.39-16.32-3.06-2.24-6.69-3-10.2-3.79-1.44-.31-2.93-.64-4.33-1.05a4.82,4.82,0,0,0-3.87.47l-13.66,8.06-29-22.58,37.14-26.42a4.87,4.87,0,0,0-1.08-8.52l-53.45-20.51c30.12-15.35,61.11-17.13,99-5.95,11.2,3.3,22.52.59,36.11-8.78.11.28.21.57.31.85.65,1.76,1.3,3.51,1.89,5.28a4.87,4.87,0,0,0,4.62,3.33h.11a4.86,4.86,0,0,0,3.92-2.14c28.87,64.51,84.95,62.3,135.9,54.76a4.88,4.88,0,0,0,3.43-7.38c-3.63-5.89-7.13-11.56-10.54-17.07-11.7-18.9-21.8-35.24-31.8-52.11a21.12,21.12,0,0,1,.65-3.2l29.48-3.14a4.85,4.85,0,0,0,4.22-6c-1.23-5.12-3-10.19-4.71-15.08-3.37-9.63-6.55-18.71-4.63-25.45,6.21-21.84-8.16-27.29-17.67-30.89-6.5-2.46-10.53-4.17-11.27-8-.48-2.51.48-6.48,2.18-9,10.72-16.13,20.45-44.29,20.42-59.1a4.86,4.86,0,0,0-3.05-4.5c-43-17.39-72.72,1.22-104.21,38.87q0-2.94,0-5.7c.07-15.54.12-26.77-.44-38.14-.24-4.85-5.25-7.81-7.39-9.07l-.21-.12a4.89,4.89,0,0,0-5.4-.14l-40.14,25.2L2613.7,1553a4.86,4.86,0,0,0-4.81-4.12h-59.42l-7.94-23a4.87,4.87,0,0,0-8.49-1.34l-31.49,41.76c-4.54-3.3-9.22-6.85-13.78-10.3-19.94-15.08-24.09-18.22-28.28-14-10.9,10.82-16.34,7.64-27.17,1.32-2.6-1.52-5.3-3.09-8.32-4.6-10.06-5-22.29-4.15-34.12-3.32-7.62.54-15.51,1.09-22.45,0-3.81-.58-11.67-8.64-14.48-12.63,6.56-10.53,8.51-18.55,6.15-25.11-3.2-8.85-13.23-11.87-22.08-14.54-5.28-1.59-10.69-3.23-13.5-5.72.71-.84,1.41-1.7,2.1-2.55,2.72-3.35,5.53-6.81,8.12-7.55,5.48-1.56,11.32-2.15,17.51-2.76,7.41-.74,15.07-1.51,22.29-4.11,5.8-2.08,9.68-7.17,16.12-15.61,3.61-4.72,8.1-10.61,14.31-17.84a4.88,4.88,0,0,0-4.51-8l-105.92,17.75a103.55,103.55,0,0,0,10.44-16.85c6-11.33,9.61-18.18,22.05-18.18h.2c5.08,0,6.32-5.17,8.55-14.53.58-2.45,1.19-5,1.76-6.9a4.88,4.88,0,0,0-2.53-5.79l-48.26-23.53a4.86,4.86,0,0,0-6.61,2.46l-22.34,52.15-28.94-28.08,31.8-44.88a4.87,4.87,0,0,0-4-7.69c-6.91,0-12.6.2-17.17.36-8.05.28-13.37.46-17.94-.64-5.88-1.41-11.68-4.37-17.28-7.22-2.46-1.26-5-2.56-7.51-3.69a4.87,4.87,0,0,0-6.43,2.37c-1.52,3.25-2.77,6.46-3.88,9.28-2,5.07-3.73,9.54-6.18,12.3a62.61,62.61,0,0,1-6.48-2.76c-5.89-2.75-10.54-4.93-13.63-1.12-4.44,5.48-7.56,11.81-10.57,17.93-1.85,3.74-3.59,7.28-5.6,10.63a27.23,27.23,0,0,1-4.15,1.68l-.52.18V1314a4.89,4.89,0,0,0-7.29-4.24l-29.79,16.94c-1-3.62-1.81-7.24-2.63-10.78-2.78-12.06-5.41-23.44-12.83-30.77-11.4-11.23-31.73-16-45.83-15.63-13,.31-22.92,4.69-28.85,12.64-3.67,4.93-7.2,13.3-5.49,26.51-13.55-9.44-24.66-17.42-40.24-28.61a4.86,4.86,0,0,0-7.16,1.7l-15,28.69-2.57-1.78,17.6-48a4.87,4.87,0,0,0-5.84-6.38c-28.8,7.68-42.93-7-57.88-22.51-6.61-6.86-13.44-14-21.57-19a4.91,4.91,0,0,0-3.68-.61,91.89,91.89,0,0,0-11.88,3.92c-10.25,3.94-18.35,7-30.62-1.55-16.57-11.61-29.83,1.61-40.48,12.23a97.23,97.23,0,0,1-10.83,9.81c-20.77,15-11.87,30.42-4.72,42.83l1.14,2L1713,1284.8a4.87,4.87,0,0,0-4.55,4.24l-5.2,40.57c-2.5-4.69-3.08-9.18-1.5-12.87,5.08-11.8-1.33-21.09-6.47-28.56-6.16-8.94-10.61-15.4-3.15-26.28,10.78-15.71-1.58-25.67-10.61-32.94-9.47-7.64-15-12.89-12.27-21.41a4.88,4.88,0,0,0-4.5-6.37c-21.24-.62-27.48-15.21-34.08-30.66-4-9.24-7.69-18-14.88-22.61a4.88,4.88,0,0,0-3.49-.71c-6.74,1.19-13.07,1.81-19.19,2.41-12.88,1.27-24,2.36-32.38,8.36-9.8,7-16.59,17.68-23.15,28-2.6,4.09-5.28,8.3-8.09,12.16-2.09-.3-4.85-.63-7.15,1.2-6.58,5.22-13,10.79-19.22,16.17-2.08,1.8-4.16,3.61-6.25,5.4a4.87,4.87,0,0,0,.84,8c9.53,5.19,7.84,8.62,3.32,17.79-1,2-2,4.09-2.91,6.3-1.5,3.71.65,6.7,2.23,8.89,2.09,2.91,4.07,5.65,2.11,11.31-12.77,36.85-9.36,40.27,25.56,60.18l.87.49c4.24,2.42,8.75,3.74,14,5.27l.84.24-33.52,38a4.87,4.87,0,0,0,2.43,7.94c5.38,1.39,7,6.23,9.23,14,3,10.36,7,24.56,29,21.08,4.7-.74,12.23,5.19,18.88,10.41,1.61,1.26,3.24,2.54,4.88,3.78-7.18,6.92-4.79,17.73-3.09,25.4,1.31,5.94,2.67,12.08.43,15.37a9.28,9.28,0,0,1-4.69,3.16c-4.21-26.89-23.41-41.07-42-54.8-14.2-10.48-27.62-20.39-35.12-35.67-.26-5,0-10.27.19-15.82.85-20.29,1.81-43.28-22.08-61-4.65-3.45-5.32-17.94-5.72-26.59l0-1c-1.67-35.76,11.65-68.93,41.92-104.39a4.88,4.88,0,0,0-3.71-8h-84.29a4.88,4.88,0,0,0-3.93,2c-4.29,5.84-9.14,11.48-14.29,17.46-11.55,13.42-23.49,27.3-28.7,43.72-9.93,31.32-16,64.27-22,96.13-2.43,13.1-4.94,26.64-7.68,39.85a4.86,4.86,0,0,0,.93,4c14.25,18.32,13.82,39.74,13.35,62.41-.34,17.06-.7,34.69,4.9,52.52a4.87,4.87,0,0,0,7.34,2.6c11.31-7.48,22.73-.51,34.81,6.88,12.76,7.8,28.37,17.34,42,2.87l20.36,20.33c-7.07,0-15.23-.06-23.53.16-9,.25-17.92.8-28.23,1.44-4.87.31-10,.63-15.62.94a4.87,4.87,0,0,0-4.29,6.56c13,35,35.81,49.4,60,62.16,23,12.12,43.78,12.8,61.85,2,7.64-4.56,8.35-3.85,13.91,1.65l.8.79c1.31,1.28,2.67,2.75,4.12,4.3,5.84,6.27,12.45,13.37,20.1,13.54,9.41.21,19.47,1,29.2,1.8,29.34,2.35,59.68,4.78,82.88-7.29,18.68-9.72,30.77-4.58,43.57.86,6.61,2.81,13.45,5.72,21.15,6.52a4.89,4.89,0,0,0,4.33-1.83l17-21.49a5.29,5.29,0,0,0,1,.43l33.77,9.6a4.73,4.73,0,0,0,0,.53,4.87,4.87,0,0,0,3,4.52c10.42,4.21,19.46,6.4,27.51,6.4,18.07,0,31.15-11,43.64-34.73a4.86,4.86,0,0,0-2.54-6.81c3.42,0,6.84,0,10.28,0a4.89,4.89,0,0,0,4.7-6.19c-5.42-19.4-9.8-35.08-24.32-54.65a326.28,326.28,0,0,0,53,9c.05,6.65,1.72,11.76,5.05,15.54,6.08,6.88,15.66,7.18,24.12,7.43,7.6.24,12.29.58,13.13,3.33,10.07,32.82,33.78,36,56.71,39.16,3,.41,6.08.83,9.15,1.32,4.67.74,9.76,5.8,15.15,11.17,1.6,1.58,3.22,3.2,4.91,4.79l-35.62,23.82a4.86,4.86,0,0,0-1.6,6.31l18.09,34.48a4.88,4.88,0,0,0,7.76,1.18l56.78-56.79,36.17,41.29a4.87,4.87,0,0,0,8.18-1.4l7-17.35v0c9.17,18.71,19.56,39.92,50,37,4.57-.44,13.2,8,17.85,12.47l.13.12c19.49,18.89,38.24,37.72,58.09,57.65q9.72,9.75,19.53,19.58L2229.62,1929a4.9,4.9,0,0,0,1.73,5l65.08,50.74c-11.91,3.6-19.78,12-26.92,19.52-9.62,10.2-16.58,17.56-30.76,13a4.82,4.82,0,0,0-4,.47c-41,24.82-41,24.82-77,26l-2.3.07c-8.62.27-20.38,3.69-27.21,10.7s-7.15,16.25-7.52,24.49c-.56,12.19-1.45,19.92-12.44,25-2.38,1.1-9.63,4.48-7.29,36.77.6,8.14,5,15.9,8.82,22.76.58,1,1.15,2,1.7,3,16.11,29.28,42.39,28.38,65.58,27.58,6.44-.22,13.08-.45,19.3,0a4.86,4.86,0,0,0,3.76-1.42c3.07-3.07,6.37-6.1,9.57-9,7.28-6.67,14.8-13.57,20.57-21.8,14.31-20.46,33.49-28.08,62.16-24.71,4.47.53,7.75-3.23,10.62-6.55a32.39,32.39,0,0,1,2.36-2.57,4.85,4.85,0,0,0,1.59-3.38l1.34-28.34,5.89-.35c22.7-1.42,39.1-2.44,53.42,15.74,11.07,14.06,27.6,23.56,43.59,32.75,2,1.17,4,2.33,6,3.49,25.06,14.61,39.1,21,46.3,15.26,13.67-10.89,20.86-5.66,29.18.4a43.4,43.4,0,0,0,9.2,5.6c-.54,3-1.19,6-1.83,8.85-2,9-3.72,16.8-.54,23.24,8.38,17,25.29,19.33,41.65,21.58l2.9.4c6.29.89,12.94-.56,19.37-2,12.92-2.81,21.32-4,27.18,5.3a4.86,4.86,0,0,0-2.83,1.77c-.64.83-1.64,1.9-2.6,2.93-3.48,3.72-6.76,7.23-5.06,11.43,2.55,6.29,6.75,15.22,13.71,20.1a7.3,7.3,0,0,0,4.35,1.34c3.24,0,6.9-1.69,10.95-3.54,2.08-1,4.23-1.94,6.18-2.62a4.88,4.88,0,0,0,1.84-8L2602,2234.71c20.64-13.87,37.18-18.28,59.75-.62,13.08,10.22,32.54,19.5,52.23,19.5a55,55,0,0,0,22.92-4.8c27.91-12.64,55.87-12.51,85.43-12.36,11.1.05,22.58.11,33.94-.58,4.33-.27,7.5-3.63,10.05-6.33a29.49,29.49,0,0,1,2.34-2.32,4.89,4.89,0,0,0,1.77-3.76v-29.57a4.87,4.87,0,0,0-4.13-4.82c-22.4-3.45-41.78-13.54-62.29-24.23-18.09-9.42-36.79-19.16-57.86-24.05-27.73-6.42-54.09-17.57-84.61-30.47-11.76-5-23.86-10.09-36.74-15.23,2.69-1.84,5.1-3.57,7.23-5.1,6.16-4.42,11-7.94,14-7.73,5.49.34,15.3,6,20.56,9s9.39,5.39,12.08,1.05c4.35-7,8.88-11,13.45-12,6.84-1.42,14.41,3.76,21.73,8.77a82.06,82.06,0,0,0,10.89,6.7c17.51,8.28,33.18,13.88,52.76,14.31,22.94.51,46.27,3.12,68.84,5.64,9.48,1.06,19.28,2.16,28.9,3.08a4.8,4.8,0,0,0,4-1.47,4.86,4.86,0,0,0,1.32-4,65.41,65.41,0,0,0-1.68-7.52c-.82-3.12-2.53-9.61-1.84-11.1C2881.13,2090,2882.91,2085.82,2882.49,2081.78Zm-216.35-512.57a4.35,4.35,0,0,0-.41-.34A4,4,0,0,1,2666.14,1569.21Zm-896.7,20.25c.85-.22,1.69-.41,2.53-.57.4.44.9,1,1.44,1.7Zm35.07,14.84,39.32-15.77C1833,1604,1821.68,1608.59,1804.51,1604.3Zm49.09-30.19L1792,1598.8a4.8,4.8,0,0,0-1.15-2.44c-3.68-4.15-6.39-7.52-8.36-10-4.11-5.14-6.38-8-10.35-7.41a56.14,56.14,0,0,0-9.89,2.48c3-3,6.63-6.6,8.91-6.7,23.18-1,46.13-.88,70.44-.74l12,.07S1853.62,1574.09,1853.6,1574.11Zm751.56,677.64a45.31,45.31,0,0,1-6.33,2.57c-4-3.2-6.91-9-8.9-13.63.55-.68,1.35-1.56,2-2.27l13.29,13.29Zm264.58-163.49c-4.25,4.85-2.23,12.56-.27,20,0,.06,0,.11,0,.17-7.38-.76-14.81-1.59-22.05-2.4-22.78-2.55-46.33-5.19-69.7-5.7-17.86-.4-32.43-5.64-48.81-13.38a76.2,76.2,0,0,1-9.56-5.93c-8.59-5.88-18.32-12.55-29.23-10.26-6.39,1.34-12.09,5.54-17.33,12.8l-1.34-.77c-6.79-3.9-17-9.8-24.81-10.28-6.44-.4-12.28,3.76-20.31,9.53-4.14,3-8.84,6.35-14.69,9.94a4.88,4.88,0,0,0,.79,8.7c16.11,6.25,31,12.52,45.3,18.59,30.94,13.08,57.65,24.37,86.2,31,19.86,4.6,38,14.05,55.55,23.19,19.15,10,38.9,20.26,61.19,24.51v23.34c-.5.5-1,1-1.46,1.52-1,1.07-2.89,3.07-3.56,3.29-11,.67-22.35.62-33.29.57-29.33-.14-59.65-.29-89.5,13.23-20.93,9.48-47.79,0-65.13-13.51-12.51-9.79-23.87-13.55-34.38-13.55-11.92,0-22.75,4.85-32.92,11.22-9.72-18.7-26.49-15-39-12.32-5.86,1.27-11.38,2.48-15.94,1.83l-2.93-.4c-15.1-2.09-28.15-3.89-34.24-16.24-1.67-3.37-.28-9.6,1.32-16.82.93-4.21,2-9,2.64-14.05a4.88,4.88,0,0,0-4.68-5.49c-2.49-.08-5.71-2.42-9.12-4.9-8.54-6.22-21.45-15.62-40.85-.25-3.48,1.11-15.38-4.25-35.45-16l-6.09-3.52c-15.19-8.73-30.89-17.75-40.8-30.33-17.47-22.2-38.94-20.86-61.67-19.44-3.3.21-6.69.42-10.16.57a4.88,4.88,0,0,0-4.66,4.64l-1.45,30.88c-.57.62-1.13,1.27-1.68,1.91a32.54,32.54,0,0,1-3,3.14c-31.77-3.52-54.17,5.67-70.43,28.9-5.15,7.36-12,13.6-19.17,20.2-2.74,2.52-5.57,5.11-8.31,7.78-6-.26-12.12,0-18.06.15-23.33.8-43.48,1.5-56.71-22.54-.56-1-1.15-2.07-1.74-3.12-3.52-6.26-7.16-12.72-7.6-18.69-1.16-16,.4-25.51,1.91-27.34,16.68-7.89,17.32-22,17.83-33.32.34-7.45.63-13.88,4.77-18.13s12.78-7.51,20.54-7.76l2.3-.07c37.29-1.17,39.32-1.69,79.88-26.25,18.68,5,29.27-6.26,38.66-16.22,8.71-9.24,16.94-18,31.79-18.26a4.87,4.87,0,0,0,2.9-8.71l-71.44-55.71L2281.53,1763a4.88,4.88,0,0,0-1.28-4.64q-10.82-10.8-21.47-21.52c-19-19.08-38.66-38.81-58.22-57.77l-.12-.12c-7-6.78-16.58-16-25.58-15.17-23.7,2.3-31-12.64-40.28-31.56-1.59-3.24-3.23-6.58-5-9.85a4.88,4.88,0,0,0-8.82.48l-8,19.88,0,.11-34.37-39.23a4.81,4.81,0,0,0-3.5-1.66,5,5,0,0,0-3.61,1.42l-55.78,55.78-13-24.73,37.23-24.89a4.86,4.86,0,0,0,.37-7.82c-3.19-2.61-6.18-5.59-9.07-8.47-6.54-6.51-12.72-12.66-20.5-13.89-3.14-.5-6.27-.92-9.36-1.34-22.61-3.08-40.47-5.51-48.71-32.37-3-9.62-13.6-10-22.16-10.21-6.79-.2-13.81-.42-17.1-4.14-2.2-2.49-3-6.89-2.43-13.06a4.9,4.9,0,0,0-1.1-3.57,4.84,4.84,0,0,0-3.31-1.74c-13.72-1.24-27.86-2.52-49.89-7.62a4.86,4.86,0,0,0-3.43-3.68c-11-3.14-17-4.65-20.74-1.89a5.93,5.93,0,0,0-1.26,1.24c-5.58,2.75-6.75,7.3-5.94,10.61.91,3.7,4.17,6.14,7.55,5.64a44.2,44.2,0,0,0,5.16-1c13.6,17.45,18.34,31.09,23.2,48.16q-9.75,0-19.33-.09c-24.43-.15-47.5-.28-70.92.74-6.1.27-10.88,5-15.5,9.67a65.06,65.06,0,0,1-5.18,4.83,4.33,4.33,0,0,0-.8.8l-21.39,27.09c-5.3-1-10.4-3.14-15.76-5.42-13.65-5.8-29.12-12.38-51.87-.54-20.72,10.78-49.65,8.46-77.61,6.22-9.87-.79-20.08-1.6-29.75-1.82-3.55-.08-9.13-6.07-13.2-10.44-1.45-1.56-3-3.17-4.41-4.61l-.78-.77c-7.24-7.17-12.59-11-25.76-3.09-15.17,9-32.28,8.31-52.32-2.26-21.75-11.47-40.84-23.36-52.92-50.77l8.88-.54c10.22-.64,19-1.18,27.89-1.42,9.93-.27,19.73-.19,27.61-.13,2.84,0,5.38,0,7.51,0a4.88,4.88,0,0,0,3.44-8.33L1446.28,1491a4.91,4.91,0,0,0-3.87-1.4,4.83,4.83,0,0,0-3.56,2.05c-8.83,12.58-17.25,8.27-32.6-1.11-11.32-6.92-25.09-15.34-39.5-9.72-3.49-14.53-3.19-29.37-2.89-43.77.46-22.7.94-46.16-14-66.77,2.59-12.62,5-25.45,7.27-37.89,5.86-31.57,11.91-64.22,21.66-95,4.61-14.51,15.89-27.63,26.8-40.31,4.49-5.22,9.12-10.59,13.27-16.06h71.53c-27.3,34.52-39.29,67.52-37.62,103.15l0,1c.57,12.37,1.29,27.77,9.66,34,19.74,14.62,19,33.13,18.14,52.73a170.41,170.41,0,0,0-.12,17.79,4.88,4.88,0,0,0,.46,1.76c8.46,18,23.75,29.27,38.54,40.19,18.93,14,36.8,27.18,38.72,53.34a4.87,4.87,0,0,0,1.83,3.46,4.91,4.91,0,0,0,3.78,1c7.84-1.23,13.14-4,16.21-8.51,4.62-6.76,2.71-15.37,1-23-2.52-11.38-2.81-15.92,4.17-18.46a4.88,4.88,0,0,0,.87-8.74,115.79,115.79,0,0,1-10.32-7.53c-8.62-6.78-17.56-13.78-26.42-12.38-13.45,2.13-15.19-4-18.09-14.12-1.73-6.07-3.78-13.26-9.51-17.61l34.28-38.89a4.87,4.87,0,0,0-2.09-7.83c-3-1-5.81-1.85-8.29-2.57-4.64-1.36-8.64-2.54-11.89-4.39l-.87-.49c-15.43-8.79-23.92-13.64-26.48-19.18-2.38-5.16-.29-13.22,5.3-29.34,3.62-10.44-1-16.79-3.41-20.2-.18-.24-.39-.53-.57-.8.64-1.46,1.37-2.94,2.08-4.38,3.81-7.73,8.85-18-1.72-26.86l1.45-1.26c5.85-5,11.88-10.27,18-15.17l.83.12c2,.31,5.48.82,7.65-2,3.53-4.65,6.74-9.69,9.84-14.58,6.35-10,12.34-19.4,20.6-25.3,6.26-4.48,15.71-5.41,27.66-6.59,5.42-.53,11.48-1.13,17.83-2.15,3.95,3.48,6.81,10.16,9.82,17.2,6.32,14.78,14.07,32.91,37.08,36.1-.83,12,8.73,19.73,16.62,26.09,10.64,8.57,13.89,12.25,8.69,19.83-11.26,16.41-3.27,28,3.15,37.33,5.27,7.64,8.35,12.66,5.55,19.18-4.21,9.8-.33,21.92,10.38,32.41a4.88,4.88,0,0,0,8.25-2.86l6.18-48.15,62.47-3.66a4.88,4.88,0,0,0,4.12-7c-1.51-3.18-3.27-6.23-5-9.19-7.88-13.66-11.08-20.64,2-30.06a104.13,104.13,0,0,0,12-10.81c12.32-12.28,19.1-17.39,28-11.15,16.52,11.58,28.84,6.85,39.71,2.67,2.81-1.08,5.7-2.19,8.64-3,6.38,4.33,12,10.19,18,16.37,14.11,14.65,29.93,31.08,58.58,27l-15.89,43.35a4.87,4.87,0,0,0,1.81,5.68l10.22,7a4.87,4.87,0,0,0,7.09-1.76l14.91-28.59c14.37,10.32,25.17,18,38.78,27.51a4.87,4.87,0,0,0,.64,7.09c.67.52,1.34,1.07,2,1.61a47.17,47.17,0,0,0,7.15,5.08,5.22,5.22,0,0,0,6.59-1.46c.61-.75,2.91-4.08.65-9.38,1.39-3.24-1.11-6.31-3.34-9.05a4.65,4.65,0,0,0-.66-.67c-2.22-10.23-1.25-18.48,2.86-24,5.14-6.9,14.4-8.55,21.26-8.72,12.47-.31,29.79,4,38.75,12.83,5.42,5.34,7.62,14.92,10.19,26,1.29,5.62,2.63,11.43,4.53,17.36a4.88,4.88,0,0,0,7,2.75l27.87-15.85v49a4.87,4.87,0,0,0,6.84,4.45c2.55-1.12,4.75-1.9,6.69-2.59,4.05-1.43,7.25-2.56,9.11-5.62,2.28-3.77,4.23-7.73,6.12-11.56a102.26,102.26,0,0,1,7.74-13.92c1.13.48,2.52,1.13,3.59,1.63,6.48,3,12.08,5.66,15.91,2.36,4.86-4.17,7.34-10.49,10-17.17.53-1.38,1.08-2.77,1.66-4.19l2.66,1.35c6.1,3.11,12.41,6.33,19.41,8,5.87,1.41,11.71,1.2,20.57.9,2.27-.08,4.68-.17,7.32-.23l-28.68,40.48a4.87,4.87,0,0,0,.58,6.31l37,35.91a4.87,4.87,0,0,0,7.87-1.58l23.11-54,40.05,19.53c-.28,1.13-.56,2.29-.83,3.43-.53,2.2-1.25,5.22-1.84,7.12-16.35,1.07-22.31,12.36-28.09,23.29-4.59,8.68-9.33,17.66-19.45,24.85a4.87,4.87,0,0,0,3.62,8.78l108.68-18.2c-2.4,3-4.47,5.73-6.31,8.14-5.35,7-8.58,11.24-11.67,12.35-6.08,2.2-12.82,2.87-20,3.58-6.34.63-12.89,1.28-19.21,3.09-5.54,1.58-9.34,6.26-13,10.78a62.27,62.27,0,0,1-4.16,4.81,4.87,4.87,0,0,0-1.09,5.24c3.26,8.22,12.48,11,21.41,13.69,7,2.1,14.19,4.28,15.72,8.52.93,2.59.56,7.93-6.55,18.66a5.59,5.59,0,0,0-.24,5.6c1.93,4.35,13.81,18.41,22.8,19.81,8,1.24,16.46.65,24.62.07,11-.77,21.41-1.5,29.1,2.33,2.73,1.36,5.28,2.85,7.75,4.29,10.67,6.23,21.68,12.66,36.76-.76,3.7,2.25,11.36,8,17.72,12.85,5.92,4.48,12.05,9.11,17.87,13.23a4.87,4.87,0,0,0,6.71-1l28.84-38.25,6.09,17.61a4.86,4.86,0,0,0,4.6,3.28h58.72l6.9,44.07a4.88,4.88,0,0,0,7.41,3.38l43.79-27.49a5.81,5.81,0,0,1,.73.6c.51,10.88.46,21.85.39,36.92,0,5.87-.06,12.33-.06,19.61a4.87,4.87,0,0,0,8.72,3c32.08-41.16,58.69-62.34,98.41-47.92-1.28,13.63-9.87,37.23-18.63,50.41-3.13,4.71-4.59,11.24-3.63,16.26,1.8,9.42,10.44,12.69,17.39,15.33,9.67,3.66,15.51,5.87,11.74,19.11-2.75,9.7.92,20.2,4.81,31.32,1,2.89,2,5.84,2.94,8.77l-27.26,2.9a4.88,4.88,0,0,0-4.32,4.2,26.34,26.34,0,0,1-.6,2.73c-.78,3.08-1.75,6.91.21,10.21,10.11,17.07,20.3,33.54,32.1,52.62l6.62,10.7c-60.23,7.86-102-1-123.13-62.58.16-3.93-1.15-6.07-2.59-7.22-2.88-5.53-7.48-6.61-10.77-5.74-3.66,1-6.06,4.23-5.58,7.61a42.13,42.13,0,0,0,1,4.76c-15.48,11.36-24.25,10.9-30.2,9.14-44.53-13.13-80.24-9.45-115.78,11.94a4.88,4.88,0,0,0,.77,8.73l54.71,21-35.08,25a4.86,4.86,0,0,0-.17,7.81l36.83,28.64a4.88,4.88,0,0,0,5.47.35l14.74-8.71c1,.25,2,.47,3,.67,2.62.57,5.1,1.11,6.49,2.13,7.14,5.24,14.28,10.79,21.18,16.15,12.27,9.54,25,19.41,38.27,28,6.5,4.21,30.7,14.46,36.91,6.47,4.1-5.27,8.37-8.09,13-8.6,8.7-1,17.57,6.35,22.88,10.72l1.47,1.21c3.67,3,9,4.49,14.66,6.09,6.94,2,14.8,4.2,16.76,8.91,1.43,3.44.1,9-3.85,16.16a5.12,5.12,0,0,0-.13,4.56c1.71,3.6,19.63,17.44,30.09,19.34,41.94,7.6,64.83,26.1,75.42,61.39h-17.34a27,27,0,0,0-3.94-8.75c-2.65-3.48-6.86-1.91-10.93-.4-1,.39-2.09.78-2.85,1a4.87,4.87,0,0,0-2.47,7.67,30.69,30.69,0,0,0,10.71,9.4,18.71,18.71,0,0,1,4.06,5.81,24.75,24.75,0,0,0,3.35,5.24c3.79,4.24,7.88,8.23,11.84,12.09,4.28,4.17,8.71,8.49,12.6,13a29.61,29.61,0,0,0,4.8,4.18c1.85,1.38,4.14,3.11,4.27,4.32C2872.84,2083.2,2872.75,2084.83,2869.74,2088.26Z"/><path d="M1770.81,1333.22a4.86,4.86,0,0,0,3.44,1.42,5.12,5.12,0,0,0,.78-.06,4.87,4.87,0,0,0,3.58-2.63c.41-.83.86-1.64,1.32-2.45a30.77,30.77,0,0,0,3.48-8.13c.83-3.72-2.13-6.15-4.3-7.92-.54-.44-1.09-.89-1.41-1.21a4.87,4.87,0,0,0-7.71,1.09l-5,9.07a4.88,4.88,0,0,0,.82,5.8Z"/><path d="M1122.4,291a4.82,4.82,0,0,0,3.89-.51l13.22-8c5.63,6.7,11,12.39,17.9,15.32a4.65,4.65,0,0,0,.62.77l1.74,1.74v.1c-2.79,17-5.42,33.11,3.43,43.26,4,4.57,9.87,7.39,17.83,8.52L1170.84,363a4.86,4.86,0,0,0,1.69,7.84l57.52,23.74a4.89,4.89,0,0,0,6.74-4.51V348.57h4.34V383.4a4.87,4.87,0,0,0,4.87,4.87h48.6a4.92,4.92,0,0,0,3.72-1.73c7.85-9.2,13.4-15.72,20.64-25.1,3.65,6.95,10,13.85,13.66,14.54a5.09,5.09,0,0,0,4.5-1.33A148.35,148.35,0,0,0,1349.76,360a130.62,130.62,0,0,1,12.47-14.37c15.93-15.05,15.66-33.48,15.4-51.3-.14-9.69-.28-18.95,2.13-27.47,2.6,3.85,2.92,8.91,3.12,15.71.3,10.1.67,22.34,14.45,29.74a4.86,4.86,0,0,0,3.62,8.11,5.62,5.62,0,0,0,.7,0l1.77-.26c-11.77,12.09-23.39,26-33.18,37.79-9.19,11-17.12,20.55-22.11,24.9s-9.8,9.28-15.22,14.87c-2.62,2.7-5.42,5.59-8.53,8.71a4.87,4.87,0,0,0,1.13,7.74c5.06,2.72,9.51,5.31,13.43,7.61,8.1,4.73,14.49,8.46,21.69,10.81,7.42,2.41,7.92,5.78,9,13.18.24,1.6.49,3.28.84,5-23.25-11.44-41.63-20.51-54.94-37.09-9-11.25-19.93-3.49-26.45,1.14-3.86,2.75-8.23,5.87-10.9,5.17-1.84-.48-3.93-3-5.87-7.1a4.88,4.88,0,0,0-9.22,1.33c-.57,3.64-1.68,8.25-2.75,12.71-3.4,14.2-5.65,23.58.12,27.2,5,3.15,7.1,8.17,9.52,14,3.55,8.52,8,19.12,23.14,25,25.63,9.93,52.29,37.21,51.21,68.21a4.89,4.89,0,0,0,5.48,5c14.67-1.84,28.65-3.58,44.93-8.84-4,8-6.53,15.36-6.63,23.84l-.8.79-14.27-.76c-44.47-2.41-66.78-3.61-78.78,8s-11.47,33-10.69,76.08l.12,7.08c.09,4.95,5,8.15,7.11,9.52l.18.11a4.88,4.88,0,0,0,4.52.75l57.83-19.57c-9.56,39.63,1.38,63.16,14.45,71.51a4.85,4.85,0,0,0,2.62.76h38.77l-1,9.72c-28,7.51-48.93.19-65.79-22.91-19.68-27-44.83-17.31-62-7.69a4.87,4.87,0,0,0-1.73,6.86l41.7,65.81c-51.41,28.22-53.28,34-43.8,92.46a4.88,4.88,0,0,0,4.81,4.09,192.91,192.91,0,0,1,20.14,1.52A198.15,198.15,0,0,0,1322.6,887c8.89,0,17.08-1.35,23.4-5.85,12.72-9.07,21.72-5.43,32.14-1.23,5.5,2.22,11.18,4.51,17.5,4.88,18.69,1.12,22.15-9.94,25.23-19.68a59,59,0,0,1,4.18-10.7c28.45,12.33,52.85-2.22,76.47-16.3,6.08-3.63,12.33-7.36,18.67-10.64l6.44,38.46a4.88,4.88,0,0,0,8.2,2.69l64.06-62.06a4.85,4.85,0,0,0,1.48-3.5v-55a4.88,4.88,0,0,0-6.92-4.42l-30.88,14.29c-20-35.59-51.68-26.12-79.78-17.73-6,1.79-12.15,3.63-18.24,5.08,3.71-6.54,6.2-11.54,7.59-16.37,4.81,0,9.43,0,13.92,0,12,0,23.29-.06,34.4.07h.68c15.7,0,35-6.6,39.31-37.42,1.14-8.11.85-16.12.56-23.87-.12-3.24-.23-6.3-.23-9.24a4.88,4.88,0,0,0-3.26-4.6l-26.29-9.23,8.69-2.87c16.44-5.4,29.43-9.67,41.67-15.62,5.18-2.51,5.63-9.25,6.25-18.56.25-3.7.53-7.89,1.14-11.86a4.87,4.87,0,0,0-7.4-4.87l-19.2,12c-1.25-4.48-1.37-7.7-.36-9.61,1.66-3.14,7.69-4.74,16-6.66,1.68-.39,6.76-1.56,8.35-6s-1.41-8.43-4.33-12.24c-2.13-2.77-4.78-6.23-4.44-8.54.22-1.49,1.85-2.93,3.17-3.87,6.74-4.82,7.34-15.19,8-27.19a148.61,148.61,0,0,1,1.4-15.26,4.86,4.86,0,0,0-4.81-5.66c-8,0-15.39.51-22.55,1-14.21,1-26.47,1.83-36.13-2.1-5.26-2.14-9-8-12.88-14.29-3.49-5.57-7.29-11.63-12.78-15.43,3.91-2.68,7.89-5.42,12-8.26,15.75-10.87,32-22.1,48.88-32.56,4.25-2.64,9.94-6.88,10.27-13.13.37-7.09-6-12-13.33-17.76-1.77-1.37-3.64-2.83-5.48-4.37,16.25,3.64,34.42,4.47,41.32-13.2,5.1-13,5-28.27,4.29-40.07a5.41,5.41,0,0,0-2.16-4c-3.06-2.35-12.46-2.89-20-2.51a149.07,149.07,0,0,1,7.79-16.62c8.68-16.68,17.66-33.94,5.47-57.86-2.57-5.05,1.47-15.07,5.37-24.77,2.92-7.23,5.93-14.71,7.08-21.86,1.68-10.41,2.11-21,2.51-31.34.31-7.83.63-15.92,1.51-23.71.17-1.45,2.55-4,4.65-6.24,1.51-1.61,3.23-3.45,4.81-5.5a4.87,4.87,0,0,0-2.06-7.49c-25.49-10.19-32.34,6.54-37.34,18.76-4.34,10.6-7.27,16.58-16,15.66-.11-1.42-.25-2.85-.4-4.25-.57-5.56-1.16-11.3.66-15,7.61-15.53,17.48-30.45,27-44.89l3.39-5.14c14.56-22.08,18.28-44.29,10.49-62.55C1594.35,31,1577.1,19,1553.22,14.6c-9.62-1.76-19.22-5.22-29.39-8.89-5-1.81-10.22-3.69-15.72-5.47a4.89,4.89,0,0,0-5.28,1.54c-8.67,10.6-17.56,21.46-26.57,33.81V23.32a4.87,4.87,0,0,0-3.69-4.73c-36.49-9.13-69-3.43-102.22,18a4.85,4.85,0,0,0-2.2,4.72c.84,6.54.23,11.16-1.76,13.35-2.69,3-9.23,2.75-15.56,2.53a87.24,87.24,0,0,0-9.43,0c-5.91.44-11.66,1.15-17.75,1.9-2.72.33-5.48.67-8.3,1a4.87,4.87,0,0,0-3.66,7.29l10.38,17.92h-47.74a4.87,4.87,0,0,0-4.49,6.75c1.78,4.25,3.81,8.13,5.61,11.55,1.62,3.08,3.79,7.22,4.08,8.9-21.15,35.05-24.86,42.47-17.67,70.17l-.58-.4c-7.31-5.05-13.62-9.4-20.9-11.33-7.65-2-15.73-1.66-25.08-1.22-4.56.21-9.27.43-14.58.43a4.87,4.87,0,0,0-3.83,1.87,4.92,4.92,0,0,0-.9,4.17l11.32,46.07c-4.12,1-8.67,1.73-13.4,2.55-15.88,2.75-32.3,5.59-38.29,16.1-2.58,4.52-10,6.6-17.11,8.61-9.27,2.6-18.86,5.3-22.68,13.89-2.82,6.34-1.66,14.56,3.57,25.14A4.84,4.84,0,0,0,1122.4,291Zm168.08,390.59a6.1,6.1,0,0,0,.46.41A3.78,3.78,0,0,1,1290.48,681.62ZM1227,339.08c-2.76.22-5.35.41-7.06-.25a17.38,17.38,0,0,1-4.75-3.15,20.37,20.37,0,0,1,3.72-1.09,39,39,0,0,1,8.09-.23Zm9.75-4.59h4.34v4.34h-4.34Zm-112.06-67.15c2-4.41,9-6.38,16.42-8.47,8.62-2.42,18.38-5.17,22.94-13.16,3.71-6.52,18.46-9.07,31.48-11.33a180.34,180.34,0,0,0,19-4,4.87,4.87,0,0,0,3.36-5.84l-11-44.8c3.15-.09,6.1-.23,8.83-.35,8.9-.42,15.93-.75,22.13.89,5.64,1.5,11,5.23,17.86,9.94,3.46,2.39,7.38,5.09,11.8,7.81a4.88,4.88,0,0,0,7.23-5.53c-10.56-35.83-10.11-36.58,13.42-75.57,2.84-4.7-.08-10.25-4.11-17.93-.67-1.28-1.38-2.63-2.09-4h48.53a4.88,4.88,0,0,0,4.22-7.31l-10.91-18.84,1-.12c6-.74,11.61-1.43,17.29-1.86a83.53,83.53,0,0,1,8.38,0c8.15.28,17.37.58,23.09-5.71,3.64-4,5.13-9.92,4.53-18,29.19-18.06,56.71-23,88.38-16V44.32a26.85,26.85,0,0,0-8.75,3.94c-3.48,2.64-2,6.67-.39,10.93.38,1,.77,2.08,1,2.85a4.88,4.88,0,0,0,7.67,2.47,31,31,0,0,0,9.54-11c11-16.33,22-29.93,32.67-43,4.22,1.42,8.3,2.9,12.27,4.33,10.56,3.81,20.53,7.4,31,9.31,20.56,3.76,35.24,13.71,41.34,28,6.47,15.15,3,34.1-9.65,53.36l-3.39,5.12c-9.72,14.7-19.78,29.89-27.66,46-3,6.24-2.28,13.72-1.6,20.32.27,2.64.52,5.13.52,7.32a4.87,4.87,0,0,0,3.67,4.72c20.32,5.2,26.47-9.8,31-20.76,4.31-10.52,7.17-17.52,17.88-15.5-3.22,3.45-6.15,6.79-6.64,11.18-.92,8.15-1.25,16.42-1.57,24.42-.39,10-.8,20.34-2.39,30.18-1,6.07-3.78,13-6.5,19.76-4.94,12.27-9.6,23.85-5,32.85,9.92,19.45,2.81,33.11-5.42,48.93a143.17,143.17,0,0,0-8.91,19.45l-1.61.49c-2.94.89-6.29,1.9-9.11,4.05-3.48,2.65-2,6.67-.4,10.93.39,1,.78,2.08,1,2.85a4.89,4.89,0,0,0,7.68,2.47,31,31,0,0,0,8.44-9.07,70.24,70.24,0,0,1,16.39.08c.45,10.28.21,22.64-3.79,32.89-2.25,5.75-6.32,11.41-25,8.24a4.88,4.88,0,0,0-3.44-3.67c-11-3.14-17-4.65-20.73-1.89a5.93,5.93,0,0,0-1.26,1.24c-5.58,2.75-6.75,7.3-5.94,10.61.91,3.7,4.16,6.13,7.55,5.64a44.39,44.39,0,0,0,4.83-1,112.55,112.55,0,0,0,11.25,9.61c4.09,3.18,9.69,7.54,9.59,9.55,0,.2-.26,2-5.68,5.37-17,10.58-33.43,21.89-49.28,32.82-6.78,4.68-13.19,9.1-19.56,13.41a4.87,4.87,0,0,0,2.22,8.88c6.69.7,10.73,7.14,15.41,14.6,4.56,7.28,9.29,14.81,17.46,18.14,11.75,4.78,25.06,3.85,40.47,2.79,5.28-.37,10.7-.74,16.32-.9-.36,3.52-.56,7.06-.76,10.52-.49,8.31-1,17.72-4,19.83-4.16,3-6.57,6.46-7.15,10.37-1,6.4,3.27,11.89,6.35,15.91.6.78,1.38,1.8,2,2.66-.14,0-.28.08-.44.11-9.56,2.2-18.59,4.29-22.47,11.6-2.89,5.47-2.33,12.67,1.81,23.34a4.9,4.9,0,0,0,3,2.86,4.83,4.83,0,0,0,4.12-.5l16-10c-.06.86-.12,1.7-.17,2.51-.26,3.84-.6,9-1.34,10.71-11.5,5.53-24.06,9.66-39.9,14.87-6.58,2.16-14.05,4.62-22.2,7.42a4.88,4.88,0,0,0,0,9.21l36.43,12.79c0,2,.12,4,.19,6.13.27,7.33.55,14.9-.47,22.16-2.8,20-12.41,29.23-30.22,29-11.19-.14-22.53-.11-34.54-.07l-11.09,0a27,27,0,0,0-3.94-8.74c-2.65-3.49-6.68-2-10.94-.4-1,.38-2.08.78-2.84,1a4.87,4.87,0,0,0-2.47,7.68,31.57,31.57,0,0,0,8,7.73c-1.71,5.71-5.64,12.44-12,23.26a4.87,4.87,0,0,0,4.93,7.28c10-1.5,20.14-4.52,29.91-7.44,30.32-9,54.28-16.21,70.44,16.91a4.89,4.89,0,0,0,6.43,2.29l28.18-13V801l-55.92,54.17-6-35.78a4.89,4.89,0,0,0-6.87-3.61,285,285,0,0,0-25.32,14c-24.5,14.6-45.65,27.22-71,14.11a4.85,4.85,0,0,0-6.14,1.42c-4.24,5.68-6.12,11.64-7.79,16.9-2.94,9.3-4.3,13.54-15.36,12.89-4.72-.27-9.43-2.17-14.42-4.19-10.86-4.38-24.38-9.83-41.45,2.33-8.13,5.79-23.22,4.13-37.81,2.53-5.66-.62-11.47-1.26-17-1.49-8.35-51.74-6.71-53.17,44-80.83a4.88,4.88,0,0,0,1.78-6.89l-41.67-65.75c20.48-10.24,33.68-8,44.85,7.35,20,27.37,46,35.74,79.57,25.6a4.86,4.86,0,0,0,3.44-4.15l1.94-18.37a4.86,4.86,0,0,0-4.84-5.38H1372c-11.36-8.46-17.71-32.54-6.83-68.67a4.86,4.86,0,0,0-6.22-6l-64.18,21.71a8.4,8.4,0,0,1-1.26-1.11l-.12-6.51c-.7-38.94-1.09-60.4,7.72-68.89s31.16-7.42,71.48-5.24l10,.53a4.86,4.86,0,0,0,1.38,1.71c.68.53,1.34,1.07,2,1.61A46.38,46.38,0,0,0,1393,600a5.23,5.23,0,0,0,6.59-1.45c.61-.76,2.91-4.09.66-9.39,1.19-2.79-.5-5.46-2.41-7.89.1-6.93,2.33-13.11,7-22a4.9,4.9,0,0,0,6.27-1.23c.52-.67,1.06-1.34,1.6-2a47,47,0,0,0,5.09-7.15,5.22,5.22,0,0,0-1.46-6.59c-.75-.62-4.08-2.92-9.38-.66-3.24-1.38-6.31,1.11-9,3.34a5,5,0,0,0-1.29,1.6c-15.5,5.56-28.86,7.65-42.54,9.4-1.82-33.37-29.47-61.13-57.38-72-11.29-4.37-14.24-11.46-17.66-19.66-2.68-6.43-5.44-13.07-12.33-17.83-.24-3.1,1.87-11.92,3.17-17.34l.6-2.52a13.84,13.84,0,0,0,5.31,2.74c7.06,1.84,13.41-2.67,19-6.66,8.76-6.23,10.59-6.24,13.2-3,14.7,18.31,34,27.8,58.41,39.81l2,1a4.8,4.8,0,0,0-.47,2.42,4.86,4.86,0,0,0,1.86,3.55c.68.52,1.34,1.07,2,1.61a47.07,47.07,0,0,0,7.14,5.08,5.22,5.22,0,0,0,6.59-1.46c.61-.75,2.91-4.08.66-9.38,1.38-3.24-1.11-6.31-3.34-9.05a4.92,4.92,0,0,0-2-1.48,57.28,57.28,0,0,1-1.49-7.58c-1.18-7.85-2.51-16.73-15.65-21-6.2-2-12.2-5.52-19.79-10-2.47-1.44-5.14-3-8-4.64l4.1-4.21c5.26-5.43,9.81-10.12,14.63-14.31,5.57-4.86,13.73-14.66,23.19-26,12.46-15,27.92-33.52,42.56-46.82a4.86,4.86,0,0,0,1.91-2.07c5.11-6.59,4.26-12.27,1.62-15.48a7,7,0,0,0-8.73-2.09,57.21,57.21,0,0,0-10,7.5c-11.94-4.67-12.17-12.42-12.48-22.9-.27-9.28-.61-20.83-12.38-28a4.87,4.87,0,0,0-6.94,2.07c-5.8,12.23-5.6,25.38-5.42,38.1.24,16.44.47,32-12.34,44.07A139.82,139.82,0,0,0,1342.1,354c-3,3.79-5.83,7.41-8.9,10.75a35.2,35.2,0,0,1-4.76-6.25,44.86,44.86,0,0,0,4.81-6.82,5.22,5.22,0,0,0-1.46-6.59c-.75-.61-4.08-2.91-9.38-.65-3.25-1.39-6.31,1.11-9.05,3.33a4.88,4.88,0,0,0-1,6.38c-7.18,9.37-12.58,15.77-20,24.43h-41.48V347l8.61-3.42a4.88,4.88,0,0,0,1.27-8.32l-10.69-8.64-4.17-10.5a4.87,4.87,0,0,0-8.32-1.26l-8,9.83-1.73-.07a49.83,49.83,0,0,0-10.59.36,40.12,40.12,0,0,0-9.46,3.24c-1.14.5-2.27,1-3.41,1.44a4.87,4.87,0,0,0-1.28,8.36c1.08.85,2.15,1.83,3.29,2.86,3,2.7,6,5.48,10,7,3.49,1.35,7.21,1.2,10.58.94v34l-44.26-18.26,12.56-13.33a4.88,4.88,0,0,0-3.68-8.22c-10.62.29-17.52-1.59-21.12-5.72-5.28-6.05-3.93-18-1.85-31.07a4.83,4.83,0,0,0,2.91-1.78c.53-.68,1.07-1.34,1.61-2a46.42,46.42,0,0,0,5.09-7.14,5.23,5.23,0,0,0-1.46-6.59c-.75-.62-4.09-2.92-9.39-.66-2.14-.88-4.23-.08-5.91,1-6-2.36-10.79-8.19-17.21-15.95a4.88,4.88,0,0,0-6.28-1.06L1126,279.32C1124,274.06,1123.53,270,1124.73,267.34Z"/><path d="M1341.61,114.35c.68.53,1.34,1.07,2,1.61a46.42,46.42,0,0,0,7.14,5.09,5,5,0,0,0,2.4.61,5.44,5.44,0,0,0,4.19-2.08c.61-.75,2.91-4.08.66-9.38,1.38-3.24-1.11-6.31-3.34-9a4.88,4.88,0,0,0-7.23-.37l-6.28,6.28a4.87,4.87,0,0,0,.45,7.29Z"/><path d="M1417.39,459.17l-9.07-5a4.88,4.88,0,0,0-5.8.82l-5,5a4.86,4.86,0,0,0,1.26,7.8c.82.42,1.64.87,2.45,1.32a31,31,0,0,0,8.13,3.49,5.65,5.65,0,0,0,1.26.14c3,0,5.1-2.53,6.66-4.45.44-.53.9-1.09,1.21-1.41a4.87,4.87,0,0,0-1.09-7.71Z"/><path d="M1304.53,205.06c.54.44,1.09.9,1.41,1.22a4.87,4.87,0,0,0,3.45,1.43,5.31,5.31,0,0,0,.68-.05,4.88,4.88,0,0,0,3.58-2.47l5-9.08a4.88,4.88,0,0,0-.82-5.8l-5-5a4.87,4.87,0,0,0-7.8,1.27c-.41.82-.87,1.64-1.32,2.45a30.7,30.7,0,0,0-3.48,8.12C1299.4,200.87,1302.36,203.29,1304.53,205.06Z"/><path d="M226.28,1641.32c2.64,19.34,5.38,39.33,28.83,48.87,19.46,7.91,39,14.7,59.67,21.89,8.08,2.81,16.41,5.71,24.79,8.7,0,3.33-.05,6.74-.09,10.21-.12,10.86-.24,22.1.21,33.47,1.4,35.5,13,47,49.72,49.3,9.25.57,18.7,1.79,27.85,3,13,1.66,26.39,3.39,39.76,3.39h.11c20.61,0,41.39-2.92,61.48-5.73l7.74-1.07c1.64-.23,3.39-.44,5.18-.65,11-1.29,23.5-2.76,28.9-10.32,12.92-18.08,29.15-17.58,47.94-17,5.08.15,10.3.29,15.49,0a4.84,4.84,0,0,0,1.87.41,4.93,4.93,0,0,0,1.94-.41l1-.42c4-.72,6.32-2.24,7-4.55a4.91,4.91,0,0,0-.13-3.17l30.06-33.61c5.49,4.28,11,8.09,16.35,11.8,12.76,8.84,23.78,16.47,28.5,26.41,9.82,20.7,26,24.2,40.25,27.28,6.82,1.47,13.27,2.86,18.57,6,15.31,9.1,28.85,12.73,41.18,12.73,24.79,0,44.67-14.67,64.11-29,2.78-2.06,5.59-4.13,8.43-6.18a4.81,4.81,0,0,0,2-3.47,4.86,4.86,0,0,0-1.28-3.8c-1.41-1.51-2.9-2.85-4.21-4-2-1.76-4-3.57-4.38-4.86-2.63-8.81-4.63-17.91-6.74-27.54-.85-3.88-1.72-7.84-2.66-11.91a4.87,4.87,0,0,0-8.37-2.16c-7.62,8.48-14.38,12.62-20,12.33-6.73-.35-13.16-6.93-19.61-15.27,3.06-.64,6.25-1.24,9.37-1.83,17.21-3.27,25.84-4.91,26.38-11.46,1-12.35,3.42-13.82,3.44-13.83,1.25-.38,6,2.56,8.47,4.15a69.25,69.25,0,0,0,9.09,5.07c9.48,4.07,19.58,6,30.27,8,4.65.88,9.45,1.79,14.28,2.9a4.88,4.88,0,0,0,6-4.75v-42.91a4.86,4.86,0,0,0-1.57-3.57c-17.75-16.41-38.15-29.63-57.88-42.41-37.37-24.21-72.72-47.11-93-90.38,16.56-23.07,19.93-52.88,9.19-82.3-18.86-51.62-26.53-96-24.07-139.38,20.6-7.45,27.16-24.59,32.47-38.49,2.37-6.2,4.61-12.06,7.72-16a4.89,4.89,0,0,0,.06-5.91l-30.75-41.36a4.86,4.86,0,0,0-5.48-1.7l-54.41,18.5a4.86,4.86,0,0,0-3.22,5.47c2.42,13.56,10.94,22.48,18.45,30.36,8.37,8.77,13.64,14.84,13.08,23.57l-59-37.64a4.87,4.87,0,0,0-6.26.88,104.69,104.69,0,0,1-7.74,7.5c-6.88,6.22-12.81,11.59-12.09,18.19,1.73,15.79.4,32.28-.88,48.23-2.4,29.64-4.87,60.29,11.22,89.9,8.76,16.13,4.1,29.08-16.76,45-1.13-2.92-2.29-5.77-3.43-8.56-4-9.89-7.84-19.24-9-28.58-1-8.68-.57-18-.12-27,.6-12.13,1.23-24.66-1.66-36.57-3.84-15.87-12.28-30.53-20.44-44.7-2.79-4.86-5.68-9.88-8.3-14.81-1.89-3.56-6-4.33-9.35-5-.95-.18-1.92-.36-2.52-.55a4.84,4.84,0,0,0-4,.42,4.89,4.89,0,0,0-2.32,3.21c-4.53,21.55-7.84,43.42-11,64.58-5,32.66-10.06,66.44-19.72,98.83-11.36,38.13-13.47,79.16-14.56,114.62-.84,27.53-8.24,48.64-23.93,68-7.22-1.74-14.44-4-22-6.48-27.33-8.76-55.54-17.8-84.76.91l-5.35-15.74a4.9,4.9,0,0,0-3.75-3.23l-181.28-32.7a4.87,4.87,0,0,0-4.53,8C222.31,1612.24,224.33,1627,226.28,1641.32Zm167-7,6.53,19.17a4.87,4.87,0,0,0,7.56,2.31c27.13-20.6,53.47-12.16,81.35-3.22,8.44,2.7,17.16,5.5,25.8,7.38a4.85,4.85,0,0,0,4.76-1.61c18.49-21.81,27.16-45.34,28.12-76.3,1.06-34.85,3.13-75.13,14.15-112.14,9.85-33,15-67.16,20-100.15,2.95-19.44,6-39.5,10-59.23a13.19,13.19,0,0,1,1.36.35c2.59,4.84,5.38,9.69,8.09,14.39,7.81,13.58,15.89,27.62,19.41,42.14,2.55,10.53,2,21.83,1.4,33.79-.47,9.38-1,19.09.17,28.59,1.27,10.65,5.32,20.59,9.61,31.11,1.88,4.6,3.82,9.37,5.53,14.23a4.88,4.88,0,0,0,7.4,2.38c19.6-13.8,40.14-33.25,24.84-61.41-14.7-27.06-12.45-54.95-10.07-84.47,1.32-16.4,2.69-33.36.86-50,.06-1.9,5.62-6.93,8.94-9.94,1.87-1.69,3.79-3.43,5.6-5.22l61.58,39.27a4.87,4.87,0,0,0,7.25-2.6c6.08-18.66-4.58-29.85-14-39.71-6-6.27-12.14-12.73-14.9-21.31l46.8-15.92L788,1261.87c-2.81,4.55-4.85,9.87-7,15.45-5.32,13.91-10.82,28.29-29.38,33.68a4.88,4.88,0,0,0-3.51,4.35c-3.14,45.81,4.62,92.41,24.43,146.67,10,27.22,6.48,54.69-9.51,75.37a4.88,4.88,0,0,0-.6,5c21.28,47.59,60.19,72.8,97.81,97.17,18.8,12.18,38.21,24.76,55,40v34.72c-2.94-.6-5.84-1.15-8.68-1.69-10.15-1.92-19.74-3.74-28.25-7.4a58.89,58.89,0,0,1-7.74-4.36c-5.94-3.74-12.08-7.6-18-4.62-4.9,2.45-7.52,8.5-8.65,20.09-3.2,1.41-12.36,3.15-18.62,4.34-5.84,1.11-11.87,2.25-17.15,3.6a4.87,4.87,0,0,0-2.73,7.59c9.76,13.42,18.86,24.57,31.43,25.22,6.91.36,13.94-2.64,21.34-9.12.24,1.08.47,2.15.71,3.22,2.15,9.81,4.19,19.09,6.92,28.24,1.11,3.72,3.94,6.39,6.76,8.92l-3.77,2.78c-29,21.38-54,39.84-94.52,15.74-6.67-4-14.2-5.59-21.49-7.17-13.24-2.86-25.74-5.56-33.51-21.92-5.83-12.3-18.42-21-31.75-30.25-6.38-4.42-13-9-19.36-14.24a4.88,4.88,0,0,0-6.73.51l-37.52,42c-4.94.27-9.95.12-15.23-.05-18.86-.57-40.23-1.24-56.17,21.09-2.89,4-14,5.35-22.1,6.3-1.87.22-3.68.44-5.38.67l-7.76,1.08c-19.76,2.76-40.2,5.62-60.13,5.63H457c-12.74,0-25.85-1.68-38.52-3.31-9.3-1.19-18.92-2.42-28.48-3-31.81-2-39.39-9.45-40.59-40-.44-11.13-.32-22.24-.2-33,0-4.71.09-9.3.09-13.74a4.88,4.88,0,0,0-3.22-4.59c-9.52-3.41-19-6.7-28.12-9.88-20.56-7.15-40-13.91-59.2-21.72-18.23-7.42-20.27-22.31-22.84-41.16-1.58-11.52-3.31-24.22-9.56-35.79Z"/><path d="M1592.33,927.27c-19.21-9.06-37.36-17.62-56.39-23.83-17.27-5.64-32.29-2.27-43.43,9.72-15.46,16.67-29.08,25.9-40.48,27.45-25.63,3.48-34.53,22.19-41.67,37.23-1.57,3.29-3.07,6.46-4.67,9.37-5-1.54-9.62-2.91-14.14-4.24-11.35-3.35-21.15-6.25-30.29-10.16-8.11-3.48-14.07,2.8-18,7-2.32,2.45-4.88,5.25-6.81,5.13-.77,0-3-.65-6.72-5.51-4.33-5.57-14.27-2.21-28,2.45l-4.18,1.4c.33-1.16.67-2.3,1-3.39,3.17-10.77,4.62-15.69.21-18.35-12.43-7.52-25.31-13.8-41.61-21.74l-7.42-3.62,2.43-1.08c7.5-3.3,14-6.15,18.25-11.35,4.09-5,4.53-11.84,5-18.48.17-2.6.33-5.05.69-7.27a4.87,4.87,0,0,0-4.21-5.63c-21.69-2.66-35.79-11.25-47.14-28.74-3.93-6-13.89-3.16-36.06,3.95-6,1.93-12.23,3.92-17.76,5.42-24.87-22.47-58.67-51.59-106.9-38.27a4.87,4.87,0,0,0-3.57,5c1.34,22.39,12.14,64.17,22.42,71.43,26.54,18.75,55.3,18.26,87.76-1.56,2.92,6,5.66,11.72,8.3,17.21,7.37,15.36,13.75,28.63,20.72,41.87,1,1.9,2,3.69,3,5.43,6.59,11.77,10.56,18.87.66,36.35-12.87,22.74.37,42.42,13.18,61.45,6.88,10.24,14,20.83,16.66,31.56,1.19,4.8,6.91,4.43,12,4.12a82.65,82.65,0,0,0,12.07-1.63c3.26-.76,6.68-2.82,9.71-4.63.7-.41,1.59-1,2.36-1.38,9.62,8.22,18.13,11.37,25.78,11.37,14.15,0,25.34-10.77,35-20.08,2.42-2.33,4.89-4.71,7.38-6.93l7.64,21.29a4.88,4.88,0,0,0,4.12,3.2c40.39,3.94,77.88-7.35,114.13-18.28,16.66-5,33.9-10.22,50.88-13.71a4.86,4.86,0,0,0,3.89-4.54l1.41-30.31c1.69,2.08,2.76,5,4,8.77,2.85,8.35,6.76,19.79,25.72,17.85s34.49-7.88,51.74-16.15c1.57-.76,4.21-2,13.85-23.14,4.36-9.57,9.66-22.33,11.64-29.28,1-3.54,1.31-5.84,0-7.9a4.87,4.87,0,0,0-2.54-2L1608,984.63l11.73-40.1a4.87,4.87,0,0,0-2.68-5.82C1608.51,934.9,1600.29,931,1592.33,927.27Zm5,59.1a4.88,4.88,0,0,0,3.1,6l16.47,5.62c-3.15,10.62-16.84,41.28-20.74,45.87-16.11,7.7-30.49,13.18-48,15-11.25,1.16-12.75-3.27-15.5-11.3-2.39-7-5.36-15.72-16.59-18.52a4.86,4.86,0,0,0-6,4.5l-1.61,34.49c-16.18,3.53-32.35,8.41-48,13.14-34.4,10.37-69.94,21.09-107.31,18.18l-8.92-24.88a4.87,4.87,0,0,0-7.53-2.24,155.29,155.29,0,0,0-13.45,12c-16.08,15.48-27.69,26.65-49.43,6.81a5.31,5.31,0,0,0-3.68-1.48c-2.57,0-5.38,1.69-8.3,3.43-2.29,1.37-5.15,3.08-6.92,3.5a74.77,74.77,0,0,1-13.23,1.51c-3.48-11.18-10.42-21.5-17.16-31.51-12.17-18.09-22.68-33.71-12.78-51.2,12.6-22.26,6.47-33.22-.63-45.92-.93-1.66-1.9-3.39-2.86-5.21-6.89-13.08-13.22-26.28-20.56-41.55-3.35-7-6.88-14.32-10.7-22.16a4.88,4.88,0,0,0-7.06-1.93c-31.09,20.51-57,22-81.45,4.7-5-3.55-15.63-34.71-18-60,38.95-9,66.51,12.3,95.85,38.85a4.87,4.87,0,0,0,4.46,1.11c6.42-1.63,13.76-4,20.85-6.25,8.59-2.75,21.25-6.81,25.53-6.81h.12c11.94,17.86,27.11,27.66,48.61,31.3-.09,1.1-.16,2.2-.23,3.29-.33,5.1-.67,10.38-2.76,12.92-2.81,3.41-8,5.71-14.66,8.62-3.56,1.57-7.6,3.35-11.93,5.59a4.88,4.88,0,0,0,.08,8.7c5.88,2.91,11.35,5.58,16.5,8.09,15.12,7.37,27.26,13.28,38.67,20-.46,2.12-1.48,5.61-2.35,8.56-1.1,3.73-2.34,7.95-3.36,12.18a4.88,4.88,0,0,0,5.91,5.87c3.86-.95,8.56-2.54,13.11-4.08,5.51-1.86,14.44-4.88,17.73-4.88h.14c4.43,5.46,8.79,8.22,13.29,8.45,6.34.3,10.78-4.39,14.36-8.16,3.85-4.07,5.5-5.39,7.09-4.71,9.67,4.15,19.73,7.12,31.38,10.55,5.57,1.65,11.33,3.35,17.66,5.35a4.88,4.88,0,0,0,5.6-2,133.31,133.31,0,0,0,7.1-13.59c7.09-14.91,13.77-29,34.18-31.76,13.69-1.85,29.27-12.11,46.32-30.47,8.6-9.26,19.48-11.58,33.26-7.08,18.44,6,36.33,14.45,55.26,23.37,6.79,3.2,13.77,6.5,21,9.78Z"/><path d="M1951.15,2281.5c-2.61,1.16-5.26,2.34-7.94,3.51.9-1.86,1.76-3.58,2.54-5.15,4.27-8.55,6.85-13.71,4.64-18.63-.71-1.57-1.42-3.2-2.15-4.85-6-13.58-12.7-29-24.61-35.71q-4-2.27-8.06-4.58c-31.82-18.09-64.71-36.8-99.81-43.48-23.33-4.44-37.47-16.35-53.85-30.14a4.88,4.88,0,0,0-7.71,2l-7.65,20.74c-9.51-9.88-16.34-17.44-15.79-20.34s10.63-7.49,22.31-12.81a4.87,4.87,0,0,0,1.19-8.1l-36.68-32.16a4.87,4.87,0,0,0-7.79,2l-6,16.69-18.54-11.41a4.87,4.87,0,0,0-7.43,4.15v53.82c0,4.95-.13,10-.26,14.94-.3,11.43-.61,23.25.69,34.86.79,7.08,3.39,15.27,5.91,23.19,2.09,6.61,5.58,17.59,4.58,20.34-5.93,5.28-8.94,10.32-9.19,15.42-.34,6.9,4.31,11.9,8.4,16.31,4.41,4.74,7.07,7.84,6.23,11.82-1.15,5.45-1.78,10.55-2.39,15.48-1.55,12.55-3,24.4-12.78,41.74-5.25,9.31-7.8,19.8-11,33.08-1.64,6.71-3.49,14.32-6,22.84a4.87,4.87,0,0,0,6.85,5.72l69.75-34.64c19.86,3.25,21.42,15,23.39,29.73,1,7.3,2,14.85,5.66,21.17a4.88,4.88,0,0,0,4.21,2.41h33.68a4.88,4.88,0,0,0,4.62-3.31c5.94-17.59,14.6-34.1,23-50.07,11.87-22.63,24.15-46,28.66-72.6.39-2.18,3.9-9.66,7.84-10.73,2.47-.67,5.33,1.93,7.3,4.23,6,6.95,15.44,7.15,23.81,7.33,6.73.15,13.1.29,16.06,3.64,2.23,2.52,3,7.3,2.31,14.2a4.88,4.88,0,0,0,3.94,5.28c5.63,1.07,11.65,1.61,17.48,2.13,12,1.07,24.37,2.18,31.63,8,8.59,6.91,16.26,9.87,23.46,9,10.45-1.24,17.41-10.27,23-17.52,5.76-7.47,9.66-16.21,13.44-24.66,1.6-3.6,3.26-7.32,5-10.82a4.88,4.88,0,0,0-.25-4.82C2013.15,2253.92,1983,2267.31,1951.15,2281.5Zm72,21c-3.71,8.29-7.2,16.13-12.26,22.68-5.69,7.38-10.52,13.09-16.43,13.79-4.46.53-9.76-1.74-16.2-6.93-9.56-7.69-23.44-8.93-36.87-10.14-4.11-.36-8.32-.74-12.31-1.3.14-7.51-1.5-13.12-5-17.06-5.79-6.55-15-6.74-23.15-6.92-6.94-.15-13.5-.29-16.62-3.93-6.9-8.07-13.23-8.41-17.32-7.28-9.25,2.56-14.17,14.62-14.83,18.49-4.25,25-15.63,46.73-27.68,69.71-8,15.31-16.32,31.11-22.43,48.16h-27.2c-1.79-4.29-2.49-9.58-3.23-15.13-2.05-15.33-4.59-34.4-33.19-38.31a4.86,4.86,0,0,0-2.83.46l-61.37,30.48c1.18-4.54,2.21-8.76,3.17-12.69,3-12.55,5.46-22.46,10-30.6,10.73-19,12.38-32.39,14-45.33.61-4.94,1.19-9.62,2.26-14.66,1.92-9.12-3.93-15.41-8.63-20.47-3.06-3.29-5.94-6.39-5.81-9.19.12-2.32,2.22-5.35,6.09-8.76,6.05-5.33,2.53-16.41-1.92-30.43-2.38-7.47-4.83-15.19-5.52-21.33-1.22-10.94-.92-22.41-.63-33.51.13-5,.27-10.12.27-15.2V2112l16.22,10a4.88,4.88,0,0,0,7.15-2.5l5.61-15.61,25.64,22.48c-13,6.06-19.72,10-21,16.74-1.58,8.38,5.84,16,23.77,34.49a4.88,4.88,0,0,0,8.07-1.71l7.93-21.51c14.86,12.34,29.91,23.41,53,27.8,33.51,6.38,65.69,24.69,96.82,42.39,2.7,1.53,5.39,3.07,8.08,4.58,9.09,5.15,15.15,19,20.49,31.14.71,1.63,1.42,3.24,2.12,4.8,0,1.49-2.31,6.23-4.41,10.42-2.21,4.44-5,10-7.85,16.91a4.87,4.87,0,0,0,6.3,6.39c6.81-2.7,13.33-5.6,19.63-8.41,30.73-13.67,53.16-23.65,72,3.45C2025.76,2296.73,2024.45,2299.66,2023.18,2302.51Z"/><path d="M1031,491.83c9.94,13,21.14,27.58,42.14,32.21-6,10-9.73,16.39-13.64,23.1l-.08.15a4.87,4.87,0,0,0,1.53,6.52c20.46,13.47,40,5.66,57.14-1.24,7.4-3,14.44-5.79,21.19-6.89,4,8.66,5.27,15.64,3.63,20.76-2.31,7.18-10.27,11.25-18.71,15.56-9.16,4.68-18.64,9.52-22.23,19.21a4.87,4.87,0,0,0,.09,3.6c9.37,22,22.19,42,51,43-5.1,5-8.75,9.7-8,15.34.82,6.21,6.68,9.89,11,12.12,14.22,7.3,25.56,10.81,35.14,10.81a35.61,35.61,0,0,0,5.13-.36c15.87-2.27,31.32-7.63,46.27-12.81,5.5-1.91,11.2-3.89,16.78-5.66a5,5,0,0,0,3.15-3c.8-2.16.16-6.66-1.25-8.93-9.83-15.69-1.93-26.17,7.21-38.32,4.2-5.58,8.55-11.35,11.08-17.76,6.31-15.95,15.58-30.49,25.4-45.9,4.16-6.53,8.47-13.28,12.48-20.09a4.87,4.87,0,0,0-.75-5.92c-1.66-1.66-3.33-3.64-5.11-5.74-4.24-5-9-10.7-15.44-13.88-41.28-20.54-60.82-48.41-61.52-87.71-.09-5.4-5.73-6.69-17-9.25-3.07-.71-6.25-1.43-8.71-2.15a4.87,4.87,0,0,0-6.15,5.63l6.81,33.86c-11.28-13.69-22.68-26-33.81-38-25.22-27.27-47-50.82-60-81.94-2.07-5-8.18-4.47-17.41-3.73-1.29.1-2.59.2-3.83.28a26.48,26.48,0,0,0-3.89-8.61c-2.65-3.49-6.68-2-10.94-.4-1,.38-2.08.78-2.84,1a4.87,4.87,0,0,0-2.48,7.67l6.51,8.35a4.85,4.85,0,0,0,3.84,1.88h.62c-.19,1.38-.37,2.79-.54,4.19-.45,3.51-1.07,8.43-1.67,11.1-9.76,1.2-16.45,4.47-20.41,9.94-6.71,9.29-3.6,22.18-.58,34.65q.52,2.14,1,4.29c-6.31-.21-10.79,1-14,3.85-4.55,4.06-4.7,10.07-4.83,14.89a28.23,28.23,0,0,1-.6,6.33c-1.7,6.13-4.48,12.14-7.41,18.5-1.37,3-2.79,6-4.15,9.23a4.88,4.88,0,0,0,3.7,6.72L1071.5,464c.68,13.5-1.68,16.38-2.48,17-1.8,1.3-7.68-1.18-12-3-9-3.78-22.54-9.49-29.93,4.12a4.88,4.88,0,0,0,.45,5.34C1028.71,488.84,1029.85,490.33,1031,491.83Zm22.26-4.92c7.49,3.16,15.23,6.41,21.47,1.9,5.62-4.07,7.55-13.14,6.24-29.43a4.87,4.87,0,0,0-4.08-4.42l-33.13-5.38c.5-1.1,1-2.19,1.5-3.26,3.1-6.74,6-13.1,8-20a35.34,35.34,0,0,0,1-8.67c.09-3.41.17-6.62,1.58-7.87a5.71,5.71,0,0,1,2.85-1.15,4.73,4.73,0,0,0,1.29,1.53l2,1.61a46.87,46.87,0,0,0,7.14,5.08,5.22,5.22,0,0,0,6.59-1.45c.62-.75,2.92-4.09.66-9.39,1.38-3.24-1.11-6.3-3.33-9l-.17-.2c-.36-1.56-.74-3.14-1.12-4.71-2.49-10.32-5.08-21-1-26.64,2.5-3.46,7.88-5.55,16-6.21,5.49-.45,6.24-6.36,7.87-19.32.24-1.88.48-3.8.73-5.58,1.3-.08,2.62-.18,3.93-.29,2.49-.2,6.34-.51,8.42-.41,13.78,31.84,36.78,56.7,61.1,83,15.15,16.38,30.82,33.32,45.86,53.4a4.87,4.87,0,0,0,8.67-3.88l-9.3-46.31,1.61.37c3,.68,7.16,1.63,9.45,2.4,1.51,42,22.81,71.88,66.85,93.79,4.59,2.28,8.53,6.94,12.34,11.44,1,1.18,2,2.38,3,3.54-3.39,5.63-7,11.24-10.44,16.69-9.63,15.11-19.59,30.73-26.24,47.54-2,5.19-5.82,10.2-9.81,15.49-9.21,12.24-20.63,27.41-8.4,48.18-4.34,1.43-8.67,2.93-12.9,4.4-14.5,5-29.51,10.23-44.45,12.38-8.42,1.2-19.68-1.9-34.44-9.48-5.41-2.78-5.78-4.54-5.81-4.73-.29-2.22,5.44-7.43,9.63-11.24,1.76-1.6,3.58-3.26,5.42-5a4.88,4.88,0,0,0-3.39-8.38,4.59,4.59,0,0,0-.73.06c-29.9,4.5-43-9.68-53.77-34.28,2.89-5.19,9.65-8.64,16.77-12.27,9.37-4.79,20-10.22,23.55-21.26,2.68-8.38.81-18.6-5.74-31.23a4.86,4.86,0,0,0-4.7-2.62c-9.21.71-18.4,4.39-27.29,8-15.07,6-29.38,11.78-44.16,4.44,2.88-4.94,5.93-10.13,10.14-17.15a4.88,4.88,0,0,0,6.64-1l1.61-2a46.27,46.27,0,0,0,5.1-7.15,5.24,5.24,0,0,0-1.48-6.58c-.75-.61-4.08-2.91-9.38-.65-2.35-1-4.65.09-6.47,1.34-18.35-3.58-28.19-16.43-37.73-28.87l-1.21-1.57C1040.26,482.07,1044.49,483.22,1053.26,486.91Z"/><path d="M1106.17,1374.2a4.88,4.88,0,0,0-2.32-5.32l-36.11-20.8v-28.17l29.16-4.19a4.87,4.87,0,0,0,1.64-9.1c-3.61-2-6.58-3.83-9-5.32-5.35-3.35-8.88-5.57-12.58-3.48-4.92,2.77-9,6.58-13,10.26-1,.92-2,1.83-3,2.73h-34.32l39.31-41.5a4.87,4.87,0,0,0-1.63-7.84c-2.69-1.14-6.06-3-6.85-5.35-1-3,1.82-8,4.57-12.77,3.55-6.16,7.57-13.15,5.53-20.17-1.21-4.2-4.43-7.7-9.57-10.41a4.86,4.86,0,0,0-2.27-.56h-35c5.28-4.82,9.69-13.56,16.87-28.67a4.87,4.87,0,0,0-7.13-6.13l-44.72,30.22a4.87,4.87,0,0,0,2.28,8.89c6.35.58,11.48,1,15.77,1,5,0,8.93-.59,12.24-2.13a3.65,3.65,0,0,0-.2.64c-1.59,7.16-4.72,11.56-9.3,13.08-6.65,2.21-15.48-1.7-19.37-5-19.3-16.6-37.09-13.52-54.3-10.54-3.75.65-7.63,1.32-11.44,1.76a4.87,4.87,0,0,0-4.32,4.84c0,8.9,0,15.71,3.32,24-8,.25-13.21,2.57-16,7.05-3.14,5.09-2.31,11.94,2.47,20.34s10.68,13.17,17.8,14.6c5.93,1.19,12.43-.12,19.4-3.91.12,5.8.64,11.59,1.14,17.26,2.22,24.93,4,44.76-26.37,54.37-4-4.3-6.52-10.28-9.19-16.55-5.79-13.63-13-30.59-38.88-25.49a4.88,4.88,0,0,0-3.39,2.55l-20,38.88a4.87,4.87,0,0,0,1.66,6.29c59.78,39.39,111,95.69,156.48,172.12a4.88,4.88,0,0,0,6.88,1.57c11.82-7.86,18.5-17.87,25-27.56,7.47-11.19,13.92-20.86,27.29-25.63,23.09-8.24,35.65-32.89,32-62.82-1-8.11,1.9-17.38,5-27.2C1103.26,1384.93,1104.89,1379.71,1106.17,1374.2Zm-25.76-67.06c.44.23,1,.54,1.53.88l-3.54.51C1079.06,1308,1079.73,1307.58,1080.41,1307.14Zm-67.24-101.29c-2.34,1.57-5.33,2.09-10.29,2l17.86-12.07C1018,1200.89,1015.64,1204.18,1013.17,1205.85Zm79.22,181.22c-3.38,10.84-6.57,21.09-5.33,31.28,3.12,25.61-6.69,45.71-25.6,52.46-16.42,5.85-24.4,17.83-32.12,29.4-5.09,7.62-10.32,15.46-18.13,21.81-44.66-73.85-94.81-129-153.09-168.24L875,1320.94c16.2-2.32,20.25,7.19,25.75,20.13,3.37,7.92,6.85,16.1,13.66,21.92a4.88,4.88,0,0,0,4.49,1c40.9-11.47,38.34-40.12,36.09-65.41-.75-8.38-1.52-17-.9-25.21a4.87,4.87,0,0,0-7.84-4.22c-7.73,6-14.32,8.46-19.59,7.4-4.23-.85-8-4.17-11.25-9.86s-3.47-9.08-2.64-10.42c.29-.47,1.38-1.66,5.08-2.19a4.64,4.64,0,0,0,1.16,1.3c.68.53,1.34,1.07,2,1.62a47.07,47.07,0,0,0,7.14,5.08,5.24,5.24,0,0,0,6.59-1.46c.61-.75,2.91-4.09.65-9.39,1.39-3.23-1.11-6.3-3.33-9a4.92,4.92,0,0,0-2.55-1.65c-2.16-5.4-2.56-10.08-2.63-16.15,2.6-.38,5.16-.83,7.66-1.26,16.35-2.83,30.47-5.28,46.29,8.33,5.55,4.77,17.81,10.55,28.79,6.9,5-1.66,11.32-5.87,14.71-16.4h30.15c2.1,1.26,3.36,2.58,3.75,3.94.88,3-1.91,7.91-4.62,12.61-3.64,6.33-7.77,13.52-5.36,20.72a16,16,0,0,0,6.3,8l-42.76,45.14a4.88,4.88,0,0,0,3.54,8.23H1058v30.33a4.87,4.87,0,0,0,2.44,4.22l35.36,20.38C1094.77,1379.44,1093.56,1383.3,1092.39,1387.07Z"/><path d="M991.19,880.57l-6.11,18c-11.42-11.56-25.45-11-38-10.47-2.54.1-5,.19-7.37.2a26.8,26.8,0,0,0-4-8.81c-2.64-3.49-6.67-2-10.93-.4-1,.38-2.08.78-2.84,1a4.87,4.87,0,0,0-2.48,7.67l6.51,8.35a4.88,4.88,0,0,0,3.84,1.88h2.7c2.89,8.27,7.66,15.77,12.28,23,7.15,11.24,13.94,21.92,13.94,34.9-11.1-3-16.75-12.46-23.17-23.17-8.56-14.29-18.27-30.5-43.06-30.5h0a4.88,4.88,0,0,0-4.68,6.24c1.83,6.27,3.62,12,5.36,17.48,4,12.76,7.49,23.79,9.08,34.68-.18,1.5-4,5.33-6.25,7.57-.57-1.86-1.13-3.72-1.69-5.55-3-10-6.14-20.32-10.27-30.18-10.44-24.94-24.19-49.92-66.76-57.34a4.88,4.88,0,0,0-5,7.41l29.74,47-16,5.47a4.86,4.86,0,0,0-1.86,8l50.66,50.68v22a4.88,4.88,0,0,0,6,4.75l82.19-19-27.54,36a4.88,4.88,0,0,0-.45,5.21l18.14,35a4.89,4.89,0,0,0,4.33,2.63c5.67,0,11.34.18,16.83.35s10.9.35,16.21.35a133.78,133.78,0,0,0,24.47-1.91c9-1.66,17.52-19.22,18.9-23.56.41-1.29,1.5-4.72-.92-7.21-7.47-7.68-5.83-12.17-2.55-21.13a97,97,0,0,0,3-9.25c10.53-40.78,17.24-93.13-24.75-136.31-2.48-2.56-6-3.16-8.87-3.65a27.3,27.3,0,0,1-2.7-.54A4.88,4.88,0,0,0,991.19,880.57Zm7.85,7.18a10.7,10.7,0,0,1,2.68.68c30.12,31,37,70.17,22.31,127.09-.77,3-1.77,5.68-2.73,8.33-3.29,9-6.68,18.26,3.11,29.53-1.72,4.8-8.23,15.19-11.16,16.13-12.18,2.26-25,1.85-38.6,1.41-4.61-.15-9.36-.3-14.17-.35L945.11,1041,979,996.63a4.87,4.87,0,0,0-5-7.71l-89.4,20.66V991.69a4.92,4.92,0,0,0-1.43-3.45l-46.57-46.57,14.43-4.95a4.87,4.87,0,0,0,2.54-7.21L826.9,887.37c29,8.6,39.41,28,48.14,48.87,3.93,9.4,7,19.49,9.94,29.24,1.35,4.47,2.74,9.1,4.22,13.63a4.87,4.87,0,0,0,8.44,1.53,70.1,70.1,0,0,1,5-5.25c5-4.95,10.16-10.07,9.3-16-1.71-11.83-5.29-23.2-9.44-36.37-1.07-3.4-2.16-6.87-3.27-10.5,14.39,2.48,20.78,13.13,28,25.22,7.57,12.64,16.16,27,35.57,28.74a4.85,4.85,0,0,0,5.28-4.2c2.54-18.86-6.39-32.92-15-46.51-3.84-6-7.51-11.81-10.06-17.81,1.5,0,3-.1,4.48-.16,14-.57,26.07-1.06,35.26,13.39a4.87,4.87,0,0,0,8.72-1.05Z"/><path d="M626.08,1079.63a4.86,4.86,0,0,0,1.79-.34c27.94-11,27.93-11,54.14-4.78a5.47,5.47,0,0,0,1,.13l53.8,1.34a5.05,5.05,0,0,0,3-.9c3-2.12,6.16-4.06,9.52-6.11,7.7-4.7,15.66-9.55,21.12-16.75,12.79-16.86,18.27-37.78,15.85-60.48-.91-8.52-.73-17.15-.49-28.07.12-5.41.25-11.55.25-18.33a4.87,4.87,0,0,0-6.69-4.52l-49.45,19.82c-2.12-2.38-4.41-4.74-6.79-7.21-7.49-7.74-15.24-15.75-18.15-24.84-.52-1.62,1.85-5.36,3.75-8.37,4.82-7.62,12.89-20.39-3.56-32.53-7-5.13-5.64-7.6,0-15.34,4.19-5.72,9.94-13.55,4.73-22.59a4.88,4.88,0,0,0-3.36-2.36c-29.15-5.23-37.08,15.56-42.88,30.74a93.33,93.33,0,0,1-5.48,12.6c-5,8.91-1.73,18.73,1.21,27.39,4.63,13.68,8.29,24.48-13.08,34.59a4.88,4.88,0,0,0-.89,8.27l30.46,23.43-14.23,14.22-10.57-9.43L649.74,988a4.87,4.87,0,0,0-8,2.47l-20.42,83.1a4.86,4.86,0,0,0,4.73,6Zm23.22-78.94,9.3,8.29a4.87,4.87,0,0,0,6.68-.2l21.4-21.39a4.91,4.91,0,0,0,1.42-3.77,4.85,4.85,0,0,0-1.89-3.54l-28.92-22.25c21.3-13.36,15.59-30.22,11.32-42.83-2.61-7.69-4.86-14.34-2-19.45a103.47,103.47,0,0,0,6.11-13.93c6.42-16.83,11.39-27.27,29.38-25,.34,2.55-1.43,5.34-4.84,10-4.89,6.66-13.06,17.81,2,28.94,8.77,6.47,6.54,10.89,1.11,19.48-3.29,5.21-6.7,10.59-4.79,16.55,3.6,11.26,12.54,20.5,20.43,28.65,3.15,3.26,6.12,6.33,8.61,9.35a4.88,4.88,0,0,0,5.57,1.42l46-18.42c-.05,3.9-.13,7.54-.2,10.9-.24,10.82-.44,20.17.54,29.31,2.19,20.48-2.5,38.5-13.92,53.56-4.35,5.73-11.19,9.9-18.43,14.32-2.9,1.77-5.89,3.59-8.75,5.55l-51.7-1.29c-25.12-6-28.84-6.48-50.71,1.9Z"/><path d="M1038.17,1687.4a4.88,4.88,0,0,0-6.45,6c3.26,10.06,0,18.62-3.46,27.68-3.93,10.3-8.34,21.85-1.74,35.22L974,1800.1a4.86,4.86,0,0,0,1.18,8.21l146.7,63.69a4.93,4.93,0,0,0,1.94.41,4.88,4.88,0,0,0,3.45-1.43l49.81-49.81a4.87,4.87,0,0,0-.78-7.52c-21.51-14.1-37.11-33.54-53.63-54.11C1100.33,1731.74,1077.25,1703,1038.17,1687.4Zm127.84,131-43.32,43.32-136.41-59.22,49.6-41.3a4.88,4.88,0,0,0,1-6.37c-6.91-10.84-3.64-19.41.5-30.27,2.79-7.31,5.86-15.35,5.42-24.52,31.9,15.3,52.39,40.83,72.27,65.58C1130.12,1784.42,1145.67,1803.79,1166,1818.42Z"/><path d="M1635.16,1151.32c1.21,12.27,2.09,21.13,8.39,24.49,17.14,9.14,28.44,23.64,40.41,39,9.46,12.12,19.24,24.65,32.2,34.46a4.88,4.88,0,0,0,2.94,1,4.74,4.74,0,0,0,.75-.06,4.87,4.87,0,0,0,3.23-2c21-29.81,53-42.88,103.93-42.43a4.87,4.87,0,0,0,4.75-6.13c-8.33-31.13-28.77-47.86-46.8-62.62-2.91-2.38-5.66-4.64-8.38-7-11.21-9.57-41.66-17.48-51.87-8.44-16.64,14.75-33.28,12.23-54.35,9-10.4-1.58-21.16-3.21-32.9-2.8a4.86,4.86,0,0,0-4.61,5.78C1634,1139.73,1634.62,1145.89,1635.16,1151.32Zm33.74-11c21.71,3.29,42.22,6.4,62.28-11.37,4.77-4.24,29.34.24,39.08,8.55,2.79,2.38,5.71,4.77,8.53,7.08,16.38,13.41,33.28,27.25,41.68,51.47-34.13.37-74.57,6.66-102.29,42.4-10.07-8.49-18.09-18.78-26.53-29.6-12.07-15.47-24.54-31.46-43.5-41.58-1.76-1.32-2.68-10.67-3.29-16.86-.4-4-.82-8.31-1.48-12.81A197.18,197.18,0,0,1,1668.9,1140.27Z"/><path d="M819.49,587.13c1.16,4.77,2.16,8.89,5.66,11.06l.48.29c21.15,13.12,33.91,21,34.66,27.29.74,6.07-9.17,16.15-25.57,32.86l-.4.4c-3.24,3.3-2.31,8.2-1.4,12.93a41.5,41.5,0,0,1,.64,4.11,4.89,4.89,0,0,0,4.26,4.48c87.22,10.93,88.08,14.37,93.65,36.71a172.4,172.4,0,0,0,6.1,20.32,4.87,4.87,0,0,0,4.56,3.16h38.13a4.87,4.87,0,0,0,4.74-6c-2.19-9.25-4-18.7-5.77-27.84-8.45-43.81-16.42-85.19-62.49-111.53a4.88,4.88,0,0,0-5.5.45l-7.48,6.1-38.37-49.29a4.87,4.87,0,0,0-6.25-1.25l-39.53,22.43a4.89,4.89,0,0,0-2.21,5.81C818.33,582.35,818.94,584.89,819.49,587.13Zm40.8-25.19,38.84,49.9a4.86,4.86,0,0,0,6.92.78l8.71-7.1c39.67,24.24,47.07,62.63,54.9,103.22,1.4,7.29,2.85,14.77,4.49,22.25h-28.6c-2.14-6.15-3.45-11.39-4.62-16.09-6.81-27.29-10.54-32.44-98.21-43.56-.08-.4-.16-.8-.23-1.2a32.83,32.83,0,0,1-.69-4.82c19.62-20,29.46-30,28.17-40.72-1.31-10.9-13.19-18.27-39.21-34.4l-.25-.15a29.24,29.24,0,0,1-1.55-5.23c-.33-1.32-.69-2.82-1.15-4.46Z"/><path d="M2123.34,1809.13c4.19-6.29,7.78-12.87,11.26-19.23,1.53-2.81,3.05-5.58,4.58-8.26a4.87,4.87,0,0,0,0-4.82l-48.31-85.25a4.88,4.88,0,0,0-6.25-2c-39.56,17.88-62.28,31.22-69.08,50.48-6,17,1.27,37.21,15,64.34,11.86,23.51,27.05,36.47,43.92,37.49.72,0,1.43.06,2.14.06C2092.91,1841.9,2109,1830.62,2123.34,1809.13Zm-48.33,23c-13.22-.8-25.6-11.91-35.8-32.15-12.53-24.84-19.32-43-14.47-56.7,5.39-15.28,26-27.51,59.86-43l44.75,79q-1.65,3-3.3,6c-3.38,6.18-6.87,12.56-10.82,18.5C2102.34,1823.1,2088.46,1832.91,2075,1832.11Z"/><path d="M1176,1120.1c10.91-36,5.46-68.45-17.15-102.08-8.1-12-20.91-18.56-35-17.81a42.9,42.9,0,0,0-28,12.54,4.84,4.84,0,0,0-3.49-4.13l-34.13-9.71a4.87,4.87,0,0,0-5,7.92c3.69,4.15,6.39,7.52,8.37,10,3.77,4.7,6,7.47,9.38,7.47a6.61,6.61,0,0,0,1-.07c5.38-.76,10.42-2.62,15.3-4.41l3.62-1.29a50.8,50.8,0,0,0-3.86,6.13c-5,9.43-8.32,19.47-11.53,29.17-1.39,4.2-2.7,8.17-4.11,12a4.86,4.86,0,0,0,.92,4.91c28,31.72,55.5,52.85,99,52.85A4.87,4.87,0,0,0,1176,1120.1Zm-103.82-105.79c-.39-.45-.89-1-1.44-1.71l4,1.13C1073.88,1014,1073,1014.14,1072.19,1014.31Zm9.36,52.11c1.09-3.09,2.13-6.24,3.22-9.54,3.08-9.32,6.27-19,10.89-27.66,6.08-11.45,16.79-18.66,28.67-19.28a29.57,29.57,0,0,1,26.45,13.52c20.1,29.9,25.52,58.69,16.91,90.3C1130.87,1112.63,1106.32,1094.07,1081.55,1066.42Z"/><path d="M1981.47,2406.06a4.89,4.89,0,0,0-4.6-.48c-6.89,2.83-13.14,5.37-18.94,7.74-12.48,5.1-23.26,9.49-33.78,13.95-2,.86-4.38,1.63-6.87,2.45-7.4,2.42-15.06,4.92-18.2,11.05h0c-8.31,16.2-18.38,37.7-22.64,60.46-1.36,7.27,5.37,14.12,13.15,22.06,3.37,3.43,6.85,7,9.8,10.66a4.88,4.88,0,0,0,6,1.31c53.79-26.86,77.19-64.27,78.24-125.09A4.92,4.92,0,0,0,1981.47,2406.06Zm-77,118.74c-2.55-2.91-5.24-5.65-7.87-8.33-4.1-4.18-11-11.17-10.53-13.44,4-21.53,13.73-42.21,21.73-57.81,1.32-2.56,7.55-4.6,12.56-6.24,2.57-.84,5.24-1.72,7.64-2.73,10.46-4.44,21.21-8.82,33.67-13.91l12-4.89C1971,2468.51,1949.91,2501.05,1904.42,2524.8Z"/><path d="M1020.87,719.14c-2.78,6.06,2.4,13.07,7.88,20.49a76.71,76.71,0,0,1,4.54,6.55,4.89,4.89,0,0,0,6.43,1.93l56.36-28.55a4.86,4.86,0,0,0,.81-8.17c-7.65-6-7.28-14.54-6.84-24.38.51-11.47,1.14-25.74-14.48-34.36-14.36-7.92-28.73-15.81-41.4-22.76L1019.82,622a4.87,4.87,0,0,0-5.83.86c-23.85,24.35-11.53,44.16-1.62,60.08C1020.12,695.42,1026.81,706.18,1020.87,719.14Zm-2.41-86.75,11,6.05c12.66,6.94,27,14.82,41.38,22.74,9.83,5.43,10,13.19,9.45,25.4-.39,9-.83,19,5.44,27.29l-46.53,23.57c-.83-1.16-1.72-2.37-2.63-3.6-2.29-3.1-6.5-8.81-6.72-10.94,7.88-17.58-1.21-32.19-9.23-45.08C1011,662.27,1003.24,649.83,1018.46,632.39Z"/><path d="M2345.12,3565.22c-16.7-3.09-35.66,7.71-65.43,37.27a4.87,4.87,0,0,0,2.59,8.26l104.5,18.22a4.78,4.78,0,0,0,.84.08,4.89,4.89,0,0,0,4.44-6.88C2375.23,3584.77,2361.63,3568.27,2345.12,3565.22Zm-51.75,37.57c23-21.75,38.15-30.19,50-28,11.65,2.16,22.59,15.14,35.93,43Z"/><path d="M2153,2504.58c1.14-23.19,2.33-47.17-23.23-65.44a4.87,4.87,0,0,0-5.51-.1c-28.78,18.95-25.78,44.61-23.37,65.23a131.81,131.81,0,0,1,1.3,17.64,4.87,4.87,0,0,0,2.88,4.55l42.68,19.12a4.79,4.79,0,0,0,2,.43,4.88,4.88,0,0,0,4.75-6C2151.8,2528.32,2152.4,2516.26,2153,2504.58Zm-9.56,28.39-31.52-14.12c-.12-5.16-.75-10.51-1.36-15.71-2.31-19.88-4.51-38.7,16.25-54,18.44,14.85,17.52,33.52,16.46,55C2142.78,2513.5,2142.3,2523.14,2143.41,2533Z"/><path d="M1070,784.3a89.16,89.16,0,0,0,19.62,2.3c22.15,0,41.47-9.54,59.7-29.22a4.87,4.87,0,0,0-3.58-8.18h-87.17a4.86,4.86,0,0,0-4.41,6.93c1.91,4.08,3.43,8.28,4.78,12C1062.13,776.77,1064.41,783,1070,784.3Zm63.81-25.36c-18.41,16.21-37.72,21.13-61.29,15.94-1.21-1.27-3.06-6.35-4.42-10.11-.67-1.84-1.39-3.8-2.17-5.83Z"/><path d="M2331.45,3215c.27.72.5,1.32.61,1.64a4.88,4.88,0,0,0,4.62,3.33h31.2a4.89,4.89,0,0,0,4.64-3.37l17.71-54.6a4.84,4.84,0,0,0-.52-4.11l-26.14-41.18a4.87,4.87,0,0,0-9,2.43c-.29,7.61-.29,14.77-.3,21.7,0,30.5,0,50.65-22.35,62.25C2327.71,3205.29,2329.19,3209.16,2331.45,3215Zm32.59-74.16c0-1.71,0-3.45,0-5.2l16.2,25.53-15.91,49.05h-24.29c-.05-.14-.11-.28-.16-.43C2364,3195.12,2364,3169.88,2364,3140.85Z"/><path d="M2155.37,1741.45c10.53,0,20.54-7.61,40.06-23.32a4.87,4.87,0,0,0-2.18-8.59,154.22,154.22,0,0,0-15.52-1.8c-9.27-.75-18-1.46-22.52-5.4-7.93-6.94-14.14-9.69-19.56-8.66-6.37,1.22-9.41,7.16-11.86,11.94-1.76,3.44-3.58,7-5.85,7.59a4.88,4.88,0,0,0-1.52,8.75C2135.27,1734.82,2145.54,1741.45,2155.37,1741.45Zm-22.9-31.39c1.55-3,3.31-6.48,5-6.81.78-.14,3.85-.11,11.3,6.42,6.91,6.06,17.24,6.9,28.16,7.79l3.38.28c-11.43,9-18.23,13.61-24.34,13.91-6.68.32-14.36-4.37-28.29-13.81A40.58,40.58,0,0,0,2132.47,1710.06Z"/><path d="M812.8,823.8c.88,3,3.34,3.66,5.68,3.66a25.16,25.16,0,0,0,2.95-.24c2.12-.28,5.05-.76,8.44-1.31,3.94-.65,8.41-1.39,13.14-2a4.87,4.87,0,0,0,3.62-7.13L808.19,745a4.88,4.88,0,0,0-8.42-.29c-16.67,26.5-5.72,44.75,4,60.84C807.48,811.8,811,817.71,812.8,823.8Zm-8.87-66.14,30.84,57.58c-2.28.36-4.45.71-6.48,1-2.56.42-5.33.87-7.35,1.16-2.26-5.93-5.61-11.51-8.87-16.93C804.19,787.39,796.69,774.9,803.93,757.66Z"/><path d="M2211.12,2295.78l-70,4.57a4.87,4.87,0,0,0-2.5,8.84c22.66,16,34.19,24.19,44.3,24.19a18.18,18.18,0,0,0,3.22-.28c10-1.78,16.9-11.69,29.35-29.69a4.87,4.87,0,0,0-4.32-7.63Zm-26.73,27.72c-5.65,1-14.43-4.27-28.91-14.32l46.17-3C2194.34,2316.5,2189.25,2322.64,2184.39,2323.5Z"/><path d="M1200,748.69a4.88,4.88,0,0,0-4.24,6c4.08,16.26,9.56,32.26,21.86,39.2a30.16,30.16,0,0,0,15.13,3.71,58.66,58.66,0,0,0,17-2.89,4.87,4.87,0,0,0,3.31-5.78C1247.71,766.41,1239.2,744.74,1200,748.69Zm22.41,36.76c-6.6-3.73-11.3-11.84-15.7-27.46,22.58-.83,30.36,8.87,35.71,28.66C1233.94,788.64,1227.36,788.24,1222.42,785.45Z"/><path d="M1887.57,1683c3.75,4,8.41,9,13.21,14.82a4.86,4.86,0,0,0,3.77,1.8,4.93,4.93,0,0,0,1.64-.29,4.88,4.88,0,0,0,3.24-4.59v-74.91a4.87,4.87,0,0,0-9.14-2.35c-3.13,5.66-6.1,10.65-9,15.47-6.49,10.92-12.1,20.35-15,30.59C1874.71,1669.35,1879.55,1674.5,1887.57,1683Zm12.11-45v43.73c-1.79-2-3.47-3.74-5-5.37-3.84-4.09-8.16-8.7-8.83-10.57C1888.41,1657,1893.39,1648.58,1899.68,1638Z"/><path d="M818.54,1029c-8.21,1.06-13.27,8-17.74,14.22-2.22,3.07-4.32,6-6.48,7.75a4.86,4.86,0,0,0-.63,6.88l23.59,28.25a4.86,4.86,0,0,0,3.74,1.75,5.21,5.21,0,0,0,1-.1,4.89,4.89,0,0,0,3.7-3.35c1.88-6.12,4.32-12.51,6.69-18.7,6.24-16.35,9.68-25.35,4.32-29.76C830.13,1030.5,824.19,1028.24,818.54,1029Zm4.72,33.22c-1.32,3.46-2.74,7.18-4.09,10.94L804,1055c1.66-1.91,3.18-4,4.68-6.09,3.47-4.79,7.06-9.74,11.08-10.26,2.61-.34,5.91,1,9.82,4.08C829.43,1046,825.89,1055.29,823.26,1062.18Z"/><path d="M2188.56,2264.24a4.87,4.87,0,0,0-.31,9.3c3,1,5.87,2,8.62,2.94,5.76,1.94,11.19,3.78,16.38,5.82,5.56,2.2,11,4.58,20,8.52,4.94,2.17,10.9,4.78,18.47,8.07a4.87,4.87,0,0,0,5.46-7.84C2224.49,2256.89,2222.53,2254.85,2188.56,2264.24Zm28.26,9c-3.21-1.27-6.47-2.44-9.81-3.6,5.13-.94,8.82-.88,12.39.54,3.76,1.51,7.8,4.6,13.19,9.72C2226.07,2277.05,2221.53,2275.09,2216.82,2273.24Z"/><path d="M2958,2213.24c-7.36-2.88-13-2.39-17.79-.11-.05-.14-.09-.28-.14-.41-.89-2.95-1.9-6.29-4-9.11-2.65-3.49-6.67-2-10.94-.4-1,.38-2.08.78-2.84,1a4.87,4.87,0,0,0-2.48,7.67l6.51,8.35a4.83,4.83,0,0,0,3.21,1.8c-1.19,1.36-2.35,2.76-3.51,4.16-3.53,4.28-7.19,8.71-11.93,12.4a4.88,4.88,0,0,0,2.71,8.71,124.42,124.42,0,0,1,16.61,2.42c5,1,10,1.93,14.72,1.93,8.93,0,16.68-3.5,20.61-17.2C2970.59,2227.86,2964.49,2215.77,2958,2213.24Zm1.33,18.52c-3.38,11.8-8.49,11.4-24.12,8.39-2.28-.44-4.69-.91-7.22-1.33,2-2.18,3.8-4.36,5.51-6.42,7.91-9.57,11.79-13.65,20.95-10.09C2956.38,2223.23,2959.7,2229.7,2959.33,2231.76Z"/><path d="M2858.36,2418.77a4.89,4.89,0,0,0-8.15-.56c-2.37,3.15-4.67,5.88-6.7,8.28-4.65,5.5-8.31,9.84-9.65,15.34h0c-1.23,5.06,3,9.48,7.18,13.76,1.36,1.41,2.77,2.87,3.73,4.11a4.87,4.87,0,0,0,6.94.77c1.55-1.27,3.23-2.49,5-3.77,4.76-3.45,9.68-7,12.73-12.21,2.48-4.21-.27-8.45-4.82-15.48C2862.71,2426,2860.53,2422.67,2858.36,2418.77Zm-7.36,30-1.75,1.27-1.2-1.25a36.34,36.34,0,0,1-4.55-5.28c1-3.09,3.73-6.35,7.45-10.76.82-1,1.68-2,2.57-3.06,1,1.67,2,3.21,2.93,4.59,1.44,2.21,3.16,4.88,3.87,6.36C2858.17,2443.61,2854.68,2446.14,2851,2448.8Z"/><path d="M1969.25,1597.42c-1.77-1.28-3.45-2.5-5-3.77a4.87,4.87,0,0,0-3.63-1.08,4.93,4.93,0,0,0-3.31,1.85,54.3,54.3,0,0,1-3.73,4.1c-4.13,4.28-8.41,8.71-7.18,13.77,1.33,5.5,5,9.84,9.65,15.34,2,2.4,4.32,5.13,6.69,8.28a4.91,4.91,0,0,0,3.9,1.94h.33a4.87,4.87,0,0,0,3.92-2.49c2.17-3.9,4.35-7.27,6.28-10.24,4.55-7,7.29-11.27,4.82-15.48h0C1978.94,1604.43,1974,1600.87,1969.25,1597.42Zm-.26,22.39c-.9,1.38-1.89,2.92-2.93,4.59-.89-1.07-1.75-2.09-2.57-3.06-3.72-4.41-6.48-7.67-7.46-10.76a37.67,37.67,0,0,1,4.56-5.28l1.2-1.25,1.75,1.27c3.68,2.66,7.17,5.19,9.32,8.13C1972.15,1614.93,1970.43,1617.6,1969,1619.81Z"/><path d="M974,508c3.2,2.71,6.23,5.26,8.39,8.24a4.87,4.87,0,0,0,3.94,2h.24a4.88,4.88,0,0,0,4-2.42c13.29-22.78,1.61-32.64-7.78-40.57-3.2-2.71-6.22-5.26-8.39-8.24a4.86,4.86,0,0,0-8.15.41C952.9,490.19,964.59,500.05,974,508Zm-2.41-29.58c1.59,1.5,3.25,2.9,4.88,4.28,7.92,6.69,13.15,11.11,8.7,22.14-1.59-1.5-3.25-2.9-4.88-4.28C972.34,493.85,967.11,489.43,971.56,478.4Z"/><path d="M2086.51,1685.63a16.66,16.66,0,0,0,4.61.64c6.1,0,12.77-3.21,20.24-9.73a4.86,4.86,0,0,0-.82-7.92l-37.91-21.22a4.88,4.88,0,0,0-7,5.7l.33,1.06C2069.81,1666.68,2074.63,1682.26,2086.51,1685.63Zm12.78-12.14c-3.43,2.18-7.09,3.63-10.12,2.77-4.44-1.26-7.75-7.4-10.35-14.22Z"/><path d="M700.62,683.8a5,5,0,0,0,.94.09,4.86,4.86,0,0,0,4.41-2.83l15.9-34.29a4.87,4.87,0,0,0-3.24-6.77c-8.37-2.1-13.89-3.48-18.21,0-5.41,4.44-5,13.2-3.73,39.2A4.88,4.88,0,0,0,700.62,683.8Zm6-36.14a13.23,13.23,0,0,1,3.94.43l-4.88,10.52C705.57,652.9,705.79,648.94,706.58,647.66Z"/><path d="M933.53,1834.46a4.86,4.86,0,0,0,4.87,4.87h.29l12.59-.76a4.87,4.87,0,0,0,4.53-5.54l-5.21-37.31a4.86,4.86,0,0,0-5.27-4.18l-7.37.67a4.86,4.86,0,0,0-4.43,4.85Zm9.74-20.76,2.16,15.46-2.16.13Z"/><path d="M1548.09,466.09a67.32,67.32,0,0,0-14.47,3.1c-1.63.48-3.26,1-4.88,1.38a4.88,4.88,0,0,0-3,7.14,32.39,32.39,0,0,1,1.41,3c1.76,4,3.57,8,7.86,8.3q1,.06,2,.06a74.92,74.92,0,0,0,12.84-1.51c2-.34,4-.7,6.17-1a4.87,4.87,0,0,0,3.45-7.4c-1-1.65-2-3.44-2.81-5C1554.35,469.64,1552.37,465.8,1548.09,466.09Zm-10.85,13.19q-.21-.4-.42-.87a70.58,70.58,0,0,1,9.85-2.38c.34.59.72,1.31,1.07,2A64.63,64.63,0,0,1,1537.24,479.28Z"/><path d="M894.2,751.91a33.62,33.62,0,0,1,3.2,1.63c2.77,1.52,5.84,3.2,9.1,3.2a9.26,9.26,0,0,0,2.31-.29c4.3-1.15,7.68-4.18,10.66-6.86,1.14-1,2.21-2,3.27-2.79a4.87,4.87,0,0,0-1.1-8.36l-18.49-7.71a4.89,4.89,0,0,0-6.36,2.59l-5.2,12.17a4.83,4.83,0,0,0,0,3.75A4.89,4.89,0,0,0,894.2,751.91Zm9.65-10.32,6.76,2.81a12.79,12.79,0,0,1-4.18,2.59,17.92,17.92,0,0,1-4.09-1.86Z"/><path d="M1248.62,853.36c-2.68,3-5.7,6.36-6.85,10.66-1.1,4.11,1,8,2.91,11.4.63,1.16,1.23,2.26,1.63,3.21a4.87,4.87,0,0,0,4.5,3,5,5,0,0,0,1.92-.39L1264.9,876a4.87,4.87,0,0,0,2.58-6.35l-7.71-18.5a4.87,4.87,0,0,0-8.36-1.09C1250.6,851.15,1249.63,852.22,1248.62,853.36Zm8,15.61-3.55,1.52a18,18,0,0,1-1.86-4.1,13,13,0,0,1,2.59-4.17Z"/><path d="M2509.9,3667.57c-1.08-.48-2.21-1-3-1.41a4.87,4.87,0,0,0-7.13,3c-.43,1.64-.9,3.27-1.38,4.9-1.36,4.62-2.77,9.41-3.1,14.46-.29,4.24,3.55,6.26,8,8.6,1.59.83,3.38,1.78,5,2.81a4.86,4.86,0,0,0,2.58.74,4.75,4.75,0,0,0,2.05-.46,4.85,4.85,0,0,0,2.77-3.73c.31-2.16.67-4.2,1-6.17.89-5.11,1.73-9.94,1.44-14.88C2518,3671.13,2513.86,3669.32,2509.9,3667.57Zm-2.66,20.6c-.67-.35-1.38-.74-2-1.07a69.65,69.65,0,0,1,2.38-9.86l.86.43A65.67,65.67,0,0,1,2507.24,3688.17Z"/><path d="M1894.08,1596.41a4.87,4.87,0,0,0,2.83,3.26,4.77,4.77,0,0,0,1.89.39,4.91,4.91,0,0,0,2.41-.64c.76-.44,1.88-.93,3-1.41,4-1.75,8-3.56,8.29-7.86.3-4.94-.55-9.76-1.44-14.87-.34-2-.7-4-1-6.18a4.87,4.87,0,0,0-7.4-3.45c-1.66,1-3.45,2-5,2.81-4.44,2.33-8.27,4.35-8,8.6a67.41,67.41,0,0,0,3.1,14.48C1893.18,1593.17,1893.66,1594.79,1894.08,1596.41Zm7.43-19a66.93,66.93,0,0,1,1.28,10.5l-.87.42a69.2,69.2,0,0,1-2.38-9.85C1900.13,1578.14,1900.84,1577.76,1901.51,1577.41Z"/><rect x="1146.04" y="1719.32" width="16.79" height="37.92" rx="4.87"/><path d="M864.37,1845.1c.48,1.62,1,3.25,1.38,4.87a4.87,4.87,0,0,0,2.83,3.26,4.77,4.77,0,0,0,1.89.39,4.91,4.91,0,0,0,2.41-.64c.76-.44,1.88-.93,3-1.41,3.95-1.75,8-3.56,8.29-7.86.3-4.94-.55-9.76-1.44-14.87-.34-2-.7-4-1-6.18a4.87,4.87,0,0,0-7.4-3.45c-1.66,1-3.45,2-5,2.81-4.44,2.34-8.27,4.35-8,8.6h0A67.41,67.41,0,0,0,864.37,1845.1Zm8.81-14.13a66.93,66.93,0,0,1,1.28,10.5l-.87.42a69.2,69.2,0,0,1-2.38-9.85C871.8,1831.7,872.51,1831.32,873.18,1831Z"/><rect x="2889.27" y="2117.27" width="37.92" height="16.79" rx="4.87"/><path d="M1114.79,1134.82c3,0,5.1-2.54,6.67-4.45a17.2,17.2,0,0,1,1.21-1.41,4.88,4.88,0,0,0-1.1-7.71l-9.07-5a4.89,4.89,0,0,0-5.8.82l-5,5a4.87,4.87,0,0,0,1.26,7.8c.83.41,1.64.86,2.45,1.31a30.32,30.32,0,0,0,8.13,3.49A5.69,5.69,0,0,0,1114.79,1134.82Z"/><path d="M1121.9,979.78a4.87,4.87,0,0,0,3.58,2.63,5.12,5.12,0,0,0,.78.06,4.88,4.88,0,0,0,3.45-1.42c.31-.32.87-.77,1.41-1.21,2.17-1.77,5.13-4.2,4.3-7.93a30.53,30.53,0,0,0-3.49-8.14c-.45-.81-.9-1.62-1.31-2.44a4.86,4.86,0,0,0-7.8-1.26c-.32.32-.87.77-1.41,1.21-2.17,1.77-5.14,4.2-4.31,7.92a30.32,30.32,0,0,0,3.49,8.13C1121,978.14,1121.49,979,1121.9,979.78Z"/><path d="M1924.84,1726.37a4.87,4.87,0,0,0,3.58,2.64,5.12,5.12,0,0,0,.78.06,4.87,4.87,0,0,0,3.45-1.43l5-5a4.86,4.86,0,0,0,.82-5.8l-5-9.08a4.86,4.86,0,0,0-7.71-1.08c-.32.31-.88.77-1.41,1.21-2.17,1.77-5.14,4.19-4.31,7.92a30.71,30.71,0,0,0,3.49,8.12C1924,1724.74,1924.43,1725.55,1924.84,1726.37Z"/><path d="M1581.72,876.22l9.08,5a4.86,4.86,0,0,0,5.8-.82l5-5a4.87,4.87,0,0,0-1.26-7.81c-.83-.41-1.64-.86-2.45-1.31a30.46,30.46,0,0,0-8.13-3.49c-3.74-.83-6.15,2.14-7.92,4.3-.44.54-.9,1.1-1.22,1.42a4.87,4.87,0,0,0,1.09,7.71Z"/><path d="M1125.5,1757.24h.3a4.85,4.85,0,0,0,3.54-1.86q.79-1,1.62-2a47,47,0,0,0,5.09-7.16c2-3.74-1.07-6.49-3.55-8.7-.58-.52-1.18-1-1.65-1.52a4.87,4.87,0,0,0-6.51-.33l-8.19,6.66a4.86,4.86,0,0,0-.38,7.22l6.28,6.29A4.91,4.91,0,0,0,1125.5,1757.24Z"/><path d="M747.27,1848.86a30.6,30.6,0,0,0-8.13,3.49c-.81.45-1.62.9-2.44,1.31a4.88,4.88,0,0,0-1.27,7.81c.32.31.77.87,1.21,1.41,1.57,1.91,3.64,4.44,6.66,4.44a5.53,5.53,0,0,0,1.26-.14,30.25,30.25,0,0,0,8.14-3.49c.82-.45,1.63-.9,2.44-1.31a4.87,4.87,0,0,0,1.27-7.8c-.32-.32-.77-.88-1.21-1.41C753.43,1851,751,1848,747.27,1848.86Z"/><path d="M1801.91,2099.67a4.81,4.81,0,0,0-3.69,1.42l-2.74,2.74c-2.89-11.74-6.87-22.22-16.41-27.46-8-4.41-18.55-4.15-32.22.79a4.87,4.87,0,0,0-1,8.67l43.38,28.17a4.9,4.9,0,0,0,2.65.78,5.65,5.65,0,0,0,.59,0c.64.5,1.28,1,1.91,1.53a46.91,46.91,0,0,0,7.14,5.09h0a5,5,0,0,0,2.4.66c2.57,0,4.6-2.29,6.31-4.2.52-.59,1-1.18,1.52-1.65a4.87,4.87,0,0,0,.33-6.51l-6.66-8.2A4.86,4.86,0,0,0,1801.91,2099.67Zm-41.67-16.12c5.89-1,10.62-.58,14.14,1.36,4.62,2.54,7.48,7.7,9.6,14.05Z"/><path d="M2411.6,2312.39a4.88,4.88,0,0,0-7.81,1.27c-.41.82-.86,1.63-1.31,2.45a30.71,30.71,0,0,0-3.49,8.12c-.83,3.73,2.14,6.16,4.31,7.93.53.44,1.09.89,1.41,1.21a4.87,4.87,0,0,0,3.44,1.43,5.06,5.06,0,0,0,.68-.05,4.89,4.89,0,0,0,3.59-2.47l5-9.07a4.88,4.88,0,0,0-.82-5.81Z"/><path d="M938.78,1627.77a4.87,4.87,0,0,0,3.57,2.63,5.12,5.12,0,0,0,.78.06,4.86,4.86,0,0,0,3.45-1.42l5-5a4.86,4.86,0,0,0,.82-5.8l-5-9.07a4.87,4.87,0,0,0-7.71-1.09c-.32.32-.88.77-1.41,1.21-2.17,1.77-5.14,4.2-4.31,7.92a30.9,30.9,0,0,0,3.49,8.12C937.91,1626.13,938.36,1626.94,938.78,1627.77Z"/><path d="M2327.9,3172.77a4.87,4.87,0,0,0-7.71-1.09c-.32.32-.88.77-1.41,1.21-2.17,1.77-5.14,4.2-4.31,7.93a30.39,30.39,0,0,0,3.49,8.12c.45.81.9,1.63,1.31,2.45a4.87,4.87,0,0,0,3.58,2.63,4.11,4.11,0,0,0,.78.07,4.89,4.89,0,0,0,3.45-1.43l5-5a4.86,4.86,0,0,0,.82-5.8Z"/><path d="M1516.33,1627.77a4.87,4.87,0,0,0,3.58,2.63,5.12,5.12,0,0,0,.78.06,4.88,4.88,0,0,0,3.45-1.42l5-5a4.88,4.88,0,0,0,.82-5.8l-5-9.07a4.88,4.88,0,0,0-7.72-1.09c-.32.32-.87.77-1.41,1.21-2.17,1.77-5.13,4.2-4.3,7.92a30.32,30.32,0,0,0,3.49,8.13C1515.47,1626.13,1515.92,1627,1516.33,1627.77Z"/></g></g></svg>