<svg xmlns="http://www.w3.org/2000/svg" viewBox="0 0 2861.01 2774"><title>Asset 1</title><g id="Layer_2" data-name="Layer 2"><g id="Layer_1-2" data-name="Layer 1"><path d="M1847.64,2774l-20.78,0-20.26,0H1802l-7.46-16.56v14.21l-13.26-23c-8.82-15.28-7.41-28.15,4.3-39.35,6.07-5.81,9.24-12,11.32-22.18l9.23-45.07,5.73,54.62,45.18-22.71c-3.32-8.42-3-16.75-2.62-24.29a68.49,68.49,0,0,0-.08-11.23l-30.93-15.54,6.95-7c.44-.44.87-.83,1.28-1.17.11-9,1.58-17.78,3-26.27,1.93-11.49,3.75-22.34,2.28-33.25a20.62,20.62,0,0,0-.83-3,24,24,0,0,1-1.54-7.79,34.85,34.85,0,0,1,2.1-10.62c-2.8-1-6.86-3.11-8.32-8.34l-2.42-8.63,27.28-1.19,2.24,12.68h13.73l57.21-51.38a23.29,23.29,0,0,1-2.23-7.38c-.26-2.66-.43-5.27-.6-7.8-.46-6.8-.89-13.23-2.84-19.75-2.21-7.4-2.64-15.08-3-22.51a124.68,124.68,0,0,0-1.51-15.5,285.44,285.44,0,0,1-4.66-38.22,121.56,121.56,0,0,0-2.75-18.4c-2-10.14-4.11-20.6-2.49-31.83a13.39,13.39,0,0,1-2-5c-.2-1.39-.41-2.78-.62-4.16-2-13.27-4.33-28.32,8.46-43.19,6.51-7.57,12.79-15.83,18.85-23.82,2.67-3.52,5.41-7.13,8.18-10.69-2.56-5.38-2-11-1.67-15.15.25-2.78.51-5.65-.27-6.78-5-7.27-4.45-14.68-4-20.08a27.91,27.91,0,0,0,.1-5.17c-6.49-7.57-13.1-15-19.51-22.26-16-18.12-32.65-36.85-48.11-58.25l-7.74-10.71,14.26-.6c9.34-.38,15.51-.64,21-3.41,7-3.49,16.09-5.26,27.14-5.26h.13c9.16,0,14.22,6.22,17.91,10.76,1.79,2.19,3.47,4.27,5.09,5.1,17.4,8.91,28.36,23.36,39,37.33,2,2.6,3.93,5.19,5.94,7.74,4.4,5.61,7.71,11.75,10.92,17.69.69,1.29,1.37,2.55,2,3.78l6.78,0c9.42,0,18.31-.07,27.3.17a26.3,26.3,0,0,1,13.31,4c7.53,4.9,14.93,10.12,22.1,15.18l6.89,4.85c2.91,2,4.94,2.49,14.61,2.09,8.09-.33,16.27-.25,24.19-.18l3.17,0a13.09,13.09,0,0,1,.63-3.33l2-5.91c4.15-12.56,8.45-25.54,13.28-38.17,2.64-6.89,2.61-8.93-.2-12.1-15-16.88-29.48-33.68-44.85-51.46l-17.58-20.32-1.74-2v-10.1c-3-1.57-6-3.07-8.89-4.53-9.59-4.79-18.65-9.32-26.51-16.06-18-15.45-36.74-32.43-51.54-52-6.27-8.27-13.35-15.44-20.85-23-4.91-5-9.94-10.07-14.78-15.55l-31.43,24.94h-72.39l-14.3-16c-3,1.5-6.42,3-10.4,2.71-16.78-1.18-34,.44-50.61,2-11.81,1.12-24,2.28-36.21,2.47l-4,.06c-30.91.48-62.88,1-94.35-.31-20.79-.85-38.42,2.09-53.89,9-17.18,7.68-30.16,2.44-41-3.08-13.54-6.91-27.55-13.57-41.09-20q-8.38-4-16.75-8c-.93-.45-1.8-1-2.56-1.44l-.33-.21c-10.7,3.3-21.32,2.92-31.61,2.56-7.52-.27-15.3-.55-23.34.56l-12.18,1.67,4.64-11.39c9.75-24,13.05-43.36,10.48-62.21l-43.13-16.15v-4.93c0-.7-.12-1.74-.24-2.84-.42-3.61-1-8.57,1.53-12.85,2.41-4.1,3.74-8.84,5.15-13.85a78.35,78.35,0,0,1,4.95-14.08c3-6.07,2.43-9.05-2.77-14.5-12.34-12.94-24.44-26.4-36.14-39.41q-7.1-7.87-14.16-15.69l-1.85-2v-2.74q0-3.87,0-7.65c0-5.7,0-11.09,0-16.55-.06-5.81-.19-11.63-.32-17.27l0-.74c-8.14,0-15.92,2.17-24,4.42-9.73,2.69-19.78,5.47-30.89,4.6-14.18-1.12-28.76-.85-42.87-.58-6.15.12-12.51.24-18.7.24h-3.09l-2.11-2.26q-8.51-9.12-16.88-18.07c-14.58-15.58-28.35-30.29-42.26-45.48a195.72,195.72,0,0,1-17.51-22.1c-5.83-8.57-6.13-18.1-6-26.15l-8.8-4.16c-9.47-4.45-18.41-8.66-27.15-13.35-9-4.86-13.77-7.08-22-4.43-12.3,4-26.35,2.13-37.63.68-4.87-.63-9.78.71-15,2.12-5.44,1.49-11.05,3-17.5,2.73-7.12-.33-14.49-.26-21.61-.2-5,0-10.08.09-15.17,0a41.51,41.51,0,0,1-10-1.75c-1.09-.3-2.17-.59-3.23-.81-10.08-2.15-18.68-6.78-27-11.25-7.78-4.19-15.13-8.15-23.22-9.87a27.86,27.86,0,0,1-3.68-1.1,11.84,11.84,0,0,0-1.47,5.6c.22,2.06,3,5.63,4.09,7a21.67,21.67,0,0,1,1.25,25.91c-9.18,14-18.75,27.79-28.89,42.36-3.94,5.65-8,11.44-12.1,17.43l-10.77,15.6-2.14-18.83a46,46,0,0,1,.18-11.58q-2.08,7.42-3.93,14.87c-1.44,5.82-3.59,11.84-9.59,16.34a127.33,127.33,0,0,1-11.48,7.38c-1.78,1.05-3.63,2.15-5.57,3.35l-5.26,3.26-13.46-16.26-24.08,24.09c.24,16.65-6.7,35-20.68,54.76-1,1.47-1.72,4-2.43,6.62-.42,1.57-.86,3.2-1.43,4.86l-1.45,4.19-4.41.54a59.54,59.54,0,0,1-9.88.12c-9.1-.41-12.29,0-15.23,5.63l-6.41,12.45-8.18-16.38c-4.92,2.29-13.87,6.29-22.89-3-3-3.09-8.43-5.8-14.2-7.09-3.88-.86-8.38-.63-13.14-.4-2.27.11-4.62.23-7,.23H588.33l-17.53-22.58-45.5,39.78-3-.23c-4.36-.33-8.78-.65-13.22-1-12.62-.9-25.66-1.84-38.64-3.21-5.87-.62-10.9-4.52-14.23-7.1l-2.48-1.93c-13.33-10.34-27.12-21-40.26-32.18-3-2.54-3.38-2.87-8.17.3-13.45,8.92-27.53,17.31-42.43,26.19-6.22,3.71-12.69,7.56-19.44,11.65l-16.33,9.89,18.37-56.64-45.84-45.83-2.81-.08c-9.76-.28-20.82-.6-32.27-3.77-12.87-3.57-24.35,4.12-36.51,12.26-1.62,1.08-3.23,2.16-4.82,3.19-8.42,5.48-16.14,7-25,4.8a43.27,43.27,0,0,1-5.11-1.65,17.87,17.87,0,0,0-4.82-1.35h-.19c-11.51,0-20.77-3.88-27.53-11.54-2.76-3.13-6.28-4.27-11.16-5.85-1.3-.42-2.62-.85-3.95-1.32-12-4.27-24.21-4.19-38.85-2.76-16.44,1.62-28-5.94-37.28-12a152.1,152.1,0,0,1-16.62-13.19c-2.26-2-4.6-4-7-6L43.18,1605v-3.35c0-2.9.28-5.85.56-8.71.5-5.15,1-10.47-.47-13.27-3.52-6.62-3.53-12.84-3.55-17.83v-.52c-3.75,16-15.82,25.1-33,24.25L0,1585.27V795.47l3.25-2.1c10.13-6.55,17.65-15.81,25.61-25.62,3.42-4.21,7-8.57,10.74-12.72,14-15.37,28.91-30.22,43.33-44.58,18.07-18,36.76-36.62,53.65-56.28,10.17-11.84,21.2-23.12,31.87-34,17.08-17.47,34.74-35.53,48.79-55.91,7.55-11,15.71-21.66,23.61-32q4.36-5.73,8.7-11.48l3.95-5.24c9.77-13,19.87-26.43,30-39.5,3-3.85,6.19-7.53,9.28-11.1a162.27,162.27,0,0,0,12.92-16.18c12.53-18.81,26.41-36.94,39.82-54.47C352,385.87,358.61,377.2,365,368.6c4.77-6.43,10-12.54,15.11-18.45,7.73-9,15-17.5,20.74-27a214.35,214.35,0,0,1,14.75-20.68A198.56,198.56,0,0,0,429.47,283c6.33-10.58,14.28-20.09,22-29.28,3.46-4.15,7.05-8.43,10.37-12.7,3.93-5,8-10.08,12-15,7.68-9.5,15.63-19.33,22.57-29.24,11.63-16.6,24-32.93,36.05-48.72,11.36-14.94,23.1-30.38,34.08-45.93,12.78-18.1,26.85-35.61,40.45-52.54,7.84-9.76,15.94-19.85,23.68-29.91a23.19,23.19,0,0,0,.51-4c.08-1,.17-2.11.3-3.2l.51-4.44,4.22-1.46A9.93,9.93,0,0,0,641.06,3l2.12-3h21l2,3.65c2.48,4.47,5.83,7.48,11.94,10.73,10,5.36,19.57,11.7,28.8,17.82,7,4.66,14.27,9.48,21.56,13.73a85.23,85.23,0,0,1,22.89,18.8c2.62,3.12,5.29,6.21,8,9.31,9.69,11.25,19.71,22.88,27.58,35.87a73.43,73.43,0,0,0,6.84,8.89c6.25,7.33,13.27,15.57,13.58,27.91a15.18,15.18,0,0,0,3,1.47l4.13,1.31c14.77,4.7,28.72,9.14,43.64,7.43,7.69-.88,15.36-.57,22.78-.28l4.34.17a35.56,35.56,0,0,1,12.44,2.67l2.28,1c18.94,7.9,38.54,16.06,56.86,26.83a30.56,30.56,0,0,0,17.7,4.57c20.08-1.19,22.31-.37,36.54,7.4l1.74,1c4.57,2.49,9.14,5.1,13.56,7.63,5.35,3.06,10.89,6.22,16.38,9.14,6.36,3.38,13.19,7.21,21.47,12.06,1.39.81,2.78,1.64,4.17,2.47,12.63,7.52,24.55,14.63,39,12.51a60.79,60.79,0,0,1,11.54-.29,56.1,56.1,0,0,0,8.23,0,62.17,62.17,0,0,0,8.42-1.79,66,66,0,0,1,11.81-2.27c5.72-.43,11.47-.68,17-.92,11.28-.49,21.93-1,32.84-2.73,19.12-3.1,38.73-3.7,57.69-4.27,8.52-.26,17.32-.53,25.89-1a75.57,75.57,0,0,0,13-2.06,12.79,12.79,0,0,0,2.3-1.25c3.12-1.92,8.35-5.14,15.6-2.3a35.54,35.54,0,0,0,7.44,1.58,60.48,60.48,0,0,1,7.94,1.53c1.89.53,3.78,1.09,5.66,1.64,10.34,3,20.1,5.91,30.37,5.4,8.29-.42,16.43-.32,24.3-.22l6.91.08,24.28-21,3.41,10c3.57,10.45,7.89,20.47,12.07,30.15,7.13,16.55,13.87,32.18,17.13,49.65l1,5.17-5.15,2.68c-4.41,2.3-8.58,4.47-9.3,5.39a37.07,37.07,0,0,0-.22,5c-.16,18.68-.1,37.35,0,56.43,0,2.63.93,5.37,2,8.55.35,1,.7,2.07,1,3.12,2.5,8.08,5.87,15.71,9.44,23.79,3,6.69,6,13.61,8.49,20.74,3.52,10.11,7.18,20.39,10.73,30.32,8,22.42,16.28,45.61,23.49,68.76.51,1.63,1,3.26,1.57,4.9,4,12.38,8.57,26.41,5,43.14-2.77,13-2.09,27.36-1.44,41.26.19,3.92.38,7.92.49,11.92h6.49l1.35.58a14,14,0,0,0,7,.91l3.53-.41,2.44,2.59.2.16,1.7,1.51.62,1.53a12.55,12.55,0,0,0,.74,1.58l.65,1.1.26.32c.32.4.49.62.64.79l95.33,95.33c.9.91,2,1.85,3.2,2.84,3.2,2.69,6.82,5.73,8.79,10.23,3.24,7.45,9.18,12.94,15.47,18.75a135.72,135.72,0,0,1,9.82,9.7c1.15,1.3,1.94,1.64,2.2,1.64.44,0,1.78-.55,3.7-2.66l5-5.51,24.11,24.17q24.33,24.4,48.69,48.75c8,7.93,15.16,14.12,24.53,18.58,15.25,7.25,29.42,17.34,42.45,27.17,5,3.74,14.8,9.52,24.83,6.15,6.71-2.25,13.24-2.9,19.57-3.46l-3.17-9.52,16.29,9.51a7.55,7.55,0,0,0,6.35,1l6.79-2.17,2.14,6.79c.37,1.17.76,2.33,1.14,3.49,1,3,2,6.15,2.83,9.35,3.48,13.83,7,27.77,10.33,41.43,1.07,4.31,2,8.69,2.94,12.93,2,9.05,3.83,17.61,6.74,25.82,7.53,21.22,13,43.17,18.22,64.4.86,3.45,1.71,6.91,2.58,10.36,1,4.11,2,8.27,2.9,12.3a258.84,258.84,0,0,0,7,26.46c7.69,22.4,13.38,45.54,18.89,67.92l1.85,7.52c3.13,12.64,6.36,25.72,10,38.39,1.6,5.59,3.47,11.28,5.28,16.79,2.12,6.45,4.32,13.12,6.16,19.86s3.32,13.46,4.76,20c1.29,5.84,2.62,11.89,4.16,17.7,1.86,7.05,4,14.21,6.1,21.13,1.92,6.39,3.91,13,5.7,19.59,2.32,8.58,4.54,17.31,6.68,25.76,3.73,14.7,7.58,29.91,12.08,44.55,2.09,6.79,3.81,13.68,5.48,20.34,2,8.06,4.12,16.39,6.8,24.33,6.94,20.49,12.1,41.83,17.09,62.47l.14.57c1.67,6.87,3.79,13.87,5.84,20.64,3.84,12.63,7.81,25.7,9.34,39.48.61,5.48,3,11.24,5.5,17.16l.59,1.36c6.89,16,14,32.5,20,49.4a60.06,60.06,0,0,0,15.84,24.7c11.43,10.47,22.44,21.65,33.1,32.46,5.91,6,12,12.19,18.1,18.17a68.43,68.43,0,0,0,11.87,9.38c23.77,14.78,43.78,27.08,64.12,39.08,8.72,5.15,18.26,7.79,30,8.33,7.41.35,14.7-1,22.41-2.36,7.51-1.35,15.25-2.74,23.46-2.6,17.3.31,40.07.58,62.74-.07,14.62-.42,26.52,3.6,37.38,12.66a215.22,215.22,0,0,0,38,25.1,28.77,28.77,0,0,1,5,3.61,24.81,24.81,0,0,0,3.69,2.75,8.57,8.57,0,0,0,1.45-1.71l1.87-2.71,53.9-5.39,2.38,2.39c.54.54,1,1,1.46,1.37a16,16,0,0,1,3.5,4c4.13,7.23,8.13,14.53,11.85,21.33,7.86,14.41,14.15,22.23,18.7,23.25a243.88,243.88,0,0,0,29.69,4.82c15.17,1.43,30.08-3.47,46.89-15.43,6.23-4.43,12.61-8.79,18.78-13,10-6.84,20.35-13.91,30.13-21.34,9.37-7.1,19.16-13.89,28.63-20.46,9.94-6.9,20.23-14,29.94-21.48,16.29-12.5,32.23-18.14,50.2-17.72,8.14.19,15.78,1.6,23.17,3,8.69,1.61,16.89,3.13,24.79,2.41l5.37-.49,1.92,5c.67,1.77,1.45,3.45,2.22,5.07,1.79,3.83,3.65,7.79,3.59,12.32-.09,7.32,2.08,14.47,4.38,22,2.16,7.11,4.39,14.42,4.88,22.35,4.79,4.36,4.15,11,3.83,14.13-.07.69-.16,1.63-.17,2.32l4.75,1.41v58.65l-5.27,1.4q-6.69,1.78-13.39,3.53c-11.65,3-23.69,6.21-35.38,9.65-4.28,1.26-7.09,3.1-7.89,4.28-9.74,14.3-18.93,29.43-27.83,44.06l-.25.42q-1.36,2.25-2.71,4.51c-6,10.06-12.23,20.46-21.76,28.89-9.05,8-12.76,15.8-12,25.26.34,4.31-1.79,7.76-3.5,10.52-.5.82-1,1.59-1.26,2.19-1.18,2.43-2.34,4.87-3.51,7.3-2.85,6-5.8,12.17-8.92,18.21-1.25,2.42-2.42,4.92-3.66,7.57-3.58,7.68-7.29,15.62-13.29,22-4.87,5.2-11.51,7.57-17.92,9.86-2.71,1-5.27,1.88-7.53,3-4.05,1.92-8,4-12.2,6.2l-1.86,1a24.14,24.14,0,0,1-.24,3.08,18.84,18.84,0,0,1-2,5.48c-.41.87-.93,1.95-1.55,3.36l-10,22.92-3.51-24.77c-.25-1.81-.47-3.22-.64-4.38-.31-2.07-.52-3.44-.65-4.93-.52-6.13-1.16-7.58-1.41-7.91s-1.9-.63-6.7-1c-7-.43-12,3.86-17.76,8.87-1.33,1.16-2.71,2.35-4.12,3.49-7.47,6-14.4,13.29-21.1,20.32-2.92,3.06-5.94,6.23-9,9.27l-2.08,2.09h-20.37l-.94,1.92,32.35,14.45v4.61c0,.82,0,1.48.07,2,.08,1.54.31,5.65-3.52,8a108.78,108.78,0,0,0-11.91,8.84c-10.25,8.33-21.82,17.72-38.83,16.7a10.18,10.18,0,0,1-3.5,1.56c-5.7,1.24-11.41,2.42-17.12,3.61q-7.47,1.54-14.93,3.14c-5.91,1.27-10.67-.89-14.15-2.47a16.23,16.23,0,0,0-3.67-1.38c-11.84-1.14-24.06,1.78-39.61,9.46-32.63,16.11-59.17,30.14-83.5,44.16-20.78,12-38.18,20.75-54.76,27.66-6.06,2.52-9.58,5.69-10.29,7.56-2.5,6.58-6.54,10.64-10.11,14.23l-1.44,1.45c-6,6.1-10.81,13-16,20.36-3.19,4.54-6.49,9.24-10.07,13.71-7,8.75-12.45,18.22-18.22,28.26-3.74,6.49-7.61,13.21-11.91,19.66a39.26,39.26,0,0,1-3.95,4.79c-2.06,2.22-2.81,3.22-3,4,9.44,7.95,20.71,10.56,31.95,7.33,4.51-1.3,8.87-2.11,13.09-2.9,1.79-.33,3.58-.66,5.38-1,2.62-.54,5.2-1.21,7.93-1.92a114,114,0,0,1,14.65-3.09c5.78-.72,12.11-4.19,13-6,4.32-11.52,13.19-17.17,20.31-21.72,3.65-2.33,7.1-4.52,9.39-7.12l7-8,4.69,9.5c1.54,3.12,3.11,6.21,4.68,9.29,3.59,7.05,7.3,14.35,10.52,21.8.4.93.79,1.86,1.17,2.78,3.61,8.59,6,13.58,13,16.29a23,23,0,0,1,13.48,14.12,18.52,18.52,0,0,1-1.8,16c-2.38,3.75-2.42,7.85-2.46,13,0,4.63-.08,9.89-1.91,15.55l-1.92,6-6.15-1.16c-3.67-.69-7.7-.51-12-.32-8.13.35-17.33.75-26.88-4.61-.91-.46-5.29-.55-12.32,2.17-17,6.61-34.16,13.92-50.73,21q-11.64,5-23.29,9.88c-20.43,8.55-46.86,19.34-73.06,28.26v3.45c.15,0,.31.08.47.12,4,1,7.5,1.88,11,2.64,3.74.81,7.56,1.51,12,2.33,2.16.4,4.46.82,7,1.3l12.7,2.4-8.84,9.44c-16.1,17.2-35.26,26-55.31,25.53-16.94-.43-34.22,1.14-50.93,2.64-19,1.72-38.7,3.49-58.43,2.46-3.67-.19-7.49-.13-10.87-.08l-.77,0-5.8,7.8c-5.4,7.3-10.5,14.19-15.81,20.92-9.33,11.83-15.53,25.28-22.09,39.52-2.74,5.95-5.57,12.1-8.64,18.08-.38.75-.75,1.52-1.13,2.28-3.52,7.17-9.33,19-24.89,16.31-.57.4-1.3,1-1.8,1.35l-1,.78c-9,6.78-18.19,13.75-27,20.5l-9.35,7.12c-1.77,1.35-3.57,2.67-5.37,4-4.36,3.21-8.48,6.24-12.25,9.62a10.88,10.88,0,0,0-2.38,5.13,20.63,20.63,0,0,0-.1,4.88c.07,1.5.14,3,.07,4.7-.36,8.42-2.78,19.64-19.54,19.79C1868.85,2774,1858.19,2774,1847.64,2774Zm-36.44-14.26,15.69,0c17.14,0,34.88.06,52.43-.1,4.71,0,5.21,0,5.47-6.17,0-1,0-2.2-.07-3.43a32,32,0,0,1,.43-8.66c.69-3.06,2.48-8.76,6.76-12.6s8.87-7.22,13.31-10.49c1.74-1.28,3.48-2.56,5.19-3.86l9.34-7.12c8.87-6.76,18-13.75,27.13-20.56l.85-.65c3-2.3,7-5.46,12-4.3s6.47.08,10.62-8.38c.41-.84.82-1.68,1.25-2.5,2.93-5.72,5.7-11.73,8.37-17.55,6.62-14.36,13.46-29.22,23.84-42.37,5.17-6.56,10.21-13.37,15.55-20.57,2.55-3.45,5.18-7,8-10.69l2.13-2.84H2033c1.28,0,2.67,0,4.14-.05,3.6,0,7.68-.12,11.83.1,18.72,1,37.88-.75,56.41-2.42,17.12-1.54,34.82-3.12,52.56-2.7,12,.29,23.69-3.76,34.4-11.82-1.78-.35-3.52-.7-5.25-1.07-3.77-.81-7.52-1.76-11.5-2.75-1.84-.46-3.76-.95-5.81-1.44l-5.42-1.33v-24.83l4.87-1.61c27.32-9.07,55.46-20.54,76.92-29.52,7.75-3.24,15.47-6.54,23.2-9.84,16.68-7.12,33.93-14.48,51.17-21.17,5.91-2.29,16.93-5.51,24.42-1.31,6,3.38,12.17,3.11,19.3,2.8,2.67-.12,5.39-.24,8.17-.16.16-1.88.17-3.8.19-5.79.05-6.26.11-13.36,4.67-20.54a4.42,4.42,0,0,0,.3-3.89,8.92,8.92,0,0,0-5.09-5.31c-13-5-17.27-15.13-21-24.05-.37-.88-.74-1.77-1.13-2.65-3-7-6.48-13.81-10.13-21-.22-.44-.44-.89-.67-1.33-1.58,1.1-3.19,2.13-4.78,3.14-6.44,4.11-12,7.65-14.68,14.79-3.43,9.14-16.88,14.07-24.55,15a101.83,101.83,0,0,0-12.85,2.75c-2.78.72-5.66,1.46-8.62,2.07-1.89.39-3.77.74-5.64,1.09-4.07.76-7.92,1.48-11.78,2.59-16.65,4.78-33.86.38-47.23-12.08l-1.31-1.22-.57-1.71c-3.3-9.8,2.39-15.95,5.79-19.62a27.94,27.94,0,0,0,2.55-3c4-6.06,7.79-12.57,11.42-18.86,5.79-10.06,11.77-20.45,19.44-30,3.3-4.13,6.33-8.45,9.54-13,5.25-7.47,10.67-15.19,17.41-22.11l1.55-1.57c3.06-3.06,5.47-5.49,6.89-9.23,3.17-8.36,12.71-13.39,18.11-15.64,16-6.67,32.9-15.21,53.13-26.86,24.61-14.17,51.4-28.34,84.3-44.59,11.22-5.54,28.32-12.68,47.28-10.85a25.37,25.37,0,0,1,8.18,2.58c2.46,1.12,4,1.78,5.28,1.52,5-1.08,10-2.12,15-3.17,5.33-1.1,10.67-2.21,16-3.37a9.22,9.22,0,0,1,6.8-2.2c12.37,1.39,20.81-5.47,30.57-13.41,2-1.64,4.08-3.31,6.2-4.92l-33.4-14.92,11.21-23.13h23.37c2.25-2.3,4.5-4.66,6.69-7,7-7.36,14.27-15,22.47-21.57,1.24-1,2.47-2.08,3.71-3.16,6.76-5.86,15.19-13.15,28-12.32,10.74.7,16.15,3.06,18.94,9.82l2.09-1.1c4.13-2.17,8.4-4.41,12.7-6.46a93.54,93.54,0,0,1,8.86-3.5c5-1.81,9.81-3.51,12.32-6.19,4.46-4.76,7.54-11.35,10.8-18.33,1.24-2.66,2.52-5.41,3.9-8.08,3-5.84,5.92-11.93,8.73-17.81,1.17-2.46,2.35-4.91,3.53-7.37a37.76,37.76,0,0,1,2-3.46,23.4,23.4,0,0,0,1.39-2.44c-.93-13.74,4.57-25.69,16.8-36.52,7.88-7,13.27-16,19-25.54q1.36-2.31,2.76-4.6l.26-.43c9-14.78,18.28-30.07,28.22-44.67,3.94-5.79,11.48-8.7,15.63-9.92,11.89-3.5,24-6.68,35.78-9.76l8.06-2.11v-38.15c-5.53-4.37-4.82-11.6-4.51-14.69.07-.71.16-1.66.18-2.36l-3.95-1.51,0-5c.13-7.29-2.05-14.46-4.36-22-2.51-8.28-5.11-16.84-5-26.37,0-1.26-1.14-3.72-2.25-6.1-.19-.4-.39-.82-.59-1.26h-.21c-7.94,0-15.68-1.43-23.21-2.82-6.84-1.27-13.92-2.58-20.91-2.74-14.74-.33-27.47,4.23-41.23,14.78-10,7.66-20.41,14.89-30.49,21.88-9.35,6.49-19,13.2-28.14,20.12-10.06,7.63-20.55,14.8-30.69,21.74-6.12,4.19-12.45,8.52-18.57,12.87-19.48,13.86-38,19.74-56.46,18a254.41,254.41,0,0,1-31.44-5.09c-9.35-2.08-17.49-10.86-28.1-30.31-3.64-6.67-7.56-13.81-11.58-20.86l-.27-.26-41.09,4.11a15,15,0,0,1-9.08,5.1c-6.48.87-11.46-3.31-14.75-6.08a24.22,24.22,0,0,0-2.43-1.89,229.57,229.57,0,0,1-40.46-26.78c-8.26-6.89-16.62-9.67-27.87-9.36-23,.65-45.95.38-63.4.07-6.8-.12-13.55,1.09-20.69,2.38-8.15,1.47-16.57,3-25.58,2.57-14-.64-25.93-4-36.58-10.29-20.46-12.07-40.55-24.42-64.4-39.25a83.14,83.14,0,0,1-14.33-11.31c-6.16-6.06-12.31-12.3-18.26-18.33-10.53-10.69-21.42-21.73-32.59-32a74.08,74.08,0,0,1-19.63-30.44c-5.8-16.44-12.83-32.74-19.63-48.5l-.59-1.36c-2.87-6.67-5.75-13.79-6.57-21.22-1.39-12.48-5-24.35-8.82-36.93-2.11-6.95-4.29-14.15-6-21.42l-.14-.57c-4.92-20.34-10-41.36-16.74-61.26-2.87-8.47-5-17.09-7.12-25.42-1.63-6.49-3.31-13.2-5.28-19.62-4.61-15-8.51-30.36-12.28-45.24-2.12-8.39-4.33-17.07-6.62-25.53-1.73-6.41-3.69-12.92-5.59-19.21-2.12-7-4.31-14.32-6.23-21.6-1.62-6.1-3-12.29-4.3-18.28-1.4-6.39-2.86-13-4.59-19.33s-3.88-12.89-6-19.17c-1.85-5.64-3.77-11.46-5.45-17.32-3.7-12.92-7-26.12-10.11-38.9l-1.86-7.52c-5.43-22.08-11-44.91-18.53-66.71a271.63,271.63,0,0,1-7.43-27.91c-.9-3.95-1.84-8-2.83-12q-1.31-5.19-2.59-10.4c-5.17-20.89-10.52-42.49-17.81-63.06-3.22-9.06-5.26-18.46-7.24-27.56-.9-4.13-1.83-8.41-2.85-12.53-3.36-13.64-6.83-27.56-10.32-41.37-.52-2.09-1.18-4.2-1.89-6.4a21.93,21.93,0,0,1-8.37-2c-2.08.23-4.1.4-6.08.58-6.08.53-11.83,1-17.29,2.87-12,4-25.47,1.09-37.91-8.28s-25.88-19-40-25.69c-11.86-5.63-20.69-13.59-28.46-21.34q-24.4-24.35-48.72-48.78l-14.27-14.31a16.22,16.22,0,0,1-8.6,2.49c-3.23,0-8.06-1.16-12.74-6.43a123.22,123.22,0,0,0-8.82-8.69c-7.09-6.55-14.43-13.32-18.87-23.51-.62-1.44-2.79-3.27-4.89-5-1.36-1.14-2.77-2.33-4.11-3.67q-47.7-47.69-95.37-95.38a21.76,21.76,0,0,1-1.61-1.85c-.4-.5-1-1.19-1.81-2.22l-.68-.83a27.3,27.3,0,0,1-7.73-1.55h-17.78V642c0-6-.28-12-.59-18.36-.69-14.81-1.42-30.12,1.74-44.91,2.78-13-.81-24.06-4.61-35.77q-.83-2.54-1.62-5.06c-7.12-22.87-15.35-45.92-23.31-68.21-3.55-10-7.23-20.26-10.77-30.43-2.29-6.59-5.09-12.94-8.06-19.67a236.51,236.51,0,0,1-10-25.32c-.29-.93-.6-1.86-.91-2.79-1.28-3.79-2.73-8.09-2.76-13-.08-19.13-.14-37.85,0-56.61.1-12,2.47-14.92,12.87-20.56-3.29-14-9.07-27.44-15.15-41.54-3-6.92-6-14-8.87-21.36l-12.54,10.86h-2.65c-3.15,0-6.41,0-9.73-.09-7.65-.09-15.57-.2-23.4.2-12.68.64-24.07-2.71-35.1-5.95-1.83-.54-3.68-1.08-5.52-1.6a48.33,48.33,0,0,0-6.11-1.14,46.49,46.49,0,0,1-10.57-2.42c-.55-.21-.65-.26-3,1.17a21.47,21.47,0,0,1-6.46,3,88.39,88.39,0,0,1-15.52,2.43c-8.77.5-17.67.77-26.28,1-18.5.56-37.64,1.14-55.84,4.1-11.74,1.91-23.31,2.41-34.5,2.9-5.46.24-11.1.48-16.6.89a54.82,54.82,0,0,0-9.3,1.86,73.27,73.27,0,0,1-10.4,2.15,65.8,65.8,0,0,1-10.38.13,49.19,49.19,0,0,0-8.91.15c-19.43,2.86-34.78-6.29-48.32-14.36-1.36-.81-2.72-1.62-4.08-2.41-8.11-4.75-14.77-8.49-21-11.78-5.68-3-11.32-6.24-16.77-9.36-4.35-2.48-8.86-5.06-13.3-7.48l-1.76-1C992.12,205,992.12,205,975.45,206a44.3,44.3,0,0,1-25.74-6.51c-17.49-10.27-36.62-18.25-55.13-26l-2.28-1a21.7,21.7,0,0,0-7.45-1.59l-4.43-.17c-7.2-.29-14-.56-20.59.2-17.94,2.05-34-3.06-49.57-8l-4.09-1.29c-.55-.18-13.48-4.34-13-13,.46-8.25-4.46-14-10.17-20.73a83.56,83.56,0,0,1-8.17-10.74c-7.26-12-16.89-23.14-26.2-33.95-2.71-3.14-5.42-6.29-8.08-9.45a71.44,71.44,0,0,0-19.16-15.66c-7.65-4.46-15.08-9.4-22.27-14.17C690.18,38.1,680.94,32,671.5,26.92c-7-3.71-11.75-7.64-15.37-12.71h-6A24.07,24.07,0,0,1,645.19,18c-.29,3.41-.81,7.11-3.22,10.23-7.86,10.22-16.05,20.41-24,30.28-13.47,16.76-27.39,34.09-39.92,51.83-11.12,15.76-22.94,31.31-34.38,46.34C531.78,172.41,519.45,188.62,508,205c-7.22,10.3-15.33,20.32-23.16,30-3.91,4.83-7.95,9.83-11.8,14.76-3.48,4.46-7.14,8.84-10.68,13.07-7.67,9.18-14.92,17.85-20.67,27.47a213.22,213.22,0,0,1-14.85,20.86,198.49,198.49,0,0,0-13.8,19.3c-6.32,10.52-14.37,19.88-22.15,28.93-4.91,5.72-10,11.63-14.46,17.66-6.44,8.69-13.11,17.4-19.56,25.83-13.28,17.35-27,35.29-39.29,53.71a177.84,177.84,0,0,1-14,17.62c-3.11,3.58-6,7-8.8,10.51-10.1,13-20.16,26.36-29.9,39.31l-3.95,5.25q-4.35,5.79-8.76,11.54c-7.79,10.22-15.85,20.79-23.21,31.46-14.74,21.39-32.84,39.89-50.33,57.78-10.51,10.75-21.38,21.86-31.25,33.35-17.25,20.08-36.13,38.89-54.4,57.08-14.3,14.25-29.08,29-42.85,44.09-3.51,3.85-6.92,8-10.22,12.11-7.54,9.29-15.31,18.87-25.68,26.37v767.83c7.82-1.78,11.92-8,12.48-18.7.34-6.55-1-13.14-2.38-20.12-2-9.8-4.18-20.91-1.67-33.18l1.59-7.76,7.54,2.42c.59.19,1.54.42,2.47.64,4.12,1,9.76,2.36,10.08,8.32a45.64,45.64,0,0,0,2.32,10.35c1.72,5.68,3.67,12.11,2.79,19.57-.42,3.53.76,7.88,2,12.48.65,2.39,1.32,4.86,1.82,7.4a48.64,48.64,0,0,1,.67,9.5c0,4.3,0,7.69,1.89,11.2,3.5,6.59,2.74,14.41,2.07,21.31-.14,1.43-.28,2.82-.37,4.14,1.54,1.32,3.06,2.64,4.54,3.93a139.78,139.78,0,0,0,15,12c9.75,6.38,17.47,10.81,28.12,9.77,13.32-1.31,28.89-2.22,45,3.51,1.2.43,2.39.81,3.57,1.19,5.67,1.83,12.1,3.91,17.43,10,4.08,4.63,9.48,6.77,17,6.74h.06a27.55,27.55,0,0,1,9.74,2.23,33.81,33.81,0,0,0,3.54,1.17c5.09,1.23,8.74.48,13.93-2.9,1.54-1,3.09-2,4.66-3.09,13.63-9.12,29.07-19.46,48.22-14.15,9.79,2.71,19.49,3,28.87,3.26,1.94.06,3.85.11,5.74.19l2.78.11,55.93,55.93-9.31,28.71,3.24-1.93c14.75-8.79,28.68-17.09,41.85-25.82,7.11-4.71,15.08-7.89,25.21.7,12.91,10.94,26.57,21.54,39.78,31.8l2.48,1.92c1.68,1.3,5.16,4,7,4.2,12.74,1.34,25.67,2.27,38.17,3.17,3.46.25,6.89.49,10.3.75l52.35-45.77,22.5,29h58.14c2,0,4.11-.1,6.31-.21,5.49-.27,11.17-.55,16.91.73,8.59,1.91,16.37,6,21.33,11.08,2,2,2.1,2.17,6.86-.05a30.77,30.77,0,0,1,8.24-2.86l5.15-.82,2.36,4.72c6.75-4.58,14.68-4.23,20.52-4l3,.12a32,32,0,0,1,4.38-10.47c12.95-18.27,19-34.7,17.94-48.83l-.24-3.25,39.64-39.65,15.56,18.81.48-.28a114.59,114.59,0,0,0,10.21-6.53c2-1.53,3.17-3.72,4.32-8.37,3.79-15.41,8.5-30.65,13.05-45.4,1.69-5.47,3.38-10.92,5-16.35l1.52-5.07h22l1.37,5.35c2.28,8.92.81,16.88-1.74,24.42C883.91,1579,890,1570,895.94,1561c2.06-3.14,1.89-6.29-.51-9.34-3.33-4.22-6.48-8.86-7.06-14.24-.7-6.48,2.33-12.74,4.19-15.89,5.12-8.64,13.27-5.68,16-4.7a16.5,16.5,0,0,0,2.1.67c10.07,2.14,18.68,6.77,27,11.25,7.78,4.19,15.14,8.15,23.23,9.87,1.35.29,2.66.64,3.94,1a29,29,0,0,0,6.61,1.28c4.9.09,9.94,0,14.81,0,7.31-.07,14.87-.13,22.38.21,4.2.2,8.53-1,13.12-2.24,6-1.64,12.84-3.5,20.53-2.51,9.88,1.28,22.19,2.86,31.46-.11,14.34-4.61,23.86.5,33.07,5.44,8.41,4.51,17.19,8.64,26.48,13,4.22,2,8.55,4,13,6.19l4.09,2-.07,4.55c0,.77,0,1.55,0,2.35-.17,7.12-.34,14.49,3.48,20.12a180.9,180.9,0,0,0,16.25,20.49c13.85,15.13,27.59,29.82,42.14,45.37l14.79,15.81c5.09,0,10.29-.12,15.35-.22,14.45-.27,29.39-.56,44.26.62,8.62.69,17-1.66,26-4.13,11-3.06,22.47-6.22,35.77-4.41l6,.82.12,6.08c0,2.35.1,4.77.16,7.22.13,5.67.26,11.54.32,17.43.06,5.56,0,11,0,16.74,0,1.61,0,3.23,0,4.87q6.18,6.81,12.35,13.7c11.63,12.93,23.66,26.31,35.86,39.1,9.28,9.72,10.89,19.16,5.22,30.61a68.52,68.52,0,0,0-4,11.62c-1.57,5.6-3.2,11.4-6.48,17a17.31,17.31,0,0,0,.16,3.58l42,15.72.72,4c3.59,20,1.54,39.9-6.67,63.41,4.89-.11,9.6,0,14.21.21,10.52.38,19.62.7,28.49-2.45,4.29-1.52,7.94.7,10.35,2.18.48.29,1,.62,1.32.77q8.32,4,16.69,8c13.63,6.49,27.72,13.21,41.44,20.2,10.81,5.52,18.22,7.46,28.71,2.77,17.53-7.84,37.24-11.18,60.29-10.24,31.06,1.27,62.83.78,93.54.3l4-.06c11.63-.18,23.55-1.32,35.09-2.41,17.2-1.63,35-3.31,52.95-2a20,20,0,0,0,4-1.72c1.36-.69,2.91-1.47,4.58-2.12l4.59-1.78,16.88,18.84h61.09l38.43-30.5,4.43,5.45c5.73,7,12.18,13.57,18.41,19.88,7.49,7.58,15.23,15.42,22.07,24.43,14,18.45,32,34.82,49.46,49.75,6.53,5.6,14.83,9.75,23.61,14.14,4.27,2.13,8.69,4.34,13.12,6.82l3.63,2v13.19q8,9.26,15.87,18.33c15.33,17.75,29.83,34.51,44.73,51.33,9.09,10.27,5.18,20.49,2.83,26.6-4.71,12.32-9,25.15-13.06,37.55l-1.9,5.75c0,.39,0,1.32.07,2.07.07,1.1.15,2.47.15,4.11v7.1H2127c-3.55,0-7.08,0-10.6-.06-8.09-.08-15.74-.16-23.46.17-10.73.43-16.52.12-23.35-4.66q-3.48-2.43-6.94-4.88c-7-5-14.34-10.12-21.64-14.87a12.38,12.38,0,0,0-6-1.69c-8.77-.23-17.56-.19-26.86-.16-3.59,0-7.24,0-11,0h-4.08l-2-3.51c-1.49-2.54-2.92-5.18-4.29-7.74-2.92-5.41-5.93-11-9.59-15.65-2-2.61-4.07-5.27-6.09-7.93-10.08-13.29-19.59-25.84-34.11-33.28-4.28-2.19-7.12-5.68-9.63-8.77-3.19-3.92-4.71-5.52-6.9-5.52h-.12c-8.82,0-15.8,1.26-20.76,3.75a42.51,42.51,0,0,1-14.63,4.12c12.65,16.47,25.74,31.24,39.46,46.72,6.76,7.64,13.76,15.53,20.64,23.58l.72.85.43,1c1.76,4.23,1.44,8.59,1.15,12.44-.36,4.85-.48,8,1.59,11,3.69,5.36,3.15,11.33,2.71,16.13-.46,5.06-.47,7.3,1.32,9.06l4.56,4.49-4,5c-3.78,4.77-7.57,9.76-11.24,14.59-6.2,8.16-12.6,16.6-19.39,24.49-8.54,9.93-7.06,19.57-5.19,31.79.19,1.24.38,2.5.56,3.76.09.16.2.32.29.48,1,1.61,2.59,4.3,2,7.82-1.66,9.26.19,18.52,2.15,28.32a136.59,136.59,0,0,1,3,20.53,271.7,271.7,0,0,0,4.44,36.29,137.68,137.68,0,0,1,1.72,17.29c.38,6.91.75,13.43,2.48,19.24,2.4,8,2.91,15.57,3.4,22.85.17,2.54.33,4.94.57,7.37a17.84,17.84,0,0,0,1.55,4.07c.54,1.16,1.15,2.49,1.73,4l1.79,4.59-68.76,61.74H1849a11.05,11.05,0,0,0-.21,2,14.1,14.1,0,0,0,.84,3.29,30.61,30.61,0,0,1,1.41,5.54c1.75,13-.34,25.47-2.35,37.49-1.53,9.14-3,17.77-2.8,26.46a7.36,7.36,0,0,1,0,.95l20.87,10.49.82,3.1c1.64,6.21,1.36,12.43,1.1,18.45-.38,8.53-.71,15.91,3.94,22.8l4.51,6.69-77.19,38.81-.36-3.43a52.18,52.18,0,0,1-4.12,4.4,22.76,22.76,0,0,0-4,4.85l3.56-.72Zm26.24-228.42Zm1005.74-695.45h0Zm-337.83-14.94ZM866.19,1573.7q-1.56,5.15-3.17,10.3-1.72,5.6-3.46,11.26c.4-1,.79-2,1.19-2.91C863.47,1585.68,865.92,1579.68,866.19,1573.7Zm-37-139.11-4.13-1.33c-12.54-4-19.45-12.68-20-24.73a8.46,8.46,0,0,0-1.74.37c-2.18.75-5.43,2.91-11.32,6.85l-9.31,6.22-1.67-11.07c-.17-1.16-.53-2.6-.88-4-1.19-4.78-2.54-10.2,1.67-14,1.78-1.6,1.9-2.94,1.61-7.53,0-.26,0-.52-.05-.78l-25.79-13.37,29.91-37.6c.2-7.61.24-12-.5-14.8-.7-2.61-2.29-4.85-6.81-10.93l-4.09-5.51L826,1262.62l2.43,0c19.29-.29,19.29-.29,36.58-8.45l10.14-4.79v67.86l17.8,16.64-.58,3.71c-.4,2.63-.85,5.12-1.28,7.52a97.78,97.78,0,0,0-1.79,13.06l-.21,4.64c-.45,9.64-.92,19.62.36,28.85,1.6,11.59-4.62,19.14-9.16,24.66-1.18,1.42-2.29,2.77-3.15,4-3.29,4.78-7.44,7.63-12.36,8.45-6.25,1-13.13-1.16-22.39-7.31Zm-21.79-40.33c1.6,0,3.4.06,5.49.15l8,.35-1.28,7.88c-1.28,7.92.41,12.57,6,15.5l15.31-15.29,4.92,3.66c10,7.43,14.54,8.59,16.59,8.24.4-.06,1.45-.24,3-2.47,1.23-1.78,2.59-3.44,3.91-5,4.22-5.12,6.76-8.52,6.05-13.67h0c-1.46-10.53-1-21.17-.48-31.47l.21-4.57a110.1,110.1,0,0,1,2-15c.21-1.13.42-2.29.62-3.48l-16.78-15.69v-51.73c-10.23,4.43-14.64,4.85-29.86,5.12L795.65,1305c6.32,9.14,6.51,12.94,6,31.39l-.07,2.38-22.12,27.8,18.31,9.5-.27,4.6a31.71,31.71,0,0,0,.11,3.8c.21,3.24.49,7.56-1.25,11.93C799.93,1394.75,802.87,1394.26,807.44,1394.26Z"/><path d="M1833,2057.93l-3.78-.9c-4.89-1.16-9.91-2.38-15-3.64-12-2.93-24.37-6-36.85-8.53-9.49-2-19-4.23-28.26-6.42-7.7-1.83-15.66-3.73-23.49-5.41-14.07-3-28.12-3-43-2.91-11.35.05-23.08.1-34.87-1.34l-6.24-.76v-28.38l8.8-9,5.09,5.08.21.21a12.21,12.21,0,0,1,9.88-2.79c6,1.07,12.31.87,19,.66,4.79-.16,9.74-.31,14.73,0,12.11.76,20.84-2.45,28.31-10.43,7.72-8.25,17.77-12.17,29.8-11.63,16.1.72,29.25.45,39.87-9.8,2.31-2.23,5.8-3.19,10.37-2.84,3,.22,8.44,1.16,11.35,5,7.08,9.24,14,10.76,26.61,5.83l26-10.22L1856.15,1978l2.9.88v53.8Zm-144.26-42c13,0,26.41.35,39.86,3.25,8,1.71,16,3.62,23.78,5.47,9.12,2.17,18.56,4.41,27.84,6.33,12.74,2.62,25.25,5.69,37.35,8.65l11.15,2.71,16.15-15.63v-37.25l-8.85-2.7c-11,.8-20-3.54-27.67-13.16a10.68,10.68,0,0,0-2.39-.33c-15.66,14.19-35,13.33-49.22,12.7-7.84-.34-14,2-18.8,7.14-10.34,11.06-23.29,15.94-39.57,14.91-4.32-.27-8.73-.14-13.4,0-6.81.22-13.84.44-20.87-.68l-.65.55c-1.58,1.38-4.11,3.58-7.74,3.76v3.68c8.8.69,17.62.65,26.84.61ZM1852,2029.68h0Z"/></g></g></svg>