<svg xmlns="http://www.w3.org/2000/svg" viewBox="0 0 3540 2355.19"><title>Asset 1</title><g id="Layer_2" data-name="Layer 2"><g id="Layer_1-2" data-name="Layer 1"><path d="M3538.84,1278.65c-2.71-2.49-5.25-5-7.71-7.37-5.43-5.29-10.57-10.29-16.38-14.48h0a146.7,146.7,0,0,0-18.8-11c-2-1-3.74-1.93-5.18-2.74a3.57,3.57,0,0,0-2.33-.41c-4,.64-7.57,1.5-10.71,2.26-5.38,1.31-9.63,2.33-12.59,1.39-20.25-6.44-38.67-9.3-56.35-8.77-8,.23-15.38-2.51-23.21-5.42-2-.76-4.09-1.52-6.14-2.22l-.85-.29c-40.57-13.91-41.36-14-84.54-14.67-1,0-2.07,0-3.14,0-2.93.08-6.25.16-7.88-.87-8.8-5.59-19.94-6.5-33.12-2.68-12.51,3.62-22.76,3.62-35.4,0-13.6-3.88-24.43-2.91-33.1,3-4.8,3.26-11.47,4.47-16.23,4.92-19.21,1.82-41.54,3.81-63.41,4.53-15.05.48-30.4.38-45.25.29-8.09-.06-16.45-.11-24.68-.07-.89,0-1.84,0-2.81-.07-4.31-.16-9.19-.33-12.34,2.46-2.31,2-4.76,2-8.57,1.62-3.07-.26-6.54-.56-9.82,1.18-5.6,3-11.47,4.16-19,3.83-22.42-1-42.38,2-61,9-2.92,1.1-7.56.86-9.94-.5-4.17-2.39-8.6-3.48-12.89-4.54-5.73-1.4-11.13-2.73-15.43-7.08-6.91-7-17.64-8.45-30.2-4.13-2.75,1-10.06,3.46-14.2,2-8.67-3-17-6.93-25.86-11.11-3.58-1.69-7.28-3.43-11-5.14a3.63,3.63,0,0,0-3,0l-46,21.33c-4.36-.17-8.83,0-13.55.09-14.85.41-30.23.85-44.38-8.16a3.6,3.6,0,0,0-3.63-.15l-42.54,22.6c-4.5-.41-9.21-.61-14.18-.83-12.55-.54-25.53-1.1-37.48-5-25.41-8.28-46.12-.19-66.15,7.64s-40.79,15.93-60.69,15.93h-1.19a3.8,3.8,0,0,0-1.65.37l-20.71,10.17a3.64,3.64,0,0,0-1.69,1.73l-4.92,10.68a3.61,3.61,0,0,0,1.3,4.54c11.43,7.48,23.57,7,35.32,6.52,5.89-.24,11.47-.46,16.92.27l4.21,3q5.35,3.83,10.76,7.63c14.63,10.27,31.13,19.37,52.67,16.41,6.07-.83,12.63.38,19,1.55a107.2,107.2,0,0,0,12.34,1.77c16.1,1,27.85,9.06,40.28,17.54,2.86,1.94,5.81,4,8.81,5.87a15.59,15.59,0,0,1,.34,1.71c-28.48,1.54-54-4.26-75.88-17.26a3.57,3.57,0,0,0-2.61-.42l-21,4.56-24.86-17.89a3.64,3.64,0,0,0-2.56-.65l-43.68,5.43-32.39-16.67-8.26-16.56a3.6,3.6,0,0,0-1.63-1.62l-12.62-6.28a3.6,3.6,0,0,0-3.46.13l-30.25,18.05c-21.29-9-22-9.21-34-8.77a3.78,3.78,0,0,0-.81.12c-24,6.49-32.65,24.23-37.54,39-7,21.23-16.24,34.15-40.12,33-4.07-.19-7.58,2.25-11,4.61a44.65,44.65,0,0,1-3.78,2.44,3.61,3.61,0,0,0-1.9,3.18v11.86l-7.62,7.69-3-3V1376c1.7-1.54,3.31-3.18,4.87-4.77,4.3-4.38,8.37-8.52,14.28-10.86,14.73-5.85,25-17.29,30.58-34a3.61,3.61,0,0,0-1.4-4.13l-10.51-7.11a3.57,3.57,0,0,0-2-.62,24.64,24.64,0,0,1-2.5-.31c-3.87-.58-9.71-1.45-14,1.26-13.71,8.63-28.37,8.3-43.89,7.94-5.38-.13-10.95-.26-16.44,0a60.38,60.38,0,0,1-6.49-.17c-5.06-.31-10.28-.63-14.8,1.58-12.95,6.34-27.2,9-41,11.57-8.51,1.59-17.3,3.24-25.82,5.73-12.21,3.57-24.09,3.71-36.67,3.86l-1.29,0c-8.53.1-17.69.18-27,0-11.69-.26-21.78,4.34-31.5,8.77l-4.16,1.88c-3.12,1.38-4.81,4.49-6.76,8.08-.91,1.67-1.94,3.57-3.23,5.52a3.62,3.62,0,0,0,3,5.6c4.23,0,8.15.07,11.93.13a215.16,215.16,0,0,0,22.37-.34,183.48,183.48,0,0,0,20.78-3.36c2.12-.42,4.2-.84,6.24-1.23l11.16,10.67-13,38.66a3.27,3.27,0,0,0-.13.54c-1.18,6.87-1.35,14-1.52,21-.08,3.45-.17,7-.37,10.49-.25,4.14,1.21,7.83,2.62,11.41,1.8,4.55,3.21,8.13,1.43,12.12a133.39,133.39,0,0,1-6.81-11.94c-5.34-10.15-10.86-20.64-22.24-26.83a3.58,3.58,0,0,0-1.72-.44h-17.52a3.62,3.62,0,0,0-2.57,1.08l-14.68,14.92-2.58-1.76a70,70,0,0,0-12.15-7.18,60.35,60.35,0,0,0-12.57-3.3c5.62-5.63,11-10.06,18.64-10.33,12-.43,20.71-6.34,30-12.59,2-1.37,4.16-2.8,6.31-4.16a3.62,3.62,0,0,0,0-6.13c-2-1.24-3.92-2.35-5.73-3.4a73,73,0,0,1-9.56-6.21,57.53,57.53,0,0,1-5.81-5.86c-2.73-3-5.56-6.16-9.15-8.45l-5.26-3.39c-11.29-7.29-23-14.83-35.65-19.62-14.27-5.39-31.94-12.06-50.89-9.59-2.26-1.58-4.53-3.31-6.73-5-6.05-4.62-12.31-9.41-19.53-12l-1.62-.59c-13.76-5-30.88-11.22-46.62,5.17a3.6,3.6,0,0,0-.05,5l12.74,13.8a3.59,3.59,0,0,0,2.65,1.16h9.75l11.14,8.59c.46,14-1.3,22.82-10.66,29.52L1831,1366.54a3.58,3.58,0,0,0-2.77-1.3h-33.5a3.61,3.61,0,0,0-2.81,5.88c1.51,1.87,2.87,3.51,4.11,5,2.68,3.24,4.8,5.8,6.6,8.45a4.66,4.66,0,0,1,.26,1.27h-7.12c-6.32-15-18.25-24.26-34.77-27.12,1.3-4.13,4.41-4.72,9-5.58,3.32-.62,7.28-1.36,10-4.17,14.12,6.48,17.66,4.91,42.25-8.46a3.61,3.61,0,0,0,1.88-3.36l-.77-14.81a3.6,3.6,0,0,0-3.6-3.42c-1.79,0-3.45.16-4.91.3a19.87,19.87,0,0,1-3.49.17c-10.82-8.94-20.12-5.1-27.8-.15-5.53,3.58-12.47,5-20.57,4.38a150.81,150.81,0,0,0-15.15-.24c-4,.07-8.09.15-12.06-.05-8.17-.42-14,2.09-16.59,7.05a3.6,3.6,0,0,0,.13,3.54l21,34.2c-2.61,2-5.31,3.87-7.95,5.67-6.89,4.71-14,9.54-18.28,17.15-.17-.4-.33-.8-.5-1.21-1.94-4.76-4.14-10.15-10.6-12.39a3.61,3.61,0,0,0-4.43,1.82c-1.44,2.95-2.65,5.95-3.82,8.85-2.34,5.82-4.56,11.32-8.15,14.86-6.81,6.69-14.71,12.14-23.07,17.9-2.58,1.79-5.24,3.62-7.86,5.49-.79-.82-1.6-1.59-2.4-2.36-4.52-4.33-6.89-6.91-5.37-12l43.72-43.73a3.55,3.55,0,0,0,1.06-2.54c0-1.15.07-2.32.13-3.49.33-6.17.78-14.63-8.57-19.71a3.63,3.63,0,0,0-1.16-.4c-8.32-1.3-20.6-2.08-31.23,6.18-3.9,3-7.22,3.54-13.44,1.43l12.51-13.56a3.64,3.64,0,0,0,.93-2c.92-7.28-2.28-12.9-5.09-17.86-3-5.32-4.76-8.75-3.09-12.87,7.93-1.21,12.84,4.76,14.12,9.09,3.09,10.47,12.07,12.1,16.38,12.89l.34.06c7.44,1.37,18.71,2.73,30.59-1.28a3.6,3.6,0,0,0,2.3-4.48c-3.47-11.31-12.32-13.78-19.43-15.77-4.53-1.26-8.43-2.35-10.74-5.25-6.59-8.24-15.23-12.21-24.37-16.41-3.52-1.61-7.16-3.29-10.76-5.25a3.62,3.62,0,0,0-5.1,1.89l-7.12,18.77c-1,.58-2.13,1.18-3.35,1.81-4.63,2.39-9.88,5.1-11.4,9.92-2.16,6.9-6.88,9-12.86,11.75-1.91.87-3.89,1.77-5.83,2.87-1.32.75-2.71,1.46-4.17,2.21-4.63,2.37-9.41,4.82-12.76,8.85-5.55,6.69-10.2,13.86-15.12,21.44-1.63,2.5-3.3,5.08-5,7.65l-6.89-.62,5.3-17.81a3.65,3.65,0,0,0-.64-3.28l-8.94-11.26,4.79-5.26h28a3.6,3.6,0,0,0,3.11-1.79l20.1-34.27,19.17-12a3.52,3.52,0,0,0,1.47-1.8c6.28-16.79,5.91-18.35-1-33.7l-1.26-2.81c-11.6-25.92-32.35-42.63-51.11-55.55a3.67,3.67,0,0,0-2-.63h-28.78c-1.85,0-3.71.05-5.56.1a77,77,0,0,1-12-.26,40.06,40.06,0,0,1-12.74-4.08c-14.07-7.1-28.72-7.09-46,.07-18.21-10-38.74-20.92-62.12-24.55-6.42-6.16-12.72-2.68-16.55-.57-1.83,1-3.56,2-5,2-9.25.36-14.35,4.57-16,13.27a3.66,3.66,0,0,0,.5,2.62c2.36,3.73,6.15,8.83,11.79,9.94,3.51.7,7.15-.27,10.8-2.86,3.21-2.28,6.42-2.1,10.48-1.88a37.63,37.63,0,0,0,6.54,0c4.66,1.62,31.91,15.14,36.59,18.14,0,.3.11.71.16,1.06s.07.48.11.75c-6.32,4.77-13.07,9.86-19.81,15a3.63,3.63,0,0,0-1.35,2.1c-2.7,12.23-4.63,13.79-5.15,14-7.43,1.35-11.61,6.12-15.3,10.33-2,2.29-3.9,4.45-6.09,5.77a3.63,3.63,0,0,0-1.75,3c-.27,8-3.46,15.32-6.85,23.09-5.18,11.9-10.53,24.2-5.34,39.35a3.48,3.48,0,0,0,.47.92l15.21,21.45c-3.64-.59-6.08-1-7.79-2-9.86-6-19.7-12.47-29.22-18.77l-7.21-4.77a20.46,20.46,0,0,0,4.4-5c2.57-4.52,5-9.19,7.37-13.71a246.61,246.61,0,0,1,12.92-22.72c7.79-11.63,6.59-23.58-3.55-35.51l-1.55-1.82c-7-8.17-13-15.22-13.53-25.77-.15-3-2.27-5.27-4-7.07a19.21,19.21,0,0,1-1.31-1.48,3.63,3.63,0,0,0-5.38-.52l-12.51,11.61a3.64,3.64,0,0,0-1.15,2.76c.64,19.31-10.5,32.36-21.49,42.58-10.68,9.93-24.53,10.78-36.66,10.31a3.55,3.55,0,0,0-3,1.42l-13,17c-3.49.58-5.75-1.49-9.45-5.23l-1-1a12.44,12.44,0,0,0-5.16-2.74c-.54-.18-1.07-.35-1.56-.57a3.63,3.63,0,0,0-3.93.7l-9.67,9.2-9.76-4.27V1262a3.6,3.6,0,0,0-.78-2.25,102,102,0,0,0-10.6-10.87c-4.34-4-8.47-7.86-11.44-12.38,6.32-8.19,12-5.6,18.57-2.64,1,.47,2,.93,3,1.32l13.75,16.48a3.61,3.61,0,0,0,2.77,1.3h17.56a3.61,3.61,0,0,0,3.61-3.62v-43c15.92,6.12,15.48,19.78,15,35.41l-.06,1.78a3.63,3.63,0,0,0,1.17,2.77l8.94,8.23a3.61,3.61,0,0,0,4.71.16l31.61-25.41a3.6,3.6,0,0,0,1.34-2.58c.71-10.81,1.31-20.15,3.75-29.53,4.15-16-3.17-30.85-11-43.74l1.74-2.06,15,7.85a3.61,3.61,0,0,0,4.08-.51l7.26-6.51a3.63,3.63,0,0,0,.93-4.07c-9.94-24.1-30.1-34.63-46.54-41.12l-3.51-1.39c-15.68-6.2-31.9-12.62-48.61-16-10.41-2.1-20.2-6.4-29.66-10.55a207.54,207.54,0,0,0-21.82-8.62c-13.63-4.22-27.4-8.88-40.72-13.39s-27.1-9.16-40.78-13.41c-10-3.09-20-5.32-29.81-7.48-4.27-.94-8.3-1.83-12.25-2.78a3.61,3.61,0,0,0-3.33.89l-12.88,12.24a3.61,3.61,0,0,0-.06,5.17l6.8,6.8a3.66,3.66,0,0,0,2.41,1.06c3.43.13,6.87,0,10.19-.13,6.89-.27,13.4-.53,16.44,1.84,10.21,11.2,8,20.89,5.71,31.15-1.13,5-2.31,10.24-1.93,15.55a3.62,3.62,0,0,0,1,2.23l7.88,8.28c-.94,5.21-1.69,8.9-2.73,9.91-.82.8-3.7.84-7.77.79l-7.12-7.12c-1.27-3.44-2.48-6.55-3.65-9.57a159.32,159.32,0,0,1-6.22-17.91c-2.14-8.34-7.25-13.57-16.07-16.4l-22.87-18.46a3.91,3.91,0,0,0-.8-.49l-5.39-2.4a3.62,3.62,0,0,0-3.58.36,45.41,45.41,0,0,0-18.41,26.91c-.12.48-.23,1-.35,1.49-.29,1.29-.83,3.7-1.37,4.19-10.34,8-7.78,18.28-6.41,23.8a3.63,3.63,0,0,0,1.82,2.32c3.14,1.66,6.12,3.39,9,5.07,6.39,3.72,12.43,7.23,19.08,9.27,9.21,2.81,11.24,9.53,13.82,18l.58,1.9c1.93,6.24,3.57,12.49,5.31,19.1.59,2.24,1.18,4.5,1.79,6.78l-2,1.81-2.44-3.44c-3.62-5.12-7-9.95-10.34-14.92-5.83-8.79-14.28-8.34-21-7a3.6,3.6,0,0,0-2,1.2l-38.6,45.42a3.61,3.61,0,0,0-.21,4.4l9.39,13.44a3.63,3.63,0,0,0,4.53,1.19c3-1.46,5.93-2.87,8.75-4.25,7.28-3.55,14.16-6.9,21-9.82a9.7,9.7,0,0,1,3,.43V1218l-12.34,11.57a3.62,3.62,0,0,0,1.2,6l15.75,5.92a3.6,3.6,0,0,0,4.07-1.11l.38-.46,20.77,21.22a3.62,3.62,0,0,0,4.23.69l15.2-7.78,9.17,5.6c-3.12,4.3-7.76,5.59-13,7-4.91,1.36-10,2.77-14,6.8-5,5-11.6,4.92-19.2,4.8-4.62-.08-9.42-.16-14,1.07a3.6,3.6,0,0,0-2.67,3.48v11a3.61,3.61,0,0,0,2.28,3.36c1.53.6,3.09,1.18,4.65,1.77,3.48,1.3,7.08,2.64,10.41,4.26l.79.38c3.94,1.91,8,3.89,10.63,6.66,2,2.16,3.55,5.14,5.13,8.29l.84,1.66-4.85,3.44-6.22-7.91a3.64,3.64,0,0,0-2.84-1.38h-19.53a3.6,3.6,0,0,0-2.24.79l-20.33,16.11-8.67-25.12a3.61,3.61,0,0,0-4.48-2.27l-17.55,5.41-2.73-2.73,4.87-6.43a3.61,3.61,0,0,0-1.39-5.47l-14.06-6.37a3.59,3.59,0,0,0-1.49-.32H932.57a3.62,3.62,0,0,0-3,1.62l-13.19,19.92H906.11l-16-24.73a3.54,3.54,0,0,0-1.91-1.47L851,1271.17a3.57,3.57,0,0,0-2.79.23l-13.59,7.06-17.78-12.53,26-21.52h19.61a3.61,3.61,0,0,0,2.22-.76l13.8-10.74a3.6,3.6,0,0,0,1.4-2.85V1213l7.45-7.45a3.62,3.62,0,0,0,1.06-2.56v-9.5a3.61,3.61,0,0,0-1.2-2.69c-18.25-16.38-29.9-32.29-36.66-50.06a3.62,3.62,0,0,0-3.38-2.33h-9.94a3.62,3.62,0,0,0-2.61,1.12c-2.26,2.35-4.44,4.91-6.56,7.38-6,7-12.12,14.16-21.27,18.87H775.88a3.64,3.64,0,0,0-2.09.67c-3,2.16-5.72,4.39-8.31,6.55-5,4.11-9.23,7.66-13.68,8.74-7.91,1.91-14.13,6-20.15,10a102.27,102.27,0,0,1-11.44,6.83,3.61,3.61,0,0,0-1.88,4.28c1.71,5.72,0,11.64-1.74,17.91-2.48,8.76-5.27,18.63,2.14,28.21-.47,1.13-.91,2.21-1.33,3.28-1.33,3.34-2.48,6.22-4.15,8.37-.91,1.18-2.72,2.15-5,3.32v-15.48a3.58,3.58,0,0,0-1.06-2.55l-6.42-6.42a3.58,3.58,0,0,0-2.55-1.06H678.34a3.62,3.62,0,0,0-3.35,2.27l-7.47,18.65-5.26-13,14.14-15.16h12.12a3.62,3.62,0,0,0,2.56-1.06l6.47-6.47a3.62,3.62,0,0,0,1-3.14c-1.4-8.66,2.52-16.38,6.69-24.56,3.71-7.3,7.53-14.82,7.85-23.5l13.91-4.91,12.88,12.87a3.62,3.62,0,0,0,4.76.31c4.76-3.66,9.45-7.05,14-10.33,16-11.52,29.72-21.47,38.3-36.83a4,4,0,0,0,.39-1.06c1.16-5.82,1.12-11.41,1.08-16.82,0-7.77-.11-15.1,3.49-22.16,5.41-10.63,13.43-18.94,21.18-27l.7-.73a3.61,3.61,0,0,0,.66-4.06c-3.1-6.52-9-8-13.82-9.24-5-1.27-7.27-2-7.82-5.71,4.76-8.29,13.09-10.47,21.89-12.78a80.38,80.38,0,0,0,11.8-3.74,3.61,3.61,0,0,0,2.07-2.45c1.36-5.57.61-11.2-2-15.08a10.65,10.65,0,0,0-7.4-4.78c-11.06-1.59-19.35-7.66-28.13-14.1-3-2.18-6.06-4.43-9.25-6.5-8.14-5.28-17.82-10.49-29.76-5.6a3.58,3.58,0,0,0-1.48,1.13c-5,6.4-8.31,13.76-11.55,20.88-4.31,9.48-8.39,18.48-15.62,22.93l-12.2-6.56,21-35.08a3.23,3.23,0,0,0,.39-.92c5.66-21.22-5.31-34.53-15.5-43.75-3.48-3.15-6.67-6.51-9.33-9.38a11.8,11.8,0,0,1-.75-1.63c-.15-.37-.32-.77-.51-1.21l3.93-8.13h12.21l13.57,13.58v18.92a3.61,3.61,0,0,0,2.23,3.33L778,968.09a3.61,3.61,0,0,0,4.61-1.71l6.14-12.18a3.6,3.6,0,0,0,.06-3.14c-9-19.53-12.76-35-3.35-51.94a3.6,3.6,0,0,0-.22-3.86l-17.29-24.13a3.62,3.62,0,0,0-4-1.33l-32.14,10.46c-1.13-1.74-2.23-3.41-3.29-5-3.7-5.64-6.89-10.51-9.78-15.58a7.65,7.65,0,0,1-.6-2.79l20.12,9.22a3.61,3.61,0,0,0,5.12-3.28V840.72a3.58,3.58,0,0,0-1.37-2.83c-4.75-3.78-7.85-9.43-11.13-15.4-4.9-8.94-10.46-19.06-22.77-23.46a3.58,3.58,0,0,0-1.21-.21h-21.4V780.51a3.66,3.66,0,0,0-.78-2.25l-54-67.93a3.62,3.62,0,0,0-1.6-1.15c-7.47-2.69-14.55-7.4-22-12.4-9.44-6.29-19.2-12.79-31.32-16.52a3.6,3.6,0,0,0-4.54,2.46L564,707.66,540.63,683V664.63a3.6,3.6,0,0,0-2.23-3.33l-12.47-5.18a3.61,3.61,0,0,0-3.94.78l-5.62,5.62a3.58,3.58,0,0,0-1.06,2.55V696.7a3.61,3.61,0,0,0,.52,1.87,160.13,160.13,0,0,0,13.26,17.93c7.56,9.28,14.7,18,18.24,29.2a3.62,3.62,0,0,0,3.45,2.52h19.65c1.87,4.79,4.71,9,7.47,13.12,4.24,6.29,8.28,12.3,9.25,20.35l-22.43-8.87a3.58,3.58,0,0,0-2.87.1l-19.51,9.21c-5.15-3.67-6-8.93-7-14.94-.93-5.76-1.89-11.72-6.93-16.07a3.64,3.64,0,0,0-2.36-.87h-15.3a3.61,3.61,0,0,0-2.84,5.84l.49.62-7.53,7.49a3.59,3.59,0,0,0-.94,3.49c1,3.94,3.12,7.62,5.12,11.18,3.65,6.49,7.12,12.66,5,20.54l-1.14-.07c-1.72-.1-4.09-.24-4.73-.79-4.59-3.95-5.89-9.86-7.27-16.12-1-4.41-2-9-4.19-13.18a3.61,3.61,0,0,0-4.22-1.78c-8,2.38-14.87,6.95-21.51,11.37-9.56,6.37-18.63,12.41-30.21,11.21l-.53-8.51a3.6,3.6,0,0,0-2.18-3.1L421.53,773a3.59,3.59,0,0,0-2.52-.12l-13.42,4.26-5.19-6.25,3.6-3.46c3.36-.75,6.47-1.57,9.49-2.36,6.78-1.77,12.64-3.3,18.37-3.38s11.77,1.44,17.61,2.89c2.64.66,5.37,1.34,8.06,1.87a3.61,3.61,0,0,0,3.46-1.21l19.19-22.65a22.46,22.46,0,0,1,5.49,2.11c6,2.84,16,7.6,22.77-6.49a3.64,3.64,0,0,0,.36-1.56V720.91a3.64,3.64,0,0,0-.91-2.4L492,700.6a3.51,3.51,0,0,0-1.7-1.07c-2-.59-4.08-1-6.09-1.42-6.81-1.39-12.43-2.54-15.39-8.84H489.3a3.61,3.61,0,0,0,2.55-1.06l6.55-6.55a3.62,3.62,0,0,0,1.06-2.56V651a3.62,3.62,0,0,0-1.06-2.56l-17.35-17.35a3.47,3.47,0,0,0-.94-.68c-16.46-8.23-31-8.07-46.95-7.07a3.59,3.59,0,0,0-2.05.79c-3.49,2.83-7.11,5.71-10.81,8.64-9.33,7.41-19,15.07-28.27,23.34-5.75,5.12-12.19,10.12-20.29,12.09a7.45,7.45,0,0,1-2.32-.2V656.33l14.47-10.63a3.52,3.52,0,0,0,1.25-1.67l6.78-18.45h23.39a3.62,3.62,0,0,0,3.61-3.62V602.05l20.42-8.71a3.59,3.59,0,0,0,2.19-3.32V566.27l11.86-6.81,3.45,3.45-5.48,40a3.62,3.62,0,0,0,2.19,3.83,121.6,121.6,0,0,1,14.38,7.58c11,6.42,22.32,13.07,37.46,11a3.61,3.61,0,0,0,3.13-3.58v-17.4a3.62,3.62,0,0,0-1.71-3.07c-1.49-.93-3.05-1.83-4.64-2.76a87.94,87.94,0,0,1-10.8-7c-1.64-1.32-3-3.4-4.48-5.81l-.12-.2,14.71-6.66a3.6,3.6,0,0,0,1.85-1.91l2.75-6.63.06.09,14.43,18.91a3.62,3.62,0,0,0,5.18.58c12-10,11-22.21,10.18-32a38.16,38.16,0,0,1,6.87-24.94,3.59,3.59,0,0,0,.55-1.17c5.62-21.75-1.62-39-7.43-52.77-1.67-3.95-3.24-7.68-4.38-11.19a3.8,3.8,0,0,0-.61-1.14c-4.85-6.06-10.66-8-15.79-9.68-4.76-1.59-8.38-2.78-10.68-6.93l8-8.58a3.59,3.59,0,0,0,1-2.47V413.17a3.65,3.65,0,0,0-1.05-2.56L496,394.23v-7.71c3.37-.82,6.05.59,10,2.92a37.1,37.1,0,0,0,5.83,3c1.7,3.33,3.59,6.6,5.42,9.79,4.65,8.09,9.05,15.73,10.52,23.79,1.3,7.13,5.3,12.77,8.83,17.75,4.43,6.25,7.94,11.19,6.44,17.75a3.61,3.61,0,0,0,1,3.36l16.7,16.71-5.75,46a3.58,3.58,0,0,0,.64,2.56l15.72,21.94a3.62,3.62,0,0,0,6.28-.73l5.47-13.23a4.11,4.11,0,0,0,.21-.68,142.92,142.92,0,0,0,2.13-41.73c-1.11-10.7,3.35-19.27,8.06-28.34,1-1.93,2-3.86,3-5.82a74.77,74.77,0,0,1,6.37-10.09c1.69-2.39,3.44-4.88,5-7.48l1.3-2.19c11.35-19.05,23.09-38.74,39.1-54.76a83.76,83.76,0,0,0,9.46-12.08c1.29-1.86,2.5-3.61,3.77-5.32a3.63,3.63,0,0,0,.72-2.07c.52-21.89.38-23.3-8.14-39.3l10.5-22.3a3.62,3.62,0,0,0-1.5-4.69c-7.7-4.33-10.11-11.42-12.66-18.92-1.74-5.1-3.53-10.37-7-14.8s-5.4-9.75-7.39-15.4c-2.64-7.48-5.36-15.21-12.18-20.46a3.62,3.62,0,0,0-3.64-.46l-26.88,11.61a4,4,0,0,0-1,.64l-10.06,9.11-3.47-5.8,20.33-24.08a3.59,3.59,0,0,0,.85-2.33V206h12.34a3.59,3.59,0,0,0,2.44-.95l.49-.45L625.62,215a3.61,3.61,0,0,0,5.66-.71l8-13.47a3.65,3.65,0,0,0,.5-2c-2.78-70.82.85-79.43,5.06-89.4a74.9,74.9,0,0,0,3.6-10,3.57,3.57,0,0,0-.12-2.28c-5.31-13.52-5.73-26-1.3-39.29,1.66-5,3.72-11.14,1.19-15.48-4.17-7.16-3.9-14.82-3.62-22.92a92.84,92.84,0,0,0-.14-12.35,10.25,10.25,0,0,0-1.47-4c-.17-.32-.35-.63-.49-.94A3.61,3.61,0,0,0,639.21,0h-17a3.61,3.61,0,0,0-3.33,2.21c-1.29,3.06-2.54,6.16-3.8,9.28-2.81,7-5.72,14.2-9.12,21a78.79,78.79,0,0,0-4.45,12c-2,6.55-3.92,12.73-8.64,17.63a95.36,95.36,0,0,0-8.76,11.12C579.9,79.15,576,84.7,570.78,87.69c-16,9.27-29.08,21.73-41.69,33.78-4.08,3.9-8.3,7.94-12.54,11.79l-.47.42c-8.42,7.64-18,16.3-27.85,18.65-15.08,3.6-24.56,11.55-32.57,19.6-1.77,1.79-3.57,3.55-5.38,5.3-3.56,3.47-7.24,7.06-10.66,10.85-17,18.82-33.36,26.72-50,24.16a3.64,3.64,0,0,0-2.15.34c-16.57,8.19-24.66,21-32.49,33.48a140,140,0,0,1-10.55,15.25,104.32,104.32,0,0,0-7.92,11.37c-4.84,7.66-9.42,14.9-18.08,19.57-14.38,7.76-23.31,22.84-24.64,41.53l-3.4,3.43c-3.2,3.24-6.5,6.58-9.84,9.79-14.44,13.85-19.45,32.54-22.19,47.28-2.67,14.27-6.47,26-12,37-1.77,3.54-3.59,7.06-5.4,10.59-6.76,13.14-13.75,26.72-18.7,40.89-4.49,12.83-10.55,24.08-15.89,33.39a57,57,0,0,1-3.94,5.73,49.44,49.44,0,0,0-5.6,8.77c-7.25,15.83-19.08,27.67-36.16,36.18-21.93,10.92-30,19-40.86,41-5.64,11.38-12.63,18.26-22,21.65-21.12,7.67-35.69,23.27-43.3,46.37-2.08,1.24-4,2.48-5.86,3.69-4.32,2.79-8.05,5.2-12,6.48-15,4.88-18.92,16.86-22.71,28.44l-.41,1.24c-5.07,15.42-4.68,31-4.3,46l.08,3.13c.25,10.43-1.17,18.65-4.46,25.89-4.75,10.45-6.06,21.56-4,34a3.64,3.64,0,0,0,.7,1.61C18.25,848,22,874,26,901.52c.75,5.12,1.51,10.41,2.36,15.68a3.62,3.62,0,0,0,1.81,2.58c1.92,1.08,3.95,2.45,6.11,3.9,5.28,3.56,11.27,7.59,18,8.74,12.1,2.07,22.22-3.3,32-8.51,2.71-1.43,5.29-2.81,7.88-4,18.61,7.46,33.54,10,48.22,8.23a3.59,3.59,0,0,0,2.12-1c1.76-1.75,3.45-3.51,5.12-5.25a144,144,0,0,1,11.07-10.73l1.5-1.27c4.22-3.58,8.57-7.27,12.88-8.14,14.16-2.87,28.41-4,40.48-4.68,5.29-.31,10.79-.15,16.1,0,7.38.22,15,.44,22.51-.54,10.67-1.4,19.57,2.57,29,6.77,2,.9,4,1.79,6,2.63s4.19,3.15,6.57,5.76c1.31,1.44,2.79,3.07,4.46,4.65a3.61,3.61,0,0,0,5.27-.31L321,897.25l4.18,3.92c1.65,7.18-1.46,13.11-5,19.92-.49.93-1,1.86-1.45,2.79-1.29,2.53-4.17,4-7.5,5.68-5.41,2.75-12.83,6.51-12.89,17.16a3.6,3.6,0,0,0,3.61,3.63h39.87c9.44,7.18,16.78,16.39,23.88,25.31,10.19,12.79,20.71,26,37.39,32.85,12,4.48,22.59-.59,31.63-5.7a3.61,3.61,0,0,0,1.83-3.14v-9a3.62,3.62,0,0,0-1-2.46l-12.71-13.65,8.45-6.23h17.33a3.6,3.6,0,0,0,3.36-4.92l-10.49-26.9,21.54-10.11.16-.08c19.72-10.49,24.42-28.66,25.26-45,9.42,7.14,17.24,14,17.74,27.56l-19.43,5.43a3.63,3.63,0,0,0-1.77,1.13c-6.88,8-6.86,9.46-5.95,32.34l-8.76,16.2a3.6,3.6,0,0,0,0,3.39l8.81,16.84c-6.08,9.35-12.26,19-7.95,31.06a3.6,3.6,0,0,0,1.91,2.07l11.37,5.14A3.64,3.64,0,0,0,488,1022l18-12.7a3.63,3.63,0,0,0,1.48-2.37l6.87-41.83h5.11c1.59,5.92.37,12.07-.91,18.54-1.7,8.54-3.6,18.11,1.64,27.55-13.57,10.73-20.72,24.94-27.07,37.58a20.9,20.9,0,0,0-1.09,2.67,9.05,9.05,0,0,1-1.06,2.37c-13.14,16.28-26.52,32.71-40.69,50.1L439,1117.81a3.62,3.62,0,0,0-.74,1.57c-.22,1.14-.59,2.59-1,4.27-1.19,4.66-2.83,11-3,17.56-.4,12.8-.34,25.79-.28,38.36,0,8.93.08,18.15,0,27.21-.13,9.44,3.08,17.64,10.1,25.79a172.33,172.33,0,0,1,10.38,13.91c1,1.44,2,2.9,3.07,4.39l-22,16.54a3.63,3.63,0,0,0-1.44,2.89c0,.53,0,1.14-.08,1.78a25,25,0,0,0,.26,6.76,200,200,0,0,0,5.39,20.76c6,18.08,5.14,25.46-7.15,37v-22.53a3.48,3.48,0,0,0-.3-1.42c-5.42-12.64-14.33-12.09-20.23-11.72-1.15.07-2.23.13-3.22.12a3.52,3.52,0,0,0-2.29.76c-13.61,10.66-19.38,23.64-17.65,39.69,1.07,9.88,1.72,20,2.35,29.77.29,4.38.57,8.74.88,13.09a3.63,3.63,0,0,0,1.43,2.62l26.19,19.78a3.64,3.64,0,0,0,2.18.73q13,0,25.73.06c22,.08,42.83.16,64-.3,9.23-.19,16.56,1.65,22.46,5.65,15.41,10.45,32.31,14.61,51.67,12.69a51.21,51.21,0,0,1,5.86-.09c1.38,0,2.94.06,4.78.06a3.59,3.59,0,0,0,3.08-1.73l4.11-6.75a85,85,0,0,1,11.79-.53c8,0,15.53,0,23-5,12.15-8.09,23.93-11,35-8.55a3.61,3.61,0,0,0,3.23-.89l13.92-13a3.61,3.61,0,0,0,.72-4.37l-8.8-16.12,18.07-18.07,24,3.73c.57.59,1.19,1.2,1.84,1.84,2.24,2.19,5,4.92,5.78,7.68,3.6,13.3,9.68,27.83,27.53,34.66a8.65,8.65,0,0,1,3.85,3.24c.72,9.55,7.38,12.63,12.73,15.11,1.25.58,2.43,1.13,3.52,1.74a12.1,12.1,0,0,0,3.07,1.07c.4.1.85.2,1.34.35a3.61,3.61,0,0,0,4.63-3.47v-13.35a3.67,3.67,0,0,0-.52-1.88l-7.4-12.13,1.13.13c4.75.57,8.18,1,11.11,2.14,4.6,1.83,8.84,5.23,13.14,8.84,2.9,2.44,6.27,2.62,9,2.76,3.21.16,4.82.34,6.24,2.5,2.4,3.64,6.48,5.55,11.2,7.76,2.17,1,4.43,2.08,6.76,3.41a3.63,3.63,0,0,0,2.19.45l32.5-3.61c1.06.7,2.51,1.6,4,2.44,1.78,1,3.55,1.79,5.6,2.73.93.43,1.91.88,3,1.39a3.86,3.86,0,0,0,1.16.33l56.61,6.14a3.64,3.64,0,0,0,2.86-1c2.22-2.09,4.31-4.21,6.33-6.27,7.57-7.71,14.14-14.4,24.82-16.55l2.44,1.07c6.42,2.76,12.52,5.39,16.38,12.06-3.58,1.69-7.92,1.89-12.46,2.1-7.25.34-15.46.73-20.1,8.31-1.89,3.1-5.63,4.68-9.6,6.36-7,3-15.62,6.63-14.84,19.84a3.62,3.62,0,0,0,2.45,3.21l19.84,6.7,27.74,24.8a3.68,3.68,0,0,0,2,.9,166.67,166.67,0,0,0,19.59.55,127,127,0,0,1,18.1.62l-59.17,5.34-22.84-17.41a3.62,3.62,0,0,0-2.19-.74H915.84l-10.68-19.66,14.27-11a3.61,3.61,0,0,0,.39-5.39l-7.37-7.56a3.63,3.63,0,0,0-2.59-1.1h-10a3.86,3.86,0,0,0-3.08,1.72c-2.56,3.84-5.32,8-8.08,12.12-13.85,2.28-15.12,4.12-16.26,19a3.64,3.64,0,0,0,1,2.83c2.37,2.37,4.75,4.71,7.14,7,5.56,5.46,11.31,11.09,16.61,16.89,3.85,4.21,8.07,9.24,10.25,14.66,1.22,3,1.18,7.75-.11,12.65-.2.75-2.18,2.19-3.36,3l-.68.49-3.44-2c-3.75-2.18-7-4.06-10.21-6-3.44-2.1-6.84-4.28-10.43-6.58l-5-3.19a3.62,3.62,0,0,0-5.06,1.23L859,1523.46a3.62,3.62,0,0,0,.18,3.91c4.9,6.87,4.54,14.22,4.13,22.74-.25,5.09-.5,10.36.44,15.75a3.64,3.64,0,0,0,1.44,2.31l11.26,8.13a3.62,3.62,0,0,0,4.9-.63l15.4-18.6c6.23-1.52,8.68,1,12.3,4.77l.8.82c8,8.23,16.37,15.73,29.62,17.09,5.13.53,12.07,5.09,14.56,9.57,8.05,14.48,20.28,25,38.42,33,6,14,15,29.34,34.37,39.59l-4.92,66.49a3.63,3.63,0,0,0,3.6,3.88h16.28a3.58,3.58,0,0,0,2.55-1.06l8.32-8.32c6.9,3.62,14,.45,19.8-2.16,1.11-.5,2.2-1,3.26-1.43.62,1,1.22,2.06,1.81,3.08,2.57,4.43,5,8.61,8.79,11.67s8.28,4.37,13.14,5.85c1.23.38,2.49.76,3.75,1.18l-5,36.67a3.61,3.61,0,0,0,5.79,3.35l6-4.64c3.16-2.42,5.34-4.1,7.49-5.82s4.46-3.65,7-5.78l1-.86,11,13.63a3.58,3.58,0,0,0,2.81,1.35h28.3l9.8,19.21a3.66,3.66,0,0,0,2.29,1.85c.61.16,1.25.3,1.9.44a15.64,15.64,0,0,1,3.34,1,24.71,24.71,0,0,1,2.68,1.54,4.09,4.09,0,0,0,.56.45,4.17,4.17,0,0,0,2.24.71,3.38,3.38,0,0,0,1.52-.37c8.57-1.37,12.47-7.54,15.62-12.55,3.47-5.52,5.83-9.27,13-8.56l16.07,20.92a3.66,3.66,0,0,0,2.87,1.41h18.64a3.61,3.61,0,0,0,3.24-5.21l5.81-1.6a3.61,3.61,0,0,0,1.89-5.7c-6-7.75-5.71-14.51-5.33-22.33,0-.28,0-.56,0-.84,3.66.85,5.43,3.31,7.16,5.71a22.79,22.79,0,0,0,1.8,2.31l7,24.46a3.6,3.6,0,0,0,2.78,2.56c15.28,3,28.17-2.41,38.52-6.78,1.64-.7,3.25-1.37,4.81-2a3.64,3.64,0,0,0,1.58-1.21l13.06-17.76a3.63,3.63,0,0,0,.65-2.77l-4-22.6,15.1,19.56c2,4.66-.42,7.55-4.83,12.18-3.61,3.78-8.1,8.48-5.82,14.76a3.59,3.59,0,0,0,1.11,1.57l50.54,41.18a3.6,3.6,0,0,0,2.28.82h13.06a3.6,3.6,0,0,0,3-1.63l20.13-30.53,6,7.09L1427,1841.82a3.59,3.59,0,0,0,.93,4.08c1.6,1.42,3.06,3,4.48,4.47,5,5.27,10.14,10.73,20,9.35.46,0,2.37.11,7.91,5.06,10.58,9.46,22.8,13.64,36.31,12.41a22.75,22.75,0,0,1,18.49,6.88c6.16,6.38,12.88,6.62,18.81,6.82.88,0,1.78.06,2.67.11,13,14.21,28.66,29.47,50.23,34.58a3.68,3.68,0,0,0,2.78-.47l10.64-6.78,85.63,44.13a3.69,3.69,0,0,0,1.66.4h27.29a3.61,3.61,0,0,0,2.72-1.24l7.38-8.44a3.61,3.61,0,0,0,.61-3.76L1715,1924.18c8.83-7.16,19.17-14,30.31-14.55,13.89-.62,25.76-4,40.41-9.29,31.24-11.24,50.88-33.91,64.5-52.41a38.76,38.76,0,0,0,4.29-8.25c.45-1.07.89-2.12,1.36-3.09a3.62,3.62,0,0,0,.08-3c-1.26-3-2.69-5.74-4.08-8.4-3.33-6.41-6.21-11.94-5.88-18.78.2-4-3.11-7.06-6.31-10.07a48.63,48.63,0,0,1-3.44-3.46,3.62,3.62,0,0,0-4.32-.91l-35.42,17.13a3.63,3.63,0,0,0-2,3l-.67,11.94-18,4-19-3.86a3.62,3.62,0,0,0-3,.78c-10,8.44-19.11,18.49-18.76,34.77,0,.79-1.73,2.7-2.62,3.67-5.29-3-8.59-8-12.05-13.28-4.34-6.57-8.82-13.36-17.42-16.83a3.59,3.59,0,0,0-2.75,0c-1.59.67-3.32,1.25-5,1.82-4.06,1.38-8.26,2.8-11.52,5.69a10.54,10.54,0,0,1-10.86,2.09,221.58,221.58,0,0,0-24-7.27c-12.43-3.26-25.29-6.63-36.88-13.5l-.83-.49c-10.59-6.28-19.83-11.76-24.1-19.53l8.53-12c2,.91,4,1.68,6,2.42,6.29,2.39,10.17,4.09,11.16,7.59,2.55,9,8.81,11.73,13,13.51a14.87,14.87,0,0,1,3.6,1.9,3.61,3.61,0,0,0,3.09.9c17.27-3.13,24.06-15.39,30-26.21,3.3-6,6.44-11.65,11-15.54l8.47,4.35-5.21,39.12a3.61,3.61,0,0,0,2.91,4,87.12,87.12,0,0,0,13.24,1.25c6.41.27,12,.5,17.54,3.19,8.26,4,16.63.68,24-2.22a60.68,60.68,0,0,1,8.91-3,3.6,3.6,0,0,0,2.51-2l5.58-12a3.62,3.62,0,0,0-1-4.33l-16.82-13.57c0-1.05,0-2.07,0-3.07-.1-6.57,0-9.77,4.32-12.48h16c11.69,9.4,24.87,8.89,36.54,8.45a95.9,95.9,0,0,1,13.38.07,3.56,3.56,0,0,0,2.54-.71c9.81-7.39,9.16-16.25,8.63-23.38a28.28,28.28,0,0,1,.11-8,3.61,3.61,0,0,0-1-3.35c-2.15-2.15-4.19-4.57-6.16-6.9-4.67-5.55-9.09-10.79-15.21-13.19-9.77-3.84-11.57-10.91-13.85-19.86-.42-1.66-.85-3.33-1.33-5a3.7,3.7,0,0,0-.92-1.56c-19.94-19.93-27.86-28.12-29.21-30.9l8.68-13.63c14.45,5.35,23.43,13.72,27.42,25.54,3.59,10.67,9,20.34,17.09,30.42,1.25,1.56,3,2,4.73,2.35.72.16,1.54.35,2.43.63a3.62,3.62,0,0,0,4-1.29l9.41-12.6,3.84.21c5.74,12.3,5.55,25.31,5.36,37.91-.07,4.86-.14,9.88.13,14.77a3.56,3.56,0,0,0,.52,1.68c6,9.78,14.64,9.14,21,8.66a32,32,0,0,1,5.65-.11,3.62,3.62,0,0,0,2.88-1l14.23-13.35a3.78,3.78,0,0,0,.93-1.4c1-2.77,2-5.23,2.88-7.39,1.87-4.61,3.35-8.25,3.94-12.28a78.4,78.4,0,0,0,.39-14.39c0-1.22-.09-2.37-.11-3.46,3.95-6.14,8.57-5.91,15.42-5.57,4.11.21,8.77.44,13.44-1.11a3.6,3.6,0,0,0,2.06-1.75l5.84-11.08a3.58,3.58,0,0,0,.25-2.76c-1.21-3.83-3.8-6.6-6.09-9-3.56-3.82-5.17-5.78-3.56-9.56,18.33-2.42,32.71-14.47,39.77-33.36l24-21.42c26.2,1.58,42-15,57.33-31l.36-.37h.62c22.34,0,43.14-9.18,63.48-28,4.94-4.58,9.7-9.45,14.31-14.16,4-4.13,8.16-8.36,12.42-12.39-3.26,6.66-4.54,13.86-5.8,20.88a116.09,116.09,0,0,1-3.39,15l-36.25,15.58a3.64,3.64,0,0,0-2.12,2.63,45,45,0,0,0-.45,10.38c.22,6.29.18,10.13-3.06,13l-.65-.67c-3.74-3.84-8.87-9.09-19.25-6.31a3.52,3.52,0,0,0-1.62.93L2033.61,1617l-14.41-5a3.6,3.6,0,0,0-3.42.59c-7.55,6-12.79,13.34-17.85,20.45-6.33,8.88-11.79,16.55-20.22,19.19a3.56,3.56,0,0,0-2,1.59l-13.35,22.32c-12.15-1.73-20.42,3-27,7.93a3.63,3.63,0,0,0-1.38,3.51c1.62,9.16,8,13,13.63,16.42,3.79,2.29,7.4,4.47,9.68,8.17l-4.45,8.57c-2.53.1-5,.36-7.44.61-4.77.49-10.17,1.05-11.92-.44-8-6.82-14.64-3.85-19.45-1.69a20.23,20.23,0,0,1-5.2,1.84c-12.9,1.79-17.81,11.09-20.64,19l-.11.31c-2.15,6-4.58,12.81-8.66,16.71-12.94,12.38-13.87,27.67-13.07,41,.14,2.32.11,4.7.07,7.46,0,1.42,0,2.93,0,4.57a3.62,3.62,0,0,0,1.62,3l22.86,15.12a3.61,3.61,0,0,0,4,0l20.65-14h17.55l26.67,22.71a3.64,3.64,0,0,0,2.9.82l36.1-5.59,5.87,8a3.62,3.62,0,0,0,2.91,1.47H2025l3.38,5.39-17.35,9.66a3.6,3.6,0,0,0-.8,5.7c11,11,22.8,10.78,33.22,10.57a84.24,84.24,0,0,1,8.61.09,3.65,3.65,0,0,0,2.69-.9,27.34,27.34,0,0,1,5.9-3.58c5.91-3,14-7,11.09-20a3.67,3.67,0,0,0-.77-1.54l-12.6-14.9,24.43-13.45,7.72,20.61a3.6,3.6,0,0,0,4.57,2.14l13.92-4.83,24.32,20-16,12.84a3.62,3.62,0,0,0-1.28,2.1c-1,4.87-3.33,9.68-5.61,14.33-3.68,7.52-7.48,15.3-5.39,23.43a112.36,112.36,0,0,1-5.2,12.71c-5.64,12.28-11.47,25-.1,40a3.59,3.59,0,0,0,3.19,1.42,103.31,103.31,0,0,1,11.83-.06c11.23.35,23.91.76,34.58-9.07H2174a3.66,3.66,0,0,0,2.11-.68c19.47-14,25.94-31.61,21-57.2a3.56,3.56,0,0,0-1-1.87l-14.93-14.93,4.07-6.16c10.9,7.53,12.48,7.67,24.17,6.77a3.63,3.63,0,0,0,3-2c1.85-3.77,4.06-7.56,6.19-11.22,6-10.39,12.27-21.12,12.54-33.83l8.3-9.7h5.88l3.86,7.47c-4.64,14-12.45,27.91-24.5,43.55l-.58.75c-3.28,4.17-11,14-2.13,23.6a3.62,3.62,0,0,0,3.74,1l15.64-4.84,8,12.43-9.18,8.54h-16.78a3.61,3.61,0,0,0-2.81,5.88l.89,1.09-10,4.73a3.61,3.61,0,0,0-.48,6.27l12.53,8.37-12.07,12.09a3.61,3.61,0,0,0-1.06,2.55v23.83a3.6,3.6,0,0,0,1.44,2.89l11.12,8.34c-7,9.42-17.33,9.39-28.21,9.36h-2.87a3.62,3.62,0,0,0-3,1.68c-1.73,2.72-3.39,5.3-5,7.79-3.36,5.24-6.54,10.19-9.56,15.17-6.83,11.29-16.37,16.52-29,16-5-.21-10-.14-13.7-.08l-3.34,0a3.61,3.61,0,0,0-2.22.76l-55.63,43.37-20.44,4.7-21.63-8a3.61,3.61,0,0,0-3.12.3c-10.16,6.15-14.39,16-18.48,25.59-1.4,3.28-4.72,5.18-8.56,7.37-5.69,3.26-12.77,7.3-14.52,17.44a3.64,3.64,0,0,0,1.82,3.79l11.54,6.3a3.59,3.59,0,0,0,1.73.44h12.21a3.6,3.6,0,0,0,2-.62l19-12.9c10,.38,22.11.48,31.61-8.94,4.51-.19,9.18-.12,13.72,0,19.57.32,39.79.65,54.82-18.93l23.58,5.83a3.62,3.62,0,0,0,3.08-.65l46.22-35.91c1.36.29,3,.65,4.73,1.06-1.1,1-2.31,2.06-3.56,3.14-4.8,4.13-10.24,8.81-12.45,15-.78,2.19-2.81,4.29-5,6.51-4.37,4.51-10.35,10.69-4.9,20a3.58,3.58,0,0,0,2.06,1.62l19.4,5.92v12.29l-8,4.22c-31.64-23.42-47-13.8-66.39-1.68l-.37.23a3.6,3.6,0,0,0-1.68,2.7,3.64,3.64,0,0,0,1.12,3c1.1,1,2.16,2.21,3.28,3.47,2.71,3,5.51,6.15,9.36,7.75,17.5,7.28,25.74,22.23,31.49,35.89a53.68,53.68,0,0,0,5.86,9.84c1,1.41,2,2.87,2.95,4.36a3.62,3.62,0,0,0,5.24.94c9.46-7.23,5.63-15.06,3.1-20.24-1.32-2.7-2-4.34-2-5.58,4.91,3.59,8.73,8.55,12.74,13.75,6,7.82,12.28,15.92,23,20.72a3.58,3.58,0,0,0,1.48.32h14.1l6.37,9.25c-6.68-1.58-12.65-4.64-18.48-7.63-6.75-3.46-13.74-7-21.63-8.21a3.67,3.67,0,0,0-2.94.88l-11.52,10.35a3.61,3.61,0,0,0-.35,5c1.69,2,3.32,4.3,4.89,6.51,3.79,5.36,7.72,10.89,13.39,13.76,9.25,4.67,16.18,10.78,19.52,17.2,7.31,14,19,23,30.22,31.71,6.8,5.25,13.23,10.21,18.79,16.22,3.4,3.66,9.12,6.31,17,7.88l5.36,1.09c10.2,2.11,20.77,4.25,31.9,4.13,8-.12,16.06,1.4,24.56,3,3.52.66,7.15,1.34,10.79,1.91,1.19.67,2.43,1.3,3.63,1.9,5.5,2.8,10.26,5.21,11.51,11.73.69,3.59,3.83,6,6.6,8.16.83.65,1.62,1.25,2.26,1.83a6.35,6.35,0,0,0,4.35,1.37c.21,0,.43,0,.62,0a3.12,3.12,0,0,0,.52,0,3.63,3.63,0,0,0,2.72-1.23l5.15-5.89a3.56,3.56,0,0,0,.86-1.91c.75-5.72-2.93-9.19-5.62-11.73-2.49-2.35-3.38-3.37-3-4.84,4,.28,6.93,2.95,11,7,4.4,4.39,9.38,9.36,17.46,9.78a3.56,3.56,0,0,0,3.5-2.17l12.42-28.6a84.49,84.49,0,0,0,8.7.06c6.79-.19,12.66-.35,17.67,3.78a3.61,3.61,0,0,0,4.18.3c13.43-8.2,26-3.42,38.13,1.2,1.71.66,3.41,1.3,5.07,1.9a3.59,3.59,0,0,0,2.4,0c2.69-.92,5.18-2,7.58-3,4.58-2,8.55-3.66,12.2-3.66h.65c13.84,0,23.56-7.18,32.22-14.9l6,1.23c6,1.21,12.25,2.46,18.29,4.18l.48.13c18.24,5.19,19,5.2,40.65.15,1.8-.42,4.35.14,6.81.69.76.17,1.52.34,2.27.48,1.79.35,3.57.84,5.46,1.36a68.6,68.6,0,0,0,6.92,1.65c15.67,2.65,29.9-1.86,43.66-6.22a188.63,188.63,0,0,1,18.48-5.18c7-1.45,15-3.1,21-7.55,10.21-7.5,21.44-13.82,32.29-19.92,4.74-2.67,9.64-5.43,14.43-8.27,13-7.72,27-18.09,32.1-36.38,1.38-5,4.12-9.14,5.28-9.51,10.06-2.45,13.56-9.88,16.64-16.45,1-2.14,2.06-4.37,3.31-6.43a3.6,3.6,0,0,0-1-4.8L2828,2178.65a3.61,3.61,0,0,0-3.45-.42c-2.52,1-6.18.79-10.42.54-6.26-.37-14-.83-22.22,2.55-12.74,5.26-25.92,10.7-37.91,20.67-7.7,6.39-14,9.53-21.84,6.15L2745,2194a3.62,3.62,0,0,0,.93-2.68l-.75-10.44a3.61,3.61,0,0,0-3.6-3.35h-12.71a3.62,3.62,0,0,0-2.82,1.34l-9.89,12.31-6.82-.68c.08-.19.16-.39.23-.58a67.14,67.14,0,0,0,3-9,57.37,57.37,0,0,0,1.15-8.91c.09-1.24.18-2.5.31-3.76a3.61,3.61,0,0,0-3.61-4c-20.47.12-22.37.79-36.91,14.17-34.88,16.05-66.8,20.38-100.57,25l-.27,0c-3.39-2.94-4.26-5.78-2.82-9.31,28.28-.27,52-9.23,70.69-26.65,8.88-8.3,19.33-13.35,29.42-18.23l2.06-1,23.24,10a3.6,3.6,0,0,0,3.15-.15c13.78-7.49,11.75-18.79,11-23a3.62,3.62,0,0,0-.74-1.63l-8.54-10.62a3.58,3.58,0,0,0-1.68-1.16l-15.14-5c6.21-1.7,11.34-3.08,16.52-4.31a7.36,7.36,0,0,1,2.36.28l2.12,6.25a3.61,3.61,0,0,0,3.42,2.45h6.37a3.62,3.62,0,0,0,3.6-3.29l1.7-19,1.55.47,0,26.15a3.61,3.61,0,0,0,1.45,2.89l8.31,6.23a3.62,3.62,0,0,0,4.72-.34l8.48-8.48h21.43c12.42,12.92,16.69,22.84,20.36,46.57a3.61,3.61,0,0,0,4,3l6.86-.79a3.6,3.6,0,0,0,3.2-3.58v-44.93l8.47-8.47a3.57,3.57,0,0,0,.88-3.67c-2.23-6.83,1.51-12,5.83-18,4-5.62,8.58-11.94,8.1-20.2l14.21-14.2a3.66,3.66,0,0,0,.83-1.31l6.79-18.44a3.62,3.62,0,0,0-.54-3.46c-4.55-5.85-4-12.64-3.53-19.21a40.51,40.51,0,0,0,0-10.1,3.26,3.26,0,0,0-.27-.87c-1.28-2.76-2.29-5.28-3.28-7.71-2-5-3.71-9.22-6.64-12.77-3.23-3.91-3.77-8.51-4.39-13.85-.54-4.56-1.1-9.28-3.46-13.86a11.87,11.87,0,0,1,2.85-14.14c3.64-3.19.76-11.09-.65-14.34-6.59-15.2-18.38-25.55-34.12-30a3.66,3.66,0,0,0-1.58-.08c-12.33,2.1-19.48,9.35-26.4,16.37-2.14,2.17-4.36,4.42-6.7,6.46a3.63,3.63,0,0,0-.89,4.26l6.83,14.53a3.61,3.61,0,0,0,3.27,2.07h31.85c5.18,3.81,5.17,8.12,4.28,15.48l-23.79,6.43a3.64,3.64,0,0,0-1.6.92l-10.16,10.06a3.59,3.59,0,0,0-1.07,2.57v6.8c-6.86.22-12.64-2.58-19.13-9.17v-16.86a3.62,3.62,0,0,0-2-3.26l-12.39-5.92a3.62,3.62,0,0,0-4.58,1.28l-7.1,10.88c-.71-.26-1.41-.53-2.09-.8-3.49-1.33-7.09-2.71-10.89-2.91-4.56-.23-7.22-.74-9-3.88l27.7-10a3.61,3.61,0,0,0,1.34-5.94L2707,1921.17a3.62,3.62,0,0,0-2-1l-8.86-1.53,11-8.71,3.24,2.25a3.63,3.63,0,0,0,4.11,0l16-11a3.61,3.61,0,0,0,1.56-3v-8.66a3.67,3.67,0,0,0-.92-2.42c-6.89-7.65-15.51-13-28-17.38a105.89,105.89,0,0,0-12.39-3.26c-7.37-1.61-14.34-3.14-20.69-7.5-5.88-4-15.09-2.27-23.22-.69-1.6.3-3.17.61-4.65.85a49,49,0,0,0-10.46,3.37,41,41,0,0,1-9.3,3,430.85,430.85,0,0,0-44.51,8.91,50.44,50.44,0,0,0,12.38-8.25c4.62-4,9.24-6.43,12.38-6.44,8.2.09,16.23-1.44,24-2.9,10.31-1.94,20-3.76,30.11-2.17a55,55,0,0,0,11.25.29c1.45-.06,2.86-.12,4.2-.12a3.65,3.65,0,0,0,2.63-1.13l5.45-5.76a3.61,3.61,0,0,0-.06-5l-20.4-20.5a3.66,3.66,0,0,0-1.47-.9l-13.09-4.17a3.62,3.62,0,0,0-3.2.5l-3.41,2.45-26.45-13.14a3.61,3.61,0,0,0-3.38.09c-19,10.74-23.66,11.93-34.39,2.29,13.33-2.57,26.08-4.84,39.58-4.84h.16c16.8,0,33.56,3,47.14,5.41,7.36,4.68,12,11.8,16.87,19.33,6.47,10,13.17,20.29,26.7,26a3.6,3.6,0,0,0,1.89.24l27.35-3.75,6.31,13.94a3.63,3.63,0,0,0,3.29,2.12h14.87a3.59,3.59,0,0,0,2.63-1.14l12.5-13.28a3.61,3.61,0,0,0,0-5c-7.67-8.14-12.29-17.86-16.75-27.25a149.87,149.87,0,0,0-9.72-18.27,3.61,3.61,0,0,0-4.62-1.26l-9.74,4.82-8.41-16.28a3.62,3.62,0,0,0-1.39-1.46c-3.82-2.24-7.44-4.41-10.93-6.49-7.55-4.51-14.68-8.78-21.95-12.66s-14.69-7.42-22.6-11.18c-3.69-1.75-7.51-3.57-11.53-5.52a3.37,3.37,0,0,0-1.24-.34,91.15,91.15,0,0,0-13.31.1c-8.74.48-17.77,1-24.7-3.39l-11-16.21c3.51-1.82,6.46-.27,10.78,2.34,1,.58,2,1.18,3,1.7,18.24,9.46,29.51,13.68,48.15,13.69h34.42c.27.32.54.66.82,1,1.7,2.13,3.61,4.53,6.56,5.16,11.49,2.44,20.44,9.14,29.93,16.24,1.77,1.33,3.54,2.65,5.33,4,10.09,7.31,20.18,7.4,30,.25,3.42-2.5,7.66-4.26,12.14-6.13,1.73-.71,3.49-1.44,5.29-2.25,1.4.65,2.85,1.3,4.32,2,4.66,2.1,9.47,4.28,14.13,6.74a78,78,0,0,1,7.3,4.64c4.87,3.36,9.91,6.82,15.74,7.82,7.6,1.29,12.7,5.15,19,11.39a3.6,3.6,0,0,0,5.09,0l14.09-14,31.88-7.79a3.62,3.62,0,0,0,1.9-5.85c-16.64-19.53-23.05-42.24-19.6-69.42a3.62,3.62,0,0,0-1.2-3.17l-8.14-7.15a3.62,3.62,0,0,0-4-.5l-17.41,9c-1-.35-2-.65-2.93-.94-2.37-.72-4.84-1.46-5.67-2.52a115,115,0,0,1-9.33-14.8c-1.28-2.27-2.58-4.57-4-6.88a3.6,3.6,0,0,0-3.11-1.77c-2,0-4.15-.08-6.38-.17a83,83,0,0,0-16,.42c-11.92,1.86-22.41-4.45-29.27-9.36-11-7.91-20.36-19-29.38-29.75-1.36-1.62-2.71-3.24-4.07-4.84-4.52-5.32-8.31-11.39-12.32-17.81-1.68-2.68-3.41-5.44-5.24-8.23l.11-1.74c.17-2.68.36-5.58.57-8.56,4.11,4.51,7.93,9.35,11.91,14.4,11,13.87,22.27,28.21,40.89,36.41a3.63,3.63,0,0,0,1.45.31h27.11l62.42,36.15a3.59,3.59,0,0,0,4.09-.33l8.1-6.64a3.6,3.6,0,0,0,1-4.4c-1.66-3.33-4.19-5.67-6.63-7.92-2.72-2.51-5-4.61-5.83-7.76,9-.14,16.18,3.36,19.78,9.85,4.88,8.83,12.16,14.3,19.21,19.59,5.85,4.4,11.37,8.54,14.9,14.26a3.62,3.62,0,0,0,3.33,1.7l10.83-.77a3.62,3.62,0,0,0,3.36-3.6V1662.9a3.63,3.63,0,0,0-.75-2.2c-3.37-4.41-8.41-6.16-13.28-7.85-6.77-2.36-11-4.12-12.2-9.95,12.39-2.68,23.79,1.86,34.84,6.27,1.89.75,3.75,1.49,5.6,2.19a3.59,3.59,0,0,0,2.94-.17l12.83-6.69a3.61,3.61,0,0,0,1.94-3.2v-10.81a3.62,3.62,0,0,0-1.19-2.69c-1.08-1-2.29-2-3.57-3.14-3.13-2.73-6.67-5.81-9.94-9.12-3.62-3.67-7-7.53-10.24-11.25-1.35-1.55-2.66-3-3.91-4.44a3.63,3.63,0,0,0-3.1-1.18c-12.42,1.39-22.11.73-29.06-7.06-3.25-3.64-5.83-8-8.56-12.71-.85-1.44-1.71-2.91-2.61-4.39l2.81-3.12.09.07c1.93,1.63,3.77,3.19,6.3,3,9.57-.53,17.45,2.48,24.78,9.46,1.95,1.86,4.51,2.34,6.76,2.75a9.76,9.76,0,0,1,3.25.94c5.75,4.43,12.05,4.48,17.6,4.53a30.13,30.13,0,0,1,8.73.87c9.4,3,18.77,5.49,30,3.38a3.63,3.63,0,0,0,2.41-1.66l5.62-9.13a3.6,3.6,0,0,0-.54-4.46c-6.81-6.73-14.24-8.56-20.79-10.17a43.8,43.8,0,0,1-8.09-2.52l-5.92-5.9,10.6-4a3.61,3.61,0,0,0,2.32-3.13c.47-6.82-.75-11.74-3.71-15-2.53-2.79-6.2-4.28-10.92-4.44-4.44-.14-6.26-2.06-7.74-6l2.55-3.41,18,6.23a3.63,3.63,0,0,0,3.9-1,31.93,31.93,0,0,1,3.21-3c4.73-4.06,11.87-10.2,6.47-22.14a3.63,3.63,0,0,0-3.29-2.12h-13.84c-12.13-4.52-18.06-8.58-21.69-15.12l6.56-5.27c7.82-1.62,14.13,3.09,21.4,8.53a105.41,105.41,0,0,0,8.86,6.18,3.62,3.62,0,0,0,4.94-1.2c4.54-7.35,10.27-10.06,18.43-8.66a31.13,31.13,0,0,0,4.32,4.41c2.67,2.39,5,4.45,5.78,8.17,1.39,6.54,9.75,11.87,15,13.85,10,3.77,17,10.82,24.43,18.29l3.13,3.13a3.62,3.62,0,0,0,4.1.69l11.23-5.4a3.58,3.58,0,0,0,1.83-2c8.82-24.16,8-31.78-5.57-51-7.48-10.6-14.11-22-20.52-33.11-2.47-4.27-5-8.66-7.58-13l2.89-5.62,19.27,10.4c2.15,18.59,11.14,29.4,27.42,33l.11.25,0,.09-5.24,14.48a3.62,3.62,0,0,0,1,3.92c.79.7,1.47,1.4,2.13,2.08a13.83,13.83,0,0,0,5,3.79,88.54,88.54,0,0,0,13.58,3.54c7.07,1.45,13.75,2.81,19.72,6.86,4,2.74,9.63,2,14.12,1.47a37.53,37.53,0,0,1,4.18-.39,3.56,3.56,0,0,0,1.69-.42l25.93-13.69,42.81,5.74a3.6,3.6,0,0,0,4.09-3.58v-11.87a3.58,3.58,0,0,0-.88-2.36L3225,1467c4.51-1.13,8.33-.53,13.26.93,11,3.28,18.49,3.51,23.55.74,4-2.18,7.57-2.22,11.73-2.27,1.22,0,2.45,0,3.7-.1,5.57-.3,11.31-.23,16.87-.17,2.45,0,4.9.06,7.34.06a3.62,3.62,0,0,0,1.82-.49c11.67-6.79,18.62-17.12,25.33-27.12,4.31-6.41,8.39-12.49,13.56-17.51,14.14,1.19,25.87-4.24,32.41-15,4.52-7.45,10.33-13.41,16.48-19.72,3-3.11,6.16-6.33,9.11-9.73a3.62,3.62,0,0,0,.88-2.37v-11.85c6.84-7.12,13-12.59,22.07-14,5.35-.81,10.28-4.71,12.87-7.8a77.17,77.17,0,0,0,7.62-11.64c.42-.74.83-1.47,1.24-2.17H3462l3,3c-2.19,8.2-8.76,12-16.28,16.25-2.72,1.56-5.54,3.17-8.15,5-10.33,7.39-19.38,14.59-25.67,28.05a3.62,3.62,0,0,0,3.11,5.13c1.67.08,3.29.32,4.87.55,3.63.53,7.06,1,9.68-.94s5.13-3.76,7.67-5.57c9.94-7.13,20.22-14.49,27.8-25.1,1.12-1.57,2.16-3.24,3.17-4.86,2.41-3.88,4.69-7.55,7.64-9.3,11.4-6.74,20.38-16,29.07-25,4.92-5.09,10-10.35,15.47-15.06,14.21-2.36,16.08-3.51,16.58-17.59A3.62,3.62,0,0,0,3538.84,1278.65ZM507.12,563c-3.11-4.06-2.89-8.24-2.64-13.07a49.47,49.47,0,0,0,.07-5.85l5.55-4.21c5.95,3.43,5.79,8,5,14.84l-7.39,9.32A3.44,3.44,0,0,0,507.12,563Zm2958,781.54c-1,1.6-1.92,3.1-2.9,4.48-6.89,9.63-16.24,16.33-26.14,23.42-2.53,1.82-5.15,3.69-7.7,5.6a17.74,17.74,0,0,1-4.39-.36h-.09c5.41-9.11,12.73-14.83,20.93-20.69,2.31-1.65,4.85-3.1,7.54-4.64,5.29-3,11-6.3,15.12-11.51C3466.65,1342.07,3465.87,1343.32,3465.1,1344.56Zm66.62-55c-1,1-5,1.64-10.47,2.54a3.66,3.66,0,0,0-1.75.81c-6,5.1-11.47,10.74-16.74,16.19-8.74,9-17,17.56-27.56,23.8a22.29,22.29,0,0,0-6.26,5.91,25.75,25.75,0,0,0,3.61-9.45,3.6,3.6,0,0,0-1-3.19l-5.47-5.46a3.58,3.58,0,0,0-2.55-1.06h-20.8a3.59,3.59,0,0,0-3.07,1.72c-.78,1.26-1.57,2.65-2.4,4.11a71,71,0,0,1-6.87,10.56c-2.23,2.67-5.78,4.9-8.42,5.3-11.76,1.79-19.28,8.84-27.21,17.18a3.59,3.59,0,0,0-1,2.49v11.94c-2.57,2.89-5.3,5.69-7.95,8.42-6.16,6.32-12.53,12.86-17.47,21-5.28,8.69-15.15,12.85-27.08,11.43a3.59,3.59,0,0,0-2.86.91c-6.38,5.8-11.2,13-15.86,19.91-6.36,9.48-12.39,18.46-22.14,24.42-2.09,0-4.17,0-6.26-.06-5.67-.07-11.54-.14-17.35.18-1.15.06-2.27.07-3.4.08-4.47.06-9.55.12-15.1,3.16-2.19,1.2-7.08,1.94-18-1.32-6.3-1.87-13.27-3.33-23,1.09a3.62,3.62,0,0,0-1.23,5.66l14.43,16.63v6.39l-39.86-5.35a3.72,3.72,0,0,0-2.17.39l-26.21,13.84c-1.3.06-2.69.24-4.15.42-3.29.41-7.37.93-9.16-.28-7.16-4.85-14.87-6.43-22.32-8a83.14,83.14,0,0,1-12.5-3.23,10.22,10.22,0,0,1-2.31-2l-.72-.73,4.93-13.63a3.62,3.62,0,0,0-.22-3,8.72,8.72,0,0,1-.38-.9c-.62-1.56-1.56-3.92-4.1-4.41-14.31-2.73-21.66-11.87-23.15-28.76a3.58,3.58,0,0,0-1.88-2.86l-24.19-13.06a3.62,3.62,0,0,0-2.79-.27,3.58,3.58,0,0,0-2.14,1.8l-5.49,10.69a3.62,3.62,0,0,0,.12,3.52c2.87,4.76,5.76,9.74,8.55,14.56,6.49,11.2,13.2,22.79,20.86,33.65,12,17,12.72,22.07,5.19,43l-7.59,3.65-1.28-1.29c-7.64-7.69-15.54-15.64-27-20-4.85-1.82-10-6-10.52-8.6-1.28-6-5-9.37-8-12a18.57,18.57,0,0,1-3.85-4.11,3.65,3.65,0,0,0-2.34-1.7c-10.64-2.33-19.17.57-25.42,8.63-1.85-1.26-3.66-2.62-5.42-3.94-8.23-6.15-16.73-12.52-28.24-9.58a3.75,3.75,0,0,0-1.37.68l-9.46,7.59a3.63,3.63,0,0,0-1.05,4.27c5,11.43,14.28,16.77,27.62,21.68a3.58,3.58,0,0,0,1.25.22h12c1.6,5.19-.89,7.67-5.42,11.56-.73.63-1.48,1.27-2.19,1.93l-18.33-6.34a3.6,3.6,0,0,0-4.07,1.25l-5.27,7.05a3.57,3.57,0,0,0-.55,3.25c1.94,6.13,5.24,12.44,15,12.75,2.72.09,4.61.77,5.79,2.06s1.94,3.92,1.94,7.41l-13.57,5.18a3.61,3.61,0,0,0-1.27,5.93L2978,1574a3.6,3.6,0,0,0,.9.66,45.52,45.52,0,0,0,10.16,3.34c5.15,1.27,10.46,2.58,15.31,6.41l-3.17,5.16c-8.93,1.31-16.6-.78-24.93-3.43-3.62-1.15-7.3-1.18-10.86-1.21-5,0-9.42-.07-13.24-3a14.17,14.17,0,0,0-6.35-2.32,9.66,9.66,0,0,1-3.09-.87c-8.65-8.24-18.39-12-29.75-11.48a17.85,17.85,0,0,1-1.67-1.32c-.84-.71-1.88-1.58-3.1-2.43a3.61,3.61,0,0,0-4.75.55l-6.89,7.65a3.61,3.61,0,0,0-.35,4.36c1.36,2.14,2.66,4.35,3.91,6.49,2.92,5,5.68,9.69,9.41,13.87,9.07,10.18,21.81,10.75,33.39,9.62.86,1,1.73,2,2.63,3,3.17,3.63,6.76,7.74,10.54,11.57,3.46,3.5,7.11,6.69,10.33,9.49l2.29,2v7l-9.44,4.92c-1.32-.51-2.64-1-4-1.57-12.45-5-26.56-10.6-42.52-5.71a3.61,3.61,0,0,0-2.55,3.61c.6,13.47,9.91,16.71,17.39,19.31,3.59,1.25,7,2.44,9.17,4.58v29.49l-5.37.39c-4.19-5.9-9.92-10.21-15.48-14.38-6.74-5.06-13.1-9.84-17.23-17.31-5.45-9.85-16.83-14.83-30.44-13.31a3.61,3.61,0,0,0-3.2,3.45c-.34,8.44,4.55,13,8.47,16.57a37.06,37.06,0,0,1,3.49,3.49l-3.65,3-61.08-35.39a3.62,3.62,0,0,0-1.81-.49h-27.32c-16.56-7.52-26.71-20.37-37.44-34a207.12,207.12,0,0,0-16.48-19.22,3.61,3.61,0,0,0-4.76-.28,5.24,5.24,0,0,1-.53.34,4.8,4.8,0,0,0-2.63,3.66c-.39,4.76-.69,9.5-.95,13.68l-.19,2.94a3.66,3.66,0,0,0,.59,2.23c2,3.06,3.95,6.12,5.8,9.09,4.16,6.65,8.08,12.93,12.94,18.66l4.05,4.8c9.31,11.09,18.93,22.55,30.71,31,7.88,5.65,20,12.89,34.58,10.63a77.49,77.49,0,0,1,14.63-.34c1.52.06,3.06.12,4.6.16,1,1.67,1.92,3.34,2.85,5a121.4,121.4,0,0,0,9.94,15.72c2.24,2.84,5.81,3.92,9.26,5a39.81,39.81,0,0,1,3.87,1.3,3.59,3.59,0,0,0,3-.13l16.65-8.61,4.85,4.27c-2.89,26.07,3.12,49.11,17.88,68.6l-27.35,6.68a3.7,3.7,0,0,0-1.69.95l-12.28,12.22v0c-6.11-5.7-12-9.49-20.26-10.9-4.25-.73-8.43-3.61-12.86-6.65a80.29,80.29,0,0,0-8-5.07c-4.86-2.57-9.78-4.79-14.54-6.94-2-.89-3.9-1.76-5.76-2.63a3.6,3.6,0,0,0-3.06,0c-2.18,1-4.39,1.94-6.53,2.82-4.89,2-9.51,4-13.63,7-7.29,5.31-13.91,5.23-21.48-.26-1.77-1.28-3.51-2.59-5.25-3.89-9.7-7.26-19.72-14.76-32.71-17.51a11.89,11.89,0,0,1-2.46-2.61,31.85,31.85,0,0,0-2.31-2.68,3.61,3.61,0,0,0-2.55-1h-36c-17.24,0-27.34-3.8-44.83-12.87-.78-.41-1.64-.93-2.54-1.47-4.83-2.92-12.91-7.81-21.9.3a3.6,3.6,0,0,0-.56,4.71l13.4,19.7a3.65,3.65,0,0,0,1,1c9,6.13,20,5.52,29.71,5a93.16,93.16,0,0,1,11.6-.18c3.82,1.85,7.46,3.59,11,5.26,7.83,3.72,15.23,7.24,22.29,11s14.18,8,21.66,12.49c3.23,1.93,6.57,3.93,10.08,6l9.56,18.51a3.6,3.6,0,0,0,4.81,1.58l10-4.94c2.77,4.62,5.1,9.54,7.55,14.69,4.26,9,8.65,18.24,15.74,26.57l-9.16,9.73h-11l-6.46-14.27a3.6,3.6,0,0,0-3.78-2.09l-29,4c-10.89-4.88-16.55-13.6-22.54-22.83-5.23-8.06-10.64-16.39-19.73-21.92a3.66,3.66,0,0,0-1.24-.47c-14-2.5-31.37-5.62-49.09-5.65H2614c-15.25,0-29.92,2.84-44.1,5.58l-3.73.72a3.61,3.61,0,0,0-1.86,6.11c16.8,16.65,23.19,17.49,46.36,4.6l26.69,13.25a3.6,3.6,0,0,0,3.71-.3l3.7-2.65,10.53,3.36,17.3,17.39-2,2.11c-1,0-2,.07-3,.11a50,50,0,0,1-9.8-.21c-11.3-1.79-22.12.24-32.58,2.2-7.6,1.43-14.8,2.78-22.17,2.78h-.51c-6.72,0-13.6,5.15-17.11,8.23-7.64,6.71-14.47,9.63-22.84,9.78-3.39,0-6.19,2-9.73,4.34-1.68,1.14-3.58,2.43-5.83,3.72a3.61,3.61,0,0,0,1.45,6.73c2.23.21,4,.49,5.59.73,2.93.45,5.24.81,7.57.15,23.63-6.61,43.23-10.91,61.71-13.53a46.51,46.51,0,0,0,11-3.44,43,43,0,0,1,8.92-2.93c1.54-.26,3.17-.57,4.84-.89,6.4-1.24,14.37-2.78,17.76-.45,7.51,5.16,15.5,6.91,23.24,8.61a97.81,97.81,0,0,1,11.54,3c10.67,3.75,18.16,8.22,24.05,14.4v5.34l-12.35,8.48-3.4-2.36a3.62,3.62,0,0,0-4.3.14L2685.31,1918a3.61,3.61,0,0,0,1.63,6.39l15.69,2.7,14.86,15-25.9,9.35a3.6,3.6,0,0,0-2.23,4.42c3.15,10.63,10.35,11.87,16.86,12.2,2.65.13,5.43,1.2,8.66,2.44,1.61.62,3.28,1.25,5.06,1.83a3.62,3.62,0,0,0,4.12-1.47l6.92-10.59,7.48,3.58v16a3.64,3.64,0,0,0,1,2.48c6.75,7.16,15.54,14.2,29.52,12.08a3.6,3.6,0,0,0,3.07-3.57v-8.58l8.42-8.33,25.2-6.81a3.61,3.61,0,0,0,2.64-3.05l.16-1.24c1-8.13,2.2-17.35-8.2-24.16a3.56,3.56,0,0,0-2-.59h-30.68l-4.71-10c1.76-1.65,3.43-3.34,5.06-5,6.49-6.59,12.12-12.3,21.68-14.17,13.35,3.95,23,12.57,28.64,25.64a23,23,0,0,1,1.84,6.65,19.15,19.15,0,0,0-3.83,22.26c1.76,3.42,2.22,7.29,2.7,11.39.66,5.66,1.42,12.06,6,17.61,2.22,2.68,3.67,6.3,5.52,10.87.91,2.27,2,4.84,3.2,7.59a39.41,39.41,0,0,1-.12,7.84c-.51,6.7-1.14,14.92,3.83,22.52l-5.86,15.91L2816.7,2072a3.57,3.57,0,0,0-1,3.07c.91,6.29-2.75,11.4-6.64,16.81-4.43,6.17-9.41,13.1-7.42,22.3l-8,8.05a3.62,3.62,0,0,0-1.06,2.56V2168l-.23,0c-3.91-23.23-9.31-34.4-22.85-48.17a3.62,3.62,0,0,0-2.58-1.08H2742.4a3.58,3.58,0,0,0-2.55,1.06l-7.32,7.32-4.36-3.27v-27a3.63,3.63,0,0,0-2.57-3.46l-8.39-2.53a3.62,3.62,0,0,0-4.64,3.14l-1.8,20.13h-.48l-2-5.77a3.6,3.6,0,0,0-3-2.43c-.44-.06-.92-.17-1.41-.28a12.91,12.91,0,0,0-5.82-.31c-5.9,1.4-11.65,3-18.93,5-2.89.79-6,1.64-9.44,2.56a3.61,3.61,0,0,0-.19,6.92l25.57,8.4,7.27,9.05c.74,4.67.57,9.5-6,13.66l-23.07-9.92a3.6,3.6,0,0,0-3,.07l-3.53,1.71c-10.58,5.11-21.53,10.4-31.21,19.46-17.54,16.39-40.1,24.7-67.06,24.7h-.93a3.6,3.6,0,0,0-3.12,1.8c-3.25,5.59-5,13.84,4.93,21.41a3.64,3.64,0,0,0,2.67.7l1.81-.25c33-4.47,67.08-9.09,103.14-25.8a3.68,3.68,0,0,0,.93-.62c12.58-11.59,13.53-12.47,28.53-12.62a52.38,52.38,0,0,1-1,7.76,61.76,61.76,0,0,1-2.74,8c-.61,1.55-1.26,3.23-1.94,5.1a3.62,3.62,0,0,0,3,4.83l13.46,1.33a3.63,3.63,0,0,0,3.17-1.33l10-12.48h7.61l.4,5.54-14.83,16.34a3.58,3.58,0,0,0-.91,2.88,3.62,3.62,0,0,0,1.6,2.57c16,10.51,28.29.32,34.19-4.58,11.15-9.26,23.81-14.49,36-19.55,6.64-2.74,13.23-2.35,19-2,4.1.24,8,.47,11.54-.41l12.24,8.82c-.73,1.42-1.39,2.82-2,4.19-3,6.31-5.11,10.87-11.82,12.51s-10.16,13.27-10.53,14.59c-4.37,15.78-16.44,24.76-28.83,32.1-4.71,2.79-9.58,5.53-14.28,8.18-11,6.21-22.46,12.64-33,20.4-4.79,3.51-11.92,5-18.21,6.29a196.6,196.6,0,0,0-19.19,5.37c-13.54,4.3-26.33,8.35-40.28,6-2-.35-4.06-.9-6.21-1.49-1.93-.54-3.93-1.09-6-1.49-.68-.13-1.37-.28-2.07-.44-3.1-.69-6.62-1.47-10-.68-20.24,4.73-20.24,4.73-37,0l-.48-.14c-6.32-1.8-12.69-3.08-18.85-4.31-2.64-.53-5.23-1-7.75-1.6a3.61,3.61,0,0,0-3.19.85c-9.95,9-17.87,14.28-28.74,14.28h-.66c-5.13,0-10,2.07-15,4.25-1.92.82-3.88,1.66-5.91,2.41-1.23-.45-2.47-.93-3.73-1.41-11.94-4.54-26.66-10.15-42.33-1.84-6.54-4.3-13.58-4.11-20.42-3.91a64.15,64.15,0,0,1-10.27-.27,3.61,3.61,0,0,0-3.8,2.13l-12.37,28.49c-4-1-7-4-10.34-7.31-4.68-4.67-10-10-18.78-9a3.59,3.59,0,0,0-2.73,1.76c-4.63,7.83.45,12.62,3.49,15.49,2.12,2,3.24,3.2,3.42,4.61l-3,3.42c-.63-.52-1.27-1-1.91-1.51-1.4-1.09-3.75-2.9-3.92-3.81-1.93-10-9.37-13.78-15.35-16.81-1.37-.69-2.66-1.35-3.85-2.05a3.74,3.74,0,0,0-1.3-.46c-3.73-.55-7.52-1.27-11.19-2-8.19-1.55-16.64-3.14-25.08-3.14H2333c-10.36.15-20.07-1.86-30.34-4l-5.4-1.1c-6.28-1.25-10.82-3.23-13.13-5.72-6-6.44-12.94-11.82-19.68-17-11.13-8.59-21.65-16.7-28.22-29.33-4-7.74-12.09-15-22.68-20.31-4.07-2.06-7.31-6.64-10.75-11.49-1-1.4-2-2.83-3.07-4.24l7.68-6.9c6.08,1.23,11.77,4.14,17.76,7.21,8.68,4.45,17.67,9.06,29.23,9.49a3.62,3.62,0,0,0,3.12-5.65l-12.07-17.55a3.62,3.62,0,0,0-3-1.56h-15.21c-8.64-4.11-13.94-11-19.54-18.24-5-6.51-10.23-13.25-17.94-17.58a3.63,3.63,0,0,0-4.25.52c-6,5.68-2.85,12.18-.75,16.48,1.85,3.78,2.87,6.14,1.69,8.43l-.56-.79a49.17,49.17,0,0,1-5.14-8.51c-6.31-15-15.45-31.48-35.37-39.76-2.33-1-4.48-3.37-6.75-5.9l-.51-.57c17.46-10.78,29.43-16,56.64,4.82a3.6,3.6,0,0,0,3.88.32l11.92-6.32a3.6,3.6,0,0,0,1.92-3.19v-17.14a3.61,3.61,0,0,0-2.56-3.45l-20.51-6.26c-1.51-3.43.12-5.6,4.48-10.1,2.47-2.56,5.28-5.45,6.58-9.12,1.56-4.4,6-8.25,10.35-12,2-1.74,3.95-3.4,5.64-5.15a3.59,3.59,0,0,0,.93-3.3c-.21-.93-.34-1.67-.43-2.23-.24-1.38-.64-3.69-3.08-4.32-2.89-.75-5.74-1.37-7.82-1.82l-1.22-.27a3.61,3.61,0,0,0-3,.68L2155.65,2101l-24.23-6a3.61,3.61,0,0,0-3.82,1.43c-13,18.48-31.08,18.18-50.26,17.86-5.14-.08-10.45-.17-15.65.13a3.62,3.62,0,0,0-2.46,1.16c-7.76,8.46-18.16,8.05-28.24,7.66a3.64,3.64,0,0,0-2.17.62l-19.08,12.94h-10.18l-8.27-4.52c1.75-5,5.78-7.33,10.37-10,4.34-2.48,9.25-5.3,11.61-10.81,3.58-8.36,7-16.29,14.16-21.32l20.94,7.72a3.62,3.62,0,0,0,2.06.13l22.27-5.12a3.75,3.75,0,0,0,1.41-.67l55.29-43.1,2.19,0c3.58-.05,8.48-.12,13.3.08,15.33.62,27.31-5.92,35.51-19.46,3-4.91,6.12-9.82,9.46-15l3.94-6.16h.86c12.11,0,27.17.07,36.23-15.63a3.61,3.61,0,0,0-1-4.69l-12.38-9.29v-20.53l14.13-14.15a3.6,3.6,0,0,0-.55-5.55l-10.87-7.26,8.43-4a3.61,3.61,0,0,0,2-2.46,3.7,3.7,0,0,0-.07-1.87h11a3.62,3.62,0,0,0,2.46-1l12.43-11.57a3.61,3.61,0,0,0,.58-4.59L2246,1888.76a3.61,3.61,0,0,0-4.11-1.5l-15.84,4.9c-2.1-3.7-.23-7.4,3.78-12.51l.63-.8c13-16.86,21.27-31.85,26.12-47.19a3.65,3.65,0,0,0-.24-2.75l-5.56-10.76a3.62,3.62,0,0,0-3.21-2h-9.75a3.62,3.62,0,0,0-2.74,1.26l-10.24,12a3.64,3.64,0,0,0-.87,2.4c.16,11.32-5.54,21.12-11.57,31.49-1.85,3.18-3.75,6.46-5.48,9.8-8.54.61-9.3.07-20.51-7.76a3.64,3.64,0,0,0-5.09,1l-7.72,11.72a3.62,3.62,0,0,0,.46,4.54l16.22,16.22c4,21.74-1.28,36.26-17.38,48.21h-24.92a3.62,3.62,0,0,0-2.56,1.06c-8.68,8.7-19.2,8.37-30.34,8-3.47-.11-7.05-.23-10.59,0-7.27-10.92-3.15-19.9,2-31.13a108.87,108.87,0,0,0,5.87-14.67,3.55,3.55,0,0,0,0-2.14c-1.87-5.77,1.17-12,4.68-19.17,2.29-4.68,4.65-9.5,5.91-14.76l18.48-14.83a3.61,3.61,0,0,0,0-5.61l-29.32-24.09a3.63,3.63,0,0,0-3.48-.62l-12.5,4.34-7.94-21.22a3.61,3.61,0,0,0-5.13-1.89l-32,17.59a3.61,3.61,0,0,0-1,5.49l14.86,17.58c1.26,6.74-1.9,8.33-7.46,11.13a40.53,40.53,0,0,0-6.23,3.63c-2.61-.13-5.28-.07-7.87,0-8.48.18-16.54.35-24.24-5.24l16.16-9a3.6,3.6,0,0,0,1.3-5.07l-6.45-10.31a3.61,3.61,0,0,0-3.07-1.7h-17.66l-6.09-8.27a3.6,3.6,0,0,0-3.46-1.43l-36.64,5.68-26.42-22.5a3.58,3.58,0,0,0-2.34-.86h-20a3.65,3.65,0,0,0-2,.62l-19.56,13.29-19.22-12.71c0-.88,0-1.73,0-2.54,0-2.9.08-5.41-.08-8-.85-14.16.67-25.59,10.85-35.33,5.31-5.08,8.06-12.74,10.47-19.5l.11-.3c3.32-9.25,7.48-13.25,14.83-14.28a25.94,25.94,0,0,0,7.18-2.4c4.51-2,7.23-3.26,11.81.61,4.1,3.48,10.53,2.82,17.33,2.11a89.29,89.29,0,0,1,8.92-.61,3.64,3.64,0,0,0,3.21-2l6.31-12.16a3.61,3.61,0,0,0,.06-3.19c-3.1-6.64-8.51-9.92-13.29-12.81-4.49-2.7-8.15-4.92-9.71-9.38,5.58-3.87,12.2-6.76,21.77-4.77a3.61,3.61,0,0,0,3.83-1.68l14-23.32c10-3.67,16.1-12.31,22.6-21.43,4.41-6.19,9-12.57,15-17.73l14.62,5a3.62,3.62,0,0,0,3.74-.86l17.05-17c5.63-1.22,8,1.25,11.31,4.59a36.74,36.74,0,0,0,3.18,3,3.59,3.59,0,0,0,4,.36c9.44-5.22,9.14-14,8.89-21a52.77,52.77,0,0,1,.06-6.91l35.87-15.42a3.63,3.63,0,0,0,2-2.12,109,109,0,0,0,4.19-17.62c1.41-7.89,2.75-15.38,6.72-21.77h27.68a3.63,3.63,0,0,0,2.48-1l23.74-22.5,33.26,13.88a3.62,3.62,0,0,0,2.47.12c11.69-3.68,13-15.57,13.81-23.44.14-1.35.28-2.65.46-3.84,2.93-19.41,17.86-34.26,36.3-36.11,5-.51,9.8-2.32,14.86-4.23,2.4-.91,4.89-1.85,7.55-2.71a3.61,3.61,0,0,0,0-6.87c-13.54-4.43-25.34-1.85-36.76.63a110.33,110.33,0,0,1-14.44,2.52,3.62,3.62,0,0,0-2,.82c-7.33,6.09-10.21,14.35-13,22.34s-5.51,15.85-12.78,20.88a48,48,0,0,0-5.62-.07c-4.58.12-8.9.23-13.5-2.78-9.57-6.26-20.22,3.07-25.33,7.55-8.75,7.67-16.36,13.59-28,14.25-7.18.4-14.25,5.93-20.22,11.28-5.79,5.18-11.27,10.8-16.58,16.23-4.54,4.65-9.24,9.46-14.05,13.91-19.84,18.38-39.1,26.68-60.61,26.08a3.64,3.64,0,0,0-2.71,1.11l-1.45,1.52c-15.13,15.82-29.44,30.78-53,28.71a3.61,3.61,0,0,0-2.72.9l-25.88,23a3.67,3.67,0,0,0-1,1.48c-3.64,10.19-13.15,27.59-36,29.7a3.64,3.64,0,0,0-2.8,1.81c-5.54,9.7-.16,15.45,3.77,19.65a24.26,24.26,0,0,1,3.93,5l-4.33,8.23a34.55,34.55,0,0,1-9.48.38c-7.23-.36-16.23-.81-22.51,10a3.65,3.65,0,0,0-.49,1.82c0,1.44.06,3,.12,4.73a72.94,72.94,0,0,1-.31,13.07c-.47,3.16-1.8,6.45-3.49,10.61-.82,2-1.74,4.27-2.68,6.83L1856.61,1757a51.36,51.36,0,0,0-5.27.21c-6.28.47-10.4.5-13.8-4.48-.2-4.33-.13-8.71-.07-13.32.21-14.12.43-28.72-7.06-43.18a3.62,3.62,0,0,0-3-2l-7.89-.42a3.64,3.64,0,0,0-3.09,1.45l-9.1,12.2-.48-.11c-.34-.08-.75-.17-1-.25-7.33-9.25-12.28-18.09-15.55-27.79-4.92-14.62-16.58-25-34.64-31a3.59,3.59,0,0,0-4.17,1.49l-11,17.26a3.63,3.63,0,0,0-.57,1.94c0,4.65,1,6.2,30.88,36.07.36,1.3.69,2.6,1,3.89,2.45,9.64,5,19.62,18.22,24.8,4.41,1.73,8.25,6.3,12.32,11.12,1.68,2,3.4,4,5.26,6a42.54,42.54,0,0,0,.07,8.14c.46,6.11.85,11.43-4.73,16.23a117.92,117.92,0,0,0-12.89,0c-11.73.45-22.8.87-32.6-7.57a3.58,3.58,0,0,0-2.36-.88H1736.8a3.64,3.64,0,0,0-1.76.46c-9,5-8.89,12.63-8.8,19.35,0,1.47,0,3,0,4.51a3.58,3.58,0,0,0,1.34,3l16,12.92-3.65,7.85a81.42,81.42,0,0,0-8.24,2.91c-6.6,2.59-12.83,5-18.25,2.43-6.93-3.33-13.76-3.62-20.36-3.89-2.88-.12-5.82-.25-8.83-.62l5.08-38.14a3.61,3.61,0,0,0-1.93-3.69l-12.77-6.56a3.59,3.59,0,0,0-3.71.25c-6.94,4.82-11,12.16-14.93,19.26-5.51,9.94-10.72,19.36-23.51,22.29a27.91,27.91,0,0,0-4.06-2c-3.88-1.66-7.23-3.1-8.85-8.83-2-7.25-9.22-10-15.54-12.38a55.51,55.51,0,0,1-7.85-3.44,3.62,3.62,0,0,0-4.75,1l-11.58,16.27a3.63,3.63,0,0,0-.37,3.53c4.69,10.89,16,17.57,27.92,24.65l.82.49c12.47,7.39,25.83,10.89,38.74,14.27a220.77,220.77,0,0,1,23.28,7,17.58,17.58,0,0,0,18.24-3.42c2.17-1.92,5.51-3.06,9-4.26,1.31-.44,2.65-.9,4-1.41,5.74,2.81,9.18,8,12.82,13.54,4.36,6.62,8.88,13.47,17.61,17.11a3.62,3.62,0,0,0,4.37-1.29,19.36,19.36,0,0,1,1.27-1.47c2-2.18,4.75-5.17,4.67-8.87-.25-12,5.71-20,14.89-28l18,3.66a3.61,3.61,0,0,0,1.5,0l21.42-4.79a3.62,3.62,0,0,0,2.81-3.32l.71-12.55,31.12-15c.68.68,1.38,1.33,2.06,2,1.45,1.36,3.87,3.64,4,4.46-.43,8.79,3.19,15.74,6.68,22.46,1.09,2.09,2.2,4.23,3.2,6.44-.28.63-.55,1.27-.81,1.9a33.54,33.54,0,0,1-3.45,6.76c-19.33,26.25-38.18,41.64-61.12,49.9-14,5-25.31,8.28-38.29,8.87-14.16.63-26.48,9.4-36.66,17.9a3.6,3.6,0,0,0-1,4.16l10.65,25.64-4.82,5.52h-24.77L1601.68,1911a3.6,3.6,0,0,0-3.59.17l-11.08,7.06c-19.38-5.13-33.92-19.74-46.07-33.11a3.62,3.62,0,0,0-2.36-1.17c-1.53-.13-3-.18-4.43-.23-5.43-.19-9.73-.34-13.86-4.62a29.88,29.88,0,0,0-24.34-9c-11.43,1-21.82-2.53-30.84-10.6-4.19-3.75-9.1-7.49-13.74-6.83-5.83.81-8.71-1.89-13.69-7.16-1-1-2-2.08-3-3.13l10.53-25.35a3.62,3.62,0,0,0-.58-3.72L1434,1800.76a3.66,3.66,0,0,0-3-1.27,3.6,3.6,0,0,0-2.79,1.62L1406.54,1834h-9.82l-48.58-39.59c-.06-1.63,1.48-3.46,4.4-6.52,4.43-4.65,10.5-11,6-20.58a4.62,4.62,0,0,0-.41-.67l-20.28-26.27a3.62,3.62,0,0,0-4.27-1.12l-2.9,1.23a3.61,3.61,0,0,0-2.15,4l5.12,29.07-11.53,15.68c-1.31.53-2.64,1.09-4,1.66-9.39,4-20,8.43-32.16,6.72l-6.6-23.24a3.92,3.92,0,0,0-1.28-1.88,14.82,14.82,0,0,1-1.34-1.7c-2.33-3.25-6.7-9.29-16.58-9a3.62,3.62,0,0,0-3.52,3.55c0,1.5-.1,3-.17,4.47-.34,6.88-.72,14.55,3.91,22.76l-6.53,1.79a3.62,3.62,0,0,0-2.51,2.49,3.33,3.33,0,0,0-.14.93h-10l-15.89-20.68a3.58,3.58,0,0,0-2.28-1.36c-13-2.15-17.76,5.51-21.63,11.65-3.2,5.08-5.5,8.36-10.38,9.24a29.92,29.92,0,0,0-3-1.68,21.68,21.68,0,0,0-5-1.51h0l-10-19.68a3.59,3.59,0,0,0-3.21-2H1141l-12.16-15.15a3.55,3.55,0,0,0-2.45-1.33,3.59,3.59,0,0,0-2.67.81l-3.88,3.22c-2.5,2.1-4.68,3.92-6.9,5.69-1.89,1.51-3.81,3-6.42,5l4.25-30.86a3.63,3.63,0,0,0-2.31-3.88c-2.39-.89-4.68-1.59-6.9-2.27-4.35-1.32-8.1-2.47-10.7-4.56s-4.85-5.85-7.08-9.68c-1.11-1.92-2.26-3.9-3.58-5.87a3.59,3.59,0,0,0-4.14-1.42,69.25,69.25,0,0,0-6.56,2.68c-6.86,3.07-10.94,4.65-15,1.31a3.62,3.62,0,0,0-4.84.24l-9.35,9.35h-10.89l4.81-65a3.61,3.61,0,0,0-2-3.51c-15.45-7.56-25.51-19-33.64-38.37a3.62,3.62,0,0,0-1.91-1.92c-17.33-7.38-28.86-17-36.29-30.4-3.63-6.54-12.66-12.48-20.13-13.24-10.89-1.13-17.58-7.17-25.2-15l-.76-.79c-4-4.1-9.37-9.71-20.58-6.41a3.63,3.63,0,0,0-1.76,1.17l-14,16.88-7.29-5.26a72,72,0,0,1-.13-12.74c.41-8.37.82-17-4.16-25.3l7.23-12.42,1.8,1.15c3.63,2.33,7.06,4.52,10.56,6.66,3.29,2,6.56,3.92,10.35,6.12,1.75,1,3.59,2.08,5.56,3.24a3.62,3.62,0,0,0,4.27-.46,26.55,26.55,0,0,1,2.17-1.68c2.45-1.79,5.24-3.81,6.09-7,.8-3,2.4-10.83-.16-17.19s-7.35-12.15-11.63-16.83c-5.43-6-11.25-11.65-16.88-17.17-2-1.94-4-3.88-5.92-5.84.35-4.42.68-7.57,1.58-8.55s4.55-1.64,10-2.51a3.6,3.6,0,0,0,2.45-1.57l8-11.92h6.49l3.48,3.56-13.5,10.35a3.61,3.61,0,0,0-1,4.59l13.18,24.26a3.6,3.6,0,0,0,3.17,1.89h30.8l23,17.52a3.57,3.57,0,0,0,2.51.73l63.21-5.71a3.59,3.59,0,0,0,3.07-2.36l2.23-6.13a3.6,3.6,0,0,0-.23-3,3.65,3.65,0,0,0-2.41-1.78c-8.14-1.73-15.91-1.64-24.14-1.53a170.09,170.09,0,0,1-17.61-.41l-27.4-24.49a3.52,3.52,0,0,0-1.25-.73l-18.1-6.12c.41-5.82,4.07-7.67,10.45-10.38,4.62-2,9.84-4.17,12.94-9.24,2.51-4.1,7.06-4.52,14.28-4.86,6.22-.29,13.27-.62,19-5.14a3.61,3.61,0,0,0,1.1-4.24c-4.8-11.43-14.08-15.43-21.53-18.64-1.14-.49-2.25-1-3.33-1.46a3.57,3.57,0,0,0-2.11-.28c-13.63,2.28-21.87,10.68-29.84,18.8-1.59,1.62-3.23,3.29-4.92,4.92l-54.34-5.89-2.5-1.16c-1.92-.89-3.59-1.65-5.13-2.5-1.91-1-3.78-2.31-4.49-2.79l-.16-.11a3.64,3.64,0,0,0-2.34-.54l-32.67,3.63c-2.2-1.2-4.32-2.2-6.23-3.09-3.73-1.75-7-3.26-8.23-5.2-3.49-5.3-8.35-5.56-11.9-5.74-2.26-.11-3.7-.23-4.7-1.07-4.58-3.85-9.52-7.79-15.11-10-3.81-1.51-7.83-2-12.93-2.6-2.47-.29-5.27-.63-8.45-1.13a3.61,3.61,0,0,0-3.65,5.45l10.82,17.75v7.18c-.77-.38-1.54-.74-2.3-1.09-5.38-2.49-8.21-4-8.57-9.18-.3-4.29-5.23-8.12-8.47-9.36-12-4.58-18.65-13.21-23.14-29.81-1.26-4.66-5-8.3-7.7-11-.9-.87-1.74-1.7-2.25-2.32a3.57,3.57,0,0,0-2.24-1.29l-27.09-4.21a3.61,3.61,0,0,0-3.11,1l-21.28,21.28a3.61,3.61,0,0,0-.62,4.29l8.75,16-10.53,9.79c-12.36-2.1-25.68,1.32-38.66,10-5.67,3.78-11.55,3.75-19,3.74a82.6,82.6,0,0,0-14.62.88,3.62,3.62,0,0,0-2.49,1.68l-3.92,6.45-2.6,0a56,56,0,0,0-6.72.12c-17.6,1.74-33-2-46.91-11.48-7.17-4.86-15.9-7.12-26.67-6.89-21,.45-41.81.38-63.8.3q-12.14,0-24.54-.07L399,1382.2c-.27-3.79-.51-7.59-.76-11.4-.64-9.85-1.29-20-2.38-30.08-1.42-13.17,3-23.52,14-32.46.83,0,1.66-.07,2.46-.12,5.48-.35,9.49-.59,12.85,6.7v29.72a3.61,3.61,0,0,0,5.93,2.78c20.08-16.72,23.09-26.54,15.31-50a195.36,195.36,0,0,1-5.19-20,19.17,19.17,0,0,1-.11-4.8l0-.36,23.46-17.63a3.61,3.61,0,0,0,.75-5c-1.78-2.45-3.44-4.84-5-7.16a175.31,175.31,0,0,0-10.84-14.5c-5.88-6.83-8.45-13.3-8.35-21,.13-9.12.08-18.38,0-27.34-.05-12.51-.11-25.44.28-38.11.18-5.71,1.64-11.41,2.81-16,.35-1.39.67-2.63.92-3.74l10.73-13.18c14.17-17.4,27.56-33.83,40.71-50.12a14.44,14.44,0,0,0,2.25-4.49,16.24,16.24,0,0,1,.73-1.85c6.39-12.71,13.63-27.11,27.55-37A3.6,3.6,0,0,0,528,1010c-5.71-7.84-4.14-15.74-2.32-24.89,1.59-8,3.24-16.3-.22-24.91a3.62,3.62,0,0,0-3.35-2.27H511.28a3.61,3.61,0,0,0-3.56,3l-7.12,43.37L485.53,1015l-8-3.61c-2.17-8.18,2.48-15.34,7.82-23.56l1-1.51a3.6,3.6,0,0,0,.17-3.63l-8.9-17,8.31-15.38a3.65,3.65,0,0,0,.44-1.86l0-.67c-.82-20.67-.86-21.69,3.5-26.84l21-5.87a3.6,3.6,0,0,0,2.63-3.37c.6-20.24-11.31-29.19-22.83-37.85-1.13-.84-2.26-1.7-3.39-2.56a3.61,3.61,0,0,0-5.81,2.88c.08,24-6.35,37.64-21.52,45.74L435.4,931.36a3.61,3.61,0,0,0-1.83,4.58l9.8,25.12H430.14a3.65,3.65,0,0,0-2.14.7l-12.66,9.34a3.62,3.62,0,0,0-.5,5.37l14.49,15.58v5.49c-9.06,4.93-16,7.09-23.6,4.25-14.83-6.1-24.33-18-34.38-30.63-7.63-9.58-15.52-19.49-26.2-27.33a3.53,3.53,0,0,0-2.13-.7h-36.9c1.15-3.29,4.05-4.93,8.38-7.13,3.89-2,8.31-4.22,10.67-8.84.46-.91.93-1.81,1.41-2.71,4.07-7.77,8.28-15.8,5.34-26.19a3.63,3.63,0,0,0-1-1.65l-7.74-7.25a3.65,3.65,0,0,0-2.7-1,3.6,3.6,0,0,0-2.55,1.3l-15.46,18.62-1.38-1.51c-2.83-3.11-5.51-6-9.13-7.57-2-.82-3.9-1.68-5.85-2.55-9.92-4.43-20.18-9-32.87-7.34-6.93.91-13.93.7-21.35.48-5.48-.16-11.14-.33-16.74,0-11.6.68-26.8,1.83-41.49,4.81-6.13,1.24-11.44,5.74-16.12,9.7l-1.47,1.25a146.65,146.65,0,0,0-11.64,11.27c-1.35,1.4-2.72,2.83-4.13,4.25-13.39,1.37-27.28-1.26-44.83-8.46a3.61,3.61,0,0,0-2.81,0c-3.31,1.44-6.58,3.18-9.75,4.86-9.12,4.85-17.73,9.43-27.4,7.77-5.2-.89-10.28-4.31-15.19-7.61-1.74-1.18-3.41-2.31-5.08-3.32-.74-4.66-1.42-9.34-2.08-13.89-4.08-28.19-7.94-54.83-25.23-77.87-1.6-10.59-.42-20.06,3.61-28.93,3.75-8.26,5.38-17.5,5.1-29l-.07-3.14c-.39-15.09-.75-29.33,3.93-43.57l.41-1.25c3.67-11.21,6.57-20.07,18.08-23.81,4.82-1.57,9.11-4.35,13.66-7.29,2.14-1.39,4.36-2.82,6.76-4.22a3.6,3.6,0,0,0,1.63-2c6.78-21.57,20-36.06,39.31-43.07,11.2-4.07,19.46-12.09,26-25.23,10.16-20.49,17.19-27.53,37.61-37.71,18.61-9.27,31.54-22.24,39.51-39.64a43.31,43.31,0,0,1,4.82-7.45,64.9,64.9,0,0,0,4.42-6.46c5.5-9.59,11.76-21.21,16.43-34.6,4.79-13.69,11.67-27,18.31-40,1.83-3.55,3.65-7.09,5.44-10.65,5.82-11.61,9.84-24,12.63-38.92,2.55-13.68,7.14-31,20.09-43.4,3.41-3.27,6.75-6.65,10-9.92l4.34-4.37a3.59,3.59,0,0,0,1.05-2.37c.85-16.75,8.48-30.22,20.94-36.94,10.33-5.57,15.63-14,20.75-22.07A99.64,99.64,0,0,1,350,265.93a145.54,145.54,0,0,0,11.11-16c7.13-11.33,14.5-23,28.6-30.36,18.78,2.44,36.86-6.29,55.26-26.63,3.27-3.62,6.86-7.12,10.35-10.51,1.83-1.79,3.66-3.57,5.46-5.38,7.25-7.3,15.79-14.49,29.12-17.67,11.68-2.78,22-12.1,31-20.33l.47-.42c4.32-3.92,8.57-8,12.69-11.92,12.86-12.3,25-23.91,40.3-32.74,6.54-3.78,11.13-10.24,15.57-16.49A90.47,90.47,0,0,1,598,67.16C604,61,606.2,53.72,608.38,46.65a70.89,70.89,0,0,1,4-10.93c3.52-7.06,6.48-14.42,9.35-21.53,1-2.34,1.88-4.66,2.84-7H637a2.93,2.93,0,0,1,.24.56,86,86,0,0,1,.11,11.38c-.3,8.77-.62,17.84,4.6,26.81.88,1.51-1.07,7.36-1.83,9.63-4.84,14.55-4.53,28.25,1,43a71.25,71.25,0,0,1-3,8c-4.52,10.71-8.42,20-5.66,91.43l-5.09,8.56-9.6-9.6a3.6,3.6,0,0,0-5-.11l-2,1.84H596.3a3.61,3.61,0,0,0-3.61,3.61V219l-21.14,25a3.59,3.59,0,0,0-.34,4.18l7,11.79a3.62,3.62,0,0,0,5.53.83l12.89-11.66,24.25-10.48c4.05,4,6.08,9.73,8.21,15.79s4.28,12.13,8.55,17.5c2.75,3.45,4.26,7.91,5.87,12.63,2.47,7.25,5.23,15.37,13.11,21.07l-9.92,21.07a3.59,3.59,0,0,0,.08,3.24c8.5,15.9,8.65,16.19,8.17,36.18-1.11,1.53-2.19,3.09-3.23,4.61a78.21,78.21,0,0,1-8.63,11.07c-16.64,16.66-28.62,36.74-40.2,56.17l-1.3,2.18c-1.41,2.38-3,4.64-4.7,7A82,82,0,0,0,590,458.36c-.92,1.9-1.9,3.77-2.87,5.65-5,9.61-10.18,19.56-8.84,32.42a136.33,136.33,0,0,1-2,39.22l-2.85,6.9-11.11-15.5,5.8-46.35a3.6,3.6,0,0,0-1-3l-16.62-16.62c1.14-8.69-3.48-15.21-8-21.52-3.4-4.79-6.6-9.31-7.62-14.87-1.69-9.29-6.61-17.83-11.36-26.1-2-3.52-4.12-7.16-5.9-10.75a3.59,3.59,0,0,0-2.29-1.88,25.09,25.09,0,0,1-5.67-2.75c-4.78-2.8-10.73-6.29-18.83-2.47a3.61,3.61,0,0,0-2.07,3.27v11.72a3.64,3.64,0,0,0,1,2.55l16.39,16.38v22.88l-8.7,9.3a3.62,3.62,0,0,0-.74,3.75c3.43,9,10.15,11.24,16.08,13.2,4.41,1.46,8.58,2.85,12,6.86,1.2,3.59,2.74,7.25,4.37,11.11,5.61,13.34,12,28.44,7.25,47.53a45.34,45.34,0,0,0-7.78,29.14c.79,9.41.87,16.83-4.87,23.26l-10.27-13.47,7.78-9.8a3.63,3.63,0,0,0,.76-1.83l.1-.87c.84-7,2.1-17.46-11-23.36a3.6,3.6,0,0,0-3.67.41l-9,6.81a3.62,3.62,0,0,0-1.38,3.48,31.14,31.14,0,0,1,.09,6.52c-.24,4.7-.54,10.44,2.91,16.06l-3,7.18-17.28,7.83a3.6,3.6,0,0,0-1.44,5.39c.81,1.13,1.57,2.33,2.3,3.49,1.72,2.72,3.49,5.52,6.08,7.59a92.93,92.93,0,0,0,11.68,7.62l2.75,1.62v12.07c-11.19.46-20.21-4.82-29.71-10.39-4.06-2.37-8.24-4.81-12.69-6.88l5.35-39a3.61,3.61,0,0,0-1-3l-6.67-6.67a3.6,3.6,0,0,0-4.35-.58l-16.07,9.23a3.62,3.62,0,0,0-1.81,3.14v23.44l-20.42,8.71a3.61,3.61,0,0,0-2.2,3.32v18.69H389.4a3.61,3.61,0,0,0-3.39,2.37l-7.27,19.8L363.67,651.6a3.62,3.62,0,0,0-1.47,2.91v16.61a3.62,3.62,0,0,0,3.22,3.59c.76.08,1.48.21,2.18.34a13.6,13.6,0,0,0,5.84.21c9.65-2.34,16.94-8,23.39-13.71,9.14-8.13,18.71-15.73,28-23.08,3.4-2.7,6.74-5.35,10-8,14.26-.85,27.33-.83,41.6,6.15l15.88,15.87v25.08l-4.44,4.44H463.85a3.61,3.61,0,0,0-3.53,4.37c3.21,14.84,13.87,17,22.44,18.77,1.58.32,3.1.63,4.54,1l14.27,16.08v13.55c-3.36,6.53-6.27,5.48-12.8,2.37-3.59-1.71-7.31-3.47-11.15-2.61a3.62,3.62,0,0,0-2,1.19L456.87,759c-1.84-.41-3.71-.87-5.65-1.36-6.29-1.57-12.8-3.19-19.46-3.1s-13.16,1.8-20.1,3.62c-3.24.84-6.6,1.72-10.2,2.51a3.6,3.6,0,0,0-1.73.92L393,768a3.63,3.63,0,0,0-.27,4.92l8.89,10.7a3.62,3.62,0,0,0,3.87,1.13l14.46-4.59,9.33,4,.56,9.21a3.63,3.63,0,0,0,2.91,3.32c15.85,3.11,27.29-4.51,38.35-11.88,5.53-3.68,10.8-7.2,16.57-9.43a66.44,66.44,0,0,1,2.29,8.57c1.5,6.81,3.2,14.52,9.61,20,2.49,2.14,5.81,2.33,9,2.52,1.23.07,2.4.14,3.46.31a3.61,3.61,0,0,0,3.94-2.21c5-12.35-.33-21.76-4.58-29.32a58.46,58.46,0,0,1-3.82-7.57l8.24-8.2a3.58,3.58,0,0,0,1-2.09h7.78c2.3,2.64,2.92,6.49,3.63,10.86,1.12,7,2.52,15.67,12.07,21.06a3.58,3.58,0,0,0,3.32.12l19.88-9.39,26.1,10.31a3.61,3.61,0,0,0,4.93-3.2c.6-13.2-5.38-22.08-10.65-29.92-3.08-4.58-6-8.91-7.44-13.74A3.61,3.61,0,0,0,573,741H553.35c-4.18-11.27-11.53-20.3-18.66-29a163.36,163.36,0,0,1-12.16-16.26V666.57l2.86-2.86,8,3.33v17.44a3.59,3.59,0,0,0,1,2.49l28.67,30.25a3.62,3.62,0,0,0,6.1-1.49L577,688.35c9.61,3.55,17.91,9.08,26,14.44,7.56,5,14.72,9.81,22.63,12.83l52.59,66.15v20.66A3.6,3.6,0,0,0,681.8,806h24.36c9.33,3.59,13.69,11.53,18.3,19.92,3.2,5.84,6.5,11.86,11.6,16.43v14.78l-20.68-9.47a3.61,3.61,0,0,0-5.08,3.79c.22,1.52.32,2.88.41,4.19.21,2.84.38,5.28,1.66,7.54,3,5.27,6.25,10.23,10,16,1.51,2.31,3.1,4.73,4.77,7.32a3.6,3.6,0,0,0,4.15,1.48l32.27-10.5L778,897.65c-10.2,20.24-3.85,38.83,3.45,54.85l-3.85,7.63-24.25-10.07v-18a3.62,3.62,0,0,0-1.06-2.56l-15.69-15.69a3.62,3.62,0,0,0-2.56-1.06h-16a3.6,3.6,0,0,0-3.25,2l-5.64,11.69a3.61,3.61,0,0,0,0,3.11c.47,1,.8,1.8,1.08,2.48a12,12,0,0,0,2.13,3.78c2.77,3,6.1,6.49,9.79,9.83,13.06,11.83,17,22.3,13.49,36L713,1019.62a3.63,3.63,0,0,0,1.39,5l17.26,9.28a3.64,3.64,0,0,0,3.31.06c10.54-5.21,15.64-16.44,20.58-27.31,2.92-6.43,5.94-13.07,10.07-18.65,8.33-3,15.26.82,22.21,5.32,3,2,6,4.15,8.91,6.27,9.1,6.67,18.52,13.58,31.38,15.42a3.51,3.51,0,0,1,2.44,1.68,11.46,11.46,0,0,1,1.3,7.56c-2.81,1-5.84,1.84-9,2.68-9.77,2.55-20.84,5.45-27,17.36a3.58,3.58,0,0,0-.39,1.9c.66,10,8,11.85,13.35,13.21,3.51.89,6,1.62,7.73,3.37-7.4,7.7-15.53,16.42-21.11,27.36-4.39,8.63-4.33,17.2-4.27,25.49a77.54,77.54,0,0,1-.84,14.81c-7.83,13.69-20.87,23.11-35.94,34-3.78,2.73-7.67,5.54-11.63,8.53l-12.26-12.25a3.63,3.63,0,0,0-3.76-.85l-18.48,6.52a3.62,3.62,0,0,0-2.41,3.59c.41,7.94-3.22,15.06-7.05,22.59-4.25,8.35-8.63,17-7.62,27.12l-4.16,4.17h-12.2a3.62,3.62,0,0,0-2.64,1.14l-16.78,18a3.59,3.59,0,0,0-.71,3.81l9.48,23.5a3.63,3.63,0,0,0,3.35,2.26h0a3.65,3.65,0,0,0,3.35-2.27l9.9-24.72H696.7l4.3,4.3v20a3.61,3.61,0,0,0,5.46,3.1c1.6-1,3.1-1.72,4.56-2.46,3.2-1.64,6-3,7.94-5.58,2.29-3,3.68-6.44,5.15-10.13.65-1.63,1.33-3.32,2.12-5.08a3.62,3.62,0,0,0-.63-3.93c-6.59-7.17-4.59-14.24-2.06-23.19,1.73-6.08,3.5-12.35,2.4-19,3.47-1.88,6.62-4,9.69-6,5.75-3.79,11.18-7.36,17.87-9,6.08-1.47,11.19-5.71,16.6-10.21,2.21-1.84,4.5-3.74,6.95-5.54H807.6a3.68,3.68,0,0,0,1.6-.37c10.89-5.36,18-13.69,24.31-21,1.79-2.09,3.5-4.09,5.24-6h5.92c7.14,17.55,18.8,33.35,36.47,49.45v6.41l-7.45,7.45a3.62,3.62,0,0,0-1.06,2.56v16.81l-11.43,8.89H841.53a3.57,3.57,0,0,0-2.3.83l-30.65,25.36a3.61,3.61,0,0,0,.22,5.74l23.44,16.52a3.64,3.64,0,0,0,3.75.25l14.2-7.38,34.54,11.31,16.39,25.31a3.59,3.59,0,0,0,3,1.65h14.16a3.62,3.62,0,0,0,3-1.62l13.19-19.92h10.36l9.22,4.18-4,5.34a3.6,3.6,0,0,0,.33,4.73l6.49,6.5a3.62,3.62,0,0,0,3.62.89l16.29-5,9.2,26.64a3.61,3.61,0,0,0,5.65,1.65l23.34-18.5h16.51l7.27,9.23a3.61,3.61,0,0,0,4.92.71l10.26-7.27a3.6,3.6,0,0,0,1-4.73c-.77-1.36-1.5-2.81-2.21-4.22-1.75-3.48-3.56-7.08-6.34-10-3.53-3.74-8.42-6.11-12.73-8.2l-.78-.37c-3.64-1.77-7.4-3.18-11-4.54l-2.24-.84v-5.55a62.82,62.82,0,0,1,9.32-.29c8.08.13,17.23.29,24.43-6.91,2.68-2.69,6.65-3.79,10.84-5,6.61-1.83,14.84-4.11,19.23-13.77a3.61,3.61,0,0,0-1.41-4.57l-13.88-8.48a3.61,3.61,0,0,0-3.53-.14l-14.63,7.5L1028.26,1232a3.62,3.62,0,0,0-2.75-1.08,3.57,3.57,0,0,0-2.63,1.33l-1.3,1.59-7.88-3,9.25-8.67a3.62,3.62,0,0,0,1.14-2.64v-18.07a3.61,3.61,0,0,0-3.18-3.59,18.1,18.1,0,0,1-2.18-.45c-2.28-.53-5.11-1.2-7.72-.09-7.06,3-14,6.39-21.38,10l-6,2.89-6-8.63,36-42.31c7.15-1.21,10,.69,12.32,4.12,3.35,5,6.81,9.93,10.47,15.09l4.8,6.8a3.61,3.61,0,0,0,5.41.58l6.58-6.11a3.62,3.62,0,0,0,1-3.59c-.81-3-1.58-5.92-2.35-8.83-1.75-6.69-3.41-13-5.39-19.4l-.57-1.87c-2.68-8.86-5.73-18.9-18.62-22.84-5.85-1.79-11.54-5.1-17.56-8.6-2.51-1.46-5.09-3-7.82-4.44-1.29-5.67-1.43-10.44,4.19-14.8,2.59-2,3.37-5.51,4-8.32.1-.46.2-.9.31-1.33a38.16,38.16,0,0,1,14-21.55l3,1.35,23,18.6a3.62,3.62,0,0,0,1.23.64c6.85,2.06,10.28,5.39,11.85,11.49a163.79,163.79,0,0,0,6.47,18.74c1.25,3.2,2.54,6.52,3.88,10.18a3.59,3.59,0,0,0,.84,1.32l8.72,8.72a3.69,3.69,0,0,0,2.51,1.06c15.54.22,16.53-1.89,19.5-18.43a3.64,3.64,0,0,0-.94-3.13l-8.22-8.63c0-3.87.86-7.92,1.83-12.19,2.51-11.14,5.35-23.76-7.62-37.82a3.19,3.19,0,0,0-.33-.31c-5.1-4.31-13.09-4-21.53-3.67-2.72.1-5.51.22-8.23.17l-3.16-3.17,8.77-8.33c3.39.79,6.84,1.56,10.46,2.36,9.61,2.12,19.55,4.32,29.23,7.32,13.59,4.22,27.32,8.87,40.61,13.36s27.17,9.19,40.89,13.44a202.55,202.55,0,0,1,21.06,8.33c9.81,4.31,20,8.77,31.13,11,16.08,3.25,32,9.54,47.39,15.63l3.51,1.39c21.4,8.44,34.32,19.25,41.5,34.83l-3.46,3.1-15.37-8a3.62,3.62,0,0,0-4.43.87l-5.29,6.25a3.61,3.61,0,0,0-.32,4.23c7.49,12.12,15.16,26.24,11.49,40.37-2.49,9.57-3.17,18.78-3.86,29.29l-28,22.47-5.43-5v-.13c.54-16.68,1.22-37.44-24.91-44.06a3.61,3.61,0,0,0-4.5,3.5v44.31h-12.26l-13.27-15.91a3.58,3.58,0,0,0-1.57-1.09c-1-.36-2.17-.89-3.41-1.45-7-3.16-18.64-8.44-28.89,7.08a3.6,3.6,0,0,0-.14,3.74c3.55,6.38,8.87,11.31,14,16.08a104.07,104.07,0,0,1,9.07,9.12V1277a3.6,3.6,0,0,0,2.17,3.31l14.12,6.18a3.59,3.59,0,0,0,3.93-.7l9.8-9.31a7.67,7.67,0,0,1,2.19,1l1,1c4.11,4.15,9.22,9.32,17.7,6.83A3.53,3.53,0,0,0,1264,1284l12.66-16.59c13.16.36,27.94-1.1,40-12.3,11.87-11,23.9-25.16,23.82-46.44l8.63-8a6.65,6.65,0,0,1,1.22,1.62c.63,13,8.07,21.71,15.26,30.12l1.53,1.79c8.13,9.57,9.08,17.84,3.06,26.82a246.73,246.73,0,0,0-13.32,23.4c-2.33,4.46-4.74,9.07-7.25,13.47a17.32,17.32,0,0,1-3.51,3.7c-.91.81-1.95,1.73-3,2.8a3.63,3.63,0,0,0-1,2.93,3.59,3.59,0,0,0,1.62,2.65q5.55,3.63,11,7.28c9.58,6.34,19.48,12.89,29.47,18.93,3,1.8,6.43,2.36,10.79,3.07,2.32.38,4.94.8,8,1.48a3.61,3.61,0,0,0,3.72-5.61l-20-28.26c-4-12.28.52-22.66,5.29-33.64,3.28-7.52,6.65-15.27,7.35-23.87a41.69,41.69,0,0,0,6.15-6.09c3.33-3.8,6.21-7.08,11.16-8,5.51-1,8.21-7.69,10.63-18.22,7-5.31,14-10.59,20.51-15.49a3.59,3.59,0,0,0,1.35-3.64c-.21-1-.32-1.81-.43-2.55-.25-1.78-.49-3.46-1.78-4.86-.44-.47-1.76-1.89-20.69-11.29-19.39-9.62-20.54-9.46-21.78-9.27a30.1,30.1,0,0,1-5.79,0c-4.59-.25-9.79-.54-15.06,3.2-2,1.42-3.71,2-5.23,1.66-1.94-.38-4-2.18-6.26-5.48,1.17-4.27,3.58-5.84,8.9-6,3.1-.12,5.79-1.61,8.16-2.92,4.35-2.4,5.86-3,8.64.06a3.62,3.62,0,0,0,2.16,1.15c23.26,3.35,44.08,14.73,62.45,24.77a3.63,3.63,0,0,0,3.18.14c15.83-6.92,29-7.22,41.45-.94a47.24,47.24,0,0,0,15.09,4.8,84,84,0,0,0,13.14.31c1.79,0,3.58-.1,5.36-.1h27.65c17.69,12.26,37,28,47.7,51.92l1.27,2.82c6,13.42,6.21,13.79,1.26,27.05l-18.89,11.78a3.68,3.68,0,0,0-1.21,1.24l-19.49,33.25h-27.5a3.6,3.6,0,0,0-2.67,1.18l-7.94,8.72a3.61,3.61,0,0,0-.16,4.67l9.68,12.2-6,20.25a3.61,3.61,0,0,0,3.14,4.62l13.43,1.2a3.64,3.64,0,0,0,3.31-1.57c2.17-3.21,4.26-6.42,6.27-9.52,4.81-7.41,9.35-14.4,14.63-20.76,2.41-2.9,6.33-4.91,10.49-7,1.47-.75,3-1.53,4.44-2.36,1.65-.93,3.4-1.73,5.25-2.57,6.4-2.9,13.65-6.18,16.78-16.17.61-1.94,4.77-4.09,7.81-5.66a47.66,47.66,0,0,0,5-2.85,3.55,3.55,0,0,0,1.33-1.7l6.1-16.09c2.56,1.28,5.08,2.44,7.54,3.57,8.7,4,16.22,7.45,21.73,14.35,3.77,4.72,9.2,6.23,14.44,7.7,5.62,1.57,10.26,2.86,13,7.52-6.83,1.61-14.31,1.58-23.22,0l-.34-.07c-4.88-.89-9.06-2.09-10.75-7.83-2.67-9-12.13-16.89-24.42-13.72a3.69,3.69,0,0,0-2.24,1.72c-4.87,8.58-1,15.39,2.41,21.4,2.3,4,4.48,7.87,4.3,12.3l-15.26,16.54a3.61,3.61,0,0,0,1.23,5.77c8.46,3.62,16.79,6.32,25.54-.48,6.37-5,14.11-6.46,25-4.85,4.58,2.75,4.62,6.48,4.29,12.69,0,.78-.08,1.56-.11,2.33l-43.31,43.31a3.68,3.68,0,0,0-.85,1.35c-3.63,10.25,2.23,15.87,6.94,20.38a41.4,41.4,0,0,1,4,4.21,3.61,3.61,0,0,0,5,.69c3.38-2.49,6.93-4.94,10.35-7.3,8.25-5.69,16.78-11.57,24-18.7,4.67-4.59,7.16-10.77,9.79-17.31.64-1.58,1.28-3.18,2-4.77,1.37,1.44,2.3,3.58,3.5,6.52a35.69,35.69,0,0,0,4.84,9.1,3.61,3.61,0,0,0,6.33-1.34c2.47-9.61,9.83-14.64,18.36-20.46a128.3,128.3,0,0,0,11-8.07,3.61,3.61,0,0,0,.74-4.65l-21.36-34.74c1.73-1.31,4.77-2,8.6-1.76,4.22.22,8.46.14,12.56.06a143.29,143.29,0,0,1,14.42.22c9.62.79,18.28-1.11,25.09-5.51,8.22-5.3,13.31-5.36,19.43-.23,2.32,2,5.39,1.65,8.64,1.33l.79-.07.46,8.91c-22.86,12.42-23.22,12.25-36.44,5.91a3.59,3.59,0,0,0-4.84,1.74c-.84,1.83-2.75,2.36-6.9,3.14-5.75,1.08-14.45,2.71-15.48,15.44a3.6,3.6,0,0,0,3.2,3.88c16.72,1.84,28,10.36,33.53,25.34a3.6,3.6,0,0,0,3.39,2.36h13.63a3.61,3.61,0,0,0,3.56-4.23c-.15-.87-.23-1.71-.31-2.53a11.84,11.84,0,0,0-1.59-5.79c-1.81-2.65-3.8-5.1-6.24-8.06h24.16l25.74,30.94a3.6,3.6,0,0,0,4.62.79c16.55-9.85,17.32-24.86,16.68-39.38a3.6,3.6,0,0,0-1.4-2.71l-13.46-10.37a3.58,3.58,0,0,0-2.2-.76h-9.4l-9.25-10c11.72-10,23.78-5.67,36.49-1l1.63.59c6.17,2.23,11.72,6.47,17.59,11,2.65,2,5.4,4.13,8.21,6a3.59,3.59,0,0,0,2.57.58c17.62-2.73,34.12,3.5,48.68,9,12,4.51,23.31,11.84,34.28,18.93l5.29,3.41c2.77,1.77,5.16,4.41,7.68,7.2a62,62,0,0,0,6.58,6.59,77,77,0,0,0,10.52,6.88l.65.38-1.61,1.08c-8.76,5.91-16.32,11-26.21,11.36-11.86.42-19.31,8.1-26.5,15.52l-1.72,1.76a3.61,3.61,0,0,0,1.79,6.06c2.07.46,4.11.83,6.09,1.19a56.89,56.89,0,0,1,11.72,3,64.36,64.36,0,0,1,10.87,6.47c1.68,1.16,3.43,2.36,5.24,3.5a3.59,3.59,0,0,0,4.5-.52l15.7-15.94h15.05c8.94,5.2,13.6,14,18.51,23.4,3.05,5.79,6.2,11.78,10.5,17.07a3.63,3.63,0,0,0,2.7,1.33,3.75,3.75,0,0,0,2.77-1.18c8.22-9,4.93-17.34,2.53-23.42-1.18-3-2.29-5.78-2.14-8.32.22-3.6.31-7.23.39-10.74a142,142,0,0,1,1.37-19.64l13.61-40.57a3.61,3.61,0,0,0-.93-3.76l-14.16-13.52a3.6,3.6,0,0,0-3.13-1c-2.64.48-5.38,1-8.18,1.59a179.51,179.51,0,0,1-20,3.24,211.43,211.43,0,0,1-21.63.32c-1.88,0-3.8-.07-5.77-.09l.26-.49c1.22-2.23,2.47-4.54,3.35-4.93,1.41-.62,2.81-1.26,4.22-1.91,9.4-4.28,18.27-8.34,28.37-8.12,9.4.19,18.64.12,27.23,0h1.29c12.51-.15,25.45-.31,38.61-4.16,8.17-2.39,16.78-4,25.12-5.55,14.26-2.67,29-5.42,42.84-12.19,2.8-1.38,6.87-1.12,11.18-.86a65.54,65.54,0,0,0,7.29.18c5.23-.27,10.66-.14,15.91,0,15.91.37,32.36.75,47.91-9.05,2-1.28,6.28-.64,9.09-.22.86.13,1.65.24,2.37.31l7.38,5c-5.05,13.37-13.41,22.22-25.48,27-7.34,2.91-12.35,8-16.77,12.52-1.92,2-3.73,3.8-5.66,5.44a3.6,3.6,0,0,0-1.28,2.75v22.89a3.62,3.62,0,0,0,1.06,2.56l6.6,6.6a3.61,3.61,0,0,0,2.55,1.06h0a3.63,3.63,0,0,0,2.56-1.07l11.22-11.32a3.6,3.6,0,0,0,1.05-2.54v-11.3c.87-.56,1.73-1.16,2.57-1.74,2.29-1.59,4.84-3.43,6.51-3.32,30.12,1.43,40.5-17.41,47.33-38,4.56-13.74,12-28.52,32.18-34.16,10.27-.37,10.56-.25,32.18,8.93a3.58,3.58,0,0,0,3.26-.22l30.14-18,9.77,4.87,8.26,16.53a3.57,3.57,0,0,0,1.57,1.6l34.43,17.72a3.71,3.71,0,0,0,2.1.38l43.39-5.4,25,18a3.6,3.6,0,0,0,2.88.6l21.23-4.6c23.95,13.86,51.83,19.66,82.88,17.26a3.61,3.61,0,0,0,3.22-4.51,25.71,25.71,0,0,1-.52-2.82c-.4-2.75-.83-5.59-3.26-7.13-3.05-1.94-6.11-4-9.06-6-12.69-8.66-25.82-17.61-43.88-18.77a100.73,100.73,0,0,1-11.5-1.68c-6.9-1.27-14.05-2.59-21.27-1.59-19.07,2.61-34.11-5.74-47.53-15.17-3.59-2.52-7.16-5.07-10.71-7.6l-4.93-3.51a3.64,3.64,0,0,0-1.55-.63c-6.4-1-12.88-.72-19.14-.47-10.07.4-19.63.78-28.4-3.78l3-6.55,18.79-9.23c21.41.08,42.93-8.29,63.75-16.43,19.71-7.7,38.33-15,61.29-7.49,12.88,4.2,27,4.81,39.4,5.35,5.27.23,10.24.44,14.87.9a3.64,3.64,0,0,0,2-.4l41.68-22.14c15.5,9.05,32,8.59,46.64,8.18,4.9-.14,9.52-.27,13.88,0a3.52,3.52,0,0,0,1.7-.33l45.33-21c3.2,1.46,6.37,2.95,9.44,4.41,9,4.26,17.54,8.28,26.58,11.4,5.73,2,12.77.08,18.91-2,6.93-2.38,16.49-3.9,22.71,2.39,5.74,5.79,12.7,7.5,18.85,9,4,1,7.73,1.9,11,3.78,4.24,2.43,11.15,2.86,16.08,1,17.72-6.67,36.76-9.46,58.18-8.54,8.93.39,15.93-1,22.73-4.66,1.4-.74,3.44-.57,5.8-.36,3.91.34,9.25.8,14-3.42,1-.87,4.92-.72,7.28-.64,1.07,0,2.13.09,3.1.07,8.2,0,16.54,0,24.6.07,14.92.1,30.35.2,45.53-.29,22.08-.72,44.54-2.73,63.86-4.55,5.6-.53,13.54-2,19.6-6.14,9.05-6.14,19.78-4.08,27.07-2,13.87,4,25.65,3.95,39.39,0,11.25-3.26,20.16-2.66,27.24,1.84,3.49,2.21,8,2.09,11.94,2,1,0,1.93-.06,2.85,0,42.43.61,42.43.61,82.3,14.28l.84.28c2,.69,4,1.42,6,2.16,8.14,3,16.54,6.15,25.94,5.87,17.09-.52,34.22,2.16,53.95,8.44,4.89,1.55,10.26.25,16.48-1.26,2.68-.65,5.68-1.38,8.94-2,1.29.7,2.75,1.45,4.28,2.24a140.56,140.56,0,0,1,17.88,10.42h0c5.37,3.88,10.32,8.7,15.56,13.8,2.13,2.07,4.31,4.2,6.63,6.37C3532.58,1286.35,3532.41,1288.84,3531.72,1289.52Zm-965.94,588.07-6,1.66a3.13,3.13,0,0,1-.49.08,8.36,8.36,0,0,1,3.51-1.58C2563.81,1877.73,2564.8,1877.68,2565.78,1877.59Zm-435.72-355c3.48-2.8,8.06-5.89,11.93-6.11,13.92-.79,22.89-7.73,32.36-16,6-5.29,12.23-9.8,16.61-6.93,6.5,4.25,12.68,4.08,17.65,4a32.33,32.33,0,0,1,5.74.16,3.57,3.57,0,0,0,2.47-.5c6.37-4,10.07-9.19,12.75-14.83a53,53,0,0,0-2.42,9.67c-.19,1.29-.34,2.69-.5,4.15-.88,8.28-2,14.43-7.62,16.88l-34.11-14.24a3.63,3.63,0,0,0-3.88.71l-24.4,23.12Zm101.76-45.68c.64-1.69,1.24-3.4,1.83-5.1,2.44-7,4.76-13.68,10-18.44a130.76,130.76,0,0,0,14.19-2.55c6.35-1.38,12.84-2.8,19.56-2.84a35,35,0,0,1-7.48,1.77C2253.29,1451.43,2239.12,1462,2231.82,1476.92Z"/><path d="M800.84,879.45c8.2,8,16.67,16.35,28.14,22.08A95.26,95.26,0,0,1,859.72,926h0c3.88,4.82,8,9.43,12.08,13.89,4.61,5.1,9.38,10.37,13.58,15.84l.92,1.2c6.58,8.53,13.38,17.36,13.16,28.69a3.63,3.63,0,0,0,1.23,2.79,38.33,38.33,0,0,1,3.71,3.93c4,4.57,9.4,10.84,19.44,8.27a3.52,3.52,0,0,0,1.56-.85l13-12.11,50.86,38.73a3.6,3.6,0,0,0,4.54-.13l1.87-1.61,1.82,1.21c3.43,2.31,7,4.7,11.08,6a9.53,9.53,0,0,0,3.08.48,26.78,26.78,0,0,0,6.77-1.23c1.52-.4,3.1-.82,4.79-1.13a3.61,3.61,0,0,0,2.41-5.49c-9.42-14.81-22.05-22.44-34.26-29.83-2.68-1.62-5.46-3.3-8.1-5a51.35,51.35,0,0,0-7.86-3.91c-3.15-1.34-6.11-2.61-8.33-4.5-9.75-8.29-19.41-17.06-28.75-25.55-5.65-5.13-11.49-10.43-17.3-15.58-1.36-1.21-2.68-2.45-4-3.68-4.44-4.15-9-8.44-15.19-11.74-13.33-7.13-22.27-14.62-26.58-22.28-10.72-19-25.23-27.51-45.55-26.6-1.23-1.21-2.46-2.46-3.65-3.67-7.9-8.07-16.08-16.41-29.89-19a3.62,3.62,0,0,0-4.26,3.13l-1.33,11.39a3.67,3.67,0,0,0,1.18,3.12C794.87,873.6,797.91,876.58,800.84,879.45Zm-2.2-18.21c9.41,2.89,15.69,9.29,22.29,16,1.59,1.63,3.24,3.31,4.92,4.92a3.61,3.61,0,0,0,2.75,1c18.34-1.25,30.79,5.8,40.4,22.85,5.06,9,14.7,17.2,29.47,25.1,5.32,2.85,9.37,6.63,13.65,10.64,1.37,1.28,2.74,2.56,4.15,3.81,5.78,5.13,11.6,10.42,17.23,15.53,9.38,8.52,19.09,17.34,28.93,25.71,3.05,2.59,6.67,4.13,10.17,5.63a46.14,46.14,0,0,1,6.79,3.34c2.72,1.76,5.54,3.46,8.27,5.11,10.22,6.18,20.76,12.55,29,23.29h0c-2.39.64-4.64,1.23-5.72.88-3.16-1-6.15-3.06-9.32-5.19-1.39-.94-2.83-1.91-4.3-2.8a3.63,3.63,0,0,0-4.23.35l-1.68,1.45-51-38.8a3.63,3.63,0,0,0-4.65.23L921.2,993.84c-4.89.91-7.43-1.69-11.34-6.2-1-1.17-2.05-2.37-3.18-3.5-.36-13-7.94-22.87-14.66-31.59l-.91-1.19c-4.38-5.7-9.25-11.08-14-16.29-4-4.38-8-8.91-11.8-13.57a101.36,101.36,0,0,0-33.14-26.44c-10.45-5.22-18.16-12.77-26.31-20.77-2.56-2.5-5.19-5.08-7.9-7.56Z"/><path d="M652,721a3.62,3.62,0,0,0-1,4.91l6.9,10.8c5.38,8.43,10.68,16.73,16,25,4.66,7.35,12,8.78,18.87,9.26l68.12,68.44a3.59,3.59,0,0,0,2.56,1.06,3.66,3.66,0,0,0,1.54-.34l10.71-5a3.6,3.6,0,0,0,1.19-5.63c-5-5.79-9.82-11.13-14.48-16.3-9.71-10.77-18.87-20.94-26.52-31.72-6.2-8.73-14.19-15.34-21.92-21.73-7.29-6-14.17-11.72-19.61-19C690,734.87,685,729,678.74,725.68a46.9,46.9,0,0,1-4-2.5C669.18,719.44,661.56,714.32,652,721Zm18.72,8.18a52.63,52.63,0,0,0,4.67,2.91c5,2.63,9.28,7.79,13.15,13,6,8,13.5,14.23,20.8,20.27,7.7,6.37,15,12.38,20.63,20.34,7.89,11.13,17.19,21.45,27,32.38,3.65,4,7.4,8.2,11.25,12.59l-4.08,1.91L696.88,765a3.58,3.58,0,0,0-2.36-1.06c-7.23-.41-11.69-1.49-14.55-6h0c-5.28-8.32-10.59-16.63-16-25.06l-4.78-7.49C663,724.18,666.12,726.09,670.71,729.17Z"/><path d="M800.67,938.66l-5.45,13.72a3.61,3.61,0,0,0,.5,3.54,45.75,45.75,0,0,0,3.39,3.78c3.2,3.32,6,6.18,6,11.4a10.62,10.62,0,0,0,3.83,8.41c2.6,2.15,6.41,3.25,11,3.25a36,36,0,0,0,6.61-.66,3.6,3.6,0,0,0,2.69-2.2c1.72-4.29,4.58-8.36,7.61-12.68,7.19-10.25,15.34-21.86,9-39a3.62,3.62,0,0,0-2.5-2.25l-24-6.08-6-10.39a3.53,3.53,0,0,0-3.19-1.8c-1.15,0-2.31,0-3.48,0-7.2-.15-18.11-.36-20.49,13.9a3.65,3.65,0,0,0,1,3.1Zm6-23.73,1.61,0,5.74,9.91a3.59,3.59,0,0,0,2.23,1.69l23.54,6c3.84,12.6-2.29,21.33-8.76,30.55a83.24,83.24,0,0,0-7.57,12.23c-4.44.57-8.12.08-9.87-1.36a3.37,3.37,0,0,1-1.21-2.89c-.05-8.11-4.47-12.68-8-16.36-.55-.57-1.08-1.12-1.57-1.66l5.5-13.87a3.59,3.59,0,0,0-.76-3.83l-13.72-14.27C795.31,915,799,914.77,806.62,914.93Z"/><path d="M562,633.4l23.5,15.77a3.63,3.63,0,0,0,4.58-.45l.34-.35,7.43-7.46a3.61,3.61,0,0,0,.09-5c-16.36-17.53-16.36-17.53-17.24-40.95a3.72,3.72,0,0,0-.27-1.24l-15.65-37.91a3.64,3.64,0,0,0-4.72-2l-14.48,6a3.6,3.6,0,0,0-2,4.53L558.92,608a3.61,3.61,0,0,0,1.51,1.87V630.4A3.6,3.6,0,0,0,562,633.4Zm-10.49-68.21,8-3.3,14,34c.9,23.35,1.72,26.13,16.79,42.41l-3.24,3.24-19.43-13V606.19a3.62,3.62,0,0,0-1.5-2.93,3.76,3.76,0,0,0-1.44-.62Z"/><path d="M2911.57,1828.28c-3.48-4.77-6.49-8.89-8.6-13.37-5.58-11.89-12.71-18.22-23.14-20.5a3.83,3.83,0,0,0-3.41,1.06q-12,11.92-23.88,23.84a3.58,3.58,0,0,0-1.06,2.55,3.62,3.62,0,0,0,1.06,2.56l7.18,7.17a3.58,3.58,0,0,0,2.55,1.06h22.58l15.35,24.67a3.62,3.62,0,0,0,3.06,1.71h10.57a3.62,3.62,0,0,0,3.61-3.62v-17.74a3.67,3.67,0,0,0-.62-2C2915,1833,2913.27,1830.6,2911.57,1828.28Zm-1.35,23.52h-4.95l-15.35-24.67a3.61,3.61,0,0,0-3.06-1.7h-23.09l-3.57-3.57,20-19.91c7.11,2.1,12,7,16.29,16,2.39,5.11,5.75,9.7,9.3,14.56,1.46,2,3,4.06,4.48,6.25Z"/><path d="M203,931.68h.19l11.43-.6c16.62-.88,32.33-1.71,48.19-2.67,2.23-.13,3.8-1.61,5-2.69l.61-.57c.87-.74,1.62-1.5,2.65-2.56.51-.53,1.11-1.14,1.85-1.88a3.61,3.61,0,0,0,.08-5c-10.63-11.41-21.07-15.38-31-11.79-6.38,2.3-13,3.39-20,4.54-8.57,1.41-17.43,2.87-26.29,6.69a3.64,3.64,0,0,0-2,2.24,3.59,3.59,0,0,0,.38,3l6,9.62A3.62,3.62,0,0,0,203,931.68Zm20.07-16.11c7-1.16,14.3-2.35,21.31-4.88,6.31-2.27,13.33.24,20.87,7.46-.61.63-1.09,1.1-1.56,1.5-.28.24-.57.51-.87.79s-.62.59-.87.78c-15.68.94-31.25,1.76-47.71,2.63l-9.3.49-2.54-4.1C209.27,917.85,216.29,916.69,223.11,915.57Z"/><path d="M932.54,1130.25l-9.79-17.19a3.6,3.6,0,0,0-2.91-1.82c-7.71-.49-13.11,1-16.51,4.43-3.15,3.21-4.41,7.94-3.86,14.46a3.57,3.57,0,0,0,.73,1.9l19.39,25.19a3.61,3.61,0,0,0,2.86,1.41,3.57,3.57,0,0,0,1.73-.45c11.37-6.23,9.88-15.54,9-21.11a14.31,14.31,0,0,1-.33-3.91A3.66,3.66,0,0,0,932.54,1130.25Zm-9.28,19.9-16.67-21.66c-.18-3.73.44-6.28,1.9-7.77s4.56-2.4,9-2.34l8.14,14.3a21.68,21.68,0,0,0,.43,5.53C926.76,1142.73,927.4,1146.72,923.26,1150.15Z"/><path d="M656.81,695,623.3,655.28a3.61,3.61,0,0,0-3.18-1.25L603.24,656a3.62,3.62,0,0,0-2.52,1.49,3.57,3.57,0,0,0-.59,2.87c2.07,9.55,8.85,13.31,14.3,16.33,3.42,1.9,6.38,3.54,8.1,6.24,4,6.22,9,11.85,13.83,17.29,2.12,2.38,4.3,4.84,6.39,7.33a3.61,3.61,0,0,0,2.54,1.28h.23a3.62,3.62,0,0,0,2.46-1l8.53-7.91A3.6,3.6,0,0,0,656.81,695Zm-11,5c-1.36-1.56-2.72-3.1-4.06-4.6-4.87-5.48-9.47-10.65-13.14-16.39-2.71-4.23-6.77-6.48-10.69-8.65s-7.32-4.06-9.34-7.72l10.44-1.2,30,35.56Z"/><path d="M1796.58,1961.36h-17a3.62,3.62,0,0,0-1.8.48L1751.48,1977a3.61,3.61,0,0,0-1.81,3.13v10.83a3.62,3.62,0,0,0,3.61,3.62h26.18a3.62,3.62,0,0,0,3-1.63l17.12-26a3.62,3.62,0,0,0-3-5.6Zm-19.06,26h-20.63v-5.13l23.67-13.6h9.31Z"/><path d="M1968.42,1924.56h-12a3.63,3.63,0,0,0-2.21.76l-15.9,12.3a3.61,3.61,0,0,0-1.07,4.36l6.27,13.71a3.62,3.62,0,0,0,2.62,2,54.15,54.15,0,0,0,9.9,1.22c5.38,0,10.83-1.59,15.24-7.47a3.63,3.63,0,0,0,.73-2.17v-21.13A3.62,3.62,0,0,0,1968.42,1924.56Zm-3.61,23.48c-3.48,4-7.71,4.25-15.47,2.92l-4.3-9.38,12.66-9.79h7.11Z"/><path d="M941.44,1178.28a3.6,3.6,0,0,0,3.38,2.35h13.7a3.61,3.61,0,0,0,3.53-4.41l-5.6-24.56a3.63,3.63,0,0,0-2.12-2.53l-12.51-5.26a3.63,3.63,0,0,0-4.06.87l-4.77,5.15a3.61,3.61,0,0,0-.73,3.71Zm-.09-26.77,8.47,3.56,4.18,18.34h-6.67l-7.53-20.24Z"/><path d="M849,972.44a3.6,3.6,0,0,0-3.45,3.61v21.09a3.62,3.62,0,0,0,3.61,3.61l.41,0c13.13-1.5,21.67-3.41,20.85-15.91C869.66,972.54,859.44,972,849,972.44ZM852.81,993V979.57h.13c9.94,0,10.1,2.45,10.32,5.72C863.53,989.47,863.66,991.45,852.81,993Z"/><path d="M971.44,1112.39c8.64-11-.33-18.78-5.16-22.94a3.62,3.62,0,0,0-5.22.52c-6.66,8.63-11.53,16.31-3.63,23a3.63,3.63,0,0,0,2.32.84h8.85A3.62,3.62,0,0,0,971.44,1112.39Zm-4.7-5.84h-5.57c-1-1.24-1-3.06,3.26-9C968,1101.05,968.79,1103.29,966.74,1106.55Z"/></g></g></svg>