<svg xmlns="http://www.w3.org/2000/svg" viewBox="0 0 2420.2 2747.05"><title>Asset 1</title><g id="Layer_2" data-name="Layer 2"><g id="Layer_1-2" data-name="Layer 1"><path d="M2415.49,920.33c-6.76-.08-9.92-4.23-14.52-11-.94-1.38-1.91-2.81-2.95-4.21h0c-8.88-11.92-17.73-23.49-27.09-35.73q-5.73-7.5-11.55-15.12l-2.58-3.39-3.66,2.19-14.56,8.71c-10.78,6.44-21,12.53-31.27,18.76-16.68,10.09-35.59,21.53-54.15,33-10.38,6.4-20.88,13-31,19.31-11.89,7.43-24.19,15.11-36.33,22.56-10.68,6.56-21.61,13.15-32.17,19.51s-21.46,12.93-32.15,19.49c-10,6.13-20.07,12.45-29.82,18.55-12.28,7.69-25,15.64-37.56,23.28-8,4.85-16.26,9.58-24.26,14.16-8.29,4.75-16.86,9.65-25.17,14.72-12.75,7.77-25.58,15.84-38,23.64-10.17,6.39-20.68,13-31.06,19.4-11,6.77-22.26,13.55-33.16,20.11-10.22,6.16-20.8,12.53-31.15,18.89-11.1,6.82-22.33,13.83-33.19,20.61-11.2,7-22.77,14.22-34.21,21.23-4.38,2.69-9.11,5.15-13.68,7.53l-3.34,1.75a38.49,38.49,0,0,1-4.75-8.7c-2.43-5.48-5.19-11.7-11.55-15.79-2.3-1.47-4.58-3-6.86-4.53a180.63,180.63,0,0,0-17-10.52c-11.72-6.1-17.71-13.17-19.64-23.36l38.58-38.22-3-3.38c-6.26-7-14-10.32-21.46-13.5-5.21-2.22-10.13-4.32-14.19-7.56l-4.44-3.55-2.72,5c-2.15,4-4.51,7.84-6.8,11.59-5.41,8.89-10.53,17.29-13.12,26.8-2.46,9-1.88,18.46-1.31,27.59.23,3.8.45,7.38.45,10.85v1.68l1.06,1.31c12.73,15.78,19,29.11,21,44.56.25,1.91.46,3.87.67,5.84,1,9,2.07,19.27,7.24,28.6,5.35,9.66,9,20.53,12,30a86.93,86.93,0,0,0,4.15,10c3.16,6.79,6.14,13.2,4.24,19.17-1.39,4.34-5.65,8.5-9.78,12.52-1.29,1.27-2.62,2.57-3.89,3.9-6.85-2.57-11.77-7.59-17.37-13.31a103.4,103.4,0,0,0-11.51-10.58l-2.13-1.61L1670,1296.8l-53-42.14-2.76,2.09a9,9,0,0,0-3.33,3c-2.15,3.38-2.93,7.51-3.62,11.16-.79,4.23-1.47,7.25-2.92,7.6-3.2.75-6.45,1.67-9.59,2.57-10.49,3-20.4,5.81-29.9,3.17-4.91-1.36-9.53-5.21-14.42-9.28-2.32-1.93-4.72-3.92-7.21-5.69l-3.09-2.19-12.48,11.14a10.17,10.17,0,0,1-.53-4.58c.48-2.23,3.08-5.32,7.8-10.94l2.72-3.23-19.76-21.16v-19.46L1468,1162.26l-28,41.56,1,2.38c1.94,4.63,5,8.59,7.87,12.41,4.43,5.82,8.38,11,8.64,18.1l-1-.38c-5.17-2-10.06-3.9-15.09-5.65-3.3-1.15-6.66-2.11-9.9-3-2.37-.67-4.81-1.37-7.16-2.12-9.48-3-15-6.7-27.35-19l29.36-18.73-51.18-74.19-16.34,8.41-65.95-49.11,4.53-32.82L1271,1021.12c25.2-10.9,35-33.1,43.8-52.91l1.14-2.57-1.7-2.24c-6.79-8.95-16.14-14.6-25.19-20.06a146,146,0,0,1-13.7-9c-.88-.68-1.76-1.34-2.64-2a85.44,85.44,0,0,1-6.82-5.49l70,26.12v-6.86c0-3.58.08-7.2.17-10.71.2-8.46.41-17.21-.61-25.76-.71-6-4-12.61-9.88-19.76a122.51,122.51,0,0,0-8.57-9.32l4.54,1.94c3.06,1.32,6,2.56,9,3.74,6.72,2.63,14.93,5.38,24.81,5.77,15.57.62,30.86,2,47,3.35,6.43.56,12.91,1.13,19.46,1.65l2.19.17L1471,850.13l18.81,17.35,3.18-2.42c1.64-1.24,3.32-2.53,5-3.84,4.15-3.18,8.43-6.47,12.8-9.6a56.73,56.73,0,0,1,9.41-5.51c6.78-3.07,8.83,1.18,9.5,2.58a75.68,75.68,0,0,1,3.42,9.08c1,3.11,2.09,6.32,3.54,9.6l8.85-3.52a1.64,1.64,0,0,1,0,1.12,11,11,0,0,1,1.36-1.47c1.67-1.64,4.2-4.13,4.08-7.89a8.19,8.19,0,0,0-.57-2.75c4.29-1.69,8.59-3.35,12.9-5,6.15-2.38,12.52-4.83,18.76-7.36a44.3,44.3,0,0,0,6.84-3.72c1.1-.68,2.3-1.42,3.64-2.2l5.38-3.1-4.39-4.39c-1.84-1.84-3.64-3.6-5.41-5.31-3.77-3.67-7.34-7.14-10.56-10.79a63.29,63.29,0,0,0-5.61-5.42,39.49,39.49,0,0,1-6.64-6.89l17.48-8.86-.62-3.49c-2.15-12-7.81-22.47-13.28-32.56-2-3.78-4.17-7.69-6-11.55-3.49-7.27-4.93-15.06-6.45-23.31-1.4-7.61-2.85-15.48-6-23.37l-1.2-3h-12.45l-48.16-59.27,17.78-35L1455,615.48,1438.7,587l20.61-1.58-5.46-7a23.29,23.29,0,0,1-1.37-1.94,11.11,11.11,0,0,0-4.07-4.17c-7.39-3.84-13.59-9.4-20.15-15.28-7.22-6.46-14.67-13.14-24-17.59a12.75,12.75,0,0,1,.3-5.1,176.81,176.81,0,0,1,10.17-16.75c1.58-2.41,3.2-4.87,4.82-7.44l2-3.22-2.69-2.7-5.19-5.17c-3.87-3.86-7.83-7.8-11.75-11.79-4.08-4.14-6.77-6.88-7-8.45s1.42-5.2,4-10.68q2-4.19,3.88-8.35l3.7-8-22.31-12.14c.31-1.09.63-2.17.94-3.24,3.24-11,6.91-23.4-5.44-35.53-4.29-4.21-7.44-9.83-10.78-15.79-1.56-2.77-3.17-5.64-4.92-8.39l-1.33-2.1-2.48-.11a115.23,115.23,0,0,1-52.94-15.29,187.92,187.92,0,0,0-33.08-14.41,4.18,4.18,0,0,1-1.15-.52,10.15,10.15,0,0,1-.46-1.25,25.54,25.54,0,0,0-.94-2.49c-3.57-7.89-2.31-13.82,4.48-21.15a99.83,99.83,0,0,0,9.47-12.56c1.23-1.83,2.39-3.55,3.59-5.21l2.11-2.93-26.67-33.48,32.91-32.9-3-3.36c-1.49-1.69-2.81-3.36-4.08-5-2.71-3.43-5.27-6.66-8.72-9-11-7.55-21.3-16.51-31.26-25.17-9.67-8.41-19.67-17.1-30.48-24.7-8.39-5.89-15.67-13.22-23.38-21-3.4-3.42-6.91-7-10.49-10.31l-6.18-6.18-.94-.36a4.94,4.94,0,0,1-2.26-1.72l-1-1.36-1.63-.43-1.6-.4a15.32,15.32,0,0,1-4.67-1.6l-1.75-1.22c-5.28-3.67-10.74-7.46-14.73-12C1145.75,102.15,1139,97,1132.46,92c-7.35-5.61-14.92-11.37-21.19-19.1l-2.12-4.05a7.29,7.29,0,0,1-.75-2.42l-2.08-15.33-4.6,9.21-33.45-21.15-2.55,3.49c-.18.16-.62.49-1,.73-1.82,1.35-4.86,3.6-5.39,7.64-.39,3,.69,6.05,3.31,9.35,1,1.29,1,5.55.92,8.37,0,.88,0,1.74,0,2.56.06,9.55,0,19.28,0,28.68,0,15.6-.09,31.73.26,47.61,0,.8,0,1.61,0,2.45.15,9,.31,19.22,5.73,25.75,4.33,5.23,5.2,11.53,6.12,18.19.8,5.77,1.62,11.71,4.66,17.31-1.61,11.7.34,23,2.22,33.85,1.35,7.82,2.63,15.22,2.7,22.77a122.73,122.73,0,0,0,2.08,18.84c1.32,8,2.56,15.63,1.73,23.33a36.18,36.18,0,0,0-.15,4.41h-22.9l-1,3.52c-3.11,11.44-1.16,22.19.72,32.59,1.73,9.54,3.37,18.57,1.25,28l-51.57,69.84c-2-1.72-3.92-3.44-5.85-5.14-8.16-7.18-15.87-14-24.1-20.39-4-3.09-11-6.6-17.65-6.32-10.34.44-18.45-4.74-27-10.22l-3.12-2-1.22-.76c-11.49-7.2-23.36-14.63-37.44-17.35l-2.33-.45L895,387.43c-18.81,17-38.87,31.35-56,43.18-5.64,3.89-9,10.12-12.32,16.14-1.24,2.27-2.41,4.41-3.67,6.38-1.65,2.58-3.07,5.25-4.45,7.85-4-2.62-6.08-5.21-11.25-14.33.4.29.83.6,1.3.91l3.9,2.67,14.43-20.69-4-16.82,18.31-18.32-.76-2.69c-2.92-10.26-9.54-17.73-15.95-25-4.78-5.4-9.73-11-13-17.68l-2.65-5.43-15.58,12.83a5.26,5.26,0,0,1-.54-.57c-6.38-9.09-8.79-16.6-8-25.1.44-5-2-9.72-4.2-13.89-.55-1-1.09-2.08-1.56-3.09-2.63-5.59-5.39-11.19-8.07-16.62-2.44-4.95-5-10.07-7.36-15.12-1.45-3.06-2.7-6.28-4-9.69-.65-1.65-1.3-3.33-2-5.06l-1.06-2.61-9.8-1.15a22.29,22.29,0,0,1-.2-2.61c9.26-10.52,2.93-18.57-2.17-25.06-1.14-1.44-2.27-2.88-3.41-4.31-10.45-13.22-21.27-26.89-28.48-42.58-7.09-15.43-11-26.49-.56-39.08,3-3.69,4.12-8.42,4.83-11.55.16-.71.35-1.53.46-1.85l1-2.83-32.31-32.28-17.69,18.23,10.74,16.28H666.24l-8-17.53-43,7.08v19.34a5.12,5.12,0,0,1-1,.27c-5-.46-10.13-1-15.08-1.6-8.4-1-17.08-2-25.72-2.4-13.16-.7-26.49-.39-39.39-.09l-1.18,0c-2.71.05-4.68-.72-6.4-4.79-1.48-3.51-3.19-6.92-4.85-10.21-5-10-9.71-19.34-8-30.69.73-4.91-1.27-9.53-3.2-14-.76-1.75-1.47-3.41-2-5l-1.83-5.71-15.77,9.41c-2.81-1.95-6.07-2.11-8.29-2.21a11.55,11.55,0,0,1-2.57-.28c-9.12-6.65-19.33-10.43-29.2-14.08-5.66-2.09-11-4.07-16.2-6.56-12.89-6.18-21.47-13.35-25.5-21.31-5-9.87-12.93-11.59-18.29-12.74-11.43-2.48-22.83-6.12-33.86-9.63-10.5-3.36-21.37-6.83-32.42-9.35L307.36,0,305.5,1.81c-17.56,17.08-34.27,36.43-52.58,60.88a69.41,69.41,0,0,1-8.71,9c-1.41,1.31-2.83,2.62-4.2,4-1,1-2.49,2.15-4,2.15h0a5.74,5.74,0,0,1-3.61-2c-8.06-8.3-17.13-9.28-27.72-3C199,76.24,192.22,77.79,184,77.58s-16.49.07-24.52.33c-14.13.46-28.75.93-42.48-1.25-16.27-2.57-32.48-2.86-48.16-3.14-4.7-.08-9.55-.17-14.33-.32l-1,0c-8.56-.29-19.19-.64-24.6,14.27-1.92,5.29-6.45,10-11.25,15a107.47,107.47,0,0,0-8.24,9.27c-6.82,9-13.66,21.22-6.05,36.68,1,2,1.32,4.68,1.67,7.52a46.66,46.66,0,0,0,1.31,7.26c2.64,9.22,7.32,18.25,14.32,27.62,10.27,13.74,21.74,27.93,36.09,44.67,4.54,5.3,6.79,11.06,7.53,19.28,1.47,16.5,3.87,29.92,7.53,42.23.73,2.46-.13,6.21-1,9.83-.27,1.18-.53,2.35-.76,3.49a91.34,91.34,0,0,1-4.62,14.6c-3.4,9-6.91,18.33-5.7,29.19.92,8.26,6.32,16.69,16.5,25.75L81,384l6-12.29c2.68,10.21,7.56,19.35,12.29,28.19,5,9.43,9.79,18.33,12.09,28.42s8.82,19.1,15.11,27.7c.74,1,1.48,2,2.2,3,7.57,10.49,15.75,20.74,23.67,30.66q3.75,4.68,7.48,9.39L146.6,512.24l-.36,1.08c-5.73,17.52-5.79,34.68-5.85,51.26,0,6.95,0,14.13-.51,21.08-.75,11.13-4.34,22.56-7.81,33.61l-.57,1.84c-3.46,11-5.14,16.08-8.61,19.69-3.65,3.8-10,6.75-22.53,12.64l-1.12.52a11,11,0,0,0-3.49,2.82c-.17.18-.32.36-.48.52l-2.65,2.48L94.31,663c2.11,4,4.14,8.22,6.09,12.3,4.58,9.55,9.32,19.42,15.78,28.07s14.23,15.93,21.83,23.07c3.93,3.7,8,7.52,11.74,11.41,4.55,4.73,10.33,5,15,5.31,4.41.25,7,.5,8.8,2.76l1.7,2.15,2.72-.39c9.88-1.44,16.84,3.75,24.89,9.75a105.14,105.14,0,0,0,9.44,6.53c5.51,3.26,11,6.88,16.32,10.39,7.8,5.13,15.86,10.44,24.34,14.88a88.83,88.83,0,0,1,23,17.22c3.66,3.78,7.44,7.5,11.11,11.11,4.73,4.65,9.63,9.47,14.19,14.37,12.68,13.6,27.05,29,40.14,44.58,5.69,6.76,9.18,13,10.38,18.48,2.9,13.33,8.33,25.63,13.59,37.53,2.1,4.75,4.26,9.66,6.2,14.49,3.41,8.5,5.22,16.8,6,27.75.53,7.06,1.55,14.11,2.54,20.94.54,3.75,1.1,7.62,1.56,11.42a56.76,56.76,0,0,1,0,9.85c-.39,7.34-.84,15.61,4.3,23.33,1.54,27.06-1.61,51-9.62,73.12a97.82,97.82,0,0,0-3,10.82c-.54,2.31-1.06,4.49-1.68,6.64-3.37,11.63-9.87,22.32-16.15,32.65-1.65,2.7-3.28,5.39-4.86,8.09-6.39,10.91-12.55,22.14-18.5,33-4.31,7.86-8.77,16-13.27,23.9-2.66,4.7-5.45,9.46-8.15,14.07-4.81,8.22-9.79,16.72-14.36,25.32-2.94,5.54-9.23,9.8-15.89,14.32a119.46,119.46,0,0,0-10.69,7.83c-2.47,2.12-5.14,4.24-7.71,6.29-8,6.35-16.2,12.91-21.87,21.44a92.06,92.06,0,0,1-10.46,12.38c-2.61,2.74-5.1,5.36-7.29,8.15l-62.27,12.22,1.41,5q.67,2.37,1.37,4.69c1,3.4,2,6.61,2.71,9.87,1.94,8.44,7.09,12.74,15.76,13.17,10.58.52,17.71,5.18,23.13,15.11a107.29,107.29,0,0,0,39.22,41.07,160.26,160.26,0,0,1,14.28,10.09c1.49,1.13,2.94,2.24,4.36,3.29.1.4.19.78.28,1.12s.24.92.28,1.18c-2.88,19.2,2.87,36.41,8.43,53.06,2.08,6.22,4.22,12.65,5.83,19,4.17,16.42,13,32.18,27,48.19,22.38,25.56,32.86,55.65,39.49,79,2.09,7.36,4.52,14.62,7.1,22.3,1.22,3.65,2.49,7.42,3.77,11.36l.75,2.31,2.31.75c1,.34,2.23.69,3.57,1.08a89,89,0,0,1,12.05,4.2c1.76.81,3.65,2.89,3.84,3.67,1.27,9.33,4.76,17.44,8.53,25.62a11.16,11.16,0,0,1-1.44,10.94c-2.82,4-4.56,8.38-6.25,12.67a53.56,53.56,0,0,1-4.86,10.23c-5.81,8.61-8.58,17.88-8.72,29.15,0,3.78-1.27,7.74-2.57,11.94-.6,2-1.23,4-1.73,6l-.66,2.63,30,29.61v22.12l-6.64,3.23c-.09-.28-.16-.55-.23-.81-3.54-14.18-9.31-28-27.34-33.23-4.43-1.28-8.67-3.94-13.16-6.76-2.12-1.33-4.31-2.71-6.55-3.95l-5.28-2.92-1.62,5.81c-1.4,5-5.22,8.65-9.64,12.87a66.85,66.85,0,0,0-8.91,9.71l-1.28,1.81.56,2.15c.2.79.39,1.62.59,2.49a47.21,47.21,0,0,0,2.06,7.24c.79,2,1.49,3.82,1.38,4.52-.13.88-1.33,2.81-3,5.48l-2,3.18c-3,4.93-4.67,15.1-.63,20.48,1.87,2.48,1.73,4.63,1.54,7.6-.06,1-.13,2-.12,3a25.48,25.48,0,0,1-2.67-.12c-3.79-.29-10.87-.86-13.64,7.89l-2,6.21h23.13l.93,3.8c1.37,5.62,2.78,11.42,4.45,17.16,2.11,7.25,4.35,14.57,6.52,21.65,3.11,10.16,6.32,20.65,9.16,31s5.51,20.93,8.1,31.17c4.85,19.24,9.88,39.14,16.22,58.47,4.87,14.86,8.41,30.55,11.83,45.72,2,8.83,4.05,18,6.36,26.9,2.12,8.23,4.55,16.48,6.9,24.46,2.75,9.34,5.59,19,7.93,28.56,2,8,4.21,16,6.4,23.74,3.08,10.92,6.26,22.2,8.58,33.46,2.1,10.21,5.21,20.26,8.22,30,2.35,7.59,4.78,15.44,6.67,23.21,2.5,10.28,5.53,20.51,8.47,30.4,2,6.84,4.12,13.92,6,20.91,2.59,9.58,5,19.42,7.31,28.94,4.9,20.08,10,40.84,17.18,60.82a135.09,135.09,0,0,1,4.79,18.69,147.62,147.62,0,0,0,5,19.58c6.93,19.54,15.13,38.72,23.62,58.29,2.25,5.18,6,10.44,11.32,16.08,4.59,4.82,9.42,9.5,14.1,14,6.76,6.55,13.75,13.33,19.92,20.46,20.55,23.75,47.24,37.83,70.64,49.17a118.45,118.45,0,0,1,12,7.05c3.17,2,6.45,4.1,9.86,5.95,7,3.81,12.38,5.77,16.05,2.94,5.2-4,10.95-3.56,17.6-3,2.52.19,5.13.4,7.75.34,12.8-.26,25.84-.22,38.46-.18,12.36,0,25.14.07,37.73-.16,6.9-.11,13,1.86,19.66,6.45,4.15,2.85,8.33,5.88,12.36,8.81,5.57,4.05,11.33,8.23,17.25,12.08,14.47,9.4,30.1,8,44.83,5,4.54-.91,9.17-1.76,13.26-2.52l1.8-.33q2.24,4,4.34,7.91c4.8,8.81,9.34,17.13,14.64,25,4.25,6.32,13.25,8.77,15.91,9.37,6.11,1.38,12.35,2.19,18.38,3,3.48.45,7.06.92,10.55,1.49l.32.52a19.89,19.89,0,0,0,1.36,2l1.43,1.81h12.77l1.4-1.43c3.74-3.79,8.86-5.59,14.29-7.5a77,77,0,0,0,9.87-4,353.42,353.42,0,0,0,54.14-34.86c10.89-8.39,22.44-16.39,33.61-24.12q6.8-4.7,13.55-9.43c1-.71,2.11-1.36,3.29-2a42.08,42.08,0,0,0,5.28-3.48l1.55-1.25c9.32-7.55,15.49-12.54,27.24-6.34,6.52,3.45,14.53,2.66,22.27,1.89,1.86-.18,3.77-.37,5.62-.49,1.9,7.72,4,15.41,6,22.88,4.13,15.38,8.39,31.24,11.07,47.18-13.79,2.33-29,7.66-39.91,14.12l-15,8.87h100.31l1.43-1.91c2-2.6,4.79-3.42,9.25-4.54a40.26,40.26,0,0,0,7.52-2.42c5.67-2.66,12.41-5.72,19.41-8.32,6.3-2.33,12.76-4.59,19-6.78,7.7-2.7,15.65-5.49,23.43-8.45s15.64-6.16,23.22-9.24c11.4-4.63,23.19-9.42,34.94-13.52,22.27-7.77,44.62-16.3,66.23-24.55q10-3.84,20.07-7.64c4.43-1.68,8.86-3.4,13.29-5.11,11.76-4.56,23.93-9.27,36-13.2,4.86-1.59,9.51-3.58,14-5.51a120.06,120.06,0,0,1,16.83-6.26c1.91-.5,4-.82,6.56-1.24,1.4-.22,2.94-.46,4.67-.77l4.42-.78-.51-4.45a70.22,70.22,0,0,1,.12-12.61c.59-8.75,1.26-18.67-4.24-28.63-.1-.18-.24-.43.1-1.08a4.44,4.44,0,0,1,2.38-2c12,1.76,18.81-5.18,24.28-10.77.15-.14.29-.29.44-.44l25.23,25.36,6-56.44,45.13-8.23-6.91-6.46c-2.81-2.64-5.56-5.43-8.23-8.12-7.2-7.29-14.62-14.79-24.36-20.53.94-1.51,1.88-3,2.8-4.46,4.16-6.6,8.08-12.83,11.56-19.43l1.09-2c3.37-6.23,7.2-13.28,5.2-22.06a30.45,30.45,0,0,0-1.89-5.3,7.42,7.42,0,0,1-.07-8.63,25.32,25.32,0,0,0,2-6.25c2.69-18.36-2.48-36-15.38-52.51-6.9-8.83-7.66-14.49-3-22.43,3.78-6.43,7-13.14,5-18.64a73.86,73.86,0,0,1-3-12.15c-.52-2.81-1.07-5.72-1.83-8.63a85.43,85.43,0,0,0-3.18-9.19c-2.11-5.45-4.29-11.08-3.17-14.39,1.72-5.07,1.81-10.21,1.89-14.75.09-4.82.17-9,2-12,3.19-5.32,3.3-10.89,3.4-15.81.11-5.58.32-9.15,3.26-12l1.47-1.41v-2c0-8.81,2.06-17.31,4.3-26.32,2.51-10.13,5.12-20.61,4.52-31.82-.14-2.45,1.39-5.64,3-9l1-2.17-.24-1.48a102,102,0,0,1-1.36-18.75,47.59,47.59,0,0,1,1.54-11l.19-.72,0-.75a32.24,32.24,0,0,1,.88-9.52l1.49-5.93h-1.44l1.64-4.93c2.63-7.86,5.1-15.28,7.26-22.88,2.23-7.87,4.78-15.82,7.25-23.52,4.65-14.5,9.46-29.5,12.48-44.93,1.21-6.19,3.61-12.19,6.14-18.54,1.34-3.37,2.73-6.85,3.94-10.38,2.22-6.52,5.43-8.9,13.76-10.17,11.52-1.77,22.75-5.41,33.61-8.94,4.67-1.51,9.49-3.08,14.23-4.45l10.93-3.19c14.35-4.18,29.18-8.51,43.81-12.57,7.68-2.13,15.52-4.21,23.11-6.22,14.92-4,30.35-8.06,45.38-12.76.83-.26,1.64-.54,2.43-.82a16.8,16.8,0,0,1,4.35-1.15l1.42,0,1.18-.79a23.23,23.23,0,0,1,3.87-2.11l1.83-.78.73-1.85a33,33,0,0,1,6.1-9.83l2.88-3.16c4.33-2.8,7.8-6.42,11-9.78,2-2.11,3.94-4.11,6-5.87,5.62-4.81,11.51-9.31,17.76-14.07l5.8-4.45c11.27,7.32,23.7,6.74,35.75,6.16,6.47-.31,13.16-.62,19.48.36l3.12.48,11.73-19c14-22.77,27.78-45.08,41.51-67.4.75-1.22,1.4-2.44,2-3.63a33.48,33.48,0,0,1,2.66-4.49c6.58-8.62,8.15-18.27,9.1-26.64,1.33-11.76-.72-22.88-2.7-33.63-1-5.64-2-11-2.55-16.42-.71-7.23-6.23-13.52-11.1-19.06-1-1.13-2-2.25-2.88-3.34a161,161,0,0,0-12.61-13c-1.78-1.69-3.53-3.37-5.21-5.06l-1.27-1.27-1.8-.11c-7.31-.47-14.59-1-21.86-1.46-18-1.22-36.65-2.48-55-3.33-9.23-.43-19.69-.91-30.34,4-4,1.86-9,2.32-14.29,2.8a75.7,75.7,0,0,0-12.53,1.86c-8.81,2.32-18.78,5-26.93,13.23-18.12,18.39-36.7,36.93-54.66,54.87-23.3,23.26-47.39,47.31-70.77,71.3-8.57,8.8-15.72,19-22.62,28.9-2.35,3.35-4.77,6.83-7.2,10.16-17.38,23.85-34.77,48-51.69,71.82-8.58,12.06-17.1,24.45-25.34,36.43q-3.88,5.67-7.79,11.32c-1.82,2.64-3.78,5.18-5.85,7.87-5.44,7.07-11.07,14.37-14,23.52-3.09,9.66-7.44,18.63-12,28.12s-9.26,19.13-12.59,29.5a108.9,108.9,0,0,0-3.33,15,99.06,99.06,0,0,1-3.1,14c-4.11,12.55-6.72,25.6-9.25,38.22-3.07,15.32-6.24,31.17-12.09,45.84l-.43,1.09.12,1.15c.91,9.07-1.64,17.69-4.35,26.81-2.05,6.91-4.16,14-4.78,21.62-.41,5-3.05,10.5-5.6,15.78-.74,1.52-1.47,3-2.15,4.54-9.27,20.37-24.45,37.45-46.43,52.21-.22.15-.48.32-.75.52,8.39-9.51,13.85-20.63,19.14-31.4a207,207,0,0,1,10.38-19.39c1.28-2,2.47-6.08.54-9-4.45-6.82-4-14.25-3.47-22.86.32-5.37.66-10.9-.21-16.64l.27-.23a44.59,44.59,0,0,1,5-4c13.06-8.49,16.92-21.75,20-35.74,1.79-8.11,2.52-16.44,3.22-24.49.42-4.72.84-9.6,1.48-14.3a90.6,90.6,0,0,1,1.89-9.1,93.13,93.13,0,0,0,2.13-10.39,103.46,103.46,0,0,1,3.53-16.73c2.64-8.85,3.34-18.16,4-27.17.3-3.93.61-8,1.07-11.9,3.83-32.12,10.62-60,20.78-85.35l.2-.51c6.43-16,13.08-32.6,18.26-49.42,5.85-19,14.78-37.09,23.43-54.61,3.21-6.5,6.52-13.23,9.65-19.93,12.27-26.27,12.27-26.27,38.19-39.4l2.12-1.07c5-2.54,10.23-4.94,15.77-7.49,2.76-1.27,5.63-2.59,8.66-4l2.74-1.28v-3c0-7.4.09-15.06.17-22.48.2-17.79.41-36.18-.48-54.48-.82-16.82,2.35-33.31,10.58-55.12q.35-.89.72-1.77a41.34,41.34,0,0,0,1.5-4.05c.65-2.22,1.11-4.5,1.55-6.69.83-4.12,1.62-8,3.46-10.57,6.8-9.42,13.16-15.75,19.43-19.36,5.48-3.14,9.74-7,13.87-10.83,1.94-1.78,3.78-3.46,5.73-5.06,2.2-1.82,4.5-3.5,6.94-5.29a97.92,97.92,0,0,0,12.45-10.24c5.6-5.73,12.26-9.42,18.62-12.55q18.17-9,36.39-17.8c33.74-16.45,68.64-33.45,102.36-51.38,7.27-3.87,14.6-7.93,21.68-11.86,11.52-6.38,23.44-13,35.38-18.9,1.88-.93,3.74-1.93,5.55-2.89,7.68-4.11,14.94-8,23.73-7.21,4.84.43,9.29-2.23,13.22-4.59,1.25-.75,2.44-1.46,3.55-2l14.88-7.54c31.85-16.13,64.78-32.81,97.08-49.4,7.71-4,16-3.87,24.86-3.78,3.84,0,7.8.08,11.79-.22l1.78-.14,1.25-1.27a192.1,192.1,0,0,1,37.39-29.21c3.17-1.92,5.53-4.88,7.26-7,7.38-9.23,17.43-14.76,28.08-20.61,3.33-1.84,6.78-3.73,10.12-5.74,7.24-4.35,14.44-9,21.41-13.42,11-7.06,22.42-14.36,34.08-20.69,7.86-4.27,12.78-13.52,13.18-24.74.11-3,0-5.93,0-8.79a90,90,0,0,1,.22-12,39.09,39.09,0,0,0-.22-8.35c-.51-5.06-.69-8.31,1.8-11.38,3-3.64,2.82-7.92,2.71-11.35-.13-4.13,0-5.29,1.76-6.35l2-1.23.24-2.35c1.09-10.59,4.51-20.55,8.13-31.1,3.7-10.77,7.51-21.89,8.64-33.8a11.39,11.39,0,0,0,4.64-6.64c1-4.6-1.64-8.44-3.58-11.25a15.47,15.47,0,0,1-1.9-3.2c-.73-3.3-3.13-5.5-5.06-7.26-2.84-2.6-2.73-2.9-2.43-3.7,1-2.81,3.37-5.92,7.13-9.52,7.93-7.59,14.17-16.57,6.2-30.79-2.61-4.64-2.76-7.15,6.34-13.36,13.73-9.38,24.69-17.16,34.51-24.5,4.64-3.46,10.69-9.33,9.6-20.2-1.41-14.11-.25-17.53,3.61-26.19.72-1.63,1.29-3.25,1.83-4.82a32.75,32.75,0,0,1,2.33-5.61l.54-.94c.91-1.61,3.06-5.38,4.22-5.79,10.37-3.55,21.17-6.63,31.61-9.6,3.85-1.1,7.71-2.2,11.55-3.32l3.43-1v-21Zm-4.82,13.89-8.06,2.31c-10.56,3-21.48,6.12-32.09,9.76-4.55,1.55-7.24,6.28-9.41,10.07l-.51.89a40.38,40.38,0,0,0-3.08,7.27c-.5,1.44-1,2.8-1.53,4.05-4.53,10.17-6,15.15-4.39,31,.48,4.87-1.15,8.13-5.82,11.62-9.71,7.25-20.57,15-34.19,24.26-5.59,3.82-17.21,11.75-9.28,25.9,4.68,8.32,2.4,12.66-4.47,19.23-4.9,4.69-7.91,8.85-9.48,13.11-2.62,7.11,2.29,11.61,4.94,14a13.22,13.22,0,0,1,2.19,2.29,19.15,19.15,0,0,0,3.36,6.56c.75,1.08,2.14,3.1,2.12,3.75,0,0-.29.74-2.31,1.92l-2.19,1.28-.16,2.53c-.73,11.54-4.43,22.3-8.34,33.7-3.41,10-6.94,20.21-8.34,31.1-4.62,4-4.44,9.54-4.32,13.33.07,2.13.14,4.15-.58,5-5.09,6.27-4.42,13-3.88,18.33a31.66,31.66,0,0,1,.23,6.36,97.29,97.29,0,0,0-.28,13.29c.07,2.85.13,5.54,0,8.22-.28,7.82-3.35,14.06-8.21,16.7-12,6.5-23.51,13.89-34.67,21-6.91,4.43-14.05,9-21.18,13.28-3.18,1.92-6.54,3.77-9.8,5.55-11,6-22.37,12.3-30.94,23-1.35,1.69-3,3.8-4.74,4.83a202,202,0,0,0-38,29.38c-3,.15-6,.12-9.23.09-9.6-.1-19.51-.2-29.31,4.83-32.28,16.58-65.2,33.26-97,49.38l-14.88,7.54c-1.41.71-2.8,1.54-4.14,2.35-2.68,1.6-5.71,3.44-7.48,3.27-11.61-1-20.89,3.92-29.07,8.3-1.81,1-3.53,1.89-5.28,2.75-12.14,6-24.15,12.67-35.77,19.11-7.05,3.9-14.33,7.94-21.54,11.77-33.57,17.85-68.39,34.82-102.06,51.23q-18.22,8.88-36.43,17.82c-7.12,3.51-14.62,7.69-21.21,14.44a89.78,89.78,0,0,1-11.28,9.21c-2.43,1.79-4.94,3.63-7.35,5.61-2.15,1.77-4.17,3.61-6.12,5.4-3.92,3.59-7.62,7-12.18,9.6-7.57,4.36-14.69,11.36-22.4,22-3.06,4.24-4.09,9.33-5.08,14.26-.42,2.09-.82,4.07-1.36,5.89a30.25,30.25,0,0,1-1.16,3.1c-.28.68-.56,1.35-.82,2-5.8,15.35-12.31,35.93-11.19,59,.87,18,.67,36.26.47,53.91-.07,6.43-.15,13-.17,19.54-2,.94-4,1.83-5.86,2.7-5.61,2.59-10.92,5-16.08,7.65l-2.12,1.07c-27.78,14.07-29.37,15.7-42.52,43.87-3.09,6.61-6.38,13.28-9.57,19.74-8.81,17.86-17.92,36.32-24,56-5.06,16.45-11.63,32.83-18,48.68l-.21.51c-10.47,26.1-17.47,54.81-21.39,87.77-.49,4.11-.81,8.28-1.11,12.32-.67,8.89-1.3,17.29-3.65,25.16a113.13,113.13,0,0,0-3.86,18.24,84.79,84.79,0,0,1-1.92,9.34,96.1,96.1,0,0,0-2.09,10.08c-.66,4.93-1.1,9.92-1.52,14.75-.71,8.1-1.38,15.76-3,23.26-2.75,12.44-5.84,23.28-15.89,29.81a55,55,0,0,0-6.14,4.86c-.74.65-1.47,1.29-2.19,1.89l-2.26,1.86.64,2.85c1.21,5.47.88,11,.52,16.86-.55,9.06-1.12,18.42,4.31,27.52a215.67,215.67,0,0,0-10.8,20.14c-5.41,11-10.53,21.46-18.52,30.17-9.6,10.48-19.47,21-29,31.26-9.14,9.79-18.58,19.91-27.8,29.94-11.28,12.28-22.54,25-34.44,38.9a5.93,5.93,0,0,0-.4.51,7.92,7.92,0,0,0-6.61,6.8c-.9,5.73-5.56,9.68-11,14.26a71.84,71.84,0,0,0-8.37,7.93,8.87,8.87,0,0,0-2.62.78c-6.83,3.22-10.89,8.72-11.39,15.29a49.21,49.21,0,0,0-5.33,7.6,8.43,8.43,0,0,0-1.19,3.87c-5.09,5.73-10.45,11.85-15.6,18.17a30,30,0,0,0-4.47,8.94,28.44,28.44,0,0,1-2.43,5.55c-2.73,4.24-5.75,8.46-8.68,12.55-4,5.53-8,11.24-11.62,17.26-5.26,8.86-11.22,18.91-13.63,29.59a85.54,85.54,0,0,0-1.6,14.49c-.32,6-.61,11.6-2.47,17.1a57.4,57.4,0,0,0-2.29,12.47,55.48,55.48,0,0,1-2,11.16c-1.26,3.94-1.38,7.91-1.5,11.75-.14,4.69-.28,9.12-2.54,12.94-1.94,3.27-1.6,7-1.25,10.86.15,1.6.3,3.25.3,4.92v10l7.77-6.29c13.56-11,15.84-24.64,17.85-36.68l.28-1.63a93.74,93.74,0,0,1,2.39-9.78c2.11-7.51,4.29-15.25,2.8-23.78,4-5.42,4.21-11.51,4.43-17,.19-4.67.35-8.71,2.59-12.15,6.53-10,12.47-20.57,18.22-30.77,4.4-7.81,9-15.88,13.7-23.61s9.1-16,12.7-23.07l.07-.08a8.74,8.74,0,0,0,3.12-5.16,8.61,8.61,0,0,0,4.44-3.63,83.78,83.78,0,0,1,11.91-15.48l3.62-3.23c.13-.12.26-.23.38-.32a9.68,9.68,0,0,0,1.19-1.12c8.86-8.05,17.86-16.95,22.86-29.23a13.49,13.49,0,0,0,1.32-1.1c4.66-4.45,9.26-9.07,13.7-13.55q3.69-3.7,7.4-7.4l1.68-1.67c5.83-5.85,10.86-10.89,19-11.46,10.58-.74,15.19-10.25,17.94-15.93a176.25,176.25,0,0,1,9.43-16.36c4.26-6.82,8.67-13.87,11.94-21.66,1.41-3.35,4.82-7.08,9.12-10,23.49-15.77,39.78-34.15,49.79-56.18.66-1.43,1.36-2.88,2.06-4.33,2.93-6.06,6-12.34,6.52-19.16.54-6.59,2.42-12.94,4.42-19.68,2.75-9.26,5.58-18.82,4.79-29.29,5.91-15.16,9.09-31.06,12.17-46.44,2.47-12.34,5-25.11,9-37.13a105.34,105.34,0,0,0,3.45-15.33,99.82,99.82,0,0,1,3-13.69c3.12-9.73,7.68-19.15,12.09-28.26,4.54-9.37,9.24-19.07,12.54-29.37,2.42-7.55,7.3-13.89,12.47-20.6,2-2.67,4.18-5.43,6.15-8.28l7.8-11.32c8.21-12,16.72-24.31,25.25-36.32,16.9-23.77,34.27-47.9,51.62-71.73,2.49-3.41,4.94-6.92,7.31-10.31,6.69-9.57,13.6-19.46,21.64-27.71,23.33-24,47.39-48,70.67-71.2,18-18,36.58-36.52,54.72-54.93,6.32-6.41,14.21-8.5,22.57-10.7a67.31,67.31,0,0,1,11-1.59c5.85-.53,11.9-1.08,17.42-3.64,8.54-4,17-3.57,25.89-3.15,18.21.84,36.79,2.1,54.77,3.32,6.68.45,13.38.91,20.11,1.34,1.33,1.31,2.7,2.62,4.08,3.94a154.35,154.35,0,0,1,11.88,12.25c1,1.15,2,2.33,3,3.52,3.92,4.47,8.36,9.53,8.77,13.71.57,5.84,1.64,11.63,2.67,17.22,1.94,10.53,3.77,20.47,2.6,30.83-1,9.06-2.59,15.89-7.21,21.93a40.73,40.73,0,0,0-3.51,5.82c-.58,1.1-1.13,2.14-1.71,3.09-13.73,22.31-27.48,44.62-41.51,67.39l-8.46,13.71a123.07,123.07,0,0,0-18.21,0c-12.43.6-23.18,1.1-32.42-6.31l-2.94-2.35-3,2.31c-2.91,2.27-5.76,4.44-8.56,6.58-6.35,4.85-12.35,9.43-18.17,14.41-2.41,2.06-4.58,4.33-6.68,6.52-5.26,5.48-9.8,10.22-17.11,11.45l-45.18,7.61,42.73,1.73c-.6,1.06-1.15,2.15-1.65,3.26-.87.44-1.73.91-2.56,1.43a28.63,28.63,0,0,0-5.88,1.59c-.69.24-1.4.49-2.13.72-14.82,4.63-30.15,8.7-45,12.63-7.61,2-15.48,4.11-23.21,6.26-14.69,4.08-29.55,8.41-43.93,12.6l-10.92,3.19c-4.88,1.41-9.78,3-14.51,4.54-10.5,3.41-21.36,6.93-32.11,8.58-11.78,1.8-18,6.58-21.34,16.52-1.13,3.29-2.47,6.66-3.77,9.92-2.59,6.47-5.26,13.17-6.64,20.24-2.91,14.88-7.64,29.61-12.2,43.85-2.5,7.77-5.08,15.81-7.35,23.83-2.1,7.39-4.54,14.71-7.13,22.46-1.22,3.65-2.46,7.38-3.72,11.25l-2,6.23h2.83a43,43,0,0,0-.17,5.69,57.28,57.28,0,0,0-1.67,12.51,112.12,112.12,0,0,0,1.25,19c-2,4.14-3.94,8.43-3.69,13.12.52,9.79-1.8,19.12-4.25,29-2.14,8.59-4.34,17.46-4.57,26.76-4.5,5.38-4.62,11.58-4.73,17.11-.08,4.27-.16,8-2,11.1-3.13,5.21-3.24,11.07-3.34,16.73-.08,4.22-.15,8.21-1.4,11.87-2.23,6.59.59,13.86,3.32,20.9a76.28,76.28,0,0,1,2.84,8.16c.68,2.58,1.16,5.19,1.68,7.95a81.41,81.41,0,0,0,3.4,13.71c.16.5.34,2.72-4.24,10.51-8.4,14.29-2.85,24.77,3.7,33.13,11.22,14.35,15.75,29.58,13.45,45.26a17.72,17.72,0,0,1-1.35,3.91,16.22,16.22,0,0,0,.1,16.14,22,22,0,0,1,1.35,3.62c1.2,5.28-1.47,10.2-4.29,15.41l-1.13,2.11c-3.32,6.28-7.15,12.36-11.2,18.8-1.81,2.87-3.66,5.8-5.51,8.84l-2.73,4.45,4.69,2.31c10.64,5.23,18.29,13,26.4,21.17.6.62,1.22,1.23,1.83,1.86l-33.78,6.16-4.61,43.61-17.65-17.73-3.37,3.05c-1.44,1.31-2.79,2.69-4.09,4-5.69,5.81-9.24,9-16.17,8-3.91-.59-8.55,1.72-11.28,5.63a10.74,10.74,0,0,0-.84,11.5c4.15,7.5,3.62,15.21,3.07,23.38-.22,3.2-.44,6.48-.37,9.79l-.31,0c-2.74.44-5.11.81-7.48,1.43a129.1,129.1,0,0,0-18.18,6.72c-4.5,1.93-8.75,3.76-13.2,5.21-12.34,4-24.63,8.77-36.52,13.37q-6.6,2.57-13.22,5.08-10,3.81-20.08,7.65c-21.56,8.23-43.84,16.74-66,24.46-12,4.18-23.88,9-35.39,13.69-7.53,3.06-15.33,6.23-23,9.17s-15.54,5.68-23.18,8.35c-6.29,2.2-12.8,4.48-19.17,6.85-7.32,2.72-14.29,5.88-20.14,8.61a32.44,32.44,0,0,1-5.8,1.82c-4.07,1-9,2.26-12.9,6.16h-55.66a111.93,111.93,0,0,1,20.83-4.7l4.87-.58-.71-4.85c-2.66-18.07-7.43-35.82-12-53-2.32-8.63-4.72-17.55-6.82-26.4l-.87-3.67h-3.77c-3.42,0-6.91.34-10.28.68-6.63.65-12.89,1.27-16.88-.83-17.31-9.15-28.14-.38-37.69,7.35l-1.52,1.23a34.49,34.49,0,0,1-4.14,2.69c-1.29.76-2.63,1.54-4,2.48q-6.72,4.72-13.48,9.38c-11.27,7.81-22.93,15.88-34,24.41a343.58,343.58,0,0,1-52.7,33.93,67.66,67.66,0,0,1-8.66,3.48c-5.63,2-11.44,4-16.42,8.39h-4c-1-1.61-2.54-3.56-5.15-4-4.06-.69-8.17-1.23-12.15-1.76-6.09-.79-11.83-1.55-17.53-2.83-4.49-1-8.64-3.23-10.08-5.38-5.06-7.53-9.5-15.66-14.2-24.27-1.94-3.57-3.94-7.23-6.06-11l-1.67-3-3.36.63-5.13,1c-4.13.76-8.8,1.62-13.4,2.54-14.75,2.95-26.81,3.45-37.78-3.68-5.71-3.7-11.37-7.82-16.84-11.79-4.09-3-8.31-6-12.58-9-8.34-5.71-16.4-8.31-25.22-8.12-12.49.23-25.21.19-37.52.16-12.67,0-25.77-.08-38.68.18-2.16,0-4.43-.13-6.82-.32-7.21-.56-15.35-1.19-23.14,4.26a32.69,32.69,0,0,1-6.69-3c-3.13-1.71-6.13-3.62-9.3-5.63a128.38,128.38,0,0,0-13-7.59c-22.55-10.92-48.23-24.44-67.6-46.83-6.44-7.45-13.58-14.37-20.49-21.06-4.61-4.46-9.37-9.08-13.82-13.76s-7.69-9.17-9.48-13.31c-8.43-19.41-16.56-38.42-23.39-57.67a138.73,138.73,0,0,1-4.65-18.33,146.19,146.19,0,0,0-5.15-20c-7.05-19.5-12.05-40-16.89-59.84-2.34-9.57-4.75-19.47-7.37-29.17-1.92-7.1-4-14.23-6.08-21.13-2.9-9.78-5.89-19.9-8.34-29.94-2-8.05-4.43-16.05-6.82-23.78-2.95-9.5-6-19.33-8-29.08-2.38-11.6-5.62-23.05-8.74-34.13-2.16-7.66-4.4-15.58-6.31-23.41-2.39-9.77-5.27-19.54-8-29-2.32-7.91-4.73-16.08-6.82-24.15-2.27-8.79-4.31-17.85-6.29-26.61-3.47-15.39-7.05-31.31-12.07-46.6-6.23-19-11.22-38.75-16-57.83-2.6-10.29-5.29-20.93-8.15-31.36s-6.11-21.08-9.24-31.3c-2.16-7.05-4.39-14.34-6.48-21.52-1.61-5.54-3-11.24-4.34-16.75-.61-2.52-1.22-5-1.85-7.49l-.9-3.59H320l-1-3a11.76,11.76,0,0,1-.11-3.87c.24-3.65.56-8.65-3.42-13.94-.87-1.32-.56-7,1.15-9.81.71-1.17,1.35-2.19,1.91-3.1,4.91-7.92,5.83-9.89,2.36-18.57a40,40,0,0,1-1.62-5.79c0-.18-.07-.35-.11-.52a72.81,72.81,0,0,1,6.43-6.65c3.64-3.46,7.36-7,9.93-11.6l1.52,1c4.85,3,9.86,6.2,15.59,7.85,12.69,3.67,17.34,12.81,20.74,26.38.36,1.44.83,2.75,1.37,4.27.26.71.55,1.5.85,2.39l1.74,5.12L399,1866.9v-32.07l-28.91-28.54c.28-1,.58-1.93.89-2.93,1.44-4.66,2.92-9.48,3-14.64.11-9.45,2.3-16.83,7.09-23.94a60.76,60.76,0,0,0,5.82-12.06c1.55-3.92,3-7.63,5.15-10.63a20.56,20.56,0,0,0,2.33-20.47c-3.58-7.77-6.64-14.87-7.74-22.91-.64-4.69-5.27-9.19-9.31-11A96.81,96.81,0,0,0,364,1683l-1-.29c-1-3.13-2-6.15-3-9.09-2.53-7.57-4.93-14.72-7-21.87-6.91-24.32-17.86-55.69-41.49-82.68-13-14.85-21.16-29.33-24.95-44.25-1.69-6.68-3.9-13.28-6-19.67-5.46-16.36-10.62-31.81-8-48.82a11.32,11.32,0,0,0-.51-4.77c-.17-.66-.37-1.46-.57-2.45l-.36-1.84-1.52-1.1c-1.81-1.32-3.69-2.75-5.64-4.23a170.13,170.13,0,0,0-15.14-10.68A97.72,97.72,0,0,1,213,1393.78c-7-12.82-17.14-19.39-31-20.07-4.4-.22-6-1.51-6.94-5.79-.79-3.4-1.78-6.77-2.75-10L228,1347l1.1-1.51a89.5,89.5,0,0,1,7.65-8.71,102.27,102.27,0,0,0,11.49-13.68c4.84-7.28,12.14-13.09,19.87-19.25,2.64-2.11,5.37-4.28,8-6.51a112.91,112.91,0,0,1,9.84-7.19c7.33-5,14.9-10.1,19-17.72,4.48-8.43,9.41-16.85,14.17-25,2.71-4.63,5.51-9.42,8.21-14.17,4.53-8,9-16.14,13.33-24,5.93-10.8,12.05-22,18.37-32.76,1.55-2.66,3.16-5.3,4.78-8,6.61-10.87,13.44-22.11,17.16-35,.69-2.38,1.26-4.78,1.81-7.11a86.46,86.46,0,0,1,2.69-9.75c8.59-23.76,11.89-49.37,10.08-78.31l-.09-1.43-.85-1.14c-4-5.28-3.65-11.31-3.27-18.3a65.39,65.39,0,0,0-.07-11.53c-.48-3.9-1-7.83-1.59-11.62-1-6.67-2-13.56-2.47-20.3-.9-12-2.9-21.12-6.69-30.57-2-5-4.2-10-6.33-14.8-5.07-11.46-10.3-23.31-13-35.71-1.52-7-5.7-14.63-12.4-22.59-13.25-15.73-27.7-31.25-40.45-44.94-4.71-5-9.68-9.94-14.49-14.67-3.62-3.56-7.37-7.24-10.93-10.93a98.47,98.47,0,0,0-25.46-19c-8.05-4.22-15.91-9.4-23.52-14.4-5.41-3.57-11-7.25-16.71-10.63a100.3,100.3,0,0,1-8.59-6c-8-6-17-12.68-29.45-11.82-4.28-3.8-9.51-4.09-13.83-4.34-4.14-.23-6.77-.47-8.64-2.4-3.91-4.06-8.06-8-12.07-11.74-7.63-7.18-14.84-14-20.72-21.83S113.58,680.73,109,671.17c-1.44-3-2.92-6.1-4.46-9.16,27.24-12.76,28.6-14.22,36.06-38l.58-1.83c3.63-11.59,7.39-23.57,8.22-35.84.48-7.24.51-14.58.53-21.67.06-15.5.11-31.52,5-47.26l17.51-17.51-2.61-3.33q-5-6.4-10.14-12.77c-7.85-9.82-16-20-23.4-30.29l-2.22-3.06c-5.72-7.83-11.63-15.92-13.52-24.2-2.59-11.33-7.87-21.22-13-30.79-4.81-9-9.35-17.51-11.69-27-.64-2.58-2.56-3.91-4.6-5.33-.92-.63-2-1.36-3.19-2.35L83.45,357,78,368.27c-5.32-5.58-8.26-10.7-8.77-15.26-1-8.58,2-16.44,5.15-24.77a100,100,0,0,0,5-16.13c.21-1,.45-2.1.7-3.18,1.06-4.61,2.26-9.82.81-14.69-3.47-11.68-5.75-24.51-7.17-40.36-.91-10.21-3.93-17.81-9.79-24.64-14.21-16.56-25.55-30.6-35.68-44.17-6.3-8.42-10.48-16.45-12.8-24.53a39,39,0,0,1-1-5.82c-.44-3.5-.89-7.12-2.58-10.55-4.25-8.63-2.77-16.37,5.08-26.7A98.66,98.66,0,0,1,24.5,109c5.27-5.49,10.73-11.16,13.34-18.34,3-8.41,7.15-8.28,15.32-8l1.07,0c4.83.15,9.72.23,14.45.32,15.35.27,31.22.55,46.84,3,14.62,2.31,29.7,1.83,44.28,1.35,7.9-.25,16.06-.52,24-.32,10.09.26,18.51-1.73,25.79-6.06,6.84-4.07,11-3.69,16,1.42,3.88,4,7.77,4.88,10.34,4.91s6.64-.8,10.8-4.89c1.3-1.28,2.64-2.52,4-3.76a78.7,78.7,0,0,0,9.86-10.33c17.6-23.5,33-41.49,49.75-57.95l12.08,2.75C333,15.64,343.71,19,354,22.33c11.23,3.59,22.85,7.3,34.84,9.89,4.7,1,8.75,1.89,11.7,7.72,5,9.87,15.05,18.48,29.88,25.59,5.59,2.68,11.4,4.83,17,6.91,9.69,3.58,18.85,7,26.89,12.84,2.53,1.85,5.41,2,7.73,2.1,3.08.15,3.34.37,3.72,1.05l2.38,4.32,13.33-8,.15.35c1.4,3.23,2.85,6.58,2.52,8.8-2.13,14.33,3.5,25.53,8.93,36.36,1.66,3.31,3.23,6.43,4.59,9.65,3.79,9,10.52,10.71,15.39,10.6l1.19,0c12.72-.3,25.87-.6,38.67.08,8.35.44,16.89,1.41,25.14,2.35,5,.57,10.17,1.15,15.29,1.62a13.88,13.88,0,0,0,5.88-1c.62-.21,1.28-.44,2-.62l3.57-.92V133.57l27.8-4.58,7.47,16.47h36.49l-16.28-24.67,5.63-5.79,21.42,21.4c-.54,2.37-1.29,5.56-2.86,7.46-15,18.15-7.1,35.33-.75,49.13,7.69,16.73,18.86,30.85,29.67,44.51l3.39,4.29c5.7,7.26,6.32,8.75,2.2,13.21-2.63,2.86-2.14,6.89-1.75,10.14a25.64,25.64,0,0,1,.24,2.71v4.24l12.24,1.44c.31.78.61,1.56.91,2.32,1.39,3.58,2.71,6.95,4.3,10.31,2.42,5.12,5,10.27,7.42,15.26,2.66,5.38,5.4,10.95,8,16.45.53,1.13,1.13,2.29,1.74,3.45,1.57,3,3.35,6.43,3.16,8.65-1.21,13.82,4.57,24,9.75,31.4a17.47,17.47,0,0,0,3.58,3.56c.48.39,1,.81,1.51,1.28l3,2.75,12.76-10.5a111,111,0,0,0,11.53,14.61c5.31,6,10.36,11.7,13,18.65l-18,18,4.22,17.84-6.52,9.35a15.5,15.5,0,0,0-3.35-1.88,31.1,31.1,0,0,0-5.85-1.46c-.93-.17-2-.35-3.11-.6l-10.19-2.16,5,9.12c13.38,24.31,13.9,25.26,25.37,31.82l4.21,2.41,2.34-4.26c.69-1.26,1.36-2.53,2-3.81,1.45-2.77,2.83-5.38,4.4-7.85,1.44-2.24,2.74-4.63,4-6.94,2.88-5.28,5.6-10.26,9.37-12.87,16.84-11.62,36.47-25.69,55.16-42.31,11.37,2.71,21.37,9,31.92,15.57l1.22.77,3,1.93c9.46,6,19.25,12.25,32.57,11.7,3.26-.12,8,1.64,11.38,4.31,8,6.26,15.62,12.95,23.67,20,3.22,2.82,6.47,5.68,9.81,8.57l3.89,3.36,58.82-79.67.23-.91c2.94-11.71,1-22.47-.9-32.88-1.55-8.56-3-16.7-1.67-24.88h25v-4.76c0-1.16,0-2.25-.06-3.28a40.58,40.58,0,0,1,.07-4.89c1-9-.44-17.57-1.8-25.88a112.83,112.83,0,0,1-2-17.38c-.07-8.33-1.48-16.46-2.84-24.32-1.93-11.13-3.74-21.65-2-32.38l.3-1.79-1-1.54c-2.71-4.31-3.44-9.56-4.21-15.12-1-7.34-2.16-15.66-8.23-23-3.27-4-3.41-12.75-3.53-19.83,0-.85,0-1.68,0-2.5-.34-15.77-.3-31.83-.26-47.37,0-9.43,0-19.18,0-28.77,0-.76,0-1.55,0-2.36.07-4.91.16-10.48-3-14.44a7.16,7.16,0,0,1-1.28-2.11,8.43,8.43,0,0,1,1-.88l26.36,16.68,3.86,5.7c7.66,11.34,17.28,18.66,26.57,25.75,6.45,4.91,12.53,9.54,17.5,15.2,4.76,5.42,10.71,9.55,16.46,13.55l1.73,1.2a22.48,22.48,0,0,0,7.89,3.06h0a14.8,14.8,0,0,0,4.29,3.1l4.87,4.87.11.11c3.48,3.26,7,6.75,10.31,10.13,7.66,7.71,15.58,15.68,24.66,22.06,10.41,7.31,20.22,15.84,29.7,24.09,10.17,8.84,20.68,18,32.13,25.84,2.26,1.55,4.28,4.11,6.62,7.08l1.54,1.94-32.67,32.67,27.5,34.53c-.57.83-1.13,1.66-1.68,2.48a93.73,93.73,0,0,1-8.55,11.41c-9.38,10.11-11.35,20.14-6.19,31.55.22.49.39,1,.58,1.56.77,2.35,1.94,5.9,7.61,7.82a178.25,178.25,0,0,1,31.43,13.66,124.4,124.4,0,0,0,54.68,16.39c1.16,1.92,2.28,3.93,3.37,5.88,3.53,6.27,7.17,12.76,12.42,17.92,7.88,7.74,6.36,14.59,3,26-.69,2.33-1.4,4.73-2,7.23l-.86,3.55,21,11.4q-1.89,4.08-3.83,8.25c-7.27,15.57-6.9,17.79,4.91,29.81,3.95,4,7.93,8,11.82,11.85l2.46,2.45c-.9,1.39-1.8,2.75-2.68,4.1a185,185,0,0,0-10.7,17.66c-1.87,3.68-1.8,10.06-.58,13.49a6.37,6.37,0,0,0,3.39,3.94c8.68,3.83,15.65,10.07,23,16.68a139,139,0,0,0,16.52,13.35l-15.5,1.19L1450.64,627l36.63-12.29-10,19.77,54.93,67.59h10.44a128.69,128.69,0,0,1,4.39,18.56c1.57,8.5,3.19,17.29,7.22,25.69,2,4.08,4.13,8.1,6.24,12,4.76,8.78,9.28,17.12,11.54,26.27l-19,9.64,1.41,4c2.39,6.71,7.07,10.86,11.19,14.52a57.3,57.3,0,0,1,4.79,4.59c3.46,3.93,7.16,7.52,11.07,11.32l1,.95a28.37,28.37,0,0,1-4,2.11c-6.16,2.49-12.49,4.93-18.61,7.29-4.73,1.83-9.46,3.65-14.17,5.52a14.87,14.87,0,0,0-4,2.53c-.32.27-.63.53-1,.76l-.8.58c-.5-1.28-1-2.55-1.63-3.79-4.11-8.52-12.76-11.31-22-7.12a65.59,65.59,0,0,0-11,6.44c-4.49,3.22-8.84,6.56-13,9.8l-1.8,1.38-19.67-18.13-50.43,50.43q-8.65-.71-17.2-1.46c-16.3-1.42-31.69-2.76-47.49-3.39-8.47-.33-15.73-2.77-21.72-5.12-2.84-1.11-5.66-2.33-8.65-3.61a188.71,188.71,0,0,0-25.86-9.51L1282,859.44l12.79,12.78c3.29,3.3,6.35,6.25,9,8.85,5.79,5.59,10.36,10,14.33,14.86,4.61,5.65,7.31,10.79,7.8,14.86.93,7.88.74,15.91.54,24.41,0,1.35-.07,2.71-.09,4.09l-79.7-29.75,2.94,9.31c3.35,10.63,10.46,16,17.34,21.13l2.55,1.93a154.17,154.17,0,0,0,14.58,9.58c7.81,4.72,15.22,9.2,20.78,15.53-10.64,23.71-20.68,41-45.39,48.1l-9.47,2.72,37.21,26.63-4.51,32.7,75.24,56,14.17-7.3,40.81,59.16-31,19.75,4.12,4.2c16.59,16.9,23.21,21.68,35.39,25.58,2.49.8,5,1.52,7.45,2.22,3.26.93,6.34,1.81,9.39,2.87,4.88,1.69,9.68,3.56,14.77,5.54,2.24.86,4.51,1.75,6.84,2.63l5.18,2,1.17-5.42c3.15-14.53-3.75-23.59-9.83-31.58a64.68,64.68,0,0,1-5.57-8.07l18.17-27,39.32,44.62v19.62l16.58,17.75c-9.13,11.18-9,13.87-4.06,28.35l2.33,6.78,17.52-15.63c1.19,1,2.38,1.94,3.62,3,5.44,4.53,11.07,9.22,18,11.13,12.08,3.36,23.77,0,35.06-3.19,3.18-.9,6.17-1.76,9.16-2.46,7.6-1.78,9-9.48,10.11-15.11a51.1,51.1,0,0,1,1.15-5.16l50.61,40.21,34.84-13.8c3,2.49,5.71,5.28,8.37,8,6.68,6.82,13.59,13.87,24.44,16.71l2.88.75,1.94-2.26c1.6-1.85,3.48-3.69,5.47-5.63,5-4.84,10.09-9.85,12.2-16.46,3-9.51-1.07-18.31-4.68-26.08a78.16,78.16,0,0,1-3.71-8.88c-3.16-9.86-7-21.26-12.77-31.67-4.24-7.65-5.19-16.47-6.1-25-.22-2-.44-4.08-.7-6.06-2.19-16.88-8.8-31.32-22-48-.06-3.23-.26-6.54-.46-9.75-.52-8.35-1-17,1-24.49,2.24-8.22,7-16,12.07-24.35,1.47-2.41,3-4.87,4.44-7.39a93,93,0,0,0,11.83,5.71c5.37,2.29,10.51,4.48,14.81,8l-35.3,35,.3,2.33c2.41,19,15.45,27.89,25,32.88a172,172,0,0,1,16.13,10c2.33,1.56,4.66,3.12,7,4.63,4,2.54,5.82,6.76,8,11.63,1.93,4.37,3.93,8.88,7.68,12.66l4,4,3.13-1.69c2.13-1.15,4.28-2.27,6.43-3.39,4.72-2.46,9.6-5,14.27-7.86,11.46-7,23-14.28,34.26-21.27,10.85-6.78,22.07-13.78,33.14-20.58,10.32-6.34,20.87-12.69,31.08-18.84,10.91-6.57,22.2-13.37,33.23-20.17,10.43-6.42,21-13,31.14-19.44,12.38-7.78,25.19-15.84,37.88-23.57,8.2-5,16.71-9.88,25-14.59,8-4.61,16.38-9.37,24.47-14.29,12.63-7.67,25.36-15.64,37.66-23.34,9.74-6.09,19.82-12.4,29.76-18.51,10.65-6.54,21.54-13.1,32.07-19.44s21.53-13,32.25-19.56c12.17-7.47,24.48-15.16,36.39-22.6,10.15-6.34,20.64-12.89,31-19.28,18.53-11.43,37.42-22.85,54.09-32.93,10.28-6.22,20.46-12.3,31.22-18.74l10.91-6.53q4.51,5.92,9,11.75c9.34,12.22,18.17,23.77,27,35.64.92,1.22,1.79,2.51,2.71,3.86,3.91,5.76,8.65,12.73,17.58,14.66ZM1420.88,2306.27c-.27.54-.53,1.08-.76,1.63-3,7.09-7,13.51-11.24,20.31a185.75,185.75,0,0,0-9.93,17.25c-3.28,6.78-5.73,10.28-10,10.58-11.73.82-18.84,7.95-25.11,14.24l-1.64,1.63q-3.73,3.71-7.44,7.45c-2.77,2.79-5.6,5.63-8.45,8.44,9.54-11,18.73-21.33,27.93-31.34s18.62-20.11,27.75-29.88C1408.19,2319.92,1414.54,2313.11,1420.88,2306.27Zm-119,130c-.19-4.49,3-7,5.78-8.4l2.48.54,1.68-1.92.62-.38.53-.68a54,54,0,0,1,8-7.71c5.61-4.76,11.93-10.13,13.89-18.4l1.51.63c-4.54,9.18-12,16.44-19.38,23.13l-.43.46-.72.59-3.86,3.46-.16.15a90.86,90.86,0,0,0-13.08,16.82l-1.77-.35a27.14,27.14,0,0,1,3-3.92h0l2-1.51Zm-64.41,129.16c1.8,7-.15,13.95-2.21,21.28a102.59,102.59,0,0,0-2.62,10.77l-.28,1.65c-1,6.14-2.07,12.4-4.72,18.26a45.9,45.9,0,0,0,1.52-12.15c.1-3.33.19-6.47,1-9.13a63.83,63.83,0,0,0,2.35-13,50.14,50.14,0,0,1,1.84-10.43c2.29-6.75,2.63-13.31,3-19.66a76.42,76.42,0,0,1,1.38-12.89c2.07-9.21,7.39-18.17,12.53-26.83,3.36-5.66,7.33-11.21,11.17-16.57,3-4.18,6.09-8.51,9-12.94a36.42,36.42,0,0,0,3.38-7.47,21.68,21.68,0,0,1,2.9-6.16c3.92-4.83,8-9.55,12-14.08-3.36,6.56-7.3,14-11.61,21-4.85,7.88-9.44,16-13.89,23.93-5.67,10.06-11.54,20.48-17.9,30.24-3.67,5.64-3.91,11.66-4.12,17-.24,5.9-.54,9.67-3.51,12.8l-1.81,1.91Z"/><path d="M2215.23,1508.87c-7.62-7.94-17.09-17.81-31.41-16.45-12.8,1.23-25.28-.37-38.48-2.07-11.6-1.49-23.6-3-35.73-2.44a19.32,19.32,0,0,1-4.94-.34c-2.37-.5-4.57-1-6.65-1.5-15.86-3.66-26.34-6.09-48.79,6.63-7,3.94-11.59,6-17.35,1.86-4.42-3.2-9.26-3-13.53-2.75s-7,.23-9.42-1.81c-3.6-3.08-8.21-.69-13.55,2.09a51.08,51.08,0,0,1-5.21,2.48q-15.27,5.63-30.57,11.18c-14.68,5.35-29.86,10.88-44.76,16.42-7.2,2.68-14.38,5.65-21.33,8.52-3.2,1.32-6.4,2.64-9.6,3.93l-4.3,1.74,3.81,10.21,2.61.51c2.75.54,5.57,1.18,8.3,1.81,6.38,1.46,13,3,19.74,3.4a83.94,83.94,0,0,1,14,2.48c7.92,1.86,16.1,3.78,25,2.26a22.28,22.28,0,0,1,2.39,1.67c.49.37,1,.74,1.43,1.06,1.68,1.18,3.32,2.55,5,4,3.74,3.13,7.6,6.36,12.39,8.15,3.42,1.28,6,3.83,8.78,6.53a38.88,38.88,0,0,0,8.28,6.71,14.71,14.71,0,0,0,7.31,1.94c3.94,0,7.56-1.5,10.7-2.79,2.72-1.12,5.34-2.2,7.53-2.13,2.49,0,5,0,7.4,0,5.74,0,11.48,0,17.22-.09,10.65-.08,21.67-.16,32.44.21,12,.41,22.23-3.87,30.88-7.92,4.87-2.28,9.67-4.79,14.32-7.23,3.91-2.05,8-4.17,12-6.11.72-.35,1.47-.73,2.22-1.11,2.83-1.44,6-3.07,8.11-2.89,7,.58,13.4-.79,19.63-2.11,5.18-1.1,10.06-2.13,14.8-2,7.13.29,13.66-1.45,19.43-3,5.22-1.38,10.15-2.7,14.75-2.34l3.7.29,1.18-3.51c.54-1.6,1.1-3.06,1.64-4.47a40.53,40.53,0,0,0,2.68-9c.12-.9.28-1.88.44-2.9,1-5.85,2-12.48-1.76-16.33C2217.06,1510.78,2216.15,1509.83,2215.23,1508.87Zm-4.9,17.64c-.18,1.11-.35,2.19-.48,3.18a33.18,33.18,0,0,1-2.14,6.91l-.58,1.52c-4.88.21-9.62,1.47-14.23,2.69-5.36,1.43-10.9,2.9-16.6,2.67-5.93-.23-11.64,1-17.15,2.15-5.82,1.23-11.32,2.39-16.87,1.93-4.77-.4-9.25,1.88-13.21,3.89-.7.36-1.38.71-2.06,1-4.15,2-8.27,4.16-12.25,6.25-4.55,2.38-9.25,4.85-13.92,7-7.66,3.57-16.64,7.37-26.52,7-11-.37-22.09-.29-32.85-.21-5.73.05-11.46.06-17.2.08-2.34,0-4.77,0-7.13,0-4.26-.09-8,1.47-11.37,2.85-4.46,1.83-7.11,2.8-9.74,1.34a31.8,31.8,0,0,1-6.26-5.21c-3.18-3.11-6.8-6.65-12.1-8.63-3.26-1.23-6.35-3.81-9.62-6.54-1.8-1.51-3.66-3.07-5.65-4.47q-.57-.4-1.17-.87c-2.19-1.66-4.85-3.68-8-3.68a6.52,6.52,0,0,0-1.31.12c-7.23,1.35-14.29-.31-21.76-2.06a92.7,92.7,0,0,0-15.54-2.71c-5.89-.37-11.74-1.7-17.92-3.12l.41-.17c6.87-2.83,14-5.77,21-8.39,14.87-5.53,30-11,44.7-16.4q15.32-5.57,30.6-11.18a56.56,56.56,0,0,0,6.31-3c1.35-.7,3.23-1.67,4.44-2.16,5,3.42,10.28,3.16,14.61,2.95,3.58-.18,5.84-.23,7.47,1,11.14,8.07,21.07,2.44,27.64-1.28,19.22-10.89,26.82-9.14,41.94-5.64,2.13.49,4.39,1,6.81,1.53a28.38,28.38,0,0,0,7.39.54c11.28-.55,22.35.87,34,2.37,13.15,1.69,26.74,3.43,40.61,2.11,9.74-.94,16.47,6.1,23.62,13.55.88.93,1.77,1.85,2.64,2.74C2211.45,1519.64,2210.73,1524.09,2210.33,1526.51Z"/><path d="M2357.33,1789.34a104.13,104.13,0,0,0-10.42-13.66c-3.57-3.76-4.48-8.76-5.45-14.06-.35-1.94-.71-3.94-1.21-5.92-.32-1.6,3.09-6.6,4.73-9,.65-1,1.29-1.9,1.86-2.79a20.56,20.56,0,0,1,3.65-3.77,31.68,31.68,0,0,0,5-5.19c8-11.3,7.25-21.22-2.46-34.24l-3.93-5.27-3.78,5.38c-3,4.22-5.91,8.42-8.83,12.6-7.6,10.91-14.79,21.2-22.4,31.49a25,25,0,0,0-5,18.64c1.22,10.17,2.48,20.18,3.71,29.87l1.61,12.7,1.61,1.22c6.13,4.6,11.9,6.37,17.32,6.37,10.25,0,19.23-6.35,27-11.82l3.94-2.78-2.83-3.9C2360,1793.31,2358.65,1791.29,2357.33,1789.34Zm-34,11.51-1.09-8.63c-1.23-9.67-2.5-19.67-3.71-29.81a15.52,15.52,0,0,1,3.19-11.83c7.69-10.39,14.91-20.74,22.56-31.7q2.37-3.41,4.77-6.83c3.93,7.28,2.59,11.78-1.38,17.4a22.91,22.91,0,0,1-3.51,3.56,28.17,28.17,0,0,0-5.33,5.74c-.53.82-1.12,1.69-1.73,2.58-3.53,5.19-7.53,11.07-6.09,16.72.42,1.66.74,3.41,1.08,5.27,1.11,6.14,2.38,13.1,7.92,18.93a96.32,96.32,0,0,1,9.43,12.44l1.45,2.13C2340.6,1803.8,2333,1807.16,2323.33,1800.85Z"/></g></g></svg>