<svg xmlns="http://www.w3.org/2000/svg" viewBox="0 0 1825.69 3560.24"><title>Asset 1</title><g id="Layer_2" data-name="Layer 2"><g id="Layer_1-2" data-name="Layer 1"><path d="M1824.53,3532.52a34.52,34.52,0,0,0-2.6-2.64c-.37-.35-.84-.79-1.15-1.12-.12-4.79-.07-9.69,0-14.44.07-6.94.14-14.11-.31-21.22-.41-6.53-1.38-13-2.31-19.33-.75-5-1.52-10.23-2-15.31-.41-4.47-.62-9.06-.83-13.49-.44-9.24-.89-18.8-3-28.59-2.07-9.39-2.42-19.1-2.8-29.38a226.33,226.33,0,0,0-1.87-25.17c-2.86-19.27-3.53-39.34-4.17-58.75-.27-8.27-.55-16.81-1-25.21,0-.16,0-.62.08-.93a8.14,8.14,0,0,0-1.08-6.08c-5-6.89-4.3-15-3.56-23.65.1-1.07.19-2.14.27-3.2.53-7-1-13.33-2.46-19.42a74.91,74.91,0,0,1-2.15-11.32c-.43-5.25-.68-10.63-.91-15.82-.49-10.7-1-21.76-3.14-32.95-1.58-8.28-1.76-16.76-2-25.74-.22-10.31-.45-21-3-31.64-1.26-5.38-1.33-11.06-1.39-17.07-.1-8-.19-16.31-3.13-24.81-1.71-4.95-1.28-11-.84-17.37a91.1,91.1,0,0,0,.29-13,107,107,0,0,0-2.07-13.35c-1.12-5.62-2.17-10.93-2-16.08.43-11.7-1.24-23.22-2.85-34.35-2-13.95-3.91-27.13-2.06-40.61l0-.26a6.9,6.9,0,0,0-1-5.53c-3.91-5-3.71-10.87-3.48-17.63a70.34,70.34,0,0,0-.13-9.93c-.51-4.86-1.28-9.71-2-14.4-.92-5.81-1.88-11.83-2.29-17.67-1.38-19.36-2.44-39.09-3.47-58.16q-.59-10.87-1.19-21.72c0-.16,0-.63.09-.94.19-1.59.51-4.24-1.36-6.38-4.34-5-3.87-10.82-3.31-17.58a52.49,52.49,0,0,0,0-12.34l-.34-2.18c-1.52-9.77-3.08-19.88-4.14-29.82a120,120,0,0,1-.43-12.69c0-9,0-18.23-3.87-27.87-1.7-4.22-1.26-9.78-.8-15.66a78.91,78.91,0,0,0,.32-12.22,91.48,91.48,0,0,0-2.1-12.37c-1.12-5.17-2.18-10-2-14.7.59-12.13-1.11-24.05-2.76-35.57-1.94-13.58-3.77-26.4-2.16-39.52,0-.22.06-.44.09-.68.29-1.92.71-4.82-1.07-7.21-4.33-5.79-4-12.29-3.51-19.82a67,67,0,0,0-.05-12.5q-.9-7.07-1.87-14.12c-.9-6.67-1.83-13.56-2.62-20.33a108.81,108.81,0,0,1-.53-11.26c-.1-7.88-.2-16-3.56-24.7-2.39-6.17-1.73-14-1-22.21.27-3.2.55-6.51.64-9.75.16-5.78-1.3-11-2.7-16-1.5-5.36-2.92-10.43-2.24-15.76,1.49-11.9-.42-23.52-2.26-34.76-1.91-11.6-3.71-22.56-2-33.69l0-.22a7,7,0,0,0-1-5.55c-4.31-5.81-4-12.35-3.55-19.93a69.78,69.78,0,0,0-.08-12.34c-.51-4.24-1.14-8.51-1.75-12.64-1-7.11-2.11-14.46-2.63-21.64-1.35-18.51-2.4-37.37-3.41-55.62-.41-7.28-.81-14.56-1.24-21.84l0-.2a6.49,6.49,0,0,0-.91-4.6c-5.08-7.41-4.35-16.11-3.58-25.33l.13-1.56c.59-7.22-1-13.7-2.47-20a83,83,0,0,1-2.11-10.88c-.72-7.06-1-14.32-1.3-21.33-.42-10.32-.85-21-2.62-31.76-3.66-22.36-4.18-45.79-4.67-68.46-.14-6.51-.29-13.24-.51-19.85-.33-9.86-.7-21-9.2-30.32-.19-3.11-.1-6.33,0-9.71.28-9.52.57-19.37-5.92-27.63a4.77,4.77,0,0,0-2.62-1.68l-24.67-5.94,25.13-16a4.7,4.7,0,0,0,2.11-3.12c3.15-16.9.93-32.86-1.22-48.29-1.83-13.15-3.56-25.57-2-38.16,0-.22.06-.46.09-.7.28-1.91.7-4.8-1.08-7.18-4.07-5.44-3.79-11.6-3.47-18.73a69.61,69.61,0,0,0-.12-11.26c-.56-4.79-1.3-9.6-2-14.26-.89-5.87-1.82-11.94-2.38-17.87-.65-6.9-.79-14-.92-20.86-.22-11.27-.45-22.91-2.88-34.78-2-9.71-2.14-19.7-2.29-30.28-.17-11-.34-22.38-2.72-33.7-2.53-12-3.2-24.86-3.85-37.27-.3-5.57-.6-11.34-1.06-17a8.77,8.77,0,0,1,0-1c.11-1.69.29-4.53-2-6.53-3.16-2.81-3.07-6-2.64-11.47a35.49,35.49,0,0,0-.09-9.14c-.52-2.95-1.17-5.88-1.8-8.72a109.32,109.32,0,0,1-2.51-14c-.33-3.75-.6-7.56-.85-11.26a245.72,245.72,0,0,0-3.08-28.36c-3-16-3.6-32.78-4.22-49.06-.29-7.67-.59-15.6-1.13-23.39-.89-13-2-26.15-3-38.88q-.75-9.12-1.48-18.23l0-.22a5.82,5.82,0,0,0-1.86-5.5c-3.34-2.67-3.25-5.7-2.77-11.28a34.78,34.78,0,0,0,0-9c-.49-2.83-1.11-5.66-1.71-8.39-1.24-5.65-2.42-11-2.46-16.24-.08-12.07-2.77-21.33-8.71-30a4.75,4.75,0,0,0-3.91-2.07h-3l.27-.27a4.73,4.73,0,0,0,1.42-3.38v-23.15l11.61-7.73a4.73,4.73,0,0,0,2.11-4.11c-.46-13.24-1.74-26.61-3-39.54q-.43-4.42-.84-8.87c-1.78-19.31-1.45-39.27-1.12-58.57.2-12,.41-24.33.12-36.51-.44-18.23-1.42-36.71-2.36-54.59-.72-13.56-1.46-27.58-2-41.35-.44-12.1-.27-24.51-.11-36.5.38-27.94.77-56.82-6.23-85.67a4.78,4.78,0,0,0-2.24-3l-15.27-8.8a4.74,4.74,0,0,0-5.89.93l-6.66,7.36c-2.14.07-4.61-.9-7.37-2-4.34-1.73-10.38-4.13-16.62-1.25l-3.37-9.88,24.14-11.63a4.79,4.79,0,0,0,2.42-2.7l4.15-11.75,3,8.36a4.74,4.74,0,0,0,4.47,3.15h10.6a4.75,4.75,0,0,0,4.61-3.62c.6-2.5,1.28-5,1.94-7.39A100.86,100.86,0,0,0,1593,762.1a178.54,178.54,0,0,0,.15-28c-.58-10.47-.42-21.21-.27-31.59.28-19,.57-38.65-3.55-58.33-3.69-17.6-2-37-.45-55.68l.16-1.88c1-11.52-.84-22.52-2.59-33.16-1.38-8.41-2.69-16.34-2.73-24.52,0-5.15,0-10.39,0-15.45.16-19.06.32-38.77-3.31-58.69C1577.93,441,1578,427,1578,412.15c0-14.37.1-29.24-2.4-44-2.11-12.47-2.09-25-2.06-38.3,0-13.59.06-27.65-2.4-41.71-2.6-14.82-2.72-29.76-2.85-45.56-.09-11.87-.19-24.14-1.44-36.31-4-38.8-4.42-78.73-4.84-117.34-.1-9.36-.2-18.71-.35-28.06-.21-13.59-3.61-25.36-7.25-36a4.74,4.74,0,0,0-5.66-3.07c-2.3.58-4.41,1.24-6.45,1.88-3.76,1.18-7,2.19-10,2.22l-18.2.24c-26.78.37-54.46.75-81.58-.34-18.6-.76-37.19.78-55.17,2.26-14.18,1.17-28.83,2.38-43.2,2.43-128,.4-243.37.67-359.17-.16-11.33-.08-22.82.18-33.93.42-29.07.64-59.15,1.3-88.52-4-13.28-2.4-26.89-2.51-40.06-2.62-11-.08-22.31-.17-33.34-1.6C760.6,20,741.66,20.1,723.33,20.19c-19.11.08-38.87.17-58.13-2.59-15.42-2.2-31.13-1.73-46.32-1.28-19.22.58-39.09,1.17-58-3.79a4.79,4.79,0,0,0-1.51-.14c-25.61,1.66-51.73-.25-77-2.09-25.48-1.86-51.84-3.78-78-2.1-9.6.61-18.8-.84-28.55-2.37-8.46-1.33-17.19-2.71-26.19-2.6-19.49.24-38.56.2-56.69-.12a10,10,0,0,1-3.32-1.55A22.23,22.23,0,0,0,287.58.42a4.75,4.75,0,0,0-6.05,1.92c-6.78,11.5-7.74,23.52-8.68,35.13-.54,6.74-1.05,13.1-2.64,19.29-2.27,8.84-2.51,18-2.74,26.84-.19,7.15-.39,14.53-1.66,21.62-3.27,18.23-3.87,37.06-4.46,55.27-.26,8.25-.53,16.78-1.05,25.08-.42,6.68-1.09,13.31-1.81,20.33-.33,3.29-.67,6.63-1,10a4.75,4.75,0,0,0,4.72,5.19h25.23a4.76,4.76,0,0,0,4.15-2.43l6-10.79c1.35-.62,2.88-1.16,4.48-1.74,6.5-2.33,14.59-5.23,17.73-15.43a4.75,4.75,0,0,0-.45-3.81l-2.07-3.51,9.12-5.43a4.73,4.73,0,0,0,2.32-4.07v-5.68L346.88,150h24.48l10.13,19.38a4.75,4.75,0,0,0,4.21,2.54c.74,0,1.55,0,2.41.08a39.09,39.09,0,0,0,8.58-.3,23.11,23.11,0,0,0,5.71-1.91l5.59,16.3a4.73,4.73,0,0,0,3.74,3.14l19.8,3.15c-13.32,10.35-25.91,21.91-35.17,37.07a4.73,4.73,0,0,0,.53,5.65l8.46,9.35A4.76,4.76,0,0,0,409.2,246l68.07-4.84a4.74,4.74,0,0,0,3.48-1.92l16.67-22.62,30.24,3.88a4.7,4.7,0,0,0,3.24-.76l15.85-10.57c8.44,2.53,17,3.49,25.36,4.42,12.18,1.36,23.72,2.64,33.81,8.61V254l-8.56,8.56c-12.92-.67-22.81,2-31.8,8.64-5.51,4-13,5.85-21.59,5.2-1.15-.08-2.31-.18-3.49-.28-8.24-.69-17.59-1.49-25.4,1.76-12.34,5.13-23.26,3.17-36.89-1.65a4.75,4.75,0,0,0-5.87,2.45l-2.89,6.12-30.74,6.05-11.15-11.15a4.74,4.74,0,0,0-7.76,1.59c-2.7,6.76-9.42,11.2-17.21,16.34l-1.63,1.07-6.63-7.61-6.6-20.65a4.74,4.74,0,0,0-4.52-3.3H366.84a4.74,4.74,0,0,0-4.16,2.48,18.52,18.52,0,0,1-3.88,4.21c-3.64,3.28-8.61,7.75-8,16.21-.56,1.32-3.08,3.76-4.23,4.07a163.15,163.15,0,0,0-16.82,4.42c-10.28,3.08-20,6-30.34,5.08a133.2,133.2,0,0,0-15.8-.22c-1.64,0-3.12.08-4.37.08a4.56,4.56,0,0,0-1.93.42l-32.09,14.31a4.76,4.76,0,0,0-2.8,4c-.46,6.92-.64,13.58-.81,20-.33,12.61-.65,24.53-3.09,36.49-2.14,10.48-2.32,21.26-2.5,31.69-.17,9.94-.35,20.22-2.24,30.1-1.69,8.85-1.91,17.89-2.13,26.63-.23,9.32-.47,19-2.52,28.18-1.95,8.8-2.13,17.78-2.31,26.47-.16,8-.32,16.18-1.87,24.12-2,10.55-2.25,21.39-2.43,31.88s-.39,21.55-2.52,32.06c-1.81,8.89-1.84,17.91-1.88,26.63,0,9.32-.07,19-2.32,28.25-2.21,9.11-2.45,18.58-2.68,27.74-.21,8.29-.42,16.86-2.11,25-1.84,8.88-2,17.94-2.22,26.7-.18,8.59-.37,17.46-2.13,26-1.92,9.33-2.12,18.92-2.31,28.19-.19,9.57-.39,19.46-2.52,28.9-1.58,7-1.59,14.16-1.6,21.05,0,8.49,0,16.52-2.75,24.38-3.4,9.79-2.11,21.49-.41,31.65.85,5-.64,9.81-2.22,14.85-1.4,4.48-2.85,9.12-2.87,14.34,0,3.56.11,7.14.24,10.61.44,11.75.86,22.85-4.17,33.2a4.77,4.77,0,0,0-.47,2.32c.95,18.43-.81,37.25-2.51,55.44-1.92,20.64-3.91,42-2.09,63.34.1,1.19.26,2.45.42,3.73.38,3,.95,7.45,0,8.89-4.64,7-4.66,14.15-4.68,20.45a60.56,60.56,0,0,1-.31,7.24c-.45,3.66-1.18,7.27-2,11.1a127.09,127.09,0,0,0-2.36,14.5c-.45,5.22-.53,10.44-.6,15.49-.15,10.21-.29,19.84-3.25,29.58-2.34,7.71-1.82,15.92-1.32,23.85a108.75,108.75,0,0,1,.3,13.4c-.43,6.86-1.47,13.9-2.47,20.71-.65,4.43-1.33,9-1.84,13.56a90.94,90.94,0,0,0-.1,14.75c.42,8.83.81,17.16-3.81,24.59a4.73,4.73,0,0,0-.71,2.69c.81,20.41-.59,41.82-4.27,65.44-1,6.68-1,13.35-.86,19.8.14,9.59.26,18.64-3.09,27.58-2.37,6.31-1.84,13.16-1.34,19.79a73,73,0,0,1,.31,10.84A126.12,126.12,0,0,1,149,1480a140.24,140.24,0,0,0-2.17,14.06,144,144,0,0,0-.19,16.2c.27,10.71.53,20.82-4,30.26a4.79,4.79,0,0,0-.44,2.66c1.78,14,0,27.73-1.9,42.23-1.38,10.62-2.81,21.59-2.7,32.64.07,6.74.05,13.6,0,20.24q0,4.62,0,9.24a4.71,4.71,0,0,0,1.85,3.76,4.61,4.61,0,0,0,.72.46l2.48,8.88-6.45,4.38a4.73,4.73,0,0,0-2,3.22l-6.6,43.88a4.74,4.74,0,0,0,4.43,5.44l15.68.87c3.81,2.52,3.85,5.75,3.58,11.84,0,.57-.05,1.14-.07,1.71l-21.3,21.29a4.75,4.75,0,0,0-1.39,3.35c0,2.31.24,4.67.47,6.95.42,4.15.85,8.45-.41,10.85-5.92,11.2-5.1,22.07-4.32,32.58l0,.18c.41,5.55-.88,10.86-2.25,16.48a83.35,83.35,0,0,0-2.39,12.75c-.54,6.4-.75,12.83-1,19-.37,10.91-.75,22.2-2.91,33.28-2,10.29-2.2,20.86-2.39,31.08s-.38,20.58-2.35,30.65c-1.85,9.44-2,19.07-2.15,28.38-.15,9.51-.3,19.34-2.29,28.81-2.09,10-2.21,20.25-2.32,30.16-.1,9.69-.21,19.71-2.21,29.36s-2.11,19.69-2.22,29.33c-.11,9.94-.22,20.23-2.45,30.07-2,9-2.18,18.28-2.3,27.22-.12,8.44-.24,17.17-2,25.58-2.17,10.37-2.32,21-2.47,31.36-.14,10-.29,20.42-2.33,30.38-2,9.77-2.14,19.74-2.28,29.39-.14,9.21-.28,18.73-2,27.93-2,10.67-2.13,21.61-2.21,32.19-.08,11.23-.17,22.84-2.64,34-1.79,8-1.8,16.2-1.81,24.09,0,9.06,0,17.61-2.46,26.14-2.94,10.26-2.15,21.33-1.39,32,.24,3.36.49,6.84.6,10.16.22,6.26-1.08,12.38-2.46,18.86-1.53,7.16-3.11,14.56-2.66,22.58.15,2.68.39,5.41.62,8.05,1,11.73,2,22.8-4,32.8a4.78,4.78,0,0,0-.67,2.71c1.32,23.39-1.21,46.59-4.39,72.31a144,144,0,0,0-.65,19.71c.13,10.36.26,20.15-3.15,29.93-2.52,7.24-2,15.08-1.41,22.66a91.17,91.17,0,0,1,.34,12.46c-.4,6.08-1.33,12.32-2.22,18.36-.77,5.23-1.57,10.63-2.06,16-.65,7.17-.82,14.38-1,21.35-.25,10.91-.51,22.2-2.67,33.3-2.18,11.26-2.3,22.84-2.41,34-.11,11.38-.23,23.14-2.55,34.43-1.62,7.91-1.38,16-1.15,23.72.32,10.65.62,20.7-3.58,30.15a4.68,4.68,0,0,0-.4,2.24c1.48,22.67-.67,45.71-2.75,68-.62,6.67-1.27,13.57-1.81,20.37-.46,5.89-.4,11.76-.33,17.43.13,11.07.25,21.53-3.29,32.08-2.58,7.7-2,16-1.45,24.09a101.56,101.56,0,0,1,.37,13.26c-.43,6.75-1.38,13.68-2.31,20.37-.73,5.31-1.49,10.8-2,16.27a205.44,205.44,0,0,0-.46,22.26c.19,12.59.37,24.49-3.31,36.49-4,13.06-2,28.22-.47,40.4.86,6.66-.69,13-2.33,19.66-1.27,5.22-2.59,10.61-2.79,16.37s-.27,11.32-.33,16.82c-.16,14.55-.33,29.59-3.05,44.44-2.24,12.18-2.36,24.7-2.49,36.8s-.25,24.35-2.43,36.28c-1.86,10.16-1.84,20.5-1.82,30.49,0,11,.06,22.42-2.5,33.4-2.68,11.46-2,23.66-1.41,35.45.28,5.19.57,10.56.57,15.81A4.73,4.73,0,0,0,5.46,3514c8.94.76,17.8,1.11,26.37,1.44,13.08.52,25.43,1,38,2.81,15,2.17,30.29,2.12,45.07,2.09,15.93,0,32.4-.08,48.4,2.66,13,2.22,26.25,2,39.05,1.78,14.19-.24,28.86-.48,43,2.66,11,2.44,22.52,1.87,33.65,1.32,6.4-.32,13-.64,19.31-.37,10.34.46,20.89,1.52,31.1,2.55,6.27.63,12.74,1.28,19.15,1.79,8.64.69,17.32.59,25.71.5,14.55-.16,28.3-.31,42.29,3.2,15.25,3.83,31.66,2.34,47.53.91l3.84-.35c9.31-.82,18.25.76,27.73,2.43,7.15,1.26,14.54,2.56,22.16,2.76,7.28.19,14.65.23,21.78.26,18.16.09,37,.18,55.51,2.9,16.09,2.36,32.59,2.5,48.54,2.64,15.57.14,31.66.28,47.27,2.49,12.5,1.77,25.17,1.6,37.42,1.44,14.69-.19,29.87-.4,44.57,2.79,17.9,3.89,36.9,2.16,55.26.49l.55,0c9.63-.87,18.89.71,28.71,2.38,7.94,1.35,16.14,2.75,24.6,2.75h1.34c18.24-.33,36.81-.24,54.77-.16,18.56.08,37.74.17,56.63-.19,10.47-.2,21.12-.2,31.43-.19,26.44,0,53.8,0,81-3.4,21.87-2.76,44.75-2.07,66.87-1.41,9.89.3,20.13.61,30.19.61H1402c10,0,20.08-.13,29.86-.24,22.22-.27,45.19-.55,67.64.59,17,.87,33.87-.86,50.18-2.53,15-1.54,30.53-3.14,45.81-2.62,17.86.6,36,.45,53.51.3,15.28-.13,31.07-.26,46.56.11,17.51.42,35.06-1.22,52-2.81,20.27-1.89,41.22-3.85,61.8-2.22,4.11.34,7.57-2.08,10.63-4.21a34.25,34.25,0,0,1,3.19-2.06,4.74,4.74,0,0,0,1.34-7.28Zm-14.41,4.1c-21.39-1.7-42.76.3-63.43,2.23-16.7,1.56-34,3.16-50.92,2.77-15.64-.37-31.52-.24-46.87-.12-17.43.15-35.46.3-53.11-.29-15.91-.53-31.77,1.09-47.1,2.66-16,1.63-32.46,3.33-48.73,2.5-22.74-1.16-45.87-.88-68.23-.61-9.76.12-19.85.24-29.75.24H1204.2c-9.92,0-20.08-.31-29.91-.6-22.48-.67-45.73-1.38-68.34,1.47-26.58,3.35-53.63,3.32-79.79,3.33-10.35,0-21.05,0-31.61.19-18.77.36-37.91.27-56.4.19-18-.08-36.65-.16-55,.16-8,.13-15.89-1.19-24.18-2.6-8-1.36-16.18-2.76-24.7-2.76q-3.19,0-6.46.28l-.54.06c-17.66,1.6-35.92,3.26-52.4-.32-15.76-3.42-31.49-3.21-46.7-3-12.44.17-24.19.32-36-1.34-16.23-2.3-32.64-2.44-48.51-2.58-15.64-.14-31.81-.28-47.26-2.55-19.22-2.82-38.34-2.91-56.84-3-7.07,0-14.39-.07-21.57-.26-6.91-.18-13.64-1.37-20.77-2.62-9.66-1.71-19.65-3.47-30.2-2.54l-3.87.35c-15.08,1.36-30.67,2.77-44.36-.66-15.19-3.81-30.2-3.65-44.7-3.49-8.18.09-16.64.19-24.86-.47-6.31-.5-12.73-1.15-18.95-1.77-10.34-1-21-2.12-31.64-2.58-6.74-.3-13.58,0-20.19.37-11,.54-21.36,1.06-31.12-1.11-15.24-3.39-30.48-3.13-45.22-2.88-12.94.22-25.17.42-37.29-1.65-16.81-2.88-33.69-2.85-50-2.8-15.12,0-29.38.08-43.7-2-13-1.88-26.19-2.4-38.94-2.9-7.08-.27-14.35-.56-21.65-1.08-.1-4-.32-8-.52-11.91-.62-11.65-1.2-22.64,1.16-32.79,2.82-12.05,2.79-24,2.76-35.58,0-10,0-19.46,1.66-28.76,2.33-12.73,2.46-25.52,2.59-37.89s.24-23.81,2.33-35.19c2.87-15.64,3-31.1,3.21-46,.06-5.45.12-11.07.32-16.6.17-4.78,1.31-9.47,2.53-14.44,1.77-7.24,3.61-14.72,2.52-23.14-1.46-11.27-3.27-25.3.13-36.4,4.12-13.43,3.92-26.64,3.72-39.42a196.09,196.09,0,0,1,.43-21.23c.49-5.26,1.23-10.65,2-15.85.95-6.87,1.93-14,2.37-21.08a109.45,109.45,0,0,0-.36-14.51c-.52-7.46-1-14.5,1-20.41,4-12.07,3.91-23.83,3.77-35.21-.06-5.71-.12-11.11.31-16.56.54-6.75,1.18-13.61,1.8-20.25,2.08-22.29,4.23-45.32,2.84-68.36,4.58-11.07,4.25-22.31,3.93-33.19-.23-7.56-.44-14.71,1-21.54,2.5-12.18,2.62-24.41,2.74-36.24.11-11.27.21-21.91,2.24-32.33,2.3-11.88,2.57-23.57,2.83-34.88.16-6.81.32-13.86,1-20.72.46-5.14,1.24-10.4,2-15.5.93-6.22,1.88-12.66,2.31-19.12a100.13,100.13,0,0,0-.35-13.77c-.5-6.93-1-13.47.91-18.86,4-11.36,3.81-22.45,3.67-33.17a134.68,134.68,0,0,1,.59-18.42c3.17-25.68,5.7-48.91,4.52-72.59,6.78-12.28,5.62-25.51,4.59-37.23-.24-2.68-.46-5.21-.6-7.75-.37-6.75,1-13.22,2.46-20.08s2.93-13.74,2.68-21.16c-.12-3.49-.38-7.06-.62-10.51-.71-9.87-1.43-20.09,1-28.74,2.81-9.8,2.82-19.43,2.83-28.74,0-7.72,0-15,1.58-22,2.69-12.1,2.78-24.22,2.87-35.95.08-10.62.15-20.65,2-30.47,1.93-10,2.07-20,2.22-29.58s.27-18.73,2.09-27.63c2.21-10.83,2.37-21.67,2.51-32.14s.29-20.08,2.28-29.55c2-9.31,2.08-18.51,2.2-27.4s.24-17.19,2.07-25.25c2.45-10.83,2.57-21.62,2.69-32.06.1-9.62.2-18.69,2-27.52,2.18-10.54,2.3-21,2.41-31.18.11-9.89.21-19.22,2.12-28.31,2.17-10.36,2.33-20.66,2.49-30.61.14-9.31.28-18.1,2-26.71,2.13-10.88,2.33-21.76,2.52-32.29.2-10.27.38-20,2.23-29.45,2.3-11.82,2.69-23.49,3.07-34.77.2-6.1.42-12.41.93-18.56a76.1,76.1,0,0,1,2.16-11.31c1.48-6.09,3-12.38,2.49-19.43l0-.18c-.72-9.59-1.39-18.65,3.24-27.44,2.61-4.93,2-10.94,1.47-16.23-.14-1.43-.28-2.8-.36-4.09l21.19-21.19a4.72,4.72,0,0,0,1.39-3.34c0-1.09,0-2.2.1-3.3.3-6.55.71-15.52-9.31-21.09a4.68,4.68,0,0,0-2-.59l-11.65-.64,5.51-36.67,7.56-5.13a4.74,4.74,0,0,0,1.91-5.2l-4.34-15.51a4.8,4.8,0,0,0-1.28-2.14c0-1.8,0-3.6,0-5.4,0-6.67,0-13.57,0-20.37-.11-10.38,1.28-21,2.62-31.31,1.83-14,3.72-28.52,2.07-43.28,4.94-11.1,4.65-22.4,4.37-33.34a138.32,138.32,0,0,1,.16-15.15,129.72,129.72,0,0,1,2-13.1,134.64,134.64,0,0,0,2.21-14.64,79.8,79.8,0,0,0-.3-12.29c-.45-5.86-.87-11.39.76-15.73,4-10.62,3.84-21,3.7-31.05-.09-6.34-.17-12.32.74-18.21,3.7-23.7,5.15-45.26,4.43-65.87,5.38-9.53,4.91-19.3,4.46-28.76a84.46,84.46,0,0,1,.05-13.23c.5-4.4,1.17-8.9,1.81-13.25,1-7,2.09-14.24,2.55-21.49a116,116,0,0,0-.3-14.59c-.47-7.42-.91-14.43.93-20.5,3.34-11,3.5-21.79,3.65-32.2.08-5.1.15-9.93.57-14.82a119,119,0,0,1,2.21-13.42c.77-3.84,1.58-7.8,2.08-11.83a68.43,68.43,0,0,0,.37-8.37c0-5.68,0-10.59,3.12-15.26,2.88-4.36,2.15-10.17,1.5-15.3-.15-1.15-.29-2.28-.39-3.35-1.75-20.51.2-41.42,2.09-61.64,1.69-18.15,3.44-36.9,2.59-55.63,5.51-12.13,5-24.55,4.59-36.58-.12-3.37-.25-6.85-.24-10.21,0-3.79,1.2-7.56,2.44-11.54,1.76-5.62,3.75-12,2.53-19.27-1.51-9-2.69-19.18,0-27,3.25-9.37,3.26-18.58,3.27-27.48,0-6.67,0-13,1.37-19,2.33-10.37,2.54-20.75,2.75-30.79.19-9.25.37-18,2.11-26.47,1.94-9.41,2.13-18.73,2.32-27.74.19-8.72.36-17,2-25,1.86-9,2.09-18,2.31-26.7.23-9.06.44-17.62,2.41-25.75,2.51-10.37,2.55-20.58,2.59-30.44,0-8.64.06-16.81,1.68-24.78,2.31-11.36,2.51-22.75,2.71-33.78.19-10.54.37-20.5,2.26-30.23,1.71-8.75,1.88-17.4,2.05-25.75.17-8.6.34-16.73,2.08-24.6,2.25-10.13,2.5-20.23,2.74-30,.22-8.75.43-17,2-25.09,2-10.68,2.22-21.38,2.4-31.72s.35-20.33,2.32-29.95c2.6-12.78,2.93-25.1,3.27-38.14.15-5.45.29-11.05.62-16.79l28.56-12.74c1.08,0,2.3,0,3.6-.08a126.55,126.55,0,0,1,14.7.19c12.18,1.07,23.23-2.24,33.9-5.45a158.71,158.71,0,0,1,15.87-4.18c5.38-1,12.47-8.34,12-13.83-.37-3.83,1.32-5.53,4.86-8.72a37.65,37.65,0,0,0,4.21-4.25h10.37l5.84,18.28a4.68,4.68,0,0,0,.94,1.67l10,11.51a4.74,4.74,0,0,0,6.27.79c1.67-1.15,3.34-2.25,5-3.34,6.71-4.42,13.14-8.66,17.48-14.7l8.49,8.5a4.74,4.74,0,0,0,4.28,1.3l35.57-7A4.73,4.73,0,0,0,477,291l2.11-4.47c13.65,4.39,25.9,5.81,39.63.09,5.68-2.36,13.45-1.7,21-1.07,1.2.11,2.39.21,3.57.29,10.91.82,20.56-1.61,27.92-7,7.53-5.53,16.05-7.59,27.65-6.68a4.74,4.74,0,0,0,3.72-1.37L614,259.28a4.77,4.77,0,0,0,1.39-3.35V219.61a4.73,4.73,0,0,0-2.1-3.93c-12.5-8.42-26.56-10-40.14-11.5-8.58-1-17.45-2-25.65-4.7a4.74,4.74,0,0,0-4.14.55l-16.27,10.86-31.24-4a4.79,4.79,0,0,0-4.43,1.89l-17,23.11-63.58,4.52-4.48-4.95c11.94-18,29-30.37,47-43.42l1.27-.92a4.75,4.75,0,0,0,0-7.71c-12-8.51-19.72-.22-23.06,3.41L416,180.33l-6.37-18.57a4.76,4.76,0,0,0-6.33-2.84c-1.13.48-2.2,1-3.25,1.49a21.22,21.22,0,0,1-5,2,30.48,30.48,0,0,1-6.43.16l-10.19-19.46a4.74,4.74,0,0,0-4.2-2.55H344.91a4.77,4.77,0,0,0-3.37,1.4l-20.9,21a4.72,4.72,0,0,0-1.38,3.35v4.93l-10.87,6.47a4.74,4.74,0,0,0-1.66,6.49l3.31,5.6c-1.94,4-5.65,5.49-11.15,7.46a50.91,50.91,0,0,0-6.95,2.91,4.65,4.65,0,0,0-1.88,1.85l-5.39,9.64H267.45c.16-1.61.32-3.21.48-4.79.73-7.11,1.41-13.84,1.84-20.69.52-8.46.8-17.06,1.06-25.37.58-17.88,1.17-36.36,4.32-53.9,1.4-7.8,1.6-15.55,1.8-23.05.23-8.7.45-16.93,2.45-24.73,1.79-7,2.36-14,2.91-20.89.76-9.47,1.49-18.5,5.27-27a12.88,12.88,0,0,0,5.2,1.33c18.23.32,37.4.36,57,.12,8.17-.11,16.15,1.15,24.6,2.48,9.82,1.55,20,3.14,30.62,2.46,25.49-1.63,51.51.26,76.68,2.1,25.33,1.85,51.52,3.76,77.54,2.14,20,5.1,40.32,4.49,60,3.9,14.79-.44,30.09-.9,44.7,1.19,19.95,2.86,40.06,2.77,59.52,2.68,18-.08,36.63-.16,54.58,2.17,11.6,1.5,23.24,1.59,34.49,1.68,13.35.11,26,.21,38.44,2.47,30.31,5.49,60.86,4.82,90.42,4.17,11-.24,22.46-.49,33.65-.41,115.85.83,231.25.56,359.27.15,14.75,0,29.59-1.27,44-2.45,17.69-1.46,36-3,54-2.24,27.37,1.1,55.19.72,82.09.35q9.09-.14,18.18-.24c4.36,0,8.41-1.31,12.7-2.66l1.71-.53c2.81,8.79,5.17,18.32,5.34,28.86.15,9.33.25,18.67.35,28,.42,38.83.85,79,4.88,118.21,1.21,11.72,1.3,23.77,1.4,35.41.12,15.5.25,31.53,3,47.13,2.32,13.23,2.29,26.87,2.26,40.06s0,26.63,2.19,39.89c2.37,14,2.32,28.44,2.27,42.42,0,14.59-.1,29.68,2.58,44.37,3.47,19,3.31,38.29,3.16,56.91,0,5.1-.09,10.37-.06,15.58,0,8.93,1.48,17.61,2.86,26,1.73,10.53,3.37,20.48,2.49,30.82l-.16,1.88c-1.64,19.4-3.35,39.47.62,58.42,3.9,18.65,3.62,37.77,3.35,56.25-.15,10.55-.31,21.45.29,32.26a169,169,0,0,1-.12,26.51,95.25,95.25,0,0,1-3.31,15.12c-.37,1.32-.74,2.67-1.1,4h-3.56l-6.32-17.84a4.75,4.75,0,0,0-9,0l-8,22.55-26.16,12.61a4.73,4.73,0,0,0-2.43,5.8l6.81,20a4.74,4.74,0,0,0,8,1.68c3.62-3.94,6.15-3.15,12-.8,4.2,1.67,9,3.56,14.39,2.22a4.67,4.67,0,0,0,2.38-1.42l5.23-5.78,10.18,5.87c6.23,27.05,5.86,54.63,5.5,81.33-.17,12.11-.34,24.63.11,37,.5,13.85,1.24,27.91,2,41.51.94,17.81,1.91,36.22,2.34,54.32.29,12,.08,24.25-.12,36.12-.32,19.55-.66,39.78,1.16,59.6l.84,8.9c1.14,11.92,2.31,24.22,2.83,36.33l-11.51,7.66a4.76,4.76,0,0,0-2.12,3.95v23.7l-7.12,7a4.75,4.75,0,0,0,3.33,8.13h12c3.93,6.53,5.66,13.46,5.73,22.69,0,6.24,1.38,12.33,2.67,18.21.61,2.75,1.18,5.34,1.63,8a27.52,27.52,0,0,1-.07,6.58c-.45,5.23-1.05,12.23,4.56,17.95,0,.14,0,.29,0,.44q.74,9.21,1.49,18.42c1,12.7,2.12,25.84,3,38.76.53,7.65.82,15.51,1.11,23.1.63,16.62,1.28,33.8,4.37,50.43,1.69,9.11,2.3,17.94,3,27.29.25,3.74.52,7.6.86,11.44a118.51,118.51,0,0,0,2.7,15.24c.61,2.74,1.24,5.57,1.72,8.31a27.66,27.66,0,0,1,0,6.74c-.43,5.52-1,12.31,4.59,18.14h0a15,15,0,0,0,0,2.34c.46,5.53.75,11.23,1,16.73.67,12.77,1.37,26,4,38.72,2.19,10.43,2.35,21.34,2.51,31.89s.32,21.46,2.49,32c2.25,11,2.47,22.22,2.68,33.06.14,7,.28,14.32,1,21.57.59,6.21,1.54,12.41,2.45,18.42.7,4.57,1.42,9.3,2,13.92a61.67,61.67,0,0,1,.06,9.73c-.34,7.57-.73,16.11,4.77,24,0,.3-.09.68-.12.94s-.1.64-.13.93c-1.65,13.81.25,27.43,2.08,40.6,2,14,4,28.54,1.63,43.23l-32.77,20.93a4.75,4.75,0,0,0,1.45,8.61l33.79,8.13c3.44,5.39,3.23,12.3,3,20.21a97.35,97.35,0,0,0,.17,12.53,4.75,4.75,0,0,0,1.39,2.91c6.54,6.47,7.27,14.17,7.64,25.19.21,6.56.36,13.27.5,19.75.51,23,1,46.77,4.8,69.78,1.67,10.2,2.1,20.58,2.5,30.61.29,7.16.59,14.56,1.34,21.91a90.71,90.71,0,0,0,2.33,12.13c1.39,5.8,2.7,11.28,2.23,17l-.12,1.54c-.81,9.6-1.71,20.43,4.44,30.32a8.2,8.2,0,0,0,0,1q.64,11,1.25,22c1,18.28,2.06,37.19,3.41,55.78.55,7.53,1.65,15,2.72,22.32.6,4.08,1.21,8.29,1.72,12.42a61.24,61.24,0,0,1,0,10.67c-.42,7.84-.89,16.67,4.55,24.88-1.88,12.59.12,24.78,2.06,36.57,1.81,11.06,3.53,21.5,2.2,32-.91,7.24.83,13.47,2.52,19.5,1.27,4.57,2.48,8.87,2.36,13.23-.08,3-.34,6-.61,9.2-.76,9-1.54,18.23,1.64,26.44,2.75,7.07,2.84,14,2.93,21.39a116.19,116.19,0,0,0,.59,12.23c.8,6.86,1.73,13.8,2.64,20.51.63,4.68,1.27,9.35,1.86,14a59.37,59.37,0,0,1,0,10.75c-.46,7.94-1,16.91,4.8,25.25,0,.32-.09.7-.13,1s-.09.62-.13.9c-1.76,14.37.25,28.43,2.19,42,1.66,11.6,3.22,22.54,2.67,33.76-.29,5.91,1,11.64,2.16,17.18a83.46,83.46,0,0,1,1.91,11.09,70.59,70.59,0,0,1-.32,10.75c-.53,6.71-1.07,13.66,1.46,20,3.2,7.92,3.19,15.88,3.19,24.31a127.21,127.21,0,0,0,.48,13.7c1.08,10.16,2.66,20.39,4.19,30.28l.34,2.17a44.68,44.68,0,0,1-.09,10.12c-.61,7.43-1.29,15.8,4.72,23.5,0,0,0,.07,0,.1a14.76,14.76,0,0,0-.14,2.59q.62,10.86,1.19,21.71c1,19.11,2.09,38.88,3.47,58.32.45,6.26,1.44,12.48,2.39,18.49.73,4.57,1.48,9.3,2,13.9a64.61,64.61,0,0,1,.08,8.61c-.25,7.11-.52,15.11,4.55,22.51-2,14.79.06,29.23,2.08,43.2,1.62,11.22,3.14,21.81,2.75,32.66-.22,6.25,1,12.36,2.16,18.27a98.76,98.76,0,0,1,1.92,12.19,82.86,82.86,0,0,1-.29,11.68c-.49,7.05-1,14.35,1.33,21.13,2.44,7,2.52,14.22,2.61,21.82.07,6.25.15,12.73,1.65,19.13,2.27,9.69,2.49,19.85,2.7,29.68.19,9,.39,18.25,2.12,27.32,2,10.52,2.51,21.23,3,31.59.24,5.28.49,10.74.94,16.17a82.19,82.19,0,0,0,2.38,12.77c1.36,5.62,2.64,10.93,2.22,16.47-.08,1-.17,2.07-.26,3.11-.79,9.22-1.69,19.63,4.71,29.14,0,.11,0,.21,0,.3a15.07,15.07,0,0,0-.13,2.53c.44,8.31.72,16.8,1,25,.65,19.68,1.32,40,4.27,59.84a219.28,219.28,0,0,1,1.77,24.12c.38,10.25.77,20.85,3,31.07,2,9,2.39,17.74,2.83,27,.21,4.53.43,9.22.86,13.9.48,5.34,1.27,10.68,2,15.85.91,6.09,1.84,12.4,2.23,18.53.43,6.76.36,13.76.3,20.53,0,5.12-.1,10.42.06,15.68h0a7.72,7.72,0,0,0,2.15,4.92C1812.21,3535.68,1810.74,3536.61,1810.12,3536.62Z"/></g></g></svg>