<svg xmlns="http://www.w3.org/2000/svg" viewBox="0 0 2941.71 3327.33"><title>Asset 1</title><g id="Layer_2" data-name="Layer 2"><g id="Layer_1-2" data-name="Layer 1"><path d="M2938.31,3104l-39.75-16.59-.7-15.83a5.54,5.54,0,0,0-2.48-4.37c-15.35-10.13-16-10.94-23.65-28.57-.4-.92-.81-2.06-1.25-3.26-1.8-5-3.83-10.56-8.88-12-5.58-1.61-7-5.47-9.25-12.73-1.69-5.49-3.57-11.61-8.77-16,.41-1.86,1.23-4.66,1.83-6.71.84-2.88,1.71-5.87,2.35-8.68a5.54,5.54,0,0,0-3.36-6.37c-1.13-.44-2.42-1.08-3.79-1.76-3.81-1.9-8.13-4.05-13.05-4.19-12.58-.37-20.5-3.5-23.56-9.31-6.93-13.16-17.23-23.06-27.19-32.64-6.57-6.32-13.34-12.82-19.11-20.26l18.7-29.62a5.54,5.54,0,0,0-1.3-7.34c-11-8.48-14.26-21.25-17.41-33.61-1.72-6.75-3.35-13.13-6.22-18.4a5.6,5.6,0,0,0-1.44-1.7c-11-8.64-20.78-5.65-27.92-3.47s-10.28,2.89-14.83-1.55a5.54,5.54,0,0,0-9,1.94c-1.85,4.74-3.44,9.58-5,14.26-4.21,12.85-8.21,25.06-17.23,34.53-10-7.62-19.64-2.19-25.72,1.23a29,29,0,0,1-6.69,3.11,5.53,5.53,0,0,0-3.44,2.37l-18.32,27.94-31-10.94a5.5,5.5,0,0,0-4.25.23l-22.38,10.81L2543,2871.21a5.55,5.55,0,0,0-4.08-1.79h-17.23a5.52,5.52,0,0,0-5,3.24l-9.66,21.28-24-13.06a5.53,5.53,0,0,0-6.65,1l-9.72,10.21a5.56,5.56,0,0,0-1.31,5.35l4.29,14.88h-46.7a5.54,5.54,0,0,0-5.42,4.42c-.16.82-.31,1.63-.46,2.44a22,22,0,0,1-1.28,5.08,6.54,6.54,0,0,1-2.15-.26,5.52,5.52,0,0,0-6.07,2.54c-1.93,3.24-4.57,3.49-11.05,3.33-3.63-.08-8-.19-12.18,1.35v-8.47a5.51,5.51,0,0,0-2.46-4.6l-10.15-6.79v-19.93a5.63,5.63,0,0,0-.52-2.35,125.11,125.11,0,0,0-9.08-15.54c-5.48-8.39-10.21-15.65-10.36-25a5.54,5.54,0,0,0-7.55-5.06l-15.28,6c-.15-2.25-.34-4.45-.53-6.62-.76-8.76-1.42-16.33,1.1-21.55,6.38-13.25,5.94-26.09,5.51-38.51-.26-7.66-.51-14.9.8-22.12a5.54,5.54,0,0,0-2.58-5.71l-15.74-9.55c.47-14.27-8.19-23.91-15.91-32.48-5.18-5.76-10.08-11.2-12.23-17.66a5.53,5.53,0,0,0-4.46-3.73c-15.8-2.26-30.28.78-43.15,9.06-4.57-5.26-11.36-7.25-17.09-8.93-9.56-2.8-13.77-4.41-13.45-13.16a5.54,5.54,0,0,0-5.53-5.74h-8.17l-57.7-43.48,10.63-19.35a5.52,5.52,0,0,0-.93-6.57l-9.34-9.34a5.56,5.56,0,0,0-3.91-1.62h-26.82l-5.21-18.34,16.13-10.34a5.53,5.53,0,0,0,.15-9.21c-16.62-11.44-32.29-16.44-51.84-16.44h-.76l-29.51-30.93a5.54,5.54,0,0,0-6.7-1l-33.46,18.67c-13.62-7.21-28.81-7.73-44.31-1.51l-16.43-11.4v-28a5.53,5.53,0,0,0-2.5-4.63l-15.22-10,11.67-13.57a5.54,5.54,0,0,0,.2-7l-12.25-16.05c.65-.71,1.34-1.42,2-2.14,6.54-6.81,15.5-16.14,5.51-32a5.57,5.57,0,0,0-2.13-2l-23.33-12.18c-1.62-10.62-10.45-14.62-17.07-17.62l-1.87-.85v-3.68a5.59,5.59,0,0,0-.83-2.93l-42.09-67.65c0-3.79,0-7.66-.1-11.42-.31-18.94-.64-38.52,10.53-55.86a5.53,5.53,0,0,0,.09-5.86c-7.41-12.26-18.82-11.58-27.15-11.08a55.57,55.57,0,0,1-7.11.14c-15.85-28.41-34.58-47-59.52-58.91l24.59-13.1a5.55,5.55,0,0,0,2.67-3.19c1.23-3.84,2.63-7.65,4.11-11.69,3.44-9.38,7-19.08,8.45-29.3,1.55-10.95,4.77-33.74-19.41-44.58-1.55-.7-3.36-3.46-5-5.9-2.32-3.55-5-7.58-9.16-9.77-5.56-2.89-7.61-7.09-10.44-12.91-.33-.69-.67-1.39-1-2.09-1.93-3.87-5.5-6.31-9-8.67-1.47-1-3-2-4.43-3.21a5.54,5.54,0,0,0-3.08-1.21l1.41-.64a5.51,5.51,0,0,0,2.67-2.59l8.54-17.25a5.55,5.55,0,0,0,0-5l-17.42-33.83a5.53,5.53,0,0,0-8.83-1.37l-15.11,15.11-12.7-17.33a5.57,5.57,0,0,0-2.68-2c-4.31-1.45-8.79-2.68-13.13-3.86-12.42-3.38-24.18-6.59-33.6-15.05.08-12.1-5.6-19.51-18.58-24.53-3-1.14-5.93-7.41-8.1-12-.92-1.95-1.8-3.82-2.74-5.55l5.93-26.3a5.51,5.51,0,0,0-1.89-5.5c-4.34-3.54-7.79-8-11.12-12.34-5-6.5-10.15-13.18-18.27-16.86-1.14-37.15-26.83-52.6-46.37-61a5.59,5.59,0,0,0-4.34,0,58.55,58.55,0,0,1-5.79,1.93c-6,1.79-11.67,3.48-13.17,8.69-3.62,12.57-12,14.83-25.29,17.48-3.32.66-6.76,1.34-10.13,2.31a28.17,28.17,0,0,0-5.45,2.34l-6.56-3.07,19.3-30.2a5.54,5.54,0,0,0-1.61-7.6l-39.77-26.26a5.55,5.55,0,0,0-.09-4.63l-15.51-32a5.56,5.56,0,0,0-5-3.12h-11.46l-2.87-8.17a5.58,5.58,0,0,0-3.38-3.38l-54.93-19.45,11.63-14.75a5.52,5.52,0,0,0,1.07-4.57l-4.13-19.46,18.52-34.42a5.54,5.54,0,0,0-2.38-7.56l-28.77-14.53,10.77-11.62a5.53,5.53,0,0,0,.27-7.21L1352,1521.42a5.54,5.54,0,0,0-6.49-1.65c-2.92,1.24-5.3,2.34-7.41,3.31a46.94,46.94,0,0,1-8.56,3.39,47.67,47.67,0,0,1-6.51.94c9.66-12.13,16.79-25,23.24-36.68,8.57-15.48,16-28.84,26.9-37.25a5.54,5.54,0,0,0,1.84-2.55l24.41-69.34a5.56,5.56,0,0,0-1-5.44L1386.23,1362v-15.3a5.52,5.52,0,0,0-1.62-3.91c-2.33-2.33-4.63-4.61-6.9-6.87-5.21-5.18-10.13-10.07-15-15.1-5.23-5.37-10.44-10.89-15.49-16.23l-3.11-3.29c27.47-30.22,30.24-37.48,13.87-58.56a5.54,5.54,0,0,0-4.07-2.13,5.48,5.48,0,0,0-4.27,1.67c-3.18,3.28-6.06,4.94-8.57,4.94h-.15c-2.54-.07-5.39-1.88-8.46-5.39a32.77,32.77,0,0,0-7-5.68c-.66-.44-1.27-.83-1.77-1.21a5.51,5.51,0,0,0-5.8-.52l-16.29,8.16a5.48,5.48,0,0,0-2.42,2.39l-10.28,19.71a49.42,49.42,0,0,0,0-11.54c-.16-2-.32-3.8-.32-5.45a5.54,5.54,0,0,0-3.65-5.21l-26.59-9.58a5.53,5.53,0,0,0-6.22,1.78l-9.46,12h-22a5.51,5.51,0,0,0-4.44,2.23l-12.26,16.49-18.16-1.18,5.86-19.44a5.52,5.52,0,0,0-2.92-6.59l-9.48-4.5,16.11-31.28a5.54,5.54,0,0,0-1.43-6.83c-3.89-3.15-3.77-7.16-3.21-14,.34-4.21.73-9-.61-13.64a5.61,5.61,0,0,0-1.33-2.3l-15.82-16.41a5.54,5.54,0,0,0-4-1.7h-8.64c-1.78-26.91,6.33-51.53,25.31-77a5.55,5.55,0,0,0-.74-7.42c-5.53-5-10.73-10.47-15.75-15.8-7.33-7.76-14.81-15.69-23.69-22.4h1.21a5.53,5.53,0,0,0,5.16-3.55l8.68-22.51a5.52,5.52,0,0,0-.26-4.55L1137,950a5.55,5.55,0,0,0-4.89-3c-3.72,0-5.54-1.93-9.08-7,9.7-1.86,17.83-7.68,19.22-24a5.54,5.54,0,0,0-5.52-6c-3.78,0-7.78-.35-11.66-.68-9.17-.79-18.65-1.61-26.83,1.91-12.79,5.51-25.6,5.19-39.15,4.85-3.78-.1-7.71-.2-11.6-.15-25.43.25-51.3.21-76.33.18-28.12,0-57.21-.07-85.84.3a95.32,95.32,0,0,1-9.86-.58c-9.52-.86-20.14-1.83-29.92,4.46-4.19-2.16-9.25-1.05-12.75-.11,2.69-11.4,2.58-21.38,2.47-30.34-.08-6.17-.15-12,.75-17.44,1.74-10.57,4.81-21.2,8.07-32.45,1.52-5.3,3.11-10.77,4.64-16.54a5.52,5.52,0,0,0-1.92-5.77C835,808.4,835.29,794.32,835.62,778l.06-3.37c.18-10.66.14-21.45.09-31.89,0-4.63,0-9.25,0-13.85a5.56,5.56,0,0,0-1.62-3.91l-29-29V560.81c0-13.66.11-27.56.22-41,.25-30.74.5-62.52-.55-93.79-.61-18,1.51-36.37,3.55-54.15,3-26.43,6.17-53.76.92-81.58a5.55,5.55,0,0,0-2.66-3.76l-22-12.76a5.53,5.53,0,0,0-6.09.35c-8.71,6.49-17.64,6.08-29,5.57l-1.13-.05.31-.35a5.54,5.54,0,0,0-.32-7.65c-11.14-10.7-21.92-15.89-33.93-16.32-5.67-.2-8.84-1.38-12.55-4.68-7.38-6.56-15.54-12.36-23.42-18-3.23-2.3-6.57-4.68-9.82-7.08a5.53,5.53,0,0,0-2.72-1.05c-1.95-.2-3.81-.24-5.61-.28-5.11-.11-9.14-.19-13.41-3.83-15.07-12.83-31.67-23.16-45.91-31.58-10.29-6.08-16.56-10.6-16.87-22.14-.18-6.61-3.42-12.47-6.56-18.14-1.26-2.27-2.44-4.42-3.37-6.5a5.52,5.52,0,0,0-5.91-3.22L561.12,140a5.54,5.54,0,0,0-4.68,5.47A150.79,150.79,0,0,0,557,161c-5.34-1.64-10.06-3.21-14.77-4.8v-10.4a5.56,5.56,0,0,0-2.07-4.31l-16.85-13.53V116.24a5.54,5.54,0,0,0-3.53-5.16c-12.91-5-16.43-7.55-14.9-14.81A5.53,5.53,0,0,0,504,92c-2.19-3.16-4.26-6.26-6.3-9.3-4.84-7.26-9.42-14.1-14.73-20.58-5.54-6.78-12.23-13.79-19.77-14.39-3.27-.26-6.79-1.78-10.51-3.39-7.9-3.42-17.7-7.66-28.51-.27-.08-.12-.18-.24-.27-.35L401.26,17.3a5.54,5.54,0,0,0-5.55-1.76c-5.92,1.5-12.11,1.32-18.66,1.14-10.12-.28-21.6-.59-32.8,6-5.21,3-16.29,3.09-20.8.09-11-7.3-22.58-10-33.8-12.64-2.73-.64-5.47-1.29-8.21-2-6.76-1.75-13.57-3.64-20.16-5.47-3-.82-5.92-1.64-8.83-2.43a5.5,5.5,0,0,0-4.95,1l-7.86,6.38a5.5,5.5,0,0,0-2,3.79c-1,10.48-.89,20.76-.82,30.71.11,17.3.22,33.64-4.82,49.91-3,9.59-2.29,19.86-1.63,29.79a129.09,129.09,0,0,1,.4,17.12c-.53,7.88-1.81,15.95-3.05,23.77-1,6.33-2,12.88-2.72,19.43a218.67,218.67,0,0,0-.64,25c.2,14.46.38,28.13-4.43,41.89-3.34,9.56-2.59,20-1.86,30.14a124.5,124.5,0,0,1,.46,16.89c-.51,7.57-1.75,15.35-3,22.88-1.06,6.63-2.16,13.49-2.79,20.37a249,249,0,0,0-.49,28.06c.34,16.58.66,32.24-4.78,47.88-4.56,13.14-2.65,28.64-.5,42.15,1.13,7.13-.9,13.77-3.06,20.81-1.78,5.82-3.62,11.84-3.82,18.51-.21,7-.24,14-.27,20.82-.09,20-.18,39-4.35,58.52-3,14-3.2,28.51-3.41,42.54-.2,13.4-.4,27.26-3,40.59-2.51,12.64-2.69,25.58-2.87,38.09-.19,12.82-.38,26.08-3.1,38.9-2.85,13.45-3,27.28-3.15,40.65-.15,13-.3,26.47-2.95,39.46-2.81,13.8-2.8,28-2.79,41.64,0,14.65,0,29.81-3.48,44.36-3,12.62-3.21,25.64-3.39,38.24-.16,10.87-.32,22.12-2.32,33-2.81,15.24-3.08,30.94-3.34,46.12s-.52,30.92-3.36,46.08c-2.36,12.64-2.38,25.5-2.4,37.93,0,13.84,0,28.14-3.35,42-3.15,13.21-3.43,27-3.69,40.23-.22,11.22-.45,22.82-2.42,34-2.5,14.16-2.68,28.68-2.86,42.72-.2,15.28-.4,31.08-3.62,46.31-2.65,12.53-2.77,25.34-2.9,37.72-.12,12-.24,24.36-2.67,36.39-2.9,14.37-3.16,29.23-3.42,43.61-.26,14-.52,28.55-3.25,42.5-2.39,12.28-2.6,24.8-2.81,36.91s-.41,24.85-2.89,37.1c-2.81,13.86-3.05,28.15-3.28,42-.22,13.57-.46,27.6-3.14,41.12-2.61,13.15-2.87,26.64-3.13,39.68-.24,12.33-.49,25.09-2.74,37.46-2.59,14.26-2.76,28.9-2.93,43.06-.18,15.18-.36,30.87-3.56,46-2.65,12.54-2.78,25.35-2.9,37.74-.12,12-.25,24.36-2.67,36.38-2.9,14.36-3.17,29.22-3.43,43.58-.25,14.05-.51,28.57-3.24,42.53-2.42,12.38-2.65,25-2.88,37.25s-.44,24.63-2.82,36.79c-2.87,14.66-3,29.75-3.13,44.33-.14,14.79-.27,30.09-3.28,44.83-2.68,13.11-2.9,26.57-3.12,39.58-.21,12.38-.42,25.17-2.76,37.55-2.55,13.51-2.83,27.41-3.11,40.84-.28,13.92-.58,28.31-3.41,42.15-2.54,12.45-2.68,25.14-2.82,37.41-.14,12.07-.28,24.55-2.72,36.68-2.91,14.41-3.19,29.32-3.46,43.73-.26,14-.54,28.47-3.22,42.39-2.52,13-2.57,26.33-2.62,39.17,0,13.46-.1,27.38-3,40.9-3,14.05-3.25,28.6-3.44,42.68-.2,13.36-.39,27.18-3,40.46-2.51,12.63-2.69,25.56-2.86,38.06-.18,12.83-.37,26.1-3.1,38.93-2.86,13.45-3,27.29-3.16,40.67-.15,13-.3,26.46-3,39.44-2.91,14.24-3,28.87-3,43s-.1,29-3.09,43.16c-2.77,13.18-2.93,26.75-3.09,39.88s-.32,27-3.19,40.13c-2.45,11.19-2.1,22.66-1.77,33.75.45,14.82.87,28.8-4.83,42.09a5.56,5.56,0,0,0-.42,2.79c2.38,21.56-.2,43.5-2.71,64.71-1.5,12.73-3,25.9-3.56,39s-1.57,26.62-2.7,40.87c-.55,7-1.12,14.24-1.68,22a5.56,5.56,0,0,0,2.53,5.05l74.13,47.57a5.5,5.5,0,0,0,4.94.52c13-4.92,13.39-15,13.66-22.37a47.06,47.06,0,0,1,.42-5.72l67.72,41.5a5.45,5.45,0,0,0,2.44.79c27.22,2.22,41.86-19.67,54.78-39l2.06-3.07h92.95c4,16.23-.67,31.55-5.19,46.4-3.85,12.63-7.82,25.69-6.23,38.89a5.44,5.44,0,0,0,1.58,3.25l37.07,37.12a5.54,5.54,0,0,0,3.92,1.62c9.33,0,18.61.15,28.45.31,22.28.35,45.31.72,68.22-.79,17.91-1.18,36,1,53.49,3.11,14.52,1.75,29.58,3.52,44.63,3.51,22.65-.07,45.69-.05,68,0H936.26c10.28,0,20.73-.16,30.83-.31,22.93-.34,46.65-.7,69.76.78,3.63.23,7.25.33,10.85.33,15.5,0,30.72-1.92,45.53-3.79,12.94-1.63,26.32-3.32,39.5-3.65,18.31-.45,37-.14,55,.15,37.46.62,76.19,1.25,114.69-4.77,19.88-3.1,39.79-3,60.87-2.81,22.32.16,45.39.32,68.23-3.76,13.44-2.4,27-2.08,41.41-1.74,17.77.41,36.14.84,54.59-4.22,10.37-2.84,21.84-2.16,34-1.43a204.14,204.14,0,0,0,22.7.5c11.55-.61,23.15-2,34.37-3.41,7.05-.87,14.33-1.76,21.48-2.44a215.63,215.63,0,0,1,23.27-.5c14.94.2,30.4.42,46.17-5.09,7.4-2.58,16.29-1.95,25.7-1.27a134.52,134.52,0,0,0,18.42.47c7.6-.52,15.14-1.75,22.43-2.94,6.9-1.13,14-2.3,21-2.79,26.07-1.86,52.64-3.29,78.34-4.67q14.58-.8,29.18-1.6c.23,0,1,.07,1.42.13,2.16.26,5.43.65,8-1.73,6.81-6.27,14.72-5.52,23.89-4.64,5.44.52,11.06,1.06,16.76.12l.87-.15c13.79-2.28,28-4.64,42.07-5.86,20.46-1.78,41.33-3.19,61.51-4.56q12.22-.83,24.43-1.67l.33,0a7.27,7.27,0,0,0,6.21-1.61c5.8-5.43,12.8-5,20.89-4.55a66.81,66.81,0,0,0,13.4-.12c4.55-.65,9.08-1.62,13.46-2.56,7.95-1.71,15.48-3.35,22.75-3,12.69.54,25-1.7,36.89-3.87,14.61-2.66,28.41-5.18,42.55-2.81l.28.05c3.35.57,7.94,1.34,10.8-2,4.55-5.35,9.56-5.09,18-4.19,4.18.45,8.5.91,12.93.24a105,105,0,0,0,13.83-3.35c7.39-2.16,14.35-4.19,22-3.33,10.6,1.21,20.76-1,30.57-3.2,10.57-2.33,20.55-4.53,30.66-2.55a5.56,5.56,0,0,0,5-1.57c4.4-4.52,9.5-4.62,17.47-4.39a64.83,64.83,0,0,0,10.38-.26,106.82,106.82,0,0,0,13-2.76c6.05-1.55,11.76-3,17.13-2.73,10.56.56,20.57-1.72,30.24-3.92,11.58-2.64,22.51-5.13,33.7-2.75a5.52,5.52,0,0,0,4.57-1.07c5.25-4.12,12-4,19.12-3.84,6.66.14,13.54.28,19.72-3s11.78-3.36,18.36-3.46a72.91,72.91,0,0,0,11.76-.84c3.79-.67,7.56-1.57,11.2-2.44,6.64-1.58,12.91-3.07,19.12-3.24,7.81-.2,15.2-2.07,22.35-3.88,9.89-2.51,19.23-4.87,28.81-2.69a5.57,5.57,0,0,0,3.82-.51c14-7.43,29.3-9.22,45.5-11.11,11.47-1.34,23.34-2.72,34.84-6.28,6.78-2.1,14.38-2.43,22.41-2.78,10.27-.45,20.88-.91,30.16-5.35,6.34-3,13-3.63,20.09-4.27,8.14-.73,16.54-1.49,25-5.92,6.17-3.22,14.19-3.71,22.67-4.22,7.37-.44,15-.9,22.15-3.21a92.54,92.54,0,0,1,15.05-3.06,91.84,91.84,0,0,0,16-3.35h0a34.34,34.34,0,0,1,3.46-.81c6.56-1.33,18.75-3.81,19.43-19.28A5.54,5.54,0,0,0,2938.31,3104ZM422.64,59.86a5.58,5.58,0,0,0,1.16.74l8.1,3.85v6.46h-6L422,62.75ZM2920.07,3117.79a38.41,38.41,0,0,0-4.78,1.17h0a82.84,82.84,0,0,1-14.13,2.89,102,102,0,0,0-16.84,3.48c-5.82,1.88-12.42,2.28-19.41,2.7-9.28.56-18.86,1.13-27.13,5.45-6.54,3.42-13.52,4-20.9,4.71-7.74.7-15.74,1.42-23.87,5.31-7.25,3.47-16.29,3.86-25.87,4.28-8.38.36-17.06.74-25.2,3.26-10.52,3.26-21.37,4.52-32.85,5.86-15.89,1.86-32.29,3.77-47.62,11.41-11.37-2-21.82.6-31.94,3.16-6.87,1.74-13.36,3.38-19.94,3.55-7.35.2-14.49,1.9-21.39,3.54-3.64.87-7.08,1.69-10.56,2.3a63.52,63.52,0,0,1-10,.68c-7,.1-14.94.23-23.42,4.77-3.63,1.95-8.79,1.84-14.26,1.73-7.65-.16-16.24-.33-24.05,4.69-12.67-2.08-24.53.62-36,3.24-9.35,2.13-18.17,4.14-27.21,3.66-7.07-.37-13.87,1.38-20.46,3.06a98.22,98.22,0,0,1-11.66,2.51,57,57,0,0,1-8.65.17c-7.16-.2-15.93-.45-23.48,5.69-11.33-1.56-22,.8-32.36,3.08-9.34,2.06-18.17,4-27,3-9.83-1.11-18.22,1.33-26.32,3.69a94.38,94.38,0,0,1-12.4,3c-3,.46-6.45.09-10.09-.3-8.08-.86-18-1.93-26.33,6.57-.64-.07-1.39-.2-1.85-.28l-.3-.05c-16.06-2.69-31.46.12-46.36,2.84-11.81,2.15-23,4.2-34.41,3.69-8.72-.38-17.28,1.47-25.57,3.25-4.38.94-8.52,1.84-12.68,2.42a58,58,0,0,1-11.2,0c-8.76-.51-18.63-1.1-27.49,6.11a9.91,9.91,0,0,0-1.22,0q-12.27.87-24.55,1.69c-20.23,1.36-41.15,2.77-61.72,4.57-14.45,1.25-28.92,3.65-42.92,6l-.86.14c-4.28.71-9,.26-13.9-.21-9.92-1-21.1-2-31.23,6.44l-.42-.05a17.79,17.79,0,0,0-3.35-.18q-14.58.81-29.16,1.59c-25.74,1.39-52.36,2.82-78.53,4.68-7.44.53-14.83,1.74-22,2.91s-14.31,2.34-21.38,2.82a123,123,0,0,1-16.89-.47c-10.11-.72-20.58-1.47-30.14,1.87-13.92,4.86-27.73,4.66-42.36,4.46a226.16,226.16,0,0,0-24.47.56c-7.3.69-14.67,1.59-21.79,2.47-11,1.35-22.44,2.75-33.6,3.34a191.09,191.09,0,0,1-21.47-.5c-12.51-.74-25.45-1.52-37.58,1.81-16.88,4.63-34.43,4.22-51.4,3.83-14.3-.34-29.08-.69-43.62,1.91-21.83,3.9-44.38,3.74-66.2,3.59-20.59-.15-41.89-.3-62.66,2.94-37.56,5.87-75.81,5.25-112.8,4.64-18.16-.3-36.94-.6-55.46-.15-13.74.34-27.4,2.07-40.61,3.74-17.75,2.24-36.09,4.55-54.3,3.39-13.24-.85-26.61-1.11-39.9-1.11-10.32,0-20.6.16-30.72.31s-20.47.31-30.67.31H639.47l-29.91,0c-22.29,0-45.34,0-68,0H541c-14.22,0-28.69-1.74-42.69-3.43-18-2.17-36.6-4.41-55.54-3.17-22.46,1.49-45.26,1.12-67.32.76-8.67-.13-17.62-.28-26.33-.3L315,3275.26c-.75-10.34,2.54-21.12,6-32.51,5.13-16.83,10.94-35.91,4-56.88a5.52,5.52,0,0,0-5.25-3.8h-100a5.53,5.53,0,0,0-4.57,2.41c-1.25,1.83-2.5,3.69-3.75,5.56-12.07,18-23.54,35-43.42,34.19L96,3180.08a5.54,5.54,0,0,0-7.34,1.43c-4,5.45-4.24,11.69-4.42,16.7-.22,6.05-.49,9.14-4.12,11.3l-68.8-44.17c.47-6.48,1-12.65,1.43-18.6,1.14-14.36,2.21-27.93,2.73-41.32.49-12.68,2-25.62,3.49-38.14,2.52-21.38,5.13-43.47,2.87-65.8,6.07-15.1,5.61-30.51,5.16-45.42-.33-10.9-.64-21.2,1.52-31.06,3.11-14.28,3.28-28.55,3.44-42.36.16-13.17.31-25.62,2.85-37.73,3.23-15.32,3.28-30.61,3.34-45.4.05-14.23.1-27.67,2.79-40.83,2.86-14,3-28,3.17-41.53s.29-26.13,2.93-38.5c3-13.89,3.14-27.71,3.33-41.07.18-12.56.34-24.42,2.65-36.06,2.84-14.27,3-28.61,3.24-42.47.2-14.15.39-27.52,3.2-40.49,3.17-14.66,3.22-29.17,3.28-43.2,0-12.9.09-25.09,2.41-37.11,2.87-14.86,3.15-29.82,3.42-44.28s.53-28.32,3.24-41.76c2.65-13.15,2.8-26.15,2.94-38.73.14-12.3.27-23.91,2.6-35.32,3-14.83,3.34-29.73,3.63-44.14.28-13.58.55-26.41,2.92-39,2.51-13.3,2.74-26.58,2.95-39.41.22-13.09.43-25.45,2.9-37.56,3.22-15.79,3.36-31.62,3.5-46.94.13-14.73.25-28.65,2.93-42.3,2.56-13.12,2.8-26.13,3-38.72.22-12.29.43-23.9,2.67-35.32,2.92-14.92,3.19-29.93,3.45-44.46s.5-28.22,3.2-41.59c2.64-13,2.76-26,2.89-38.46s.24-24.1,2.66-35.56c3.43-16.17,3.62-32.42,3.8-48.14.17-14.33.33-27.87,2.76-41.21s2.66-26.45,2.91-39.23c.26-13.14.5-25.55,2.92-37.74,2.88-14.49,3.12-29,3.36-43.09s.45-27.1,3-40c2.69-13.25,2.9-26.4,3.12-39.12.2-12.16.39-23.65,2.6-35,2.91-14.91,3.19-29.92,3.45-44.43s.51-28.24,3.21-41.62c2.63-13.06,2.76-26,2.88-38.47s.25-24.09,2.67-35.55c3.44-16.28,3.65-32.64,3.85-48.45.18-14.23.35-27.66,2.69-40.94,2.12-12,2.36-24.06,2.59-35.7.27-13.28.52-25.83,3.39-37.88,3.6-15.11,3.63-30.07,3.65-44.54,0-12.49,0-24.28,2.22-35.92,3-16.07,3.28-32.26,3.54-47.92.27-15.41.51-30,3.16-44.3,2.17-11.79,2.34-23.51,2.5-34.84.18-12.55.35-24.39,3.09-35.81,3.81-15.83,3.8-31.66,3.79-47,0-13.74,0-26.72,2.56-39.41,2.86-14,3-28,3.17-41.55s.3-26.11,2.92-38.49c2.94-13.87,3.14-27.68,3.33-41,.18-12.57.35-24.44,2.66-36.1,2.84-14.31,3.05-28.68,3.25-42.58.21-14.11.41-27.44,3.17-40.39,4.41-20.67,4.5-41.06,4.59-60.78,0-6.74.06-13.7.27-20.54.15-5.19,1.7-10.25,3.34-15.61,2.43-7.93,4.94-16.12,3.4-25.78-1.94-12.18-3.69-26.07,0-36.78,6.09-17.51,5.73-34.91,5.39-51.74-.19-9.26-.37-18,.44-26.82.6-6.51,1.67-13.18,2.7-19.63,1.25-7.77,2.54-15.81,3.08-23.89a133,133,0,0,0-.47-18.42c-.67-9.41-1.31-18.3,1.28-25.7,5.45-15.61,5.24-30.9,5-45.69a206.3,206.3,0,0,1,.58-23.71c.64-6.24,1.65-12.64,2.63-18.82,1.28-8.05,2.61-16.38,3.17-24.76a140.33,140.33,0,0,0-.4-18.59c-.62-9.34-1.21-18.16,1.16-25.78C248.1,77.4,248,59.43,247.86,42c-.06-8.93-.12-18.14.58-27.32l3.83-3.1,6,1.68c6.63,1.83,13.49,3.73,20.34,5.51,2.82.73,5.65,1.4,8.46,2.06C297.86,23.38,308,25.76,317.32,32c7.93,5.27,23.73,5.39,32.52.24,8.47-5,17.42-4.71,26.91-4.45,5.93.17,12,.34,18.25-.75l18.72,21.83L410.8,62.25a5.56,5.56,0,0,0,.41,3.55l6.2,13a5.52,5.52,0,0,0,5,3.16h15A5.54,5.54,0,0,0,443,76.44V61a5.53,5.53,0,0,0-3.15-5L432,52.25c4.88-2.47,9.37-.78,16.3,2.22,4.38,1.9,8.92,3.86,14,4.27,1.77.14,5.3,2,12.1,10.37,5,6.06,9.4,12.69,14.1,19.71q2.49,3.75,5.12,7.61c-1.69,13.91,9,19.68,18.6,23.58v10.56a5.53,5.53,0,0,0,2.07,4.31l16.84,13.53v11.7a5.58,5.58,0,0,0,3.78,5.25c6.45,2.19,12.64,4.3,20.09,6.56l2.07,15.79a5.53,5.53,0,0,0,6,4.79l4.09-.38a5.53,5.53,0,0,0,5-5.77c-.29-6.17-.59-12.55-3-19.21a68.53,68.53,0,0,1-1.62-14c.14.24.28.49.41.74,2.61,4.71,5.08,9.16,5.18,13.08.46,17.09,10.37,24.32,22.3,31.36,13.84,8.18,29.94,18.2,44.36,30.48,7.28,6.2,14.53,6.35,20.36,6.47,1.13,0,2.21.05,3.26.11,2.91,2.13,5.85,4.22,8.71,6.25,8,5.69,15.55,11.06,22.48,17.23,5.63,5,11.29,7.17,19.51,7.47,7.79.28,15.1,3.39,22.71,9.71l-4.63,5.26a5.53,5.53,0,0,0,4.37,9.19c4.24-.17,8.45,0,12.51.2,10.87.49,22.07,1,33-5.66l16.74,9.73c4.31,25.37,1.37,51-1.48,75.79-2.09,18.19-4.25,37-3.62,55.79,1,31,.79,62.71.55,93.33-.11,13.47-.22,27.39-.22,41.1V698.3a5.53,5.53,0,0,0,1.62,3.91l29,29c0,3.86,0,7.73,0,11.61,0,10.38.09,21.11-.09,31.66l-.06,3.32c-.33,15.78-.69,33.54,12.57,46.16-1.22,4.46-2.47,8.78-3.68,13-3.35,11.58-6.51,22.52-8.36,33.74-1.05,6.39-1,12.69-.89,19.36.12,10.16.24,20.68-3.64,33a5.57,5.57,0,0,0-.19,2.5,7.92,7.92,0,0,0,3.45,5.57c3.41,2.2,7.41,1.09,10.95.1,1.54-.42,4.75-1.32,5.55-1a.79.79,0,0,1,.1.14,5.53,5.53,0,0,0,8.46,1.38c7.24-6.42,15.73-5.65,25.58-4.76a107.31,107.31,0,0,0,11,.62c28.55-.37,57.6-.33,85.69-.29,25.05,0,51,.06,76.45-.19,3.71,0,7.52.06,11.22.15,14.14.35,28.77.72,43.79-5.75,5.63-2.42,13.35-1.75,21.51-1.05,2,.18,4.06.35,6.13.49-2.21,7.69-7.67,9-18,8.84h-.09a5.53,5.53,0,0,0-3.78,9.57,38.56,38.56,0,0,1,5.11,6.41c3.35,4.82,7.41,10.68,15.09,12.07l20.64,39.46-6.41,16.63h-17.69a5.53,5.53,0,0,0-2.17,10.62c15.67,6.69,26.56,18.23,38.09,30.45,4.09,4.32,8.28,8.77,12.75,13-19.74,28-27.41,55.41-24.09,85.77a5.54,5.54,0,0,0,5.5,4.93h11.36l13.12,13.62a35.33,35.33,0,0,1-.06,8.46c-.51,6.24-1.13,13.78,4,20.19l-16.9,32.79a5.54,5.54,0,0,0,2.55,7.53l10.35,4.91-6.5,21.55a5.53,5.53,0,0,0,4.94,7.12l28.1,1.82a5.5,5.5,0,0,0,4.8-2.22l12.4-16.67h21.9a5.54,5.54,0,0,0,4.34-2.11l8.65-11,19.34,7c.06.82.13,1.64.2,2.44.34,4.13.7,8.41-.47,11.28a17.66,17.66,0,0,1-1.76,2.86c-1.85,2.67-4.39,6.33-3.31,11.07,1.15,5.07,6,8.36,9.61,10.38a5.52,5.52,0,0,0,7.63-2.25l18.63-35.74,11.78-5.91a21.11,21.11,0,0,1,4.19,3.35c5.19,5.94,10.74,9,16.51,9.17a19.94,19.94,0,0,0,12.13-4.11c8.29,11.42,5.8,15-20.29,43.46a5.53,5.53,0,0,0,.06,7.55q3.32,3.48,6.64,7c5.07,5.37,10.32,10.92,15.6,16.35,5,5.1,9.92,10,15.16,15.22l5.26,5.23v15.06a5.52,5.52,0,0,0,1.33,3.6l11.38,13.26-22.81,64.82c-12,9.81-20,24.31-28.52,39.62s-17.11,30.93-30.72,44.78a5.53,5.53,0,0,0,4.47,9.38c3.39-.32,6.26-.53,8.77-.72a85.29,85.29,0,0,0,12.92-1.56,56.4,56.4,0,0,0,10.7-4.12l3.27-1.49,6,7.53-12.53,13.51a5.53,5.53,0,0,0,1.56,8.7l30.26,15.28-16.79,31.22a5.49,5.49,0,0,0-.54,3.77l4,18.9-14.81,18.77a5.53,5.53,0,0,0,2.5,8.64l59.72,21.15,3.29,9.37a5.53,5.53,0,0,0,5.22,3.7h11.91l12.12,25-.36.3a5.52,5.52,0,0,0,.5,8.86l40.92,27-19.77,30.93a5.52,5.52,0,0,0,2.32,8l14.9,7a5.55,5.55,0,0,0,5.32,0,6.06,6.06,0,0,0,1-.75,15.14,15.14,0,0,1,4.2-2.18c2.92-.84,6-1.45,9.23-2.09,12.31-2.45,27.59-5.48,33.48-24.34a43.94,43.94,0,0,1,6-2.08c1.53-.45,3.09-.92,4.61-1.45,26.44,12,38.08,28.63,37.69,53.74a5.53,5.53,0,0,0,4,5.39c7,2.09,11.47,7.83,16.59,14.47a94.46,94.46,0,0,0,10.26,11.86l-5.69,25.22a5.55,5.55,0,0,0,.71,4.17,63.55,63.55,0,0,1,3.3,6.42c3.29,7,7,14.85,14.12,17.59,10.45,4,12,8.23,11.41,16.1a5.55,5.55,0,0,0,1.61,4.3c11.77,11.76,26.23,15.71,40.22,19.52,3.78,1,7.38,2,10.86,3.13l15.46,21.11a5.52,5.52,0,0,0,8.37.64l14.31-14.31,12.68,24.6-6.43,13-19.41,8.81a5.53,5.53,0,0,0-2.68,7.49l9.06,18.32a5.53,5.53,0,0,0,9.38.88l9.35-12.41.54.36c2.39,1.64,4.65,3.18,5.29,4.46.34.68.66,1.35,1,2,3.19,6.54,6.48,13.31,15.28,17.89,1.64.85,3.35,3.47,5,6,2.43,3.71,5.18,7.91,9.69,9.94,13.88,6.22,15.27,16.78,13,32.93-1.28,9.06-4.63,18.2-7.88,27-1.19,3.27-2.43,6.62-3.55,10l-32.85,17.49a5.53,5.53,0,0,0,.65,10.06c28.6,10.77,48.93,29.56,65.92,60.92a5.54,5.54,0,0,0,3.73,2.78c4.19.88,8.37.63,12.41.38,7.21-.43,11.64-.48,15.11,3.2-11,19.27-10.61,40.18-10.3,58.74.08,4.41.15,8.58.08,12.7a5.51,5.51,0,0,0,.83,3l42.11,67.69v5.53a5.54,5.54,0,0,0,2.9,4.87c1.82,1,3.67,1.82,5.47,2.63,7.84,3.55,10.81,5.43,10.83,11.06a5.53,5.53,0,0,0,3,4.88l24.66,12.86c4.33,7.69,1.16,11-4.86,17.25a77.52,77.52,0,0,0-5.55,6.25,5.54,5.54,0,0,0,0,6.72l12.25,16L1907.22,2467a5.55,5.55,0,0,0,1.16,8.24l18,11.78v27.89a5.51,5.51,0,0,0,2.37,4.54l21.33,14.8a5.52,5.52,0,0,0,5.44.49c14.32-6.52,27.69-6.1,39.76,1.25a5.54,5.54,0,0,0,5.58.11l32.43-18.1,28.23,29.58a5.69,5.69,0,0,0,4.15,1.71c15.9-.44,28.4,2.49,41.34,9.91l-12.27,7.87a5.53,5.53,0,0,0-2.33,6.17l7.46,26.31a5.55,5.55,0,0,0,5.33,4h28.71l4.78,4.77-11,19.91a5.54,5.54,0,0,0,1.52,7.08l63,47.48a5.5,5.5,0,0,0,3.33,1.12h4.8c2,12.86,12.89,16,21.09,18.45,7.18,2.1,11.66,3.62,13.36,8.18a5.53,5.53,0,0,0,8.58,2.43,49.89,49.89,0,0,1,36.68-10.78c3.15,7,8.25,12.71,13.2,18.21,7.73,8.59,14.41,16,12.85,27.28a5.54,5.54,0,0,0,2.61,5.49l15.53,9.41a131.6,131.6,0,0,0-.39,20.66c.39,11.59.77,22.53-4.43,33.33-3.83,7.95-3,17.35-2.15,27.31.39,4.44.79,9,.79,13.65a5.53,5.53,0,0,0,7.55,5.15l15.86-6.22c1.93,8.86,6.66,16.12,11.28,23.19a124.33,124.33,0,0,1,7.79,13.1v21.62a5.55,5.55,0,0,0,2.46,4.6l10.15,6.79c0,5.73,0,9.24,0,12.75a5.52,5.52,0,0,0,1.64,3.93l2.15,2.14a5.52,5.52,0,0,0,8.46-.77c1.9-2.75,4.59-3,10.72-2.82,5.65.14,13.11.32,18.53-5.61a11.46,11.46,0,0,0,7.05-1.75c3.68-2.39,4.93-6.34,5.71-10.19H2477a5.53,5.53,0,0,0,5.31-7.07l-5.45-18.89,4.61-4.83,25.47,13.88a5.54,5.54,0,0,0,7.68-2.58l10.65-23.45h11.23l22.47,24.53a5.53,5.53,0,0,0,6.49,1.24l24-11.6,32.89,11.63a5.52,5.52,0,0,0,6.47-2.19l19.58-29.86a46.88,46.88,0,0,0,7.4-3.61c7.58-4.24,10.86-5.73,16.1.35a5.54,5.54,0,0,0,7.77.61c14-11.87,19.18-27.65,24.18-42.92.77-2.33,1.55-4.71,2.36-7.07,7.12,3.24,13.89,1.18,19.18-.44,6.3-1.92,10.94-3.34,16.94.91,1.92,4,3.27,9.25,4.69,14.82,3,11.58,6.56,25.73,17.54,36.32L2746.32,2902a5.51,5.51,0,0,0,.17,6.16c6.8,9.53,14.86,17.28,22.66,24.77,9.75,9.37,19,18.23,25.06,29.81,5.05,9.61,16.16,14.73,33,15.22,2.49.07,5.52,1.58,8.45,3l.17.09c-.34,1.23-.71,2.49-1.07,3.72-2.64,9-4.23,14.47.5,17.42,3.59,2.24,4.94,6.6,6.49,11.66,2.26,7.3,5,16.37,16,19.88a33.46,33.46,0,0,1,2.28,5.38c.48,1.3,1,2.65,1.5,3.88,8.07,18.65,10.33,21.8,25.35,31.84l.74,16.52a5.51,5.51,0,0,0,3.39,4.86l38.91,16.25C2928.71,3115.67,2925.64,3116.65,2920.07,3117.79ZM1729.84,2005.33h0l-7.24,9.6-2.54-5.16Z"/></g></g></svg>